<?xml version="1.0" standalone="no"?>
<!DOCTYPE svg PUBLIC "-//W3C//DTD SVG 20010904//EN"
 "http://www.w3.org/TR/2001/REC-SVG-20010904/DTD/svg10.dtd">
<svg version="1.0" xmlns="http://www.w3.org/2000/svg"
 width="1024.000000pt" height="1024.000000pt" viewBox="0 0 1024.000000 1024.000000"
 preserveAspectRatio="xMidYMid meet">

<g transform="translate(0.000000,1024.000000) scale(0.100000,-0.100000)"
fill="#000000" stroke="none">
<path d="M4945 10200 c-99 -14 -160 -59 -191 -140 -15 -39 -17 -96 -18 -435
l-1 -390 24 -50 c14 -27 40 -67 60 -87 l35 -38 -17 -47 c-9 -27 -14 -58 -11
-71 5 -18 -2 -32 -32 -63 -22 -23 -48 -39 -61 -39 -46 0 -161 -59 -232 -119
-85 -72 -181 -213 -181 -266 0 -6 -9 -20 -20 -30 -35 -31 -58 -219 -40 -331
29 -178 138 -344 313 -477 41 -31 44 -41 23 -89 -17 -40 -31 -93 -47 -178 -7
-36 -20 -83 -30 -105 -10 -22 -25 -65 -33 -95 -8 -30 -30 -98 -49 -150 -48
-128 -87 -253 -87 -275 0 -9 -7 -29 -15 -43 -15 -29 -40 -117 -55 -193 -4 -26
-22 -76 -39 -112 -19 -40 -31 -82 -31 -107 0 -29 -8 -51 -26 -75 -19 -25 -25
-44 -23 -72 2 -27 -6 -57 -28 -101 -18 -34 -37 -88 -44 -120 -6 -31 -20 -68
-30 -81 -11 -13 -19 -33 -19 -45 0 -28 -37 -146 -54 -171 -8 -11 -16 -38 -19
-60 -10 -73 -24 -120 -45 -155 -13 -21 -22 -52 -22 -76 0 -28 -6 -47 -20 -59
-13 -12 -20 -31 -20 -54 0 -20 -9 -56 -20 -80 -11 -24 -20 -53 -20 -64 0 -12
-11 -37 -24 -56 -13 -20 -34 -79 -46 -131 -12 -52 -27 -103 -31 -112 -5 -10
-11 -33 -14 -52 -2 -19 -10 -48 -18 -63 -7 -15 -22 -57 -31 -93 -10 -36 -29
-92 -42 -125 -13 -33 -24 -68 -24 -78 0 -9 -10 -34 -23 -55 -33 -54 -47 -89
-47 -119 0 -26 -13 -74 -33 -123 -5 -14 -13 -43 -18 -65 -11 -58 -40 -137 -57
-157 -9 -11 -13 -28 -9 -47 4 -20 1 -37 -12 -53 -11 -13 -26 -46 -34 -73 -23
-73 -46 -136 -62 -172 -8 -17 -15 -37 -15 -45 0 -7 -6 -33 -14 -58 -8 -25 -20
-70 -26 -100 -7 -30 -18 -65 -26 -77 -8 -12 -21 -48 -29 -79 -8 -32 -24 -76
-35 -99 -11 -23 -20 -53 -20 -67 0 -14 -16 -61 -36 -104 -20 -44 -37 -95 -39
-114 -2 -20 -13 -57 -24 -84 -12 -26 -21 -54 -21 -63 0 -8 -13 -53 -30 -100
-16 -46 -30 -95 -30 -109 0 -22 -9 -45 -62 -161 -20 -46 -31 -91 -63 -263 -8
-41 -19 -91 -25 -110 -5 -19 -12 -57 -15 -85 -3 -27 -12 -81 -20 -120 -15 -76
-51 -314 -61 -410 -4 -33 -13 -75 -20 -94 -8 -18 -14 -55 -14 -80 0 -26 -6
-70 -14 -97 -8 -27 -17 -80 -21 -119 -3 -38 -12 -97 -20 -130 -7 -33 -16 -105
-20 -160 -3 -55 -15 -130 -26 -166 -10 -36 -19 -87 -20 -115 -1 -27 -8 -58
-16 -69 -15 -23 -17 -61 -4 -70 12 -7 34 32 26 44 -3 5 3 17 12 27 18 18 32
50 60 139 8 27 28 77 44 111 16 33 29 70 29 80 0 33 55 179 78 209 12 15 22
30 23 34 10 75 23 129 40 163 11 21 19 49 19 63 0 15 11 54 24 88 13 34 32 89
41 122 10 33 23 76 30 95 7 19 34 103 60 185 26 83 56 175 67 205 11 30 28 84
38 120 10 36 39 126 65 200 26 74 50 151 55 170 4 19 30 100 58 180 27 80 53
161 57 180 4 19 14 47 21 62 8 15 14 36 14 48 0 12 8 35 17 53 17 32 34 84 54
162 5 22 15 54 23 70 25 57 88 250 96 292 3 23 11 48 17 55 6 7 14 33 18 58 4
25 15 61 24 80 10 19 21 52 25 74 4 21 11 46 15 55 5 9 18 50 31 91 12 41 33
109 47 150 14 41 33 104 43 140 10 36 25 83 33 105 16 40 65 202 107 345 12
41 30 99 41 128 10 30 19 62 19 72 0 10 10 27 23 37 21 16 45 18 273 16 1038
-7 1503 -2 1555 18 21 8 34 7 58 -5 25 -13 37 -14 74 -4 73 19 124 -6 138 -69
20 -95 48 -193 71 -253 14 -36 32 -87 41 -115 8 -27 20 -63 25 -80 6 -16 18
-57 28 -90 9 -33 25 -79 35 -103 11 -23 19 -53 19 -67 0 -13 4 -26 9 -29 4 -3
18 -38 30 -78 12 -40 31 -95 41 -123 10 -27 24 -68 30 -90 5 -22 17 -49 25
-59 8 -11 15 -36 15 -56 0 -20 22 -90 50 -159 33 -80 50 -137 50 -165 0 -34 6
-48 30 -71 25 -24 29 -34 24 -61 -3 -19 0 -43 9 -61 9 -16 19 -47 22 -68 4
-22 11 -45 16 -50 4 -6 13 -33 20 -60 6 -28 19 -58 27 -67 11 -13 13 -33 10
-75 -6 -65 7 -101 45 -126 18 -12 26 -28 31 -64 3 -27 29 -114 57 -193 27 -80
55 -161 61 -180 55 -184 85 -270 100 -295 10 -16 18 -40 18 -53 0 -13 13 -52
30 -87 16 -35 33 -90 36 -122 4 -32 17 -78 29 -103 12 -25 30 -76 40 -115 15
-62 50 -157 76 -207 23 -46 50 -145 45 -170 -3 -15 -2 -30 3 -32 13 -8 61
-114 61 -134 0 -10 6 -27 14 -38 16 -22 56 -135 56 -157 0 -8 11 -34 25 -59
28 -51 72 -174 84 -233 4 -22 13 -50 19 -62 7 -12 12 -37 12 -56 0 -23 6 -37
16 -41 31 -12 37 -7 30 27 -4 17 -9 73 -12 124 -3 61 -13 117 -30 165 -18 54
-23 84 -18 115 4 28 1 50 -9 70 -8 15 -20 66 -25 113 -6 47 -17 105 -26 130
-9 27 -13 60 -9 85 3 26 -1 58 -12 90 -10 28 -24 86 -30 130 -26 162 -37 221
-50 270 -8 28 -21 102 -29 165 -9 63 -20 140 -26 170 -12 65 -25 139 -41 235
-6 39 -15 77 -20 86 -4 8 -10 46 -14 83 -6 68 -12 89 -55 196 -12 30 -25 69
-28 85 -2 17 -11 39 -18 50 -8 11 -14 36 -14 56 0 23 -7 42 -20 54 -12 10 -20
31 -20 48 0 17 -11 53 -24 81 -43 91 -56 126 -56 147 0 11 -7 34 -16 50 -8 17
-28 72 -44 124 -16 52 -36 107 -44 124 -9 16 -16 47 -16 68 0 26 -6 44 -20 56
-12 10 -20 29 -20 48 0 17 -8 43 -19 57 -10 15 -21 41 -23 57 -6 34 -35 119
-51 150 -6 11 -14 38 -18 60 -4 22 -21 76 -39 120 -18 44 -35 94 -37 110 -3
17 -14 41 -24 54 -11 13 -19 35 -19 50 0 14 -19 73 -41 131 -23 58 -47 120
-53 137 -7 18 -23 44 -36 58 -21 22 -22 29 -12 46 11 16 9 28 -8 67 -12 26
-24 65 -27 87 -7 58 8 68 81 54 39 -7 73 -7 104 0 30 6 77 6 139 -1 65 -7 108
-7 144 1 28 6 55 8 61 5 12 -8 373 -8 385 -1 21 13 72 -32 83 -72 12 -46 28
-58 85 -62 34 -3 41 0 52 21 7 14 13 61 13 107 0 108 7 113 146 113 l101 0 7
37 c14 89 0 175 -30 187 -27 10 -54 -12 -54 -45 0 -24 -4 -30 -17 -27 -10 3
-16 10 -13 19 7 22 5 82 -3 103 -7 18 -10 17 -37 -12 -31 -35 -46 -38 -72 -18
-13 10 -18 27 -18 66 0 55 -17 119 -35 132 -5 4 -27 8 -47 8 -30 0 -42 -6 -62
-33 -17 -22 -26 -47 -26 -69 0 -61 -1 -61 -318 -63 -158 0 -292 -4 -299 -8 -6
-4 -37 0 -69 8 -46 12 -60 12 -72 2 -8 -6 -40 -14 -71 -17 -52 -5 -56 -7 -53
-28 1 -18 -5 -26 -28 -35 -37 -14 -34 -26 10 -41 27 -9 36 -17 38 -39 3 -26 1
-28 -35 -26 -21 1 -47 -2 -59 -6 -18 -5 -22 -2 -27 24 -7 32 -32 42 -54 20 -8
-8 -17 -8 -33 1 -29 16 -21 33 22 45 20 5 45 18 55 27 11 10 28 18 39 18 11 0
29 7 40 15 16 13 17 16 4 25 -31 21 -74 7 -99 -32 -13 -21 -31 -38 -40 -38
-31 0 -80 39 -86 67 -4 15 -15 44 -26 64 -10 20 -19 49 -19 64 0 14 -9 50 -21
78 -11 29 -25 63 -31 77 -14 34 -51 151 -78 240 -23 78 -40 128 -83 245 -15
39 -34 95 -42 125 -9 30 -23 69 -30 85 -18 38 -72 194 -91 260 -7 28 -18 59
-24 70 -15 32 -100 288 -100 303 0 8 -7 28 -15 45 -14 31 -50 130 -82 232 -9
28 -24 68 -35 91 -10 22 -18 56 -18 75 0 19 -6 43 -14 54 -7 11 -19 38 -25 60
-7 22 -28 79 -47 127 -27 65 -34 95 -29 120 5 26 2 38 -14 52 -12 11 -21 24
-21 30 0 6 -9 28 -20 49 -31 58 -27 101 13 128 53 36 197 182 197 200 0 9 8
27 18 40 29 40 59 109 82 194 19 67 22 97 17 181 -3 71 -10 109 -22 127 -9 14
-15 39 -14 56 2 17 -3 37 -13 48 -8 10 -30 43 -47 73 -52 93 -248 280 -294
280 -13 0 -31 9 -38 19 -11 15 -22 18 -46 14 -48 -8 -40 -28 22 -59 78 -38
131 -77 198 -146 64 -67 135 -184 120 -199 -15 -15 -43 1 -49 30 -4 14 -19 40
-35 56 -16 17 -54 58 -85 93 -31 34 -63 62 -70 62 -7 0 -19 6 -27 14 -27 28
-145 84 -188 90 -24 4 -74 14 -110 22 -53 12 -74 13 -105 4 -22 -6 -69 -15
-105 -19 -62 -8 -187 -60 -261 -109 -41 -27 -166 -171 -173 -200 -3 -14 -15
-37 -26 -50 -10 -14 -19 -33 -19 -44 0 -10 -7 -33 -16 -51 -14 -26 -16 -54
-11 -169 5 -133 6 -139 36 -183 17 -25 31 -50 31 -55 0 -29 137 -195 170 -205
24 -8 26 -40 5 -49 -10 -3 -32 9 -58 33 -23 21 -54 48 -69 61 -16 13 -28 29
-28 36 0 6 -7 17 -15 24 -15 12 -19 19 -72 125 -82 162 -78 329 13 521 42 89
138 202 209 247 131 82 195 108 289 118 50 6 127 9 171 8 44 -1 87 1 96 5 10
4 20 3 24 -3 3 -6 16 -11 27 -11 21 0 21 1 -4 28 -20 20 -27 41 -31 82 -3 30
-8 66 -12 80 -5 20 0 32 24 58 26 27 31 40 32 84 0 29 4 78 8 108 5 30 4 152
-2 270 -5 118 -10 281 -11 361 l-1 146 -36 44 c-34 42 -146 111 -173 108 -6
-1 -33 -5 -61 -9z m10 -90 c38 -16 46 -24 43 -42 -3 -22 -8 -23 -90 -26 -80
-3 -88 -1 -88 16 0 16 60 68 82 71 3 1 27 -8 53 -19z m35 -213 c0 -8 -8 -21
-18 -30 -16 -15 -21 -15 -37 -3 -16 12 -17 16 -6 30 16 19 61 21 61 3z m-66
-103 c11 -28 7 -34 -22 -34 -38 0 -46 9 -25 32 20 22 39 23 47 2z m51 -54 c3
-5 -1 -10 -9 -10 -9 0 -16 5 -16 10 0 6 4 10 9 10 6 0 13 -4 16 -10z m-56 -52
c-11 -24 -57 -63 -65 -55 -9 9 41 76 58 77 15 0 16 -4 7 -22z m18 -90 c-3 -8
-6 -5 -6 6 -1 11 2 17 5 13 3 -3 4 -12 1 -19z m13 -73 c0 -29 -19 -32 -55 -9
-35 23 -31 30 15 32 36 2 40 0 40 -23z m-80 -80 c0 -8 -4 -15 -9 -15 -13 0
-22 16 -14 24 11 11 23 6 23 -9z m78 -17 c-3 -7 -15 -14 -29 -16 -23 -2 -23
-2 -5 13 24 18 39 20 34 3z m207 2 c3 -6 -1 -13 -10 -16 -19 -8 -30 0 -20 15
8 14 22 14 30 1z m-241 -55 c11 -8 28 -13 38 -9 10 3 23 2 29 -2 14 -8 -67
-87 -84 -81 -7 2 -20 18 -31 36 -18 30 -18 33 -1 51 21 24 24 24 49 5z m61
-142 c-3 -14 -1 -31 5 -38 15 -18 -4 -29 -28 -16 -14 7 -27 5 -51 -10 -54 -32
-70 0 -27 55 19 26 31 31 65 32 40 1 42 0 36 -23z m-20 -139 c28 -18 33 -49 9
-58 -30 -11 -81 31 -70 59 7 19 30 19 61 -1z m-28 -130 c3 -8 -2 -23 -11 -32
-14 -15 -18 -15 -31 -1 -9 9 -13 23 -9 32 8 21 43 22 51 1z m311 -243 c28 -10
60 -25 70 -34 10 -10 28 -17 39 -17 34 0 130 -101 190 -199 46 -75 78 -171 69
-212 -3 -19 0 -42 10 -61 12 -23 13 -36 5 -57 -5 -14 -13 -54 -16 -87 -6 -60
-40 -124 -98 -189 -61 -68 -77 -92 -77 -112 0 -23 1 -23 29 -9 69 36 191 210
191 273 0 13 6 36 14 51 8 15 17 66 21 113 6 70 4 92 -9 117 -20 38 -21 72 -2
72 23 0 33 -22 41 -90 18 -142 3 -251 -47 -352 -15 -31 -28 -61 -28 -66 0 -5
-42 -53 -93 -107 -99 -105 -122 -115 -133 -57 -3 15 -15 32 -27 37 -12 6 -25
28 -34 57 -13 47 -43 78 -74 78 -30 0 -190 -57 -207 -73 -12 -13 -14 -23 -5
-49 5 -18 8 -50 5 -71 -3 -30 -9 -38 -30 -44 -13 -3 -37 -2 -51 3 -31 11 -40
54 -20 91 17 32 3 54 -47 71 -21 7 -46 19 -55 27 -8 8 -24 15 -34 15 -10 0
-33 5 -51 12 -29 10 -36 9 -53 -6 -10 -10 -25 -31 -31 -47 -21 -49 -49 -39
-129 48 -39 43 -71 84 -71 91 0 8 -9 21 -21 31 -27 22 -40 81 -46 212 l-5 106
47 94 c64 130 64 131 125 191 60 59 112 98 130 98 6 0 23 9 37 20 14 11 32 20
40 20 8 0 29 7 46 15 44 19 93 24 222 18 68 -3 130 -11 163 -22z m-388 -946
c36 -25 37 -27 32 -78 -2 -29 -12 -65 -22 -82 -10 -16 -21 -50 -25 -75 -4 -25
-16 -61 -26 -80 -11 -19 -19 -44 -19 -56 0 -12 -7 -35 -15 -50 -8 -16 -15 -44
-15 -63 0 -18 -8 -50 -19 -70 -20 -38 -61 -168 -61 -192 0 -8 -7 -26 -14 -42
-14 -26 -37 -103 -57 -192 -5 -22 -16 -56 -24 -75 -18 -41 -78 -242 -95 -318
-7 -28 -16 -55 -21 -58 -5 -3 -9 -14 -9 -25 0 -12 -18 -73 -40 -136 -22 -64
-40 -124 -40 -134 0 -10 -8 -38 -19 -61 -29 -68 -61 -171 -61 -198 0 -14 -6
-34 -13 -45 -8 -11 -26 -63 -41 -115 -16 -52 -34 -106 -41 -120 -7 -14 -15
-45 -19 -69 -4 -24 -20 -76 -36 -115 -15 -39 -33 -95 -40 -125 -6 -30 -14 -59
-19 -65 -5 -6 -16 -36 -24 -66 -8 -30 -25 -86 -37 -125 -12 -38 -26 -96 -32
-127 -6 -32 -15 -58 -19 -58 -5 0 -9 5 -9 10 0 17 -65 80 -82 80 -16 0 -68
-60 -68 -78 0 -5 9 -21 21 -36 23 -29 54 -34 63 -10 3 9 15 14 28 12 31 -4 34
-37 9 -84 -12 -21 -21 -46 -21 -54 0 -9 -14 -54 -31 -101 -31 -82 -56 -165
-83 -264 -8 -27 -19 -63 -25 -80 -6 -16 -13 -42 -15 -56 -8 -38 -48 -53 -85
-32 -25 15 -33 15 -57 4 -28 -12 -28 -13 -9 -28 13 -9 34 -13 62 -10 39 4 42
3 48 -23 4 -19 -1 -42 -14 -69 -12 -22 -21 -59 -21 -81 0 -22 -11 -66 -24 -98
-24 -58 -69 -191 -107 -317 -12 -38 -28 -83 -35 -100 -7 -16 -18 -50 -23 -75
-6 -25 -22 -79 -36 -120 -65 -189 -85 -252 -85 -270 0 -11 -9 -37 -20 -57 -11
-21 -20 -47 -20 -58 0 -11 -7 -33 -15 -49 -9 -16 -24 -65 -36 -110 -11 -45
-29 -102 -39 -128 -11 -26 -20 -54 -20 -63 0 -9 -6 -31 -14 -48 -35 -83 -56
-144 -56 -165 0 -12 -7 -39 -16 -60 -20 -46 -38 -99 -98 -282 -26 -80 -53
-161 -61 -180 -7 -19 -25 -78 -41 -130 -15 -52 -33 -106 -41 -120 -7 -14 -13
-33 -13 -42 0 -10 -16 -63 -35 -119 -19 -55 -37 -124 -41 -152 -3 -29 -13 -62
-20 -74 -8 -12 -14 -30 -14 -40 0 -18 -75 -241 -84 -250 -13 -14 -15 43 -2 94
8 32 19 90 24 128 10 72 32 183 58 293 8 35 17 100 20 145 3 45 12 98 19 117
7 19 16 67 19 105 5 65 13 106 51 285 7 36 17 87 20 115 4 27 13 62 21 77 8
15 14 41 14 58 0 17 9 52 19 78 11 26 32 88 47 137 15 50 34 101 41 115 7 14
13 36 13 50 0 14 9 45 20 69 11 24 20 53 20 65 0 12 6 30 13 41 8 11 23 49 34
85 12 36 35 106 51 155 17 50 35 104 40 120 6 17 18 53 27 80 9 28 19 64 22
80 2 17 13 53 23 80 10 28 28 82 40 120 12 39 28 84 35 100 7 17 23 66 36 110
12 44 28 90 35 102 8 12 16 41 20 65 3 24 13 53 20 65 8 12 19 46 25 75 7 29
18 62 25 73 8 11 14 28 14 38 0 10 6 28 12 40 7 12 18 45 25 72 22 92 49 180
61 202 7 12 12 31 12 42 0 12 9 38 20 58 11 21 20 45 20 55 0 10 6 32 14 50
22 49 66 193 66 213 0 9 6 29 13 43 31 61 46 99 52 132 7 38 39 143 62 200 7
19 15 52 16 72 2 21 10 45 19 55 9 10 19 38 23 63 4 25 12 54 17 64 6 11 16
42 23 70 15 61 31 106 56 164 11 23 19 54 19 69 0 14 8 44 19 67 10 23 29 75
41 116 12 41 30 95 39 120 10 25 26 74 35 110 10 36 24 79 31 95 7 17 16 46
20 65 4 19 16 52 26 72 11 21 19 52 19 70 0 18 7 47 16 63 22 42 54 140 54
165 0 11 9 38 19 58 11 21 22 59 26 85 4 26 11 49 15 52 4 2 19 44 34 92 16
48 37 107 47 131 10 23 19 53 19 65 0 12 6 34 14 48 7 14 16 43 20 65 4 21 14
51 22 66 8 15 14 39 14 54 0 15 8 41 19 58 10 17 21 50 25 72 3 23 13 54 21
70 8 16 15 39 15 52 0 12 9 39 20 59 11 21 20 43 20 50 0 15 39 43 59 43 8 0
31 -11 51 -25z m384 -28 c28 -46 46 -95 56 -149 5 -27 16 -58 24 -70 9 -12 16
-32 16 -43 0 -11 6 -32 14 -47 8 -15 36 -91 62 -170 26 -79 60 -179 76 -223
16 -44 41 -114 55 -155 14 -41 41 -115 59 -165 18 -49 38 -110 44 -135 7 -25
16 -49 20 -55 5 -5 20 -54 33 -107 14 -53 32 -107 40 -120 8 -13 18 -39 22
-58 4 -19 13 -44 19 -55 7 -11 16 -40 20 -64 4 -24 13 -53 21 -64 8 -12 15
-31 15 -42 0 -12 5 -26 11 -32 5 -5 16 -32 24 -59 18 -63 81 -240 100 -281 8
-17 15 -37 15 -45 0 -7 14 -51 31 -98 17 -47 35 -101 41 -120 5 -19 14 -40 19
-46 5 -6 13 -35 19 -64 6 -30 16 -61 24 -69 7 -9 16 -36 20 -60 4 -24 13 -53
21 -64 8 -12 15 -34 15 -50 0 -15 9 -45 19 -65 32 -61 53 -115 62 -152 19 -82
40 -144 54 -160 8 -9 15 -30 15 -46 0 -16 6 -41 14 -56 8 -15 22 -53 31 -84 9
-31 28 -80 42 -108 14 -28 25 -64 25 -81 0 -16 12 -55 27 -85 21 -44 32 -56
55 -60 32 -5 50 -37 34 -57 -6 -8 -34 -13 -69 -13 -53 0 -59 -2 -59 -21 0 -16
4 -19 18 -14 48 21 60 18 85 -21 14 -22 28 -55 32 -74 4 -19 16 -49 26 -66 10
-17 19 -40 19 -52 0 -11 7 -33 15 -48 8 -16 15 -40 15 -53 0 -13 11 -39 25
-57 14 -18 25 -41 25 -51 0 -23 36 -123 50 -137 5 -5 10 -28 10 -51 0 -22 9
-60 20 -84 11 -24 20 -56 20 -72 0 -17 16 -60 35 -97 40 -78 69 -157 83 -227
6 -27 22 -81 37 -120 15 -38 30 -85 35 -103 4 -19 15 -41 24 -51 9 -10 16 -30
16 -45 0 -15 7 -40 14 -54 24 -44 53 -117 61 -153 4 -19 14 -43 21 -54 7 -11
18 -42 24 -70 6 -27 22 -77 36 -111 14 -35 29 -87 34 -116 5 -29 16 -86 24
-126 9 -40 16 -88 16 -105 0 -18 7 -45 16 -62 8 -16 18 -50 21 -75 3 -25 9
-49 13 -55 4 -5 11 -48 15 -95 4 -47 16 -105 26 -129 11 -24 19 -66 19 -96 0
-29 7 -72 16 -96 8 -24 19 -75 24 -114 5 -38 16 -101 24 -140 9 -38 16 -81 16
-95 0 -14 7 -38 15 -54 22 -41 19 -58 -7 -54 -18 2 -24 12 -30 44 -3 23 -16
59 -27 80 -12 21 -21 49 -21 62 0 13 -7 36 -15 50 -8 15 -19 47 -24 72 -17 79
-33 134 -52 182 -11 26 -19 53 -19 60 0 7 -13 45 -29 83 -16 39 -34 95 -40
124 -6 29 -18 65 -26 80 -8 14 -24 58 -36 96 -12 39 -30 88 -40 111 -11 22
-19 49 -19 59 0 34 -87 292 -101 301 -5 3 -9 18 -9 33 0 16 -11 59 -25 95 -14
37 -25 76 -25 87 0 21 -5 32 -48 116 -12 23 -22 56 -22 74 0 17 -16 72 -35
120 -19 49 -35 97 -35 106 0 10 -7 31 -16 48 -8 16 -20 51 -25 77 -6 27 -18
55 -26 64 -9 8 -17 25 -18 37 -2 12 -10 46 -19 76 -9 30 -16 64 -16 75 0 10
-6 27 -13 35 -7 9 -35 84 -62 166 -27 83 -55 157 -62 166 -7 8 -13 27 -13 40
0 13 -14 62 -31 109 -17 47 -37 108 -44 135 -7 28 -17 60 -23 70 -6 11 -15 38
-21 60 -5 22 -23 80 -40 128 -17 48 -31 94 -31 102 0 8 -8 34 -19 57 -25 59
-52 137 -58 173 -3 17 -11 39 -18 50 -7 11 -15 35 -19 53 -3 19 -15 45 -26 59
-11 14 -20 39 -20 55 0 16 -6 39 -14 51 -8 12 -17 38 -21 57 -7 41 -102 343
-150 480 -32 91 -39 114 -86 260 -11 36 -29 90 -40 121 -10 31 -19 62 -19 69
0 7 -9 31 -19 54 -11 23 -38 102 -61 176 -23 74 -51 154 -61 178 -11 23 -19
51 -19 61 0 19 -30 95 -56 143 -7 14 -14 37 -14 50 0 12 -9 43 -20 67 -11 24
-20 53 -20 65 0 12 -9 38 -20 59 -11 20 -20 45 -20 54 0 10 -9 42 -20 71 -11
29 -20 60 -20 70 0 9 -7 30 -15 46 -8 16 -18 46 -21 67 -4 21 -15 46 -25 55
-11 10 -19 31 -19 48 0 17 -7 40 -15 50 -8 11 -15 31 -15 44 0 13 -8 44 -19
70 -10 26 -31 87 -46 135 -16 48 -32 90 -36 93 -4 2 -11 26 -15 52 -3 26 -12
58 -19 72 -28 55 -54 127 -60 165 -4 21 -13 52 -22 68 -28 55 -10 78 67 85 8
1 24 -13 34 -31z m-221 -255 c29 -2 53 1 62 8 24 20 64 4 70 -28 3 -15 10 -40
16 -57 6 -16 17 -50 25 -75 14 -46 43 -126 61 -170 6 -14 15 -47 21 -75 11
-59 27 -105 55 -161 13 -26 18 -50 14 -66 -5 -18 0 -34 14 -52 12 -15 23 -46
26 -69 3 -23 14 -53 23 -67 19 -28 45 -102 59 -170 11 -52 38 -134 57 -172 8
-14 14 -42 14 -61 0 -19 7 -40 15 -47 8 -7 17 -28 20 -49 4 -20 10 -45 15 -56
5 -11 14 -38 21 -60 6 -22 20 -51 31 -64 15 -20 18 -35 13 -76 -6 -41 -3 -54
10 -65 19 -16 55 -87 55 -109 0 -9 12 -38 25 -66 14 -27 25 -61 25 -75 1 -14
7 -36 15 -50 8 -14 14 -44 15 -66 0 -23 8 -52 18 -65 28 -40 61 -112 67 -150
3 -21 12 -42 20 -49 8 -7 15 -27 15 -44 0 -17 7 -44 15 -59 8 -15 17 -45 21
-65 3 -20 15 -52 26 -70 16 -26 19 -43 14 -75 -4 -23 -7 -46 -6 -52 12 -105
11 -145 -4 -145 -9 0 -16 8 -16 19 0 27 -17 35 -65 33 -46 -3 -70 9 -70 35 0
27 -51 30 -67 4 -18 -29 -25 -26 -42 14 -17 40 -35 50 -71 41 -29 -7 -24 -26
6 -26 11 0 19 -7 19 -16 0 -10 -7 -14 -22 -13 -13 2 -29 0 -35 -4 -19 -12 -33
1 -33 29 0 29 -13 30 -50 4 l-29 -21 -11 21 c-13 24 -30 26 -30 3 0 -9 -15
-30 -34 -47 l-33 -31 -26 26 c-23 24 -24 28 -11 47 13 19 12 22 -7 33 -16 8
-28 8 -46 0 -20 -9 -22 -14 -12 -32 15 -28 -1 -43 -26 -25 -16 11 -17 17 -7
29 18 21 -3 26 -108 27 -47 0 -94 0 -104 0 -11 1 -39 -18 -62 -41 -24 -24 -46
-41 -48 -38 -2 2 -8 20 -13 39 -8 31 -13 35 -44 35 -33 0 -34 -1 -34 -40 0
-38 -2 -41 -42 -53 -24 -8 -43 -20 -43 -28 0 -21 -40 -39 -54 -24 -8 9 -8 14
2 17 6 3 12 13 12 24 0 16 -7 19 -42 20 -24 0 -74 2 -113 3 -38 2 -87 4 -109
5 -41 1 -40 -3 -20 60 4 14 -1 20 -26 25 -46 9 -231 -5 -223 -17 3 -5 21 -7
40 -4 28 5 40 1 59 -18 30 -30 30 -34 -1 -67 -22 -24 -30 -26 -104 -26 -47 0
-84 5 -90 12 -5 6 -6 26 -4 44 4 26 12 36 34 44 34 12 34 11 13 43 -22 34 -11
121 26 200 15 33 30 76 33 95 3 19 13 58 22 85 15 47 25 76 69 200 10 28 22
70 26 95 8 42 25 102 52 175 5 17 16 52 24 79 7 26 17 53 22 60 5 6 12 31 16
55 4 24 13 56 21 70 8 14 18 46 24 71 8 40 21 85 65 230 8 25 21 63 30 85 8
22 15 49 16 61 0 11 7 29 15 40 8 10 15 30 15 44 1 14 8 43 16 65 9 22 19 56
24 75 5 19 18 62 29 95 11 33 36 114 56 180 20 66 42 134 49 150 16 37 56 179
56 200 0 9 8 32 19 53 10 20 21 57 24 82 6 50 39 86 66 74 9 -4 38 -9 64 -12z
m2533 -2507 c-3 -9 0 -25 6 -35 14 -22 -2 -48 -21 -36 -7 5 -9 53 -2 84 1 1 6
2 12 2 6 0 8 -7 5 -15z m-831 -115 c13 -24 13 -33 3 -50 -7 -11 -18 -20 -23
-20 -15 0 -35 21 -35 37 0 13 29 63 36 63 2 0 10 -13 19 -30z m152 22 c10 -6
3 -19 -23 -47 l-35 -39 -26 26 c-27 27 -24 48 7 48 10 0 22 5 25 10 7 12 35
13 52 2z m104 -2 c17 -10 27 -40 13 -40 -16 0 -44 23 -44 35 0 18 5 18 31 5z
m159 5 c0 -9 -53 -65 -62 -65 -19 0 -6 36 20 52 29 17 42 21 42 13z m130 -5
c0 -5 -7 -10 -16 -10 -8 0 -12 5 -9 10 3 6 10 10 16 10 5 0 9 -4 9 -10z m90 0
c0 -5 -2 -10 -4 -10 -3 0 -8 5 -11 10 -3 6 -1 10 4 10 6 0 11 -4 11 -10z
m-140 -45 c-7 -8 -16 -15 -21 -15 -5 0 -9 7 -9 15 0 9 9 15 21 15 18 0 19 -2
9 -15z m100 -6 c0 -11 -4 -17 -10 -14 -5 3 -10 13 -10 21 0 8 5 14 10 14 6 0
10 -9 10 -21z m128 9 c20 -20 14 -28 -23 -28 -22 0 -35 5 -35 13 0 28 36 37
58 15z m120 -5 c-5 -25 -28 -28 -28 -4 0 12 6 21 16 21 9 0 14 -7 12 -17z
m-2371 -4 c9 -9 8 -19 -3 -40 -15 -31 -30 -37 -36 -17 -3 7 -19 11 -41 10 -44
-3 -62 22 -32 44 23 17 97 18 112 3z m2377 -72 c8 -13 6 -21 -7 -34 -17 -17
-19 -17 -32 1 -10 14 -11 24 -4 38 12 22 27 20 43 -5z m-974 -42 c0 -10 -10
-15 -30 -15 -29 0 -38 9 -23 23 13 13 53 7 53 -8z m968 -37 c31 -31 -10 -75
-43 -48 -12 10 -12 15 2 36 17 27 24 29 41 12z m-400 -45 c5 -17 -26 -29 -40
-15 -6 6 -7 15 -3 22 9 14 37 9 43 -7z"/>
<path d="M4472 4871 c-10 -6 -6 -15 17 -39 34 -37 51 -41 51 -11 0 47 -34 72
-68 50z"/>
<path d="M4772 4833 c4 -36 33 -39 33 -3 0 16 -6 26 -18 28 -15 3 -18 -2 -15
-25z"/>
<path d="M4620 4841 c0 -6 5 -13 10 -16 6 -3 10 1 10 9 0 9 -4 16 -10 16 -5 0
-10 -4 -10 -9z"/>
<path d="M2480 60 c0 -32 19 -40 39 -16 15 18 3 46 -20 46 -14 0 -19 -7 -19
-30z"/>
</g>
</svg>
