<?xml version="1.0" standalone="no"?>
<!DOCTYPE svg PUBLIC "-//W3C//DTD SVG 20010904//EN"
 "http://www.w3.org/TR/2001/REC-SVG-20010904/DTD/svg10.dtd">
<svg version="1.0" xmlns="http://www.w3.org/2000/svg"
 width="775.000000pt" height="1280.000000pt" viewBox="0 0 775.000000 1280.000000"
 preserveAspectRatio="xMidYMid meet">
<g transform="translate(0.000000,1280.000000) scale(0.100000,-0.100000)"
fill="#000000" stroke="none">
<path d="M4170 12780 c-14 -4 -38 -11 -54 -15 -47 -10 -132 -100 -172 -181
-32 -64 -37 -86 -48 -206 -8 -79 -20 -146 -29 -164 -23 -44 -350 -481 -502
-669 -190 -237 -212 -274 -234 -410 -6 -39 -31 -376 -56 -750 -53 -793 -50
-778 -138 -815 -69 -29 -95 -54 -124 -120 -24 -52 -26 -70 -34 -300 -5 -135
-16 -375 -25 -535 -9 -159 -13 -316 -10 -348 5 -54 4 -58 -18 -69 -14 -6 -30
-23 -37 -39 -9 -24 -23 -32 -79 -49 -37 -11 -72 -20 -77 -20 -14 0 -177 -54
-243 -80 -121 -48 -359 -166 -430 -213 -160 -107 -263 -202 -298 -274 -11 -24
-24 -34 -48 -39 -72 -13 -113 -60 -86 -100 9 -14 98 -59 134 -68 15 -3 31 -14
35 -24 10 -22 -2 -499 -14 -570 -9 -51 -23 -72 -50 -72 -26 0 -51 -50 -51
-102 -1 -62 9 -83 48 -103 29 -15 30 -19 30 -80 0 -61 -2 -66 -31 -87 -17 -13
-41 -37 -53 -54 -11 -17 -118 -118 -236 -224 -364 -327 -503 -491 -693 -820
-125 -217 -273 -571 -347 -830 -59 -208 -73 -249 -111 -307 -46 -69 -63 -120
-74 -209 -8 -75 4 -123 50 -200 51 -84 88 -187 140 -390 123 -474 296 -884
476 -1129 60 -81 156 -184 368 -395 158 -157 295 -297 304 -312 9 -14 27 -28
39 -30 21 -3 23 -9 26 -73 5 -104 -2 -128 -45 -156 -69 -44 -70 -136 -3 -200
22 -21 41 -50 45 -70 4 -19 12 -39 17 -46 10 -13 -6 -605 -17 -636 -6 -13 -19
-17 -56 -17 -65 0 -119 -22 -119 -49 0 -15 8 -21 32 -25 52 -9 587 -24 998
-29 206 -3 602 -8 880 -12 l505 -7 36 -24 c44 -30 57 -30 96 -1 l32 23 508 -4
c279 -2 515 -7 523 -11 8 -4 98 -4 200 1 102 6 428 7 725 4 323 -3 546 -2 555
4 28 17 -7 34 -80 38 -58 4 -72 8 -81 24 -12 22 -14 563 -2 595 3 10 14 26 25
36 13 13 18 32 18 67 0 46 2 50 28 56 54 12 62 16 72 35 17 31 20 112 5 135
-7 11 -28 27 -47 34 -44 18 -48 25 -48 96 l0 60 295 290 c499 488 550 551 710
879 133 273 165 351 290 721 78 230 122 346 145 379 63 92 93 231 71 332 -6
29 -28 81 -49 116 -50 80 -53 91 -96 307 -30 148 -124 455 -196 635 -94 235
-165 370 -306 585 -96 147 -200 264 -478 537 l-256 252 0 51 c0 47 3 54 39 87
49 44 65 81 58 139 -5 52 -28 82 -66 86 -24 3 -26 7 -32 68 -5 50 -11 67 -28
78 -20 14 -21 22 -20 146 1 72 4 162 8 200 l6 69 70 23 c69 23 115 50 122 71
6 18 -45 70 -86 86 -25 11 -55 36 -85 74 -68 86 -194 197 -341 299 -145 102
-175 119 -225 128 -47 8 -61 32 -48 82 9 34 8 45 -12 84 -34 67 -78 119 -107
126 -14 4 -39 21 -54 38 -25 28 -28 36 -23 78 5 36 2 57 -15 92 -23 47 -91
116 -115 116 -8 0 -26 20 -39 45 -19 33 -24 54 -20 82 7 50 -20 140 -51 173
-24 25 -24 28 -28 275 -5 280 -9 302 -82 383 l-37 40 -2 954 -2 953 -27 55
c-15 30 -53 86 -85 124 -147 177 -192 233 -319 399 -75 98 -159 215 -187 260
l-51 82 -6 125 c-5 105 -10 133 -30 174 -62 123 -180 203 -260 176z m80 -145
c18 -9 40 -36 57 -68 23 -46 27 -68 33 -182 5 -99 11 -141 27 -175 28 -62 193
-281 416 -552 102 -125 194 -242 204 -260 17 -31 18 -86 21 -877 2 -582 -1
-847 -8 -856 -9 -10 -20 -10 -58 1 -26 7 -69 19 -96 25 l-48 12 6 36 c3 20 9
107 13 193 7 170 0 204 -42 232 -36 24 -271 63 -455 76 -253 19 -752 8 -898
-19 -127 -23 -169 -41 -182 -77 -13 -34 -13 -310 1 -357 8 -28 7 -42 -2 -53
-13 -16 -66 -19 -71 -3 -2 5 2 87 9 182 15 200 80 1093 87 1183 7 86 36 154
98 232 175 217 386 485 475 602 128 168 161 240 174 384 12 121 22 163 60 237
46 92 108 121 179 84z m1040 -4164 c5 -11 10 -39 10 -62 0 -66 65 -158 135
-190 42 -19 71 -80 58 -122 -6 -20 -6 -44 1 -64 5 -18 7 -36 3 -39 -7 -7 -93
11 -157 33 -25 9 -59 29 -76 45 l-31 29 4 172 c2 95 6 182 9 195 5 27 30 29
44 3z m164 -84 c29 -37 34 -67 12 -67 -8 0 -23 -12 -34 -27 l-20 -28 -22 20
c-44 39 -58 95 -24 95 7 0 19 9 26 20 18 28 33 25 62 -13z m209 -346 c17 -29
17 -30 -5 -42 -12 -7 -30 -21 -40 -33 l-18 -21 -30 33 c-35 37 -38 62 -10 69
10 3 26 16 35 30 15 22 18 23 33 10 9 -9 25 -29 35 -46z m-3877 -1893 c66 -50
145 -113 177 -141 55 -48 57 -50 57 -100 1 -29 5 -86 10 -127 6 -54 5 -80 -3
-93 -7 -10 -73 -46 -147 -82 -325 -154 -426 -220 -606 -400 -151 -151 -249
-275 -336 -427 -125 -216 -179 -376 -209 -616 -11 -92 -24 -170 -27 -173 -4
-4 -110 -14 -236 -23 -261 -19 -268 -18 -236 43 17 35 54 143 128 381 86 273
199 526 367 820 105 183 298 409 526 617 285 259 314 287 347 337 17 28 32 56
32 63 0 30 45 8 156 -79z m4507 16 c18 -53 66 -109 227 -259 170 -159 290
-285 381 -400 81 -102 223 -323 254 -396 15 -35 56 -125 91 -199 34 -74 72
-166 83 -205 11 -38 34 -115 50 -170 47 -159 88 -322 110 -437 25 -125 32
-147 70 -208 35 -55 47 -99 29 -105 -7 -3 -56 -1 -108 5 -52 5 -162 14 -245
21 -82 6 -154 14 -159 19 -5 5 -12 64 -17 132 -16 253 -85 502 -205 740 -19
37 -77 127 -130 200 -94 129 -211 252 -362 378 -57 48 -61 54 -67 105 -4 31
-15 66 -25 78 -11 13 -21 47 -24 78 -2 30 -9 65 -14 79 -6 16 -6 35 1 54 5 15
7 58 3 95 -4 52 -12 75 -38 111 -38 54 -53 155 -25 175 9 6 21 31 26 56 6 28
20 52 38 66 34 28 44 25 56 -13z m-215 -198 c2 -40 -2 -65 -12 -82 -25 -38
-21 -151 7 -205 18 -34 24 -63 26 -126 1 -46 -2 -83 -7 -83 -8 0 -131 57 -210
98 -65 33 -67 38 -53 170 16 159 15 156 63 187 24 15 54 38 68 51 33 30 81 55
100 51 11 -1 16 -18 18 -61z m110 -138 c7 -7 12 -33 12 -58 0 -44 -1 -45 -41
-58 -50 -16 -58 -9 -69 50 -10 52 -7 58 30 58 16 0 32 5 35 10 8 13 18 13 33
-2z m-12 -216 c11 -6 18 -46 15 -79 -1 -7 -12 -13 -26 -13 -23 0 -25 4 -25 43
0 54 9 67 36 49z m68 -199 c4 -9 2 -21 -4 -27 -13 -13 -46 17 -36 33 11 16 33
13 40 -6z m-5884 -1698 c372 -37 350 -33 350 -68 0 -12 9 -65 21 -117 11 -52
28 -135 39 -185 55 -264 164 -501 333 -722 114 -149 206 -231 412 -366 216
-142 269 -175 295 -182 24 -8 98 -53 132 -82 15 -14 15 -17 -3 -56 -11 -26
-19 -65 -19 -103 0 -115 8 -105 -206 -256 -106 -76 -197 -138 -202 -138 -5 0
-20 19 -33 43 -13 23 -96 110 -183 192 -244 230 -478 483 -559 605 -83 125
-168 298 -232 470 -74 200 -184 536 -206 629 -22 94 -83 273 -105 308 -17 28
-18 43 -1 43 6 0 82 -7 167 -15z m7190 -137 c0 -7 -13 -32 -29 -55 -16 -24
-54 -123 -90 -235 -196 -611 -356 -981 -524 -1214 -84 -118 -222 -255 -399
-396 -111 -89 -286 -257 -315 -303 -16 -25 -36 -45 -45 -45 -10 0 -43 22 -73
50 -30 27 -108 92 -173 144 -64 51 -122 99 -128 107 -6 8 -14 61 -18 119 -4
58 -9 119 -12 136 -6 31 -5 32 113 96 261 144 334 188 464 281 270 191 475
454 594 759 48 123 106 323 125 430 22 120 11 108 98 109 42 1 129 7 192 14
160 17 220 18 220 3z"/>
</g>
</svg>
