<?xml version="1.0" encoding="utf-8"?>
<!-- Generator: Adobe Illustrator 18.0.0, SVG Export Plug-In . SVG Version: 6.00 Build 0)  -->
<!DOCTYPE svg PUBLIC "-//W3C//DTD SVG 1.1//EN" "http://www.w3.org/Graphics/SVG/1.1/DTD/svg11.dtd">
<svg version="1.1" id="Layer_1" xmlns="http://www.w3.org/2000/svg" xmlns:xlink="http://www.w3.org/1999/xlink" x="0px" y="0px"
	 viewBox="0 0 350 350" enable-background="new 0 0 350 350" xml:space="preserve">
<path fill="#7BBB3B" d="M194,11.2c-52.7,0-99.4,26.3-127.6,66.5c5.8,3.8,11.5,9,17.1,15.8c21.1-31.5,55.1-53.6,94.6-58.4l16,27.1
	l16-27.1c60.6,7.3,108.8,55.5,116.1,116.1l-27.1,16l27.1,16c-4.9,40.5-28.1,75.4-61,96.3c2.1,4.8,3.3,9.7,3.5,14.7
	c0.2,3.7-0.2,7.2-1,10.5c49-26.3,82.4-78.1,82.4-137.5C350,81.2,280,11.2,194,11.2z M233.8,268c-36-28.9-46-14.7-62.3,1.6
	c-11.4,11.4-40.2-12.4-65.1-37.3c-24.9-24.9-48.7-53.7-37.3-65.1c16.3-16.3,30.5-26.4,1.6-62.3c-28.9-36-48.2-8.4-64,7.5
	c-18.2,18.2-1,86.2,66.2,153.4c67.2,67.2,135.1,84.4,153.4,66.2C242.2,316.2,269.8,296.9,233.8,268z M124.3,191.6
	c0-32,37.4-37.7,37.4-50.1c0-6.1-4.8-8.6-9.3-8.6c-8.2,0-12.8,9.2-12.8,9.2l-15.7-10.5c0,0,8-18.6,30.5-18.6
	c14.2,0,29.5,8.1,29.5,26.5c0,27-34.9,32.2-35.5,43.3h36.8v18.2h-59.9C124.7,197.5,124.3,194.5,124.3,191.6z M194.1,167.1l33.4-52.8
	h25.9v48.1h10.3v17.6h-10.3v20.9h-20.9v-20.9h-38.4L194.1,167.1L194.1,167.1z M232.5,162.4V143c0-4.7,0.7-9.7,0.7-9.7H233
	c0,0-1.8,5.3-4.2,9l-13.1,19.9v0.2L232.5,162.4L232.5,162.4z"/>
</svg>
