<?xml version="1.0" encoding="utf-8"?>
<!-- Svg Vector Icons : http://www.onlinewebfonts.com/icon -->
<!DOCTYPE svg PUBLIC "-//W3C//DTD SVG 1.1//EN" "http://www.w3.org/Graphics/SVG/1.1/DTD/svg11.dtd">
<svg version="1.1" xmlns="http://www.w3.org/2000/svg" xmlns:xlink="http://www.w3.org/1999/xlink" x="0px" y="0px" viewBox="0 0 1000 1000" enable-background="new 0 0 1000 1000" xml:space="preserve">
<metadata> Svg Vector Icons : http://www.onlinewebfonts.com/icon </metadata>
<g><path d="M946.5,480.1L946.5,480.1l-4,4.6L500.1,64.6H169.4H95.8c0-30,24.7-54.4,55.1-54.4V10h349v0.1l0.1,0c15.3,0,29.1,6.2,39.1,16l309.4,292.3c0.1-0.1,0.2-0.3,0.3-0.5L943,407c10.1,9.9,16.3,23.5,16.3,38.6C959.4,458.8,954.4,470.7,946.5,480.1z M444.8,118.9v0.1c0.1,0,0.1,0,0.1,0c15.3,0,29.1,6.1,39.1,16l422,398.7c7.7,7.4,13.2,17,15.4,27.8c0,0,0,0.1,0,0.1c0.3,1.5,0.5,3.1,0.7,4.6c0,0.3,0.1,0.6,0.1,0.8c0.1,1.6,0.2,3.1,0.2,4.7c0,0.3,0,0.6,0,0.9l0,0l0,0c0,13.5-4.9,25.8-13.1,35.3l0,0L597.2,970.8h-0.1C587,982.5,572,990,555.2,990l0,0l0,0c-1.8,0-3.6-0.1-5.4-0.2c-1.2-0.1-2.5-0.4-3.7-0.5c-0.4-0.1-0.8-0.1-1.2-0.2c-9.9-1.9-18.8-6.3-26.1-12.6l-0.1,0.1L59.5,559.2l0.2-0.2c-11.3-9.8-18.5-23.9-18.8-39.9h-0.2V227.7v-53.4v-0.9h0.1c0-30.1,24.7-54.4,55.1-54.4v-0.1L444.8,118.9L444.8,118.9z M187.7,336.8c40.6,0,73.5-32.5,73.5-72.6c0-40.1-32.9-72.6-73.5-72.6c-40.6,0-73.5,32.5-73.5,72.6C114.3,304.3,147.2,336.8,187.7,336.8z"/></g>
</svg>