<?xml version="1.0" encoding="iso-8859-1"?>
<!-- Generator: Adobe Illustrator 19.0.0, SVG Export Plug-In . SVG Version: 6.00 Build 0)  -->
<svg version="1.1" id="Capa_1" xmlns="http://www.w3.org/2000/svg" xmlns:xlink="http://www.w3.org/1999/xlink" x="0px" y="0px"
	 viewBox="0 0 480.023 480.023" style="enable-background:new 0 0 480.023 480.023;" xml:space="preserve">
<linearGradient id="SVGID_1_" gradientUnits="userSpaceOnUse" x1="-59.3304" y1="590.1412" x2="4.7376" y2="590.1412" gradientTransform="matrix(8 0 0 -8 454.8418 4941.1465)">
	<stop  offset="0" style="stop-color:#F9A86D"/>
	<stop  offset="0.503" style="stop-color:#F05361"/>
	<stop  offset="1" style="stop-color:#B72563"/>
</linearGradient>
<path style="fill:url(#SVGID_1_);" d="M12.14,294.876l60.705-36.423c3.662,3.025,8.147,4.882,12.875,5.331l10.541,42.17
	c1.071,4.288,5.415,6.895,9.703,5.824c0.566-0.141,1.115-0.344,1.637-0.605l171.809-85.904c8.854,8.656,22.881,9.03,32.185,0.859
	l16.858,9.633c-2.428,13.024,6.161,25.55,19.185,27.979s25.55-6.161,27.979-19.185c0.831-4.459,0.381-9.062-1.297-13.275
	l89.703-77.743v22.48c0,4.418,3.582,8,8,8s8-3.582,8-8v-40c-0.047-0.378-0.122-0.751-0.226-1.117
	c-0.047-1.138-0.453-2.231-1.162-3.123c-0.163-0.348-0.352-0.683-0.566-1.002c-0.065-0.076-0.16-0.104-0.228-0.176
	c-0.412-0.395-0.866-0.745-1.353-1.043c-1.264-0.809-2.697-1.316-4.188-1.483c-0.098-0.003-0.179-0.056-0.277-0.056h-40
	c-4.418,0-8,3.582-8,8s3.582,8,8,8h18.554l-86.783,75.214c-8.732-5.123-19.769-4.043-27.343,2.675l-16.858-9.633
	c2.363-13.03-6.285-25.508-19.315-27.87s-25.508,6.285-27.87,19.315c-0.257,1.419-0.386,2.858-0.385,4.3
	c0.038,0.974,0.136,1.945,0.294,2.908l-162.95,81.475l-8.1-32.396c11.044-7.319,14.064-22.206,6.745-33.251
	s-22.206-14.064-33.251-6.745c-8.15,5.401-12.207,15.209-10.254,24.789l-60.601,36.36c-3.788,2.274-5.016,7.188-2.742,10.977
	C3.437,295.922,8.352,297.15,12.14,294.876L12.14,294.876z"/>
<g>
	
		<linearGradient id="SVGID_2_" gradientUnits="userSpaceOnUse" x1="-59.3304" y1="571.141" x2="4.7376" y2="571.141" gradientTransform="matrix(8 0 0 -8 454.8418 4941.1465)">
		<stop  offset="0" style="stop-color:#F9A86D"/>
		<stop  offset="0.503" style="stop-color:#F05361"/>
		<stop  offset="1" style="stop-color:#B72563"/>
	</linearGradient>
	<path style="fill:url(#SVGID_2_);" d="M479.989,375.976c-0.039-0.598-0.148-1.19-0.323-1.763c-0.04-0.393-0.112-0.783-0.213-1.165
		l-16-40c-1.628-4.108-6.278-6.119-10.386-4.491c-4.108,1.628-6.119,6.277-4.491,10.386c0.006,0.014,0.011,0.029,0.017,0.043
		l9.161,22.902l-105.804-41.146c0.007-0.246,0.073-0.477,0.073-0.725c0-13.255-10.745-24-24-24s-24,10.745-24,24
		c0.033,2.298,0.401,4.578,1.091,6.77l-51.518,37.469c-10.851-7.502-25.729-4.788-33.232,6.063
		c-2.527,3.655-3.985,7.943-4.208,12.381l-92.757,27.277c-3.712-5.119-9.298-8.56-15.539-9.573l-7.939-43.67
		c11.484-6.533,15.498-21.139,8.965-32.624c-6.533-11.484-21.139-15.498-32.624-8.965c-3.619,2.059-6.638,5.026-8.759,8.609
		l-57.91-11.582c-4.33-0.879-8.552,1.918-9.431,6.248c-0.879,4.33,1.918,8.552,6.248,9.431c0.014,0.003,0.029,0.006,0.043,0.009
		l57.917,11.586c1.495,10.33,9.515,18.498,19.815,20.183l7.94,43.67c-11.479,6.553-15.472,21.171-8.92,32.65
		c6.553,11.479,21.171,15.472,32.65,8.92c7.075-4.039,11.61-11.4,12.035-19.535l92.753-27.281
		c7.719,10.735,22.68,13.18,33.415,5.461c6.273-4.51,9.983-11.771,9.964-19.497c-0.033-2.297-0.401-4.578-1.091-6.769l51.52-37.469
		c10.045,6.971,23.741,5.175,31.649-4.149l104.126,40.491l-21.176,8.466c-4.099,1.653-6.081,6.316-4.428,10.415
		c1.647,4.082,6.281,6.068,10.373,4.444l40-16l0.11-0.072c0.583-0.287,1.128-0.644,1.624-1.064c0.34-0.202,0.665-0.428,0.972-0.676
		c0.224-0.287,0.43-0.589,0.614-0.903c0.435-0.52,0.802-1.092,1.092-1.705l0.072-0.112c0.091-0.364,0.156-0.735,0.192-1.108
		C479.85,377.211,479.957,376.596,479.989,375.976z"/>
	
		<linearGradient id="SVGID_3_" gradientUnits="userSpaceOnUse" x1="-59.3304" y1="599.642" x2="4.7376" y2="599.642" gradientTransform="matrix(8 0 0 -8 454.8418 4941.1465)">
		<stop  offset="0" style="stop-color:#F9A86D"/>
		<stop  offset="0.503" style="stop-color:#F05361"/>
		<stop  offset="1" style="stop-color:#B72563"/>
	</linearGradient>
	<path style="fill:url(#SVGID_3_);" d="M5.288,255.532c4.147,1.513,8.736-0.622,10.249-4.769c0.002-0.004,0.003-0.008,0.005-0.012
		l24.275-66.755c0.07,0,0.135,0.021,0.206,0.021c9.456-0.019,18.019-5.588,21.871-14.224l155.038,12.404
		c3.382,12.784,16.487,20.406,29.271,17.025c10.525-2.784,17.847-12.318,17.821-23.205c-0.024-4.235-1.181-8.387-3.351-12.023
		l58.891-69.594c12.174,4.749,25.893-1.271,30.642-13.445c0.121-0.31,0.235-0.623,0.343-0.938h105.475l-14.399,19.203
		c-2.658,3.527-1.954,8.541,1.572,11.199c3.527,2.658,8.541,1.954,11.199-1.572c0.008-0.011,0.017-0.022,0.025-0.033l24-32
		c0.213-0.34,0.399-0.696,0.557-1.065c0.178-0.291,0.337-0.595,0.475-0.907c0.697-1.819,0.697-3.831,0-5.649
		c-0.138-0.313-0.296-0.617-0.475-0.909c-0.157-0.368-0.343-0.724-0.556-1.064l-24-32c-2.64-3.541-7.65-4.271-11.191-1.631
		c-3.541,2.64-4.271,7.65-1.631,11.191c0.008,0.011,0.017,0.022,0.025,0.033l14.399,19.203H350.548
		c-4.315-12.486-17.934-19.11-30.42-14.795c-12.486,4.315-19.11,17.934-14.795,30.42c0.529,1.531,1.213,3.005,2.04,4.398
		l-58.891,69.594c-2.698-1.05-5.565-1.598-8.46-1.617c-9.455,0.019-18.018,5.587-21.869,14.222L63.115,153.836
		c-3.344-12.79-16.422-20.447-29.212-17.103S13.456,153.155,16.8,165.945c1.282,4.905,4.089,9.275,8.015,12.483L0.503,245.282
		c-1.51,4.151,0.631,8.739,4.782,10.249C5.286,255.531,5.287,255.532,5.288,255.532L5.288,255.532z"/>
</g>
<g>
</g>
<g>
</g>
<g>
</g>
<g>
</g>
<g>
</g>
<g>
</g>
<g>
</g>
<g>
</g>
<g>
</g>
<g>
</g>
<g>
</g>
<g>
</g>
<g>
</g>
<g>
</g>
<g>
</g>
</svg>
