<?xml version="1.0" encoding="utf-8"?>
<!-- Generator: Adobe Illustrator 18.0.0, SVG Export Plug-In . SVG Version: 6.00 Build 0)  -->
<!DOCTYPE svg PUBLIC "-//W3C//DTD SVG 1.1//EN" "http://www.w3.org/Graphics/SVG/1.1/DTD/svg11.dtd">
<svg version="1.1" id="Capa_1" xmlns="http://www.w3.org/2000/svg" xmlns:xlink="http://www.w3.org/1999/xlink" x="0px" y="0px"
	 viewBox="0 0 350 350" enable-background="new 0 0 350 350" xml:space="preserve">
<path fill="#7BBB3B" d="M156.8,255.5c-2.3,0-4.6-0.6-6.7-2c-5.7-3.7-7.3-11.3-3.7-17l35.2-54.4h-36c-6.8,0-12.3-5.5-12.3-12.3
	s5.5-12.3,12.3-12.3h58.6c4.5,0,8.7,2.5,10.8,6.4c2.2,4,2,8.8-0.5,12.6l-47.5,73.4C164.8,253.5,160.8,255.5,156.8,255.5z M350,73.4
	v238.8c0,6.8-5.5,12.3-12.3,12.3H12.3C5.5,324.5,0,319,0,312.2V73.4c0-6.8,5.5-12.3,12.3-12.3h36.4V37.8c0-6.8,5.5-12.3,12.3-12.3
	S73.4,31,73.4,37.8v23.3h32.3V37.8c0-6.8,5.5-12.3,12.3-12.3c6.8,0,12.3,5.5,12.3,12.3v23.3h32.3V37.8c0-6.8,5.5-12.3,12.3-12.3
	c6.8,0,12.3,5.5,12.3,12.3v23.3h32.3V37.8c0-6.8,5.5-12.3,12.3-12.3c6.8,0,12.3,5.5,12.3,12.3v23.3h32.3V37.8
	c0-6.8,5.5-12.3,12.3-12.3c6.8,0,12.3,5.5,12.3,12.3v23.3h36.4C344.5,61.1,350,66.6,350,73.4z M311.3,122.4H38.7v156.1h272.7
	L311.3,122.4L311.3,122.4z"/>
</svg>
