<?xml version="1.0" encoding="utf-8"?>
<!-- Generator: Adobe Illustrator 18.0.0, SVG Export Plug-In . SVG Version: 6.00 Build 0)  -->
<!DOCTYPE svg PUBLIC "-//W3C//DTD SVG 1.1//EN" "http://www.w3.org/Graphics/SVG/1.1/DTD/svg11.dtd">
<svg version="1.1" id="Ebene_1" xmlns="http://www.w3.org/2000/svg" xmlns:xlink="http://www.w3.org/1999/xlink" x="0px" y="0px"
	 viewBox="0 0 46 46" enable-background="new 0 0 46 46" xml:space="preserve">
<symbol  id="Audit_1_" viewBox="-23.3 -23.3 46.6 46.6">
	<path fill="#7BBB3C" d="M-16.1,23.3c0,0-7.2,0-7.2-7.2v-32.2c0,0,0-7.2,7.2-7.2h32.2c0,0,7.2,0,7.2,7.2v32.2c0,0,0,7.2-7.2,7.2
		H-16.1L-16.1,23.3z"/>
	<path fill="#FFFFFF" d="M10.2-4.4L10.2-4.4c-0.1,2.3-1.3,3.3-3.8,3.5H5.5v-2.6c-0.4-5-2.5-8.1-5.8-8.1c-3.5,0-5.3,3.2-5.7,8.4v2.3
		h-0.9c-2.5-0.2-3.8-1.2-3.8-3.5l0,0v-0.1c0.1-2.2,1.1-3.3,3.6-3.5c1.3-3.4,3.9-5.7,6.8-5.7c3,0,5.6,2.3,6.8,5.7
		C9.1-7.7,10.2-6.7,10.2-4.4L10.2-4.4L10.2-4.4z M9.3,1.1C9.5,10,6.7,13.8-0.3,14h-0.1l0,0c-6.2-0.2-9-3.7-9.5-10.5L-10,1.1H9.3
		L9.3,1.1z"/>
</symbol>
<g id="Design">
	<g id="Testen_2_">
	</g>
	<g id="Header_V2_4_">
	</g>
	<g id="Testen_1_">
	</g>
	<g id="Neues_Symbol_1_2_">
	</g>
	<g id="Neues_Symbol_1_1_">
	</g>
	<g id="Neues_Symbol_1">
	</g>
	<g id="Logo">
	</g>
	<g id="Header_V2_1_">
		<g id="Header_V2_3_">
		</g>
		<g id="Header_V2_5_">
		</g>
	</g>
	<g id="Header_V2">
	</g>
	<g id="Arbeit">
	</g>
	<g id="Audit">
	</g>
	<g id="Gefahr">
	</g>
	<g id="Öko">
	</g>
	<g id="Legal">
	</g>
	<g id="Online">
	</g>
	<g id="Prozess">
	</g>
	<g id="Nachhaltigkeit">
	</g>
	<g id="Öko_1_">
	</g>
	<g id="Logo_1_">
	</g>
	<g id="Öko_2_">
	</g>
	<g id="Header_V2_2_">
	</g>
	<g id="_x32_2_2_">
	</g>
	<g id="Header_V2_6_">
	</g>
	<g id="Header_V2_7_">
		<g id="_x32_2">
			<g id="_x32_2_1_">
			</g>
		</g>
		<g id="Header_V2_8_">
		</g>
	</g>
	<g id="Testen">
	</g>
	<g id="Neues_Symbol_3">
	</g>
	<g id="Testen_3_">
	</g>
	
		<use xlink:href="#Audit_1_"  width="46.6" height="46.6" id="XMLID_1_" x="-23.3" y="-23.3" transform="matrix(0.9806 0 0 -0.9861 22.8491 22.977)" overflow="visible"/>
</g>
</svg>
