<?xml version="1.0" encoding="utf-8"?>
<!-- Generator: Adobe Illustrator 19.1.0, SVG Export Plug-In . SVG Version: 6.00 Build 0)  -->
<svg version="1.1" xmlns="http://www.w3.org/2000/svg" xmlns:xlink="http://www.w3.org/1999/xlink" x="0px" y="0px"
	 viewBox="0 0 46 46" style="enable-background:new 0 0 46 46;" xml:space="preserve">
<style type="text/css">
	.st0{fill:#6AB023;}
	.st1{fill:#FFFFFF;}
	.st2{fill:#44413A;}
	.st3{clip-path:url(#SVGID_2_);}
	.st4{clip-path:url(#SVGID_2_);fill:url(#SVGID_3_);}
	.st5{clip-path:url(#SVGID_2_);fill:url(#SVGID_4_);}
	.st6{clip-path:url(#SVGID_6_);}
	.st7{fill:#EBEBEB;}
	.st8{fill:#7BBB3C;}
	.st9{fill:none;stroke:#EBEBEB;stroke-miterlimit:10;}
	.st10{fill:#76736C;}
	.st11{fill:#C1D897;}
	.st12{fill:none;stroke:#FFFFFF;stroke-miterlimit:10;}
	.st13{fill:#FFFFFF;stroke:#FFFFFF;stroke-miterlimit:10;}
	.st14{clip-path:url(#SVGID_8_);}
	.st15{clip-path:url(#SVGID_8_);fill:url(#SVGID_9_);}
	.st16{clip-path:url(#SVGID_8_);fill:url(#SVGID_10_);}
	.st17{clip-path:url(#SVGID_12_);}
	.st18{clip-path:url(#SVGID_14_);}
	.st19{clip-path:url(#SVGID_14_);fill:url(#SVGID_15_);}
	.st20{clip-path:url(#SVGID_14_);fill:url(#SVGID_16_);}
	.st21{clip-path:url(#SVGID_18_);}
	.st22{clip-path:url(#SVGID_20_);}
	.st23{clip-path:url(#SVGID_20_);fill:url(#SVGID_21_);}
	.st24{clip-path:url(#SVGID_20_);fill:url(#SVGID_22_);}
	.st25{clip-path:url(#SVGID_24_);}
	.st26{clip-path:url(#SVGID_26_);}
	.st27{clip-path:url(#SVGID_28_);}
	.st28{clip-path:url(#SVGID_28_);fill:url(#SVGID_29_);}
	.st29{clip-path:url(#SVGID_28_);fill:url(#SVGID_30_);}
	.st30{fill:#FFFFFF;stroke:#EBEBEB;stroke-miterlimit:10;}
	.st31{clip-path:url(#SVGID_32_);}
	.st32{clip-path:url(#SVGID_32_);fill:url(#SVGID_33_);}
	.st33{clip-path:url(#SVGID_32_);fill:url(#SVGID_34_);}
	.st34{fill:#7BBB3C;stroke:#7BBB3C;stroke-miterlimit:10;}
	.st35{clip-path:url(#SVGID_36_);}
	.st36{clip-path:url(#SVGID_36_);fill:url(#SVGID_37_);}
	.st37{clip-path:url(#SVGID_36_);fill:url(#SVGID_38_);}
	.st38{clip-path:url(#SVGID_40_);}
	.st39{clip-path:url(#SVGID_40_);fill:url(#SVGID_41_);}
	.st40{clip-path:url(#SVGID_40_);fill:url(#SVGID_42_);}
	.st41{clip-path:url(#SVGID_44_);}
	.st42{clip-path:url(#SVGID_44_);fill:url(#SVGID_45_);}
	.st43{clip-path:url(#SVGID_44_);fill:url(#SVGID_46_);}
	.st44{clip-path:url(#SVGID_48_);fill:#76736C;}
	.st45{fill:#6CC5DF;}
	.st46{clip-path:url(#SVGID_50_);}
	.st47{fill-rule:evenodd;clip-rule:evenodd;fill:#44413A;}
	.st48{fill:#F18F24;}
	.st49{fill:#F6C436;}
	.st50{fill:#808080;}
	.st51{fill:#168FC3;}
	.st52{fill:#73BBB3;}
	.st53{fill:#626262;}
	.st54{fill:none;stroke:#44413A;stroke-miterlimit:10;}
	.st55{clip-path:url(#SVGID_52_);}
	.st56{clip-path:url(#SVGID_54_);}
	.st57{clip-path:url(#SVGID_56_);}
	.st58{clip-path:url(#SVGID_58_);}
	.st59{clip-path:url(#SVGID_60_);}
	.st60{fill:none;stroke:#7BBB3C;stroke-width:2;stroke-miterlimit:10;}
	.st61{fill:none;stroke:#7BBB3C;stroke-width:2;stroke-linecap:round;stroke-miterlimit:10;}
	.st62{clip-path:url(#SVGID_64_);}
	.st63{opacity:0.2;fill:none;stroke:#44413A;stroke-miterlimit:10;}
	.st64{fill-rule:evenodd;clip-rule:evenodd;fill:#7BBB3C;}
	.st65{clip-path:url(#SVGID_66_);}
	.st66{clip-path:url(#SVGID_68_);}
	.st67{clip-path:url(#SVGID_70_);fill:#76736C;}
	.st68{clip-path:url(#SVGID_72_);}
	.st69{fill:#80756A;}
	.st70{opacity:0.15;fill:none;stroke:#44413A;stroke-miterlimit:10;}
	.st71{clip-path:url(#SVGID_74_);}
	.st72{clip-path:url(#SVGID_76_);}
	.st73{fill:#71BCB3;}
	.st74{fill:none;stroke:#7BBB3C;stroke-miterlimit:10;}
	.st75{clip-path:url(#SVGID_80_);}
	.st76{fill:url(#SVGID_81_);}
	.st77{fill:#565656;}
	.st78{opacity:0.1;}
	.st79{fill:url(#SVGID_82_);}
	.st80{fill:#4D4D4D;}
	.st81{fill:#6DA030;}
	.st82{fill:url(#SVGID_83_);}
	.st83{opacity:0.5;}
	.st84{clip-path:url(#SVGID_85_);}
	.st85{clip-path:url(#SVGID_85_);fill:url(#SVGID_86_);}
	.st86{clip-path:url(#SVGID_85_);fill:url(#SVGID_87_);}
	.st87{fill:#FFFFFF;stroke:#FF0000;stroke-miterlimit:10;}
	.st88{fill:#FFFFFF;stroke:#7BBB3C;stroke-miterlimit:10;}
	.st89{fill:none;stroke:#FFFFFF;stroke-width:5;stroke-miterlimit:10;}
	.st90{clip-path:url(#SVGID_89_);fill:#76736C;}
	.st91{clip-path:url(#SVGID_91_);}
	.st92{opacity:0.3;}
	.st93{fill:#E00070;}
	.st94{fill:#005C99;}
	.st95{fill:#009997;}
	.st96{fill:#00A990;}
	.st97{fill:#FFFFF0;}
	.st98{clip-path:url(#SVGID_95_);}
	.st99{clip-path:url(#SVGID_95_);fill:url(#SVGID_96_);}
	.st100{clip-path:url(#SVGID_95_);fill:url(#SVGID_97_);}
	.st101{clip-path:url(#SVGID_99_);}
	.st102{clip-path:url(#SVGID_101_);}
	.st103{clip-path:url(#SVGID_101_);fill:url(#SVGID_102_);}
	.st104{clip-path:url(#SVGID_101_);fill:url(#SVGID_103_);}
	.st105{clip-path:url(#SVGID_107_);fill:#76736C;}
	.st106{clip-path:url(#SVGID_115_);}
	.st107{clip-path:url(#SVGID_117_);}
	.st108{clip-path:url(#SVGID_119_);fill:#76736C;}
	.st109{clip-path:url(#SVGID_121_);}
	.st110{clip-path:url(#SVGID_123_);fill:#76736C;}
	.st111{clip-path:url(#SVGID_125_);fill:#76736C;}
	.st112{fill:none;stroke:#44413A;stroke-width:3;stroke-miterlimit:10;}
	.st113{fill-rule:evenodd;clip-rule:evenodd;fill:#FFFFFF;}
	.st114{clip-path:url(#SVGID_131_);}
	.st115{clip-path:url(#SVGID_135_);}
	.st116{opacity:0.95;fill:#FFFFFF;}
	.st117{clip-path:url(#SVGID_137_);}
	.st118{opacity:0.95;fill:none;stroke:#EBEBEB;stroke-miterlimit:10;}
	.st119{clip-path:url(#SVGID_139_);}
	.st120{clip-path:url(#SVGID_139_);fill:url(#SVGID_140_);}
	.st121{clip-path:url(#SVGID_139_);fill:url(#SVGID_141_);}
	.st122{clip-path:url(#SVGID_143_);}
	.st123{clip-path:url(#SVGID_145_);fill:#76736C;}
	.st124{fill:#FF00E7;}
	.st125{fill:none;stroke:#FF00E7;stroke-miterlimit:10;}
	.st126{clip-path:url(#SVGID_147_);}
	.st127{clip-path:url(#SVGID_147_);fill:url(#SVGID_148_);}
	.st128{clip-path:url(#SVGID_147_);fill:url(#SVGID_149_);}
	.st129{clip-path:url(#SVGID_151_);fill:#76736C;}
	.st130{clip-path:url(#SVGID_153_);fill:#76736C;}
	.st131{clip-path:url(#SVGID_155_);fill:#76736C;}
	.st132{clip-path:url(#SVGID_157_);}
	.st133{clip-path:url(#SVGID_159_);}
	.st134{clip-path:url(#SVGID_161_);}
	.st135{clip-path:url(#SVGID_163_);}
	.st136{clip-path:url(#SVGID_165_);}
	.st137{clip-path:url(#SVGID_167_);}
	.st138{clip-path:url(#SVGID_167_);fill:url(#SVGID_168_);}
	.st139{clip-path:url(#SVGID_167_);fill:url(#SVGID_169_);}
	.st140{clip-path:url(#SVGID_171_);}
	.st141{clip-path:url(#SVGID_173_);}
	.st142{clip-path:url(#SVGID_177_);}
</style>
<symbol  id="Arbeit_1_" viewBox="-23.4 -23.4 46.8 46.8">
	<path class="st0" d="M-16.2,23.4c0,0-7.2,0-7.2-7.2v-32.4c0,0,0-7.2,7.2-7.2h32.4c0,0,7.2,0,7.2,7.2v32.4c0,0,0,7.2-7.2,7.2H-16.2
		L-16.2,23.4z"/>
	<path class="st1" d="M11.5,0.7c0.9,8.8-5,13-11.4,14.4l0-3.7c0.2,0,0.3,0,0.5,0C6.4,11.2,11.1,6.6,11.5,0.7L11.5,0.7z M4.3,5.8
		c-2.5,1.9-6,1.9-8.5,0L0,1.5L4.3,5.8L4.3,5.8z M-0.8,11.5c0.1,0,0.2,0,0.3,0c-9,1-13.2-4.9-14.6-11.4h3.7c0,0.2,0,0.5,0,0.7
		c0,0.1,0,0.2,0.1,0.3c0,0.1,0,0.3,0.1,0.4c0,0.1,0,0.2,0,0.2c0.7,4.7,4.4,8.5,9,9.4c0.1,0,0.1,0,0.1,0c0.3,0.1,0.6,0.1,0.9,0.1
		C-1.2,11.4-1,11.5-0.8,11.5L-0.8,11.5z M-11.5-0.5c-1-9,4.9-13.2,11.4-14.6l0,3.7c-0.2,0-0.3,0-0.5,0c-4.4,0.2-8.2,3-9.9,6.9
		c0,0,0,0.1,0,0.1c-0.1,0.3-0.2,0.5-0.3,0.8c0,0.1,0,0.1-0.1,0.2C-11-3.3-11.1-3-11.2-2.7c0,0.1,0,0.2-0.1,0.2
		c-0.1,0.3-0.1,0.5-0.1,0.8c0,0.1,0,0.2,0,0.3C-11.4-1.2-11.5-0.9-11.5-0.5C-11.5-0.6-11.5-0.6-11.5-0.5L-11.5-0.5z M-5.8-4.3
		L-1.5,0l-4.3,4.3C-7.7,1.7-7.7-1.7-5.8-4.3L-5.8-4.3z M-4.3-5.8c2.5-1.9,6-1.9,8.5,0L0-1.5L-4.3-5.8L-4.3-5.8z M1.5,0l4.3-4.3
		c1.9,2.5,1.9,6,0,8.5L1.5,0L1.5,0z M0.7-11.5C0.6-11.5,0.6-11.5,0.7-11.5c8.9-1,13.1,4.9,14.5,11.4h-3.7c0-0.2,0-0.4,0-0.6
		c-0.3-4.4-3-8.1-6.8-9.8c0,0-0.1,0-0.1-0.1c-0.3-0.1-0.5-0.2-0.8-0.3c-0.1,0-0.1,0-0.2-0.1C3.3-11,3-11.1,2.8-11.2
		c-0.1,0-0.2,0-0.3-0.1c-0.3-0.1-0.5-0.1-0.8-0.1c-0.1,0-0.2,0-0.3,0C1.2-11.4,0.9-11.5,0.7-11.5L0.7-11.5z"/>
</symbol>
<symbol  id="Haklen" viewBox="-8.5 -8.4 17.6 15.5">
	<path class="st2" d="M-1.8-2.1l-4.5,4.2l-2.2-1.5l5.7-9L9.1,5.5l-1,1.6L-1.8-2.1z"/>
</symbol>
<g id="Ebene_32">
</g>
<g id="Design">
	<g id="Testen_2_">
	</g>
	<g id="Header_V2_4_">
	</g>
	<g id="Testen_1_">
	</g>
	<g id="Neues_Symbol_1_2_">
	</g>
	<g id="Neues_Symbol_1_1_">
	</g>
	<g id="Neues_Symbol_1">
	</g>
	<g id="Logo">
	</g>
	<g id="Header_V2_1_">
		<g id="Header_V2_3_">
		</g>
		<g id="Header_V2_5_">
		</g>
	</g>
	<g id="Header_V2">
	</g>
	<g id="Arbeit">
	</g>
	<g id="Audit">
	</g>
	<g id="Gefahr">
	</g>
	<g id="Öko">
	</g>
	<g id="Legal">
	</g>
	<g id="Online">
	</g>
	<g id="Prozess">
	</g>
	<g id="Nachhaltigkeit">
	</g>
	<g id="Öko_1_">
	</g>
	<g id="Logo_1_">
	</g>
	<g id="Öko_2_">
	</g>
	<g id="Header_V2_2_">
	</g>
	<g id="_x32_2_2_">
	</g>
	<g id="Header_V2_6_">
	</g>
	<g id="Header_V2_7_">
		<g id="_x32_2">
			<g id="_x32_2_1_">
			</g>
		</g>
		<g id="Header_V2_8_">
		</g>
	</g>
	<g id="Testen">
	</g>
	<g id="Neues_Symbol_3">
	</g>
	<g id="Testen_3_">
	</g>
	
		<use xlink:href="#Arbeit_1_"  width="46.8" height="46.8" x="-23.4" y="-23.4" transform="matrix(0.9783 0 0 -0.9838 22.8702 23)" style="overflow:visible;"/>
</g>
</svg>
