<?xml version="1.0" encoding="utf-8"?>
<!-- Generator: Adobe Illustrator 18.0.0, SVG Export Plug-In . SVG Version: 6.00 Build 0)  -->
<!DOCTYPE svg PUBLIC "-//W3C//DTD SVG 1.1//EN" "http://www.w3.org/Graphics/SVG/1.1/DTD/svg11.dtd">
<svg version="1.1" id="Capa_1" xmlns="http://www.w3.org/2000/svg" xmlns:xlink="http://www.w3.org/1999/xlink" x="0px" y="0px"
	 viewBox="0 0 350 350" enable-background="new 0 0 350 350" xml:space="preserve">
<path fill="#7BBB3B" d="M338.8,157H338l-40.6-70.4h21.4c6.2,0,11.2-5,11.2-11.2v-16c0-6.2-5-11.2-11.2-11.2H186.2V17
	c0-6.2-5-11.2-11.2-11.2c-6.2,0-11.2,5-11.2,11.2v31.2H31.3c-6.2,0-11.2,5-11.2,11.2v16c0,6.2,5,11.2,11.2,11.2h21.4L12,157h-0.7
	C5,157,0,162.1,0,168.3c0,38.1,31,69.2,69.2,69.2s69.2-31,69.2-69.2c0-6.2-5-11.2-11.2-11.2h-0.7L85.7,86.6h78.1v206.2h-36.7
	c-14.2,0-25.7,11.5-25.7,25.7c0,14.2,11.5,25.7,25.7,25.7h95.9c14.2,0,25.7-11.5,25.7-25.7c0-14.2-11.5-25.7-25.7-25.7h-36.7V86.6
	h78.1L223.7,157h-0.7c-6.2,0-11.2,5-11.2,11.2c0,38.1,31,69.2,69.2,69.2c38.1,0,69.2-31,69.2-69.2C350,162.1,345,157,338.8,157z
	 M37.9,157l31.2-54.1l31.2,54.1L37.9,157L37.9,157z M280.8,102.9l31.2,54.1h-62.5L280.8,102.9z"/>
</svg>
