<?xml version="1.0" encoding="utf-8"?>
<!-- Generator: Adobe Illustrator 18.0.0, SVG Export Plug-In . SVG Version: 6.00 Build 0)  -->
<!DOCTYPE svg PUBLIC "-//W3C//DTD SVG 1.1//EN" "http://www.w3.org/Graphics/SVG/1.1/DTD/svg11.dtd">
<svg version="1.1" id="Capa_1" xmlns="http://www.w3.org/2000/svg" xmlns:xlink="http://www.w3.org/1999/xlink" x="0px" y="0px"
	 viewBox="0 0 47 47" enable-background="new 0 0 47 47" xml:space="preserve">
<g>
	<g id="Layer_1_27_">
		<g>
			<path fill="#7BBB3B" d="M44.7,23.2l-4.5,0c-1.2,0-2.3,1-2.3,2.3v19.2c0,1.3,1,2.3,2.3,2.3h4.5c1.3,0,2.3-1,2.3-2.3V25.5
				C47,24.2,46,23.2,44.7,23.2z M42.9,44.5c-0.7,0.7-1.9,0.7-2.6,0s-0.7-1.9,0-2.6c0.7-0.7,1.9-0.7,2.6,0
				C43.7,42.6,43.7,43.8,42.9,44.5z"/>
			<path fill="#7BBB3B" d="M29.1,9.8c0.2-2.9,1-4.4,1.2-7.2c0.2-1.6-1.5-2.5-4.6-2.5S21.4,2.9,21,3.8c-0.8,2.1,0,9,0,12.4
				c0,2.7-4.8,4.2-10.3,4.2c-7.6,0-10.7-1.8-10.7,3c0,1.6,1,3,2.3,3c-1.3,0-2.3,1.3-2.3,3c0,1.6,1,3,2.3,3c-1.3,0-2.3,1.3-2.3,3
				c0,1.6,1,3,2.3,3c-1.2,0-2.3,1.3-2.3,3c0,1.6,1,3,2.3,3c0,0,3.2,0,15.4,0s16.7,0,16.7,0c0.6,0,1.1-0.5,1.1-1.1V25.8
				c0-0.2,0-0.4-0.1-0.5C35.4,25.3,28.5,17.8,29.1,9.8z"/>
		</g>
	</g>
</g>
</svg>
