<?xml version="1.0" encoding="utf-8"?>
<!-- Generator: Adobe Illustrator 18.0.0, SVG Export Plug-In . SVG Version: 6.00 Build 0)  -->
<!DOCTYPE svg PUBLIC "-//W3C//DTD SVG 1.1//EN" "http://www.w3.org/Graphics/SVG/1.1/DTD/svg11.dtd">
<svg version="1.1" id="Layer_1" xmlns="http://www.w3.org/2000/svg" xmlns:xlink="http://www.w3.org/1999/xlink" x="0px" y="0px"
	 viewBox="0 0 350 350" enable-background="new 0 0 350 350" xml:space="preserve">
<path fill="#7BBB3B" d="M346.5,200.5c-8.3-6-21-9.8-35.2-9.8c-21.9,0-40.2,9.2-44.5,21.3H265c-4.2-12.3-22.5-21.5-44.6-21.5
	c-14.2,0-26.8,3.8-35.2,9.9v103.1c0,25.7-20.9,46.5-46.5,46.5s-46.5-20.9-46.5-46.5c0-5.7,4.6-10.3,10.3-10.3s10.3,4.6,10.3,10.3
	c0,14.3,11.7,26,26,26s26-11.7,26-26v-103c-8.3-6-21-9.9-35.2-9.9c-21.9,0-40.2,9.2-44.5,21.3h-1.8c-4.2-12.3-22.5-21.5-44.6-21.5
	c-14.2,0-26.8,3.8-35.1,9.8C10.2,127.2,79,69,164.7,64.7V57c0-5.7,4.6-10.3,10.3-10.3c5.7,0,10.3,4.6,10.3,10.3v7.7
	C271,69.1,339.9,127.3,346.5,200.5z M114.7,16.4c0,0-20.2,14.3-23,19.7s-0.8,12.2,4.7,15.1c5.5,2.9,12.2,0.8,15.1-4.7
	S114.7,16.4,114.7,16.4z M159.9,0c0,0-20.2,14.3-23,19.7c-2.9,5.5-0.8,12.2,4.7,15.1c5.5,2.9,12.2,0.8,15.1-4.7
	C159.5,24.7,159.9,0,159.9,0z M213.3,0c0,0-20.2,14.3-23,19.7s-0.8,12.2,4.7,15.1c5.5,2.9,12.2,0.8,15.1-4.7
	C212.9,24.7,213.3,0,213.3,0z M255.7,15.3c0,0-20.2,14.3-23,19.7c-2.9,5.5-0.8,12.2,4.7,15.1c5.5,2.9,12.2,0.8,15.1-4.7
	C255.3,40,255.7,15.3,255.7,15.3z"/>
</svg>
