<?xml version="1.0" encoding="iso-8859-1"?>
<!-- Generator: Adobe Illustrator 16.0.0, SVG Export Plug-In . SVG Version: 6.00 Build 0)  -->
<!DOCTYPE svg PUBLIC "-//W3C//DTD SVG 1.1//EN" "http://www.w3.org/Graphics/SVG/1.1/DTD/svg11.dtd">
<svg version="1.1" id="Capa_1" xmlns="http://www.w3.org/2000/svg" xmlns:xlink="http://www.w3.org/1999/xlink" x="0px" y="0px"
	 width="487.277px" height="487.276px" viewBox="0 0 487.277 487.276" style="enable-background:new 0 0 487.277 487.276;"
	 xml:space="preserve">
<g>
	<path d="M486.541,152.73l-29.174-72.968c-1.577-3.95-5.345-6.502-9.598-6.502c-0.933,0-1.864,0.127-2.769,0.378l-90.081,25.03
		H132.359L42.271,73.638c-0.903-0.25-1.833-0.376-2.764-0.376c-4.253,0-8.019,2.551-9.594,6.499L0.742,152.725
		c-1.089,2.715-0.975,5.775,0.314,8.396c1.29,2.627,3.639,4.59,6.444,5.386l84.519,24.116l0.134,207.514
		c0,8.756,7.123,15.879,15.879,15.879h271.346c8.756,0,15.879-7.123,15.879-15.878l0.052-207.528l84.468-24.102
		c2.81-0.799,5.157-2.761,6.443-5.381C487.507,158.506,487.625,155.447,486.541,152.73z M121.97,110.312l-26.972,66.6
		l-79.752-22.755l26.447-66.151L121.97,110.312z M379.377,400.015H108.033c-1.036,0-1.879-0.845-1.879-1.883l-0.133-205.495
		l275.287-0.081l-0.051,205.58C381.256,399.172,380.414,400.015,379.377,400.015z M109.406,178.636l26.716-65.967h213.12
		l28.427,65.888L109.406,178.636z M472.035,154.158l-79.821,22.775l-28.543-66.166l81.915-22.761L472.035,154.158z"/>
</g>
<g>
</g>
<g>
</g>
<g>
</g>
<g>
</g>
<g>
</g>
<g>
</g>
<g>
</g>
<g>
</g>
<g>
</g>
<g>
</g>
<g>
</g>
<g>
</g>
<g>
</g>
<g>
</g>
<g>
</g>
</svg>
