<?xml version="1.0" encoding="utf-8"?>
<!-- Generator: Adobe Illustrator 18.0.0, SVG Export Plug-In . SVG Version: 6.00 Build 0)  -->
<!DOCTYPE svg PUBLIC "-//W3C//DTD SVG 1.1//EN" "http://www.w3.org/Graphics/SVG/1.1/DTD/svg11.dtd">
<svg version="1.1" id="Capa_1" xmlns="http://www.w3.org/2000/svg" xmlns:xlink="http://www.w3.org/1999/xlink" x="0px" y="0px"
	 viewBox="0 0 47 47" enable-background="new 0 0 47 47" xml:space="preserve">
<g>
	<g id="Layer_1_142_">
		<g>
			<path fill="#7BBB3B" d="M22.3,19.8l0.6-3.9l-0.3-0.5c0-0.1,0-0.2,0-0.2l0.8-0.8c0.1-0.1,0.2-0.1,0.3,0l0.8,0.8
				c0.1,0.1,0.1,0.1,0,0.2l-0.3,0.5l0.6,3.8c4.7-0.1,7.6-0.6,7.6-1.2c0-2.7-1.9-2.9-3.9-3.5c-1.3-0.4-2.9-0.6-2.5-2.9
				c0.8-0.8,1.1-2.4,1.1-2.4s1.1-0.6,1.2-1.6C28.3,7.4,27.9,7,27.9,7s0-0.1,0-1c0-2.3-2-4.2-4.4-4.2c-2.4,0-4.4,1.8-4.4,4.2
				c0,1,0,1,0,1s-0.4,0.4-0.3,1.2C18.9,9.3,20,9.8,20,9.8s0.3,1.6,1.1,2.4c0.3,2.2-1.2,2.4-2.5,2.9c-2.1,0.7-3.9,0.8-3.9,3.5
				C14.7,19.1,17.5,19.7,22.3,19.8z"/>
			<path fill="#7BBB3B" d="M13.7,40.5c-1.3-0.4-2.9-0.6-2.5-2.9c0.8-0.8,1.1-2.4,1.1-2.4s1.1-0.6,1.2-1.6c0.1-0.8-0.3-1.2-0.3-1.2
				s0-0.1,0-1c0-2.3-2-4.2-4.4-4.2s-4.4,1.8-4.4,4.2c0,1,0,1,0,1S4,32.8,4.1,33.7c0.1,1.1,1.2,1.6,1.2,1.6s0.3,1.6,1.1,2.4
				c0.3,2.2-1.2,2.4-2.5,2.9C1.9,41.2,0,41.3,0,44.1c0,0.6,2.9,1.1,7.6,1.2l0.6-3.8l-0.3-0.5c0-0.1,0-0.2,0-0.2l0.8-0.8
				c0.1-0.1,0.2-0.1,0.3,0l0.8,0.8c0.1,0.1,0.1,0.1,0,0.2l-0.3,0.5l0.6,3.8c4.7-0.1,7.6-0.6,7.6-1.2C17.6,41.3,15.8,41.2,13.7,40.5z
				"/>
			<path fill="#7BBB3B" d="M43.1,40.5c-1.3-0.4-2.9-0.6-2.5-2.9c0.8-0.8,1.1-2.4,1.1-2.4s1.1-0.6,1.2-1.6c0.1-0.8-0.3-1.2-0.3-1.2
				s0-0.1,0-1c0-2.3-2-4.2-4.4-4.2c-2.4,0-4.4,1.8-4.4,4.2c0,1,0,1,0,1s-0.4,0.4-0.3,1.2c0.1,1.1,1.2,1.6,1.2,1.6s0.3,1.6,1.1,2.4
				c0.3,2.2-1.2,2.4-2.5,2.9c-2.1,0.7-3.9,0.8-3.9,3.5c0,0.6,2.9,1.1,7.6,1.2l0.6-3.8l-0.3-0.5c0-0.1,0-0.2,0-0.2l0.8-0.8
				c0.1-0.1,0.2-0.1,0.3,0l0.8,0.8c0.1,0.1,0.1,0.1,0,0.2l-0.3,0.5l0.6,3.8c4.7-0.1,7.6-0.6,7.6-1.2C47,41.3,45.1,41.2,43.1,40.5z"
				/>
			<path fill="#7BBB3B" d="M30.5,36.3c0.3,0,0.7-0.1,0.9-0.4c0.4-0.5,0.3-1.2-0.2-1.7l-6.6-5.5v-6.4c0-0.6-0.5-1.2-1.2-1.2
				s-1.2,0.5-1.2,1.2v6.4l-6.6,5.5c-0.5,0.4-0.6,1.2-0.2,1.7c0.4,0.5,1.2,0.6,1.7,0.2l6.2-5.2l6.2,5.2C30,36.2,30.2,36.3,30.5,36.3z
				"/>
		</g>
	</g>
</g>
</svg>
