<?xml version="1.0" standalone="no"?>
<!DOCTYPE svg PUBLIC "-//W3C//DTD SVG 20010904//EN"
 "http://www.w3.org/TR/2001/REC-SVG-20010904/DTD/svg10.dtd">
<svg version="1.0" xmlns="http://www.w3.org/2000/svg"
 width="564.000000pt" height="1338.000000pt" viewBox="0 0 564.000000 1338.000000"
 preserveAspectRatio="xMidYMid meet">

<g transform="translate(0.000000,1338.000000) scale(0.100000,-0.100000)"
fill="#000000" stroke="none">
<path d="M566 12837 c-14 -15 -26 -31 -26 -37 0 -17 25 -11 38 10 14 24 60 27
68 5 11 -28 -5 -60 -56 -112 -27 -29 -50 -57 -50 -63 0 -6 30 -10 76 -10 56 0
75 3 72 13 -3 7 -25 13 -52 15 l-48 3 46 49 c36 39 46 57 46 83 0 39 -14 54
-58 63 -25 5 -36 1 -56 -19z"/>
<path d="M756 12837 c-67 -67 -35 -207 48 -207 59 0 88 57 74 144 -9 57 -21
73 -65 82 -25 5 -37 1 -57 -19z m84 -26 c5 -11 10 -44 10 -74 0 -62 -23 -94
-59 -82 -38 12 -52 123 -20 162 17 19 57 16 69 -6z"/>
<path d="M2074 12849 c-8 -14 11 -33 25 -25 6 4 11 14 11 22 0 16 -26 19 -36
3z"/>
<path d="M2481 12747 l-2 -113 54 -2 c67 -2 92 20 92 78 0 64 -45 97 -96 69
-19 -10 -20 -8 -19 18 4 49 0 63 -14 63 -11 0 -14 -24 -15 -113z m109 -35 c0
-41 -14 -62 -42 -62 -39 0 -52 79 -16 104 32 23 58 5 58 -42z"/>
<path d="M2680 12745 c0 -96 3 -115 15 -115 12 0 15 19 15 115 0 96 -3 115
-15 115 -12 0 -15 -19 -15 -115z"/>
<path d="M3020 12745 c0 -96 3 -115 15 -115 11 0 15 12 15 50 l0 50 60 0 60 0
0 -50 c0 -38 4 -50 15 -50 13 0 15 17 13 112 -2 78 -7 113 -15 116 -9 2 -13
-11 -13 -47 l0 -51 -60 0 -60 0 0 50 c0 38 -4 50 -15 50 -12 0 -15 -19 -15
-115z"/>
<path d="M3700 12821 c0 -34 -3 -38 -20 -34 -11 3 -30 3 -43 -1 -43 -10 -62
-90 -32 -133 13 -19 24 -22 70 -21 l55 2 0 113 c0 94 -3 113 -15 113 -11 0
-15 -11 -15 -39z m-16 -57 c19 -7 22 -84 4 -102 -34 -34 -74 6 -64 63 8 40 27
52 60 39z"/>
<path d="M4203 12850 c-12 -5 -27 -19 -33 -31 -18 -33 2 -66 55 -89 32 -14 45
-25 45 -39 0 -32 -35 -45 -70 -27 -35 17 -54 1 -25 -21 52 -37 129 0 123 60
-3 27 -10 35 -50 54 -34 16 -48 29 -48 43 0 23 45 39 63 21 15 -15 27 -14 27
4 0 15 -30 35 -52 34 -7 0 -23 -4 -35 -9z"/>
<path d="M4650 12745 c0 -96 3 -115 15 -115 12 0 15 19 15 115 0 96 -3 115
-15 115 -12 0 -15 -19 -15 -115z"/>
<path d="M1510 12816 c0 -13 -7 -26 -15 -30 -18 -7 -20 -26 -2 -26 8 0 11 -13
9 -44 -5 -58 11 -86 48 -86 21 0 30 5 30 16 0 11 -6 13 -19 9 -17 -5 -19 0
-23 50 -3 51 -2 55 20 55 13 0 22 6 22 15 0 9 -10 15 -26 15 -23 0 -25 3 -20
25 5 18 2 25 -9 25 -9 0 -15 -9 -15 -24z"/>
<path d="M4364 12816 c-3 -14 -13 -27 -22 -31 -16 -6 -16 -7 0 -19 12 -9 18
-30 20 -72 l3 -59 33 0 c17 0 32 4 32 10 0 5 -8 10 -18 10 -13 0 -18 10 -20
52 -3 47 -1 52 20 55 28 4 27 22 -2 26 -14 2 -20 11 -20 28 0 31 -18 31 -26 0z"/>
<path d="M1024 12783 c-35 -25 -44 -98 -16 -132 22 -28 76 -31 100 -7 16 16
15 17 -19 11 -43 -8 -69 12 -69 54 0 39 30 64 65 55 21 -5 27 -4 23 7 -5 15
-66 24 -84 12z"/>
<path d="M1150 12736 c0 -30 4 -66 10 -80 9 -24 14 -26 70 -24 l61 2 -3 75
c-2 60 -6 76 -18 76 -11 0 -16 -15 -18 -62 -2 -52 -6 -63 -23 -68 -34 -11 -49
12 -49 76 0 46 -3 59 -15 59 -11 0 -15 -13 -15 -54z"/>
<path d="M1342 12778 c-6 -6 -12 -23 -12 -36 0 -18 9 -27 40 -39 54 -21 51
-49 -4 -46 -50 3 -43 -21 8 -25 46 -4 68 13 64 47 -2 18 -13 31 -38 42 -48 23
-46 45 3 42 27 -2 37 1 34 10 -5 16 -79 21 -95 5z"/>
<path d="M1631 12764 c-45 -57 -11 -134 59 -134 47 0 70 27 70 82 0 49 -28 78
-74 78 -25 0 -40 -7 -55 -26z m80 -4 c14 -8 19 -21 19 -48 0 -61 -43 -84 -74
-40 -21 30 -20 54 4 78 23 23 25 23 51 10z"/>
<path d="M1810 12710 c0 -64 3 -80 15 -80 12 0 15 14 15 64 0 50 4 65 16 70
30 11 44 -13 44 -75 0 -46 3 -59 15 -59 12 0 15 13 15 59 0 61 16 89 45 77 11
-4 15 -22 15 -71 0 -51 3 -65 15 -65 12 0 15 14 15 68 0 74 -10 92 -50 92 -14
0 -31 -5 -38 -12 -9 -9 -15 -9 -24 0 -7 7 -21 12 -33 12 -12 0 -26 -5 -33 -12
-9 -9 -12 -9 -12 0 0 7 -4 12 -10 12 -6 0 -10 -33 -10 -80z"/>
<path d="M2074 12777 c-3 -8 -4 -43 -2 -78 2 -49 7 -64 18 -64 12 0 15 15 15
74 0 51 -4 76 -12 78 -7 3 -15 -2 -19 -10z"/>
<path d="M2160 12774 c0 -13 8 -15 35 -12 19 2 35 2 35 -1 0 -3 -18 -31 -40
-62 -22 -32 -40 -60 -40 -63 0 -3 27 -6 60 -6 33 0 60 4 60 10 0 10 -27 14
-64 10 -14 -1 -9 12 28 63 25 35 46 67 46 71 0 3 -27 6 -60 6 -48 0 -60 -3
-60 -16z"/>
<path d="M2330 12775 c-18 -22 -7 -28 23 -14 21 9 30 9 42 -1 25 -21 17 -37
-21 -43 -20 -3 -42 -11 -50 -18 -35 -29 6 -86 51 -69 13 5 32 6 44 3 20 -5 21
-1 21 54 0 74 -18 103 -64 103 -19 0 -39 -7 -46 -15z m75 -85 c9 -15 -14 -40
-36 -40 -27 0 -35 21 -14 37 22 16 41 17 50 3z"/>
<path d="M2787 12778 c-29 -22 -38 -72 -19 -110 16 -31 20 -33 66 -33 32 0 51
5 54 13 3 10 -4 12 -32 7 -41 -8 -66 6 -66 37 0 17 6 19 50 17 56 -3 64 1 55
30 -15 48 -70 67 -108 39z m71 -20 c21 -21 13 -28 -28 -28 -42 0 -52 12 -22
29 23 14 36 13 50 -1z"/>
<path d="M3284 12782 c-37 -24 -43 -87 -13 -126 20 -26 65 -35 103 -20 31 12
16 26 -21 20 -43 -7 -57 0 -67 32 -7 21 -5 22 48 22 62 0 71 14 40 58 -15 22
-66 30 -90 14z m64 -24 c21 -21 13 -28 -30 -28 -40 0 -41 0 -23 20 21 23 36
25 53 8z"/>
<path d="M3453 12783 c-7 -2 -13 -12 -13 -20 0 -11 5 -13 18 -8 34 15 57 11
60 -11 2 -18 -3 -23 -31 -28 -42 -8 -60 -27 -55 -58 3 -21 8 -23 61 -24 l57
-1 0 67 c0 38 -5 71 -12 78 -12 12 -62 15 -85 5z m67 -102 c0 -19 -18 -31 -46
-31 -20 0 -17 38 4 43 34 9 42 7 42 -12z"/>
<path d="M3790 12763 c-25 -32 -22 -83 6 -114 27 -30 129 -21 110 9 -4 7 -16
6 -37 -1 -28 -11 -33 -10 -50 12 -26 32 -17 41 42 41 45 0 49 2 49 23 0 58
-82 78 -120 30z m86 -10 c17 -17 16 -18 -20 -21 -46 -4 -58 5 -32 24 25 18 31
18 52 -3z"/>
<path d="M3970 12710 c0 -64 3 -80 15 -80 11 0 15 12 15 49 0 65 7 81 36 81
15 0 24 6 24 15 0 18 -46 21 -54 3 -5 -10 -7 -10 -12 0 -15 31 -24 5 -24 -68z"/>
<path d="M4460 12787 c0 -3 14 -36 31 -74 28 -61 30 -71 19 -101 -12 -34 -7
-53 10 -36 11 11 90 190 90 205 0 27 -24 2 -47 -48 l-25 -58 -22 55 c-13 32
-29 56 -39 58 -9 2 -17 1 -17 -1z"/>
<path d="M4750 12772 c-29 -23 -32 -92 -5 -122 18 -20 66 -27 99 -14 30 12 16
25 -19 18 -40 -7 -65 7 -65 37 0 16 8 19 56 19 47 0 55 3 50 16 -3 9 -6 19 -6
24 0 18 -33 40 -60 40 -15 0 -38 -8 -50 -18z m76 -19 c17 -17 16 -18 -20 -21
-46 -4 -58 5 -32 24 25 18 31 18 52 -3z"/>
<path d="M4910 12770 c-17 -31 -3 -57 36 -70 50 -17 43 -46 -10 -43 -50 3 -43
-21 8 -25 46 -4 68 13 64 47 -2 18 -13 31 -38 42 -48 23 -46 45 3 42 38 -2 50
10 21 21 -33 13 -73 6 -84 -14z"/>
<path d="M5067 12664 c-14 -15 -6 -34 14 -34 14 0 19 5 17 17 -3 18 -20 27
-31 17z"/>
<path d="M1104 12507 c-2 -7 -3 -60 -2 -118 2 -84 6 -104 18 -104 23 0 27 220
5 229 -9 3 -18 0 -21 -7z"/>
<path d="M680 12426 c0 -76 3 -87 26 -115 34 -41 92 -44 129 -6 23 22 25 32
25 115 0 73 -3 90 -15 90 -12 0 -15 -15 -15 -78 0 -108 -30 -144 -91 -112 -17
9 -19 22 -19 100 0 83 -1 90 -20 90 -18 0 -20 -7 -20 -84z"/>
<path d="M1650 12470 c0 -37 -2 -39 -22 -31 -29 11 -63 -2 -77 -28 -16 -29
-13 -83 5 -109 16 -23 67 -31 80 -11 4 8 9 8 17 0 23 -23 27 -8 27 104 0 96
-3 115 -15 115 -11 0 -15 -11 -15 -40z m-16 -56 c11 -4 16 -19 16 -50 0 -38
-4 -46 -26 -56 -22 -11 -28 -10 -40 7 -17 22 -18 59 -4 86 11 20 27 23 54 13z"/>
<path d="M1810 12395 c0 -96 3 -115 15 -115 12 0 15 19 15 115 0 96 -3 115
-15 115 -12 0 -15 -19 -15 -115z"/>
<path d="M3460 12395 c0 -96 3 -115 15 -115 12 0 15 19 15 115 0 96 -3 115
-15 115 -12 0 -15 -19 -15 -115z"/>
<path d="M4192 12498 c-7 -7 -12 -22 -12 -35 0 -14 -6 -23 -15 -23 -18 0 -19
-12 -3 -28 6 -6 12 -37 13 -69 2 -45 6 -59 19 -61 14 -3 16 7 16 67 0 64 2 71
20 71 11 0 20 5 20 10 0 6 -11 10 -25 10 -14 0 -25 3 -25 6 0 16 23 44 35 44
8 0 15 5 15 10 0 14 -43 13 -58 -2z"/>
<path d="M2930 12470 c0 -10 -8 -24 -17 -30 -13 -8 -14 -13 -5 -16 7 -4 12
-27 12 -64 0 -38 5 -62 14 -70 19 -15 58 -10 64 9 3 9 -1 11 -16 6 -25 -7 -36
20 -30 76 2 26 8 35 26 37 30 5 28 22 -3 22 -14 0 -24 3 -24 8 1 4 1 15 0 25
-1 24 -21 22 -21 -3z"/>
<path d="M4670 12465 c0 -16 -6 -25 -15 -25 -8 0 -15 -4 -15 -10 0 -5 5 -10
10 -10 6 0 10 -26 10 -59 0 -64 13 -85 51 -79 31 4 38 29 7 26 -22 -3 -23 0
-23 52 0 49 2 55 23 58 30 5 28 22 -3 22 -20 0 -25 5 -25 25 0 14 -4 25 -10
25 -5 0 -10 -11 -10 -25z"/>
<path d="M1234 12438 c-57 -15 -71 -108 -21 -143 56 -39 117 -4 117 68 0 63
-37 91 -96 75z m54 -30 c7 -7 12 -29 12 -50 0 -32 -5 -41 -26 -50 -23 -11 -29
-10 -45 11 -23 28 -24 49 -3 79 17 24 43 29 62 10z"/>
<path d="M2107 12443 c-23 -6 -40 -49 -29 -71 10 -19 9 -68 -1 -79 -4 -3 -7
-16 -7 -28 0 -44 86 -57 124 -19 36 36 6 74 -60 74 -13 0 -24 5 -24 10 0 6 13
10 28 10 32 0 52 16 52 41 0 10 7 25 16 33 12 13 13 17 2 20 -26 9 -83 14
-101 9z m58 -47 c0 -29 -31 -44 -50 -25 -23 23 -9 51 24 47 18 -2 26 -9 26
-22z m13 -123 c-4 -22 -67 -31 -79 -12 -12 21 -1 29 42 29 33 0 40 -3 37 -17z"/>
<path d="M2613 12440 c-17 -7 -23 -18 -23 -40 0 -26 6 -33 34 -45 42 -18 50
-29 31 -45 -9 -7 -26 -9 -47 -5 -29 7 -31 6 -19 -9 21 -25 77 -21 96 8 21 32
6 62 -35 71 -21 5 -30 12 -30 27 0 18 5 20 35 15 41 -7 47 9 9 23 -14 6 -26
10 -27 9 -1 0 -12 -4 -24 -9z"/>
<path d="M3776 12434 c-9 -8 -16 -11 -16 -5 0 6 -7 11 -15 11 -12 0 -15 -16
-15 -80 0 -64 3 -80 15 -80 11 0 15 13 15 53 0 60 7 75 38 80 30 4 39 16 22
27 -21 13 -26 12 -44 -6z"/>
<path d="M3882 12434 c-13 -9 -22 -26 -22 -40 0 -21 8 -29 40 -41 60 -24 46
-62 -17 -47 -19 5 -24 3 -21 -7 7 -22 67 -23 89 -3 29 26 20 56 -21 75 -45 22
-46 45 -2 43 37 -2 45 20 10 30 -31 8 -31 8 -56 -10z"/>
<path d="M4519 12439 c-8 -4 -24 -6 -36 -2 -22 5 -23 3 -23 -76 0 -65 3 -81
15 -81 12 0 15 13 15 58 0 60 11 82 42 82 23 0 31 -20 32 -84 1 -40 5 -51 19
-54 14 -3 17 4 17 50 0 29 -6 64 -13 77 -14 28 -48 43 -68 30z"/>
<path d="M4802 12443 c-7 -2 -17 -13 -22 -24 -15 -26 2 -54 41 -68 21 -7 29
-16 27 -28 -3 -14 -12 -17 -41 -16 -38 2 -50 -10 -21 -21 83 -32 132 47 54 86
-44 22 -45 43 -3 44 44 0 52 11 19 24 -29 11 -34 11 -54 3z"/>
<path d="M922 12330 c2 -61 7 -105 13 -105 6 0 11 14 13 30 3 29 5 31 36 27
27 -3 37 1 55 23 25 32 27 81 6 113 -14 18 -24 21 -71 19 l-55 -2 3 -105z m98
64 c14 -36 13 -49 -8 -74 -13 -17 -24 -21 -40 -16 -18 6 -22 15 -22 50 0 23 5
47 12 54 20 20 48 14 58 -14z"/>
<path d="M1393 12433 c-7 -2 -13 -11 -13 -19 0 -17 5 -17 29 -2 24 15 51 4 51
-20 0 -15 -10 -21 -40 -26 -31 -5 -41 -11 -46 -31 -11 -45 30 -69 77 -45 13 7
19 7 19 0 0 -5 5 -10 10 -10 14 0 13 133 -2 148 -12 12 -62 15 -85 5z m67
-102 c0 -20 -32 -37 -50 -26 -14 9 -13 32 3 38 28 12 47 7 47 -12z"/>
<path d="M1907 12422 c-24 -27 -22 -97 3 -122 30 -30 83 -27 109 6 30 39 24
102 -13 126 -22 15 -83 8 -99 -10z m97 -39 c10 -36 -12 -83 -39 -83 -24 0 -45
30 -45 64 0 39 17 58 50 54 18 -2 27 -12 34 -35z"/>
<path d="M2267 12423 c-57 -64 -4 -160 78 -139 32 8 59 59 50 95 -10 42 -34
61 -75 61 -22 0 -43 -7 -53 -17z m83 -18 c17 -21 15 -74 -4 -93 -12 -13 -20
-13 -41 -4 -24 11 -31 32 -25 72 5 39 47 53 70 25z"/>
<path d="M2750 12420 c-46 -46 -9 -140 54 -140 36 0 76 23 58 34 -6 3 -22 1
-36 -5 -22 -10 -29 -9 -46 6 -35 32 -25 45 35 45 61 0 70 14 39 58 -20 29 -76
30 -104 2z m78 -12 c21 -21 13 -28 -28 -28 -38 0 -40 2 -30 20 12 22 40 26 58
8z"/>
<path d="M3128 12423 c-25 -29 -30 -59 -14 -97 10 -23 23 -37 40 -42 35 -8 76
3 76 21 0 18 -5 18 -31 5 -33 -18 -59 4 -59 49 0 48 19 65 61 56 24 -5 30 -4
27 6 -7 22 -81 23 -100 2z"/>
<path d="M3294 12432 c-6 -4 -16 -17 -23 -29 -29 -56 6 -123 65 -123 46 0 74
29 74 78 0 55 -23 82 -68 82 -20 0 -42 -4 -48 -8z m80 -43 c18 -53 -11 -98
-55 -84 -24 8 -35 61 -18 92 18 33 60 28 73 -8z"/>
<path d="M3554 12419 c-27 -30 -24 -97 6 -121 29 -23 72 -23 101 1 30 24 33
89 5 120 -26 28 -86 28 -112 0z m86 -15 c18 -21 17 -72 -3 -91 -13 -14 -21
-14 -42 -5 -20 9 -25 19 -25 50 0 57 40 83 70 46z"/>
<path d="M4292 12424 c-30 -21 -31 -95 -2 -124 30 -30 83 -27 109 6 30 39 24
102 -13 126 -19 13 -71 9 -94 -8z m89 -35 c10 -27 10 -36 -2 -58 -28 -50 -79
-29 -79 33 0 62 58 80 81 25z"/>
<path d="M2435 12310 c-4 -6 -2 -17 4 -24 7 -9 7 -16 -1 -24 -6 -6 -8 -15 -4
-19 11 -11 37 28 34 51 -3 23 -23 32 -33 16z"/>
<path d="M4013 12280 c1 -32 4 -37 13 -28 22 23 21 68 0 68 -11 0 -15 -11 -13
-40z"/>
<path d="M4925 12310 c-4 -6 -2 -17 4 -24 7 -9 7 -16 -1 -24 -6 -6 -8 -15 -4
-19 11 -11 37 28 34 51 -3 23 -23 32 -33 16z"/>
<path d="M1261 12156 c-9 -10 -8 -16 3 -25 10 -9 16 -8 25 3 9 10 8 16 -3 25
-10 9 -16 8 -25 -3z"/>
<path d="M3419 12163 c-1 -4 0 -23 1 -41 2 -32 0 -34 -27 -28 -22 5 -36 1 -56
-14 -23 -18 -27 -29 -27 -69 0 -67 43 -101 90 -71 9 6 17 5 22 -3 5 -8 10 -9
18 -1 16 16 9 226 -7 232 -7 2 -13 0 -14 -5z m-12 -105 c16 -22 15 -74 -1 -87
-8 -7 -25 -11 -38 -9 -19 2 -24 10 -26 41 -2 21 2 45 9 53 14 17 43 18 56 2z"/>
<path d="M2324 12123 c-4 -16 -14 -33 -23 -40 -14 -11 -14 -12 2 -13 14 0 17
-10 17 -59 0 -67 15 -87 55 -77 29 7 25 26 -6 26 -16 0 -19 7 -19 55 0 48 2
55 20 55 11 0 20 5 20 10 0 6 -9 10 -20 10 -16 0 -20 7 -20 30 0 38 -17 39
-26 3z"/>
<path d="M1122 12084 c-34 -23 -25 -55 21 -77 20 -10 37 -25 37 -32 0 -18 -28
-27 -50 -15 -23 12 -40 -7 -19 -21 40 -25 105 7 97 48 -2 10 -20 27 -41 38
-43 23 -43 39 -1 42 48 2 50 3 30 18 -25 19 -46 19 -74 -1z"/>
<path d="M1264 12087 c-9 -24 0 -152 11 -150 14 4 19 163 5 163 -6 0 -13 -6
-16 -13z"/>
<path d="M1347 12094 c-15 -15 -5 -23 34 -26 l40 -3 -40 -54 c-56 -74 -54 -81
19 -81 46 0 60 3 60 14 0 10 -13 16 -41 18 l-40 3 41 55 c22 30 39 59 37 65
-4 12 -99 20 -110 9z"/>
<path d="M1533 12088 c-12 -6 -27 -23 -33 -39 -31 -74 42 -146 111 -109 32 18
21 28 -23 23 -33 -5 -44 -2 -55 12 -21 30 -16 35 42 35 51 0 55 2 55 23 0 48
-52 78 -97 55z m67 -38 c10 -18 8 -20 -30 -20 -27 0 -40 4 -40 13 0 33 53 38
70 7z"/>
<path d="M1692 12084 c-34 -23 -25 -55 21 -77 20 -10 37 -25 37 -32 0 -18 -28
-27 -50 -15 -25 13 -30 13 -30 -4 0 -30 68 -35 94 -7 25 28 17 53 -24 73 -44
22 -46 43 -3 43 42 0 52 12 19 25 -35 13 -37 13 -64 -6z"/>
<path d="M2013 12090 c-71 -29 -48 -160 28 -160 35 0 72 17 64 30 -3 5 -22 6
-42 3 -28 -5 -39 -2 -49 12 -22 30 -17 35 41 35 52 0 55 2 55 24 0 15 -11 33
-26 45 -29 23 -38 24 -71 11z m65 -42 c3 -15 -4 -18 -38 -18 -38 0 -40 1 -30
21 14 25 63 23 68 -3z"/>
<path d="M2486 12091 c-3 -5 -15 -7 -26 -4 -19 5 -20 0 -20 -76 0 -65 3 -81
15 -81 12 0 15 13 15 61 0 59 0 60 35 75 20 8 33 19 30 24 -8 13 -42 13 -49 1z"/>
<path d="M2603 12090 c-35 -14 -27 -30 14 -27 31 2 39 -2 41 -18 2 -16 -3 -21
-23 -23 -45 -3 -67 -21 -63 -49 4 -37 30 -50 68 -36 16 6 30 7 30 2 0 -5 5 -9
10 -9 12 0 14 129 2 147 -10 17 -53 24 -79 13z m57 -105 c0 -20 -39 -40 -52
-27 -6 6 -8 18 -5 26 8 20 57 21 57 1z"/>
<path d="M2752 12084 c-34 -23 -25 -55 21 -77 20 -10 37 -25 37 -32 0 -18 -28
-27 -50 -15 -23 12 -40 -7 -19 -21 40 -25 105 7 97 48 -2 10 -20 27 -41 38
-43 23 -43 39 -1 42 48 2 50 3 30 18 -25 19 -46 19 -74 -1z"/>
<path d="M2988 12088 c-41 -14 -35 -30 8 -22 26 5 39 3 45 -7 14 -23 11 -28
-30 -39 -52 -14 -67 -33 -53 -65 12 -27 40 -32 72 -15 13 7 21 7 25 0 16 -25
25 -5 25 55 0 52 -4 69 -20 85 -22 22 -32 23 -72 8z m62 -103 c0 -20 -49 -40
-63 -26 -15 15 11 41 39 41 15 0 24 -6 24 -15z"/>
<path d="M3190 12090 c-8 -5 -25 -7 -38 -3 -23 5 -23 4 -20 -73 2 -62 6 -79
18 -79 12 0 14 11 13 48 -3 59 10 87 41 87 29 0 36 -16 36 -86 0 -43 3 -54 16
-54 25 0 16 137 -11 156 -22 16 -34 17 -55 4z"/>
<path d="M3621 12091 c-7 -5 -22 -6 -33 -3 -18 4 -19 -1 -16 -73 2 -52 7 -80
16 -83 9 -3 12 13 12 55 0 61 11 83 41 83 22 0 31 -28 28 -88 -3 -36 0 -47 11
-47 11 0 15 13 16 51 1 66 9 84 33 84 24 0 31 -19 31 -86 0 -41 4 -54 15 -54
25 0 21 124 -5 150 -24 24 -38 25 -67 5 -18 -13 -22 -13 -33 0 -14 17 -29 19
-49 6z"/>
<path d="M3857 12080 c-22 -17 -27 -30 -27 -64 0 -77 73 -113 125 -61 71 70
-20 186 -98 125z m84 -37 c21 -56 -26 -107 -67 -73 -17 15 -19 71 -2 88 22 22
58 14 69 -15z"/>
<path d="M4067 12083 c-10 -11 -17 -13 -17 -5 0 7 -7 12 -15 12 -12 0 -15 -16
-15 -80 0 -64 3 -80 15 -80 11 0 15 13 15 54 0 59 16 86 52 86 11 0 18 5 16
13 -7 19 -31 19 -51 0z"/>
<path d="M4193 12090 c-71 -29 -48 -160 28 -160 35 0 72 17 64 30 -3 5 -21 6
-40 3 -37 -6 -65 9 -65 33 0 10 15 14 55 14 49 0 55 2 55 20 0 23 -42 70 -62
69 -7 0 -23 -4 -35 -9z m65 -42 c3 -15 -4 -18 -37 -18 -43 0 -50 7 -29 28 18
18 62 11 66 -10z"/>
<path d="M2156 12051 l26 -40 -26 -34 c-30 -39 -32 -47 -12 -47 8 0 23 14 33
30 9 17 21 30 25 30 4 0 14 -13 23 -30 9 -16 22 -30 30 -30 20 0 19 4 -7 49
l-22 38 23 36 c19 31 20 37 7 37 -9 0 -25 -14 -35 -31 l-19 -31 -18 31 c-10
17 -26 31 -36 31 -16 0 -15 -4 8 -39z"/>
<path d="M1833 11931 c1 -33 4 -39 14 -28 20 20 21 61 1 65 -14 3 -17 -4 -15
-37z"/>
<path d="M4327 11964 c-9 -9 4 -34 18 -34 14 0 27 25 18 34 -4 3 -12 6 -18 6
-6 0 -14 -3 -18 -6z"/>
<path d="M4410 11950 c0 -15 5 -20 18 -18 9 2 17 10 17 18 0 8 -8 16 -17 18
-13 2 -18 -3 -18 -18z"/>
<path d="M4484 11959 c-8 -14 11 -33 25 -25 6 4 11 14 11 22 0 16 -26 19 -36
3z"/>
<path d="M358 10863 l2 -558 700 -3 700 -2 0 560 0 560 -702 0 -703 0 3 -557z
m1382 432 l0 -105 -680 0 -680 0 0 105 0 105 680 0 680 0 0 -105z m0 -544 c0
-384 -1 -420 -17 -423 -9 -2 -315 -2 -680 0 l-663 2 0 420 0 420 680 0 680 0
0 -419z"/>
<path d="M456 11318 c-4 -9 -6 -27 -4 -40 3 -21 7 -23 53 -20 28 1 58 2 68 2
37 0 58 0 75 0 9 0 26 0 36 -1 18 0 35 16 36 33 0 16 -34 39 -49 32 -9 -3 -22
-6 -28 -5 -15 2 -46 2 -70 0 -10 -1 -25 1 -34 5 -20 9 -52 -21 -45 -40 3 -8
-1 -14 -9 -14 -8 0 -15 13 -17 33 -3 24 -6 28 -12 15z m94 -22 c0 -8 -5 -18
-11 -22 -14 -8 -33 11 -25 25 10 16 36 13 36 -3z m90 4 c0 -5 -7 -10 -16 -10
-8 0 -12 -4 -9 -10 3 -5 2 -10 -4 -10 -14 0 -23 18 -16 30 3 6 15 10 26 10 10
0 19 -4 19 -10z m55 -10 c0 -22 -29 -18 -33 3 -3 14 1 18 15 15 10 -2 18 -10
18 -18z"/>
<path d="M1125 11290 c3 -5 35 -10 70 -10 35 0 67 5 70 10 4 6 -22 10 -70 10
-48 0 -74 -4 -70 -10z"/>
<path d="M1330 11290 c0 -6 30 -10 70 -10 40 0 70 4 70 10 0 6 -30 10 -70 10
-40 0 -70 -4 -70 -10z"/>
<path d="M1530 11290 c0 -6 30 -10 70 -10 40 0 70 4 70 10 0 6 -30 10 -70 10
-40 0 -70 -4 -70 -10z"/>
<path d="M2102 10863 l3 -558 703 -3 702 -2 0 560 0 560 -705 0 -705 0 2 -557z
m1386 0 c-2 -296 -6 -537 -10 -535 -5 1 -309 2 -678 2 l-670 0 0 535 0 535
680 0 680 0 -2 -537z"/>
<path d="M2200 11235 l0 -105 605 0 605 0 0 105 0 105 -605 0 -605 0 0 -105z
m1190 0 l0 -95 -585 0 -585 0 0 95 0 95 585 0 585 0 0 -95z"/>
<path d="M2280 11235 l0 -35 48 2 c26 1 52 5 59 10 7 6 20 4 32 -4 16 -9 26
-10 39 -2 12 8 22 8 33 1 34 -21 73 18 49 48 -17 21 -48 19 -62 -4 -6 -10 -18
-17 -25 -14 -9 4 -11 0 -7 -12 5 -13 3 -16 -7 -13 -23 8 -23 38 0 38 12 0 21
5 21 10 0 14 -33 12 -49 -2 -11 -10 -14 -10 -18 0 -6 16 -48 15 -62 -2 -6 -7
-9 -21 -5 -30 5 -12 2 -15 -10 -10 -9 3 -16 17 -16 30 0 13 -4 24 -10 24 -5 0
-10 -16 -10 -35z m100 0 c0 -8 -6 -15 -14 -15 -17 0 -28 14 -19 24 12 12 33 6
33 -9z m150 0 c0 -8 -9 -15 -20 -15 -11 0 -20 7 -20 15 0 8 9 15 20 15 11 0
20 -7 20 -15z"/>
<path d="M2780 11230 c0 -6 30 -10 70 -10 40 0 70 4 70 10 0 6 -30 10 -70 10
-40 0 -70 -4 -70 -10z"/>
<path d="M2980 11230 c0 -6 30 -10 70 -10 40 0 70 4 70 10 0 6 -30 10 -70 10
-40 0 -70 -4 -70 -10z"/>
<path d="M3180 11230 c0 -6 32 -10 75 -10 43 0 75 4 75 10 0 6 -32 10 -75 10
-43 0 -75 -4 -75 -10z"/>
<path d="M3850 10860 l0 -560 705 0 705 0 0 560 0 560 -705 0 -705 0 0 -560z
m1389 435 l-1 -105 -683 0 -683 0 -1 105 -2 105 686 0 686 0 -2 -105z m1 -545
l0 -420 -682 0 -683 0 0 420 0 420 683 0 682 0 0 -420z"/>
<path d="M3950 11297 c0 -33 24 -58 39 -41 3 4 0 9 -6 11 -7 3 -13 15 -13 28
0 13 -4 27 -10 30 -6 4 -10 -8 -10 -28z"/>
<path d="M4008 11319 c-24 -13 -23 -46 1 -59 21 -11 51 -4 51 11 0 5 12 2 27
-8 24 -16 27 -16 36 -1 10 14 13 15 34 1 19 -13 26 -13 39 -3 19 17 15 50 -9
64 -15 9 -22 7 -37 -11 -10 -13 -23 -23 -30 -23 -6 0 -8 -4 -5 -10 3 -5 -1
-10 -9 -10 -26 0 -19 38 7 43 20 3 20 4 4 11 -11 6 -24 3 -35 -7 -15 -13 -19
-13 -30 -1 -15 16 -21 17 -44 3z m38 -20 c10 -17 -13 -36 -27 -22 -12 12 -4
33 11 33 5 0 12 -5 16 -11z m144 -9 c0 -11 -7 -20 -15 -20 -8 0 -15 9 -15 20
0 11 7 20 15 20 8 0 15 -9 15 -20z"/>
<path d="M4490 11290 c0 -6 26 -10 59 -10 33 0 63 5 66 10 4 6 -18 10 -59 10
-37 0 -66 -4 -66 -10z"/>
<path d="M4770 11290 c0 -6 27 -10 60 -10 33 0 60 4 60 10 0 6 -27 10 -60 10
-33 0 -60 -4 -60 -10z"/>
<path d="M5040 11290 c0 -6 26 -10 59 -10 33 0 63 5 66 10 4 6 -18 10 -59 10
-37 0 -66 -4 -66 -10z"/>
<path d="M872 10188 c-28 -28 -7 -79 32 -77 18 1 17 2 -4 8 -28 8 -39 43 -20
67 15 17 9 19 -8 2z"/>
<path d="M2581 10155 c2 -46 2 -47 8 -15 6 34 7 34 19 13 7 -13 16 -23 20 -23
10 0 44 62 37 68 -3 3 -5 1 -5 -4 0 -5 -8 -18 -16 -29 -15 -20 -16 -20 -40 10
l-24 30 1 -50z"/>
<path d="M4423 10160 c0 -25 2 -35 4 -22 2 12 2 32 0 45 -2 12 -4 2 -4 -23z"/>
<path d="M4605 10190 c3 -5 8 -10 11 -10 2 0 4 5 4 10 0 6 -5 10 -11 10 -5 0
-7 -4 -4 -10z"/>
<path d="M953 10155 c0 -22 2 -30 4 -17 2 12 2 30 0 40 -3 9 -5 -1 -4 -23z"/>
<path d="M2823 10155 c0 -22 2 -30 4 -17 2 12 2 30 0 40 -3 9 -5 -1 -4 -23z"/>
<path d="M4465 10180 c3 -5 8 -10 11 -10 2 0 4 5 4 10 0 6 -5 10 -11 10 -5 0
-7 -4 -4 -10z"/>
<path d="M996 10172 c-3 -4 4 -9 15 -9 23 -2 25 3 4 10 -8 4 -16 3 -19 -1z"/>
<path d="M1061 10166 c-10 -11 -8 -17 6 -25 16 -9 16 -12 3 -21 -9 -6 -10 -10
-3 -10 22 0 26 23 8 37 -17 12 -13 18 8 14 5 -1 6 3 2 9 -8 13 -10 13 -24 -4z"/>
<path d="M1127 10173 c-12 -12 -7 -31 9 -37 14 -5 15 -4 5 8 -7 8 -10 20 -6
26 7 11 2 14 -8 3z"/>
<path d="M1225 10169 c-11 -16 -1 -19 13 -3 7 8 8 14 3 14 -5 0 -13 -5 -16
-11z"/>
<path d="M2735 10160 c10 -11 20 -20 23 -20 3 0 -3 9 -13 20 -10 11 -20 20
-23 20 -3 0 3 -9 13 -20z"/>
<path d="M2882 10155 c-11 -12 -10 -15 3 -15 8 0 15 7 15 15 0 18 -2 18 -18 0z"/>
<path d="M2920 10145 c0 -14 2 -25 4 -25 2 0 6 11 8 25 3 14 1 25 -3 25 -5 0
-9 -11 -9 -25z"/>
<path d="M2980 10159 c0 -5 5 -7 10 -4 6 3 10 8 10 11 0 2 -4 4 -10 4 -5 0
-10 -5 -10 -11z"/>
<path d="M4640 10159 c0 -5 5 -7 10 -4 6 3 10 8 10 11 0 2 -4 4 -10 4 -5 0
-10 -5 -10 -11z"/>
<path d="M1182 10140 c0 -14 2 -19 5 -12 2 6 2 18 0 25 -3 6 -5 1 -5 -13z"/>
<path d="M3022 10140 c0 -14 2 -19 5 -12 2 6 2 18 0 25 -3 6 -5 1 -5 -13z"/>
<path d="M4570 10155 c-1 -5 -2 -14 -1 -19 1 -5 -4 -13 -11 -17 -10 -7 -10 -9
0 -9 15 0 26 24 19 42 -3 7 -6 9 -7 3z"/>
<path d="M4682 10140 c0 -14 2 -19 5 -12 2 6 2 18 0 25 -3 6 -5 1 -5 -13z"/>
<path d="M2690 10143 c0 -6 8 -17 18 -24 16 -13 16 -13 2 6 -8 11 -16 22 -17
24 -2 2 -3 0 -3 -6z"/>
<path d="M2854 10130 c1 -8 10 -16 21 -17 15 -1 15 0 3 3 -9 3 -19 11 -21 17
-2 7 -3 5 -3 -3z"/>
<path d="M1005 10120 c-16 -7 -17 -9 -3 -9 9 -1 20 4 23 9 7 11 7 11 -20 0z"/>
<path d="M1227 10119 c7 -7 15 -10 18 -7 3 3 -2 9 -12 12 -14 6 -15 5 -6 -5z"/>
<path d="M2778 10118 c5 -5 16 -8 23 -6 8 3 3 7 -10 11 -17 4 -21 3 -13 -5z"/>
<path d="M1128 10113 c7 -3 16 -2 19 1 4 3 -2 6 -13 5 -11 0 -14 -3 -6 -6z"/>
<path d="M357 9242 l2 -557 701 -3 700 -2 0 560 0 560 -702 0 -703 0 2 -558z
m1383 373 l0 -165 -680 0 -680 0 0 165 0 165 680 0 680 0 0 -165z m0 -545 l0
-360 -680 0 -680 0 0 360 0 360 680 0 680 0 0 -360z"/>
<path d="M458 9704 c-5 -4 -8 -20 -8 -36 0 -31 22 -47 43 -29 10 7 17 7 24 0
8 -8 17 -8 32 0 15 9 27 9 41 1 13 -7 26 -7 38 -1 11 6 24 6 34 0 31 -17 65
12 52 45 -8 20 -32 28 -52 17 -11 -6 -24 -6 -35 0 -11 7 -24 6 -37 -1 -14 -7
-26 -8 -39 0 -32 16 -72 -13 -55 -41 3 -5 -2 -9 -10 -9 -9 0 -16 12 -18 31 -2
17 -6 27 -10 23z m92 -28 c0 -8 -5 -18 -11 -22 -14 -8 -33 11 -25 25 10 16 36
13 36 -3z m90 4 c0 -5 -7 -10 -16 -10 -8 0 -12 -4 -9 -10 3 -5 2 -10 -4 -10
-14 0 -23 18 -16 30 3 6 15 10 26 10 10 0 19 -4 19 -10z m55 -10 c0 -22 -29
-18 -33 3 -3 14 1 18 15 15 10 -2 18 -10 18 -18z"/>
<path d="M450 9545 c0 -13 12 -15 67 -13 42 2 68 8 71 16 3 9 -15 12 -67 12
-57 0 -71 -3 -71 -15z"/>
<path d="M653 9548 c5 -18 129 -18 135 0 3 9 -15 12 -68 12 -53 0 -71 -3 -67
-12z"/>
<path d="M853 9548 c5 -18 129 -18 135 0 3 9 -15 12 -68 12 -53 0 -71 -3 -67
-12z"/>
<path d="M1052 9548 c3 -8 29 -14 71 -16 55 -2 67 0 67 13 0 12 -14 15 -71 15
-52 0 -70 -3 -67 -12z"/>
<path d="M1255 9550 c-9 -15 17 -21 75 -18 32 2 55 8 58 16 5 15 -123 17 -133
2z"/>
<path d="M2102 9243 l3 -558 703 -3 702 -2 0 560 0 560 -705 0 -705 0 2 -557z
m1388 372 l0 -165 -680 0 -680 0 0 165 0 165 680 0 680 0 0 -165z m0 -545 l0
-360 -680 0 -680 0 0 360 0 360 680 0 680 0 0 -360z"/>
<path d="M2680 9671 c0 -34 3 -41 20 -41 11 0 20 5 20 10 0 6 -4 10 -10 10 -5
0 -10 11 -10 24 0 14 -4 28 -10 31 -6 4 -10 -10 -10 -34z"/>
<path d="M2732 9698 c-33 -33 7 -80 45 -53 18 13 22 13 33 0 17 -20 37 -19 49
3 6 9 11 12 11 6 1 -35 70 -19 70 16 0 38 -61 49 -74 14 -3 -9 -10 -12 -16 -9
-5 3 -10 -1 -10 -9 0 -9 -4 -16 -10 -16 -5 0 -10 9 -10 20 0 14 7 20 21 20 11
0 17 5 14 10 -9 14 -31 12 -48 -5 -13 -13 -16 -13 -27 0 -15 18 -32 19 -48 3z
m38 -28 c0 -11 -7 -20 -15 -20 -8 0 -15 9 -15 20 0 11 7 20 15 20 8 0 15 -9
15 -20z m150 6 c0 -21 -21 -31 -30 -15 -5 7 -6 17 -4 21 9 14 34 9 34 -6z"/>
<path d="M2333 9548 c2 -9 25 -13 67 -13 42 0 65 4 68 13 3 9 -15 12 -68 12
-53 0 -71 -3 -67 -12z"/>
<path d="M2535 9550 c-3 -5 0 -13 8 -16 23 -8 127 0 130 11 3 14 -129 19 -138
5z"/>
<path d="M2742 9548 c3 -9 25 -13 66 -13 85 0 84 19 -1 23 -53 2 -68 0 -65
-10z"/>
<path d="M2943 9548 c2 -9 25 -13 67 -13 42 0 65 4 68 13 3 9 -15 12 -68 12
-53 0 -71 -3 -67 -12z"/>
<path d="M3142 9548 c3 -8 29 -14 71 -16 55 -2 67 0 67 13 0 12 -14 15 -71 15
-52 0 -70 -3 -67 -12z"/>
<path d="M3850 9240 l0 -560 705 0 705 0 0 560 0 560 -705 0 -705 0 0 -560z
m1390 375 l0 -165 -685 0 -685 0 0 165 0 165 685 0 685 0 0 -165z m-1 -545 l1
-360 -683 0 -682 0 0 360 0 360 682 0 682 0 0 -360z"/>
<path d="M4900 9675 c0 -35 22 -57 38 -40 4 4 1 10 -5 12 -7 3 -13 18 -13 34
0 16 -4 29 -10 29 -5 0 -10 -16 -10 -35z"/>
<path d="M4956 9694 c-9 -8 -16 -19 -16 -24 0 -9 28 -40 36 -40 3 0 14 5 25
10 13 8 25 7 39 0 13 -7 26 -7 38 -1 11 6 24 6 34 0 20 -11 44 -3 52 17 12 33
-21 62 -52 45 -9 -5 -25 -5 -39 2 -16 7 -26 7 -37 -2 -11 -9 -20 -10 -35 -2
-25 14 -27 14 -45 -5z m44 -18 c0 -8 -5 -18 -11 -22 -14 -8 -33 11 -25 25 10
16 36 13 36 -3z m90 4 c0 -5 -7 -10 -16 -10 -8 0 -12 -4 -9 -10 3 -5 2 -10 -4
-10 -14 0 -23 18 -16 30 3 6 15 10 26 10 10 0 19 -4 19 -10z m55 -10 c0 -22
-29 -18 -33 3 -3 14 1 18 15 15 10 -2 18 -10 18 -18z"/>
<path d="M4213 9548 c2 -9 25 -13 67 -13 42 0 65 4 68 13 3 9 -15 12 -68 12
-53 0 -71 -3 -67 -12z"/>
<path d="M4412 9548 c3 -8 29 -14 71 -16 55 -2 67 0 67 13 0 12 -14 15 -71 15
-52 0 -70 -3 -67 -12z"/>
<path d="M4617 9554 c-15 -16 9 -24 69 -24 50 0 64 3 64 15 0 12 -14 15 -63
15 -35 0 -67 -3 -70 -6z"/>
<path d="M4817 9554 c-15 -15 7 -24 58 -24 59 0 88 8 79 21 -6 10 -127 12
-137 3z"/>
<path d="M5015 9551 c-3 -6 5 -13 18 -16 34 -9 122 -2 122 10 0 13 -131 19
-140 6z"/>
<path d="M2802 8568 c-28 -28 -7 -79 33 -77 17 1 16 2 -5 8 -28 8 -39 43 -20
67 15 17 9 19 -8 2z"/>
<path d="M4783 8540 c0 -25 2 -35 4 -22 2 12 2 32 0 45 -2 12 -4 2 -4 -23z"/>
<path d="M766 8561 c-6 -9 7 -22 34 -35 8 -4 6 0 -5 9 -11 9 -19 21 -17 26 3
12 -5 12 -12 0z"/>
<path d="M2504 8536 c1 -26 6 -41 16 -43 10 -3 11 -2 3 4 -6 4 -13 24 -16 43
-4 34 -4 33 -3 -4z"/>
<path d="M835 8550 c-3 -5 -1 -10 4 -10 6 0 11 5 11 10 0 6 -2 10 -4 10 -3 0
-8 -4 -11 -10z"/>
<path d="M1270 8531 c0 -17 2 -31 4 -31 8 0 13 51 5 56 -5 3 -9 -9 -9 -25z"/>
<path d="M1330 8525 c0 -19 4 -35 8 -35 4 0 6 16 4 35 -2 19 -6 35 -8 35 -2 0
-4 -16 -4 -35z"/>
<path d="M2577 8539 c4 -13 8 -18 11 -10 2 7 -1 18 -6 23 -8 8 -9 4 -5 -13z"/>
<path d="M2630 8545 c-6 -8 -10 -19 -8 -24 1 -6 8 1 15 14 13 28 11 31 -7 10z"/>
<path d="M2919 8548 c12 -16 11 -18 -15 -19 -26 -2 -26 -2 -5 -6 32 -6 46 10
24 28 -16 13 -17 12 -4 -3z"/>
<path d="M3030 8550 c0 -5 5 -10 10 -10 6 0 10 5 10 10 0 6 -4 10 -10 10 -5 0
-10 -4 -10 -10z"/>
<path d="M4232 8544 c9 -9 21 -15 27 -13 6 2 -2 10 -17 17 -25 11 -25 11 -10
-4z"/>
<path d="M4861 8544 c0 -11 3 -14 6 -6 3 7 2 16 -1 19 -3 4 -6 -2 -5 -13z"/>
<path d="M2446 8536 c10 -8 21 -12 24 -10 5 6 -21 24 -34 24 -6 0 -1 -6 10
-14z"/>
<path d="M3120 8541 c0 -5 -10 -12 -22 -14 -20 -4 -19 -4 5 -6 18 -1 27 4 27
14 0 8 -2 15 -5 15 -3 0 -5 -4 -5 -9z"/>
<path d="M3152 8525 c0 -16 2 -22 5 -12 2 9 2 23 0 30 -3 6 -5 -1 -5 -18z"/>
<path d="M4502 8538 c-15 -15 -15 -25 1 -31 7 -3 12 4 12 19 0 13 0 24 0 24
-1 0 -6 -5 -13 -12z"/>
<path d="M4610 8540 c-16 -5 -19 -8 -8 -9 10 -1 22 -10 28 -22 7 -11 14 -18
17 -15 3 3 0 12 -6 20 -7 8 -10 20 -6 26 3 5 5 10 3 9 -2 -1 -14 -5 -28 -9z"/>
<path d="M4682 8525 c0 -16 2 -22 5 -12 2 9 2 23 0 30 -3 6 -5 -1 -5 -18z"/>
<path d="M2702 8532 c-9 -7 -7 -13 9 -28 22 -19 22 -19 11 2 -6 12 -8 24 -5
28 9 8 1 7 -15 -2z"/>
<path d="M950 8521 c0 -10 29 -36 34 -30 1 2 -6 12 -16 22 -10 9 -18 13 -18 8z"/>
<path d="M1030 8526 c0 -2 7 -9 15 -16 13 -11 14 -10 9 4 -5 14 -24 23 -24 12z"/>
<path d="M1190 8521 c0 -6 5 -13 12 -17 6 -4 8 -3 4 4 -3 6 3 12 16 15 20 4
19 4 -4 6 -16 0 -28 -3 -28 -8z"/>
<path d="M4378 8523 c6 -2 9 -10 6 -15 -4 -7 -2 -8 5 -4 13 9 5 26 -12 25 -9
0 -8 -2 1 -6z"/>
<path d="M4410 8521 c0 -10 29 -36 34 -30 1 2 -6 12 -16 22 -10 9 -18 13 -18
8z"/>
<path d="M4713 8514 c0 -7 11 -17 24 -23 14 -7 23 -7 23 -1 0 6 -7 10 -16 10
-12 0 -14 3 -6 13 8 10 6 13 -7 13 -10 0 -18 -6 -18 -12z"/>
<path d="M890 8511 c0 -6 4 -13 10 -16 6 -3 7 1 4 9 -7 18 -14 21 -14 7z"/>
<path d="M4350 8511 c0 -6 4 -13 10 -16 6 -3 7 1 4 9 -7 18 -14 21 -14 7z"/>
<path d="M4860 8511 c0 -6 4 -13 10 -16 6 -3 7 1 4 9 -7 18 -14 21 -14 7z"/>
<path d="M840 8500 c0 -5 5 -10 11 -10 5 0 7 5 4 10 -3 6 -8 10 -11 10 -2 0
-4 -4 -4 -10z"/>
<path d="M2445 8500 c-16 -7 -17 -9 -3 -9 9 -1 20 4 23 9 7 11 7 11 -20 0z"/>
<path d="M2570 8500 c-13 -8 -12 -10 3 -10 9 0 17 5 17 10 0 12 -1 12 -20 0z"/>
<path d="M2890 8500 c8 -5 20 -10 25 -10 6 0 3 5 -5 10 -8 5 -19 10 -25 10 -5
0 -3 -5 5 -10z"/>
<path d="M3040 8500 c0 -5 5 -10 11 -10 5 0 7 5 4 10 -3 6 -8 10 -11 10 -2 0
-4 -4 -4 -10z"/>
<path d="M3088 8498 c5 -5 16 -8 23 -6 8 3 3 7 -10 11 -17 4 -21 3 -13 -5z"/>
<path d="M778 8493 c7 -3 16 -2 19 1 4 3 -2 6 -13 5 -11 0 -14 -3 -6 -6z"/>
<path d="M1148 8493 c7 -3 16 -2 19 1 4 3 -2 6 -13 5 -11 0 -14 -3 -6 -6z"/>
<path d="M2638 8493 c7 -3 16 -2 19 1 4 3 -2 6 -13 5 -11 0 -14 -3 -6 -6z"/>
<path d="M4238 8493 c7 -3 16 -2 19 1 4 3 -2 6 -13 5 -11 0 -14 -3 -6 -6z"/>
<path d="M358 7623 l2 -558 700 -3 700 -2 0 560 0 560 -702 0 -703 0 3 -557z
m1382 372 l0 -165 -680 0 -680 0 0 165 0 165 680 0 680 0 0 -165z m0 -545 l0
-360 -680 0 -680 0 0 360 0 360 680 0 680 0 0 -360z"/>
<path d="M458 8084 c-5 -4 -8 -20 -8 -35 0 -29 25 -46 45 -29 7 6 15 6 22 -1
8 -8 17 -8 32 0 15 9 27 9 41 1 13 -7 26 -7 38 -1 11 6 24 6 36 -1 14 -8 23
-6 37 9 32 31 0 76 -39 54 -10 -6 -23 -5 -34 2 -14 9 -23 9 -38 -1 -15 -9 -26
-10 -40 -2 -31 17 -71 -13 -54 -41 3 -5 -2 -9 -10 -9 -9 0 -16 12 -18 31 -2
17 -6 27 -10 23z m92 -28 c0 -8 -5 -18 -11 -22 -14 -8 -33 11 -25 25 10 16 36
13 36 -3z m90 4 c0 -5 -7 -10 -16 -10 -8 0 -12 -4 -9 -10 3 -5 2 -10 -4 -10
-14 0 -23 18 -16 30 3 6 15 10 26 10 10 0 19 -4 19 -10z m55 -10 c0 -22 -29
-18 -33 3 -3 14 1 18 15 15 10 -2 18 -10 18 -18z"/>
<path d="M1062 8053 l3 -38 300 0 300 0 3 38 3 37 -306 0 -306 0 3 -37z m588
2 l0 -25 -290 0 -290 0 0 25 0 25 290 0 290 0 0 -25z"/>
<path d="M450 7925 c0 -13 12 -15 67 -13 42 2 68 8 71 16 3 9 -15 12 -67 12
-57 0 -71 -3 -71 -15z"/>
<path d="M650 7925 c0 -13 12 -15 67 -13 42 2 68 8 71 16 3 9 -15 12 -67 12
-57 0 -71 -3 -71 -15z"/>
<path d="M850 7925 c0 -12 14 -15 70 -15 56 0 70 3 70 15 0 12 -14 15 -70 15
-56 0 -70 -3 -70 -15z"/>
<path d="M1052 7928 c3 -8 29 -14 71 -16 55 -2 67 0 67 13 0 12 -14 15 -71 15
-52 0 -70 -3 -67 -12z"/>
<path d="M1252 7928 c3 -8 29 -14 71 -16 55 -2 67 0 67 13 0 12 -14 15 -71 15
-52 0 -70 -3 -67 -12z"/>
<path d="M2102 7623 l3 -558 703 -3 702 -2 0 560 0 560 -705 0 -705 0 2 -557z
m208 2 l0 -535 -90 0 -90 0 0 535 0 535 90 0 90 0 0 -535z m1180 0 l0 -535
-580 0 -580 0 0 535 0 535 580 0 580 0 0 -535z"/>
<path d="M2198 8083 c12 -2 32 -2 45 0 12 2 2 4 -23 4 -25 0 -35 -2 -22 -4z"/>
<path d="M2180 8060 c0 -5 18 -10 40 -10 22 0 40 5 40 10 0 6 -18 10 -40 10
-22 0 -40 -4 -40 -10z"/>
<path d="M2180 8030 c0 -5 18 -10 40 -10 22 0 40 5 40 10 0 6 -18 10 -40 10
-22 0 -40 -4 -40 -10z"/>
<path d="M2205 7290 c4 -6 11 -8 16 -5 14 9 11 15 -7 15 -8 0 -12 -5 -9 -10z"/>
<path d="M2205 7230 c3 -5 10 -10 16 -10 5 0 9 5 9 10 0 6 -7 10 -16 10 -8 0
-12 -4 -9 -10z"/>
<path d="M2206 7171 c-4 -5 -2 -12 3 -15 5 -4 12 -2 15 3 4 5 2 12 -3 15 -5 4
-12 2 -15 -3z"/>
<path d="M3850 7620 l0 -560 705 0 705 0 0 560 0 560 -705 0 -705 0 0 -560z
m400 5 l0 -535 -190 0 -190 0 0 535 1 535 189 0 190 0 0 -535z m990 0 l0 -535
-490 0 -490 0 0 535 0 535 490 0 489 0 1 -535z"/>
<path d="M4008 8084 c-5 -4 -8 -20 -8 -36 0 -31 22 -47 43 -30 8 7 18 7 27 2
21 -13 52 8 48 32 -5 34 -33 46 -57 24 -11 -10 -17 -24 -14 -32 3 -8 -1 -14
-10 -14 -10 0 -17 11 -19 31 -2 17 -6 27 -10 23z m92 -28 c0 -21 -21 -31 -30
-15 -5 7 -6 17 -4 21 9 14 34 9 34 -6z"/>
<path d="M4083 7999 c-13 -5 -23 -13 -23 -19 0 -5 -7 -10 -15 -10 -8 0 -15 -4
-15 -10 0 -5 -5 -10 -11 -10 -6 0 -9 8 -7 18 2 9 11 16 21 16 9 -1 17 3 17 8
0 5 -12 8 -27 6 -33 -4 -43 -37 -18 -58 13 -11 21 -11 36 -2 15 9 23 9 38 0
15 -9 23 -9 35 1 34 29 10 76 -31 60z m27 -29 c0 -11 -7 -20 -15 -20 -8 0 -15
9 -15 20 0 11 7 20 15 20 8 0 15 -9 15 -20z"/>
<path d="M3980 7790 c0 -6 32 -10 75 -10 43 0 75 4 75 10 0 6 -32 10 -75 10
-43 0 -75 -4 -75 -10z"/>
<path d="M3980 7715 c0 -12 15 -15 75 -15 60 0 75 3 75 15 0 12 -15 15 -75 15
-60 0 -75 -3 -75 -15z"/>
<path d="M3980 7630 c0 -6 32 -10 75 -10 43 0 75 4 75 10 0 6 -32 10 -75 10
-43 0 -75 -4 -75 -10z"/>
<path d="M3990 7171 c0 -6 5 -13 10 -16 6 -3 10 1 10 9 0 9 -4 16 -10 16 -5 0
-10 -4 -10 -9z"/>
<path d="M4055 7170 c-3 -5 1 -10 10 -10 9 0 13 5 10 10 -3 6 -8 10 -10 10 -2
0 -7 -4 -10 -10z"/>
<path d="M4120 7165 c0 -8 5 -15 10 -15 6 0 10 7 10 15 0 8 -4 15 -10 15 -5 0
-10 -7 -10 -15z"/>
<path d="M787 6954 c-3 -5 6 -23 20 -39 16 -20 27 -26 30 -17 3 7 11 19 20 27
8 8 13 21 10 28 -2 6 -12 -3 -22 -22 l-17 -35 -18 34 c-9 18 -20 29 -23 24z"/>
<path d="M4477 6953 c-10 -10 -8 -25 2 -19 5 3 11 -8 15 -24 3 -17 10 -30 15
-30 6 0 3 17 -6 38 -18 44 -18 44 -26 35z"/>
<path d="M4968 6950 c20 -23 15 -60 -10 -70 -14 -5 -17 -9 -7 -9 38 -2 53 56
22 80 -15 11 -16 11 -5 -1z"/>
<path d="M3895 6930 c-3 -11 -2 -27 2 -35 6 -11 9 -5 9 20 0 40 -2 43 -11 15z"/>
<path d="M4543 6915 c0 -22 2 -30 4 -17 2 12 2 30 0 40 -3 9 -5 -1 -4 -23z"/>
<path d="M1292 6928 c-7 -7 -12 -21 -12 -32 0 -13 3 -17 8 -10 4 7 16 14 27
17 18 4 17 5 -3 6 -14 1 -20 5 -17 12 4 6 14 8 22 5 8 -3 11 -1 8 4 -8 13 -18
13 -33 -2z"/>
<path d="M2660 6930 c-8 -5 -12 -12 -9 -15 4 -3 12 1 19 10 14 17 11 19 -10 5z"/>
<path d="M2850 6924 c0 -8 5 -12 10 -9 6 4 8 11 5 16 -9 14 -15 11 -15 -7z"/>
<path d="M4180 6930 c0 -5 5 -10 10 -10 6 0 10 5 10 10 0 6 -4 10 -10 10 -5 0
-10 -4 -10 -10z"/>
<path d="M4350 6925 c-17 -20 -8 -49 15 -52 16 -1 16 -1 3 3 -25 8 -22 22 5
27 22 4 22 4 -2 6 -20 1 -21 3 -11 16 7 8 10 15 7 15 -2 0 -10 -7 -17 -15z"/>
<path d="M5100 6925 c-17 -20 -8 -49 15 -52 16 -1 16 -1 3 3 -24 7 -23 24 2
24 11 0 20 4 20 9 0 5 -10 7 -22 3 -21 -5 -22 -4 -9 11 7 9 11 17 8 17 -2 0
-10 -7 -17 -15z"/>
<path d="M973 6895 c0 -22 2 -33 5 -25 3 8 12 21 21 28 14 11 14 11 -1 6 -11
-3 -18 1 -20 13 -3 10 -5 0 -5 -22z"/>
<path d="M1067 6918 c-2 -7 -1 -22 4 -33 6 -16 8 -14 8 13 1 33 -4 41 -12 20z"/>
<path d="M2809 6918 c-1 -7 -1 -17 0 -22 1 -5 -4 -13 -11 -17 -10 -7 -9 -9 5
-9 12 0 17 8 17 30 0 29 -9 43 -11 18z"/>
<path d="M2902 6905 c0 -16 2 -22 5 -12 2 9 2 23 0 30 -3 6 -5 -1 -5 -18z"/>
<path d="M2945 6903 c8 -18 18 -33 20 -33 10 0 4 16 -16 40 l-20 25 16 -32z"/>
<path d="M4080 6920 c0 -5 -9 -10 -20 -10 -11 0 -20 -4 -20 -9 0 -4 11 -6 25
-3 14 2 25 11 25 18 0 8 -2 14 -5 14 -3 0 -5 -4 -5 -10z"/>
<path d="M4242 6905 c0 -16 2 -22 5 -12 2 9 2 23 0 30 -3 6 -5 -1 -5 -18z"/>
<path d="M4305 6909 c-6 -17 -9 -19 -16 -8 -5 8 -9 10 -9 4 0 -5 4 -16 8 -23
6 -9 12 -5 21 14 6 15 10 29 7 31 -2 2 -7 -5 -11 -18z"/>
<path d="M4576 6910 c3 -14 10 -29 15 -34 14 -16 10 6 -7 34 l-15 25 7 -25z"/>
<path d="M4636 6904 c-4 -14 -5 -28 -3 -31 3 -2 8 8 11 23 4 14 5 28 3 31 -3
2 -8 -8 -11 -23z"/>
<path d="M4741 6925 c0 -5 5 -20 12 -33 l13 -23 13 27 c6 15 10 29 7 31 -2 2
-7 -6 -11 -18 l-7 -22 -14 24 c-7 13 -13 20 -13 14z"/>
<path d="M4810 6920 c0 -6 7 -13 15 -16 20 -8 19 -21 -2 -27 -16 -4 -16 -5 -1
-6 27 -2 32 19 9 40 -12 11 -21 15 -21 9z"/>
<path d="M862 6895 c0 -16 2 -22 5 -12 2 9 2 23 0 30 -3 6 -5 -1 -5 -18z"/>
<path d="M4456 6905 c-9 -26 -7 -32 5 -12 6 10 9 21 6 23 -2 3 -7 -2 -11 -11z"/>
<path d="M1171 6894 c0 -11 3 -14 6 -6 3 7 2 16 -1 19 -3 4 -6 -2 -5 -13z"/>
<path d="M2700 6902 c0 -14 23 -32 40 -31 8 0 4 5 -10 11 l-25 11 25 7 25 8
-27 1 c-16 1 -28 -3 -28 -7z"/>
<path d="M3000 6902 c0 -5 14 -7 30 -4 17 2 30 6 30 8 0 2 -13 4 -30 4 -16 0
-30 -4 -30 -8z"/>
<path d="M903 6890 c4 -18 37 -27 37 -10 0 6 -5 8 -11 4 -6 -3 -16 0 -21 7 -8
12 -9 11 -5 -1z"/>
<path d="M4680 6888 c0 -20 25 -24 36 -6 5 7 3 8 -6 3 -7 -4 -16 -2 -21 6 -7
11 -9 10 -9 -3z"/>
<path d="M4140 6880 c-9 -6 -10 -10 -3 -10 6 0 15 5 18 10 8 12 4 12 -15 0z"/>
<path d="M5020 6879 c0 -5 9 -9 20 -9 11 0 20 2 20 4 0 2 -9 6 -20 9 -11 3
-20 1 -20 -4z"/>
<path d="M998 6873 c7 -3 16 -2 19 1 4 3 -2 6 -13 5 -11 0 -14 -3 -6 -6z"/>
<path d="M2588 6873 c6 -2 18 -2 25 0 6 3 1 5 -13 5 -14 0 -19 -2 -12 -5z"/>
<path d="M3928 6873 c7 -3 16 -2 19 1 4 3 -2 6 -13 5 -11 0 -14 -3 -6 -6z"/>
<path d="M4058 6873 c7 -3 16 -2 19 1 4 3 -2 6 -13 5 -11 0 -14 -3 -6 -6z"/>
<path d="M357 6003 l2 -558 701 -3 700 -2 0 560 0 560 -702 0 -703 0 2 -557z
m1383 477 l0 -60 -680 0 -680 0 0 60 0 60 680 0 680 0 0 -60z m0 -547 l0 -468
-680 3 -680 2 0 465 0 465 680 0 680 0 0 -467z"/>
<path d="M411 6483 c-1 -23 3 -33 14 -33 8 0 15 5 15 10 0 6 -4 10 -9 10 -5 0
-12 10 -14 23 -3 16 -5 13 -6 -10z"/>
<path d="M446 6494 c-12 -32 42 -62 60 -33 4 8 9 8 17 0 14 -14 47 -14 47 -1
0 6 8 5 20 -2 16 -10 23 -10 36 4 30 29 11 47 -50 47 -35 0 -56 -5 -56 -12 0
-8 -4 -7 -12 1 -17 17 -55 15 -62 -4z m44 -8 c0 -8 -4 -17 -9 -21 -12 -7 -24
12 -16 25 9 15 25 12 25 -4z m80 8 c0 -3 -6 -12 -14 -20 -16 -15 -32 -2 -21
16 7 11 35 14 35 4z m50 -8 c0 -8 -4 -17 -9 -21 -12 -7 -24 12 -16 25 9 15 25
12 25 -4z"/>
<path d="M1160 6480 c0 -6 30 -10 70 -10 40 0 70 4 70 10 0 6 -30 10 -70 10
-40 0 -70 -4 -70 -10z"/>
<path d="M1360 6480 c0 -6 30 -10 70 -10 40 0 70 4 70 10 0 6 -30 10 -70 10
-40 0 -70 -4 -70 -10z"/>
<path d="M1560 6480 c0 -6 32 -10 76 -10 47 0 73 4 69 10 -3 6 -37 10 -76 10
-39 0 -69 -4 -69 -10z"/>
<path d="M2092 6003 l3 -558 703 -3 702 -2 0 560 0 560 -705 0 -705 0 2 -557z
m1183 2 l0 -535 -577 0 -578 0 0 535 0 535 578 0 577 0 0 -535z m205 1 l0
-535 -95 -3 -95 -3 0 538 0 537 95 0 95 0 0 -534z"/>
<path d="M3363 6463 c15 -2 37 -2 50 0 12 2 0 4 -28 4 -27 0 -38 -2 -22 -4z"/>
<path d="M3340 6440 c0 -5 21 -10 46 -10 27 0 43 4 39 10 -3 6 -24 10 -46 10
-21 0 -39 -4 -39 -10z"/>
<path d="M3340 6410 c0 -5 18 -10 39 -10 22 0 43 5 46 10 4 6 -12 10 -39 10
-25 0 -46 -4 -46 -10z"/>
<path d="M3380 5676 c0 -9 5 -16 10 -16 6 0 10 4 10 9 0 6 -4 13 -10 16 -5 3
-10 -1 -10 -9z"/>
<path d="M3380 5610 c0 -5 5 -10 10 -10 6 0 10 5 10 10 0 6 -4 10 -10 10 -5 0
-10 -4 -10 -10z"/>
<path d="M3380 5550 c0 -5 5 -10 10 -10 6 0 10 5 10 10 0 6 -4 10 -10 10 -5 0
-10 -4 -10 -10z"/>
<path d="M3850 6000 l0 -560 705 0 705 0 0 560 0 560 -705 0 -705 0 0 -560z
m1000 5 l0 -535 -487 0 -488 0 0 535 0 535 488 0 487 0 0 -535z m390 0 l0
-535 -190 0 -190 0 0 535 0 535 190 0 190 0 0 -535z"/>
<path d="M4998 6464 c-13 -12 -9 -62 5 -67 6 -2 19 -1 28 4 8 4 21 4 29 -1 19
-12 50 6 50 28 0 21 -18 42 -36 42 -19 0 -46 -31 -40 -46 3 -8 -1 -14 -9 -14
-8 0 -15 13 -17 31 -2 17 -6 27 -10 23z m92 -28 c0 -8 -5 -18 -11 -22 -14 -8
-33 11 -25 25 10 16 36 13 36 -3z"/>
<path d="M4987 6373 c-25 -24 12 -75 41 -56 12 7 24 7 39 0 28 -13 55 7 51 37
-4 26 -55 36 -64 12 -3 -9 -12 -16 -20 -16 -8 0 -14 -4 -14 -10 0 -5 -4 -10
-10 -10 -5 0 -10 10 -10 21 0 16 5 20 20 16 11 -3 20 -1 20 4 0 10 -43 12 -53
2z m113 -23 c0 -11 -7 -20 -15 -20 -8 0 -15 9 -15 20 0 11 7 20 15 20 8 0 15
-9 15 -20z"/>
<path d="M4980 6170 c0 -6 32 -10 75 -10 43 0 75 4 75 10 0 6 -32 10 -75 10
-43 0 -75 -4 -75 -10z"/>
<path d="M4980 6095 c0 -12 15 -15 75 -15 60 0 75 3 75 15 0 12 -15 15 -75 15
-60 0 -75 -3 -75 -15z"/>
<path d="M4980 6010 c0 -6 32 -10 75 -10 43 0 75 4 75 10 0 6 -32 10 -75 10
-43 0 -75 -4 -75 -10z"/>
<path d="M4970 5550 c0 -5 5 -10 10 -10 6 0 10 5 10 10 0 6 -4 10 -10 10 -5 0
-10 -4 -10 -10z"/>
<path d="M5035 5550 c-3 -5 1 -10 10 -10 9 0 13 5 10 10 -3 6 -8 10 -10 10 -2
0 -7 -4 -10 -10z"/>
<path d="M5100 5550 c0 -5 5 -10 10 -10 6 0 10 5 10 10 0 6 -4 10 -10 10 -5 0
-10 -4 -10 -10z"/>
<path d="M2933 5300 c0 -25 2 -35 4 -22 2 12 2 32 0 45 -2 12 -4 2 -4 -23z"/>
<path d="M4473 5300 c-1 -25 1 -37 4 -27 5 18 5 18 25 0 21 -18 21 -18 9 5 -6
12 -16 22 -21 22 -5 0 -11 10 -13 23 -2 12 -4 2 -4 -23z"/>
<path d="M4836 5312 c-18 -35 -21 -56 -6 -47 6 3 10 15 10 26 0 29 16 23 30
-11 7 -17 14 -29 17 -27 2 2 -5 23 -16 47 l-19 43 -16 -31z"/>
<path d="M1201 5322 c0 -8 -6 -10 -13 -6 -10 6 -10 4 0 -7 18 -19 15 -47 -5
-52 -17 -4 -17 -5 0 -6 21 -1 30 18 24 56 -2 15 -5 22 -6 15z"/>
<path d="M3911 5314 c0 -11 3 -14 6 -6 3 7 2 16 -1 19 -3 4 -6 -2 -5 -13z"/>
<path d="M4200 5290 c0 -22 3 -40 8 -40 4 0 6 18 4 40 -2 22 -6 40 -8 40 -2 0
-4 -18 -4 -40z"/>
<path d="M4911 5314 c0 -11 3 -14 6 -6 3 7 2 16 -1 19 -3 4 -6 -2 -5 -13z"/>
<path d="M1090 5305 c-6 -8 -10 -20 -7 -27 4 -8 6 -7 6 4 1 9 9 22 19 27 9 6
12 11 6 11 -6 0 -17 -7 -24 -15z"/>
<path d="M2370 5296 c0 -14 4 -27 8 -30 5 -3 6 8 4 25 -5 35 -12 38 -12 5z"/>
<path d="M2660 5304 c0 -8 5 -12 10 -9 6 4 8 11 5 16 -9 14 -15 11 -15 -7z"/>
<path d="M3190 5310 c0 -5 5 -10 10 -10 6 0 10 5 10 10 0 6 -4 10 -10 10 -5 0
-10 -4 -10 -10z"/>
<path d="M4730 5310 c0 -5 5 -10 11 -10 5 0 7 5 4 10 -3 6 -8 10 -11 10 -2 0
-4 -4 -4 -10z"/>
<path d="M1043 5298 c-21 -27 -26 -41 -13 -33 7 4 15 2 20 -5 4 -6 7 2 6 19
-1 36 -1 35 -13 19z"/>
<path d="M2460 5285 c0 -14 2 -25 4 -25 2 0 6 11 8 25 3 14 1 25 -3 25 -5 0
-9 -11 -9 -25z"/>
<path d="M2523 5285 c1 -20 8 -30 20 -31 12 -1 13 -1 2 3 -22 7 -18 23 5 23
13 0 20 6 19 18 0 10 -3 12 -6 5 -2 -7 -11 -13 -18 -13 -7 0 -16 6 -19 13 -3
6 -4 -1 -3 -18z"/>
<path d="M2624 5302 c3 -5 0 -13 -6 -15 -9 -4 -10 -6 -1 -6 17 -1 25 16 12 25
-7 4 -9 3 -5 -4z"/>
<path d="M2712 5285 c0 -16 2 -22 5 -12 2 9 2 23 0 30 -3 6 -5 -1 -5 -18z"/>
<path d="M2785 5299 c-4 -6 -5 -12 -2 -15 2 -3 7 2 10 11 7 17 1 20 -8 4z"/>
<path d="M2963 5302 c-8 -5 -8 -12 2 -25 12 -17 13 -16 11 7 0 15 -1 26 -1 26
0 0 -5 -4 -12 -8z"/>
<path d="M3012 5285 c0 -16 2 -22 5 -12 2 9 2 23 0 30 -3 6 -5 -1 -5 -18z"/>
<path d="M3053 5275 c0 -22 2 -33 5 -25 3 8 12 21 21 28 14 11 14 11 -1 6 -11
-3 -18 1 -20 13 -3 10 -5 0 -5 -22z"/>
<path d="M3120 5285 c0 -14 2 -25 4 -25 2 0 6 11 8 25 3 14 1 25 -3 25 -5 0
-9 -11 -9 -25z"/>
<path d="M4002 5285 c0 -16 2 -22 5 -12 2 9 2 23 0 30 -3 6 -5 -1 -5 -18z"/>
<path d="M4315 5289 c-6 -17 -9 -19 -16 -8 -5 8 -9 10 -9 4 0 -5 4 -17 10 -25
7 -11 11 -9 20 14 6 16 9 31 6 33 -2 3 -7 -5 -11 -18z"/>
<path d="M4552 5285 c0 -16 2 -22 5 -12 2 9 2 23 0 30 -3 6 -5 -1 -5 -18z"/>
<path d="M4621 5294 c0 -11 3 -14 6 -6 3 7 2 16 -1 19 -3 4 -6 -2 -5 -13z"/>
<path d="M4696 5297 c3 -10 9 -15 12 -12 3 3 0 11 -7 18 -10 9 -11 8 -5 -6z"/>
<path d="M4967 5289 c-10 -11 -14 -25 -11 -31 5 -7 11 -2 17 13 l9 24 9 -22
c11 -30 15 -29 28 7 6 18 6 28 1 25 -6 -4 -10 -14 -10 -23 -1 -13 -4 -12 -13
5 l-13 23 -17 -21z"/>
<path d="M5121 5279 c15 -43 15 -44 21 -22 3 10 -4 27 -14 37 -18 19 -18 19
-7 -15z"/>
<path d="M2750 5294 c0 -6 7 -19 15 -30 8 -10 14 -14 14 -9 0 6 -6 19 -14 29
-8 11 -15 15 -15 10z"/>
<path d="M3162 5280 c0 -14 2 -19 5 -12 2 6 2 18 0 25 -3 6 -5 1 -5 -13z"/>
<path d="M4351 5284 c0 -11 3 -14 6 -6 3 7 2 16 -1 19 -3 4 -6 -2 -5 -13z"/>
<path d="M5080 5295 c-1 -5 -2 -14 -1 -19 1 -5 -4 -13 -11 -17 -10 -7 -10 -9
0 -9 15 0 26 24 19 42 -3 7 -6 9 -7 3z"/>
<path d="M5195 5285 c17 -14 18 -17 5 -26 -12 -9 -12 -10 -1 -7 24 7 24 26 -1
38 -22 11 -22 11 -3 -5z"/>
<path d="M1108 5283 c7 -3 16 -2 19 1 4 3 -2 6 -13 5 -11 0 -14 -3 -6 -6z"/>
<path d="M2814 5274 c3 -9 6 -18 6 -20 0 -2 10 -4 23 -3 21 0 21 1 -3 11 l-25
11 25 7 c25 8 25 8 -4 9 -22 1 -27 -3 -22 -15z"/>
<path d="M4063 5283 c9 -2 23 -2 30 0 6 3 -1 5 -18 5 -16 0 -22 -2 -12 -5z"/>
<path d="M4154 5271 c0 -11 4 -17 8 -15 4 3 8 12 8 20 0 8 -4 14 -8 14 -4 0
-8 -9 -8 -19z"/>
<path d="M4251 5274 c0 -11 3 -14 6 -6 3 7 2 16 -1 19 -3 4 -6 -2 -5 -13z"/>
<path d="M4378 5283 c7 -3 16 -2 19 1 4 3 -2 6 -13 5 -11 0 -14 -3 -6 -6z"/>
<path d="M4593 5269 c-2 -23 3 -25 10 -4 4 8 3 16 -1 19 -4 3 -9 -4 -9 -15z"/>
<path d="M4911 5274 c0 -11 3 -14 6 -6 3 7 2 16 -1 19 -3 4 -6 -2 -5 -13z"/>
<path d="M2590 5265 c0 -8 4 -15 10 -15 5 0 7 7 4 15 -4 8 -8 15 -10 15 -2 0
-4 -7 -4 -15z"/>
<path d="M1098 5253 c7 -3 16 -2 19 1 4 3 -2 6 -13 5 -11 0 -14 -3 -6 -6z"/>
<path d="M2408 5253 c7 -3 16 -2 19 1 4 3 -2 6 -13 5 -11 0 -14 -3 -6 -6z"/>
<path d="M3078 5253 c6 -2 9 -10 6 -15 -4 -7 -2 -8 5 -4 13 9 5 26 -12 25 -9
0 -8 -2 1 -6z"/>
<path d="M3928 5253 c6 -2 18 -2 25 0 6 3 1 5 -13 5 -14 0 -19 -2 -12 -5z"/>
<path d="M4368 5253 c7 -3 16 -2 19 1 4 3 -2 6 -13 5 -11 0 -14 -3 -6 -6z"/>
<path d="M4615 5250 c3 -5 8 -10 11 -10 2 0 4 5 4 10 0 6 -5 10 -11 10 -5 0
-7 -4 -4 -10z"/>
<path d="M4540 5176 c0 -2 7 -7 16 -10 8 -3 12 -2 9 4 -6 10 -25 14 -25 6z"/>
<path d="M4601 5171 c-10 -7 -7 -9 12 -8 14 1 23 5 20 10 -6 9 -15 9 -32 -2z"/>
<path d="M357 4383 l3 -558 700 -3 700 -2 0 560 0 560 -702 0 -703 0 2 -557z
m1383 2 l0 -535 -680 0 -680 0 0 535 0 535 680 0 680 0 0 -535z"/>
<path d="M450 4816 c0 -39 9 -44 65 -39 22 2 48 3 58 3 135 -2 135 -2 142 21
13 40 -44 66 -67 30 -7 -11 -18 -17 -27 -13 -11 4 -13 1 -8 -12 5 -12 3 -16
-5 -14 -22 8 -14 32 12 39 21 5 22 7 8 13 -9 4 -26 2 -38 -4 -16 -9 -25 -8
-36 1 -22 18 -68 -5 -61 -31 3 -13 0 -20 -9 -20 -9 0 -14 11 -14 30 0 17 -4
30 -10 30 -5 0 -10 -15 -10 -34z m96 3 c10 -17 -13 -36 -27 -22 -12 12 -4 33
11 33 5 0 12 -5 16 -11z m148 3 c2 -4 1 -14 -4 -22 -7 -11 -12 -12 -21 -3 -6
6 -8 16 -5 22 8 13 23 14 30 3z"/>
<path d="M1603 4843 c15 -2 37 -2 50 0 12 2 0 4 -28 4 -27 0 -38 -2 -22 -4z"/>
<path d="M1585 4820 c-4 -6 12 -10 39 -10 25 0 46 5 46 10 0 6 -18 10 -39 10
-22 0 -43 -4 -46 -10z"/>
<path d="M1585 4790 c3 -5 24 -10 46 -10 21 0 39 5 39 10 0 6 -21 10 -46 10
-27 0 -43 -4 -39 -10z"/>
<path d="M2102 4383 l3 -558 703 -3 702 -2 0 560 0 560 -705 0 -705 0 2 -557z
m1388 2 l0 -535 -680 0 -680 0 0 535 0 535 680 0 680 0 0 -535z"/>
<path d="M2200 4815 c0 -35 22 -57 38 -40 4 4 1 10 -5 12 -7 3 -13 18 -13 34
0 16 -4 29 -10 29 -5 0 -10 -16 -10 -35z"/>
<path d="M2252 4838 c-32 -32 10 -78 51 -56 11 5 24 5 37 -2 13 -7 26 -7 38
-1 11 6 24 6 36 -1 16 -9 23 -7 37 11 10 12 16 28 13 36 -8 19 -43 30 -56 17
-7 -7 -16 -7 -29 1 -15 9 -24 9 -40 -1 -15 -10 -24 -11 -32 -3 -14 14 -40 14
-55 -1z m44 -19 c10 -17 -13 -36 -27 -22 -12 12 -4 33 11 33 5 0 12 -5 16 -11z
m94 0 c0 -6 -7 -9 -15 -5 -10 3 -15 -1 -15 -11 0 -13 -3 -14 -11 -6 -6 6 -8
16 -5 22 9 14 46 14 46 0z m48 -6 c-4 -22 -22 -20 -26 1 -2 10 3 16 13 16 10
0 15 -7 13 -17z"/>
<path d="M2918 4822 c-27 -2 -48 -7 -48 -13 0 -12 137 -12 145 1 3 6 3 10 -2
11 -34 3 -54 4 -95 1z"/>
<path d="M3082 4824 c-6 -3 -10 -10 -6 -15 7 -12 131 -12 139 1 4 6 -11 10
-37 10 -24 0 -52 2 -63 5 -11 2 -26 2 -33 -1z"/>
<path d="M3333 4823 c-78 -6 -64 -23 17 -23 66 0 90 10 54 24 -9 3 -16 5 -17
4 -1 -1 -26 -3 -54 -5z"/>
<path d="M3850 4380 l0 -560 703 2 702 3 3 558 2 557 -705 0 -705 0 0 -560z
m1389 435 l-1 -105 -684 0 -684 0 0 105 0 105 685 0 686 0 -2 -105z m1 -545
l0 -420 -682 0 -683 0 0 420 0 420 682 0 682 0 1 -420z"/>
<path d="M3940 4815 c0 -35 22 -57 38 -40 4 4 1 10 -5 12 -7 3 -13 18 -13 34
0 16 -4 29 -10 29 -5 0 -10 -16 -10 -35z"/>
<path d="M3998 4839 c-22 -12 -23 -33 -3 -52 15 -16 55 -12 55 4 0 5 11 2 25
-7 20 -13 28 -14 40 -4 10 8 19 9 32 2 25 -14 53 3 53 33 0 35 -38 44 -62 16
-10 -13 -22 -19 -29 -15 -9 5 -10 2 -6 -10 5 -12 3 -16 -5 -14 -7 3 -14 12
-16 21 -2 12 3 17 19 17 18 0 20 3 11 12 -10 10 -17 10 -32 0 -15 -9 -26 -10
-40 -2 -22 12 -21 12 -42 -1z m38 -20 c10 -17 -13 -36 -27 -22 -12 12 -4 33
11 33 5 0 12 -5 16 -11z m147 4 c9 -9 -13 -34 -24 -27 -14 8 -11 34 4 34 8 0
17 -3 20 -7z"/>
<path d="M5103 4843 c15 -2 37 -2 50 0 12 2 0 4 -28 4 -27 0 -38 -2 -22 -4z"/>
<path d="M5080 4820 c0 -5 21 -10 46 -10 27 0 43 4 39 10 -3 6 -24 10 -46 10
-21 0 -39 -4 -39 -10z"/>
<path d="M5080 4790 c0 -5 18 -10 39 -10 22 0 43 5 46 10 4 6 -12 10 -39 10
-25 0 -46 -4 -46 -10z"/>
<path d="M2470 3680 c0 -22 2 -40 4 -40 2 0 6 18 8 40 2 22 0 40 -4 40 -5 0
-8 -18 -8 -40z"/>
<path d="M882 3675 c0 -22 2 -32 5 -23 2 9 12 19 21 21 16 4 16 5 0 6 -9 0
-19 9 -21 19 -3 9 -5 -1 -5 -23z"/>
<path d="M3132 3680 c0 -19 2 -27 5 -17 2 9 2 25 0 35 -3 9 -5 1 -5 -18z"/>
<path d="M4371 3694 c0 -11 3 -14 6 -6 3 7 2 16 -1 19 -3 4 -6 -2 -5 -13z"/>
<path d="M4663 3675 c0 -22 2 -30 4 -17 2 12 2 30 0 40 -3 9 -5 -1 -4 -23z"/>
<path d="M965 3689 c-4 -6 -5 -12 -2 -15 2 -3 7 2 10 11 7 17 1 20 -8 4z"/>
<path d="M1073 3693 c-7 -2 -13 -20 -13 -39 0 -27 3 -32 17 -27 11 4 12 8 5
11 -15 5 -15 35 0 50 13 13 11 14 -9 5z"/>
<path d="M2586 3692 c-2 -4 4 -8 14 -8 10 0 16 4 14 8 -3 4 -9 8 -14 8 -5 0
-11 -4 -14 -8z"/>
<path d="M2676 3690 c7 -8 14 -24 17 -35 4 -19 5 -19 6 1 0 12 -7 28 -16 35
-16 12 -17 12 -7 -1z"/>
<path d="M2886 3668 c5 -42 14 -49 14 -10 0 17 -4 33 -9 36 -4 3 -7 -9 -5 -26z"/>
<path d="M2994 3688 c-4 -7 -3 -8 5 -4 6 4 20 2 29 -6 15 -12 16 -11 3 5 -16
20 -27 22 -37 5z"/>
<path d="M3086 3687 c3 -10 9 -15 12 -12 3 3 0 11 -7 18 -10 9 -11 8 -5 -6z"/>
<path d="M4507 3679 c6 -23 9 -24 16 -5 3 8 0 17 -7 19 -10 4 -12 -1 -9 -14z"/>
<path d="M4549 3668 c4 -28 6 -29 9 -9 2 13 0 27 -5 32 -6 6 -7 -3 -4 -23z"/>
<path d="M4706 3692 c-2 -4 4 -8 14 -8 10 0 16 4 14 8 -3 4 -9 8 -14 8 -5 0
-11 -4 -14 -8z"/>
<path d="M990 3679 c0 -5 5 -7 10 -4 6 3 10 8 10 11 0 2 -4 4 -10 4 -5 0 -10
-5 -10 -11z"/>
<path d="M1191 3689 c-1 -4 5 -21 12 -37 l13 -31 12 32 c10 27 9 29 -2 15 -12
-17 -14 -16 -24 5 -6 12 -11 19 -11 16z"/>
<path d="M2520 3679 c0 -5 5 -7 10 -4 6 3 10 8 10 11 0 2 -4 4 -10 4 -5 0 -10
-5 -10 -11z"/>
<path d="M2780 3660 c0 -26 3 -30 28 -29 25 2 25 2 3 6 -18 4 -22 10 -18 29 2
13 0 24 -4 24 -5 0 -9 -13 -9 -30z"/>
<path d="M2827 3669 c4 -13 8 -18 11 -10 2 7 -1 18 -6 23 -8 8 -9 4 -5 -13z"/>
<path d="M2932 3665 c0 -16 2 -22 5 -12 2 9 2 23 0 30 -3 6 -5 -1 -5 -18z"/>
<path d="M4442 3660 c0 -19 2 -27 5 -17 2 9 2 25 0 35 -3 9 -5 1 -5 -18z"/>
<path d="M2720 3676 c0 -3 9 -10 20 -16 11 -6 20 -8 20 -6 0 3 -9 10 -20 16
-11 6 -20 8 -20 6z"/>
<path d="M4395 3670 c3 -5 8 -10 11 -10 2 0 4 5 4 10 0 6 -5 10 -11 10 -5 0
-7 -4 -4 -10z"/>
<path d="M2988 3663 c6 -2 18 -2 25 0 6 3 1 5 -13 5 -14 0 -19 -2 -12 -5z"/>
<path d="M4690 3665 c0 -5 5 -17 10 -25 5 -8 10 -10 10 -5 0 6 -5 17 -10 25
-5 8 -10 11 -10 5z"/>
<path d="M4718 3663 c7 -3 16 -2 19 1 4 3 -2 6 -13 5 -11 0 -14 -3 -6 -6z"/>
<path d="M2580 3648 c0 -11 8 -18 20 -18 11 0 20 5 20 11 0 5 -5 7 -11 3 -6
-3 -15 0 -20 7 -7 11 -9 10 -9 -3z"/>
<path d="M2860 3651 c0 -6 4 -13 10 -16 6 -3 7 1 4 9 -7 18 -14 21 -14 7z"/>
<path d="M2980 3646 c0 -2 7 -7 16 -10 8 -3 12 -2 9 4 -6 10 -25 14 -25 6z"/>
<path d="M4385 3640 c-16 -7 -17 -9 -3 -9 9 -1 20 4 23 9 7 11 7 11 -20 0z"/>
<path d="M356 3298 c1 -13 3 -265 3 -560 l1 -538 700 0 700 0 0 560 0 560
-703 0 -704 0 3 -22z m1384 -533 l0 -535 -680 0 -680 0 0 535 0 535 680 0 680
0 0 -535z"/>
<path d="M1610 3215 c10 -12 10 -18 0 -30 -14 -17 0 -21 17 -4 8 8 13 8 17 0
4 -6 12 -11 18 -11 7 0 6 6 -2 15 -10 12 -10 18 0 30 14 17 0 21 -17 4 -8 -8
-13 -8 -17 0 -4 6 -12 11 -18 11 -7 0 -6 -6 2 -15z"/>
<path d="M850 2905 c0 -13 30 -15 210 -15 180 0 210 2 210 15 0 13 -30 15
-210 15 -180 0 -210 -2 -210 -15z"/>
<path d="M850 2760 c0 -20 3 -20 208 -18 176 3 207 5 207 18 0 13 -31 15 -207
18 -205 3 -208 3 -208 -18z"/>
<path d="M850 2615 c0 -13 29 -15 211 -15 164 0 210 3 207 13 -4 9 -57 13
-211 15 -180 2 -207 0 -207 -13z"/>
<path d="M2102 2763 l3 -558 703 -3 702 -2 0 560 0 560 -705 0 -705 0 2 -557z
m1388 107 l0 -430 -680 0 -680 0 0 430 0 430 680 0 680 0 0 -430z m0 -545 l0
-95 -680 0 -680 0 0 95 0 95 680 0 680 0 0 -95z"/>
<path d="M2198 2364 c-5 -4 -8 -20 -8 -35 0 -29 25 -46 45 -29 7 6 15 6 22 -1
8 -8 17 -8 32 0 15 9 27 9 41 1 13 -7 26 -7 38 -1 10 5 24 6 31 2 17 -11 48
-3 55 15 12 33 -21 62 -52 45 -10 -6 -23 -5 -34 2 -14 9 -23 9 -38 -1 -15 -9
-26 -10 -40 -2 -31 17 -71 -13 -54 -41 3 -5 -2 -9 -10 -9 -9 0 -16 12 -18 31
-2 17 -6 27 -10 23z m88 -25 c10 -17 -13 -36 -27 -22 -12 12 -4 33 11 33 5 0
12 -5 16 -11z m94 1 c0 -5 -7 -10 -16 -10 -8 0 -12 -4 -9 -10 3 -5 2 -10 -4
-10 -14 0 -23 18 -16 30 3 6 15 10 26 10 10 0 19 -4 19 -10z m55 -10 c0 -22
-29 -18 -33 3 -3 14 1 18 15 15 10 -2 18 -10 18 -18z"/>
<path d="M2875 2330 c-3 -5 0 -13 8 -16 23 -8 127 0 130 11 3 14 -129 19 -138
5z"/>
<path d="M3075 2330 c-3 -5 0 -13 8 -16 23 -8 127 0 130 11 3 14 -129 19 -138
5z"/>
<path d="M3280 2325 c0 -13 11 -15 65 -13 87 4 88 22 3 26 -57 2 -68 0 -68
-13z"/>
<path d="M3850 2760 l0 -560 703 2 702 3 3 558 2 557 -705 0 -705 0 0 -560z
m1390 110 l0 -430 -682 0 -683 0 0 430 0 430 683 0 682 0 0 -430z m-1 -545
l-1 -95 -683 0 -683 0 -1 95 -2 95 686 0 686 0 -2 -95z"/>
<path d="M4429 2370 c-6 -34 -2 -71 9 -75 21 -8 32 -6 32 5 0 6 -7 10 -16 10
-10 0 -13 6 -10 18 3 9 1 24 -4 32 -5 8 -10 13 -11 10z"/>
<path d="M4482 2358 c-33 -33 7 -80 45 -53 18 13 22 13 33 0 16 -19 25 -19 44
1 9 8 16 11 16 6 0 -14 35 -21 54 -10 22 12 20 45 -3 58 -23 12 -47 5 -55 -16
-3 -9 -10 -12 -16 -9 -5 3 -10 -1 -10 -10 0 -9 -6 -15 -12 -12 -22 7 -14 32
10 35 12 2 20 8 17 13 -9 14 -32 11 -48 -6 -13 -13 -16 -13 -27 0 -15 18 -32
19 -48 3z m38 -28 c0 -11 -7 -20 -15 -20 -8 0 -15 9 -15 20 0 11 7 20 15 20 8
0 15 -9 15 -20z m150 6 c0 -8 -5 -18 -11 -22 -14 -8 -33 11 -25 25 10 16 36
13 36 -3z"/>
<path d="M3990 2325 c0 -12 14 -15 70 -15 56 0 70 3 70 15 0 12 -14 15 -70 15
-56 0 -70 -3 -70 -15z"/>
<path d="M4197 2333 c-18 -17 -1 -23 63 -23 56 0 70 3 70 15 0 12 -14 15 -63
15 -35 0 -67 -3 -70 -7z"/>
<path d="M4780 2325 c0 -12 14 -15 71 -15 52 0 70 3 67 13 -3 7 -29 13 -71 15
-55 2 -67 0 -67 -13z"/>
<path d="M4980 2325 c0 -12 14 -15 70 -15 56 0 70 3 70 15 0 12 -14 15 -70 15
-56 0 -70 -3 -70 -15z"/>
<path d="M2923 2060 c0 -25 2 -35 4 -22 2 12 2 32 0 45 -2 12 -4 2 -4 -23z"/>
<path d="M3032 2075 c0 -16 2 -22 5 -12 2 9 2 23 0 30 -3 6 -5 -1 -5 -18z"/>
<path d="M4041 2084 c0 -11 3 -14 6 -6 3 7 2 16 -1 19 -3 4 -6 -2 -5 -13z"/>
<path d="M2603 2055 c0 -22 2 -30 4 -17 2 12 2 30 0 40 -3 9 -5 -1 -4 -23z"/>
<path d="M4191 2074 c0 -11 3 -14 6 -6 3 7 2 16 -1 19 -3 4 -6 -2 -5 -13z"/>
<path d="M4621 2074 c0 -11 3 -14 6 -6 3 7 2 16 -1 19 -3 4 -6 -2 -5 -13z"/>
<path d="M1015 2070 c-3 -6 1 -7 9 -4 18 7 21 14 7 14 -6 0 -13 -4 -16 -10z"/>
<path d="M2485 2071 c-6 -5 -19 -11 -30 -14 -19 -4 -19 -5 1 -6 12 0 27 6 34
14 14 16 10 20 -5 6z"/>
<path d="M2642 2068 c-14 -14 -16 -35 -4 -42 5 -3 8 5 8 17 -1 15 5 22 16 21
10 -1 15 2 12 7 -7 12 -18 11 -32 -3z"/>
<path d="M3099 2068 c12 -16 11 -18 -10 -19 -19 -1 -20 -2 -5 -6 27 -7 40 11
19 28 -16 13 -17 12 -4 -3z"/>
<path d="M4127 2073 c-3 -5 6 -9 20 -10 19 -1 22 1 12 8 -17 11 -26 11 -32 2z"/>
<path d="M4250 2076 c0 -2 8 -10 18 -17 15 -13 16 -12 3 4 -13 16 -21 21 -21
13z"/>
<path d="M4910 2070 c-8 -5 -12 -12 -9 -15 4 -3 12 1 19 10 14 17 11 19 -10 5z"/>
<path d="M5050 2070 c0 -5 5 -10 10 -10 6 0 10 5 10 10 0 6 -4 10 -10 10 -5 0
-10 -4 -10 -10z"/>
<path d="M936 2057 c3 -10 9 -15 12 -12 3 3 0 11 -7 18 -10 9 -11 8 -5 -6z"/>
<path d="M966 2045 c-9 -14 -13 -25 -8 -25 5 0 14 11 20 25 6 14 10 25 8 25
-2 0 -11 -11 -20 -25z"/>
<path d="M2711 2060 c-1 -23 15 -45 23 -31 4 6 3 11 -3 11 -5 0 -12 8 -14 18
-3 12 -5 13 -6 2z"/>
<path d="M2770 2049 c-7 -11 -10 -23 -7 -25 2 -2 9 7 15 21 14 30 7 33 -8 4z"/>
<path d="M3142 2045 c0 -16 2 -22 5 -12 2 9 2 23 0 30 -3 6 -5 -1 -5 -18z"/>
<path d="M4301 2040 c10 -27 29 -33 29 -9 0 6 -4 7 -10 4 -5 -3 -10 1 -10 9 0
8 -4 17 -10 21 -5 3 -5 -7 1 -25z"/>
<path d="M4330 2064 c1 -15 29 -48 36 -41 3 3 -3 16 -15 28 -12 13 -21 19 -21
13z"/>
<path d="M4455 2058 c11 -6 23 -16 27 -22 5 -8 8 -7 8 1 0 7 -9 17 -19 23 -27
14 -41 12 -16 -2z"/>
<path d="M4730 2045 c0 -14 2 -25 4 -25 2 0 6 11 8 25 3 14 1 25 -3 25 -5 0
-9 -11 -9 -25z"/>
<path d="M4845 2058 c11 -6 23 -16 27 -22 5 -8 8 -7 8 1 0 7 -9 17 -19 23 -27
14 -41 12 -16 -2z"/>
<path d="M1246 2035 c8 -37 10 -39 17 -23 2 8 -2 23 -10 33 -13 19 -14 18 -7
-10z"/>
<path d="M2876 2047 c3 -10 9 -15 12 -12 3 3 0 11 -7 18 -10 9 -11 8 -5 -6z"/>
<path d="M4040 2036 c0 -14 4 -26 9 -26 5 0 7 9 4 20 -6 21 21 30 30 10 3 -6
4 -5 3 2 -1 7 -12 14 -24 16 -18 3 -22 -2 -22 -22z"/>
<path d="M4552 2040 c0 -14 2 -19 5 -12 2 6 2 18 0 25 -3 6 -5 1 -5 -13z"/>
<path d="M830 2041 c0 -6 4 -13 10 -16 6 -3 7 1 4 9 -7 18 -14 21 -14 7z"/>
<path d="M1013 2043 c9 -2 23 -2 30 0 6 3 -1 5 -18 5 -16 0 -22 -2 -12 -5z"/>
<path d="M2520 2041 c0 -6 5 -13 12 -17 6 -4 8 -3 4 4 -3 6 3 12 16 15 20 4
19 4 -4 6 -16 0 -28 -3 -28 -8z"/>
<path d="M2671 2027 c-13 -21 -12 -21 5 -5 10 10 16 20 13 22 -3 3 -11 -5 -18
-17z"/>
<path d="M4110 2042 c0 -12 22 -32 35 -32 5 0 1 6 -10 12 -19 12 -18 13 10 19
l30 7 -32 1 c-18 0 -33 -3 -33 -7z"/>
<path d="M4191 2034 c0 -11 3 -14 6 -6 3 7 2 16 -1 19 -3 4 -6 -2 -5 -13z"/>
<path d="M4220 2041 c0 -10 29 -36 34 -30 1 2 -6 12 -16 22 -10 9 -18 13 -18
8z"/>
<path d="M4580 2045 c0 -5 5 -17 10 -25 5 -8 10 -10 10 -5 0 6 -5 17 -10 25
-5 8 -10 11 -10 5z"/>
<path d="M4617 2031 c-4 -17 -3 -21 5 -13 5 5 8 16 6 23 -3 8 -7 3 -11 -10z"/>
<path d="M4673 2043 c9 -2 23 -2 30 0 6 3 -1 5 -18 5 -16 0 -22 -2 -12 -5z"/>
<path d="M1170 2031 c0 -6 4 -13 10 -16 6 -3 7 1 4 9 -7 18 -14 21 -14 7z"/>
<path d="M3030 2032 c0 -6 -8 -13 -17 -15 -16 -4 -16 -5 -1 -6 18 -1 34 16 24
26 -3 4 -6 1 -6 -5z"/>
<path d="M4902 2020 c0 -14 2 -19 5 -12 2 6 2 18 0 25 -3 6 -5 1 -5 -13z"/>
<path d="M2440 2020 c0 -5 5 -10 10 -10 6 0 10 5 10 10 0 6 -4 10 -10 10 -5 0
-10 -4 -10 -10z"/>
<path d="M3077 2019 c7 -7 15 -10 18 -7 3 3 -2 9 -12 12 -14 6 -15 5 -6 -5z"/>
<path d="M4930 2020 c-9 -6 -10 -10 -3 -10 6 0 15 5 18 10 8 12 4 12 -15 0z"/>
<path d="M5057 2019 c7 -7 15 -10 18 -7 3 3 -2 9 -12 12 -14 6 -15 5 -6 -5z"/>
<path d="M2858 2013 c7 -3 16 -2 19 1 4 3 -2 6 -13 5 -11 0 -14 -3 -6 -6z"/>
<path d="M4838 2013 c7 -3 16 -2 19 1 4 3 -2 6 -13 5 -11 0 -14 -3 -6 -6z"/>
<path d="M359 1693 c0 -5 0 -255 0 -558 l0 -550 701 -3 700 -2 0 560 0 560
-700 0 c-385 0 -700 -3 -701 -7z m1381 -123 l0 -110 -680 0 -680 0 0 110 0
110 680 0 680 0 0 -110z m0 -545 l0 -415 -680 0 -680 0 0 415 0 415 680 0 680
0 0 -415z"/>
<path d="M930 1577 c0 -34 23 -57 35 -37 4 7 13 7 24 0 13 -6 24 -5 37 4 15
12 22 12 40 -1 19 -12 24 -12 37 2 10 9 18 11 22 5 10 -16 55 -12 62 6 8 20
-8 48 -30 52 -9 2 -24 -6 -33 -17 -10 -11 -21 -18 -26 -15 -4 3 -8 -2 -8 -10
0 -9 -4 -16 -10 -16 -5 0 -10 9 -10 20 0 14 7 20 21 20 11 0 17 5 14 10 -9 15
-31 12 -49 -6 -9 -8 -16 -11 -16 -5 0 16 -40 24 -55 11 -8 -7 -15 -21 -15 -31
0 -11 -4 -19 -10 -19 -5 0 -10 11 -10 24 0 14 -4 28 -10 31 -6 4 -10 -8 -10
-28z m95 -7 c0 -22 -29 -18 -33 3 -3 14 1 18 15 15 10 -2 18 -10 18 -18z m143
3 c-5 -25 -28 -28 -28 -4 0 12 6 21 16 21 9 0 14 -7 12 -17z"/>
<path d="M495 1582 c-16 -16 2 -22 65 -22 55 0 70 3 70 15 0 11 -14 14 -65 13
-35 0 -67 -3 -70 -6z"/>
<path d="M694 1579 c-3 -5 1 -12 9 -15 23 -9 127 0 127 11 0 12 -128 16 -136
4z"/>
<path d="M1293 1584 c-32 -14 -7 -24 57 -24 49 0 70 4 70 13 0 12 -102 21
-127 11z"/>
<path d="M1486 1582 c-17 -16 1 -22 64 -22 53 0 70 3 70 14 0 10 -17 14 -64
14 -36 0 -67 -2 -70 -6z"/>
<path d="M2102 1143 l3 -558 703 -3 702 -2 0 560 0 560 -705 0 -705 0 2 -557z
m1388 2 l0 -535 -680 0 -680 0 0 535 0 535 680 0 680 0 0 -535z"/>
<path d="M2680 1577 c0 -33 24 -58 39 -41 3 4 0 9 -6 11 -7 3 -13 15 -13 28 0
13 -4 27 -10 30 -6 4 -10 -8 -10 -28z"/>
<path d="M2730 1595 c-6 -8 -10 -22 -8 -32 4 -20 45 -30 61 -14 6 6 17 5 32
-5 20 -13 25 -13 37 -1 12 12 17 12 32 1 38 -27 77 26 41 56 -17 14 -51 5 -59
-16 -3 -8 -10 -12 -16 -9 -5 3 -10 -1 -10 -9 0 -9 -4 -16 -10 -16 -5 0 -10 9
-10 20 0 14 7 20 21 20 11 0 17 5 14 10 -9 14 -31 12 -48 -5 -13 -13 -16 -13
-27 0 -16 19 -34 19 -50 0z m40 -26 c0 -24 -23 -21 -28 4 -2 10 3 17 12 17 10
0 16 -9 16 -21z m150 7 c0 -21 -21 -31 -30 -15 -5 7 -6 17 -4 21 9 14 34 9 34
-6z"/>
<path d="M2245 1582 c-16 -16 2 -22 65 -22 51 0 70 4 70 13 0 9 -19 13 -65 13
-35 1 -67 -1 -70 -4z"/>
<path d="M2446 1582 c-14 -14 11 -22 70 -22 48 0 64 3 64 14 0 10 -16 14 -64
14 -36 0 -67 -3 -70 -6z"/>
<path d="M3037 1583 c-18 -17 -1 -23 63 -23 69 0 92 12 48 24 -31 8 -103 8
-111 -1z"/>
<path d="M3248 1583 c-41 -11 -13 -23 53 -23 52 0 70 3 67 13 -5 12 -87 20
-120 10z"/>
<path d="M1083 440 c0 -25 2 -35 4 -22 2 12 2 32 0 45 -2 12 -4 2 -4 -23z"/>
<path d="M2160 463 c0 -7 15 -22 33 -34 23 -16 27 -17 12 -3 -11 10 -26 25
-32 33 -8 9 -13 10 -13 4z"/>
<path d="M2393 430 c0 -25 2 -35 4 -22 2 12 2 32 0 45 -2 12 -4 2 -4 -23z"/>
<path d="M2470 463 c0 -7 15 -22 33 -34 23 -16 27 -17 12 -3 -11 10 -26 25
-32 33 -8 9 -13 10 -13 4z"/>
<path d="M2240 449 c-12 -8 -10 -9 8 -4 17 5 24 1 31 -17 6 -14 10 -17 10 -7
1 14 -17 39 -28 39 -4 0 -13 -5 -21 -11z"/>
<path d="M2647 449 c7 -7 15 -10 18 -7 3 3 -2 9 -12 12 -14 6 -15 5 -6 -5z"/>
<path d="M2689 428 c4 -28 6 -29 9 -9 2 13 0 27 -5 32 -6 6 -7 -3 -4 -23z"/>
<path d="M2765 450 c-3 -5 -1 -10 4 -10 6 0 11 5 11 10 0 6 -2 10 -4 10 -3 0
-8 -4 -11 -10z"/>
<path d="M2825 449 c-11 -16 -1 -19 13 -3 7 8 8 14 3 14 -5 0 -13 -5 -16 -11z"/>
<path d="M3109 448 c7 -10 11 -27 8 -38 -3 -11 -1 -18 4 -14 15 9 10 41 -8 55
-16 13 -17 12 -4 -3z"/>
<path d="M3286 452 c-2 -4 4 -8 14 -8 10 0 16 4 14 8 -3 4 -9 8 -14 8 -5 0
-11 -4 -14 -8z"/>
<path d="M3420 438 c0 -19 2 -20 10 -8 13 19 13 30 0 30 -5 0 -10 -10 -10 -22z"/>
<path d="M945 438 c11 -6 23 -16 27 -22 5 -8 8 -7 8 1 0 7 -9 17 -19 23 -27
14 -41 12 -16 -2z"/>
<path d="M2622 425 c0 -16 2 -22 5 -12 2 9 2 23 0 30 -3 6 -5 -1 -5 -18z"/>
<path d="M2940 425 c0 -14 2 -25 4 -25 2 0 6 11 8 25 3 14 1 25 -3 25 -5 0 -9
-11 -9 -25z"/>
<path d="M3220 425 c0 -14 2 -25 4 -25 2 0 6 11 8 25 3 14 1 25 -3 25 -5 0 -9
-11 -9 -25z"/>
<path d="M2565 430 l-30 -8 27 -1 c15 0 30 4 33 9 3 6 5 9 3 9 -2 -1 -16 -5
-33 -9z"/>
<path d="M3025 425 c17 -14 18 -17 5 -26 -12 -9 -12 -10 -1 -7 24 7 24 26 -1
38 -22 11 -22 11 -3 -5z"/>
<path d="M1041 407 c-13 -21 -12 -21 5 -5 10 10 16 20 13 22 -3 3 -11 -5 -18
-17z"/>
<path d="M2731 414 c0 -11 3 -14 6 -6 3 7 2 16 -1 19 -3 4 -6 -2 -5 -13z"/>
<path d="M2880 420 c-8 -5 -10 -10 -5 -10 6 0 17 5 25 10 8 5 11 10 5 10 -5 0
-17 -5 -25 -10z"/>
<path d="M3270 421 c0 -6 5 -13 12 -17 6 -4 8 -3 4 4 -3 6 3 12 16 15 20 4 19
4 -4 6 -16 0 -28 -3 -28 -8z"/>
<path d="M1160 400 c0 -5 5 -10 11 -10 5 0 7 5 4 10 -3 6 -8 10 -11 10 -2 0
-4 -4 -4 -10z"/>
<path d="M2233 395 c0 -7 6 -11 14 -8 7 3 13 6 13 8 0 2 -6 5 -13 8 -8 3 -14
-1 -14 -8z"/>
<path d="M2558 398 c5 -5 16 -8 23 -6 8 3 3 7 -10 11 -17 4 -21 3 -13 -5z"/>
<path d="M2770 400 c0 -5 5 -10 11 -10 5 0 7 5 4 10 -3 6 -8 10 -11 10 -2 0
-4 -4 -4 -10z"/>
<path d="M2890 400 c-13 -8 -12 -10 3 -10 9 0 17 5 17 10 0 12 -1 12 -20 0z"/>
<path d="M3170 400 c-13 -8 -13 -10 2 -10 9 0 20 5 23 10 8 13 -5 13 -25 0z"/>
<path d="M948 393 c7 -3 16 -2 19 1 4 3 -2 6 -13 5 -11 0 -14 -3 -6 -6z"/>
</g>
</svg>
