<?xml version="1.0" encoding="utf-8"?>
<!-- Generator: Adobe Illustrator 18.0.0, SVG Export Plug-In . SVG Version: 6.00 Build 0)  -->
<!DOCTYPE svg PUBLIC "-//W3C//DTD SVG 1.1//EN" "http://www.w3.org/Graphics/SVG/1.1/DTD/svg11.dtd">
<svg version="1.1" id="Layer_1" xmlns="http://www.w3.org/2000/svg" xmlns:xlink="http://www.w3.org/1999/xlink" x="0px" y="0px"
	 viewBox="0 0 350 350" enable-background="new 0 0 350 350" xml:space="preserve">
<path fill="#7BBB3B" d="M147.5,192.2c0,9.9-8,18-18,18c-9.9,0-18-8-18-18c0-9.9,8-18,18-18C139.5,174.2,147.5,182.3,147.5,192.2z
	 M220.5,174.2c-9.9,0-18,8-18,18c0,9.9,8,18,18,18c9.9,0,18-8,18-18C238.4,182.3,230.4,174.2,220.5,174.2z M350,182.2v34.2
	c0,17.1-13.9,31-31,31h-22.5c-22.3,62-79.3,99.4-121.4,99.4s-99.1-37.4-121.4-99.4H31c-17.1,0-31-13.9-31-31v-34.2
	c0-11.8,6.6-22.1,16.3-27.3c0.3-48.5,14.5-86.4,42.1-112.5C85.7,16.4,125,3.2,175,3.2s89.3,13.2,116.7,39.1
	c27.6,26.2,41.7,64,42.1,112.5C343.4,160.1,350,170.4,350,182.2z M284.3,192.3c0-8-0.4-15.5-1-22.8c-13.8-12.6-38.8-22.2-70.4-25.7
	c4.1,4.7,7.7,10.8,9.9,18.9c-19.3-15.2-57.3-11.6-86-45.7c-1.6-1.9-3.1-3.7-4.3-5.4c0,0,0,0,0-0.1l0,0c-5.1-6.9-6.8-11-6.9-6.5
	c-0.8,39.2-28.6,69.7-59.5,74c-0.2,4.3-0.4,8.7-0.4,13.2c0,16.6,2.7,31.7,7.3,45.3c17.3,20.9,45.9,26.8,71.3,28.4
	c4.7-7.5,15.2-12.7,27.5-12.7c16.7,0,30.2,9.6,30.2,21.4S188.4,296,171.8,296c-12.8,0-23.7-5.7-28.1-13.7c-17.7-1-37.1-4-54.5-12.2
	c24.4,35.9,62.2,54.9,85.8,54.9C212.1,325.1,284.3,278.2,284.3,192.3z M315,151.1c-2-84.6-50.3-129.3-140-129.3S36.9,66.5,35,151.1
	h11.9c4.4-28.5,13.6-52,27.6-70C96.9,52.4,130.7,37.8,175,37.8s78.1,14.6,100.5,43.3c14,18,23.2,41.5,27.6,70L315,151.1L315,151.1z"
	/>
</svg>
