<?xml version="1.0" encoding="utf-8"?>
<!-- Generator: Adobe Illustrator 18.0.0, SVG Export Plug-In . SVG Version: 6.00 Build 0)  -->
<!DOCTYPE svg PUBLIC "-//W3C//DTD SVG 1.1//EN" "http://www.w3.org/Graphics/SVG/1.1/DTD/svg11.dtd">
<svg version="1.1" id="Capa_1" xmlns="http://www.w3.org/2000/svg" xmlns:xlink="http://www.w3.org/1999/xlink" x="0px" y="0px"
	 viewBox="0 0 47 47" enable-background="new 0 0 47 47" xml:space="preserve">
<g>
	<g id="Layer_1_68_">
		<g>
			<path fill="#7BBB3B" d="M46.6,40.2l-6-5c-0.3-0.2-0.7-0.3-1.1-0.1C39.2,35.2,39,35.6,39,36v3H8V8h3c0,0,0,0,0,0c0.6,0,1-0.4,1-1
				c0-0.3-0.1-0.6-0.4-0.8L6.8,0.4c-0.4-0.5-1.2-0.5-1.5,0l-5,6C0,6.6-0.1,7.1,0.1,7.4C0.3,7.8,0.6,8,1,8h3v33c0,1.1,0.9,2,2,2h33v3
				c0,0.4,0.2,0.7,0.6,0.9C39.7,47,39.9,47,40,47c0.2,0,0.5-0.1,0.6-0.2l6-5c0.2-0.2,0.4-0.5,0.4-0.8C47,40.7,46.9,40.4,46.6,40.2z"
				/>
			<path fill="#7BBB3B" d="M11,31c0,1.7,1.3,3,3,3h20c1.7,0,3-1.3,3-3c0-1.7-1.3-3-3-3H14C12.3,28,11,29.3,11,31z"/>
			<path fill="#7BBB3B" d="M14,26h10c1.7,0,3-1.3,3-3s-1.3-3-3-3H14c-1.7,0-3,1.3-3,3S12.3,26,14,26z"/>
			<path fill="#7BBB3B" d="M11,15c0,1.7,1.3,3,3,3h15c1.7,0,3-1.3,3-3c0-1.7-1.3-3-3-3H14C12.3,12,11,13.3,11,15z"/>
		</g>
	</g>
</g>
</svg>
