<?xml version="1.0" encoding="utf-8"?>
<!-- Generator: Adobe Illustrator 18.1.1, SVG Export Plug-In . SVG Version: 6.00 Build 0)  -->
<svg version="1.1" id="Ebene_1" xmlns="http://www.w3.org/2000/svg" xmlns:xlink="http://www.w3.org/1999/xlink" x="0px" y="0px"
	 viewBox="0 0 100 100" enable-background="new 0 0 100 100" xml:space="preserve">
<g>
	<g id="Layer_5_98_">
		<g>
			<circle fill="#7CBA3D" cx="49.9" cy="73" r="4"/>
			<g>
				<path fill="#7CBA3D" d="M60.9,57c9.4,0,16.9-7.5,16.9-16.8s-7.6-16.8-16.9-16.8c-9.4,0-16.9,7.5-16.9,16.8S51.5,57,60.9,57z"/>
			</g>
			<path fill="#7CBA3D" d="M93.4,98.1L82.1,68.3c-0.3-0.8-2.7-5.8-7.2-5.8c-1.4,0-26.2,0-27,0c0,0-0.1,0-0.9,0c-5,0-6.9,5-7.2,5.7
				L28.5,98c-0.3,0.8-0.1,1.7,1.5,1.7c0,0,6.1,0,8.3,0c1.5,0,2-1.3,2-1.3L45.7,84c0,0,0.7-1.8,0.7,0.2c0,2.8,0,10.1,0.1,13.7
				c0,1.2,0.2,2,1.6,2c7.3,0,20.6,0,27.5,0c2,0,1.7-1,1.7-2.5c0-3.7,0-10.5,0-13.2c0-1.4,0.5-0.4,0.5-0.4l5.1,14.6
				c0,0,0.5,1.6,2.3,1.6c1.9,0,6.9,0,6.9,0C93.5,99.8,93.6,98.9,93.4,98.1z"/>
			<path fill="#7CBA3D" d="M23.4,86.3c-3.4,0-13.5,0-13.5,0c-1.2,0-2.1,1-2.1,2.1v9.3c0,1.2,1,2.1,2.1,2.1c0,0,6.7,0,8.9,0
				c1.8,0,2.4-2.2,2.4-2.2l3.6-9.7C24.8,87.9,25.2,86.3,23.4,86.3z"/>
			<path fill="#7CBA3D" d="M30.9,65.6c-5.2,0-20.8,0-20.8,0c-2.3,0-4.1-1.8-4.1-4.1V13.6c0-2.3,1.8-4.1,4.1-4.1h79.7
				c2.3,0,4.1,1.8,4.1,4.1v47.9c0,1.8-1.2,3.4-2.9,3.9c-1.7,0.6-1.2,1.7-1.2,1.7l5.1,13.4c0,0,0.4,1.2,1.8,1.1c1.9-0.3,3.3-2,3.3-4
				V6.9c0-2.3-1.8-4.1-4.1-4.1H4.1C1.8,2.8,0,4.7,0,6.9v29.5v14.2v27.1c0,2.3,1.8,4.1,4.1,4.1c0,0,15.3,0,20.5,0
				c1.9,0,2.5-1.5,2.5-1.5l5-13.2C32.1,66.9,32.6,65.6,30.9,65.6z"/>
		</g>
	</g>
</g>
</svg>
