<?xml version="1.0" encoding="utf-8"?>
<!-- Generator: Adobe Illustrator 18.1.1, SVG Export Plug-In . SVG Version: 6.00 Build 0)  -->
<svg version="1.1" id="Capa_1" xmlns="http://www.w3.org/2000/svg" xmlns:xlink="http://www.w3.org/1999/xlink" x="0px" y="0px"
	 viewBox="0 0 100 100" enable-background="new 0 0 100 100" xml:space="preserve">
<g>
	<polygon fill="#7BBB3B" points="54.1,61.7 50.3,57.9 46.6,61.7 47.8,62.9 47.8,66.5 52.9,66.5 52.9,62.9 	"/>
	<path fill="#7BBB3B" d="M67,37.8c0-9.4-7.6-17-17-17s-17,7.6-17,17s7.6,17,17,17S67,47.2,67,37.8z"/>
	<path fill="#7BBB3B" d="M90.1,96L90.1,96c0.2,0,0.2,0,0.3-0.1h0.1c0.1,0,0.1,0,0.2-0.1c0,0,0.1,0,0.1-0.1c0.1,0,0.1,0,0.2-0.1
		c0,0,0.1,0,0.1-0.1c0.1,0,0.1,0,0.2-0.1c0,0,0.1,0,0.1-0.1c0.1,0,0.1-0.1,0.2-0.1c0,0,0.1,0,0.1-0.1c0.1,0,0.1-0.1,0.2-0.1
		c0,0,0.1,0,0.1-0.1c0.1,0,0.1-0.1,0.2-0.1l0.1-0.1c0.1,0,0.1-0.1,0.2-0.1l0.1-0.1c0.1,0,0.1-0.1,0.2-0.1l0,0c0,0,0,0,0.1-0.1
		l0.1-0.1l0.1-0.1l0.1-0.1l0.1-0.1l0.1-0.1c0-0.1,0.1-0.1,0.1-0.2c0,0,0-0.1,0.1-0.1c0-0.1,0.1-0.1,0.1-0.2c0,0,0,0,0.1-0.1
		c0-0.1,0.1-0.1,0.1-0.2c0,0,0-0.1,0.1-0.1c0-0.1,0.1-0.1,0.1-0.2c0,0,0-0.1,0.1-0.1c0-0.1,0.1-0.1,0.1-0.2c0,0,0-0.1,0.1-0.1
		c0-0.1,0.1-0.1,0.1-0.2s0-0.1,0.1-0.2c0,0,0-0.1,0.1-0.1c0-0.1,0.1-0.1,0.1-0.2v-0.1c0-0.1,0.1-0.1,0.1-0.2v-0.1
		c0-0.1,0.1-0.2,0.1-0.2s0,0,0-0.1s0-0.2,0.1-0.3c0,0,0,0,0-0.1s0-0.2,0-0.2v-0.1c0-0.1,0-0.2,0-0.2v-0.1c0-0.1,0-0.1,0-0.2v-0.1
		c0-0.1,0-0.1,0-0.2s0-0.1,0-0.2v-0.1c0,0,0,0,0-0.1s0-0.1,0-0.2v-0.1c0-0.1,0-0.1,0-0.2s0-0.1,0-0.2s0-0.1,0-0.2s0-0.1,0-0.2
		s0-0.1,0-0.2s0-0.1,0-0.2v-0.1c0-0.1,0-0.1,0-0.2v-0.1c0-0.1,0-0.1-0.1-0.2v-0.1c0-0.1,0-0.1-0.1-0.2c0,0,0-0.1-0.1-0.1
		c0-0.1,0-0.1-0.1-0.2c0,0,0-0.1-0.1-0.1c0-0.1,0-0.1-0.1-0.2c0,0,0-0.1-0.1-0.1c0-0.1-0.1-0.1-0.1-0.2l-0.1-0.1
		c0-0.1-0.1-0.1-0.1-0.2L94,85.3c0-0.1-0.1-0.1-0.1-0.2L93.8,85c0-0.1-0.1-0.1-0.1-0.2l-0.1-0.1c0-0.1-0.1-0.1-0.1-0.2l0,0
		L71.6,58.9c-1.4-1.6-3.3-2.4-5.2-2.4V66h2.9c1.9,0,3.5,1.6,3.5,3.5v15c1.9,1.2,3.1,3.3,3.1,5.7c0,2.3-1.1,4.3-2.9,5.5h-3.7
		c1.1-0.3,1.9-1.2,1.9-2.4V70.4c0-1.4-1.1-2.5-2.5-2.5H31.6c-1.4,0-2.5,1.1-2.5,2.5v23.1c0,1.2,0.8,2.1,1.9,2.4h-3.7
		c-1.7-1.2-2.9-3.2-2.9-5.5c0-2.4,1.3-4.5,3.1-5.7v-15c0-1.9,1.6-3.5,3.5-3.5h2.9v-9.5h-0.3l0,0c-1.8,0.1-3.6,0.9-4.9,2.4L6.8,84.7
		l0,0c0,0.1-0.1,0.1-0.1,0.2L6.6,85c0,0.1-0.1,0.1-0.1,0.2l-0.1,0.1c0,0.1-0.1,0.1-0.1,0.2l-0.1,0.1c0,0.1-0.1,0.1-0.1,0.2L6,85.9
		C6,86,5.9,86,5.9,86.1l-0.1,0.1c0,0.1,0,0.1-0.1,0.2c0,0,0,0.1-0.1,0.1c0,0.1,0,0.1-0.1,0.2c0,0,0,0.1-0.1,0.1c0,0.1,0,0.1-0.1,0.2
		v0.1c0,0.1,0,0.1-0.1,0.2v0.1c0,0.1,0,0.1,0,0.2v0.1c0,0.1,0,0.1,0,0.2s0,0.1,0,0.2s0,0.1,0,0.2s0,0.1,0,0.2s0,0.1,0,0.2
		s0,0.1,0,0.2V89c0,0.1,0,0.1,0,0.2c0,0,0,0,0,0.1v0.1c0,0.1,0,0.1,0,0.2s0,0.1,0,0.2v0.1c0,0.1,0,0.1,0,0.2v0.1c0,0.1,0,0.2,0,0.2
		l0,0c0,0.1,0,0.2,0,0.2s0,0,0,0.1s0,0.2,0.1,0.3c0,0,0,0,0,0.1s0,0.2,0.1,0.2v0.1c0,0.1,0.1,0.2,0.1,0.2v0.1c0,0.1,0.1,0.1,0.1,0.2
		c0,0,0,0.1,0.1,0.1c0,0.1,0,0.1,0.1,0.2c0,0.1,0.1,0.1,0.1,0.2c0,0,0,0.1,0.1,0.1c0,0.1,0.1,0.1,0.1,0.2c0,0,0,0.1,0.1,0.1
		c0,0.1,0.1,0.1,0.1,0.2c0,0,0,0.1,0.1,0.1c0,0.1,0.1,0.1,0.1,0.2c0,0,0,0,0.1,0.1c0,0.1,0.1,0.1,0.1,0.2c0,0,0,0.1,0.1,0.1
		c0,0.1,0.1,0.1,0.1,0.2L7,94l0.1,0.1l0.1,0.1l0.1,0.1l0.1,0.1c0,0,0,0,0.1,0.1l0,0c0.1,0,0.1,0.1,0.2,0.1l0.1,0.1
		c0.1,0,0.1,0.1,0.2,0.1c0,0,0.1,0,0.1,0.1c0.1,0,0.1,0.1,0.2,0.1l0.1,0.1c0.1,0,0.1,0.1,0.2,0.1c0,0,0.1,0,0.1,0.1
		c0.1,0,0.1,0.1,0.2,0.1c0,0,0.1,0,0.1,0.1c0.1,0,0.1,0.1,0.2,0.1c0,0,0.1,0,0.1,0.1c0.1,0,0.1,0,0.2,0.1c0,0,0.1,0,0.1,0.1
		c0.1,0,0.1,0,0.2,0.1h0.1c0.1,0,0.1,0,0.2,0.1h0.1H0v3.9h99.9v-3.9L90.1,96L90.1,96L90.1,96z"/>
</g>
</svg>
