<?xml version="1.0" standalone="no"?>
<!DOCTYPE svg PUBLIC "-//W3C//DTD SVG 20010904//EN"
 "http://www.w3.org/TR/2001/REC-SVG-20010904/DTD/svg10.dtd">
<svg version="1.0" xmlns="http://www.w3.org/2000/svg"
 width="563.000000pt" height="720.000000pt" viewBox="0 0 563.000000 720.000000"
 preserveAspectRatio="xMidYMid meet">

<g transform="translate(0.000000,720.000000) scale(0.100000,-0.100000)"
fill="#000000" stroke="none">
<path d="M4339 7145 c-14 -7 -37 -36 -52 -63 -35 -65 -38 -168 -6 -221 l20
-34 -92 -161 c-184 -322 -477 -806 -714 -1180 -172 -271 -655 -976 -744 -1085
l-35 -43 -23 28 c-433 532 -961 1236 -1318 1758 -109 160 -293 437 -326 491
-18 31 -23 51 -21 87 8 101 -53 218 -122 236 -75 20 -239 -54 -335 -151 -103
-105 -142 -178 -122 -230 24 -63 159 -147 240 -147 l46 -1 130 -166 c72 -91
157 -201 190 -244 293 -382 347 -454 563 -754 63 -88 128 -178 144 -200 16
-22 44 -62 63 -90 19 -27 71 -104 116 -170 118 -173 368 -548 424 -635 26 -41
61 -95 76 -119 16 -25 29 -53 29 -64 0 -15 -78 -146 -100 -167 -3 -3 -28 -39
-55 -80 -27 -41 -100 -147 -162 -235 -62 -88 -122 -173 -133 -190 -73 -105
-225 -313 -280 -385 -36 -47 -115 -152 -175 -235 -60 -82 -112 -152 -115 -155
-3 -3 -17 -21 -30 -40 -14 -19 -28 -39 -33 -45 -8 -11 -94 -131 -142 -200 -16
-23 -59 -84 -95 -134 -36 -51 -70 -101 -76 -111 -6 -11 -18 -28 -26 -37 -9
-10 -89 -128 -179 -263 -90 -135 -167 -249 -172 -255 -8 -10 -103 -157 -165
-255 -19 -30 -48 -74 -63 -97 -16 -23 -29 -45 -29 -49 0 -4 -11 -21 -23 -38
-13 -17 -67 -101 -119 -186 -52 -85 -109 -175 -126 -200 -61 -92 -75 -140 -70
-247 4 -85 8 -106 35 -159 55 -106 156 -176 279 -193 85 -12 148 -1 227 41 70
37 174 138 228 218 116 174 315 480 454 700 56 88 224 368 255 423 12 21 54
93 94 160 40 67 105 181 144 252 40 72 83 148 95 170 30 52 198 357 241 437
18 35 46 86 61 113 15 28 50 93 78 145 62 117 374 688 430 787 22 40 44 70 49
67 10 -6 359 -532 417 -629 23 -38 82 -135 131 -215 49 -80 101 -165 115 -190
14 -25 41 -70 60 -100 18 -30 57 -98 86 -150 29 -52 62 -111 74 -130 12 -19
48 -78 80 -130 32 -52 68 -111 80 -130 12 -19 64 -102 115 -185 51 -82 107
-172 125 -200 17 -27 51 -81 76 -120 93 -147 422 -634 472 -698 17 -21 51 -69
76 -106 25 -37 54 -78 64 -91 10 -14 51 -70 91 -125 70 -96 131 -160 207 -218
153 -116 432 -42 519 137 26 56 50 140 50 181 -1 71 -67 252 -123 335 -16 25
-84 126 -151 225 -319 476 -677 954 -1106 1475 -57 69 -122 147 -144 175 -36
43 -92 108 -325 375 -99 113 -415 492 -472 565 -29 39 -59 75 -65 80 -6 6 -57
72 -114 148 l-104 138 52 102 c49 96 94 182 222 422 29 55 59 107 66 116 8 8
14 18 14 22 0 7 35 68 220 387 83 143 193 328 225 380 12 19 39 64 60 100 36
62 50 85 107 175 44 70 193 306 203 322 103 166 249 394 268 418 4 6 43 62 86
125 59 87 84 116 102 118 95 12 158 58 201 148 32 65 15 110 -73 195 -128 124
-335 200 -420 154z m116 -37 c30 -13 55 -26 55 -30 0 -11 -24 -10 -35 1 -6 5
-32 19 -60 30 -27 11 -42 20 -33 20 10 1 42 -9 73 -21z m0 -35 c93 -38 155
-75 155 -90 0 -8 -3 -13 -7 -11 -5 2 -63 31 -130 66 -157 80 -165 96 -18 35z
m145 -19 c0 -2 -13 2 -30 11 -16 9 -30 18 -30 21 0 2 14 -2 30 -11 17 -9 30
-18 30 -21z m40 -121 c36 -19 71 -40 79 -46 8 -7 26 -18 40 -25 l26 -12 -30 6
c-16 3 -37 12 -46 20 -9 8 -18 11 -21 8 -12 -12 -291 148 -320 183 -12 15 60
-21 272 -134z m70 36 c0 -11 -180 82 -180 93 0 3 41 -14 90 -39 50 -24 90 -49
90 -54z m-365 16 l18 -30 -25 25 c-14 14 -29 36 -33 50 -7 24 -6 24 8 5 7 -11
22 -33 32 -50z m158 -24 c102 -62 123 -81 94 -81 -21 0 -170 96 -202 131 -35
38 -33 37 108 -50z m-139 -30 c-5 -6 -74 51 -74 61 0 6 17 -5 38 -23 21 -19
37 -36 36 -38z m37 53 c24 -29 208 -131 248 -138 22 -3 42 -10 45 -15 3 -4
-14 -5 -37 -1 -23 5 -45 6 -49 4 -15 -10 -133 62 -188 113 -30 29 -50 52 -44
53 6 0 17 -7 25 -16z m316 -48 c72 -43 102 -65 86 -66 -10 0 -80 33 -123 60
-8 5 -23 11 -33 14 -18 6 -15 26 3 26 5 0 35 -15 67 -34z m68 -6 c3 -6 3 -10
-2 -10 -11 1 -43 26 -43 34 0 9 37 -11 45 -24z m-434 -10 c15 -12 50 -27 76
-36 26 -8 66 -26 88 -40 l40 -25 -35 6 c-19 4 -43 14 -52 22 -9 8 -21 12 -27
9 -16 -10 -83 22 -108 51 -35 40 -28 45 18 13z m-3547 -11 c-10 -12 -47 -44
-82 -72 -38 -29 -59 -53 -53 -57 11 -6 -7 -23 -149 -139 l-55 -45 45 47 c44
47 47 66 3 25 -13 -12 -25 -19 -29 -16 -3 3 2 12 11 19 9 8 28 24 42 37 34 31
137 110 196 151 26 17 47 38 47 46 0 7 6 16 13 18 26 11 29 6 11 -14z m106 16
c0 -10 -35 -42 -53 -48 -9 -4 -16 -12 -15 -18 2 -6 -16 -21 -39 -33 -23 -11
-45 -28 -48 -36 -6 -16 -245 -202 -267 -208 -18 -4 28 36 231 204 159 131 191
154 191 139z m3496 -94 c7 -8 20 -12 33 -8 13 3 44 -1 69 -9 26 -7 62 -14 80
-14 17 0 32 -5 32 -10 0 -16 -145 -4 -200 15 -42 15 -110 52 -110 60 0 2 -3
11 -7 21 -5 13 4 11 43 -12 27 -15 54 -35 60 -43z m265 31 c-7 -2 -18 1 -23 6
-8 8 -4 9 13 5 13 -4 18 -8 10 -11z m-3759 -44 c-37 -82 -161 -188 -278 -238
-70 -30 -76 -24 -11 13 73 41 159 115 151 129 -4 6 -3 8 3 5 6 -4 41 27 78 69
37 41 69 73 72 70 3 -2 -4 -24 -15 -48z m68 1 c14 -34 15 -41 7 -81 -6 -30
-57 -121 -64 -115 -2 3 5 20 16 38 12 19 21 46 21 62 0 15 5 27 10 27 6 0 10
7 10 15 0 8 -5 15 -11 15 -6 0 -9 7 -6 15 4 8 2 17 -3 20 -12 8 -13 35 -1 35
5 0 14 -14 21 -31z m3765 21 c13 -6 15 -9 5 -9 -8 0 -22 4 -30 9 -18 12 -2 12
25 0z m-4025 -35 c-13 -14 -28 -25 -34 -25 -6 1 3 12 19 25 39 32 45 32 15 0z
m72 -38 c-34 -35 -60 -66 -57 -69 11 -11 -123 -108 -150 -108 -18 0 12 23 59
45 29 14 61 35 72 47 14 15 6 13 -28 -10 -26 -18 -53 -32 -62 -32 -8 0 -36
-18 -61 -40 -39 -34 -65 -49 -65 -37 0 3 145 118 290 231 70 54 71 42 2 -27z
m3653 11 c14 -6 9 -7 -19 -4 -22 3 -44 10 -50 16 -12 12 31 5 69 -12z m-81
-22 c8 -13 51 -41 95 -62 44 -22 80 -42 81 -45 1 -20 -228 -25 -273 -6 l-27
12 40 67 c43 71 56 76 84 34z m174 7 c-10 -2 -28 -2 -40 0 -13 2 -5 4 17 4 22
1 32 -1 23 -4z m-3598 -27 c0 -14 -4 -28 -10 -31 -5 -3 -14 -24 -20 -45 -6
-22 -15 -40 -21 -40 -6 0 -9 6 -6 13 3 6 13 38 23 69 20 61 34 75 34 34z
m3740 20 c0 -2 -9 -6 -20 -9 -11 -3 -18 -1 -14 4 5 9 34 13 34 5z m-4120 -10
c0 -2 -7 -7 -16 -10 -8 -3 -12 -2 -9 4 6 10 25 14 25 6z m4170 -6 c-8 -5 -19
-10 -25 -10 -5 0 -3 5 5 10 8 5 20 10 25 10 6 0 3 -5 -5 -10z m-90 -20 c0 -5
-17 -12 -37 -15 -21 -3 -45 -8 -54 -9 -9 -2 -23 0 -30 5 -12 7 -11 9 1 10 35
1 84 10 88 14 9 9 32 5 32 -5z m40 -30 c-8 -5 -22 -9 -30 -9 -10 0 -8 3 5 9
27 12 43 12 25 0z m-3797 -17 c-15 -40 -74 -123 -88 -123 -23 0 -18 16 13 42
15 13 36 40 47 61 20 38 40 52 28 20z m144 -127 c-6 -49 -63 -173 -110 -240
-23 -33 -10 -42 -100 73 l-48 61 59 28 c74 36 136 86 164 130 18 30 22 32 31
17 5 -10 7 -41 4 -69z m3263 62 c19 -6 83 -8 143 -5 59 2 107 3 107 0 0 -2
-26 -42 -57 -88 -60 -88 -73 -97 -171 -110 -45 -6 -158 10 -183 25 -12 8 -11
15 8 47 12 21 36 64 54 96 24 43 36 56 48 51 9 -3 32 -11 51 -16z m-3543 -46
c-20 -20 -51 -46 -69 -56 -24 -14 -16 -3 27 37 67 63 99 77 42 19z m123 31 c0
-5 -11 -21 -25 -37 -31 -36 -33 -26 -3 14 23 31 28 35 28 23z m254 -126 c31
-46 56 -92 56 -103 -1 -38 -68 -214 -96 -251 l-28 -36 -33 39 c-19 21 -52 62
-75 91 l-40 53 24 29 c29 34 113 194 122 234 3 15 8 27 10 27 2 0 29 -37 60
-83z m-346 51 c-3 -7 -19 -20 -37 -30 l-33 -19 22 31 c21 29 56 42 48 18z
m-83 -33 c-39 -32 -55 -32 -18 0 15 13 33 24 38 24 6 0 -3 -11 -20 -24z m3432
-87 c15 -6 81 -14 147 -17 l118 -6 -52 -77 c-59 -88 -79 -98 -187 -98 -63 0
-163 17 -163 28 0 5 103 181 107 182 1 0 14 -5 30 -12z m-2858 -144 c51 -73
53 -79 46 -123 -14 -95 -83 -241 -114 -241 -10 0 -131 156 -131 168 0 5 10 17
21 28 25 22 73 121 95 193 8 28 18 51 22 51 4 0 32 -34 61 -76z m2889 -91 l93
-8 -43 -67 c-27 -41 -53 -71 -70 -77 -53 -19 -268 0 -268 24 0 3 12 24 27 48
14 23 37 59 49 79 l23 36 48 -13 c26 -8 90 -18 141 -22z m-2715 -166 c14 -21
16 -37 11 -60 -4 -18 -8 -34 -9 -37 -12 -64 -83 -200 -104 -200 -4 0 -34 36
-65 80 l-58 80 30 37 c24 32 69 132 96 217 6 19 30 -10 99 -117z m2589 -20
c54 -1 98 -4 98 -6 0 -18 -109 -171 -125 -175 -60 -16 -265 3 -265 24 0 5 10
25 23 44 12 19 37 59 55 89 l34 56 41 -15 c25 -9 83 -16 139 -17z m-2496 -114
c27 -43 35 -64 31 -87 -12 -75 -40 -164 -66 -209 l-29 -49 -43 58 c-24 33 -52
68 -61 78 -17 18 -16 21 13 54 32 36 72 118 89 183 6 22 15 37 21 34 5 -4 25
-32 45 -62z m2273 -93 c29 -5 85 -10 124 -10 66 0 69 -1 55 -17 -8 -10 -26
-39 -41 -64 -28 -49 -52 -63 -124 -73 -48 -7 -175 3 -193 14 -9 6 -2 25 26 71
50 85 64 100 83 94 9 -2 40 -9 70 -15z m-2152 -77 c27 -38 53 -74 57 -81 14
-24 -49 -192 -97 -256 -13 -18 -17 -14 -70 57 -60 81 -66 97 -43 116 18 15 72
143 81 194 4 20 11 37 15 37 4 0 30 -30 57 -67z m2121 -116 c56 0 102 -2 102
-4 0 -3 -16 -31 -35 -63 -31 -50 -41 -59 -82 -71 -49 -14 -246 -20 -258 -7 -4
4 10 35 31 70 59 97 59 98 102 85 20 -5 83 -10 140 -10z m-1981 -76 l42 -58
-13 -44 c-23 -73 -77 -203 -90 -217 -11 -11 -22 -1 -65 57 l-52 72 40 67 c22
37 49 93 61 125 12 31 24 57 28 56 4 0 26 -26 49 -58z m154 -210 c14 -22 14
-29 -7 -85 -27 -72 -66 -153 -88 -181 -16 -20 -16 -20 -36 5 -26 32 -80 110
-80 115 0 3 14 27 30 54 17 27 39 73 49 102 10 30 24 66 31 81 l13 27 36 -47
c20 -26 43 -58 52 -71z m1825 103 c-2 -6 -20 -36 -40 -67 -27 -42 -45 -59 -69
-65 -45 -13 -227 -8 -254 6 l-22 12 31 48 c55 82 40 77 207 77 104 0 150 -3
147 -11z m-291 -164 c44 -4 104 -6 133 -3 28 2 52 1 52 -3 0 -4 -14 -29 -31
-55 -28 -44 -35 -49 -87 -60 -74 -15 -252 -2 -252 19 0 4 16 34 36 65 27 44
40 57 53 51 9 -3 52 -10 96 -14z m-1442 -57 l44 -58 -17 -57 c-20 -65 -83
-174 -110 -188 -15 -8 -24 -3 -48 28 -56 72 -57 76 -18 140 19 31 47 87 63
124 15 37 31 68 35 68 4 0 27 -26 51 -57z m1251 -81 c10 -16 -102 -220 -205
-377 -58 -88 -123 -189 -144 -225 -37 -62 -94 -151 -162 -250 -80 -116 -283
-432 -316 -490 -20 -36 -59 -96 -87 -135 -27 -38 -104 -151 -171 -250 -67 -99
-125 -182 -129 -185 -11 -8 -62 -91 -81 -132 -27 -58 -62 -100 -70 -86 -5 7
-11 9 -16 5 -4 -5 -1 -12 7 -17 11 -7 9 -15 -11 -47 -14 -21 -36 -54 -48 -73
-53 -86 -133 -208 -224 -344 -54 -81 -101 -155 -104 -164 -4 -9 -25 -46 -48
-82 -23 -36 -61 -101 -86 -145 -50 -92 -52 -94 -100 -166 -19 -30 -51 -81 -71
-114 -19 -33 -55 -93 -79 -133 -24 -40 -57 -97 -74 -126 -16 -29 -64 -96 -105
-151 -109 -143 -119 -156 -140 -200 -11 -22 -52 -80 -91 -130 -39 -49 -88
-119 -109 -155 -21 -36 -66 -99 -99 -140 -33 -41 -68 -90 -76 -108 -9 -18 -37
-63 -62 -100 -26 -37 -55 -86 -65 -109 -16 -37 -33 -57 -48 -58 -10 -1 -50
-40 -50 -48 0 -5 7 -6 16 -3 15 6 15 5 0 -16 -9 -13 -28 -40 -42 -61 -14 -22
-28 -36 -31 -33 -3 3 2 17 11 30 9 14 16 30 16 36 0 14 -25 8 -25 -6 -1 -16
-24 -50 -25 -35 0 8 14 39 30 68 17 30 28 58 25 63 -4 7 74 141 136 232 11 15
19 33 20 40 0 7 22 45 49 83 48 69 135 198 235 350 28 42 75 114 105 159 106
160 110 165 165 261 22 39 74 116 115 171 229 309 306 424 362 535 69 138 98
190 145 261 24 37 65 102 91 146 42 71 155 241 241 362 17 25 57 81 89 126 31
44 93 132 138 195 232 327 462 682 545 839 44 84 81 140 303 460 101 146 217
313 256 373 70 103 83 117 94 99z m86 -19 c4 -4 -37 -83 -95 -183 -18 -30 -56
-95 -85 -145 -74 -128 -179 -283 -196 -289 -8 -3 -14 -14 -14 -25 0 -10 -13
-33 -30 -51 -16 -18 -30 -38 -30 -45 0 -14 -224 -353 -244 -370 -7 -5 -15 -17
-18 -25 -3 -9 -32 -56 -64 -105 -33 -49 -69 -105 -80 -126 -12 -20 -41 -63
-66 -95 -24 -33 -64 -90 -88 -129 -48 -74 -149 -218 -175 -247 -8 -10 -15 -23
-15 -29 0 -10 -86 -149 -99 -159 -28 -22 -110 -149 -161 -248 -40 -79 -71
-132 -175 -298 -83 -132 -90 -145 -153 -264 -72 -138 -113 -206 -191 -315 -61
-86 -102 -145 -215 -315 -27 -41 -76 -112 -108 -157 -32 -44 -58 -90 -58 -100
0 -21 -150 -234 -260 -370 -6 -7 -10 -16 -10 -21 0 -5 -25 -44 -56 -87 -31
-43 -84 -126 -119 -184 -35 -58 -82 -130 -104 -160 -22 -30 -43 -63 -47 -74
-10 -31 -114 -187 -125 -187 -11 0 39 103 52 108 5 2 9 8 9 13 0 15 140 242
166 270 29 31 32 49 3 23 -20 -18 -103 -149 -204 -321 -42 -72 -65 -99 -65
-77 0 12 117 209 187 315 62 93 94 145 177 284 36 61 93 144 127 185 33 41 74
100 89 130 26 49 116 173 198 270 16 19 37 52 45 72 9 20 33 63 55 95 21 32
60 96 86 143 26 47 59 104 74 126 38 59 85 137 252 422 73 123 241 372 259
381 9 5 13 12 9 16 -3 4 29 61 73 128 43 67 102 162 130 211 28 50 58 96 65
104 8 7 63 86 122 175 60 89 135 198 166 242 32 44 76 111 99 150 22 38 61
101 86 139 25 38 51 77 56 86 6 10 22 35 36 56 14 22 78 118 141 214 63 96
146 225 183 285 69 114 94 152 143 220 46 63 115 182 158 273 38 81 39 82 69
76 16 -3 32 -8 35 -11z m74 -17 c-3 -8 -16 -17 -30 -20 -23 -6 -34 -26 -14
-26 6 0 10 -4 10 -9 0 -13 -57 -104 -122 -198 -32 -45 -58 -88 -58 -95 0 -7
-30 -62 -66 -123 -37 -60 -99 -166 -139 -235 -39 -69 -89 -154 -111 -189 -21
-35 -56 -95 -77 -135 -73 -136 -196 -314 -282 -406 -42 -46 -53 -60 -106 -142
-17 -27 -36 -48 -43 -48 -14 0 -41 -48 -37 -67 1 -11 -19 -46 -115 -194 -23
-36 -59 -96 -79 -133 -78 -145 -257 -449 -324 -551 -109 -167 -159 -241 -226
-335 -83 -118 -291 -418 -437 -632 -54 -79 -121 -187 -149 -242 -55 -106 -78
-144 -194 -321 -40 -60 -98 -150 -130 -200 -31 -49 -74 -112 -95 -140 -52 -67
-131 -207 -257 -453 -22 -42 -39 -66 -41 -57 -2 9 8 34 22 55 33 50 33 64 0
25 -15 -16 -24 -22 -21 -13 3 9 1 18 -5 20 -7 3 -9 14 -5 29 9 33 86 153 94
145 3 -3 -1 -14 -10 -24 -10 -10 -17 -25 -17 -33 1 -10 5 -8 16 6 8 11 19 19
24 18 5 -2 23 23 41 55 18 31 54 90 81 130 65 97 67 102 29 97 -34 -4 -38 1
-17 30 7 11 26 43 42 70 15 28 47 77 71 110 23 33 61 91 84 129 23 38 47 76
55 85 127 157 214 279 214 302 0 10 15 41 33 67 17 27 92 138 166 248 73 109
141 208 151 219 44 50 136 196 197 313 67 130 145 262 241 412 30 47 77 128
105 180 45 87 108 185 191 300 18 25 67 99 110 165 113 175 153 230 165 227 6
-1 11 7 11 19 0 21 33 73 110 174 25 33 68 98 94 143 27 46 55 86 62 89 8 3
14 10 14 17 0 9 126 206 180 281 8 11 24 36 35 54 11 18 74 115 140 215 66
100 131 200 143 222 13 21 33 55 45 74 30 47 111 193 144 258 24 47 31 52 60
52 24 0 31 -4 27 -14z m46 -5 c-11 -21 -30 -37 -30 -25 0 8 30 44 37 44 2 0
-1 -9 -7 -19z m-1350 -67 c0 -3 14 -23 30 -44 17 -21 30 -44 30 -52 0 -7 8
-18 18 -25 15 -9 99 -125 172 -238 9 -13 26 -37 39 -54 64 -83 211 -308 211
-322 0 -9 -6 -21 -13 -27 -10 -9 -22 0 -50 37 -20 26 -37 55 -37 64 0 9 -6 20
-14 24 -25 14 -77 86 -72 100 3 7 -4 19 -16 27 -11 8 -17 19 -13 25 3 6 -3 15
-15 19 -11 4 -28 19 -38 34 -9 14 -33 50 -53 79 -31 47 -71 119 -164 296 -13
23 -32 55 -44 71 -11 17 -21 38 -21 48 0 13 8 8 25 -18 14 -20 25 -40 25 -44z
m13 -89 c114 -205 162 -283 237 -390 46 -66 87 -122 90 -125 15 -15 120 -182
120 -192 0 -7 -10 -26 -23 -42 l-23 -28 -50 58 c-78 93 -140 176 -191 257 -27
42 -75 115 -107 164 -32 48 -69 104 -81 123 -72 115 -105 171 -105 180 0 5 12
32 28 59 l27 50 22 -27 c13 -15 38 -54 56 -87z m1212 -35 c-87 -132 -131 -183
-79 -94 62 108 158 247 162 236 2 -7 -35 -71 -83 -142z m126 79 c-12 -19 -21
-30 -21 -26 0 14 31 69 36 64 3 -3 -4 -20 -15 -38z m-1221 -85 c29 -41 50 -77
47 -80 -2 -2 -24 26 -49 63 -52 78 -61 93 -55 93 3 0 28 -34 57 -76z m1123 -6
c-33 -57 -109 -159 -87 -118 25 48 117 191 120 187 3 -2 -12 -34 -33 -69z
m-1264 -156 c140 -219 287 -431 350 -508 56 -67 61 -75 61 -89 0 -23 -23 -30
-34 -10 -6 10 -23 32 -37 49 -25 30 -99 135 -219 312 -184 272 -226 332 -252
358 -15 17 -28 35 -28 41 0 16 21 34 34 29 6 -3 62 -84 125 -182z m-72 13 c18
-27 57 -84 86 -125 47 -66 245 -359 272 -401 6 -9 27 -40 48 -70 36 -52 46
-79 29 -79 -9 0 -122 162 -122 174 0 3 -6 14 -14 23 -13 16 -306 450 -365 541
l-24 37 28 -25 c15 -14 43 -47 62 -75z m1223 -27 c-11 -18 -26 -43 -32 -55 -6
-13 -15 -23 -20 -23 -4 0 8 25 28 55 20 30 39 55 41 55 3 0 -5 -15 -17 -32z
m56 4 c-18 -16 -18 -16 -6 6 6 13 14 21 18 18 3 -4 -2 -14 -12 -24z m-32 -44
c-5 -7 -43 -61 -85 -120 -42 -59 -98 -141 -124 -182 -26 -42 -54 -76 -62 -76
-14 0 -13 3 1 23 9 12 23 36 32 52 23 41 101 149 145 199 19 22 48 58 63 79
27 35 46 51 30 25z m-866 -44 c-4 -3 -12 5 -18 18 -12 22 -12 22 6 6 10 -10
15 -20 12 -24z m728 -52 c-18 -16 -18 -16 -6 6 6 13 14 21 18 18 3 -4 -2 -14
-12 -24z m-614 -97 c14 -27 -1 -10 -41 45 l-33 45 32 -35 c17 -19 36 -44 42
-55z m588 55 c-6 -11 -13 -20 -16 -20 -2 0 0 9 6 20 6 11 13 20 16 20 2 0 0
-9 -6 -20z m41 -73 c-10 -9 -11 -8 -5 6 3 10 9 15 12 12 3 -3 0 -11 -7 -18z
m29 3 c-6 -11 -13 -20 -16 -20 -2 0 0 9 6 20 6 11 13 20 16 20 2 0 0 -9 -6
-20z m-74 -77 c-103 -182 -193 -319 -204 -309 -3 3 1 14 10 23 8 10 48 72 90
138 41 66 87 139 102 163 38 61 40 51 2 -15z m-163 -213 c-26 -40 -70 -107
-98 -150 -27 -42 -82 -119 -121 -171 -38 -52 -87 -119 -107 -149 -20 -30 -45
-66 -56 -80 -11 -13 -17 -29 -14 -34 3 -5 1 -6 -5 -2 -6 4 -10 -1 -10 -11 1
-16 -62 -127 -150 -268 -14 -22 -37 -58 -51 -80 -35 -56 -205 -284 -209 -280
-10 9 214 358 323 505 82 110 92 126 78 117 -6 -4 -50 -61 -99 -127 -49 -66
-93 -120 -97 -120 -4 0 6 19 23 43 17 23 52 74 77 112 26 39 68 96 93 128 25
32 52 69 60 81 8 12 36 47 61 77 26 30 50 64 54 77 3 12 17 30 31 38 13 9 24
22 24 30 0 20 53 104 66 104 7 0 14 10 16 23 2 12 38 74 79 137 55 85 75 109
77 94 2 -13 -17 -51 -45 -94z m-454 -147 c-31 -55 -126 -201 -200 -306 -19
-27 -52 -77 -74 -110 -37 -57 -65 -98 -213 -312 -27 -38 -81 -115 -121 -170
-39 -55 -110 -157 -156 -226 -46 -69 -91 -132 -100 -139 -8 -7 -15 -16 -15
-21 0 -4 -30 -58 -67 -119 -122 -199 -130 -214 -198 -345 -38 -71 -100 -174
-139 -229 -39 -54 -95 -133 -124 -175 -30 -42 -82 -114 -117 -161 -34 -47 -86
-125 -115 -175 -29 -49 -59 -99 -66 -110 -17 -25 -72 -107 -107 -160 -14 -22
-42 -62 -62 -90 -19 -27 -56 -84 -81 -125 -56 -92 -83 -133 -124 -185 -17 -22
-86 -123 -153 -225 -66 -102 -129 -191 -138 -198 -10 -7 -16 -19 -13 -26 3 -8
0 -17 -7 -22 -16 -9 -6 134 11 166 12 23 127 177 146 198 7 6 34 47 60 90 27
42 65 100 85 127 20 28 43 64 52 80 8 17 57 87 109 155 51 69 127 181 167 250
75 127 137 223 190 295 65 89 161 234 199 301 22 40 57 96 79 125 22 30 75
113 118 184 105 173 221 338 437 620 4 6 29 39 55 75 26 36 70 97 98 135 29
39 71 97 93 130 23 33 105 150 182 260 77 110 184 266 237 348 53 81 98 147
100 147 3 0 -10 -26 -28 -57z m372 -30 c-17 -30 -51 -69 -51 -59 0 10 48 76
56 76 3 0 0 -8 -5 -17z m28 -53 c-18 -22 -34 -40 -36 -40 -8 0 52 80 60 80 4
0 -7 -18 -24 -40z m155 -138 c38 -62 66 -115 63 -118 -2 -3 -19 19 -37 48 -18
29 -55 87 -82 129 -26 41 -48 79 -48 84 0 19 39 -34 104 -143z m-232 76 c-31
-45 -114 -139 -90 -103 28 45 113 153 116 150 2 -2 -10 -23 -26 -47z m134 15
c-4 -4 -11 -1 -16 7 -16 25 -11 35 7 17 9 -9 13 -20 9 -24z m-13 -36 c10 -18
17 -40 15 -47 -2 -8 5 -14 17 -15 10 0 25 -11 31 -23 6 -13 17 -29 23 -35 6
-6 11 -17 11 -23 0 -7 11 -25 25 -40 14 -15 25 -32 25 -39 0 -7 9 -20 20 -30
11 -10 20 -21 20 -26 0 -8 71 -127 102 -171 11 -16 15 -28 9 -28 -6 0 -11 -5
-11 -11 0 -6 7 -9 15 -5 16 6 46 -36 145 -204 25 -41 54 -89 65 -106 11 -17
58 -91 105 -163 47 -72 121 -176 165 -231 45 -54 99 -125 120 -157 22 -32 88
-120 147 -196 60 -76 111 -149 114 -162 3 -14 13 -25 23 -25 20 0 125 -138
124 -161 -1 -10 6 -19 16 -22 16 -4 49 -49 211 -292 185 -278 250 -371 378
-538 23 -31 42 -60 42 -65 0 -8 34 -56 162 -230 15 -20 27 -44 28 -53 0 -9 9
-19 20 -22 12 -3 20 -14 20 -27 0 -11 4 -19 9 -15 14 8 21 -9 10 -25 -8 -13
-11 -13 -18 0 -16 27 -46 55 -76 72 -17 9 -31 26 -33 37 -2 11 -9 21 -17 23
-16 3 -208 258 -227 300 -7 16 -16 28 -20 28 -3 0 -27 29 -52 64 -25 36 -52
70 -58 78 -17 18 -67 83 -100 133 -15 22 -68 89 -118 150 -76 92 -234 319
-290 416 -8 15 -45 66 -82 115 -37 49 -102 145 -145 214 -43 69 -118 178 -168
243 -98 128 -169 228 -271 380 -36 53 -68 97 -71 97 -11 0 105 -172 271 -398
77 -106 156 -217 175 -245 67 -101 222 -333 260 -387 21 -30 74 -108 117 -174
43 -65 116 -166 161 -225 274 -355 473 -623 473 -636 0 -8 9 -19 19 -25 11 -5
23 -20 26 -32 4 -13 17 -34 30 -48 21 -24 45 -62 45 -74 0 -3 -8 -2 -17 1 -16
6 -16 4 1 -22 11 -17 40 -57 66 -90 49 -63 63 -85 58 -85 -2 0 -22 24 -43 52
-50 67 -111 131 -96 102 5 -12 26 -40 46 -64 20 -24 63 -82 97 -131 53 -76 62
-86 75 -73 8 8 12 22 8 34 -11 35 9 21 48 -33 20 -29 76 -92 125 -141 48 -48
78 -84 66 -78 -26 14 -156 140 -176 171 -11 19 -19 23 -34 16 -18 -8 -18 -9 4
-12 12 -3 27 -14 33 -26 6 -12 41 -52 77 -89 37 -38 60 -68 52 -68 -8 0 -45
31 -82 70 -37 38 -69 70 -71 70 -1 0 -3 -9 -4 -20 -1 -11 3 -20 10 -20 6 0 35
-25 64 -55 29 -30 50 -55 45 -55 -4 0 -28 20 -52 45 -41 42 -78 64 -50 30 7
-9 11 -18 8 -21 -11 -10 -107 109 -106 131 3 27 -38 97 -121 208 -66 88 -88
108 -71 61 13 -34 13 -39 -5 -24 -19 16 -125 156 -125 166 0 3 -31 43 -69 88
-103 122 -154 190 -231 306 -38 58 -104 152 -147 210 -109 146 -165 227 -198
285 -16 28 -68 104 -116 170 -124 172 -215 308 -240 357 -12 24 -40 70 -63
102 -23 32 -69 100 -103 149 -34 49 -70 99 -80 111 -27 32 -103 148 -173 265
-34 57 -75 125 -91 150 -16 24 -29 53 -29 63 0 10 -4 18 -9 18 -8 0 -91 122
-91 135 0 4 -9 19 -19 34 -11 15 -19 36 -18 46 1 11 -3 19 -10 18 -11 -2 -103
134 -103 152 0 5 -6 16 -14 24 -8 9 -28 41 -43 71 -31 58 -51 92 -90 151 -12
19 -23 42 -23 50 0 32 111 -120 276 -379 32 -51 82 -123 111 -160 29 -37 73
-97 98 -134 44 -65 89 -111 53 -55 -10 15 -26 39 -35 55 -9 15 -47 65 -84 112
-63 80 -99 133 -222 328 -28 46 -73 113 -100 148 -82 113 -86 129 -44 182 14
18 21 15 40 -21z m67 -46 c0 -11 -7 -7 -24 14 -13 16 -22 34 -18 39 7 12 42
-31 42 -53z m120 -91 c23 -38 39 -74 35 -80 -3 -5 8 -30 26 -55 27 -37 30 -47
19 -60 -7 -9 -17 -14 -21 -13 -13 5 -169 268 -159 268 5 0 15 -10 21 -22 30
-56 141 -218 150 -218 5 0 -11 28 -36 62 -43 60 -56 86 -35 73 16 -10 12 1
-20 55 -16 28 -30 53 -30 55 0 14 12 -2 50 -65z m-366 38 c-4 -7 -28 -44 -54
-83 -45 -67 -202 -305 -380 -577 -63 -97 -86 -125 -96 -117 -8 7 -15 6 -20 -2
-4 -7 -2 -15 4 -17 7 -2 12 -8 12 -13 0 -6 -4 -8 -9 -5 -13 9 -32 -19 -25 -37
8 -21 -82 -158 -108 -165 -11 -3 -17 -10 -14 -18 6 -16 -87 -172 -116 -195
-12 -9 -18 -21 -14 -27 7 -12 -17 -59 -90 -173 -24 -36 -77 -132 -119 -215
-42 -82 -83 -152 -91 -157 -8 -5 -12 -12 -9 -17 3 -5 -5 -26 -18 -47 -13 -21
-38 -67 -56 -102 -18 -35 -61 -102 -95 -150 -34 -47 -97 -142 -141 -211 -93
-148 -108 -169 -117 -170 -19 0 -3 36 54 122 167 253 212 319 224 329 8 6 14
18 14 25 0 7 29 69 64 136 88 169 99 188 114 188 6 0 13 9 13 20 2 30 3 33 24
65 10 17 33 53 50 80 17 28 44 71 61 96 40 63 99 181 109 219 13 50 199 356
272 446 22 28 76 103 119 165 43 63 100 147 128 188 28 41 56 81 61 89 6 9 41
63 79 121 39 58 92 132 119 164 48 55 66 71 51 45z m177 -178 c16 -30 46 -82
66 -115 20 -32 37 -71 38 -85 0 -14 7 -25 14 -25 11 0 116 -161 232 -360 78
-133 174 -280 384 -586 61 -89 125 -187 143 -218 19 -31 39 -63 47 -71 7 -8
104 -150 215 -315 111 -165 242 -358 291 -430 49 -71 89 -136 89 -143 0 -7 49
-76 109 -154 61 -78 107 -146 104 -151 -3 -5 6 -21 19 -35 13 -15 32 -40 42
-55 9 -15 21 -25 26 -22 5 3 17 -7 27 -22 51 -79 212 -305 252 -353 60 -71 93
-105 163 -164 36 -30 55 -53 51 -62 -4 -12 -11 -11 -40 6 -19 11 -41 20 -48
20 -42 0 -365 356 -357 394 1 7 -6 16 -17 19 -11 2 -47 42 -81 88 -65 89 -155
209 -180 239 -84 101 -145 191 -199 288 -74 137 -122 213 -263 418 -153 222
-186 271 -206 310 -12 23 -50 84 -84 135 -60 89 -112 172 -273 434 -37 61 -85
136 -107 169 -62 90 -147 227 -163 264 -9 18 -42 69 -75 115 -33 45 -81 114
-106 152 -26 39 -97 138 -160 221 -63 83 -114 157 -114 164 0 7 10 29 22 48
l22 36 44 -50 c24 -27 57 -74 73 -104z m-215 76 c-8 -14 -14 -31 -11 -38 6
-15 -33 -83 -42 -74 -3 3 2 15 12 26 10 11 16 23 13 26 -5 4 -88 -111 -88
-123 0 -2 5 -1 10 2 17 11 11 -3 -35 -77 -46 -73 -54 -95 -33 -82 7 4 8 3 4
-5 -4 -6 -11 -9 -16 -6 -9 6 -74 -94 -66 -102 2 -3 12 9 20 25 9 17 21 34 27
37 6 4 -7 -25 -28 -63 -21 -39 -39 -67 -41 -62 -2 5 2 19 8 30 6 12 9 24 7 27
-3 3 -15 -15 -28 -39 -34 -67 -91 -158 -100 -158 -4 0 12 33 35 73 113 190
141 237 186 307 52 80 61 101 33 79 -15 -12 -14 -9 2 17 64 101 140 212 144
209 2 -3 -4 -16 -13 -29z m175 -203 c54 -72 123 -167 152 -210 29 -43 77 -113
107 -155 30 -42 75 -112 99 -155 25 -43 81 -134 126 -203 90 -139 98 -152 229
-365 51 -83 119 -191 152 -241 32 -49 68 -106 79 -126 10 -20 48 -80 85 -132
217 -317 307 -456 376 -581 42 -77 99 -168 126 -201 26 -34 48 -67 48 -73 0
-6 4 -11 8 -11 19 0 202 -248 202 -274 0 -9 6 -16 13 -16 18 0 147 -174 147
-199 0 -12 5 -19 13 -16 6 2 48 -35 92 -83 85 -93 209 -201 278 -242 l42 -25
-33 -3 c-75 -7 -191 54 -252 134 -19 25 -62 79 -95 119 -33 41 -76 95 -95 122
-19 26 -66 89 -105 138 -75 96 -130 192 -113 197 5 2 0 15 -12 28 -16 18 -20
20 -16 7 15 -47 -54 44 -137 181 -37 61 -120 182 -209 306 -24 33 -63 91 -87
130 -24 38 -49 75 -56 82 -13 13 -123 178 -286 429 -47 72 -124 189 -172 262
-48 73 -87 136 -87 141 0 6 -18 31 -40 58 -21 26 -53 73 -70 103 -48 86 -95
165 -133 223 -19 29 -66 105 -105 168 -102 164 -214 342 -312 493 -108 166
-108 166 -81 142 13 -11 67 -79 122 -152z m343 51 c9 -3 16 -16 16 -29 0 -13
7 -26 16 -29 10 -4 13 -13 9 -26 -5 -15 0 -23 19 -31 24 -11 102 -128 180
-271 20 -37 57 -91 82 -120 25 -29 61 -75 79 -103 19 -27 57 -81 84 -120 28
-38 58 -83 67 -100 10 -16 38 -55 64 -85 25 -30 68 -89 95 -130 27 -41 70
-100 96 -130 25 -30 86 -116 135 -190 78 -116 245 -343 279 -376 5 -6 30 -37
53 -70 64 -89 173 -240 212 -294 137 -187 351 -460 389 -494 12 -11 21 -24 21
-29 0 -5 -18 11 -41 37 -22 25 -45 46 -51 46 -5 0 -18 10 -29 23 l-18 22 -1
-22 c0 -12 4 -24 9 -28 9 -5 43 -65 37 -65 -2 0 -41 48 -87 108 -46 59 -92
117 -102 129 -40 46 -183 250 -360 513 -184 273 -315 458 -380 535 -19 22 -37
53 -41 68 -4 19 -12 27 -21 24 -8 -4 -36 24 -75 76 -33 45 -100 134 -147 197
-47 63 -102 135 -123 160 -55 67 -190 269 -190 285 0 7 -12 26 -27 42 -16 17
-57 79 -92 139 -36 60 -96 155 -134 212 -57 84 -67 105 -57 117 14 17 13 17
34 9z m203 -236 c24 -31 47 -60 53 -63 6 -4 8 -16 5 -28 -2 -12 -2 -16 1 -9 4
10 11 7 22 -10 9 -13 20 -27 24 -33 34 -44 83 -114 131 -187 31 -48 61 -90 67
-93 18 -11 10 -25 -12 -21 -16 2 -48 39 -105 122 -45 65 -85 125 -89 133 -4 7
-17 25 -30 38 -13 14 -47 69 -75 122 -29 53 -63 113 -76 133 -12 21 -23 41
-23 45 0 5 15 -15 33 -42 17 -28 51 -76 74 -107z m-963 25 c-19 -32 -46 -80
-60 -108 -13 -27 -38 -70 -54 -95 -16 -25 -41 -65 -55 -90 -54 -95 -80 -137
-197 -315 -47 -71 -93 -143 -102 -160 -9 -16 -34 -59 -56 -94 -22 -34 -40 -65
-40 -67 0 -3 -18 -29 -40 -58 -22 -29 -40 -61 -40 -71 0 -21 -120 -219 -128
-211 -6 6 83 182 104 207 8 8 14 18 14 22 0 15 222 389 314 527 57 85 120 183
142 217 21 34 61 97 88 140 89 142 137 213 141 213 2 0 -11 -26 -31 -57z
m1216 -319 c45 -69 80 -112 87 -110 15 6 43 -43 36 -61 -3 -7 3 -13 11 -13 9
0 21 -11 26 -24 5 -13 14 -27 19 -31 16 -9 81 -113 81 -128 0 -8 11 -24 25
-37 13 -12 23 -26 22 -29 -1 -4 15 -23 35 -44 21 -21 47 -55 58 -77 11 -22 27
-40 34 -40 16 0 66 -80 66 -104 0 -9 6 -16 13 -16 24 0 47 -34 40 -60 -5 -19
-3 -22 10 -17 10 4 21 -3 31 -19 10 -14 12 -24 5 -24 -6 0 -9 -6 -6 -12 2 -7
11 -12 21 -10 9 2 16 -2 16 -9 0 -6 12 -26 28 -45 49 -60 164 -218 324 -444
14 -21 25 -46 25 -56 -1 -10 3 -19 10 -19 6 0 36 -31 65 -70 73 -96 88 -121
88 -146 0 -14 5 -19 14 -16 17 7 76 -73 76 -102 0 -12 6 -21 13 -21 18 0 119
-136 115 -157 -2 -12 3 -18 14 -17 9 1 31 -14 49 -32 26 -27 29 -34 15 -34
-10 0 -15 -5 -11 -13 4 -6 -14 11 -39 38 -25 28 -53 65 -61 83 -9 17 -19 32
-24 32 -4 0 -66 77 -137 171 -171 226 -182 241 -166 247 6 2 10 8 7 12 -3 5
-12 7 -19 4 -8 -3 -27 12 -46 35 -17 23 -37 38 -42 35 -7 -4 -8 -2 -4 4 6 11
-112 194 -135 207 -5 4 -9 15 -9 26 0 10 -6 19 -12 19 -7 0 -26 18 -41 40 -16
22 -23 40 -17 40 6 0 10 6 7 13 -2 6 -10 11 -16 9 -16 -3 -41 23 -41 43 0 19
-23 45 -39 45 -6 0 -11 4 -11 8 0 5 -8 17 -17 28 -42 46 -73 94 -73 113 0 12
-6 21 -12 21 -7 0 -40 43 -73 95 -70 112 -165 255 -203 306 -53 72 -217 304
-237 335 -11 17 -33 51 -48 74 -33 49 -42 70 -31 69 5 0 43 -52 84 -115z
m-1325 17 c-8 -17 -21 -33 -27 -37 -8 -5 -7 1 3 16 8 14 19 31 23 38 15 25 16
11 1 -17z m-90 -140 c-14 -23 -23 -47 -19 -53 5 -7 3 -8 -6 -3 -10 6 -12 4 -7
-9 5 -11 3 -15 -5 -10 -8 5 -9 2 -5 -9 3 -9 2 -16 -3 -14 -5 1 -16 -7 -25 -18
-11 -13 -9 -6 4 18 25 45 26 54 6 37 -13 -11 -14 -10 -9 4 4 10 13 15 21 11
11 -4 13 -1 9 10 -3 9 -2 14 2 11 4 -3 19 13 32 34 13 22 26 38 28 36 2 -2 -8
-23 -23 -45z m-268 -92 c-35 -69 -69 -138 -76 -154 -42 -104 -76 -168 -151
-285 -16 -25 -44 -74 -63 -110 -19 -36 -59 -108 -89 -160 -30 -52 -57 -103
-61 -112 -3 -10 -14 -18 -22 -18 -10 0 -15 -7 -13 -18 4 -22 -23 -85 -75 -175
-32 -56 -42 -67 -58 -62 -17 6 -19 3 -15 -17 8 -33 -153 -284 -178 -280 -14 3
-16 -1 -11 -18 4 -13 1 -28 -8 -38 -7 -9 -37 -57 -66 -107 -69 -119 -200 -309
-214 -311 -27 -2 -31 -6 -15 -12 15 -6 11 -17 -27 -81 -25 -40 -45 -77 -45
-81 0 -4 -24 -34 -53 -67 -29 -33 -64 -77 -77 -99 -13 -21 -30 -45 -37 -52 -8
-8 -20 -27 -29 -44 -8 -16 -18 -27 -21 -24 -7 7 34 77 114 193 35 51 59 93 54
93 -6 0 -26 -25 -46 -55 -19 -30 -37 -55 -40 -55 -14 0 -2 33 19 51 14 12 22
27 19 34 -2 8 0 23 7 34 24 45 -11 18 -52 -40 -23 -34 -44 -57 -45 -52 -5 13
43 109 73 150 13 17 24 35 24 38 0 4 31 52 68 108 114 169 162 245 204 326 80
150 129 226 311 481 16 22 33 40 38 40 5 0 9 7 9 16 0 15 96 162 195 299 51
70 127 179 199 285 28 41 70 101 93 134 24 32 43 63 43 68 0 5 13 28 28 51 16
23 55 90 87 149 33 59 61 106 62 104 2 -2 -25 -59 -60 -127z m1860 -91 c91
-128 218 -315 247 -365 16 -28 -5 -11 -26 21 -90 134 -129 185 -311 406 -38
47 -46 62 -34 76 7 7 13 13 14 14 0 0 50 -69 110 -152z m-1687 63 c-11 -22
-25 -43 -32 -47 -8 -5 -7 1 3 16 9 14 21 35 28 48 6 12 14 22 17 22 2 0 -5
-18 -16 -39z m-6 -56 c-4 -8 -11 -15 -16 -15 -6 0 -5 6 2 15 7 8 14 15 16 15
2 0 1 -7 -2 -15z m-88 -72 c-38 -72 -75 -130 -76 -115 0 16 12 40 56 110 42
65 52 68 20 5z m1960 -38 c31 -47 55 -87 53 -90 -4 -3 -43 53 -104 148 -9 15
-15 27 -11 27 3 0 31 -38 62 -85z m-1928 20 c-6 -14 -15 -25 -20 -25 -5 0 -1
11 8 25 9 14 18 25 20 25 2 0 -2 -11 -8 -25z m-54 -85 c-15 -27 -36 -58 -47
-67 -17 -16 -17 -14 3 17 12 19 31 50 42 68 31 50 32 38 2 -18z m2146 -114 c0
-6 -11 5 -25 24 -14 19 -25 36 -25 39 1 10 50 -53 50 -63z m-15 -24 c14 -21
45 -68 70 -105 25 -38 40 -67 33 -65 -11 4 -73 94 -139 202 -21 35 10 7 36
-32z m-2965 -111 c-28 -44 -59 -86 -67 -92 -8 -7 -26 -36 -40 -63 -42 -84 -92
-164 -204 -321 -58 -82 -138 -204 -177 -270 -40 -66 -100 -160 -134 -208 -134
-188 -232 -331 -322 -470 -32 -49 -59 -87 -62 -84 -3 2 19 42 47 88 29 46 64
103 78 127 205 334 573 884 893 1333 54 75 45 46 -12 -40z m670 30 c-13 -25
-13 -34 1 -25 12 7 -14 -46 -41 -86 -36 -53 -130 -208 -130 -215 0 -4 9 3 20
16 28 34 24 19 -5 -22 -14 -19 -30 -34 -36 -34 -10 0 -29 -24 -29 -38 0 -5 5
-5 11 -2 6 4 5 -2 -3 -14 -7 -12 -15 -16 -16 -11 -7 20 -72 -93 -67 -115 3
-11 2 -14 -1 -7 -3 6 -10 10 -15 6 -5 -3 -9 1 -9 8 -1 8 -6 6 -15 -6 -24 -31
-17 -2 8 35 12 19 40 63 61 99 89 149 149 241 153 236 3 -3 -9 -26 -26 -52
-18 -25 -30 -48 -28 -50 4 -4 107 153 107 163 0 3 -7 0 -15 -7 -25 -21 -17 -3
31 70 45 67 66 92 44 51z m30 -1 c0 -5 -5 -10 -11 -10 -5 0 -7 5 -4 10 3 6 8
10 11 10 2 0 4 -4 4 -10z m2420 -152 c18 -29 55 -87 82 -128 43 -66 45 -70 13
-35 -32 36 -135 196 -135 210 0 13 10 1 40 -47z m173 -160 c84 -130 141 -227
135 -233 -5 -5 -49 62 -136 205 -77 126 -84 140 -77 140 3 0 38 -51 78 -112z
m-586 -233 c41 -60 113 -166 159 -235 47 -69 123 -179 170 -245 46 -66 97
-140 112 -164 15 -24 59 -91 97 -148 39 -58 88 -134 110 -169 22 -35 63 -92
90 -126 28 -35 79 -103 114 -153 36 -49 85 -114 110 -142 25 -29 66 -76 91
-104 25 -29 59 -60 75 -70 17 -11 25 -19 19 -19 -39 0 -201 140 -249 215 -10
17 -39 56 -64 87 -25 31 -60 76 -77 100 -17 24 -67 93 -111 153 -44 61 -133
189 -198 285 -65 96 -140 207 -166 245 -41 61 -175 275 -423 675 -90 146 -94
168 -6 35 40 -60 106 -159 147 -220z m628 104 c31 -44 55 -88 53 -97 -2 -12
-17 3 -46 45 -23 34 -42 65 -42 69 0 5 -12 21 -27 36 -20 21 -23 28 -11 28 9
0 42 -36 73 -81z m-2861 -4 c-4 -8 -8 -15 -10 -15 -2 0 -4 7 -4 15 0 8 4 15
10 15 5 0 7 -7 4 -15z m2795 -80 c0 -5 -13 6 -29 25 -16 19 -30 39 -30 45 0 5
13 -6 30 -25 16 -19 29 -39 29 -45z m175 -76 c15 -22 30 -38 33 -36 3 3 -2 16
-11 29 -18 25 -20 38 -7 38 12 0 86 -109 93 -137 9 -33 3 -29 -31 21 -21 30
-36 43 -48 40 -12 -3 -27 9 -45 35 -30 42 -33 51 -19 51 4 0 21 -18 35 -41z
m-84 -45 c0 -4 -9 1 -20 11 -11 10 -20 23 -20 28 0 6 9 1 20 -11 11 -12 20
-24 20 -28z m188 -114 c14 -25 31 -49 38 -55 21 -19 106 -146 101 -151 -7 -7
-207 276 -207 293 1 12 38 -36 68 -87z m-3308 51 c-5 -11 -15 -23 -20 -26 -6
-3 -10 -12 -10 -18 0 -7 12 1 25 16 14 15 25 23 25 16 0 -7 7 -4 15 7 9 10 6
-1 -6 -25 -25 -53 -159 -271 -165 -271 -3 0 0 9 6 21 7 11 10 23 8 25 -3 2
-28 -38 -56 -89 -80 -143 -138 -231 -146 -219 -4 6 4 28 18 49 63 99 276 453
276 460 0 10 -27 -32 -190 -297 -72 -118 -154 -249 -180 -290 -73 -111 -82
-130 -64 -130 8 0 24 19 35 43 30 65 69 127 80 127 14 0 11 -7 -21 -52 -16
-22 -30 -46 -30 -52 0 -6 -23 -45 -50 -85 -28 -41 -50 -79 -49 -85 3 -25 -2
-37 -12 -30 -6 3 -15 0 -20 -7 -12 -20 -11 -37 2 -19 9 13 10 13 6 0 -2 -8
-10 -15 -17 -15 -7 0 -15 -6 -18 -14 -3 -9 0 -11 9 -6 8 5 11 5 7 1 -3 -4 -10
-8 -15 -8 -9 -1 -32 -29 -33 -41 0 -5 5 -5 12 -1 7 4 8 3 4 -5 -4 -6 -11 -9
-15 -6 -5 2 -22 -17 -39 -43 -17 -26 -45 -60 -63 -77 -34 -32 -33 -29 19 55
35 54 54 84 147 228 25 41 45 76 43 78 -3 2 -33 -41 -67 -96 -34 -55 -64 -100
-65 -100 -2 0 -3 15 -2 33 1 17 7 32 14 32 17 0 44 43 36 57 -4 7 -3 8 4 4 7
-4 12 -5 12 -2 0 2 3 13 6 23 5 15 4 16 -6 3 -8 -10 -10 -11 -8 -2 2 8 6 12 9
10 12 -6 40 26 35 39 -3 8 -2 12 3 9 11 -7 23 22 15 35 -3 5 -1 8 4 7 11 -3
73 76 98 124 9 18 29 51 44 73 15 22 42 67 60 100 18 33 43 74 56 92 13 17 24
35 24 39 0 4 15 30 33 58 19 28 60 92 92 141 57 88 84 125 92 125 2 0 -1 -9
-7 -19z m3460 -223 c15 -21 17 -28 6 -19 -16 13 -41 51 -33 51 2 0 14 -15 27
-32z m98 -33 c-3 -3 -9 2 -12 12 -6 14 -5 15 5 6 7 -7 10 -15 7 -18z m-49 -67
c13 -16 26 -26 29 -23 3 3 -5 16 -18 30 -13 14 -18 25 -12 25 16 0 45 -47 37
-60 -3 -5 6 -26 22 -47 17 -22 22 -34 13 -31 -8 2 -20 15 -26 27 -7 12 -25 37
-41 54 -16 18 -36 41 -44 51 -22 31 10 9 40 -26z m-3785 -10 c-3 -4 -9 -8 -15
-8 -5 0 -9 4 -9 8 0 5 7 9 15 9 8 0 12 -4 9 -9z m-72 -120 c-27 -46 -71 -119
-97 -163 -152 -254 -225 -368 -233 -361 -2 3 7 30 22 59 14 30 26 58 26 63 0
12 98 177 157 266 24 36 54 69 66 72 11 3 18 8 15 11 -4 4 7 29 23 56 16 28
29 53 29 56 0 8 34 32 39 28 2 -3 -19 -42 -47 -87z m4053 -46 c-6 -17 73 -109
154 -178 73 -63 145 -166 136 -195 -4 -13 -2 -19 9 -19 9 0 16 -4 16 -10 0 -5
-4 -10 -10 -10 -15 0 -193 180 -186 187 4 4 36 -26 72 -65 61 -67 84 -84 84
-64 0 11 -35 48 -56 60 -10 5 -18 20 -19 33 -1 16 -8 24 -19 23 -9 -1 -16 3
-16 10 0 6 -19 29 -41 51 -63 63 -165 190 -146 182 9 -3 17 -4 17 -2 0 5 -35
47 -70 85 -8 9 -21 25 -29 35 -7 11 14 -9 47 -45 34 -36 59 -71 57 -78z m-26
-32 c59 -72 70 -90 54 -90 -18 1 -145 154 -136 164 11 11 18 4 82 -74z m129
-169 c-16 -5 -62 45 -53 59 5 8 16 1 35 -22 16 -18 24 -35 18 -37z m-74 34 c6
-11 21 -28 34 -38 12 -10 22 -25 22 -33 0 -8 8 -18 18 -21 17 -7 244 -235 238
-240 -2 -2 -9 3 -16 12 -7 8 -19 15 -27 15 -14 0 -113 87 -111 99 2 21 -4 32
-16 28 -8 -3 -30 12 -53 36 -114 122 -134 147 -128 157 9 15 26 8 39 -15z
m-44 -150 c13 -14 21 -25 18 -25 -2 0 -15 11 -28 25 -13 14 -21 25 -18 25 2 0
15 -11 28 -25z m-4126 -67 c-24 -47 -144 -228 -151 -228 -3 0 1 10 9 23 8 12
36 58 63 102 70 116 118 179 79 103z m4318 -5 c23 -28 33 -50 12 -28 -10 11
-25 26 -33 33 -8 6 -10 12 -4 12 5 0 17 -8 25 -17z m-181 -36 c-13 -13 -26 -3
-16 12 3 6 11 8 17 5 6 -4 6 -10 -1 -17z m49 -125 c40 -46 105 -111 146 -145
78 -65 91 -87 24 -43 -71 47 -260 252 -260 282 0 9 -4 14 90 -94z m-4624 43
c-15 -19 -26 -38 -26 -43 0 -5 -9 -17 -20 -27 -11 -10 -20 -22 -20 -27 0 -5
-24 -46 -53 -91 -29 -45 -73 -117 -97 -159 -24 -43 -45 -76 -47 -74 -5 5 82
171 140 266 97 158 127 201 138 195 6 -4 0 -20 -15 -40z m219 -37 c-19 -29
-35 -47 -35 -40 0 7 -4 10 -10 7 -17 -11 -11 4 27 61 29 43 38 52 45 40 6 -11
-2 -31 -27 -68z m4303 6 c13 -20 21 -38 18 -42 -3 -3 -6 -1 -6 4 0 5 -11 22
-25 38 -27 31 -29 36 -17 36 4 0 17 -16 30 -36z m352 -31 c0 -8 -38 17 -51 33
-9 11 -2 9 19 -6 17 -13 32 -25 32 -27z m-4736 -9 c-50 -92 -119 -194 -169
-249 -40 -43 -42 -47 120 198 55 84 83 113 49 51z m4668 -16 c29 -28 44 -46
33 -40 -23 12 -103 92 -92 92 4 0 31 -23 59 -52z m-4848 -38 c-10 -16 -20 -27
-22 -25 -5 5 26 55 34 55 3 0 -3 -13 -12 -30z m29 5 c-3 -9 -8 -14 -10 -11 -3
3 -2 9 2 15 9 16 15 13 8 -4z m33 -47 c-82 -122 -102 -151 -124 -176 l-24 -27
21 32 c33 49 24 62 -14 21 -51 -55 -43 -36 16 38 51 65 78 89 38 34 -13 -16
-20 -32 -17 -35 3 -3 33 35 68 85 67 96 96 119 36 28z m4789 -12 c44 -43 52
-54 30 -42 -48 25 -133 103 -109 102 10 -1 46 -28 79 -60z m-4552 19 c-3 -9
-8 -14 -10 -11 -3 3 -2 9 2 15 9 16 15 13 8 -4z m-327 -53 c-17 -16 -18 -16
-5 5 7 12 15 20 18 17 3 -2 -3 -12 -13 -22z m4905 -80 c-7 -2 -30 12 -50 33
l-36 37 49 -33 c28 -18 44 -35 37 -37z m-5203 -47 c-6 -14 -13 -23 -15 -21 -5
5 15 46 22 46 3 0 -1 -11 -7 -25z m155 -71 c-14 -25 -27 -43 -30 -41 -6 7 38
87 47 87 5 0 -3 -20 -17 -46z m-113 -14 c0 -5 -5 -10 -11 -10 -5 0 -7 5 -4 10
3 6 8 10 11 10 2 0 4 -4 4 -10z m135 -9 c-3 -6 -11 -11 -17 -11 -6 0 -6 6 2
15 14 17 26 13 15 -4z"/>
<path d="M600 6745 c-19 -19 -38 -35 -42 -35 -4 0 -8 -4 -8 -10 0 -18 14 -10
65 35 27 25 43 45 35 45 -8 0 -31 -16 -50 -35z"/>
<path d="M297 478 c-4 -12 -4 -24 -1 -27 6 -7 24 20 24 37 0 21 -17 13 -23
-10z"/>
<path d="M3105 4680 c4 -6 11 -8 16 -5 14 9 11 15 -7 15 -8 0 -12 -5 -9 -10z"/>
<path d="M2980 4474 c0 -8 5 -12 10 -9 6 3 10 10 10 16 0 5 -4 9 -10 9 -5 0
-10 -7 -10 -16z"/>
<path d="M3360 4955 c0 -8 5 -15 10 -15 6 0 10 7 10 15 0 8 -4 15 -10 15 -5 0
-10 -7 -10 -15z"/>
<path d="M2482 3602 c-9 -15 -10 -28 -3 -40 9 -16 10 -16 16 0 4 9 5 27 3 40
l-3 23 -13 -23z"/>
<path d="M2415 3500 c-3 -5 1 -10 10 -10 9 0 13 5 10 10 -3 6 -8 10 -10 10 -2
0 -7 -4 -10 -10z"/>
<path d="M2015 2850 c3 -5 8 -10 11 -10 2 0 4 5 4 10 0 6 -5 10 -11 10 -5 0
-7 -4 -4 -10z"/>
<path d="M1886 2671 c-4 -7 -5 -15 -2 -18 9 -9 19 4 14 18 -4 11 -6 11 -12 0z"/>
<path d="M1820 2504 c0 -8 5 -12 10 -9 6 3 10 10 10 16 0 5 -4 9 -10 9 -5 0
-10 -7 -10 -16z"/>
<path d="M2320 4660 c0 -5 5 -10 10 -10 6 0 10 5 10 10 0 6 -4 10 -10 10 -5 0
-10 -4 -10 -10z"/>
<path d="M2380 4580 c6 -11 15 -20 21 -20 6 0 6 7 -1 20 -6 11 -15 20 -21 20
-6 0 -6 -7 1 -20z"/>
<path d="M2070 4947 c0 -9 9 -21 20 -27 11 -6 20 -7 20 -2 0 5 -9 17 -20 27
-18 16 -20 16 -20 2z"/>
<path d="M2086 4886 c3 -9 11 -16 16 -16 13 0 5 23 -10 28 -7 2 -10 -2 -6 -12z"/>
<path d="M2160 4800 c0 -5 5 -10 11 -10 5 0 7 5 4 10 -3 6 -8 10 -11 10 -2 0
-4 -4 -4 -10z"/>
<path d="M2240 4680 c0 -5 5 -10 10 -10 6 0 10 5 10 10 0 6 -4 10 -10 10 -5 0
-10 -4 -10 -10z"/>
<path d="M2265 4591 c-3 -5 -1 -12 5 -16 5 -3 10 1 10 9 0 18 -6 21 -15 7z"/>
<path d="M220 555 c0 -8 5 -15 10 -15 6 0 10 7 10 15 0 8 -4 15 -10 15 -5 0
-10 -7 -10 -15z"/>
<path d="M176 481 c-4 -5 -2 -12 3 -15 5 -4 12 -2 15 3 4 5 2 12 -3 15 -5 4
-12 2 -15 -3z"/>
<path d="M2950 3800 c0 -5 5 -10 10 -10 6 0 10 5 10 10 0 6 -4 10 -10 10 -5 0
-10 -4 -10 -10z"/>
<path d="M4210 1985 c0 -8 5 -15 10 -15 6 0 10 7 10 15 0 8 -4 15 -10 15 -5 0
-10 -7 -10 -15z"/>
<path d="M4230 1946 c0 -8 5 -18 10 -21 6 -3 10 1 10 9 0 8 -4 18 -10 21 -5 3
-10 -1 -10 -9z"/>
<path d="M4485 1600 c-3 -5 1 -10 10 -10 9 0 13 5 10 10 -3 6 -8 10 -10 10 -2
0 -7 -4 -10 -10z"/>
<path d="M4640 1180 c0 -5 5 -10 10 -10 6 0 10 5 10 10 0 6 -4 10 -10 10 -5 0
-10 -4 -10 -10z"/>
<path d="M4715 1080 c-4 -6 -3 -16 3 -22 6 -6 12 -6 17 2 4 6 3 16 -3 22 -6 6
-12 6 -17 -2z"/>
<path d="M4830 911 c0 -13 29 -35 37 -28 7 8 -15 37 -28 37 -5 0 -9 -4 -9 -9z"/>
<path d="M5025 790 c3 -5 8 -10 11 -10 2 0 4 5 4 10 0 6 -5 10 -11 10 -5 0 -7
-4 -4 -10z"/>
<path d="M5190 385 c0 -8 5 -15 10 -15 6 0 10 7 10 15 0 8 -4 15 -10 15 -5 0
-10 -7 -10 -15z"/>
<path d="M3170 3631 c0 -5 5 -13 10 -16 6 -3 10 -2 10 4 0 5 -4 13 -10 16 -5
3 -10 2 -10 -4z"/>
<path d="M4350 1390 c0 -5 5 -10 11 -10 5 0 7 5 4 10 -3 6 -8 10 -11 10 -2 0
-4 -4 -4 -10z"/>
<path d="M4350 1295 c7 -8 17 -15 22 -15 6 0 5 7 -2 15 -7 8 -17 15 -22 15 -6
0 -5 -7 2 -15z"/>
<path d="M4390 1303 c0 -5 14 -29 30 -51 33 -47 38 -61 13 -41 -14 12 -16 12
-11 -1 3 -8 13 -14 22 -14 20 2 61 -52 46 -61 -14 -9 -2 -25 14 -19 9 3 36
-25 73 -78 78 -108 77 -106 62 -124 -10 -12 -10 -15 1 -12 7 2 15 -3 18 -11 3
-9 0 -11 -8 -6 -9 5 -11 4 -6 -4 4 -6 11 -9 16 -6 4 3 29 -27 55 -65 26 -39
50 -70 52 -70 5 0 -6 19 -64 105 -24 36 -30 51 -19 53 10 2 6 11 -13 31 -14
15 -54 68 -88 117 -110 156 -193 267 -193 257z"/>
<path d="M4552 1023 c18 -29 37 -52 41 -52 11 -1 -7 29 -43 69 l-31 35 33 -52z"/>
<path d="M4791 778 c-1 -4 28 -55 64 -114 36 -59 64 -109 61 -111 -3 -3 -26
25 -53 63 -65 91 -105 135 -51 56 24 -35 50 -73 58 -86 41 -60 73 -95 83 -89
6 3 7 1 3 -6 -8 -12 50 -86 67 -86 5 0 39 -29 74 -65 36 -36 63 -60 61 -53 -1
6 -37 47 -79 91 -67 69 -131 157 -235 323 -49 79 -53 84 -53 77z m150 -250
c11 -21 11 -22 -4 -9 -10 7 -17 17 -17 22 0 15 9 10 21 -13z"/>
<path d="M3420 3201 c0 -6 5 -13 10 -16 6 -3 10 1 10 9 0 9 -4 16 -10 16 -5 0
-10 -4 -10 -9z"/>
<path d="M3670 2795 c0 -8 7 -15 15 -15 8 0 15 4 15 9 0 5 -7 11 -15 15 -9 3
-15 0 -15 -9z"/>
<path d="M3802 2619 c2 -7 10 -15 17 -17 8 -3 12 1 9 9 -2 7 -10 15 -17 17 -8
3 -12 -1 -9 -9z"/>
<path d="M3830 2580 c0 -5 5 -10 10 -10 6 0 10 5 10 10 0 6 -4 10 -10 10 -5 0
-10 -4 -10 -10z"/>
<path d="M4985 1020 c3 -5 8 -10 11 -10 2 0 4 5 4 10 0 6 -5 10 -11 10 -5 0
-7 -4 -4 -10z"/>
<path d="M1480 1860 c0 -5 5 -10 10 -10 6 0 10 5 10 10 0 6 -4 10 -10 10 -5 0
-10 -4 -10 -10z"/>
<path d="M1372 1568 c-14 -14 -16 -28 -2 -28 5 0 14 9 20 20 12 22 1 27 -18 8z"/>
<path d="M1260 1514 c0 -9 5 -14 12 -12 18 6 21 28 4 28 -9 0 -16 -7 -16 -16z"/>
<path d="M1325 1519 c-4 -6 -5 -13 -2 -16 7 -7 27 6 27 18 0 12 -17 12 -25 -2z"/>
<path d="M1125 1201 c-6 -11 9 -23 19 -14 9 9 7 23 -3 23 -6 0 -12 -4 -16 -9z"/>
<path d="M1092 1148 c2 -6 10 -14 16 -16 7 -2 10 2 6 12 -7 18 -28 22 -22 4z"/>
<path d="M1005 1049 c-10 -15 3 -25 16 -12 7 7 7 13 1 17 -6 3 -14 1 -17 -5z"/>
<path d="M760 750 c0 -5 5 -10 10 -10 6 0 10 5 10 10 0 6 -4 10 -10 10 -5 0
-10 -4 -10 -10z"/>
<path d="M810 745 c0 -8 0 -18 -1 -22 0 -4 4 -9 10 -11 6 -2 11 8 11 22 0 14
-4 26 -10 26 -5 0 -10 -7 -10 -15z"/>
<path d="M1901 2187 c-30 -49 -26 -59 5 -14 14 21 24 41 21 43 -3 3 -14 -10
-26 -29z"/>
<path d="M1748 1942 c-103 -171 -128 -215 -124 -219 2 -3 12 10 22 29 9 18 25
44 34 58 35 52 92 151 88 155 -2 2 -11 -8 -20 -23z"/>
<path d="M1755 1909 c-4 -6 -5 -12 -2 -15 2 -3 7 2 10 11 7 17 1 20 -8 4z"/>
<path d="M1461 1419 c-34 -57 -61 -107 -61 -113 0 -5 29 39 65 99 36 59 63
110 61 112 -2 3 -32 -42 -65 -98z"/>
<path d="M845 520 c-24 -38 -34 -64 -17 -44 16 17 54 84 48 84 -3 0 -17 -18
-31 -40z"/>
<path d="M2725 1960 c-308 -62 -500 -391 -401 -688 70 -210 242 -346 454 -359
319 -19 567 215 564 532 -1 160 -54 279 -171 387 -121 112 -287 160 -446 128z
m250 -40 c82 -28 144 -67 156 -96 12 -34 11 -40 -3 -26 -31 31 -38 2 -8 -35
11 -14 20 -34 20 -45 0 -16 -3 -17 -21 -8 -31 17 -34 5 -10 -33 20 -33 28 -77
14 -77 -3 0 -15 7 -25 17 -17 15 -18 15 -18 -3 1 -10 7 -30 15 -44 17 -29 18
-49 6 -69 -8 -12 -12 -13 -25 -1 -25 20 -32 3 -13 -29 30 -50 13 -106 -18 -65
-14 18 -14 18 -15 1 0 -10 6 -30 13 -45 8 -15 11 -38 8 -51 -6 -21 -8 -22 -20
-7 -24 28 -33 5 -11 -30 11 -20 20 -48 20 -65 0 -26 -2 -28 -20 -17 -33 21
-34 0 -1 -37 39 -45 43 -113 4 -74 -7 7 -13 7 -17 1 -6 -10 17 -31 60 -59 17
-10 13 -14 -39 -37 -70 -32 -182 -50 -252 -41 -107 13 -231 65 -220 93 3 7 5
19 5 25 0 7 9 1 20 -13 26 -34 36 -19 16 24 -18 37 -20 74 -7 95 7 10 11 9 23
-8 8 -11 17 -18 21 -15 7 8 -2 33 -25 66 -17 25 -25 78 -12 78 4 0 13 -8 20
-17 7 -10 16 -15 20 -11 7 7 -18 51 -43 76 -7 7 -13 18 -13 23 0 12 17 12 25
-1 3 -5 10 -10 16 -10 18 0 8 27 -21 55 -16 16 -30 37 -30 47 0 22 13 23 30 3
9 -11 16 -13 24 -5 7 7 0 19 -26 40 -19 16 -38 39 -41 50 -6 24 5 26 23 5 9
-11 16 -13 24 -5 7 7 -2 22 -32 49 -42 38 -56 69 -27 57 8 -3 22 -9 30 -12 27
-11 16 13 -20 45 -19 17 -35 37 -35 46 0 19 7 19 27 0 27 -27 36 -4 9 24 -33
34 -35 61 -4 53 21 -5 21 -4 5 19 -9 13 -17 27 -17 31 0 11 114 67 158 77 72
17 214 13 277 -9z m-494 -149 c-31 -43 -25 -70 8 -38 11 10 12 7 6 -13 -4 -14
-14 -34 -21 -45 -20 -28 -17 -41 4 -22 10 10 22 17 25 17 14 0 6 -57 -13 -95
-24 -47 -24 -45 -6 -45 8 0 18 10 21 21 6 17 9 19 16 8 16 -25 10 -68 -13 -89
l-22 -20 22 0 c12 0 22 5 22 10 0 6 5 10 10 10 19 0 10 -57 -15 -94 -39 -58
-32 -77 10 -28 l24 27 1 -34 c0 -21 -9 -46 -25 -67 -41 -53 -31 -76 11 -26
l24 27 0 -28 c0 -20 -11 -40 -35 -64 -19 -19 -35 -37 -35 -39 0 -10 25 -2 42
13 33 30 22 -16 -12 -49 -35 -33 -38 -42 -10 -35 21 5 28 -7 10 -18 -11 -7
-63 28 -97 65 -46 50 -93 161 -104 247 -20 154 20 290 121 405 45 52 68 52 31
-1z m785 -99 c42 -88 54 -142 54 -240 0 -80 -4 -104 -31 -172 -19 -51 -48
-101 -79 -138 -71 -85 -131 -112 -95 -42 20 39 10 54 -15 23 l-18 -23 -6 26
c-5 17 0 40 13 67 22 44 21 57 -4 37 -13 -10 -15 -9 -15 7 0 18 25 62 43 74 5
4 5 9 -1 13 -6 3 -13 2 -17 -4 -3 -5 -10 -10 -16 -10 -13 0 18 70 42 96 12 13
16 24 10 28 -5 4 -12 2 -16 -4 -3 -5 -10 -10 -15 -10 -14 0 9 56 36 85 28 30
30 40 9 31 -20 -7 -20 18 0 34 25 21 58 71 51 77 -3 3 -15 -2 -26 -12 -20 -18
-20 -17 -20 10 0 15 11 41 25 57 26 31 25 59 -1 37 -19 -15 -18 -4 2 27 l17
25 24 -22 c13 -13 35 -47 49 -77z"/>
</g>
</svg>
