<?xml version="1.0" encoding="utf-8"?>
<!-- Generator: Adobe Illustrator 18.1.1, SVG Export Plug-In . SVG Version: 6.00 Build 0)  -->
<svg version="1.1" id="Capa_1" xmlns="http://www.w3.org/2000/svg" xmlns:xlink="http://www.w3.org/1999/xlink" x="0px" y="0px"
	 viewBox="0 0 100 100" enable-background="new 0 0 100 100" xml:space="preserve">
<g>
	<g>
		<path fill="#6AB023" d="M0,34v4v58v4h100v-4V38v-4H0z M41.4,44.1c0.9-1.7,2.2-2.9,3.8-3.8c1.6-0.8,3.4-1.3,5.5-1.3
			c1.7,0,3.3,0.4,4.7,1c1.4,0.7,2.4,1.7,3.1,2.9c0.7,1.3,1.1,2.6,1.1,4.1c0,1.8-0.5,3.3-1.6,4.8c-1.4,1.8-3.1,2.7-5.2,2.7
			c-0.6,0-1-0.1-1.3-0.3c-0.3-0.2-0.5-0.5-0.6-0.9c-0.8,0.8-1.7,1.2-2.8,1.2c-1.1,0-2.1-0.4-2.9-1.2c-0.8-0.8-1.1-1.9-1.1-3.2
			c0-1.6,0.4-3.1,1.3-4.4c1.1-1.6,2.5-2.5,4.3-2.5c1.2,0,2.2,0.5,2.7,1.4l0.3-1.1h2.7L53.7,51c-0.1,0.5-0.2,0.8-0.2,0.9
			c0,0.2,0,0.3,0.1,0.4c0.1,0.1,0.2,0.1,0.3,0.1c0.3,0,0.8-0.2,1.3-0.6c0.7-0.5,1.3-1.2,1.7-2.1c0.4-0.9,0.7-1.8,0.7-2.8
			c0-1.7-0.6-3.1-1.8-4.3c-1.2-1.1-3-1.7-5.2-1.7c-1.9,0-3.4,0.4-4.8,1.2c-1.3,0.8-2.3,1.9-3,3.3c-0.7,1.4-1,2.8-1,4.3
			c0,1.5,0.3,2.8,1.1,4c0.7,1.2,1.8,2,3.1,2.6c1.3,0.5,2.8,0.8,4.6,0.8c1.6,0,3.1-0.2,4.3-0.7c1.2-0.5,2.1-1.2,2.9-2.1H60
			c-0.7,1.4-1.8,2.5-3.2,3.3c-1.6,0.9-3.6,1.4-6,1.4c-2.3,0-4.3-0.4-5.9-1.2c-1.7-0.8-2.9-1.9-3.7-3.4c-0.8-1.5-1.2-3.2-1.2-4.9
			C40,47.6,40.5,45.7,41.4,44.1z M96,40.5L66,66l30,28.3V96h-4L62.9,68.7L50,79.6l-12.9-11L8,96H4v-1.7L34,66L4,40.5V38h3.3L50,74.4
			L92.7,38H96L96,40.5L96,40.5z"/>
		<path fill="#6AB023" d="M49.8,45.1c-0.6,0-1.2,0.2-1.7,0.7c-0.5,0.5-0.9,1.1-1.1,2c-0.3,0.9-0.4,1.6-0.4,2.3
			c0,0.9,0.2,1.5,0.5,1.9c0.4,0.4,0.8,0.6,1.3,0.6c0.4,0,0.8-0.1,1.1-0.3c0.3-0.1,0.5-0.4,0.8-0.7c0.4-0.4,0.7-1,0.9-1.8
			c0.3-0.8,0.4-1.5,0.4-2.3c0-0.8-0.2-1.4-0.6-1.8C50.8,45.3,50.3,45.1,49.8,45.1z"/>
	</g>
</g>
</svg>
