<?xml version="1.0" encoding="utf-8"?>
<!-- Generator: Adobe Illustrator 19.1.0, SVG Export Plug-In . SVG Version: 6.00 Build 0)  -->
<svg version="1.1" id="Ebene_1" xmlns="http://www.w3.org/2000/svg" xmlns:xlink="http://www.w3.org/1999/xlink" x="0px" y="0px"
	 viewBox="-36 8 46 46" style="enable-background:new -36 8 46 46;" xml:space="preserve">
<style type="text/css">
	.st0{fill:#7BBB3C;stroke:#FFFFFF;stroke-width:2;stroke-miterlimit:10;}
	.st1{fill:#FFFFFF;}
</style>
<g id="Ebene_32">
</g>
<g id="Design">
	<g id="Testen_2_">
	</g>
	<g id="Header_V2_4_">
	</g>
	<g id="Testen_1_">
	</g>
	<g id="Neues_Symbol_1_2_">
	</g>
	<g id="Neues_Symbol_1_1_">
	</g>
	<g id="Neues_Symbol_1">
	</g>
	<g id="Logo">
	</g>
	<g id="Header_V2_1_">
		<g id="Header_V2_3_">
		</g>
		<g id="Header_V2_5_">
		</g>
	</g>
	<g id="Header_V2">
	</g>
	<g id="Arbeit">
	</g>
	<g id="Audit">
	</g>
	<g id="Gefahr">
	</g>
	<g id="Öko">
	</g>
	<g id="Legal">
	</g>
	<g id="Online">
	</g>
	<g id="Prozess">
	</g>
	<g id="Nachhaltigkeit">
	</g>
	<g id="Öko_1_">
	</g>
	<g id="Logo_1_">
	</g>
	<g id="Öko_2_">
	</g>
	<g id="Header_V2_2_">
	</g>
	<g id="_x32_2_2_">
	</g>
	<g id="Header_V2_6_">
	</g>
	<g id="Header_V2_7_">
		<g id="_x32_2">
			<g id="_x32_2_1_">
			</g>
		</g>
		<g id="Header_V2_8_">
		</g>
	</g>
	<g id="Testen">
	</g>
	<g id="Neues_Symbol_3">
	</g>
	<g id="Testen_3_">
	</g>
	<g>
		<g>
			<g>
				<path class="st0" d="M-13,9.2C-24.9,9.2-34.5,19-34.5,31s9.6,21.8,21.5,21.8S8.4,43.1,8.4,31C8.5,18.9-1.1,9.2-13,9.2z"/>
			</g>
		</g>
		<g>
			<path class="st1" d="M-11.1,23.9H-8c-3.2,3.2-3.6,3.6-8.3,8.2c-0.6,0.5-0.6,1.5,0,2.1c0.3,0.3,0.7,0.4,1.1,0.4s0.7-0.2,1.1-0.4
				c4.7-4.6,5.1-5,8.3-8.2l0.1-0.1v2.7c0,0.8,0.6,1.5,1.5,1.5c0.8,0,1.5-0.6,1.5-1.5v-6.2c0-0.8-0.6-1.5-1.5-1.5H-11
				c-0.8,0-1.5,0.6-1.5,1.5C-12.6,23.2-11.9,23.9-11.1,23.9z"/>
			<path class="st1" d="M-4,31.7c-0.7,0-1.3,0.6-1.3,1.3v5.6h-15.2V23.3h5c0.7,0,1.3-0.6,1.3-1.3c0-0.7-0.6-1.3-1.3-1.3h-6.4
				c-0.7,0-1.3,0.6-1.3,1.3V40c0,0.7,0.6,1.3,1.3,1.3h18c0.7,0,1.3-0.6,1.3-1.3v-6.9C-2.6,32.3-3.2,31.7-4,31.7z"/>
		</g>
	</g>
</g>
</svg>
