<?xml version="1.0" encoding="UTF-8" standalone="no"?>
<!-- Created with Inkscape (http://www.inkscape.org/) -->

<svg
   xmlns:dc="http://purl.org/dc/elements/1.1/"
   xmlns:cc="http://creativecommons.org/ns#"
   xmlns:rdf="http://www.w3.org/1999/02/22-rdf-syntax-ns#"
   xmlns:svg="http://www.w3.org/2000/svg"
   xmlns="http://www.w3.org/2000/svg"
   xmlns:sodipodi="http://sodipodi.sourceforge.net/DTD/sodipodi-0.dtd"
   xmlns:inkscape="http://www.inkscape.org/namespaces/inkscape"
   width="210mm"
   height="297mm"
   viewBox="0 0 744.09448819 1052.3622047"
   id="svg2"
   version="1.1"
   inkscape:version="0.91 r13725"
   sodipodi:docname="solar-electric.svg">
  <defs
     id="defs4" />
  <sodipodi:namedview
     id="base"
     pagecolor="#ffffff"
     bordercolor="#666666"
     borderopacity="1.0"
     inkscape:pageopacity="0.0"
     inkscape:pageshadow="2"
     inkscape:zoom="1.979899"
     inkscape:cx="50.296114"
     inkscape:cy="932.01094"
     inkscape:document-units="px"
     inkscape:current-layer="layer1"
     showgrid="false"
     inkscape:window-width="1190"
     inkscape:window-height="778"
     inkscape:window-x="-8"
     inkscape:window-y="-8"
     inkscape:window-maximized="1" />
  <metadata
     id="metadata7">
    <rdf:RDF>
      <cc:Work
         rdf:about="">
        <dc:format>image/svg+xml</dc:format>
        <dc:type
           rdf:resource="http://purl.org/dc/dcmitype/StillImage" />
        <dc:title></dc:title>
      </cc:Work>
    </rdf:RDF>
  </metadata>
  <g
     inkscape:label="Layer 1"
     inkscape:groupmode="layer"
     id="layer1">
    <g
       id="g3355">
      <path
         style="color:#000000;font-style:normal;font-variant:normal;font-weight:normal;font-stretch:normal;font-size:medium;line-height:normal;font-family:sans-serif;text-indent:0;text-align:start;text-decoration:none;text-decoration-line:none;text-decoration-style:solid;text-decoration-color:#000000;letter-spacing:normal;word-spacing:normal;text-transform:none;direction:ltr;block-progression:tb;writing-mode:lr-tb;baseline-shift:baseline;text-anchor:start;white-space:normal;clip-rule:nonzero;display:inline;overflow:visible;visibility:visible;opacity:1;isolation:auto;mix-blend-mode:normal;color-interpolation:sRGB;color-interpolation-filters:linearRGB;solid-color:#000000;solid-opacity:1;fill-opacity:1;fill-rule:nonzero;stroke:none;stroke-width:1;stroke-linecap:butt;stroke-linejoin:miter;stroke-miterlimit:4;stroke-dasharray:none;stroke-dashoffset:0;stroke-opacity:1;color-rendering:auto;image-rendering:auto;shape-rendering:auto;text-rendering:auto;enable-background:accumulate"
         d="m 88.740951,163.60279 c 1.82825,34.89434 23.069519,55.2149 53.038079,55.79124 33.40731,0 52.92385,-24.56731 52.92385,-57.97462 0,-33.4073 -21.03177,-55.95431 -54.43908,-55.95431 -37.7337,3.73188 -52.848369,32.83849 -51.522849,58.13769 z m -5.45177,11.45368 c 0,-2.25887 -26.00751,-8.0703 -38.827853,-10.01332 12.788618,-1.35925 33.601893,-1.21614 37.638773,-8.70803 5.57686,-10.34987 -35.361008,-20.62887 -34.471817,-23.10632 15.234666,1.51916 30.120447,7.15451 37.076967,1.59685 3.72378,-2.97498 0.47375,-11.00125 -15.727407,-35.998731 24.787447,18.431491 17.730017,21.926491 24.787447,18.431491 8.132169,-4.02723 4.65606,-20.794411 -5.34161,-39.166472 26.174719,21.88034 20.433649,23.349892 26.174719,21.88034 7.62043,-1.95061 -4.26202,-18.06595 0.23291,-25.65934 1.36786,-2.31075 11.01745,21.35643 16.0899,21.14371 6.2052,-0.26022 7.94303,-24.09435 8.83751,-24.09435 3.68641,0 3.17444,21.92632 7.43116,23.23896 3.78633,1.16759 13.36233,-18.41902 17.51599,-16.85822 4.39267,1.65061 -4.54947,18.28045 -0.14944,20.97622 3.25284,1.992912 17.26393,-13.880619 20.74292,-11.76732 3.66479,2.22617 -10.71387,17.725832 -7.31246,20.641742 6.10358,5.23239 13.65704,-12.337462 20.63071,-7.24183 3.64673,2.66466 -12.44629,12.58656 -9.02014,16.74515 2.90148,3.52176 20.51091,-8.5227 24.55087,-4.92471 2.32424,2.06996 -18.08385,14.64501 -16.25026,17.36992 4.02561,5.98251 18.01369,-4.03495 24.65626,0.67542 2.35612,1.67077 -18.5286,12.88373 -17.0901,15.92137 1.32691,2.802 18.83765,-6.31208 22.78545,-4.45726 2.85354,1.3407 -21.69964,10.65779 -21.01236,13.42782 1.29623,5.22433 25.86151,4.59576 25.86151,5.80478 0,3.46485 -24.61267,1.94723 -25.76324,5.94761 -0.79495,2.76396 23.82295,10.71634 22.84564,13.71486 -1.81535,5.56971 -20.28611,-7.35097 -23.84023,-1.60238 -1.80598,2.92108 16.55687,13.8535 14.68477,17.074 -2.20638,3.79554 -18.44175,-6.77611 -21.33702,-2.99811 -2.02363,2.6406 16.92019,14.76339 14.91049,17.62197 -2.38009,3.38543 -20.56413,-9.46219 -23.62751,-6.26433 -2.35152,2.45475 16.3296,16.20344 14.11433,18.93913 -15.55441,19.20853 -48.90066,32.17005 -60.78165,32.17005 -13.94601,0 -53.603059,-36.88548 -68.210189,-23.13169 3.41926,-3.03682 20.19446,-28.97855 13.94384,-37.40523 -2.96924,-4.00293 -19.143599,-0.68647 -38.008964,5.69346 7.046786,-8.29961 31.260084,-18.83519 31.260084,-25.61721 z"
         id="path3336"
         inkscape:connector-curvature="0"
         sodipodi:nodetypes="scscsscscscscscssssssssssssssssssssssssscscs" />
    </g>
    <path
       style="opacity:1;fill:#ffff00;fill-opacity:1"
       id="path3338-7"
       sodipodi:type="arc"
       sodipodi:cx="-161.38795"
       sodipodi:cy="142.02031"
       sodipodi:rx="53.889599"
       sodipodi:ry="49.34391"
       sodipodi:start="0"
       sodipodi:end="5.9787297"
       sodipodi:open="true"
       d="m -107.49836,142.02031 a 53.889599,49.34391 0 0 1 -49.79181,49.20105 53.889599,49.34391 0 0 1 -57.36419,-41.71851 53.889599,49.34391 0 0 1 41.06782,-55.545636 53.889599,49.34391 0 0 1 63.60982,33.271076"
       transform="matrix(0,-1,1,0,0,0)" />
    <path
       style="opacity:1;fill:#000000;fill-opacity:1"
       id="path3363"
       sodipodi:type="arc"
       sodipodi:cx="142.17897"
       sodipodi:cy="-180.34802"
       sodipodi:rx="33.587574"
       sodipodi:ry="24.496201"
       sodipodi:start="0"
       sodipodi:end="5.9787301"
       sodipodi:open="true"
       d="m 175.76654,-180.34802 a 33.587574,24.496201 0 0 1 -31.03356,24.42528 33.587574,24.496201 0 0 1 -35.75317,-20.71067 33.587574,24.496201 0 0 1 25.5962,-27.57497 33.587574,24.496201 0 0 1 39.64586,16.51705"
       transform="scale(1,-1)" />
    <path
       style="opacity:1;fill:#000000;fill-opacity:1"
       id="path3365"
       sodipodi:type="arc"
       sodipodi:cx="129.55206"
       sodipodi:cy="132.11325"
       sodipodi:rx="14.394674"
       sodipodi:ry="10.101525"
       sodipodi:start="0"
       sodipodi:end="5.3624072"
       d="m 143.94674,132.11325 a 14.394674,10.101525 0 0 1 -11.11029,9.83507 14.394674,10.101525 0 0 1 -16.18028,-5.347 14.394674,10.101525 0 0 1 3.72667,-12.27508 14.394674,10.101525 0 0 1 17.88089,-0.25454 l -8.71167,8.04155 z" />
    <rect
       style="opacity:1;fill:#ffffff;fill-opacity:1"
       id="rect3369"
       width="4.5456862"
       height="9.5964489"
       x="138.89598"
       y="157.87213" />
    <rect
       style="opacity:1;fill:#ffffff;fill-opacity:1"
       id="rect3369-8"
       width="4.5456862"
       height="9.5964489"
       x="144.70436"
       y="157.61958" />
    <path
       style="opacity:1;fill:#000000;fill-opacity:1"
       id="path3365-9"
       sodipodi:type="arc"
       sodipodi:cx="-171.61725"
       sodipodi:cy="-117.69468"
       sodipodi:rx="15.404826"
       sodipodi:ry="9.3575516"
       sodipodi:start="0"
       sodipodi:end="5.3624072"
       d="m -156.21242,-117.69468 a 15.404826,9.3575516 0 0 1 -11.88996,9.11072 15.404826,9.3575516 0 0 1 -17.31574,-4.95319 15.404826,9.3575516 0 0 1 3.9882,-11.37103 15.404826,9.3575516 0 0 1 19.13569,-0.23579 l -9.32302,7.44929 z"
       transform="matrix(-0.99693484,-0.07823638,0.13193215,-0.99125875,0,0)" />
  </g>
</svg>
