<?xml version="1.0" encoding="utf-8"?>
<!-- Generator: Adobe Illustrator 18.1.1, SVG Export Plug-In . SVG Version: 6.00 Build 0)  -->
<svg version="1.1" id="Capa_1" xmlns="http://www.w3.org/2000/svg" xmlns:xlink="http://www.w3.org/1999/xlink" x="0px" y="0px"
	 viewBox="0 0 100 100" enable-background="new 0 0 100 100" xml:space="preserve">
<g>
	<g>
		<g>
			<path fill="#7BBB3B" d="M67.9,91.6c0.1-0.1,0.2-0.1,0.3-0.2c0-0.1-0.1-0.1-0.1-0.2C68,91.4,67.9,91.5,67.9,91.6z"/>
			<path fill="#7BBB3B" d="M48,90.1c-8.1,0-15.6-2.3-22-6.2c5.8,0.1-4.3-8.8,2.6-10.1c7.3-1.4,10.3-9.7,8-9.6
				c-2.3,0.1-6.7-1.2-9.8-5.1s-5.8-3-9-2.4c-2.8,0.6-6.3,8.7-7.1,10.8C8.5,63.2,7,58.6,6.3,53.8c3.6-1.9,9.4-5,11.5-6.7
				c3.1-2.6-1-3.6-1.5-5.2c-0.5-1.5,0-5.2,0-8.7c0-3.6,7.2-3.6,9.8-7.2c1.8-2.6-1.5-8.2-3.6-11.3c7.1-5.5,16-8.8,25.6-8.8
				c2.6,0,5,0.3,7.5,0.7c0.7,4.4,2.2,10.5,5.1,12.1C65.3,21.3,71,26.9,73,28c2.1,1,4.6,9.8,4.1,13.4c-0.4,2.5-3.5,5.3-4.8,8
				l21.5,13.4C95.2,58.1,96,53.1,96,48C96,21.5,74.4,0,48,0C21.5,0,0,21.5,0,48s21.5,48,48,48c1,0,2-0.1,3-0.2L49.8,90
				C49.2,90,48.6,90.1,48,90.1z M89.6,54.2c-0.9-3.6-2.7-7.1-6.4-9.8c-2.6-1.8-4.6-9.8-3.1-12.4c0.9-1.5,3.3-2.9,5.1-3.7
				c3.1,5.9,4.9,12.5,4.9,19.6C90.1,50.1,89.9,52.2,89.6,54.2z"/>
			<path fill="#7BBB3B" d="M77.2,75.3l20-4L47,40l-1.2,0.8L57,98.9l10.9-17.3L78.5,97c2,2.9,5.7,3.8,8.3,2.1c2.5-1.8,3-5.5,1-8.5
				L77.2,75.3z"/>
		</g>
	</g>
</g>
</svg>
