<?xml version="1.0" standalone="no"?>
<!DOCTYPE svg PUBLIC "-//W3C//DTD SVG 20010904//EN"
 "http://www.w3.org/TR/2001/REC-SVG-20010904/DTD/svg10.dtd">
<svg version="1.0" xmlns="http://www.w3.org/2000/svg"
 width="303.000000pt" height="512.000000pt" viewBox="0 0 303.000000 512.000000"
 preserveAspectRatio="xMidYMid meet">
<metadata>
Created by potrace 1.15, written by Peter Selinger 2001-2017
</metadata>
<g transform="translate(0.000000,512.000000) scale(0.100000,-0.100000)"
fill="#000000" stroke="none">
<path d="M2200 3294 c-132 -26 -323 -84 -381 -115 -72 -39 -144 -120 -187
-212 -25 -53 -37 -66 -71 -82 -23 -10 -44 -15 -48 -11 -4 3 9 23 29 44 46 48
84 115 99 175 10 43 18 52 68 84 31 20 91 54 133 77 42 22 75 42 73 44 -12 12
-228 -84 -282 -125 -18 -13 -62 -37 -98 -53 -95 -43 -172 -122 -213 -222 -18
-42 -32 -84 -32 -92 0 -9 -18 -27 -40 -41 -56 -35 -79 -32 -44 6 21 24 64 147
64 188 0 28 10 43 68 97 37 36 88 81 114 101 26 20 46 39 43 41 -7 7 -133 -77
-200 -134 -33 -27 -80 -62 -105 -77 -111 -65 -207 -208 -216 -321 -3 -41 -9
-56 -34 -78 -30 -28 -50 -35 -50 -20 0 5 3 12 7 16 14 14 32 102 33 157 0 53
4 63 56 135 31 44 75 101 97 127 73 88 31 59 -59 -39 -49 -54 -130 -139 -181
-188 -50 -50 -101 -110 -112 -133 -29 -58 -51 -147 -51 -206 0 -45 -4 -52 -42
-88 -24 -21 -47 -38 -52 -39 -4 0 -5 28 -2 63 8 81 -21 224 -64 309 -47 94
-63 102 -30 15 50 -128 62 -204 50 -321 -8 -76 -17 -114 -38 -155 -15 -30 -31
-53 -35 -50 -5 2 -9 54 -10 114 -2 92 -6 118 -25 155 l-22 45 7 -60 c3 -33 5
-109 4 -170 -2 -127 -16 -178 -71 -245 -97 -120 -126 -184 -96 -210 28 -23 58
2 129 106 130 189 159 229 205 281 26 28 67 74 91 103 24 28 94 87 155 130 61
43 136 100 166 125 30 25 92 64 138 86 45 22 109 57 142 78 32 21 83 47 112
59 29 11 118 45 198 75 80 31 186 68 237 83 90 26 93 27 150 11 32 -9 99 -19
149 -23 78 -6 100 -4 156 15 36 12 80 33 98 46 33 24 40 25 194 26 188 0 182
12 -15 29 -75 6 -162 20 -197 32 -70 22 -179 25 -260 7 -26 -5 -77 -28 -114
-50 -41 -25 -84 -43 -110 -45 l-43 -5 25 18 c45 33 115 114 145 171 l30 56 90
29 c203 67 226 82 75 51z"/>
<path d="M1763 2848 c-40 -11 -73 -24 -73 -29 0 -13 68 -60 143 -98 84 -43
185 -52 298 -28 41 9 115 18 164 22 50 4 117 12 150 20 58 13 55 13 -100 12
l-160 -2 -53 39 c-114 83 -230 103 -369 64z"/>
<path d="M1465 2736 c-62 -21 -115 -45 -115 -54 0 -14 122 -78 192 -102 67
-22 68 -22 180 -6 62 9 138 16 168 16 84 0 284 32 266 42 -9 5 -21 6 -26 3 -5
-3 -66 -6 -135 -6 l-125 0 -77 46 c-127 73 -231 92 -328 61z"/>
<path d="M1196 2589 c-43 -10 -136 -58 -136 -70 0 -13 67 -49 139 -74 86 -30
149 -31 256 -5 44 11 100 20 125 20 44 0 278 45 289 55 8 8 -69 5 -180 -7
l-106 -12 -115 52 c-122 55 -176 63 -272 41z"/>
<path d="M928 2396 c-25 -7 -72 -30 -103 -51 -51 -36 -55 -40 -39 -52 108 -79
338 -76 452 7 17 11 58 23 107 30 44 6 114 19 155 29 65 16 70 19 36 20 -21 1
-89 -4 -150 -10 -109 -11 -113 -11 -185 15 -84 29 -191 34 -273 12z"/>
<path d="M689 2190 l-24 -20 36 6 c44 7 126 -16 169 -48 37 -26 67 -80 71
-123 5 -64 -2 -86 -37 -125 -40 -44 -38 -51 6 -20 63 45 78 172 29 245 -13 20
-47 51 -76 70 -63 43 -135 49 -174 15z"/>
</g>
</svg>
