<svg xmlns="http://www.w3.org/2000/svg" version="1" viewBox="0 0 303 512">
  <path d="M220 182.6c-13.2 2.6-32.3 8.4-38.1 11.5-7.2 3.9-14.4 12-18.7 21.2-2.5 5.3-3.7 6.6-7.1 8.2-2.3 1-4.4 1.5-4.8 1.1-.4-.3.9-2.3 2.9-4.4 4.6-4.8 8.4-11.5 9.9-17.5 1-4.3 1.8-5.2 6.8-8.4 3.1-2 9.1-5.4 13.3-7.7 4.2-2.2 7.5-4.2 7.3-4.4-1.2-1.2-22.8 8.4-28.2 12.5-1.8 1.3-6.2 3.7-9.8 5.3-9.5 4.3-17.2 12.2-21.3 22.2-1.8 4.2-3.2 8.4-3.2 9.2 0 .9-1.8 2.7-4 4.1-5.6 3.5-7.9 3.2-4.4-.6 2.1-2.4 6.4-14.7 6.4-18.8 0-2.8 1-4.3 6.8-9.7 3.7-3.6 8.8-8.1 11.4-10.1 2.6-2 4.6-3.9 4.3-4.1-.7-.7-13.3 7.7-20 13.4-3.3 2.7-8 6.2-10.5 7.7-11.1 6.5-20.7 20.8-21.6 32.1-.3 4.1-.9 5.6-3.4 7.8-3 2.8-5 3.5-5 2 0-.5.3-1.2.7-1.6 1.4-1.4 3.2-10.2 3.3-15.7 0-5.3.4-6.3 5.6-13.5 3.1-4.4 7.5-10.1 9.7-12.7 7.3-8.8 3.1-5.9-5.9 3.9-4.9 5.4-13 13.9-18.1 18.8-5 5-10.1 11-11.2 13.3-2.9 5.8-5.1 14.7-5.1 20.6 0 4.5-.4 5.2-4.2 8.8-2.4 2.1-4.7 3.8-5.2 3.9-.4 0-.5-2.8-.2-6.3.8-8.1-2.1-22.4-6.4-30.9-4.7-9.4-6.3-10.2-3-1.5 5 12.8 6.2 20.4 5 32.1-.8 7.6-1.7 11.4-3.8 15.5-1.5 3-3.1 5.3-3.5 5-.5-.2-.9-5.4-1-11.4-.2-9.2-.6-11.8-2.5-15.5l-2.2-4.5.7 6c.3 3.3.5 10.9.4 17-.2 12.7-1.6 17.8-7.1 24.5-9.7 12-12.6 18.4-9.6 21 2.8 2.3 5.8-.2 12.9-10.6 13-18.9 15.9-22.9 20.5-28.1 2.6-2.8 6.7-7.4 9.1-10.3 2.4-2.8 9.4-8.7 15.5-13 6.1-4.3 13.6-10 16.6-12.5 3-2.5 9.2-6.4 13.8-8.6 4.5-2.2 10.9-5.7 14.2-7.8 3.2-2.1 8.3-4.7 11.2-5.9 2.9-1.1 11.8-4.5 19.8-7.5 8-3.1 18.6-6.8 23.7-8.3 9-2.6 9.3-2.7 15-1.1 3.2.9 9.9 1.9 14.9 2.3 7.8.6 10 .4 15.6-1.5 3.6-1.2 8-3.3 9.8-4.6 3.3-2.4 4-2.5 19.4-2.6 18.8 0 18.2-1.2-1.5-2.9-7.5-.6-16.2-2-19.7-3.2-7-2.2-17.9-2.5-26-.7-2.6.5-7.7 2.8-11.4 5-4.1 2.5-8.4 4.3-11 4.5l-4.3.5 2.5-1.8c4.5-3.3 11.5-11.4 14.5-17.1l3-5.6 9-2.9c20.3-6.7 22.6-8.2 7.5-5.1z"/>
  <path d="M176.3 227.2c-4 1.1-7.3 2.4-7.3 2.9 0 1.3 6.8 6 14.3 9.8 8.4 4.3 18.5 5.2 29.8 2.8 4.1-.9 11.5-1.8 16.4-2.2 5-.4 11.7-1.2 15-2 5.8-1.3 5.5-1.3-10-1.2l-16 .2-5.3-3.9c-11.4-8.3-23-10.3-36.9-6.4z"/>
  <path d="M146.5 238.4c-6.2 2.1-11.5 4.5-11.5 5.4 0 1.4 12.2 7.8 19.2 10.2 6.7 2.2 6.8 2.2 18 .6 6.2-.9 13.8-1.6 16.8-1.6 8.4 0 28.4-3.2 26.6-4.2-.9-.5-2.1-.6-2.6-.3s-6.6.6-13.5.6H187l-7.7-4.6c-12.7-7.3-23.1-9.2-32.8-6.1z"/>
  <path d="M119.6 253.1c-4.3 1-13.6 5.8-13.6 7 0 1.3 6.7 4.9 13.9 7.4 8.6 3 14.9 3.1 25.6.5 4.4-1.1 10-2 12.5-2 4.4 0 27.8-4.5 28.9-5.5.8-.8-6.9-.5-18 .7l-10.6 1.2-11.5-5.2c-12.2-5.5-17.6-6.3-27.2-4.1zM92.8 272.4c-2.5.7-7.2 3-10.3 5.1-5.1 3.6-5.5 4-3.9 5.2 10.8 7.9 33.8 7.6 45.2-.7 1.7-1.1 5.8-2.3 10.7-3 4.4-.6 11.4-1.9 15.5-2.9 6.5-1.6 7-1.9 3.6-2-2.1-.1-8.9.4-15 1-10.9 1.1-11.3 1.1-18.5-1.5-8.4-2.9-19.1-3.4-27.3-1.2zM68.9 293l-2.4 2 3.6-.6c4.4-.7 12.6 1.6 16.9 4.8 3.7 2.6 6.7 8 7.1 12.3.5 6.4-.2 8.6-3.7 12.5-4 4.4-3.8 5.1.6 2 6.3-4.5 7.8-17.2 2.9-24.5-1.3-2-4.7-5.1-7.6-7-6.3-4.3-13.5-4.9-17.4-1.5z"/>
</svg>
