<?xml version="1.0" standalone="no"?>
<!DOCTYPE svg PUBLIC "-//W3C//DTD SVG 20010904//EN"
 "http://www.w3.org/TR/2001/REC-SVG-20010904/DTD/svg10.dtd">
<svg version="1.0" xmlns="http://www.w3.org/2000/svg"
 width="303.000000pt" height="512.000000pt" viewBox="0 0 303.000000 512.000000"
 preserveAspectRatio="xMidYMid meet">
<metadata>
Created by potrace 1.15, written by Peter Selinger 2001-2017
</metadata>
<g transform="translate(0.000000,512.000000) scale(0.100000,-0.100000)"
fill="#000000" stroke="none">
<path d="M467 3082 c-202 -203 -245 -252 -219 -252 9 0 472 463 472 473 0 26
-50 -18 -253 -221z"/>
<path d="M517 3032 c-247 -247 -296 -302 -269 -302 9 0 572 563 572 573 0 26
-56 -24 -303 -271z"/>
<path d="M567 2982 c-292 -292 -346 -352 -319 -352 9 0 672 663 672 673 0 26
-61 -29 -353 -321z"/>
<path d="M731 3046 c-176 -176 -259 -266 -251 -271 8 -5 103 83 276 256 145
145 264 267 264 271 0 27 -54 -21 -289 -256z"/>
<path d="M807 3022 c-158 -158 -287 -293 -287 -301 0 -8 -14 6 -31 30 -40 56
-38 53 -45 47 -3 -4 0 -16 6 -28 7 -12 8 -20 3 -17 -11 7 -213 -194 -213 -212
0 -22 16 -9 121 95 97 97 107 105 114 84 6 -19 -11 -40 -114 -144 -69 -70
-121 -131 -121 -142 0 -13 41 22 129 110 117 117 129 126 134 105 5 -20 -13
-43 -119 -150 -133 -133 -144 -145 -144 -169 0 -8 35 21 79 64 75 74 79 77 83
52 4 -21 -8 -39 -78 -109 -47 -46 -84 -92 -84 -102 0 -14 24 4 84 64 79 78 84
82 89 59 6 -21 -7 -38 -83 -114 -52 -52 -90 -98 -90 -110 0 -14 26 7 91 73
l92 93 -6 -38 c-4 -30 -21 -53 -91 -123 -49 -49 -86 -94 -86 -105 0 -14 24 5
85 67 66 67 83 80 78 60 -13 -54 -23 -69 -87 -131 -59 -57 -85 -94 -74 -106 3
-2 24 15 47 38 l42 43 -46 -69 c-37 -56 -45 -76 -43 -105 3 -31 7 -36 31 -39
17 -2 37 4 50 15 11 10 17 12 12 4 -6 -10 -4 -12 4 -7 7 5 10 15 7 23 -4 9 -2
11 6 7 6 -4 53 36 114 100 65 67 119 114 146 126 55 25 82 26 43 1 -47 -29
-258 -247 -253 -261 5 -17 102 65 220 188 86 90 122 115 140 97 2 -3 -55 -64
-129 -137 -125 -125 -164 -175 -112 -147 37 19 279 261 273 271 -4 6 5 8 25 3
30 -6 45 8 19 18 -10 3 -9 9 2 21 13 13 19 14 33 3 16 -11 4 -27 -127 -157
-81 -79 -146 -150 -146 -157 0 -26 43 8 178 142 113 111 135 129 141 113 5
-15 -17 -42 -106 -130 -62 -62 -113 -118 -113 -125 0 -25 40 6 142 107 91 89
98 94 98 69 0 -22 -16 -44 -71 -97 -40 -38 -70 -73 -68 -79 2 -7 31 5 70 27
45 27 71 50 85 76 10 20 46 64 79 98 33 34 116 118 183 188 104 106 130 128
161 133 36 6 23 -9 -222 -253 -143 -143 -258 -265 -255 -272 7 -21 110 74 338
312 185 194 221 227 257 237 23 6 43 11 45 11 2 0 -119 -123 -269 -272 -254
-253 -310 -318 -250 -287 12 6 168 159 347 340 279 281 330 328 360 333 33 6
6 -24 -298 -328 -184 -183 -333 -339 -330 -346 7 -22 110 75 413 388 249 256
296 301 333 312 44 13 56 30 21 30 -18 0 -17 3 10 26 17 14 46 28 65 31 30 5
-8 -36 -355 -383 -358 -358 -430 -437 -367 -403 24 13 98 87 533 528 228 231
264 264 296 268 34 5 9 -23 -358 -389 -218 -218 -394 -401 -391 -408 7 -22
110 75 473 448 306 314 355 360 388 366 38 8 51 26 18 26 -17 0 -15 4 11 30
20 21 39 30 62 30 29 0 1 -30 -411 -442 -244 -244 -443 -449 -443 -456 0 -10
5 -10 22 -1 24 13 58 46 592 585 280 284 322 322 354 327 34 5 4 -28 -415
-446 -249 -249 -453 -458 -453 -465 0 -10 5 -10 23 -1 12 7 227 218 477 470
396 400 460 459 491 465 33 5 -6 -36 -429 -459 -255 -255 -463 -470 -461 -476
3 -8 17 -2 40 16 71 56 1159 1161 1159 1177 0 11 -9 16 -31 16 l-31 0 31 36
c46 52 26 66 -21 15 -33 -35 -44 -41 -67 -36 -26 6 -26 7 47 80 47 47 71 78
67 86 -5 8 -36 -16 -92 -74 -73 -74 -88 -85 -111 -81 -26 5 -21 11 91 123 105
105 133 141 109 141 -4 0 -66 -58 -137 -130 -109 -111 -133 -130 -159 -130
-29 0 -25 6 97 128 70 70 127 131 127 135 0 24 -39 -7 -156 -124 -115 -115
-135 -131 -157 -126 -23 6 -16 15 94 124 66 64 119 121 119 125 0 25 -39 -5
-144 -111 -102 -104 -120 -118 -142 -112 -23 6 -18 12 81 111 58 58 105 108
105 112 0 25 -38 -4 -135 -102 -98 -100 -135 -125 -149 -102 -3 5 38 51 90
103 51 51 94 97 94 101 0 24 -36 -3 -135 -101 -88 -87 -117 -110 -145 -114
-34 -5 -33 -3 63 91 54 53 93 98 86 101 -7 2 1 9 17 17 28 12 27 12 -26 13
-30 0 -82 -6 -115 -14 -76 -18 -83 -18 -59 0 17 13 17 14 2 15 -9 0 -23 -8
-30 -18 -7 -10 -35 -26 -62 -35 -63 -22 -63 -22 -27 9 17 14 31 30 31 35 0 21
-30 6 -63 -30 -19 -22 -46 -42 -59 -46 -12 -4 -40 -16 -60 -26 -37 -19 -37
-18 16 33 30 29 62 58 73 65 34 22 -22 15 -90 -12 -36 -14 -53 -18 -39 -8 25
18 29 33 8 33 -8 0 -29 -17 -48 -38 -18 -21 -64 -55 -103 -76 l-70 -38 68 69
c37 38 67 72 67 76 0 24 -38 -4 -118 -87 -50 -51 -106 -104 -124 -116 -50 -35
-107 -91 -131 -130 -26 -43 -90 -105 -83 -82 3 10 8 29 11 44 4 16 72 92 176
195 93 92 169 171 169 176 0 19 -29 2 -86 -50 -34 -32 -93 -78 -131 -102 l-68
-43 93 94 c50 51 92 97 92 101 0 25 -45 -12 -185 -153 -87 -88 -178 -176 -204
-194 -25 -19 -59 -53 -76 -77 -16 -23 -47 -58 -67 -77 -21 -19 -38 -45 -38
-56 1 -20 1 -20 20 3 11 13 20 22 20 20 -1 -19 -32 -103 -43 -113 -23 -23 -10
131 14 170 11 18 118 130 239 250 121 120 220 221 220 226 0 25 -38 -5 -149
-116 -77 -77 -129 -122 -138 -119 -8 3 -41 -23 -85 -68 -38 -41 -119 -123
-178 -184 -59 -60 -120 -130 -136 -154 -27 -41 -124 -142 -145 -149 -5 -2 -9
7 -9 20 0 17 94 117 370 393 204 203 370 373 370 377 0 5 -6 8 -13 8 -15 0
-723 -708 -729 -730 -3 -9 -9 -3 -15 16 l-11 31 334 334 c184 184 334 337 334
341 0 28 -61 -28 -352 -319 -296 -296 -328 -326 -337 -307 -8 19 24 55 290
320 164 164 299 302 299 306 0 27 -56 -23 -313 -280z m238 -474 c-28 -16 -155
-140 -151 -147 2 -3 -21 -19 -52 -34 -32 -15 -66 -35 -77 -43 -18 -14 -18 -17
-4 -27 15 -9 13 -13 -12 -35 -16 -13 -27 -28 -23 -33 3 -5 -2 -9 -11 -9 -13 0
-95 -75 -95 -87 0 -3 -54 -58 -120 -123 -90 -89 -112 -107 -88 -72 102 150
253 321 382 432 101 86 258 201 266 194 3 -3 -4 -10 -15 -16z m95 -395 c-143
-146 -155 -156 -161 -133 -4 21 9 40 90 122 52 54 97 102 100 107 7 10 102 60
116 61 6 0 -59 -71 -145 -157z"/>
<path d="M2241 2356 c-299 -299 -542 -549 -540 -555 8 -22 80 47 594 566 421
426 520 533 492 533 -1 0 -247 -245 -546 -544z"/>
<path d="M2291 2306 c-271 -271 -492 -499 -490 -505 8 -22 81 47 544 516 379
385 469 483 442 483 -1 0 -224 -222 -496 -494z"/>
<path d="M2341 2256 c-244 -244 -442 -449 -440 -455 8 -22 82 48 494 466 337
343 419 433 392 433 -1 0 -202 -200 -446 -444z"/>
<path d="M2386 2201 c-214 -214 -387 -394 -385 -400 3 -8 20 0 46 21 44 35
753 753 753 762 0 26 -74 -43 -414 -383z"/>
<path d="M2436 2151 c-186 -186 -337 -344 -335 -350 3 -7 22 2 49 23 43 34
628 628 644 654 4 7 2 12 -6 12 -7 0 -166 -152 -352 -339z"/>
<path d="M2486 2101 c-159 -159 -287 -294 -284 -301 7 -21 97 62 344 317 132
136 244 254 248 261 4 7 2 12 -6 12 -7 0 -143 -130 -302 -289z"/>
<path d="M2536 2051 c-131 -131 -237 -244 -234 -251 7 -21 104 67 306 278 105
111 192 203 192 206 0 25 -56 -25 -264 -233z"/>
<path d="M2586 2001 c-104 -104 -187 -194 -184 -201 6 -19 109 71 253 224 137
145 154 166 133 166 -7 0 -98 -85 -202 -189z"/>
</g>
</svg>
