<?xml version="1.0" standalone="no"?>
<!DOCTYPE svg PUBLIC "-//W3C//DTD SVG 20010904//EN"
 "http://www.w3.org/TR/2001/REC-SVG-20010904/DTD/svg10.dtd">
<svg version="1.0" xmlns="http://www.w3.org/2000/svg"
 width="303.000000pt" height="512.000000pt" viewBox="0 0 303.000000 512.000000"
 preserveAspectRatio="xMidYMid meet">
<metadata>
Created by potrace 1.15, written by Peter Selinger 2001-2017
</metadata>
<g transform="translate(0.000000,512.000000) scale(0.100000,-0.100000)"
fill="#000000" stroke="none">
<path d="M2365 5105 c-17 -9 -554 -538 -1193 -1178 -975 -976 -1162 -1167
-1162 -1190 0 -15 3 -27 7 -27 4 0 539 531 1189 1181 l1181 1181 6 -59 6 -58
-235 -235 -236 -235 5 45 c7 55 -7 88 -21 50 -5 -14 -15 -52 -22 -85 l-12 -60
-934 -935 c-782 -783 -934 -940 -934 -963 0 -15 3 -27 7 -27 4 0 421 413 927
918 610 609 916 909 913 892 -3 -14 -9 -47 -12 -75 l-7 -50 -914 -915 c-765
-766 -914 -920 -914 -943 0 -15 3 -27 7 -27 4 0 413 405 908 900 l901 901 -4
-68 -4 -68 -64 -65 -64 -65 0 33 c0 17 -4 32 -10 32 -9 0 -30 -62 -30 -90 0
-8 -369 -384 -820 -835 -685 -686 -820 -825 -820 -848 0 -15 3 -27 7 -27 4 0
369 361 810 802 442 442 803 798 803 793 0 -6 -5 -39 -11 -75 l-10 -65 -799
-800 c-668 -669 -800 -805 -800 -828 0 -15 3 -27 7 -27 4 0 363 354 796 788
l789 787 -6 -70 c-7 -70 -7 -70 -71 -134 l-64 -64 6 43 c9 67 -19 46 -39 -30
l-18 -64 -700 -701 c-583 -584 -700 -705 -700 -728 0 -15 3 -27 7 -27 4 0 315
307 691 682 376 376 682 674 679 663 -3 -11 -11 -47 -17 -80 l-12 -60 -674
-675 c-561 -563 -674 -680 -674 -703 0 -15 3 -27 7 -27 4 0 261 253 571 563
310 309 562 553 559 542 -3 -11 -13 -49 -22 -85 l-16 -65 -550 -550 c-455
-457 -549 -555 -549 -578 0 -15 3 -27 7 -27 4 0 248 240 541 533 473 471 534
528 528 497 -4 -19 -9 -53 -12 -75 -6 -37 -37 -71 -387 -422 -330 -331 -390
-387 -444 -413 -68 -34 -119 -87 -152 -160 -11 -25 -34 -61 -52 -81 -20 -25
-29 -45 -27 -60 3 -21 22 -7 154 123 l150 148 64 0 64 0 -217 -218 c-175 -176
-217 -224 -217 -246 0 -22 3 -25 18 -17 9 5 118 111 242 235 124 124 229 226
235 226 5 0 25 -9 44 -21 l34 -20 -287 -288 c-232 -233 -286 -293 -286 -314 0
-15 3 -27 7 -27 4 0 142 134 306 297 l298 298 30 -34 31 -33 -33 -34 c-38 -39
-45 -41 -54 -14 -11 35 -26 22 -19 -16 l7 -36 -287 -287 c-234 -235 -286 -292
-286 -315 0 -22 3 -25 18 -17 9 5 138 131 286 280 149 148 273 268 278 265 4
-3 8 -28 8 -57 l0 -51 -295 -296 c-240 -241 -295 -301 -295 -323 0 -15 3 -27
7 -27 4 0 133 125 286 278 250 248 278 273 272 242 -4 -19 -19 -62 -33 -95
-22 -52 -59 -93 -277 -315 -268 -271 -265 -266 -265 -362 0 -61 89 -75 182
-29 23 12 95 58 158 102 l115 81 -98 -100 c-53 -54 -97 -102 -97 -106 0 -3 12
-6 26 -6 21 0 61 34 180 151 150 148 154 152 221 170 37 11 74 19 82 19 9 0
-58 -73 -147 -163 -89 -90 -162 -166 -162 -170 0 -4 12 -7 26 -7 21 0 65 38
208 180 l182 180 64 0 64 0 -172 -173 c-95 -95 -172 -176 -172 -180 0 -4 12
-7 26 -7 21 0 65 38 208 180 181 179 182 180 227 180 24 0 49 -4 56 -8 8 -5
-38 -58 -143 -162 -85 -85 -160 -163 -165 -172 -8 -15 -5 -18 17 -18 21 0 63
36 199 171 l173 171 51 -7 c28 -4 51 -10 51 -14 0 -3 -63 -69 -141 -146 -77
-77 -145 -148 -150 -157 -8 -15 -5 -18 17 -18 21 0 60 33 183 155 87 85 163
155 170 155 7 0 10 4 7 8 -3 5 45 58 107 119 l112 111 48 -17 47 -16 -241
-240 c-132 -132 -245 -248 -250 -257 -8 -15 -5 -18 17 -18 22 0 74 46 274 245
135 135 252 245 260 245 8 -1 30 -9 47 -18 l33 -17 -211 -210 c-116 -116 -215
-218 -220 -227 -8 -15 -5 -18 17 -18 22 0 69 42 244 216 196 194 220 215 238
205 35 -19 48 -13 24 11 l-22 23 530 530 c442 443 530 535 530 558 0 23 -3 26
-17 18 -10 -5 -258 -250 -552 -544 l-534 -535 -39 26 -39 25 590 592 c491 491
591 595 591 618 0 15 -3 27 -7 27 -4 0 -280 -273 -614 -606 l-606 -606 -43 22
-43 22 657 657 c546 547 656 661 656 684 0 15 -3 27 -7 27 -4 0 -312 -304
-683 -675 l-676 -675 -48 16 -48 17 731 731 c610 610 731 736 731 759 0 15 -3
27 -7 27 -4 0 -346 -338 -759 -751 l-750 -750 -52 7 c-29 3 -52 10 -52 13 0 4
64 70 143 146 92 90 167 154 211 180 75 44 200 162 260 246 22 30 86 92 143
139 113 93 373 350 373 368 0 19 -14 14 -66 -24 -27 -21 87 100 254 268 245
247 302 309 302 331 0 15 -3 27 -7 27 -4 0 -217 -209 -473 -463 -256 -255
-479 -474 -497 -485 -22 -16 -46 -22 -84 -22 l-54 0 85 86 c47 47 112 105 145
128 63 46 141 124 190 191 16 22 179 191 362 376 272 273 333 340 333 362 0
15 -3 27 -7 27 -4 0 -110 -102 -236 -227 -219 -218 -226 -224 -163 -139 36 49
94 134 129 189 40 65 100 140 170 213 78 83 107 120 107 139 0 14 -3 25 -7 25
-4 0 -165 -158 -358 -350 l-351 -351 -65 -15 c-35 -8 -73 -17 -84 -20 -32 -10
133 152 215 210 80 56 160 138 212 215 17 25 123 139 234 252 162 164 204 211
204 232 0 15 -3 27 -7 27 -4 0 -80 -73 -171 -162 l-164 -163 50 80 c27 44 64
110 82 145 21 43 63 96 121 157 65 67 89 99 89 118 0 14 -2 25 -5 25 -3 0 -26
-19 -52 -42 -30 -27 -44 -36 -38 -23 4 11 23 61 42 110 19 50 39 94 44 99 11
12 12 76 1 76 -4 0 -15 -12 -24 -27 -9 -16 -67 -77 -129 -138 -98 -97 -108
-105 -86 -65 15 25 38 77 52 115 22 58 40 84 111 157 60 63 84 94 84 113 0 14
-3 25 -6 25 -3 0 -35 -28 -70 -62 -38 -36 -64 -55 -64 -46 0 9 10 47 21 84 16
52 33 82 70 122 31 34 49 63 49 78 0 27 -9 26 -46 -8 l-21 -19 19 83 c11 46
26 93 34 105 15 24 19 68 6 59 -5 -3 -5 20 0 51 5 32 8 80 6 108 l-3 50 -229
-225 c-161 -158 -227 -218 -223 -200 3 14 9 48 12 75 7 49 11 54 226 271 175
176 219 226 219 247 0 15 -3 27 -7 27 -4 0 -103 -95 -220 -212 l-213 -212 0
64 0 64 220 221 c176 178 220 227 220 248 0 15 -3 27 -7 27 -4 0 -107 -99
-228 -220 l-221 -221 -12 52 -12 53 240 241 c193 194 240 247 240 268 0 15 -3
27 -7 27 -4 0 -116 -109 -249 -241 l-242 -242 -20 44 -19 44 268 271 c217 219
269 276 269 297 0 15 -3 27 -7 27 -4 0 -125 -118 -270 -262 l-263 -262 0 64 0
65 251 250 c137 138 255 258 260 268 8 14 5 17 -17 17 -22 0 -72 -45 -264
-236 l-237 -235 -7 57 -7 58 171 171 c93 94 170 174 170 178 0 4 -12 7 -26 7
-20 0 -60 -33 -174 -146 l-148 -145 -7 56 -7 57 81 83 c45 45 81 85 81 89 0 3
-11 6 -24 6 -16 0 -46 -20 -84 -55 -33 -30 -62 -55 -65 -55 -2 0 -8 21 -12 46
-12 81 -13 82 -60 59z m-205 -589 l-242 -241 4 68 4 68 235 235 234 234 3 -62
3 -62 -241 -240z m1 -200 l-251 -251 0 65 0 65 248 248 247 247 3 -62 3 -62
-250 -250z m245 90 l-7 -52 -239 -239 c-157 -156 -241 -234 -244 -224 -2 7 -7
32 -9 54 l-5 40 252 253 c171 172 252 247 254 236 2 -9 1 -40 -2 -68z m-151
-332 c-32 -95 -33 -96 -136 -200 -57 -57 -106 -104 -109 -104 -3 0 -16 16 -29
36 l-24 35 164 165 c90 90 164 164 165 164 1 0 -13 -43 -31 -96z m707 -93
l-25 -89 -279 -279 c-153 -153 -278 -273 -278 -267 0 6 19 40 41 75 23 35 55
91 72 124 24 48 75 106 261 293 127 127 231 232 232 232 1 0 -10 -40 -24 -89z
m-816 -279 l-64 -65 -22 43 -22 43 84 84 83 84 3 -63 3 -62 -65 -64z m718 -22
l-35 -95 -84 -39 c-46 -21 -117 -63 -157 -93 -63 -47 -48 -29 117 136 104 105
190 189 192 188 1 -2 -14 -45 -33 -97z m-579 -377 c-22 -79 -29 -92 -79 -141
l-54 -55 5 69 5 69 71 73 c39 39 72 72 74 72 1 0 -9 -39 -22 -87z m-702 -105
l-6 -66 -70 -69 c-69 -68 -69 -68 -63 -34 3 18 6 49 6 68 0 29 11 46 67 104
36 38 67 68 69 67 1 -2 0 -33 -3 -70z m1286 -75 c-76 -135 -142 -240 -167
-265 -18 -17 -60 -37 -121 -57 l-95 -30 204 204 c113 113 206 205 208 205 2 0
-11 -26 -29 -57z m-644 -25 c-56 -180 -46 -164 -179 -297 l-123 -123 -8 57 -7
58 58 58 58 59 22 -21 c13 -12 27 -18 32 -15 6 3 20 37 32 74 17 49 34 79 68
115 50 51 53 53 47 35z m-675 -103 c-5 -22 -10 -54 -10 -70 0 -24 -13 -44 -61
-90 l-61 -60 7 70 c7 69 8 71 68 132 33 34 62 61 63 60 2 -1 -1 -20 -6 -42z
m859 -228 c-52 -50 -125 -115 -161 -144 l-66 -52 25 74 c13 41 30 78 36 83 7
5 44 23 82 40 39 16 93 43 120 60 28 17 52 31 55 31 3 0 -38 -41 -91 -92z
m-1079 -25 c-11 -67 -13 -71 -81 -138 -57 -56 -69 -64 -65 -44 3 14 8 48 11
75 6 45 13 57 73 117 36 37 68 66 70 63 2 -2 -1 -35 -8 -73z m765 -33 c-31
-85 -41 -100 -109 -168 l-74 -74 5 69 5 69 101 102 c56 56 102 101 104 99 2
-1 -13 -45 -32 -97z m-800 -203 c-16 -68 -22 -79 -77 -133 l-60 -58 7 70 c7
70 7 70 73 137 36 37 68 65 70 63 3 -2 -3 -38 -13 -79z m505 -346 c0 -3 -40
-46 -90 -95 l-90 -90 0 65 0 64 63 64 62 63 28 -33 c15 -18 27 -35 27 -38z
m-792 -155 c-37 -70 -73 -110 -274 -313 l-231 -234 -57 7 -58 8 328 328 c272
273 329 325 332 307 1 -13 -17 -59 -40 -103z m1097 54 c-58 -59 -181 -147
-190 -137 -1 2 14 37 34 78 l36 74 85 27 c47 15 89 27 95 28 5 1 -22 -31 -60
-70z m-321 -46 c-32 -60 -67 -124 -80 -143 -27 -43 -159 -172 -151 -147 4 10
16 50 28 90 21 69 26 76 138 190 63 64 117 117 119 117 2 0 -22 -48 -54 -107z
m-893 -306 l-16 -77 -114 -114 -114 -114 -44 21 -44 21 173 173 c95 95 173
171 174 170 1 -1 -6 -37 -15 -80z m559 -97 c0 -3 -52 -57 -116 -120 -64 -63
-114 -106 -111 -95 3 11 11 47 17 80 11 55 18 66 83 133 l72 73 27 -33 c15
-18 28 -35 28 -38z m69 -41 c-169 -252 -258 -355 -596 -690 -333 -331 -406
-393 -658 -564 l-100 -68 415 415 c402 402 415 414 428 391 7 -13 17 -23 22
-23 10 0 89 118 120 180 14 29 93 116 223 248 111 111 203 202 205 202 1 0
-25 -41 -59 -91z m-703 -197 l-66 -67 -32 33 -33 32 90 90 90 91 9 -57 9 -56
-67 -66z m634 -567 l-115 -115 -58 8 -58 7 94 93 c73 71 101 92 123 93 16 0
49 6 74 13 25 8 47 14 50 15 3 0 -47 -51 -110 -114z m-221 -21 c-89 -89 -93
-92 -153 -102 -33 -5 -62 -9 -63 -8 -1 1 40 46 91 101 l93 100 61 0 62 0 -91
-91z m-64 -263 l-80 -80 -58 7 -58 7 68 67 c69 68 81 73 168 77 l40 1 -80 -79z
m259 71 c3 -5 -35 -48 -83 -96 l-89 -88 -52 12 -52 12 83 84 c83 84 84 84 136
84 28 0 54 -4 57 -8z m168 -28 c6 -4 -36 -53 -93 -110 l-102 -103 -41 16 c-23
9 -43 18 -45 20 -3 2 38 47 90 99 l94 95 43 -5 c24 -3 48 -9 54 -12z"/>
<path d="M203 4958 c-174 -172 -196 -198 -191 -231 3 -19 32 5 192 163 103
102 192 193 197 203 8 14 5 17 -17 17 -21 0 -60 -33 -181 -152z"/>
<path d="M303 4858 c-140 -139 -264 -265 -275 -281 -10 -15 -18 -37 -16 -50 3
-18 49 23 292 263 158 157 292 293 297 303 8 14 5 17 -17 17 -22 0 -75 -47
-281 -252z"/>
<path d="M402 4758 c-194 -194 -362 -365 -373 -381 -11 -15 -19 -37 -17 -50 4
-18 67 40 392 363 213 212 392 393 397 403 8 14 5 17 -18 17 -22 0 -89 -62
-381 -352z"/>
<path d="M502 4658 c-249 -249 -462 -465 -473 -481 -11 -15 -19 -37 -17 -50 4
-18 84 57 492 463 268 267 492 493 497 503 8 14 5 17 -18 17 -22 0 -104 -76
-481 -452z"/>
<path d="M602 4558 c-304 -304 -562 -565 -573 -581 -11 -15 -19 -37 -17 -50 4
-18 101 75 592 563 323 322 592 593 597 603 8 14 5 17 -18 17 -23 0 -118 -91
-581 -552z"/>
<path d="M702 4458 c-359 -359 -662 -665 -673 -681 -11 -15 -19 -37 -17 -50 4
-18 118 92 692 663 378 377 692 693 697 703 8 14 5 17 -18 17 -23 0 -133 -106
-681 -652z"/>
<path d="M802 4358 c-414 -414 -762 -765 -773 -781 -11 -15 -19 -37 -17 -50 4
-18 136 109 792 763 433 432 792 793 797 803 8 14 5 17 -18 17 -23 0 -148
-120 -781 -752z"/>
<path d="M902 4258 c-469 -469 -862 -865 -873 -881 -11 -15 -19 -37 -17 -50 4
-18 153 126 892 863 488 487 892 893 897 903 8 14 5 17 -18 17 -23 0 -162
-135 -881 -852z"/>
<path d="M1002 4158 c-524 -524 -962 -965 -973 -981 -11 -15 -19 -37 -17 -50
4 -18 170 144 992 963 543 542 992 993 997 1003 8 14 5 17 -18 17 -23 0 -177
-149 -981 -952z"/>
<path d="M1102 4058 c-579 -579 -1062 -1065 -1073 -1081 -11 -15 -19 -37 -17
-50 4 -18 188 161 1092 1063 598 597 1092 1093 1097 1103 8 14 5 17 -18 17
-23 0 -191 -164 -1081 -1052z"/>
<path d="M2351 705 c-370 -369 -677 -678 -682 -687 -8 -15 -5 -18 18 -18 23 0
131 103 666 637 351 351 647 650 658 666 11 15 19 37 17 50 -4 18 -116 -89
-677 -648z"/>
<path d="M2451 605 c-315 -314 -577 -578 -582 -587 -8 -15 -5 -18 18 -18 23 0
116 89 566 537 296 296 547 550 558 566 11 15 19 37 17 50 -4 18 -99 -72 -577
-548z"/>
<path d="M2551 505 c-260 -259 -477 -478 -482 -487 -8 -15 -5 -18 18 -18 22 0
102 74 466 437 241 241 447 450 458 466 11 15 19 37 17 50 -4 18 -81 -55 -477
-448z"/>
<path d="M2651 405 c-205 -203 -377 -378 -382 -387 -8 -15 -5 -18 18 -18 22 0
87 60 366 337 186 186 348 350 358 366 11 15 19 37 17 50 -4 18 -64 -37 -377
-348z"/>
<path d="M2751 305 c-150 -148 -277 -278 -282 -287 -8 -15 -5 -18 17 -18 22 0
73 45 266 237 132 131 249 250 260 266 10 15 18 37 16 50 -3 18 -47 -20 -277
-248z"/>
<path d="M2851 205 c-95 -94 -177 -178 -182 -187 -8 -15 -5 -18 17 -18 20 0
58 31 166 138 158 155 181 183 176 215 -3 19 -29 -3 -177 -148z"/>
</g>
</svg>
