<?xml version="1.0"?>
<svg xmlns="http://www.w3.org/2000/svg" xmlns:xlink="http://www.w3.org/1999/xlink" version="1.1" id="Capa_1" x="0px" y="0px" viewBox="0 0 512 512" style="enable-background:new 0 0 512 512;" xml:space="preserve" width="512px" height="512px" class=""><g><g>
	<g>
		<path d="M449.895,472.855c-1.305-1.453-2.023-3.808-2.023-6.631V308.516c0-50.546-18.955-98.706-53.374-135.608    c-26.186-28.075-59.149-47.2-95.208-55.691c2.699-3.829,4.291-8.492,4.291-13.522c0-5.906-2.192-11.306-5.798-15.442    c29.49-33.564,29.846-78.755,29.846-80.751c0-4.142-3.358-7.5-7.5-7.5c-9.792,0-15.118,2.661-19.397,4.799    c-3.739,1.868-6.441,3.217-12.695,3.217c-6.254,0-8.955-1.35-12.694-3.217C271.063,2.661,265.737,0,255.944,0    c-9.782,0-15.102,2.662-19.376,4.801c-3.73,1.867-6.426,3.215-12.664,3.215c-6.236,0-8.931-1.349-12.66-3.215    C206.97,2.662,201.651,0,191.871,0c-4.142,0-7.5,3.358-7.5,7.5c0,1.996,0.357,47.188,29.846,80.751    c-3.606,4.136-5.798,9.536-5.798,15.442c0,4.984,1.562,9.608,4.216,13.417c-33.524,7.697-64.414,24.35-89.863,48.91    c-37.817,36.497-58.644,85.533-58.644,138.077v162.127c0,2.823-0.719,5.178-2.024,6.632c-4.322,4.814-6.424,11.021-5.918,17.478    C57.138,502.483,67.88,512,80.642,512h350.716c12.762,0,23.504-9.517,24.456-21.667    C456.319,483.877,454.217,477.67,449.895,472.855z M200.008,16.188c1.554,0.541,2.945,1.238,4.522,2.027    c4.274,2.139,9.593,4.801,19.374,4.801c9.782,0,15.102-2.662,19.376-4.801c3.73-1.867,6.426-3.215,12.665-3.215    c6.254,0,8.956,1.35,12.695,3.217c4.279,2.138,9.605,4.799,19.397,4.799s15.119-2.661,19.398-4.799    c1.596-0.797,3.002-1.5,4.578-2.044c-1.588,14.185-7.27,42.909-27.538,64.411c-1.435-0.274-2.913-0.423-4.427-0.423h-4.887    c1.769-6.95,3.219-14.845,4.314-23.637c0.512-4.11-2.405-7.857-6.515-8.37c-4.114-0.512-7.858,2.405-8.37,6.515    c-1.227,9.847-2.9,18.376-4.972,25.492h-7.235c-2.073-7.115-3.746-15.645-4.972-25.492c-0.512-4.111-4.261-7.027-8.37-6.515    c-4.11,0.512-7.027,4.259-6.515,8.37c1.095,8.792,2.544,16.687,4.314,23.637h-4.887c-1.513,0-2.992,0.149-4.426,0.423    C207.351,59.17,201.627,30.4,200.008,16.188z M288.581,103.693c0,4.704-3.828,8.532-8.532,8.532h-48.097    c-4.705,0-8.532-3.828-8.532-8.532s3.827-8.532,8.532-8.532h48.097C284.754,95.161,288.581,98.989,288.581,103.693z     M440.86,489.162c-0.338,4.322-4.601,7.838-9.502,7.838H80.642c-4.901,0-9.164-3.516-9.502-7.838    c-0.182-2.323,0.573-4.556,2.125-6.285c3.781-4.21,5.863-10.125,5.863-16.653V304.097c0-48.436,19.199-93.639,54.061-127.283    c31.484-30.384,72-47.649,115.311-49.426v8.371c0,4.142,3.358,7.5,7.5,7.5c4.142,0,7.5-3.358,7.5-7.5v-8.367    c45.646,1.897,88.237,21.663,120.028,55.747c31.819,34.115,49.343,78.642,49.343,125.377v157.708    c0,6.529,2.082,12.443,5.863,16.652C440.287,484.606,441.042,486.839,440.86,489.162z" data-original="#000000" class="active-path" data-old_color="#000000" fill="#009933"/>
	</g>
</g><g>
	<g>
		<path d="M352.194,464.936H111.709c-4.142,0-7.5,3.358-7.5,7.5c0,4.142,3.358,7.5,7.5,7.5h240.484c4.142,0,7.5-3.358,7.5-7.5    C359.693,468.294,356.336,464.936,352.194,464.936z" data-original="#000000" class="active-path" data-old_color="#000000" fill="#009933"/>
	</g>
</g><g>
	<g>
		<path d="M400.291,464.936h-16.03c-4.142,0-7.5,3.358-7.5,7.5c0,4.142,3.358,7.5,7.5,7.5h16.03c4.142,0,7.5-3.358,7.5-7.5    C407.791,468.294,404.433,464.936,400.291,464.936z" data-original="#000000" class="active-path" data-old_color="#000000" fill="#009933"/>
	</g>
</g><g>
	<g>
		<path d="M312.113,248.5c-4.142,0-7.5,3.358-7.5,7.5v8.989c-21.066,2.487-39.01,15.296-48.613,33.227    c-9.603-17.931-27.547-30.74-48.613-33.227V256c0-4.142-3.358-7.5-7.5-7.5c-4.142,0-7.5,3.358-7.5,7.5v16.032    c0,32.538,24.561,59.431,56.113,63.156v0.973c0,4.142,3.358,7.5,7.5,7.5c4.142,0,7.5-3.358,7.5-7.5v-0.973    c31.552-3.725,56.113-30.618,56.113-63.156V256C319.613,251.858,316.255,248.5,312.113,248.5z M208.077,280.222    c20.255,3.452,36.281,19.478,39.733,39.733C227.555,316.503,211.529,300.477,208.077,280.222z M264.19,319.955    c3.452-20.255,19.478-36.281,39.733-39.733C300.471,300.477,284.445,316.503,264.19,319.955z" data-original="#000000" class="active-path" data-old_color="#000000" fill="#009933"/>
	</g>
</g><g>
	<g>
		<path d="M312.113,320.645c-4.142,0-7.5,3.358-7.5,7.5v8.989c-21.066,2.487-39.01,15.296-48.613,33.228    c-9.603-17.931-27.547-30.741-48.613-33.228v-8.989c0-4.142-3.358-7.5-7.5-7.5c-4.142,0-7.5,3.358-7.5,7.5v16.032    c0,32.538,24.561,59.431,56.113,63.156v25.022c0,4.142,3.358,7.5,7.5,7.5c4.142,0,7.5-3.358,7.5-7.5v-25.022    c31.552-3.725,56.113-30.618,56.113-63.156v-16.032C319.613,324.003,316.255,320.645,312.113,320.645z M208.077,352.368    c20.255,3.451,36.281,19.478,39.733,39.733C227.555,388.649,211.529,372.622,208.077,352.368z M264.19,392.1    c3.452-20.254,19.478-36.281,39.733-39.733C300.471,372.622,284.445,388.649,264.19,392.1z" data-original="#000000" class="active-path" data-old_color="#000000" fill="#009933"/>
	</g>
</g><g>
	<g>
		<path d="M261.395,178.645c-1.413-1.463-3.36-2.29-5.395-2.29s-3.982,0.827-5.395,2.29c-23.392,24.223-24.092,63.179-2.105,88.288    v5.099c0,4.142,3.358,7.5,7.5,7.5c4.142,0,7.5-3.358,7.5-7.5v-5.099C285.487,241.824,284.787,202.868,261.395,178.645z     M256,252.142c-11.375-16.878-11.375-39.536,0-56.413C267.375,212.606,267.375,235.264,256,252.142z" data-original="#000000" class="active-path" data-old_color="#000000" fill="#009933"/>
	</g>
</g></g> </svg>
