<?xml version="1.0" encoding="utf-8"?>
<!-- Generator: Adobe Illustrator 18.1.1, SVG Export Plug-In . SVG Version: 6.00 Build 0)  -->
<svg version="1.1" id="Capa_1" xmlns="http://www.w3.org/2000/svg" xmlns:xlink="http://www.w3.org/1999/xlink" x="0px" y="0px"
	 viewBox="0 0 100 100" enable-background="new 0 0 100 100" xml:space="preserve">
<g>
	<g id="Layer_5_66_">
		<g>
			<g>
				<path fill="#7BBB3B" d="M100,96.2c0,2.1-0.5,3.8-3.1,3.8H4.7C2.1,100,0,97.9,0,95.3V8.4c0-2.6,1.7-3.1,3.8-3.1s3.8,0.5,3.8,3.1
					v79.3c0,2.6,2.1,4.7,4.7,4.7h84.6C99.5,92.4,100,94.1,100,96.2z"/>
			</g>
			<path fill="#7BBB3B" d="M91.2,37.4c1.1,0.7,1.9,0.2,1.8-1.1l-1.8-20c-0.1-1.3-1.2-2-2.4-1.5L70,21.9c-1.2,0.5-1.3,1.4-0.2,2.1
				l3.5,2.2c1.1,0.7,1.4,2.1,0.7,3.2L59.7,50.9C59,52,57.4,52.5,56.2,52l-22.1-8.4c-1.2-0.5-2.9,0-3.7,1L16.5,61.5
				c-0.8,1-1.5,2.9-1.5,4.1l-0.1,13.7c0,1.3,0.7,1.5,1.5,0.6l17.9-20.8c0.8-1,2.5-1.4,3.7-0.9l22.3,8.4c1.2,0.5,2.8,0,3.5-1.1
				l20-29.9c0.7-1.1,2.2-1.4,3.3-0.7L91.2,37.4z"/>
		</g>
	</g>
</g>
</svg>
