<?xml version="1.0" encoding="utf-8"?>
<!-- Generator: Adobe Illustrator 18.1.1, SVG Export Plug-In . SVG Version: 6.00 Build 0)  -->
<svg version="1.1" id="Ebene_1" xmlns="http://www.w3.org/2000/svg" xmlns:xlink="http://www.w3.org/1999/xlink" x="0px" y="0px"
	 viewBox="0 0 100 100" enable-background="new 0 0 100 100" xml:space="preserve">
<g>
	<path fill="#6BB12E" d="M30.7,43H16.5v14.2h14.2V43z M26.1,52.7H21v-5.1h5.1V52.7z"/>
	<path fill="#6BB12E" d="M30.7,74.9H16.5v14.2h14.2V74.9z M26.1,84.5H21v-5.1h5.1V84.5z"/>
	<path fill="#6BB12E" d="M16.5,25.3h14.2V11.1H16.5V25.3z M21,15.7h5.1v5.1H21V15.7z"/>
	<path fill="#6BB12E" d="M0,0v31.8v4.5v27.3v4.5V100h95.4V68.3v-4.5V36.4v-4.5V0.1H0V0z M90.8,95.6H4.5V68.3h86.3V95.6z M90.8,63.8
		H4.5V36.4h86.3V63.8z M4.5,31.9V4.6h86.3v27.3H4.5L4.5,31.9z"/>
</g>
</svg>
