<?xml version="1.0" encoding="utf-8"?>
<!-- Generator: Adobe Illustrator 18.0.0, SVG Export Plug-In . SVG Version: 6.00 Build 0)  -->
<!DOCTYPE svg PUBLIC "-//W3C//DTD SVG 1.1//EN" "http://www.w3.org/Graphics/SVG/1.1/DTD/svg11.dtd">
<svg version="1.1" id="Capa_1" xmlns="http://www.w3.org/2000/svg" xmlns:xlink="http://www.w3.org/1999/xlink" x="0px" y="0px"
	 viewBox="0 0 350 350" enable-background="new 0 0 350 350" xml:space="preserve">
<path fill="#7BBB3B" d="M158.7,223.5c0,8.5-6.9,15.4-15.4,15.4c0,0,0,0,0,0H65.5c-8.5,0-15.4-6.9-15.4-15.4
	c0-17.9,14.5-32.4,32.4-32.4h3.2c-7.9-5.8-13-15-13-25.5c0-17.4,14.2-31.6,31.6-31.6s31.6,14.2,31.6,31.6c0,10.5-5.1,19.7-13,25.5
	h3.2c17.4,0,31.7,13.8,32.4,31.1C158.6,222.6,158.7,223.1,158.7,223.5z M350,68.7v212.7c0,6.4-5.2,11.5-11.5,11.5h-327
	c-6.4,0-11.5-5.2-11.5-11.5V68.7c0-6.4,5.2-11.5,11.5-11.5h327C344.8,57.2,350,62.3,350,68.7z M176,108c0-6.4-5.2-11.5-11.5-11.5
	H44.3c-6.4,0-11.5,5.2-11.5,11.5v134c0,6.4,5.2,11.5,11.5,11.5h120.2c6.4,0,11.5-5.2,11.5-11.5L176,108L176,108z M314.3,224.1
	c0-6.4-5.2-11.5-11.5-11.5h-82.2c-6.4,0-11.5,5.2-11.5,11.5s5.2,11.5,11.5,11.5h82.2C309.1,235.6,314.3,230.5,314.3,224.1z
	 M314.3,175c0-6.4-5.2-11.5-11.5-11.5h-82.2c-6.4,0-11.5,5.2-11.5,11.5s5.2,11.5,11.5,11.5h82.2C309.1,186.5,314.3,181.4,314.3,175z
	 M314.3,125.9c0-6.4-5.2-11.5-11.5-11.5h-82.2c-6.4,0-11.5,5.2-11.5,11.5c0,6.4,5.2,11.5,11.5,11.5h82.2
	C309.1,137.4,314.3,132.2,314.3,125.9z"/>
</svg>
