<svg xmlns="http://www.w3.org/2000/svg" width="453" height="535" viewBox="0 0 453 535"><style>.st0{fill:#FE3C3C;}</style><path class="st0" d="M315.9 349.3c9.7 41.2-17.8 61.9-40.3 63.9-16.7 1.5-30.8-4.3-41.4-17.5-10.5-13-12.5-27.9-8.4-44.5h-50.4c4.1 18.5 1.4 35.2-12.3 48.7-9.4 9.3-21 13.9-34.4 13.4-15.7-.5-28.1-7.5-37.3-20-9.3-12.6-9.1-27-6.9-42.1-5.8-1.1-11.3-.4-16.7-.6-12.6-.4-20.2-13-14.2-23.8 3-5.3 7.6-7.9 14-7.9 41.3.1 82.7 0 124 0h107.5c6 0 11.2-1.6 15-6.5 3.3-4.3 4.9-9 2.7-14.4-2.5-6.1-6.9-9.5-13.5-10.3-20.6-2.7-41.2-5.2-61.7-8.4-14.4-2.2-29-3.6-43.5-5.6-14.3-1.9-28.6-4.1-42.9-6-15-2-30-3.8-45-5.8-15.3-2-30.6-4-45.9-6.3-6.3-1-10.3-5.3-12.1-11.3-10.5-34.7-20.8-69.6-31.2-104.5-5.1-17.2-10.5-34.3-15.9-51.4-3-9.3 3.3-19.7 13-20.6 3.3-.3 6.7-.3 10-.3 105.7 0 211.3-.1 317 .1 4.9 0 7.4-1.3 9.2-6 11.1-29.7 32.5-47.9 63.1-55.6 5.4-1.4 10.8-1.8 16.3-1.8 9.3-.1 17.4 6.7 18.1 15.2.6 8.2-6.7 16.2-16.3 16.9-7.4.5-14.5 1.3-21.4 4.3-16.5 7.3-26.5 20-31.9 36.9-8.1 25.2-16.3 50.3-24.5 75.4-8.9 27.5-17.9 55-26.8 82.5-2.1 6.5-4.2 13-6.5 19.4-1.3 3.6-.7 6 2.8 8.3 16.5 10.9 24 26.5 21.7 46.1-2.2 18-12.3 30.4-28.8 37.8-1.4.7-2.8 1.5-4.2 2.3zM276.6 99.2c-10.3 0-20.2.1-30.2-.1-4-.1-5.4 1.2-5.7 5.4-.5 10.6-1.6 21.2-2.6 31.8-1.3 14.7-3 29.4-4.1 44.2-1.3 17.6-2.9 35.1-4.4 52.7-1.2 13.1-2.1 13.3 10.8 14.2 4.2.3 5.6-.9 6.4-4.7 3.4-16.2 7.1-32.4 10.6-48.7 5.4-24.8 10.9-49.6 15.9-74.5 1.4-6.3 3.6-12.5 3.3-20.3zm-68 1c-1.8-1.2-3.8-1-5.8-1-7.2 0-14.3.3-21.5-.1-5-.3-6.8 1.3-6.5 6.5 1.3 18.9.9 37.9 2.2 56.9 1.6 21.9 1 43.9 2.7 65.9.9 11.3.6 11.1 11.5 12.5 4.6.6 6.1-1.2 6.6-5.4 1.6-14.2 2.6-28.5 3.7-42.7 1.7-22.1 4.2-44 5.4-66.1.6-8.9 3.1-17.6 1.7-26.5zm117-.9c0-.1 0-.1 0 0-2.3-.1-4.7-.1-7-.1-8.8 0-8.7.2-10.5 8.8-4.8 23.6-9.8 47.1-14.9 70.7-4.9 22.9-10 45.7-15 68.6-.6 2.8-.1 4.9 3.3 5.4 1.8.2 3.5.9 5.4 1.2 2.8.4 4.7-.2 5.6-3.5 1.3-4.8 3.1-9.5 4.6-14.2 7.4-22.6 14.8-45.2 22.1-67.7 7.1-21.6 14.1-43.2 21.2-64.9.9-2.7.1-4.3-2.9-4.3-3.9-.1-7.9 0-11.9 0zm-218.9 0c5.3 28.1 10.4 55 15.6 81.9 3 15.6 5.9 31.3 8.9 46.9.4 2.1.5 4.5 3.4 4.9 4.2.6 8.5 1.3 12.6 1.9 1.5-2.1 1.1-4.2 1-6.1-2.1-22.2-1.3-44.5-3-66.8-1.5-19.2-.6-38.6-2.3-57.8-.2-2.1.1-4.8-3-4.8-10.8-.2-21.6-.1-33.2-.1zm-8.5 129.1c-.5-9.6-2.9-17.6-4.4-25.7-2.7-15-5.4-30.1-8.2-45.1-2.9-15.5-6.1-30.9-8.7-46.5C75 99.6 75 99.2 63.5 99.2h-15c-1.8 0-3.7-.3-5.5 1.4.9 6.2 3.2 12.3 5.1 18.4 10.2 34.2 20.5 68.4 30.7 102.7.5 1.7 1 3.6 2.7 3.9 5.2 1.1 10.6 1.8 16.7 2.8zM130 350.7c-8.6.1-15.2 6.6-15 15.2.2 10.5 7.1 15.2 15.3 15.7 8.2.5 15.1-7 15.2-15.4.1-8.5-6.9-15.6-15.5-15.5zm156.2 15.2c-.1-8.5-6.6-15.2-15.1-15.2-8.5-.1-15.8 7.2-15.6 15.5.2 8.1 7.5 15.5 15.3 15.6 8.2.1 15.4-7.4 15.4-15.9zM319.8 515.6c0 7.6-4.3 13.6-10.4 15.3-8 2.2-15.4-.4-19.3-7.6-7.5-13.7-17.2-25.2-29.7-34.5-19.3-14.3-41.2-21.4-65-19.8-37.3 2.6-65.7 20.6-84.3 53.3-5.5 9.7-16.7 12.3-24.5 5.9-5.8-4.7-7.6-13.4-3.8-20.4 15.7-29.1 39-49.8 69.7-62 15.3-6.1 31.4-9.9 47.7-9.3 51.8 1.9 91.5 25 117.5 70.4 1.6 3 2.5 5.9 2.1 8.7z"/></svg>