<svg xmlns="http://www.w3.org/2000/svg" xmlns:xlink="http://www.w3.org/1999/xlink" id="r1x4Mhv9z" enable-background="new 0 0 226.8 226.8" viewBox="0 0 226.8 226.8">
  <style>
    @-webkit-keyframes r1xgNG3D5z_r15NphP9G_Animation{0%,to{-webkit-transform:translate(0,0);transform:translate(0,0)}50%{-webkit-transform:translate(0,-20px);transform:translate(0,-20px)}}@keyframes r1xgNG3D5z_r15NphP9G_Animation{0%,to{-webkit-transform:translate(0,0);transform:translate(0,0)}50%{-webkit-transform:translate(0,-20px);transform:translate(0,-20px)}}@-webkit-keyframes rJmxNfhDcM_Animation{0%,to{opacity:1}50%{opacity:.2}}@keyframes rJmxNfhDcM_Animation{0%,to{opacity:1}50%{opacity:.2}}@-webkit-keyframes rJmxNfhDcM_ryR6snv9f_Animation{0%,to{-webkit-transform:scale(1,1);transform:scale(1,1)}50%{-webkit-transform:scale(.8,1);transform:scale(.8,1)}}@keyframes rJmxNfhDcM_ryR6snv9f_Animation{0%,to{-webkit-transform:scale(1,1);transform:scale(1,1)}50%{-webkit-transform:scale(.8,1);transform:scale(.8,1)}}#r1x4Mhv9z *{-webkit-animation-duration:3s;animation-duration:3s;-webkit-animation-iteration-count:infinite;animation-iteration-count:infinite;-webkit-animation-timing-function:cubic-bezier(0,0,1,1);animation-timing-function:cubic-bezier(0,0,1,1);transform-box:fill-box;-webkit-transform-origin:50% 50%;transform-origin:50% 50%}
  </style>
  <symbol id="New_Symbol_1_" viewBox="-132.4 -184.4 264.8 368.8">
    <g fill="#010101" stroke="#010101" stroke-linecap="round" stroke-linejoin="round" stroke-miterlimit="10" stroke-width="10">
      <path d="M68.1-112.7c-.5.6-.9 1.1-1.3 1.6-.2-.1-.5-.2-.7-.3-.6-.2-1.2-.5-1.8-.6l-1.9-.4c-.6-.1-1.3-.1-1.9-.1-.6-.1-1.3 0-1.9 0-1.3 0-2.5.3-3.6.6-1.1.4-2.2.7-3.2 1.1-1 .4-1.9 1-2.7 1.4-.8.5-1.4 1-2 1.5-.6.5-1.1 1-1.4 1.4-.3.4-.6.7-.8 1-.8-1.1-1.7-2.2-2.6-3.1-.5-.5-1-.9-1.6-1.4 0-.1.1-.2.2-.3.2-.3.4-.8.7-1.5.5-1.3 1-3.4.8-6-.1-2.5-1.1-5.6-2.9-8.2-.9-1.3-2-2.5-3.3-3.6-.6-.6-1.3-1.1-2-1.5-.2-.1-.4-.3-.5-.4 1-1 2.3-2.1 4.1-3.3 1-.7 2.2-1.3 3.4-1.9 1.2-.6 2.6-1.1 3.9-1.4 1.4-.4 2.8-.6 4.3-.7 1.5-.1 3 0 4.6.2.4.1.7.1 1.1.2 2.6 1.3 5.2 3.1 7.9 5.5 4.8 4.3 7.2 10.1 8.4 15.7-.5.8-1 1.5-1.4 2.2-.8.9-1.4 1.6-1.9 2.3zM35.5-85.1s-.1 0 0 0z"/>
      <path d="M111.8 6.1c-1.1 10.9-4.4 17.9-8.3 22.3-.2 3.7-.4 7.1-.3 6.9.3-.5 2-.1 2-.1L102.1 46l2.3 1.5-4.4 7.6 2 .6-4.5 6.3 2.2 1.8-7 4.6 2.1 1.8-1.6.6c6.1 1.8 10.9 3.3 16.8 3.6 9.1.4 15-.2 17.5-.6l-4.9 4.6 1.7-.4-6.3 6.1 2-.4s-8.3 6.3-7.8 6.2c.5-.1 2 0 2 0s-9.5 5.4-9 5.3c.5-.1 2 .4 2 .4l-8.9 3.3 1.5 1.1-8.6 2 1.6.7-8.1 1.5 1.1 1.2-9.4.3.9 1.2-8.7-.7.5 1.2-7.7-1.7.4.7h-1.4l.3.2-.7-.6h-.2l1.2 4.8h-1.9l-.8 4.6-1.3-.5-1.6 5.2-1.9-.2-1.3 2.1c5.3 10.7 10.3 20.8 14.1 28.5 1.4 2.4 8 13.1 9.7 16 .1.1.2.3.2.4.1.2.2.3.2.4 1.9 3.9-.1 8.8-4.6 11.1-3.3 1.7-7 1.4-9.5-.4-.7-.4-1.5-1.1-2.1-2.1-.1-.1-3.6-11.8-5.5-16.1-3.9-8.1-9.7-18.8-14.6-27.3-2.5 2.1-7.4 6.2-7.4 6.2l.4-1.3L24 144l.5-1.1-6.9 5.1c2-2.7 4.9-6.8 7.8-11.9-2.7 4.7-5.4 8.6-7.3 11.3.5-1.9 1.4-6.1 1.1-7.3-.2.2-1.3 1.2-1.3 1.2s.2-5.8-.8-6.4l-.5 1.1-2.2-6.2-.7 2.5-4.1-6.1-.6 2.1-2.6-6.6-1.5 1.8-1.2-6.7-6.7 7.1 2.7-5.1-10.8 10s.5-2.2-1.6-.3c-2.2 1.9-14.9 5.1-14.9 5.1l2.4-2.4-16 2.7s3.5-1.5 3.6-2.1c-.1-.2-2.8-.3-6.3-.3-7.8-.2-13.8-3.2-13.8-3.2h4.9c-1.8 0-8-3.2-9.8-4.4-.4-.3-.6-.5-.5-.4 4.3.3 8.1-8.9 8.1-8.9l-2.4.5 5.7-9.2-2.1.5 4.9-5.1h-4.2l.8-1.9-6.9-1.9 1.3-1.1-7.4-2.8 1.1-1.7-7.9-5s1.1-.9 1.6-.7c.2.1-1.3-1.5-3.1-3.3-5.2-.9-10.6-3.2-14.9-8.2-3.4-4-6-7.8-8-11.2.1-.3.2-.5.3-.8.2-.8.6-1.6 1-2.5.2-.4.4-.8.7-1.3.2-.4.5-.9.8-1.3.3-.4.6-.9.8-1.3.3-.4.6-.9 1-1.3.2-.3.5-.6.7-.9l-1.6-2.5c-.5.5-1 .9-1.4 1.4-.4.4-.8.9-1.2 1.3-.4.5-.7.9-1.1 1.4-.4.5-.7.9-1 1.4-.3.5-.6.9-.9 1.4-.5.9-1 1.8-1.4 2.7v.1c-5.3-3.8-9.9-9.2-13.3-16.3-1.8-3.7-2.5-7.4-2.4-11-.1-.1-.2-.2-.3-.4.6-.4 1.2-.7 1.7-1 .8-.5 1.7-.8 2.5-1.2.8-.4 1.5-.7 2.2-.9.7-.2 1.2-.4 1.7-.6 1-.3 1.5-.5 1.5-.5.3-.1.4-.4.3-.6-.1-.2-.3-.4-.6-.3 0 0-.6.1-1.6.4-.5.1-1.1.3-1.8.5-.7.1-1.5.4-2.3.7-.8.3-1.8.6-2.7 1-.7.3-1.4.7-2.1 1-2.5-3.4-5.3-7.4-6.9-15.4-1.7-8.4.6-14.3 1.4-19.7.2-.4.5-.9.8-1.3.3-.4.6-.9.8-1.3.3-.4.6-.9 1-1.3.6-.9 1.4-1.7 2.2-2.5.8-.8 1.6-1.5 2.4-2.3.9-.7 1.8-1.3 2.6-1.9.9-.5 1.8-1.1 2.6-1.6s1.7-.8 2.5-1.2c.8-.4 1.5-.7 2.2-.9.7-.2 1.2-.4 1.7-.6 1-.3 1.5-.5 1.5-.5.3-.1.4-.4.3-.6-.1-.2-.3-.4-.6-.3 0 0-.6.1-1.6.4-.5.1-1.1.3-1.8.5-.7.1-1.5.4-2.3.7-.8.3-1.8.6-2.7 1-.9.4-1.9.9-2.9 1.4l-3 1.8c-.9.7-2 1.4-2.9 2.2-.9.8-1.8 1.6-2.6 2.5-.4.4-.7.8-1.1 1.2-7-18.1-3.4-30.5.6-37.6.7-.4 1.4-.8 2-1.2.8-.5 1.7-.8 2.5-1.2.8-.4 1.5-.7 2.2-.9.7-.2 1.2-.4 1.7-.6 1-.3 1.5-.5 1.5-.5.3-.1.4-.4.3-.6-.1-.2-.3-.4-.6-.3 0 0-.6.1-1.6.4-.5.1-1.1.3-1.8.5-.7.1-1.5.4-2.3.7-.8.3-1.8.6-2.7 1-.4.2-.9.4-1.3.6-7.3-17.5-2-28.1 3.1-33.7 1.5.2 3 .5 4.3 1 1.2.4 2.2 1 3.1 1.7.9.6 1.8 1.3 2.5 2 .8.7 1.4 1.4 2 2 .5.6 1 1.2 1.4 1.7.1.1.2.3.3.4-.2.3-.4.5-.6.8-.6 1-1.2 2-1.6 3-.4 1-.8 2-1 3-.2 1-.4 1.9-.4 2.8-.1.9-.1 1.7-.1 2.3 0 .7.1 1.3.2 1.8.1 1 .3 1.5.3 1.5 0 .1.2.2.3.1.1 0 .1-.1.2-.2l.3-1.5c.2-.9.6-2.2 1.1-3.7.5-1.5 1.3-3.1 2.2-4.7.9-1.6 2.1-3.2 3.5-4.6.7-.7 1.4-1.3 2.2-1.9.4-.3.8-.6 1.2-.8.4-.3.8-.5 1.2-.8.8-.5 1.6-.9 2.4-1.3.4-.2.8-.4 1.2-.5.4-.2.8-.3 1.1-.5.7-.3 1.4-.6 2-.8.6-.2 1.2-.4 1.6-.6.9-.3 1.4-.5 1.4-.5.1-.1.2-.2.1-.3 0-.1-.1-.1-.2-.1 0 0-.6-.1-1.5-.2-.5-.1-1.1-.1-1.8-.1H-92c-.4 0-.8.1-1.2.1-.9.1-1.8.3-2.7.5-.5.1-1 .3-1.5.4l-1.5.6c-.5.2-1 .5-1.5.8l-1.5.9c-.7.5-1.4 1.1-2 1.7-.3-.5-.7-1.1-1.1-1.7l-.9-1.2c-.3-.4-.7-.8-1.2-1.3-.8-.9-1.8-1.8-3-2.6-1.1-.8-2.5-1.6-3.9-2.1-1.4-.6-3-1-4.6-1.2h-.5c-.8-4.9-1-11.7 2.3-19.3.7-.8 1.4-1.7 2.1-2.5l1.9-1.9.2-.2.1-.1.5-.5 1.1-.9c.4-.3.7-.7 1.1-.9l1-.7 1-.7c.4-.2.8-.4 1.1-.6.8-.4 1.5-.8 2.3-1 .8-.3 1.5-.6 2.3-.7.8-.2 1.5-.4 2.3-.5.8-.1 1.5-.2 2.3-.2.7 0 1.5-.1 2.2 0 .7 0 1.4.1 2.1.2 1.3.2 2.5.4 3.6.7 1.1.3 2 .6 2.7.8.8.3 1.3.5 1.7.7l.6.3c.3.1.6 0 .7-.3.1-.2 0-.4-.1-.6 0 0-.2-.2-.6-.5-.4-.3-.9-.7-1.6-1.1-.7-.4-1.6-1-2.7-1.4-.5-.3-1.1-.5-1.8-.7-.6-.3-1.3-.4-2-.6-.7-.2-1.5-.3-2.3-.5-.8-.2-1.6-.2-2.5-.3-.9-.1-1.8 0-2.7 0-.9 0-1.8.2-2.8.3-1 .1-1.9.5-2.8.7-1 .2-1.9.7-2.8 1.1-.5.2-.9.4-1.4.7l-1.3.8-1.1.7c.9-9.9 6.5-17.1 11.2-21.6h1.5c.4 0 .8.1 1.3.1.8.1 1.7.1 2.5.3.8.2 1.6.3 2.4.6.8.3 1.5.5 2.2.8.7.3 1.4.6 2 1 .6.4 1.3.7 1.9 1.2.6.4 1.2.8 1.7 1.2 1 .8 1.9 1.7 2.7 2.5.8.8 1.4 1.5 1.9 2.2.5.6.9 1.1 1.1 1.5.2.4.4.5.4.5.2.2.5.3.7.1.2-.1.3-.4.2-.6 0 0-.1-.3-.2-.7-.2-.4-.4-1.1-.8-1.8-.4-.8-.9-1.7-1.5-2.7-.3-.5-.7-1-1.1-1.6-.4-.6-.9-1.1-1.4-1.6-.5-.6-1.1-1.1-1.7-1.6-.6-.6-1.3-1.1-2-1.6s-1.5-1-2.3-1.4c-.8-.5-1.7-.8-2.5-1.2-.9-.4-1.8-.6-2.8-.9-.9-.3-1.9-.4-2.9-.6-.2 0-.3 0-.5-.1 4.2-10.1 11.8-15.5 16.7-18.1.4.5.8.9 1.2 1.4.6.6 1.1 1.2 1.5 1.8.4.6.8 1.1 1.1 1.5.6.8.9 1.3.9 1.3.2.2.5.3.7.1.2-.2.3-.4.1-.7 0 0-.3-.5-.8-1.4-.3-.4-.6-1-1-1.6-.3-.6-.8-1.3-1.4-2l-.9-1.2c.1 0 .2-.1.3-.1 6.6-9.9 14.5-11.9 21.1-11.1-1.1 1.5-2.2 3.1-3.1 4.7-1 1.7-1.8 3.4-2.4 5.3-.6 1.9-1.1 3.8-1.2 5.9-.1 2.1.3 4.2 1.2 6.2.5 1.1 1.1 2 1.8 2.9-.1.1-.2.1-.3.2-.9.6-1.7 1.2-2.5 1.9-1.6 1.4-2.9 3-4.1 4.7s-2.1 3.5-2.9 5.5-1.3 3.9-1.6 5.9c-.3 2-.5 4.1-.3 6.2.1 2.1.5 4.2 1.2 6.2s1.6 3.9 2.8 5.7c.6.8 1.2 1.6 1.9 2.4-1.1.8-2.1 1.8-2.9 2.8-1.4 1.8-2.4 3.7-3.2 5.8-.1.3-.3.5-.4.7-.2.3-.3.7-.4.9-.1.2-.2.4-.2.6-.1.3-.2.5-.2.5 0 .1-.1.2-.1.4-.1-.1-.1-.2-.2-.2-.6-.6-1.3-1.2-2.1-1.8-.8-.5-1.6-1.1-2.6-1.5-.9-.5-1.9-.8-2.9-1.1l-1.5-.3c-.5-.1-1-.1-1.5-.1-1-.1-2 .1-3 .2-.9.2-1.8.4-2.6.8s-1.5.6-2.1 1.1c-.6.4-1.2.8-1.6 1.1-.5.4-.8.7-1.1 1l-.9.9c-.2.2-.2.5 0 .7.1.1.3.2.5.1h.1s.4-.2 1.2-.4c.4-.1.8-.3 1.3-.5.5-.1 1.1-.3 1.7-.5.6-.2 1.3-.3 2-.4.7-.1 1.4-.2 2.2-.2.7.1 1.5 0 2.3.1.8.1 1.5.3 2.3.5.7.3 1.5.5 2.1.9.7.3 1.3.8 1.9 1.2.6.5 1.2.9 1.7 1.4.5.4.9.9 1.4 1.4.4.5.7.9 1 1.3.1.1.1.2.2.2-.1 1.7-.2 3.4-.1 5.1.3 4.5 1.4 9 3.4 13.1 1 2.1 2.4 4 3.9 5.7.9 1 2 2 3.1 2.8l-.3.3-.9 1.4c-.3.5-.6 1-.8 1.4-.2.5-.5 1-.7 1.5l-.6 1.5c-.3 1-.6 2.1-.8 3.2-.1.5-.2 1-.2 1.6-.1.3-.1.7-.1 1 0 .4-.1.8-.1 1.1l-2.1-1.8c-1.2-.8-2.5-1.6-3.8-2.3-1.4-.7-2.8-1.2-4.3-1.6-1.5-.4-3.1-.6-4.6-.7-1.5-.1-3 0-4.4.3-1.4.3-2.8.6-4 1.1-1.2.4-2.3.9-3.3 1.5-1 .5-1.8 1.1-2.6 1.6-.7.5-1.3 1-1.8 1.4-1 .9-1.5 1.4-1.5 1.4-.2.2-.2.5 0 .7.1.2.4.2.6.1 0 0 .6-.3 1.7-.9.6-.3 1.2-.6 2-.9.8-.3 1.7-.7 2.6-1 1-.3 2-.6 3.1-.9 1.1-.2 2.3-.4 3.5-.5 1.2 0 2.5-.1 3.8.1 1.3.2 2.5.4 3.8.8 2.5.8 4.8 2 6.8 3.4 1 .7 1.9 1.5 2.7 2.2.8.8 1.6 1.5 2.2 2.3l.3.3c.2.8.4 1.7.6 2.5.3 1 .7 2 1.1 3 .4 1 .9 1.9 1.4 2.9 1 1.9 2.2 3.6 3.6 5.3 1.4 1.6 2.9 3.1 4.6 4.4.9.6 1.7 1.2 2.7 1.8l.2.1s0 .1-.1.1c-.5.9-.9 1.6-1.3 2.3-.2.4-.3.7-.4.9-.1.2-.2.4-.2.6-.1.3-.2.5-.2.5-.1.3-.2.6-.2.9-.1.4-.3.8-.3 1.2-.1.5-.2.9-.3 1.4-.2 1-.3 1.9-.3 2.9s0 2 .1 3 .3 2 .6 2.9c.3 1 .6 1.9 1 2.8.8 1.8 1.9 3.5 3.1 4.9.6.7 1.3 1.5 2 2.1.7.7 1.5 1.3 2.2 1.9.8.6 1.6 1.1 2.5 1.6.9.5 1.7.9 2.7 1.3.5.2.9.3 1.4.5-.1.4-.3.7-.4 1.1-.2.6-.3 1.2-.5 1.8l-.4 1.9c-.1.6-.1 1.3-.2 1.9-.1 1.3 0 2.5.1 3.8.2 1.2.4 2.5.7 3.7.2.6.3 1.2.6 1.8.2.6.4 1.1.7 1.7.2.6.5 1.1.8 1.6.3.5.6 1.1.9 1.6.6 1 1.3 2 2.1 2.9.7.9 1.5 1.8 2.4 2.7.8.8 1.7 1.6 2.6 2.4.4.4.9.7 1.4 1.1.5.4.9.7 1.4 1 .5.3 1 .7 1.5.9l1.5.9c1 .6 2.1 1.1 3.2 1.5 1.1.5 2.2.8 3.3 1.2 1 .3 2 .5 3 .7-.1.4-.2.8-.3 1.3l2.9.8-2.3-2.4 6 3.2c0-.3.1-.6.1-.8.1-.7.3-1.5.5-2.3.2-.8.5-1.6.8-2.5.7-1.7 1.6-3.4 2.9-4.8.6-.8 1.3-1.4 2.1-2.1.4-.3.8-.6 1.1-.9.4-.3.8-.6 1.2-.8.8-.5 1.6-1 2.4-1.4.8-.4 1.6-.7 2.3-1 1.5-.5 2.8-.9 3.7-1.2.9-.2 1.5-.4 1.5-.4.1 0 .2-.2.2-.3 0-.1-.1-.2-.2-.2H3.3c-.7 0-1.5.1-2.3.2-.8.1-1.7.3-2.7.5-.5.1-1 .2-1.5.4s-1 .4-1.5.5c-.5.2-1 .5-1.5.7-.5.3-1 .5-1.5.8-1 .6-2 1.3-2.9 2.1-.9.8-1.7 1.7-2.5 2.6-.6.8-1.2 1.6-1.7 2.5l-.5-.1-1.4-.2c-1-.2-1.9-.4-2.8-.7-.9-.3-1.9-.6-2.8-1-.9-.4-1.8-.8-2.6-1.3-.4-.2-.9-.5-1.3-.7-.4-.2-.8-.5-1.2-.8l-1.2-.9c-.4-.3-.8-.6-1.1-.9-.8-.6-1.5-1.3-2.1-2-.7-.7-1.3-1.4-1.9-2.2-.6-.8-1.1-1.5-1.6-2.4-.2-.4-.5-.8-.7-1.2-.2-.4-.4-.8-.6-1.3-.2-.4-.4-.9-.5-1.3-.2-.4-.3-.9-.4-1.3-.3-.9-.4-1.8-.5-2.7-.1-.9-.1-1.8-.1-2.7 0-.3.1-.6.1-.9 0-.2.1-.5.2-.7.2-.8.5-1.7.8-2.7.2-.6.5-1.3.8-2l.1-.1.7-1.2c.2-.3.3-.6.4-.9.4-.7.8-1.3 1.2-2 .7-1.1 1.5-2.1 2.4-3.1.9-1 1.9-1.9 3-2.7 1.1-.8 2.3-1.5 3.5-2.1 1.2-.6 2.5-1 3.7-1.4 1.3-.3 2.5-.6 3.7-.7 1.2-.1 2.4-.2 3.5-.2s2.1.1 3 .2c.9.1 1.7.2 2.3.3 1.3.2 2 .4 2 .4.3 0 .5-.1.5-.4 0-.2-.1-.4-.3-.5 0 0-.7-.3-1.9-.8-.6-.2-1.4-.5-2.3-.8-.9-.3-1.9-.5-3.1-.7-1.2-.2-2.4-.3-3.8-.4-1.4-.1-2.8 0-4.3.3-3 .5-6.1 1.5-8.9 3.3-1.4.9-2.7 1.9-3.9 3-1.2 1.1-2.2 2.3-3.2 3.5l-.6.9C-41 2.9-43.7 1.9-46 .4c-.6-.4-1.2-.9-1.7-1.3-.6-.5-1.1-1-1.6-1.5-1-1.1-1.8-2.3-2.5-3.6-.3-.6-.6-1.3-.8-2-.2-.7-.4-1.4-.5-2.1-.1-.7-.2-1.4-.2-2.1 0-.7 0-1.4.2-2.1 0-.4.1-.7.2-1.1.1-.4.2-.7.3-1.1.2-.7.5-1.4.7-2.1.2-.5.6-1.1 1-1.8s1-1.5 1.6-2.3c1.2-1.6 2.9-3.4 4.9-4.9 1-.8 2.1-1.5 3.3-2.2 1.2-.6 2.4-1.2 3.7-1.6 1.3-.4 2.6-.7 4-.9 1.3-.2 2.7-.2 4-.1 1.3.1 2.6.3 3.8.5 1.2.2 2.3.6 3.3.9 1 .4 1.9.8 2.8 1.1.8.4 1.5.7 2.1 1 .1.1.3.2.4.2-.9.4-1.6.9-2.4 1.4-.8.4-1.5 1.1-2.2 1.6-1.3 1.1-2.4 2.4-3.3 3.7-.4.7-.8 1.3-1.1 1.9-.3.6-.6 1.2-.7 1.8-.4 1.2-.6 2.2-.6 3.1-.1.9 0 1.6 0 2 0 .2 0 .4.1.5v.2c0 .3.3.5.6.4.2 0 .4-.2.4-.4v-.2c0-.1 0-.3.1-.5.1-.4.2-1 .5-1.7.1-.4.3-.8.5-1.2.2-.4.4-.9.7-1.3.2-.5.6-.9.9-1.4.3-.5.7-1 1.1-1.4.9-.9 1.9-1.9 3.1-2.7.6-.4 1.2-.8 1.9-1.2.7-.4 1.4-.8 2.1-1 1.5-.6 3.1-1.1 4.8-1.6.9-.2 1.7-.4 2.6-.6l.3-.1h.2l.7-.1 1.4-.2c.5 0 1-.2 1.4-.2h2.4c.4 0 .8.1 1.3.1.2-.4 1.1-.4 1.8-.2.8.2 1.6.3 2.4.6.8.3 1.5.5 2.2.8.7.3 1.4.6 2 1 .6.4 1.3.7 1.9 1.2.6.4 1.2.8 1.7 1.2 1 .8 1.9 1.7 2.7 2.5.7.7 1.3 1.4 1.7 2-.4.2-.7.3-1 .5-.6.3-1.1.7-1.7 1-.6.3-1 .8-1.5 1.2-.9.8-1.7 1.8-2.2 2.7-.3.5-.5.9-.7 1.4-.2.5-.4.9-.5 1.3-.3.9-.4 1.6-.4 2.2 0 .6 0 1.1.1 1.4 0 .2.1.3.1.4v.1c.1.3.3.5.6.4.2 0 .3-.2.4-.4v-.1c0-.1 0-.2.1-.3.1-.3.2-.7.4-1.1.1-.2.2-.5.4-.8.1-.3.3-.6.5-.9.4-.6.9-1.2 1.4-1.8.6-.6 1.3-1.1 2.1-1.6.4-.2.8-.5 1.3-.7.5-.2.9-.5 1.4-.6 1-.4 2-.7 3.1-1 .6-.1 1.1-.2 1.7-.4H22.1l.5-.1.9-.1c.3 0 .7-.1.9-.1H26c.3 0 .5 0 .8.1.5 0 1.1.1 1.6.2s1 .2 1.5.4c1 .3 1.9.7 2.8 1.1.9.5 1.7.9 2.3 1.5.7.5 1.3 1.1 1.8 1.6s1 1 1.3 1.4c.3.4.6.7.8 1l.3.3c.2.2.5.3.7.1.2-.1.2-.3.2-.5 0 0 0-.2-.1-.5s-.2-.7-.5-1.3c-.2-.5-.5-1.2-1-1.9-.2-.4-.5-.7-.7-1.1l-.9-1.2c-.3-.4-.7-.8-1.1-1.2-.4-.4-.9-.8-1.3-1.1-1-.7-2.1-1.4-3.3-1.9-.6-.3-1.3-.5-1.9-.7-.7-.2-1.4-.3-2-.4-.4 0-.7-.1-1.1-.1H24c-.4 0-.6.1-1 .1h-1l-.5.1h-.4l-.2.1c-.7.2-1.3.3-2 .5-.4.1-.8.2-1.1.4v-.1c-.4-.8-.9-1.7-1.5-2.7-.3-.5-.7-1-1.1-1.6-.4-.6-.9-1.1-1.4-1.6-.5-.6-1.1-1.1-1.7-1.6-.6-.6-1.3-1.1-2-1.6s-1.5-1-2.3-1.4c-.8-.5-1.7-.8-2.5-1.2-.9-.4-1.8-.6-2.8-.9-.9-.3-1.9-.4-2.9-.6-.5-.1-1-.2-1.5-.2h-3.2c-.5 0-.9.1-1.4.1l-1.4.2-.7.1H-9l-.4.2c-1 .2-1.9.5-2.9.7-1.4.4-2.8.9-4.1 1.5-.2-.2-.5-.5-.9-.8-.5-.4-1.2-.9-2-1.4-.8-.5-1.7-1.1-2.7-1.6-1-.6-2.2-1.1-3.5-1.6-1.3-.5-2.7-.8-4.2-1.1-3-.5-6.3-.5-9.5.3-1.6.4-3.1.9-4.6 1.6-1.5.7-2.8 1.5-4.1 2.3-2 1.4-3.6 2.9-5 4.4l-.8-.4c-.8-.5-1.5-.9-2.2-1.5-1.4-1.1-2.7-2.3-3.9-3.7s-2.2-2.8-3-4.4c-.4-.6-.7-1.3-1-2v-.1s-.1-.2-.2-.5c-.1-.2-.1-.4-.2-.6-.1-.3-.2-.5-.4-.9l-.3-.6c0-.1-.1-.2-.1-.2-.3-.9-.5-1.7-.6-2.6-.2-.9-.3-1.8-.3-2.6-.1-1.8 0-3.5.3-5.2.1-.4.2-.7.3-1.1.1-.2.2-.4.3-.7.2-.6.5-1.1.8-1.7.3-.6.7-1.2 1.1-1.9.4-.6.8-1.3 1.3-1.9.4-.7 1-1.3 1.5-1.9.5-.6 1.1-1.2 1.6-1.8.6-.6 1.2-1.1 1.7-1.6.6-.5 1.2-.9 1.7-1.4.5-.5 1.1-.8 1.6-1.2.5-.3 1-.7 1.4-.9.4-.2.8-.5 1.1-.6.6-.4 1-.6 1-.6.2-.1.3-.4.2-.7-.1-.2-.4-.3-.6-.2 0 0-.4.2-1.1.4-.3.1-.8.3-1.3.5s-1 .5-1.6.8c-.6.3-1.2.6-1.8 1-.6.4-1.3.8-2 1.2-.7.5-1.4.9-2 1.5-.2.1-.4.3-.5.4l-.1-.1c-.1-.1-.3-.2-.4-.3-3.2-1.9-5.8-4.8-7.6-8.2-1.8-3.4-2.7-7.3-3-11.2-.2-2.9 0-5.8.7-8.5.1-.1.1-.2.1-.3 0 0 .1-.2.2-.5.1-.2.2-.4.2-.6l.3-.6c.2-.5.6-1.1 1-1.8s1-1.5 1.6-2.3c1.2-1.6 2.9-3.4 4.9-4.9 1-.8 2.1-1.5 3.3-2.2 1.2-.6 2.4-1.2 3.7-1.6 1.3-.4 2.6-.7 4-.9 1.3-.2 2.7-.2 4-.1 1.3.1 2.6.3 3.8.5 1.2.2 2.3.6 3.3.9 1 .3 1.9.8 2.8 1.1.6.3 1.1.5 1.6.8-.2.2-.5.4-.7.5-.8.7-1.4 1.5-1.9 2.3-.5.8-.8 1.6-1.1 2.3-.3.7-.4 1.4-.5 2-.1.6-.1 1.1-.1 1.6v1.4c0 .3.3.5.6.4.2 0 .3-.1.4-.3v-.1s0-.1.1-.3c.1-.2.2-.5.4-.8l.6-1.2.9-1.5c.4-.5.8-1 1.3-1.5s1-.9 1.6-1.3c.6-.4 1.2-.7 1.9-.9.6-.2 1.5-.4 2.1-.5.1 0 .4 0 .6-.1H-28.5c.8 0 1.5.1 2.2.2 1.4.3 2.6.8 3.6 1.5 1 .6 1.7 1.4 2.2 2 .2.3.4.5.5.7.1.2.2.2.2.3l.1.1c.2.2.5.3.7.1.1-.1.2-.2.2-.4v-.4c0-.2 0-.6-.1-1-.2-.9-.6-2.2-1.6-3.5-1-1.3-2.6-2.5-4.6-3.2-1-.3-2-.5-3-.6-.5 0-1-.1-1.6 0h-.8c-.2 0-.4 0-.7.1-1.2.1-2.2.4-3.2.9-.3.1-.5.2-.7.4-.5-.4-1.2-.9-2-1.4-.8-.5-1.7-1.1-2.7-1.6-1-.6-2.2-1.1-3.5-1.6-1.3-.5-2.7-.8-4.2-1.1-3-.5-6.3-.5-9.5.3-1.6.4-3.1.9-4.6 1.6-.9.4-1.8.9-2.7 1.4-.3-.3-.6-.6-.9-.8-.6-.6-1.1-1.3-1.6-1.9-1-1.4-1.7-2.9-2.3-4.5-.6-1.6-.9-3.3-1-5-.1-1.7 0-3.5.2-5.2.3-1.7.7-3.4 1.3-5.1.6-1.6 1.4-3.2 2.4-4.7s2.1-2.8 3.4-3.9c.6-.6 1.3-1.1 2-1.6.4-.2.7-.4 1.1-.7l.3-.1c.4-.2.9-.3 1.4-.5.9-.3 1.8-.5 2.8-.7 1-.1 2-.3 3-.3 1-.1 2.1 0 3.1.1 1 .2 2 .4 3 .7.5.1 1 .3 1.4.5.4.2.9.4 1.4.6.4.2.8.5 1.2.7.4.3.8.4 1.2.7.4.3.7.6 1.1.8.3.3.7.5 1 .8.6.6 1.2 1.1 1.7 1.5.5.5.9.9 1.2 1.3l1.1 1.1c.2.2.5.2.7 0 .1-.1.2-.3.1-.5 0 0-.2-.6-.6-1.5-.2-.5-.5-1.1-.8-1.7-.4-.6-.9-1.3-1.4-2.1-.5-.8-1.3-1.5-2-2.3-.3-.4-.8-.7-1.3-1.1-.5-.3-.9-.7-1.4-1.1-1-.6-2.1-1.3-3.3-1.6-.6-.2-1.2-.5-1.8-.6l-1.9-.4c-.6-.1-1.3-.1-1.9-.1-.6-.1-1.3 0-1.9 0-1.3 0-2.5.3-3.6.6-.8.3-1.6.5-2.3.8-1.2-1-2.2-2.1-2.9-3.4-.7-1.4-1.1-2.9-1.2-4.6-.1-3.3 1-6.8 2.6-10 1.5-3.1 3.5-6.1 5.6-8.9 6.9-4.2 15.7-7 25.1-4-.7 1.1-1.1 2.2-1.4 3-.3.8-.4 1.5-.5 2-.1.5 0 .7 0 .7-.1.3.1.5.4.6s.5-.1.6-.4c0 0 .1-.2.3-.5.2-.3.6-.8 1-1.3.9-.9 2.2-2.1 3.8-3.3 9.1-.1 20.6 2.6 33.9 11.8.1.1.2.1.3.2-1.8 2.1-2.8 4.1-3.3 5.6 0 .1-.1.2-.1.3-.9 0-1.7.1-2.5.3-.8.2-1.7.4-2.4.7-.7.3-1.5.6-2.1 1-.6.3-1.2.8-1.7 1.1-.5.4-.9.8-1.3 1.1-.4.4-.7.7-.9 1-.5.6-.7.9-.7.9-.1.1 0 .3.1.3h.2s.4-.1 1-.4c.3-.1.7-.2 1.2-.4.4-.1 1-.3 1.5-.5.5-.1 1.1-.3 1.7-.5.6-.2 1.3-.3 1.9-.4.7-.1 1.3-.2 2-.3.7 0 1.4-.1 2-.1h1c.3 0 .7.1 1 .1.7 0 1.3.2 1.9.4l.5.1.4.2.9.3c.6.1 1.1.4 1.6.6.3.1.5.2.8.3.3.1.5.2.7.3.4.2.8.4 1.1.5.6.3 1 .4 1 .4.1 0 .3 0 .3-.1v-.2s-.2-.4-.6-1c-.2-.3-.4-.7-.7-1.1-.3-.5-.7-.8-1.2-1.3-.5-.4-1-1-1.6-1.3-.6-.4-1.3-.9-2.1-1.1-.8-.3-1.6-.6-2.5-.8h-.2c1-1 2.3-2.1 4-3.2.7-.5 1.5-.9 2.3-1.3 7.9 1.2 17.2 4.3 23.6 11.9 2.2 2.6 3.8 5.2 5 7.8l-.9.3c-1.8.7-3.4 1.6-4.7 2.6-1.4 1-2.6 2.1-3.5 3.2-1.7 1.9-2.7 3.7-3.3 5.2-1.4-.7-2.7-1.3-4.2-1.7-.9-.2-1.8-.4-2.6-.5-.1-.1-.1-.2-.2-.3-.4-.8-.9-1.7-1.5-2.7-.3-.5-.7-1-1.1-1.6-.4-.6-.9-1.1-1.4-1.6-.5-.6-1.1-1.1-1.7-1.6-.6-.6-1.3-1.1-2-1.6s-1.5-1-2.3-1.4c-.8-.5-1.7-.8-2.5-1.2-.9-.4-1.8-.6-2.8-.9-.9-.3-1.9-.4-2.9-.6-.5-.1-1-.2-1.5-.2H.9c-.5 0-.9.1-1.4.1l-1.4.2-.7.1H-3l-.4.1c-1 .2-1.9.5-2.9.7-1.9.6-3.7 1.2-5.4 2.1-.9.4-1.6.9-2.4 1.4-.8.4-1.5 1.1-2.2 1.6-1.3 1.1-2.4 2.4-3.3 3.7-.4.7-.8 1.3-1.1 1.9-.3.7-.6 1.2-.7 1.8-.4 1.2-.6 2.2-.6 3.1 0 .4-.1.7-.1 1h-.2c-.4 0-.6.1-1 .1l-.9.1-.5.1h-.4l-.2.1c-.7.2-1.3.3-2 .5-1.3.4-2.6.8-3.7 1.5-.6.3-1.1.7-1.7 1-.6.3-1 .8-1.5 1.2-.9.8-1.7 1.8-2.2 2.7-.3.5-.5.9-.7 1.4-.2.5-.4.9-.5 1.3-.2.8-.3 1.6-.3 2.2 0 .6 0 1.1.1 1.4 0 .2.1.3.1.4v.1c.1.3.3.4.6.4.2-.1.3-.2.4-.4v-.1c0-.1 0-.2.1-.3.1-.3.2-.7.4-1.1.1-.2.2-.5.4-.8.1-.3.3-.6.5-.8.4-.6.8-1.2 1.4-1.8.6-.6 1.3-1.1 2.1-1.6.4-.2.8-.5 1.3-.7.5-.2.9-.5 1.4-.6 1-.4 2-.7 3.1-1 .6-.1 1.1-.2 1.7-.4H-24l.5-.1.9-.1c.3 0 .7-.1.9-.1h1.6c.3 0 .5 0 .8.1.5 0 1.1.1 1.6.2s1 .2 1.5.4c1 .3 1.9.7 2.8 1.1.9.5 1.7.9 2.3 1.5.7.5 1.3 1.1 1.8 1.6s1 1 1.3 1.4c.3.4.6.7.8 1l.3.3c.2.2.5.3.7.1.2-.1.2-.3.2-.5 0 0 0-.2-.1-.5s-.2-.7-.5-1.3c-.2-.5-.5-1.2-1-1.9-.2-.4-.5-.7-.7-1.1l-.9-1.2c-.3-.4-.7-.8-1.1-1.2-.4-.4-.9-.8-1.3-1.1-1-.7-2.1-1.4-3.3-1.9-.6-.3-1.3-.5-1.9-.7-.7-.2-1.4-.3-2-.4-.4 0-.7-.1-1.1-.1h-.5c.1-.2.1-.4.2-.7.1-.4.3-.8.5-1.2.2-.4.4-.9.7-1.3.2-.5.6-.9.9-1.4.3-.5.7-1 1.1-1.4.9-.9 1.9-1.9 3.1-2.7.6-.4 1.2-.8 1.9-1.2.7-.4 1.4-.8 2.1-1 1.5-.7 3.1-1.1 4.8-1.6.9-.2 1.7-.4 2.6-.6l.3-.1h.2l.7-.1 1.4-.2c.5 0 1-.2 1.4-.2h2.4c.4 0 .8.1 1.3.1.8.1 1.7.1 2.5.3.8.2 1.6.3 2.4.6.8.3 1.5.5 2.2.8.7.3 1.4.6 2 1 .6.4 1.3.7 1.9 1.2.6.4 1.2.8 1.7 1.2 1 .8 1.9 1.7 2.7 2.5.5.6 1 1.1 1.4 1.6h-.3c-1.6 0-3.2.3-4.6.8-1.4.4-2.6 1-3.7 1.6-1.1.6-2 1.3-2.8 1.9-.8.6-1.4 1.2-1.9 1.7s-.8.9-1.1 1.2c-.2.3-.4.5-.4.5-.2.2-.1.5.1.7.2.1.4.1.6 0 0 0 .1-.1.4-.3.3-.2.7-.5 1.3-.8 1.1-.7 2.8-1.6 4.8-2.3 1-.4 2.1-.7 3.3-.9 1.2-.2 2.4-.3 3.7-.2 1.3.1 2.6.3 3.8.7 1.3.4 2.5 1 3.7 1.6l1 .6.8.6c.6.4 1.1.8 1.7 1.3 1.1.9 2 1.8 2.9 2.8.8 1 1.5 2 2 3.1s.9 2.1 1.2 3.1c.5 2 .5 3.9.4 5.2 0 .6-.1 1.1-.2 1.4l-.1-.1c-.3-.2-.5-.4-.9-.6-1.4-.9-2.8-1.5-4.4-2-1.5-.4-3.1-.6-4.6-.6-1.5 0-2.9.3-4.2.7-1.3.4-2.4.9-3.4 1.5-1 .5-1.8 1.2-2.6 1.7-.7.6-1.3 1.1-1.7 1.6l-.3.3-.5-.4-.2-.2h-.1l-.1-.1-.1-.1-1-.6-1.2-.7-1.2-.6c-1.7-.7-3.5-1-5.2-1-1.7 0-3.4.3-5 .7-1.5.5-2.9 1.1-4.2 1.7-1.2.7-2.4 1.4-3.3 2.1-2 1.4-3.4 2.8-4.3 3.9s-1.4 1.7-1.4 1.7c-.2.2-.1.5.1.7.2.1.4.1.6 0 0 0 .2-.1.4-.3.3-.2.7-.5 1.3-.9 1.1-.7 2.7-1.8 4.7-2.8 1-.5 2.1-1 3.3-1.5 1.2-.5 2.4-.8 3.7-1.1 1.3-.3 2.6-.4 3.9-.3 1.3.1 2.6.4 3.8.9l.9.4.8.4 1 .7.8.6c1.1.9 2.1 1.8 2.9 2.8.9 1 1.6 2 2.1 3 .6 1 .9 2.1 1.2 3.1.3 1 .4 2 .4 2.8.1.9 0 1.6 0 2.3-.1.6-.1 1.1-.2 1.5-.1.3-.1.5-.1.5-.1.3.1.5.4.6.2 0 .4 0 .5-.2 0 0 .1-.2.3-.5.2-.3.5-.8.8-1.5.3-.7.6-1.5.8-2.5.2-1 .3-2.2.2-3.5-.1-1.3-.4-2.7-.9-4.1-.5-1.4-1.3-2.8-2.3-4.1-.7-.9-1.4-1.7-2.2-2.4 0 0 .1 0 .1-.1.5-.3 1.2-.6 1.9-1s1.6-.7 2.6-1c.9-.3 2-.6 3.1-.8 1.1-.2 2.2-.2 3.4-.2 1.2.1 2.3.3 3.5.7 1.1.4 2.3 1 3.3 1.6.2.1.6.4.8.6l.4.3.4.3 1.5 1.2c.9.8 1.8 1.7 2.5 2.7.7.9 1.3 1.9 1.8 2.9s.8 1.9 1 2.9c.4 1.9.4 3.5.2 4.7-.1.6-.1 1.1-.2 1.4-.1.3-.1.5-.1.5-.1.3.1.5.4.6.2 0 .4 0 .5-.2l.1-.1c.1-.1.1-.2.2-.3.2-.3.5-.8.7-1.4.3-.6.6-1.4.8-2.3.2-.9.4-2 .3-3.2 0-2-.6-4.4-1.8-6.6.1 0 .5-.3 1.3-.9.4-.3.9-.5 1.5-.8.6-.3 1.3-.6 2-1 .8-.3 1.6-.6 2.5-.9.9-.3 1.8-.5 2.8-.7 1-.1 2-.3 3-.3 1-.1 2.1 0 3.1.1.8.2 1.6.3 2.3.5 0 .1.1.1.1.2.2.2.4.2.6.1.5.1.9.3 1.3.5.5.2.9.4 1.4.6.4.2.8.5 1.2.7.4.3.8.4 1.2.7.4.3.7.5 1.1.8.3.3.7.5 1 .8.6.6 1.2 1.1 1.7 1.5.5.5.9.9 1.2 1.3l1.1 1.1c.2.2.5.2.7 0 .1-.1.2-.3.1-.5 0 0-.2-.6-.6-1.5-.2-.5-.5-1.1-.8-1.7-.4-.6-.9-1.3-1.4-2.1-.5-.8-1.3-1.5-2-2.3-.4-.4-.8-.7-1.3-1.1-.5-.3-.9-.7-1.4-1.1-.4-.2-.9-.5-1.3-.7l1.2-1.2c.6-.7 1.3-1.3 1.9-2.1.3-.4.7-.9 1-1.3 4.6 1.9 10.9 5.9 16.2 14.3 2.8 4.4 4.1 9.7 4.6 15-1.3.3-2.5.6-3.6 1.1-1.8.7-3.4 1.6-4.7 2.6-1.4 1-2.6 2.1-3.5 3.2-1.9 2.2-3.1 4.4-3.6 6-.1.3-.2.5-.2.8-.5 0-1-.1-1.5-.1-.6-.1-1.3 0-1.9 0-1.3 0-2.5.3-3.6.6-1.1.4-2.2.7-3.2 1.1-1 .4-1.9 1-2.7 1.4-.8.5-1.4 1-2 1.5-.6.5-1.1 1-1.4 1.4-.7.8-1 1.3-1 1.3-.3.4-.2.9.2 1.2.3.2.7.2 1 0 0 0 .5-.3 1.3-.9.4-.3.9-.5 1.5-.8.6-.3 1.3-.6 2-.9.8-.3 1.6-.6 2.5-.9.9-.3 1.8-.5 2.8-.7 1-.1 2-.3 3-.3 1-.1 2.1 0 3.1.1 1 .2 2 .4 3 .7.5.1 1 .3 1.4.5.5.2.9.4 1.4.6.4.2.8.5 1.2.7.4.3.8.4 1.2.7.4.3.7.5 1.1.8.3.3.7.5 1 .8.6.6 1.2 1.1 1.7 1.5.5.5.9.9 1.2 1.3l1.1 1.1c.2.2.5.2.7 0 .1-.1.2-.3.1-.5 0 0-.2-.6-.6-1.5-.2-.5-.5-1.1-.8-1.7-.4-.6-.9-1.3-1.4-2.1-.5-.8-1.3-1.5-2-2.3-.4-.4-.8-.7-1.3-1.1-.5-.3-.9-.7-1.4-1.1-1-.6-2.1-1.3-3.3-1.6-.6-.2-1.2-.5-1.8-.6l-.3-.1.1-.1c1-1.1 2.6-2.5 4.6-3.8 1-.7 2.2-1.3 3.4-1.9 1.2-.6 2.6-1.1 3.9-1.4 1.4-.4 2.8-.6 4.3-.7h.8c6.4 4.2 13.7 11.9 12.6 24.5-.1 0-.1.1-.2.1-.7.5-1.5.9-2.2 1.3-.8.3-1.6.7-2.4.8-.8.3-1.7.3-2.5.5h-1.2c-.4 0-.8.1-1.2 0-.8-.1-1.5-.1-2.2-.2-.7-.1-1.3-.3-1.9-.4-.6-.1-1-.3-1.5-.4-.8-.2-1.3-.3-1.3-.3h-.1c-.3-.1-.5.1-.6.4 0 .2 0 .4.2.5 0 0 .4.3 1.1.8.4.3.8.6 1.4.9.6.3 1.2.6 1.9 1s1.6.5 2.5.8c.4.2.9.2 1.4.3.5.1 1 .1 1.5.2 1 0 2.1.1 3.2-.2.5-.1 1.1-.1 1.6-.3l1.6-.5c.9-.4 1.8-.8 2.6-1.3 1.4 2.6 2.8 5.9 4 9.9 1.3 4.4 1.8 8.8 1.8 13.1-.1.1-.3.2-.4.3-.4.3-1 .6-1.6.9-.6.3-1.2.6-1.9.9-.7.3-1.5.5-2.2.8-.8.2-1.6.4-2.5.4-.8.1-1.7.1-2.6.1-.8-.1-1.7-.2-2.5-.4-.8-.1-1.6-.5-2.4-.8-.4-.2-.7-.4-1.1-.6-.3-.2-.7-.3-1-.6-.6-.4-1.3-.8-1.8-1.3-.2-.2-.5-.4-.7-.6.1-1.2.1-2.4-.1-3.5-.1-1.2-.4-2.4-.8-3.5s-.8-2.2-1.4-3.1-1.1-1.9-1.8-2.6c-.6-.8-1.3-1.5-1.9-2.1-.6-.6-1.3-1.1-1.8-1.5-.6-.4-1.1-.7-1.5-1-.9-.5-1.4-.7-1.4-.7-.1 0-.2 0-.3.1v.2s.4.4.9 1.2c.6.8 1.4 1.8 2.2 3.2.8 1.3 1.7 2.9 2.4 4.7.7 1.8 1.2 3.7 1.4 5.6.1 1 .1 1.9.1 2.9 0 .5-.1 1-.1 1.4-.1.5-.1.9-.2 1.4-.1.9-.3 1.8-.5 2.7-.1.4-.2.8-.3 1.3l-.3 1.2c-.2.8-.4 1.5-.6 2.1-.2.6-.4 1.2-.5 1.6-.3.9-.5 1.4-.5 1.4 0 .1 0 .3.2.3h.2l1.1-1.1c.4-.3.7-.8 1.2-1.4.2-.3.5-.6.7-.9.2-.3.4-.7.7-1 .5-.7.9-1.6 1.3-2.5.2-.5.4-.9.6-1.4.2-.5.3-1 .5-1.6 0-.1.1-.2.1-.4l1.2 1.2c.3.4.7.6 1.1.9l1.2.9c.9.5 1.8 1.1 2.9 1.3.5.2 1 .4 1.6.5l1.6.6c1.1.1 2.2.2 3.3 0 1.1-.1 2.1-.3 3.2-.5 1-.3 1.9-.6 2.8-1 .9-.4 1.6-.9 2.3-1.3.2-.1.4-.3.6-.4 3.6 14.1-.6 22.9-5.3 28.1 0 .8-.1 1.5-.1 2.2zM-32-163.3c1 .1 2 .3 2.9.6.5.1.9.3 1.4.4.5.2.9.3 1.4.5.9.4 1.7.8 2.5 1.2.4.2.8.4 1.1.6.4.2.7.4 1.1.6 1.3.8 2.5 1.6 3.2 2.2l1.2.9c.1.1.2 0 .2-.1v-.2s-.3-.5-.9-1.3c-.3-.4-.6-.9-1.1-1.4-.2-.3-.5-.5-.7-.8-.3-.3-.6-.6-.9-.8-.6-.6-1.3-1.2-2.1-1.8l-1.2-.9c-.5-.3-.9-.5-1.4-.8-.5-.2-1-.5-1.5-.7-.5-.2-1.1-.4-1.6-.6-1.1-.3-2.3-.6-3.4-.7-1.2-.1-2.3-.1-3.5 0-1.1.1-2.3.3-3.3.6-2.1.6-3.9 1.4-5.4 2.3-.7.4-1.3.9-1.9 1.3-.5.4-1 .8-1.3 1.2-.7.7-1 1.1-1 1.1-.1.1 0 .2 0 .2h.2s.5-.3 1.3-.7c.8-.4 2.1-1 3.5-1.5.7-.3 1.6-.5 2.4-.8.9-.3 1.8-.4 2.7-.6 2.1-.2 4.1-.3 6.1 0zM-89.3 51.6c.6-.6 1.2-1.1 1.8-1.7.9-.7 1.8-1.3 2.6-1.9.9-.5 1.8-1.1 2.6-1.6s1.7-.8 2.5-1.2c.8-.4 1.5-.7 2.2-.9.7-.2 1.2-.4 1.7-.6 1-.3 1.5-.5 1.5-.5.3-.1.4-.4.3-.6-.1-.2-.3-.4-.6-.3 0 0-.6.1-1.6.4-.5.1-1.1.3-1.8.5-.7.1-1.5.4-2.3.7-.8.3-1.8.6-2.7 1-.9.4-1.9.9-2.9 1.4l-3 1.8c-.9.7-2 1.4-2.9 2.2l-.5.5c1 .2 2.1.5 3.1.8zm115.1 83.5c-.2.3-.4.7-.6 1 .2-.4.4-.7.6-1zm6.7-14.7c-.1.2-.2.5-.3.7.1-.2.2-.4.3-.7zm-.5 1.3c-.1.2-.2.5-.3.7.2-.2.3-.5.3-.7zm-.4 1.2c-.1.3-.2.5-.3.8.1-.3.2-.6.3-.8zm-.5 1.2c-.1.3-.2.5-.3.8.1-.3.2-.5.3-.8zm-.5 1.2c-.1.3-.2.5-.3.8.1-.3.2-.6.3-.8zm-.5 1.2c-.1.3-.2.5-.3.8.1-.3.2-.6.3-.8zm-.5 1.1c-.1.3-.2.5-.4.8.2-.2.3-.5.4-.8zm-.5 1.2c-.1.3-.3.5-.4.8.1-.3.2-.6.4-.8zm-.6 1.1c-.1.3-.3.6-.4.8.2-.3.3-.5.4-.8zM28 131c-.1.3-.3.6-.4.9.1-.4.3-.6.4-.9zm-.5 1c-.2.3-.3.6-.5.9.2-.3.3-.6.5-.9zm-.6 1.1c-.2.3-.3.6-.5.9.2-.3.3-.6.5-.9zm-.5 1c-.2.3-.3.6-.5.9.1-.3.3-.6.5-.9zM-90.2 52.6c-.8-.6-1.6-1.1-2.3-1.7.7.6 1.5 1.1 2.3 1.7zm3.7-79.9s-.3-.5-.8-1.3c-.3-.4-.6-.9-1-1.4-.2-.3-.4-.6-.7-.9-.3-.3-.6-.6-.8-.9-.6-.6-1.3-1.2-2.1-1.8-.4-.3-.8-.6-1.3-.9-.5-.3-.9-.5-1.4-.8-.5-.2-1-.5-1.5-.7-.5-.2-1.1-.4-1.6-.6-1.1-.3-2.3-.6-3.5-.7-1.2-.1-2.4-.1-3.6 0-1.2.1-2.3.3-3.4.6s-2.1.7-3 1.1c-.9.4-1.7.9-2.4 1.4-.7.5-1.3 1-1.9 1.4-.5.4-1 .9-1.3 1.2-.7.7-1 1.2-1 1.2-.1.1 0 .2.1.3h.2s.5-.2 1.4-.6c.9-.4 2.1-.9 3.6-1.4 1.5-.5 3.2-1 5.1-1.2 1.9-.3 3.8-.3 5.8-.1 1 .1 1.9.3 2.9.5.5.1.9.3 1.4.4.5.2.9.3 1.3.5.9.3 1.7.7 2.5 1.1.4.2.8.4 1.1.6s.7.4 1.1.6c.7.4 1.3.7 1.9 1.1.6.4 1.1.6 1.5.9.8.5 1.3.8 1.3.8.1.1.3 0 .3-.1-.1-.2-.1-.3-.2-.3zm39.2 40.9s-.5-.7-1.4-1.7c-.9-1-2.4-2.4-4.3-3.9-1-.7-2.1-1.4-3.3-2.1-1.3-.7-2.6-1.3-4.2-1.7-1.5-.5-3.2-.7-5-.7-1.7 0-3.6.3-5.2 1-.5.1-.9.3-1.3.5l-1.2.7-1 .6-.1.1-.1.1h-.1l-.2.2-.5.4-.3-.3c-.5-.5-1-1-1.7-1.6-.7-.6-1.6-1.2-2.6-1.7s-2.1-1.1-3.4-1.5c-1.3-.4-2.7-.7-4.2-.7s-3.1.2-4.6.6c-1.6.5-3 1.1-4.4 2-.4.2-.6.4-.9.6l-.1.1c-.1-.3-.1-.8-.2-1.4-.1-1.3 0-3.1.4-5.2.3-1 .6-2.1 1.2-3.1.5-1 1.2-2.1 2-3.1s1.8-1.9 2.9-2.8c.5-.4 1.1-.9 1.7-1.3l.8-.6 1-.6c1.1-.6 2.4-1.2 3.7-1.6 1.3-.4 2.6-.7 3.8-.7 1.3-.1 2.5 0 3.7.2 1.2.2 2.3.5 3.3.9 2 .7 3.7 1.6 4.8 2.3.6.4 1 .6 1.3.8.3.2.4.3.4.3.2.2.5.1.7-.1.1-.2.1-.4 0-.6 0 0-.1-.2-.4-.5-.2-.3-.6-.7-1.1-1.2-.5-.5-1.1-1.1-1.9-1.7-.8-.6-1.7-1.3-2.8-1.9-1.1-.6-2.3-1.2-3.7-1.6-1.4-.4-2.9-.7-4.6-.8-1.6 0-3.3.1-5 .6-1.6.4-3.2 1.1-4.8 2l-1 .6c-.4.3-.7.5-1.1.7-.7.5-1.3 1-2 1.5-1.3 1.1-2.4 2.3-3.3 3.6-1.9 2.6-2.8 5.7-2.9 8.2-.2 2.6.4 4.6.8 6 .2.7.5 1.2.7 1.5.1.1.1.2.2.3-.6.4-1.1.9-1.6 1.4-1.1 1.1-2.1 2.2-2.9 3.5-1.6 2.5-2.4 5.3-2.4 7.7 0 1.2.1 2.3.3 3.2.2.9.5 1.7.8 2.3.3.6.5 1.1.7 1.4.1.2.2.3.2.3l.1.1c.2.2.5.3.7.1.2-.1.2-.3.2-.5 0 0 0-.1-.1-.5-.1-.3-.1-.8-.2-1.4-.1-1.2-.2-2.9.2-4.7.2-.9.5-1.9 1-2.9s1-1.9 1.8-2.9c.7-.9 1.6-1.8 2.5-2.7l1.5-1.2.4-.3.4-.3c.3-.2.6-.4.8-.6 1-.6 2.1-1.2 3.3-1.6 1.1-.4 2.3-.6 3.5-.7 1.2-.1 2.3 0 3.4.2 1.2.4 2.2.6 3.2.9.9.3 1.8.7 2.6 1 .7.4 1.4.7 1.9 1 0 0 .1 0 .1.1-.8.8-1.6 1.6-2.2 2.4-1 1.3-1.8 2.7-2.3 4.1-.5 1.4-.8 2.8-.9 4.1-.1 1.3 0 2.5.2 3.5s.5 1.9.8 2.5c.3.7.6 1.2.8 1.5.2.3.3.5.3.5.2.2.5.3.7.1.2-.1.2-.3.2-.5 0 0 0-.2-.1-.5s-.1-.9-.2-1.5-.1-1.4 0-2.3c.1-.9.2-1.8.4-2.8.3-1 .6-2 1.2-3.1.6-1 1.3-2 2.1-3 .9-1 1.8-1.9 2.9-2.8l.8-.6 1-.7.8-.4.9-.4c1.2-.5 2.5-.8 3.8-.9 1.3-.1 2.6 0 3.9.3 1.3.2 2.5.6 3.7 1.1 1.2.4 2.3.9 3.3 1.5 2 1 3.6 2 4.7 2.8.6.4 1 .7 1.3.9.3.2.4.3.4.3.2.2.5.1.7-.1 0-.2 0-.4-.1-.6zm60.2-87.7c-.1-.5-.4-1.1-.7-2-.3-.8-.8-1.9-1.4-3-.6-1.1-1.3-2.4-2.3-3.6-1-1.3-2.1-2.6-3.5-3.8-1.4-1.2-3-2.4-4.8-3.3-1.8-.9-3.9-1.6-6-2-2.2-.4-4.3-.4-6.6-.2-.6 0-1 .1-1.5.2l-.4.1h-.5l-.8.2c-1 .2-2.1.5-3.1.8-2 .6-4 1.5-5.7 2.6-1.7 1.1-3.3 2.4-4.5 3.8-1.3 1.4-2.2 2.9-2.9 4.4-.7 1.5-1.2 2.9-1.4 4.2-.3 1.3-.4 2.4-.4 3.3v1c-.9.1-1.9.3-2.7.5-1.1.4-2.2.7-3.2 1.1-1 .4-1.9 1-2.7 1.4-.8.5-1.4 1-2 1.5-.6.5-1.1 1-1.4 1.4-.7.8-1 1.3-1 1.3-.3.4-.2.9.2 1.2.3.2.7.2 1 0 0 0 .5-.3 1.3-.9.4-.3.9-.5 1.5-.8.6-.3 1.3-.6 2-1 .8-.3 1.6-.6 2.5-.9.9-.3 1.8-.5 2.8-.7 1-.1 2-.3 3-.3 1-.1 2.1 0 3.1.1 1 .2 2 .4 3 .7.5.1 1 .3 1.4.5.5.2.9.4 1.4.6.4.2.8.5 1.2.7.4.3.8.4 1.2.7.4.3.7.6 1.1.8.3.3.7.5 1 .8.6.6 1.2 1.1 1.7 1.5.4.4.7.7.9 1-.3.3-.5.7-.8 1-.6 1-1.2 2-1.6 3-.4 1-.8 2-1 3-.2 1-.4 1.9-.4 2.8-.1.9-.1 1.7-.1 2.3 0 .7.1 1.3.2 1.8.1 1 .3 1.5.3 1.5 0 .1.2.2.3.1.1 0 .1-.1.2-.2 0 0 .1-.5.4-1.5.2-.9.6-2.2 1.1-3.7.5-1.5 1.3-3.1 2.2-4.7.9-1.6 2.1-3.2 3.5-4.6.7-.7 1.4-1.3 2.2-1.9.4-.3.8-.6 1.2-.8.4-.3.8-.5 1.2-.8.8-.5 1.6-.9 2.4-1.3.4-.2.8-.4 1.2-.5.4-.2.8-.3 1.1-.5.7-.3 1.4-.6 2-.8.6-.2 1.2-.4 1.6-.6.6.3 1.1 0 1.1 0 .1-.1.2-.2.1-.3.1-.1 0-.1-.1-.1 0 0-.6-.1-1.5-.2-.5-.1-1.1-.1-1.8-.1h-1.1c-.4 0-.8.1-1.2.1-.9.1-1.8.3-2.7.5-.5.1-1 .3-1.5.4l-1.5.6c-.5.2-1 .5-1.5.8l-1.5.9c-1 .7-1.9 1.4-2.7 2.3l-.3.3c-.1-.3-.3-.6-.4-.9-.4-.6-.9-1.3-1.4-2.1-.5-.8-1.3-1.5-2-2.3-.4-.4-.8-.7-1.3-1.1-.5-.3-.9-.7-1.4-1.1-1-.6-2.1-1.3-3.3-1.6-.6-.2-1.2-.5-1.8-.6l-1.9-.4c-.6-.1-1.3-.1-1.9-.1H-32c0-.2.1-.4.2-.7.4-1.6 1.3-3.9 2.8-6.2.8-1.1 1.7-2.3 2.9-3.4 1.2-1 2.5-2 4-2.8 1.5-.8 3.2-1.5 4.9-2 .9-.3 1.8-.5 2.7-.7l.7-.1.7-.1c.5-.1 1-.2 1.4-.2l1.3-.1H-9l1.4.1 1.3.1c1.8.2 3.5.7 5 1.4 1.6.7 3 1.5 4.3 2.5 1.3 1 2.5 2 3.5 3s1.9 2 2.6 3c.7.9 1.3 1.8 1.8 2.5s.8 1.3 1.1 1.7l.3.6c.1.2.4.3.7.2.2-.1.3-.3.2-.6-.1.1-.1-.2-.3-.7zm40.8-4.7c-.1-.3-.2-.7-.5-1.3-.2-.5-.5-1.2-1-1.9-.2-.4-.5-.7-.7-1.1l-.9-1.2c-.3-.4-.7-.8-1.1-1.2-.4-.4-.9-.8-1.3-1.1-1-.7-2.1-1.4-3.3-1.9-.6-.3-1.3-.5-1.9-.7-.7-.2-1.4-.3-2-.4-.3 0-.7-.1-1.1-.1h-2.2c-.4 0-.6.1-1 .1l-.9.1-.5.1h-.4l-.3.1c-.7.2-1.3.3-2 .5-1.3.4-2.6.8-3.7 1.5-.6.3-1.1.7-1.7 1-.6.3-1 .8-1.5 1.2-.9.8-1.7 1.8-2.2 2.7-.3.5-.5.9-.7 1.4-.2.5-.4.9-.5 1.3-.2.8-.3 1.6-.4 2.2 0 .6 0 1.1.1 1.4 0 .2.1.3.1.4v.1c.1.3.4.4.6.4.2-.1.3-.2.4-.4v-.1c0-.1 0-.2.1-.3.1-.3.2-.7.4-1.1.1-.2.2-.5.4-.8.1-.3.3-.6.5-.8.4-.6.9-1.2 1.4-1.8.6-.6 1.3-1.1 2.1-1.6.4-.2.8-.5 1.3-.7.5-.2.9-.5 1.4-.6 1-.4 2-.7 3.1-1 .6-.1 1.1-.2 1.7-.4H35.8l.5-.1.9-.1c.3 0 .7-.1.9-.1h1.6c.3 0 .5 0 .8.1.5 0 1.1.1 1.6.2s1 .2 1.5.4c1 .3 1.9.7 2.8 1.1.9.5 1.7.9 2.3 1.5.7.5 1.3 1.1 1.8 1.6s1 1 1.3 1.4c.3.4.6.7.8 1l.3.3c.2.2.5.3.7.1.2-.1.2-.3.2-.5 0-.4-.1-.6-.1-.9zM58.9-44s-.3-.5-.8-1.3c-.3-.4-.6-.9-1-1.4-.2-.3-.4-.6-.7-.9-.3-.3-.6-.6-.8-.9-.6-.6-1.3-1.2-2.1-1.8-.4-.3-.8-.6-1.3-.9-.5-.3-.9-.5-1.4-.8-.5-.2-1-.5-1.5-.7-.5-.2-1.1-.4-1.6-.6-1.1-.3-2.3-.6-3.5-.7-.8-.1-1.6-.1-2.5-.1 0-.1-.1-.1-.1-.2-.4-.6-.9-1.3-1.4-2.1-.5-.8-1.3-1.5-2-2.3-.4-.4-.8-.7-1.3-1.1-.5-.3-.9-.7-1.4-1.1-1-.6-2.1-1.3-3.3-1.6-.6-.2-1.2-.5-1.8-.6l-1.9-.4c-.6-.1-1.3-.1-1.9-.1-.6-.1-1.3 0-1.9 0-1.3 0-2.5.3-3.6.6-1.1.4-2.2.7-3.2 1.1-1 .4-1.9 1-2.7 1.4-.8.5-1.4 1-2 1.5-.6.5-1.1 1-1.4 1.4-.7.8-1 1.3-1 1.3-.3.4-.2.9.2 1.2.3.2.7.2 1 0 0 0 .5-.3 1.3-.9.4-.3.9-.5 1.5-.8.6-.3 1.3-.6 2-1 .8-.3 1.6-.6 2.5-.9.9-.3 1.8-.5 2.8-.7 1-.1 2-.3 3-.3 1-.1 2.1 0 3.1.1 1 .2 2 .4 3 .7.5.1 1 .3 1.4.5.5.2.9.4 1.4.6.4.2.8.5 1.2.7.4.3.8.4 1.2.7.4.3.7.6 1.1.8.3.3.7.5 1 .8.3.3.5.5.8.7-.6.1-1.2.2-1.8.4-1.1.3-2.1.7-3 1.1-.9.4-1.7.9-2.4 1.4-.7.5-1.3 1-1.9 1.4-.5.4-1 .9-1.3 1.2-.7.7-1 1.2-1 1.2-.1.1 0 .2.1.3h.2s.5-.2 1.4-.6c.9-.4 2.1-.9 3.6-1.4 1.5-.5 3.2-1 5.1-1.2 1.9-.3 3.8-.3 5.8-.1 1 .1 1.9.3 2.9.5.5.1.9.3 1.4.4.5.2.9.3 1.3.5.9.3 1.7.7 2.5 1.1.4.2.8.4 1.1.6.4.2.7.4 1.1.6.7.4 1.3.7 1.9 1.1.6.3 1.1.6 1.5.9.8.5 1.3.8 1.3.8.1.1.3 0 .3-.1-.5.2-.5.1-.5 0zM-23.6-126.1zM21.8-15.9s0 .1 0 0z"/>
    </g>
    <path fill="#C71F41" d="M35.5-85.1s-.1 0 0 0z"/>
    <g fill="#C71F41">
      <path d="M68.1-112.7c-.5.6-.9 1.1-1.3 1.6-.2-.1-.5-.2-.7-.3-.6-.2-1.2-.5-1.8-.6l-1.9-.4c-.6-.1-1.3-.1-1.9-.1-.6-.1-1.3 0-1.9 0-1.3 0-2.5.3-3.6.6-1.1.4-2.2.7-3.2 1.1-1 .4-1.9 1-2.7 1.4-.8.5-1.4 1-2 1.5-.6.5-1.1 1-1.4 1.4-.3.4-.6.7-.8 1-.8-1.1-1.7-2.2-2.6-3.1-.5-.5-1-.9-1.6-1.4 0-.1.1-.2.2-.3.2-.3.4-.8.7-1.5.5-1.3 1-3.4.8-6-.1-2.5-1.1-5.6-2.9-8.2-.9-1.3-2-2.5-3.3-3.6-.6-.6-1.3-1.1-2-1.5-.2-.1-.4-.3-.5-.4 1-1 2.3-2.1 4.1-3.3 1-.7 2.2-1.3 3.4-1.9 1.2-.6 2.6-1.1 3.9-1.4 1.4-.4 2.8-.6 4.3-.7 1.5-.1 3 0 4.6.2.4.1.7.1 1.1.2 2.6 1.3 5.2 3.1 7.9 5.5 4.8 4.3 7.2 10.1 8.4 15.7-.5.8-1 1.5-1.4 2.2-.8.9-1.4 1.6-1.9 2.3zM-64.2-161.1c-.6 1.9-1.1 3.8-1.2 5.9-.1 2.1.3 4.2 1.2 6.2.5 1.1 1.1 2 1.8 2.9-.1.1-.2.1-.3.2-.9.6-1.7 1.2-2.5 1.9-1.6 1.4-2.9 3-4.1 4.7s-2.1 3.5-2.9 5.5-1.3 3.9-1.6 5.9c-.3 2-.5 4.1-.3 6.2.1 2.1.5 4.2 1.2 6.2s1.6 3.9 2.8 5.7c.6.8 1.2 1.6 1.9 2.4-1.1.8-2.1 1.8-2.9 2.8-1.4 1.8-2.4 3.7-3.2 5.8-.1.3-.3.5-.4.7-.2.3-.3.7-.4.9-.1.2-.2.4-.2.6-.1.3-.2.5-.2.5 0 .1-.1.2-.1.4-.1-.1-.1-.2-.2-.2-.6-.6-1.3-1.2-2.1-1.8-.8-.5-1.6-1.1-2.6-1.5-.9-.5-1.9-.8-2.9-1.1l-1.5-.3c-.5-.1-1-.1-1.5-.1-1-.1-2 .1-3 .2-.9.2-1.8.4-2.6.8s-1.5.6-2.1 1.1c-.6.4-1.2.8-1.6 1.1-.5.4-.8.7-1.1 1l-.9.9c-.2.2-.2.5 0 .7.1.1.3.2.5.1h.1s.4-.2 1.2-.4c.4-.1.8-.3 1.3-.5.5-.1 1.1-.3 1.7-.5.6-.2 1.3-.3 2-.4.7-.1 1.4-.2 2.2-.2.7.1 1.5 0 2.3.1.8.1 1.5.3 2.3.5.7.3 1.5.5 2.1.9.7.3 1.3.8 1.9 1.2.6.5 1.2.9 1.7 1.4.5.4.9.9 1.4 1.4.4.5.7.9 1 1.3.1.1.1.2.2.2-.1 1.7-.2 3.4-.1 5.1.3 4.5 1.4 9 3.4 13.1 1 2.1 2.4 4 3.9 5.7.9 1 2 2 3.1 2.8l-.3.3-.9 1.4c-.3.5-.6 1-.8 1.4-.2.5-.5 1-.7 1.5l-.6 1.5c-.3 1-.6 2.1-.8 3.2-.1.5-.2 1-.2 1.6-.1.3-.1.7-.1 1 0 .4-.1.8-.1 1.1l-2.1-1.8c-1.2-.8-2.5-1.6-3.8-2.3-1.4-.7-2.8-1.2-4.3-1.6-1.5-.4-3.1-.6-4.6-.7-1.5-.1-3 0-4.4.3-1.4.3-2.8.6-4 1.1-1.2.4-2.3.9-3.3 1.5-1 .5-1.8 1.1-2.6 1.6-.7.5-1.3 1-1.8 1.4-1 .9-1.5 1.4-1.5 1.4-.2.2-.2.5 0 .7.1.2.4.2.6.1 0 0 .6-.3 1.7-.9.6-.3 1.2-.6 2-.9.8-.3 1.7-.7 2.6-1 1-.3 2-.6 3.1-.9 1.1-.2 2.3-.4 3.5-.5 1.2 0 2.5-.1 3.8.1 1.3.2 2.5.4 3.8.8 2.5.8 4.8 2 6.8 3.4 1 .7 1.9 1.5 2.7 2.2.8.8 1.6 1.5 2.2 2.3l.3.3c.2.8.4 1.7.6 2.5.3 1 .7 2 1.1 3 .4 1 .9 1.9 1.4 2.9 1 1.9 2.2 3.6 3.6 5.3 1.4 1.6 2.9 3.1 4.6 4.4.9.6 1.7 1.2 2.7 1.8l.2.1s0 .1-.1.1c-.5.9-.9 1.6-1.3 2.3-.2.4-.3.7-.4.9-.1.2-.2.4-.2.6-.1.3-.2.5-.2.5-.1.3-.2.6-.2.9-.1.4-.3.8-.3 1.2-.1.5-.2.9-.3 1.4-.2 1-.3 1.9-.3 2.9s0 2 .1 3 .3 2 .6 2.9c.3 1 .6 1.9 1 2.8.8 1.8 1.9 3.5 3.1 4.9.6.7 1.3 1.5 2 2.1.7.7 1.5 1.3 2.2 1.9.8.6 1.6 1.1 2.5 1.6.9.5 1.7.9 2.7 1.3.5.2.9.3 1.4.5-.1.4-.3.7-.4 1.1-.2.6-.3 1.2-.5 1.8l-.4 1.9c-.1.6-.1 1.3-.2 1.9-.1 1.3 0 2.5.1 3.8.2 1.2.4 2.5.7 3.7.2.6.3 1.2.6 1.8.2.6.4 1.1.7 1.7.2.6.5 1.1.8 1.6.3.5.6 1.1.9 1.6.6 1 1.3 2 2.1 2.9.7.9 1.5 1.8 2.4 2.7.8.8 1.7 1.6 2.6 2.4.4.4.9.7 1.4 1.1.5.4.9.7 1.4 1 .5.3 1 .7 1.5.9l1.5.9c1 .6 2.1 1.1 3.2 1.5 1.1.5 2.2.8 3.3 1.2 1 .3 2 .5 3 .7-.2.6-.4 1.2-.5 1.9-.4 2.1-.2 4.5.7 6.6.4 1 1 2 1.6 2.8.6.9 1.4 1.6 2.1 2.3.7.7 1.5 1.3 2.3 1.8l2.4 1.5c3.3 1.8 6.6 3 10 4 1.7.5 3.4.9 5.1 1.4 1.5.4 3 .7 4.4 1 1.7 1.8 3.6 3.4 5.6 4.8 1.2.8 2.3 1.5 3.5 2.1 1.2.7 2.4 1.2 3.7 1.7 2.5 1.1 5 1.9 7.6 2.7.9.3 1.8.5 2.7.7-1.9-.4-3.6-.9-5-1.4-.1 0-.2.1-.3.1-3.8 5.3-8.9 7.8-13.9 8.9-3.5 4.7-10 8.6-21.8 8.1h-.6c-3.5 2.9-8.7 5.1-16.4 5.5-11.2.7-16.6-2.3-19.3-5.8-2.5.2-5.4.2-8.7-.2-10-1.1-15-6-17.8-11.5-6-.6-12.5-2.8-17.4-8.5-3.4-4-6-7.8-8-11.2.1-.3.2-.5.3-.8.2-.8.6-1.6 1-2.5.2-.4.4-.8.7-1.3.2-.4.5-.9.8-1.3.3-.4.6-.9.8-1.3.3-.4.6-.9 1-1.3.6-.9 1.4-1.7 2.2-2.5.8-.8 1.6-1.5 2.4-2.3.9-.7 1.8-1.3 2.6-1.9.9-.5 1.8-1.1 2.6-1.6s1.7-.8 2.5-1.2c.8-.4 1.5-.7 2.2-.9.7-.2 1.2-.4 1.7-.6 1-.3 1.5-.5 1.5-.5.3-.1.4-.4.3-.6-.1-.2-.3-.4-.6-.3 0 0-.6.1-1.6.4-.5.1-1.1.3-1.8.5-.7.1-1.5.4-2.3.7-.8.3-1.8.6-2.7 1-.9.4-1.9.9-2.9 1.4l-3 1.8c-.9.7-2 1.4-2.9 2.2-.9.8-1.8 1.6-2.6 2.5-.4.4-.8.9-1.2 1.3-.4.5-.7.9-1.1 1.4-.4.5-.7.9-1 1.4-.3.5-.6.9-.9 1.4-.5.9-1 1.8-1.4 2.7v.1c-5.3-3.8-9.9-9.2-13.3-16.3-1.8-3.7-2.5-7.4-2.4-11-.1-.1-.2-.2-.3-.4.6-.4 1.2-.7 1.7-1 .8-.5 1.7-.8 2.5-1.2.8-.4 1.5-.7 2.2-.9.7-.2 1.2-.4 1.7-.6 1-.3 1.5-.5 1.5-.5.3-.1.4-.4.3-.6-.1-.2-.3-.4-.6-.3 0 0-.6.1-1.6.4-.5.1-1.1.3-1.8.5-.7.1-1.5.4-2.3.7-.8.3-1.8.6-2.7 1-.7.3-1.4.7-2.1 1-2.5-3.4-5.3-7.4-6.9-15.4-1.7-8.4.6-14.3 1.4-19.7.2-.4.5-.9.8-1.3.3-.4.6-.9.8-1.3.3-.4.6-.9 1-1.3.6-.9 1.4-1.7 2.2-2.5.8-.8 1.6-1.5 2.4-2.3.9-.7 1.8-1.3 2.6-1.9.9-.5 1.8-1.1 2.6-1.6s1.7-.8 2.5-1.2c.8-.4 1.5-.7 2.2-.9.7-.2 1.2-.4 1.7-.6 1-.3 1.5-.5 1.5-.5.3-.1.4-.4.3-.6-.1-.2-.3-.4-.6-.3 0 0-.6.1-1.6.4-.5.1-1.1.3-1.8.5-.7.1-1.5.4-2.3.7-.8.3-1.8.6-2.7 1-.9.4-1.9.9-2.9 1.4l-3 1.8c-.9.7-2 1.4-2.9 2.2-.9.8-1.8 1.6-2.6 2.5-.4.4-.7.8-1.1 1.2-7-18.1-3.4-30.5.6-37.7.7-.4 1.4-.8 2-1.2.8-.5 1.7-.8 2.5-1.2.8-.4 1.5-.7 2.2-.9.7-.2 1.2-.4 1.7-.6 1-.3 1.5-.5 1.5-.5.3-.1.4-.4.3-.6-.1-.2-.3-.4-.6-.3 0 0-.6.1-1.6.4-.5.1-1.1.3-1.8.5-.7.1-1.5.4-2.3.7-.8.3-1.8.6-2.7 1-.4.2-.9.4-1.3.6-7.3-17.5-2-28.1 3.1-33.7 1.5.2 3 .5 4.3 1 1.2.4 2.2 1 3.1 1.7.9.6 1.8 1.3 2.5 2 .8.7 1.4 1.4 2 2 .5.6 1 1.2 1.4 1.7.1.1.2.3.3.4-.2.3-.4.5-.6.8-.6 1-1.2 2-1.6 3-.4 1-.8 2-1 3-.2 1-.4 1.9-.4 2.8-.1.9-.1 1.7-.1 2.3 0 .7.1 1.3.2 1.8.1 1 .3 1.5.3 1.5 0 .1.2.2.3.1.1 0 .1-.1.2-.2l.3-1.5c.2-.9.6-2.2 1.1-3.7.5-1.5 1.3-3.1 2.2-4.7.9-1.6 2.1-3.2 3.5-4.6.7-.7 1.4-1.3 2.2-1.9.4-.3.8-.6 1.2-.8.4-.3.8-.5 1.2-.8.8-.5 1.6-.9 2.4-1.3.4-.2.8-.4 1.2-.5.4-.2.8-.3 1.1-.5.7-.3 1.4-.6 2-.8.6-.2 1.2-.4 1.6-.6.9-.3 1.4-.5 1.4-.5.1-.1.2-.2.1-.3 0-.1-.1-.1-.2-.1 0 0-.6-.1-1.5-.2-.5-.1-1.1-.1-1.8-.1h-1.1c-.4 0-.8.1-1.2.1-.9.1-1.8.3-2.7.5-.5.1-1 .3-1.5.4l-1.5.6c-.5.2-1 .5-1.5.8l-1.5.9c-.7.5-1.4 1.1-2 1.7-.3-.5-.7-1.1-1.1-1.7l-.9-1.2c-.3-.4-.7-.8-1.2-1.3-.8-.9-1.8-1.8-3-2.6-1.1-.8-2.5-1.6-3.9-2.1-1.4-.6-3-1-4.6-1.2h-.5c-.8-4.9-1-11.7 2.3-19.3.7-.8 1.4-1.7 2.1-2.5l1.9-1.9.2-.2.1-.1.5-.5 1.1-.9c.4-.3.7-.7 1.1-.9l1-.7 1-.7c.4-.2.8-.4 1.1-.6.8-.4 1.5-.8 2.3-1 .8-.3 1.5-.6 2.3-.7.8-.2 1.5-.4 2.3-.5.8-.1 1.5-.2 2.3-.2.7 0 1.5-.1 2.2 0 .7 0 1.4.1 2.1.2 1.3.2 2.5.4 3.6.7 1.1.3 2 .6 2.7.8.8.3 1.3.5 1.7.7l.6.3c.3.1.6 0 .7-.3.1-.2 0-.4-.1-.6 0 0-.2-.2-.6-.5-.4-.3-.9-.7-1.6-1.1-.7-.4-1.6-1-2.7-1.4-.5-.3-1.1-.5-1.8-.7-.6-.3-1.3-.4-2-.6-.7-.2-1.5-.3-2.3-.5-.8-.2-1.6-.2-2.5-.3-.9-.1-1.8 0-2.7 0-.9 0-1.8.2-2.8.3-1 .1-1.9.5-2.8.7-1 .2-1.9.7-2.8 1.1-.5.2-.9.4-1.4.7l-1.3.8-1.1.7c.9-9.9 6.5-17.1 11.2-21.6h1.5c.4 0 .8.1 1.3.1.8.1 1.7.1 2.5.3.8.2 1.6.3 2.4.6.8.3 1.5.5 2.2.8.7.3 1.4.6 2 1 .6.4 1.3.7 1.9 1.2.6.4 1.2.8 1.7 1.2 1 .8 1.9 1.7 2.7 2.5.8.8 1.4 1.5 1.9 2.2.5.6.9 1.1 1.1 1.5.2.4.4.5.4.5.2.2.5.3.7.1.2-.1.3-.4.2-.6 0 0-.1-.3-.2-.7-.2-.4-.4-1.1-.8-1.8-.4-.8-.9-1.7-1.5-2.7-.3-.5-.7-1-1.1-1.6-.4-.6-.9-1.1-1.4-1.6-.5-.6-1.1-1.1-1.7-1.6-.6-.6-1.3-1.1-2-1.6s-1.5-1-2.3-1.4c-.8-.5-1.7-.8-2.5-1.2-.9-.4-1.8-.6-2.8-.9-.9-.3-1.9-.4-2.9-.6-.2 0-.3 0-.5-.1 4.2-10.1 11.8-15.5 16.7-18.1.4.5.8.9 1.2 1.4.6.6 1.1 1.2 1.5 1.8.4.6.8 1.1 1.1 1.5.6.8.9 1.3.9 1.3.2.2.5.3.7.1.2-.2.3-.4.1-.7 0 0-.3-.5-.8-1.4-.3-.4-.6-1-1-1.6-.3-.6-.8-1.3-1.4-2l-.9-1.2c.1 0 .2-.1.3-.1 6.6-9.9 14.5-11.9 21.1-11.1-1.1 1.5-2.2 3.1-3.1 4.7-1 1.2-1.8 2.9-2.5 4.8zm-38.9 171.4c-1.6 2.5-2.4 5.3-2.4 7.7 0 1.2.1 2.3.3 3.2.2.9.5 1.7.8 2.3.3.6.5 1.1.7 1.4.1.2.2.3.2.3l.1.1c.2.2.5.3.7.1.2-.1.2-.3.2-.5 0 0 0-.1-.1-.5-.1-.3-.1-.8-.2-1.4-.1-1.2-.2-2.9.2-4.7.2-.9.5-1.9 1-2.9s1-1.9 1.8-2.9c.7-.9 1.6-1.8 2.5-2.7l1.5-1.2.4-.3.4-.3c.3-.2.6-.4.8-.6 1-.6 2.1-1.2 3.3-1.6 1.1-.4 2.3-.6 3.5-.7 1.2-.1 2.3 0 3.4.2 1 .3 2 .5 3 .9.9.3 1.8.7 2.6 1 .7.4 1.4.7 1.9 1 0 0 .1 0 .1.1-.8.8-1.6 1.6-2.2 2.4-1 1.3-1.8 2.7-2.3 4.1-.5 1.4-.8 2.8-.9 4.1-.1 1.3 0 2.5.2 3.5s.5 1.9.8 2.5c.3.7.6 1.2.8 1.5.2.3.3.5.3.5.2.2.5.3.7.1.2-.1.2-.3.2-.5 0 0 0-.2-.1-.5s-.1-.9-.2-1.5-.1-1.4 0-2.3c.1-.9.2-1.8.4-2.8.3-1 .6-2 1.2-3.1.6-1 1.3-2 2.1-3 .9-1 1.8-1.9 2.9-2.8l.8-.6 1-.7.8-.4.9-.4c1.2-.5 2.5-.8 3.8-.9 1.3-.1 2.6 0 3.9.3 1.3.2 2.5.6 3.7 1.1 1.2.4 2.3.9 3.3 1.5 2 1 3.6 2 4.7 2.8.6.4 1 .7 1.3.9.3.2.4.3.4.3.2.2.5.1.7-.1.1-.2.1-.4 0-.6 0 0-.5-.7-1.4-1.7-.9-1-2.4-2.4-4.3-3.9-1-.7-2.1-1.4-3.3-2.1-1.3-.7-2.6-1.3-4.2-1.7-1.5-.5-3.2-.7-5-.7-1.7 0-3.6.3-5.2 1-.6 0-1 .2-1.4.4l-1.2.7-1 .6-.1.1-.1.1h-.1l-.2.2-.5.4-.3-.3c-.5-.5-1-1-1.7-1.6-.7-.6-1.6-1.2-2.6-1.7s-2.1-1.1-3.4-1.5c-1.3-.4-2.7-.7-4.2-.7s-3.1.2-4.6.6c-1.6.5-3 1.1-4.4 2-.4.2-.6.4-.9.6l-.1.1c-.1-.3-.1-.8-.2-1.4-.1-1.3 0-3.1.4-5.2.3-1 .6-2.1 1.2-3.1.5-1 1.2-2.1 2-3.1s1.8-1.9 2.9-2.8c.5-.4 1.1-.9 1.7-1.3l.8-.6 1-.6c1.1-.6 2.4-1.2 3.7-1.6 1.3-.4 2.6-.7 3.8-.7 1.3-.1 2.5 0 3.7.2 1.2.2 2.3.5 3.3.9 2 .7 3.7 1.6 4.8 2.3.6.4 1 .6 1.3.8.3.2.4.3.4.3.2.2.5.1.7-.1.1-.2.1-.4 0-.6 0 0-.1-.2-.4-.5-.2-.3-.6-.7-1.1-1.2-.5-.5-1.1-1.1-1.9-1.7-.8-.6-1.7-1.3-2.8-1.9-1.1-.6-2.3-1.2-3.7-1.6-1.4-.4-2.9-.7-4.6-.8-1.6 0-3.3.1-5 .6-1.6.4-3.2 1.1-4.8 2l-1 .6c-.4.3-.7.5-1.1.7-.7.5-1.3 1-2 1.5-1.3 1.1-2.4 2.3-3.3 3.6-1.9 2.6-2.8 5.7-2.9 8.2-.2 2.6.4 4.6.8 6 .2.7.5 1.2.7 1.5.1.1.1.2.2.3-.6.4-1.1.9-1.6 1.4-.9 1.1-1.9 2.3-2.7 3.6zm-5.1-47.2c-1.1.3-2.1.7-3 1.1-.9.4-1.7.9-2.4 1.4-.7.5-1.3 1-1.9 1.4-.5.4-1 .9-1.3 1.2-.7.7-1 1.2-1 1.2-.1.1 0 .2.1.3h.2s.5-.2 1.4-.6c.9-.4 2.1-.9 3.6-1.4 1.5-.5 3.2-1 5.1-1.2 1.9-.3 3.8-.3 5.8-.1 1 .1 1.9.3 2.9.5.5.1.9.3 1.4.4.5.2.9.3 1.3.5.9.3 1.7.7 2.5 1.1.4.2.8.4 1.1.6s.7.4 1.1.6c.7.4 1.3.7 1.9 1.1.6.4 1.1.6 1.5.9.8.5 1.3.8 1.3.8.1.1.3 0 .3-.1v-.2s-.3-.5-.8-1.3c-.3-.4-.6-.9-1-1.4-.2-.3-.4-.6-.7-.9-.3-.3-.6-.6-.8-.9-.6-.6-1.3-1.2-2.1-1.8-.4-.3-.8-.6-1.3-.9-.5-.3-.9-.5-1.4-.8-.5-.2-1-.5-1.5-.7-.5-.2-1.1-.4-1.6-.6-1.1-.3-2.3-.6-3.5-.7-1.2-.1-2.4-.1-3.6 0-1.4 0-2.6.2-3.6.5z"/>
      <path d="M111.9 3.9c-.1.7-.1 1.5-.2 2.2-2 19.5-10.9 26.5-17.8 28.9-5.5 10.7-13.3 15.3-20.6 17.2C71.3 59.4 65 68 56 74c-7.7 5.2-15.1 6.1-20.9 5.5-1.8-.5-3.5-1-5.2-1.7-2.5-.9-4.8-2.1-7.1-3.4-2.2-1.4-4.3-2.9-6.1-4.7-1.8-1.8-3.2-3.9-4.2-6.1-.3-.5-.9-.9-1.4-1-1.6-.4-3.3-.8-4.9-1.2C4.6 61 3 60.5 1.4 60c-3.1-1-6.2-2.3-8.9-3.8-.7-.4-1.3-.8-1.9-1.3-.6-.4-1.2-.9-1.7-1.4-.5-.5-1-1-1.3-1.5-.1-.2-.2-.3-.3-.5 0-.2.1-.4.1-.7v-.2-.3-.9c0-.8.1-2 .3-3.5.1-.7.3-1.5.5-2.3.2-.8.5-1.6.8-2.5.7-1.7 1.6-3.4 2.9-4.8.6-.8 1.3-1.4 2.1-2.1.4-.3.8-.6 1.1-.9.4-.3.8-.6 1.2-.8.8-.5 1.6-1 2.4-1.4.8-.4 1.6-.7 2.3-1 1.5-.5 2.8-.9 3.7-1.2.9-.2 1.5-.4 1.5-.4.1 0 .2-.2.2-.3 0-.1-.1-.2-.2-.2H2.9c-.7 0-1.5.1-2.3.2-.8.1-1.7.3-2.7.5-.5.1-1 .2-1.5.4s-1 .4-1.5.5c-.5.2-1 .5-1.5.7-.5.3-1 .5-1.5.8-1 .6-2 1.3-2.9 2.1-.9.8-1.7 1.7-2.5 2.6-.6.8-1.2 1.6-1.7 2.5l-.5-.1-1.4-.2c-1-.2-1.9-.4-2.8-.7-.9-.3-1.9-.6-2.8-1-.9-.4-1.8-.8-2.6-1.3-.4-.2-.9-.5-1.3-.7-.4-.2-.8-.5-1.2-.8l-1.2-.9c-.4-.3-.8-.6-1.1-.9-.8-.6-1.5-1.3-2.1-2-.7-.7-1.3-1.4-1.9-2.2-.6-.8-1.1-1.5-1.6-2.4-.2-.4-.5-.8-.7-1.2-.2-.4-.4-.8-.6-1.3-.2-.4-.4-.9-.5-1.3-.2-.4-.3-.9-.4-1.3-.3-.9-.4-1.8-.5-2.7-.1-.9-.1-1.8-.1-2.7 0-.3.1-.6.1-.9 0-.2.1-.5.2-.7.2-.8.5-1.7.8-2.7.2-.6.5-1.3.8-2l.1-.1.7-1.2c.2-.3.3-.6.4-.9.4-.7.8-1.3 1.2-2C-33.5 3-32.7 2-31.8 1c.9-1 1.9-1.9 3-2.7 1.1-.8 2.3-1.5 3.5-2.1 1.2-.6 2.5-1 3.7-1.4 1.3-.3 2.5-.6 3.7-.7 1.2-.1 2.4-.2 3.5-.2s2.1.1 3 .2c.9.1 1.7.2 2.3.3 1.3.2 2 .4 2 .4.3 0 .5-.1.5-.4 0-.2-.1-.4-.3-.5 0 0-.7-.3-1.9-.8-.6-.2-1.4-.5-2.3-.8-.9-.3-1.9-.5-3.1-.7-1.2-.2-2.4-.3-3.8-.4-1.4-.1-2.8 0-4.3.3-3 .5-6.1 1.5-8.9 3.3-1.4.9-2.7 1.9-3.9 3-1.2 1.1-2.2 2.3-3.2 3.5l-.6.9C-41.4 2-44.1 1-46.4-.5c-.6-.4-1.2-.9-1.7-1.3-.6-.5-1.1-1-1.6-1.5-1-1.1-1.8-2.3-2.5-3.6-.3-.6-.6-1.3-.8-2-.2-.7-.4-1.4-.5-2.1-.1-.7-.2-1.4-.2-2.1 0-.7 0-1.4.2-2.1 0-.4.1-.7.2-1.1.1-.4.2-.7.3-1.1.2-.7.5-1.4.7-2.1.2-.5.6-1.1 1-1.8s1-1.5 1.6-2.3c1.2-1.6 2.9-3.4 4.9-4.9 1-.8 2.1-1.5 3.3-2.2 1.2-.6 2.4-1.2 3.7-1.6 1.3-.4 2.6-.7 4-.9 1.3-.2 2.7-.2 4-.1 1.3.1 2.6.3 3.8.5 1.2.2 2.3.6 3.3.9 1 .4 1.9.8 2.8 1.1.8.4 1.5.7 2.1 1 .1.1.3.2.4.2-.9.4-1.6.9-2.4 1.4-.8.4-1.5 1.1-2.2 1.6-1.3 1.1-2.4 2.4-3.3 3.7-.4.7-.8 1.3-1.1 1.9-.3.6-.6 1.2-.7 1.8-.4 1.2-.6 2.2-.6 3.1-.1.9 0 1.6 0 2 0 .2 0 .4.1.5v.2c0 .3.3.5.6.4.2 0 .4-.2.4-.4v-.2c0-.1 0-.3.1-.5.1-.4.2-1 .5-1.7.1-.4.3-.8.5-1.2.2-.4.4-.9.7-1.3.2-.5.6-.9.9-1.4.3-.5.7-1 1.1-1.4.9-.9 1.9-1.9 3.1-2.7.6-.4 1.2-.8 1.9-1.2.7-.4 1.4-.8 2.1-1 1.5-.6 3.1-1.1 4.8-1.6.9-.2 1.7-.4 2.6-.6l.3-.1h.2l.7-.1 1.4-.2c.5 0 1-.2 1.4-.2h2.4c.4 0 .8.1 1.3.1.6.5 1.5.5 2.2.7.8.2 1.6.3 2.4.6.8.3 1.5.5 2.2.8.7.3 1.4.6 2 1 .6.4 1.3.7 1.9 1.2.6.4 1.2.8 1.7 1.2 1 .8 1.9 1.7 2.7 2.5.7.7 1.3 1.4 1.7 2-.4.2-.7.3-1 .5-.6.3-1.1.7-1.7 1-.6.3-1 .8-1.5 1.2-.9.8-1.7 1.8-2.2 2.7-.3.5-.5.9-.7 1.4-.2.5-.4.9-.5 1.3-.3.9-.4 1.6-.4 2.2 0 .6 0 1.1.1 1.4 0 .2.1.3.1.4v.1c.1.3.3.5.6.4.2 0 .3-.2.4-.4v-.1c0-.1 0-.2.1-.3.1-.3.2-.7.4-1.1.1-.2.2-.5.4-.8.1-.3.3-.6.5-.9.4-.6.9-1.2 1.4-1.8.6-.6 1.3-1.1 2.1-1.6.4-.2.8-.5 1.3-.7.5-.2.9-.5 1.4-.6 1-.4 2-.7 3.1-1 .6-.1 1.1-.2 1.7-.4H22.1l.5-.1.9-.1c.3 0 .7-.1.9-.1H26c.3 0 .5 0 .8.1.5 0 1.1.1 1.6.2s1 .2 1.5.4c1 .3 1.9.7 2.8 1.1.9.5 1.7.9 2.3 1.5.7.5 1.3 1.1 1.8 1.6s1 1 1.3 1.4c.3.4.6.7.8 1l.3.3c.2.2.5.3.7.1.2-.1.2-.3.2-.5 0 0 0-.2-.1-.5s-.2-.7-.5-1.3c-.2-.5-.5-1.2-1-1.9-.2-.4-.5-.7-.7-1.1l-.9-1.2c-.3-.4-.7-.8-1.1-1.2-.4-.4-.9-.8-1.3-1.1-1-.7-2.1-1.4-3.3-1.9-.6-.3-1.3-.5-1.9-.7-.7-.2-1.4-.3-2-.4-.4 0-.7-.1-1.1-.1H24c-.4 0-.6.1-1 .1h-1l-.5.1h-.4l-.2.1c-.7.2-1.3.3-2 .5-.4.1-.8.2-1.1.4v-.1c-.4-.8-.9-1.7-1.5-2.7-.3-.5-.7-1-1.1-1.6-.4-.6-.9-1.1-1.4-1.6-.5-.6-1.1-1.1-1.7-1.6-.6-.6-1.3-1.1-2-1.6s-1.5-1-2.3-1.4c-.8-.5-1.7-.8-2.5-1.2-.9-.4-1.8-.6-2.8-.9-.9-.3-1.9-.4-2.9-.6-.5-.1-1-.2-1.5-.2h-3.2c-.5 0-.9.1-1.4.1l-1.4.2-.7.1H-9l-.4.2c-1 .2-1.9.5-2.9.7-1.4.4-2.8.9-4.1 1.5-.2-.2-.5-.5-.9-.8-.5-.4-1.2-.9-2-1.4-.8-.5-1.7-1.1-2.7-1.6-1-.6-2.2-1.1-3.5-1.6-1.3-.5-2.7-.8-4.2-1.1-3-.5-6.3-.5-9.5.3-1.6.4-3.1.9-4.6 1.6-1.5.7-2.8 1.5-4.1 2.3-2 1.4-3.6 2.9-5 4.4l-.8-.4c-.8-.5-1.5-.9-2.2-1.5-1.4-1.1-2.7-2.3-3.9-3.7s-2.2-2.8-3-4.4c-.4-.6-.7-1.3-1-2v-.1s-.1-.2-.2-.5c-.1-.2-.1-.4-.2-.6-.1-.3-.2-.5-.4-.9l-.3-.6c0-.1-.1-.2-.1-.2-.3-.9-.5-1.7-.6-2.6-.2-.9-.3-1.8-.3-2.6-.1-1.8 0-3.5.3-5.2.1-.4.2-.7.3-1.1.1-.2.2-.4.3-.7.2-.6.5-1.1.8-1.7.3-.6.7-1.2 1.1-1.9.4-.6.8-1.3 1.3-1.9.4-.7 1-1.3 1.5-1.9.5-.6 1.1-1.2 1.6-1.8.6-.6 1.2-1.1 1.7-1.6.6-.5 1.2-.9 1.7-1.4.5-.5 1.1-.8 1.6-1.2.5-.3 1-.7 1.4-.9.4-.2.8-.5 1.1-.6.6-.4 1-.6 1-.6.2-.1.3-.4.2-.7-.1-.2-.4-.3-.6-.2 0 0-.4.2-1.1.4-.3.1-.8.3-1.3.5s-1 .5-1.6.8c-.6.3-1.2.6-1.8 1-.6.4-1.3.8-2 1.2-.7.5-1.4.9-2 1.5-.2.1-.4.3-.5.4l-.1-.1c-.1-.1-.3-.2-.4-.3-3.2-1.9-5.8-4.8-7.6-8.2-1.8-3.4-2.7-7.3-3-11.2-.2-2.9 0-5.8.7-8.5.1-.1.1-.2.1-.3 0 0 .1-.2.2-.5.1-.2.2-.4.2-.6l.3-.6c.2-.5.6-1.1 1-1.8s1-1.5 1.6-2.3c1.2-1.6 2.9-3.4 4.9-4.9 1-.8 2.1-1.5 3.3-2.2 1.2-.6 2.4-1.2 3.7-1.6 1.3-.4 2.6-.7 4-.9 1.3-.2 2.7-.2 4-.1 1.3.1 2.6.3 3.8.5 1.2.2 2.3.6 3.3.9 1 .3 1.9.8 2.8 1.1.6.3 1.1.5 1.6.8-.2.2-.5.4-.7.5-.8.7-1.4 1.5-1.9 2.3-.5.8-.8 1.6-1.1 2.3-.3.7-.4 1.4-.5 2-.1.6-.1 1.1-.1 1.6v1.4c0 .3.3.5.6.4.2 0 .3-.1.4-.3v-.1s0-.1.1-.3c.1-.2.2-.5.4-.8l.6-1.2.9-1.5c.4-.5.8-1 1.3-1.5s1-.9 1.6-1.3c.6-.4 1.2-.7 1.9-.9.6-.2 1.5-.4 2.1-.5.1 0 .4 0 .6-.1H-28.5c.8 0 1.5.1 2.2.2 1.4.3 2.6.8 3.6 1.5 1 .6 1.7 1.4 2.2 2 .2.3.4.5.5.7.1.2.2.2.2.3l.1.1c.2.2.5.3.7.1.1-.1.2-.2.2-.4v-.4c0-.2 0-.6-.1-1-.2-.9-.6-2.2-1.6-3.5-1-1.3-2.6-2.5-4.6-3.2-1-.3-2-.5-3-.6-.5 0-1-.1-1.6 0h-.8c-.2 0-.4 0-.7.1-1.2.1-2.2.4-3.2.9-.3.1-.5.2-.7.4-.5-.4-1.2-.9-2-1.4-.8-.5-1.7-1.1-2.7-1.6-1-.6-2.2-1.1-3.5-1.6-1.3-.5-2.7-.8-4.2-1.1-3-.5-6.3-.5-9.5.3-1.6.4-3.1.9-4.6 1.6-.9.4-1.8.9-2.7 1.4-.3-.3-.6-.6-.9-.8-.6-.6-1.1-1.3-1.6-1.9-1-1.4-1.7-2.9-2.3-4.5-.6-1.6-.9-3.3-1-5-.1-1.7 0-3.5.2-5.2.3-1.7.7-3.4 1.3-5.1.6-1.6 1.4-3.2 2.4-4.7s2.1-2.8 3.4-3.9c.6-.6 1.3-1.1 2-1.6.4-.2.7-.4 1.1-.7l.3-.1c.4-.2.9-.3 1.4-.5.9-.3 1.8-.5 2.8-.7 1-.1 2-.3 3-.3 1-.1 2.1 0 3.1.1 1 .2 2 .4 3 .7.5.1 1 .3 1.4.5.4.2.9.4 1.4.6.4.2.8.5 1.2.7.4.3.8.4 1.2.7.4.3.7.6 1.1.8.3.3.7.5 1 .8.6.6 1.2 1.1 1.7 1.5.5.5.9.9 1.2 1.3l1.1 1.1c.2.2.5.2.7 0 .1-.1.2-.3.1-.5 0 0-.2-.6-.6-1.5-.2-.5-.5-1.1-.8-1.7-.4-.6-.9-1.3-1.4-2.1-.5-.8-1.3-1.5-2-2.3-.3-.4-.8-.7-1.3-1.1-.5-.3-.9-.7-1.4-1.1-1-.6-2.1-1.3-3.3-1.6-.6-.2-1.2-.5-1.8-.6l-1.9-.4c-.6-.1-1.3-.1-1.9-.1-.6-.1-1.3 0-1.9 0-1.3 0-2.5.3-3.6.6-.8.3-1.6.5-2.3.8-1.2-1-2.2-2.1-2.9-3.4-.7-1.4-1.1-2.9-1.2-4.6-.1-3.3 1-6.8 2.6-10 1.5-3.1 3.5-6.1 5.6-8.9 6.9-4.2 15.7-7 25.1-4-.7 1.1-1.1 2.2-1.4 3-.3.8-.4 1.5-.5 2-.1.5 0 .7 0 .7-.1.3.1.5.4.6s.5-.1.6-.4c0 0 .1-.2.3-.5.2-.3.6-.8 1-1.3.9-.9 2.2-2.1 3.8-3.3 9.1-.1 20.6 2.6 33.9 11.8.1.1.2.1.3.2-1.8 2.1-2.8 4.1-3.3 5.6 0 .1-.1.2-.1.3-.9 0-1.7.1-2.5.3-.8.2-1.7.4-2.4.7-.7.3-1.5.6-2.1 1-.6.3-1.2.8-1.7 1.1-.5.4-.9.8-1.3 1.1-.4.4-.7.7-.9 1-.5.6-.7.9-.7.9-.1.1 0 .3.1.3h.2s.4-.1 1-.4c.3-.1.7-.2 1.2-.4.4-.1 1-.3 1.5-.5.5-.1 1.1-.3 1.7-.5.6-.2 1.3-.3 1.9-.4.7-.1 1.3-.2 2-.3.7 0 1.4-.1 2-.1h1c.3 0 .7.1 1 .1.7 0 1.3.2 1.9.4l.5.1.4.2.9.3c.6.1 1.1.4 1.6.6.3.1.5.2.8.3.3.1.5.2.7.3.4.2.8.4 1.1.5.6.3 1 .4 1 .4.1 0 .3 0 .3-.1v-.2s-.2-.4-.6-1c-.2-.3-.4-.7-.7-1.1-.3-.5-.7-.8-1.2-1.3-.5-.4-1-1-1.6-1.3-.6-.4-1.3-.9-2.1-1.1-.8-.3-1.6-.6-2.5-.8h-.2c1-1 2.3-2.1 4-3.2.7-.5 1.5-.9 2.3-1.3 7.9 1.2 17.2 4.3 23.6 11.9 2.2 2.6 3.8 5.2 5 7.8l-.9.3c-1.8.7-3.4 1.6-4.7 2.6-1.4 1-2.6 2.1-3.5 3.2-1.7 1.9-2.7 3.7-3.3 5.2-1.4-.7-2.7-1.3-4.2-1.7-.9-.2-1.8-.4-2.6-.5-.1-.1-.1-.2-.2-.3-.4-.8-.9-1.7-1.5-2.7-.3-.5-.7-1-1.1-1.6-.4-.6-.9-1.1-1.4-1.6-.5-.6-1.1-1.1-1.7-1.6-.6-.6-1.3-1.1-2-1.6s-1.5-1-2.3-1.4c-.8-.5-1.7-.8-2.5-1.2-.9-.4-1.8-.6-2.8-.9-.9-.3-1.9-.4-2.9-.6-.5-.1-1-.2-1.5-.2H.9c-.5 0-.9.1-1.4.1l-1.4.2-.7.1H-3l-.4.1c-1 .2-1.9.5-2.9.7-1.9.6-3.7 1.2-5.4 2.1-.9.4-1.6.9-2.4 1.4-.8.4-1.5 1.1-2.2 1.6-1.3 1.1-2.4 2.4-3.3 3.7-.4.7-.8 1.3-1.1 1.9-.3.7-.6 1.2-.7 1.8-.4 1.2-.6 2.2-.6 3.1 0 .4-.1.7-.1 1h-.2c-.4 0-.6.1-1 .1l-.9.1-.5.1h-.4l-.2.1c-.7.2-1.3.3-2 .5-1.3.4-2.6.8-3.7 1.5-.6.3-1.1.7-1.7 1-.6.3-1 .8-1.5 1.2-.9.8-1.7 1.8-2.2 2.7-.3.5-.5.9-.7 1.4-.2.5-.4.9-.5 1.3-.2.8-.3 1.6-.3 2.2 0 .6 0 1.1.1 1.4 0 .2.1.3.1.4v.1c.1.3.3.4.6.4.2-.1.3-.2.4-.4v-.1c0-.1 0-.2.1-.3.1-.3.2-.7.4-1.1.1-.2.2-.5.4-.8.1-.3.3-.6.5-.8.4-.6.8-1.2 1.4-1.8.6-.6 1.3-1.1 2.1-1.6.4-.2.8-.5 1.3-.7.5-.2.9-.5 1.4-.6 1-.4 2-.7 3.1-1 .6-.1 1.1-.2 1.7-.4H-24l.5-.1.9-.1c.3 0 .7-.1.9-.1h1.6c.3 0 .5 0 .8.1.5 0 1.1.1 1.6.2s1 .2 1.5.4c1 .3 1.9.7 2.8 1.1.9.5 1.7.9 2.3 1.5.7.5 1.3 1.1 1.8 1.6s1 1 1.3 1.4c.3.4.6.7.8 1l.3.3c.2.2.5.3.7.1.2-.1.2-.3.2-.5 0 0 0-.2-.1-.5s-.2-.7-.5-1.3c-.2-.5-.5-1.2-1-1.9-.2-.4-.5-.7-.7-1.1l-.9-1.2c-.3-.4-.7-.8-1.1-1.2-.4-.4-.9-.8-1.3-1.1-1-.7-2.1-1.4-3.3-1.9-.6-.3-1.3-.5-1.9-.7-.7-.2-1.4-.3-2-.4-.4 0-.7-.1-1.1-.1h-.5c.1-.2.1-.4.2-.7.1-.4.3-.8.5-1.2.2-.4.4-.9.7-1.3.2-.5.6-.9.9-1.4.3-.5.7-1 1.1-1.4.9-.9 1.9-1.9 3.1-2.7.6-.4 1.2-.8 1.9-1.2.7-.4 1.4-.8 2.1-1 1.5-.7 3.1-1.1 4.8-1.6.9-.2 1.7-.4 2.6-.6l.3-.1h.2l.7-.1 1.4-.2c.5 0 1-.2 1.4-.2h2.4c.4 0 .8.1 1.3.1.8.1 1.7.1 2.5.3.8.2 1.6.3 2.4.6.8.3 1.5.5 2.2.8.7.3 1.4.6 2 1 .6.4 1.3.7 1.9 1.2.6.4 1.2.8 1.7 1.2 1 .8 1.9 1.7 2.7 2.5.5.6 1 1.1 1.4 1.6h-.3c-1.6 0-3.2.3-4.6.8-1.4.4-2.6 1-3.7 1.6-1.1.6-2 1.3-2.8 1.9-.8.6-1.4 1.2-1.9 1.7s-.8.9-1.1 1.2c-.2.3-.4.5-.4.5-.2.2-.1.5.1.7.2.1.4.1.6 0 0 0 .1-.1.4-.3.3-.2.7-.5 1.3-.8 1.1-.7 2.8-1.6 4.8-2.3 1-.4 2.1-.7 3.3-.9 1.2-.2 2.4-.3 3.7-.2 1.3.1 2.6.3 3.8.7 1.3.4 2.5 1 3.7 1.6l1 .6.8.6c.6.4 1.1.8 1.7 1.3 1.1.9 2 1.8 2.9 2.8.8 1 1.5 2 2 3.1s.9 2.1 1.2 3.1c.5 2 .5 3.9.4 5.2 0 .6-.1 1.1-.2 1.4l-.1-.1c-.3-.2-.5-.4-.9-.6-1.4-.9-2.8-1.5-4.4-2-1.5-.4-3.1-.6-4.6-.6-1.5 0-2.9.3-4.2.7-1.3.4-2.4.9-3.4 1.5-1 .5-1.8 1.2-2.6 1.7-.7.6-1.3 1.1-1.7 1.6l-.3.3-.5-.4-.2-.2h-.1l-.1-.1-.1-.1-1-.6-1.2-.7-1.2-.6c-1.7-.7-3.5-1-5.2-1-1.7 0-3.4.3-5 .7-1.5.5-2.9 1.1-4.2 1.7-1.2.7-2.4 1.4-3.3 2.1-2 1.4-3.4 2.8-4.3 3.9s-1.4 1.7-1.4 1.7c-.2.2-.1.5.1.7.2.1.4.1.6 0 0 0 .2-.1.4-.3.3-.2.7-.5 1.3-.9 1.1-.7 2.7-1.8 4.7-2.8 1-.5 2.1-1 3.3-1.5 1.2-.5 2.4-.8 3.7-1.1 1.3-.3 2.6-.4 3.9-.3 1.3.1 2.6.4 3.8.9l.9.4.8.4 1 .7.8.6c1.1.9 2.1 1.8 2.9 2.8.9 1 1.6 2 2.1 3 .6 1 .9 2.1 1.2 3.1.3 1 .4 2 .4 2.8.1.9 0 1.6 0 2.3-.1.6-.1 1.1-.2 1.5-.1.3-.1.5-.1.5-.1.3.1.5.4.6.2 0 .4 0 .5-.2 0 0 .1-.2.3-.5.2-.3.5-.8.8-1.5.3-.7.6-1.5.8-2.5.2-1 .3-2.2.2-3.5-.1-1.3-.4-2.7-.9-4.1-.5-1.4-1.3-2.8-2.3-4.1-.7-.9-1.4-1.7-2.2-2.4 0 0 .1 0 .1-.1.5-.3 1.2-.6 1.9-1s1.6-.7 2.6-1c.9-.3 2-.6 3.1-.8 1.1-.2 2.2-.2 3.4-.2 1.2.1 2.3.3 3.5.7 1.1.4 2.3 1 3.3 1.6.2.1.6.4.8.6l.4.3.4.3 1.5 1.2c.9.8 1.8 1.7 2.5 2.7.7.9 1.3 1.9 1.8 2.9s.8 1.9 1 2.9c.4 1.9.4 3.5.2 4.7-.1.6-.1 1.1-.2 1.4-.1.3-.1.5-.1.5-.1.3.1.5.4.6.2 0 .4 0 .5-.2l.1-.1c.1-.1.1-.2.2-.3.2-.3.5-.8.7-1.4.3-.6.6-1.4.8-2.3.2-.9.4-2 .3-3.2 0-2-.6-4.4-1.8-6.6.1 0 .5-.3 1.3-.9.4-.3.9-.5 1.5-.8.6-.3 1.3-.6 2-1 .8-.3 1.6-.6 2.5-.9.9-.3 1.8-.5 2.8-.7 1-.1 2-.3 3-.3 1-.1 2.1 0 3.1.1.8.2 1.6.3 2.3.5 0 .1.1.1.1.2.2.2.4.2.6.1.5.1.9.3 1.3.5.5.2.9.4 1.4.6.4.2.8.5 1.2.7.4.3.8.4 1.2.7.4.3.7.5 1.1.8.3.3.7.5 1 .8.6.6 1.2 1.1 1.7 1.5.5.5.9.9 1.2 1.3l1.1 1.1c.2.2.5.2.7 0 .1-.1.2-.3.1-.5 0 0-.2-.6-.6-1.5-.2-.5-.5-1.1-.8-1.7-.4-.6-.9-1.3-1.4-2.1-.5-.8-1.3-1.5-2-2.3-.4-.4-.8-.7-1.3-1.1-.5-.3-.9-.7-1.4-1.1-.4-.2-.9-.5-1.3-.7l1.2-1.2c.6-.7 1.3-1.3 1.9-2.1.3-.4.7-.9 1-1.3 4.6 1.9 10.9 5.9 16.2 14.3 2.8 4.4 4.1 9.7 4.6 15-1.3.3-2.5.6-3.6 1.1-1.8.7-3.4 1.6-4.7 2.6-1.4 1-2.6 2.1-3.5 3.2-1.9 2.2-3.1 4.4-3.6 6-.1.3-.2.5-.2.8-.5 0-1-.1-1.5-.1-.6-.1-1.3 0-1.9 0-1.3 0-2.5.3-3.6.6-1.1.4-2.2.7-3.2 1.1-1 .4-1.9 1-2.7 1.4-.8.5-1.4 1-2 1.5-.6.5-1.1 1-1.4 1.4-.7.8-1 1.3-1 1.3-.3.4-.2.9.2 1.2.3.2.7.2 1 0 0 0 .5-.3 1.3-.9.4-.3.9-.5 1.5-.8.6-.3 1.3-.6 2-.9.8-.3 1.6-.6 2.5-.9.9-.3 1.8-.5 2.8-.7 1-.1 2-.3 3-.3 1-.1 2.1 0 3.1.1 1 .2 2 .4 3 .7.5.1 1 .3 1.4.5.5.2.9.4 1.4.6.4.2.8.5 1.2.7.4.3.8.4 1.2.7.4.3.7.5 1.1.8.3.3.7.5 1 .8.6.6 1.2 1.1 1.7 1.5.5.5.9.9 1.2 1.3l1.1 1.1c.2.2.5.2.7 0 .1-.1.2-.3.1-.5 0 0-.2-.6-.6-1.5-.2-.5-.5-1.1-.8-1.7-.4-.6-.9-1.3-1.4-2.1-.5-.8-1.3-1.5-2-2.3-.4-.4-.8-.7-1.3-1.1-.5-.3-.9-.7-1.4-1.1-1-.6-2.1-1.3-3.3-1.6-.6-.2-1.2-.5-1.8-.6l-.3-.1.1-.1c1-1.1 2.6-2.5 4.6-3.8 1-.7 2.2-1.3 3.4-1.9 1.2-.6 2.6-1.1 3.9-1.4 1.4-.4 2.8-.6 4.3-.7h.8c6.4 4.2 13.7 11.9 12.6 24.5-.1 0-.1.1-.2.1-.7.5-1.5.9-2.2 1.3-.8.3-1.6.7-2.4.8-.8.3-1.7.3-2.5.5h-1.2c-.4 0-.8.1-1.2 0-.8-.1-1.5-.1-2.2-.2-.7-.1-1.3-.3-1.9-.4-.6-.1-1-.3-1.5-.4-.8-.2-1.3-.3-1.3-.3h-.1c-.3-.1-.5.1-.6.4 0 .2 0 .4.2.5 0 0 .4.3 1.1.8.4.3.8.6 1.4.9.6.3 1.2.6 1.9 1s1.6.5 2.5.8c.4.2.9.2 1.4.3.5.1 1 .1 1.5.2 1 0 2.1.1 3.2-.2.5-.1 1.1-.1 1.6-.3l1.6-.5c.9-.4 1.8-.8 2.6-1.3 1.4 2.6 2.8 5.9 4 9.9 1.3 4.4 1.8 8.8 1.8 13.1-.1.1-.3.2-.4.3-.4.3-1 .6-1.6.9-.6.3-1.2.6-1.9.9-.7.3-1.5.5-2.2.8-.8.2-1.6.4-2.5.4-.8.1-1.7.1-2.6.1-.8-.1-1.7-.2-2.5-.4-.8-.1-1.6-.5-2.4-.8-.4-.2-.7-.4-1.1-.6-.3-.2-.7-.3-1-.6-.6-.4-1.3-.8-1.8-1.3-.2-.2-.5-.4-.7-.6.1-1.2.1-2.4-.1-3.5-.1-1.2-.4-2.4-.8-3.5s-.8-2.2-1.4-3.1-1.1-1.9-1.8-2.6c-.6-.8-1.3-1.5-1.9-2.1-.6-.6-1.3-1.1-1.8-1.5-.6-.4-1.1-.7-1.5-1-.9-.5-1.4-.7-1.4-.7-.1 0-.2 0-.3.1v.2s.4.4.9 1.2c.6.8 1.4 1.8 2.2 3.2.8 1.3 1.7 2.9 2.4 4.7.7 1.8 1.2 3.7 1.4 5.6.1 1 .1 1.9.1 2.9 0 .5-.1 1-.1 1.4-.1.5-.1.9-.2 1.4-.1.9-.3 1.8-.5 2.7-.1.4-.2.8-.3 1.3l-.3 1.2c-.2.8-.4 1.5-.6 2.1-.2.6-.4 1.2-.5 1.6-.3.9-.5 1.4-.5 1.4 0 .1 0 .3.2.3h.2l1.1-1.1c.4-.3.7-.8 1.2-1.4.2-.3.5-.6.7-.9.2-.3.4-.7.7-1 .5-.7.9-1.6 1.3-2.5.2-.5.4-.9.6-1.4.2-.5.3-1 .5-1.6 0-.1.1-.2.1-.4l1.2 1.2c.3.4.7.6 1.1.9l1.2.9c.9.5 1.8 1.1 2.9 1.3.5.2 1 .4 1.6.5l1.6.6c1.1.1 2.2.2 3.3 0 1.1-.1 2.1-.3 3.2-.5 1-.3 1.9-.6 2.8-1 .9-.4 1.6-.9 2.3-1.3.2-.1.4-.3.6-.4 3.6 14.1-.6 22.9-5.3 28.1zM-32-163.3c1 .1 2 .3 2.9.6.5.1.9.3 1.4.4.5.2.9.3 1.4.5.9.4 1.7.8 2.5 1.2.4.2.8.4 1.1.6.4.2.7.4 1.1.6 1.3.8 2.5 1.6 3.2 2.2l1.2.9c.1.1.2 0 .2-.1v-.2s-.3-.5-.9-1.3c-.3-.4-.6-.9-1.1-1.4-.2-.3-.5-.5-.7-.8-.3-.3-.6-.6-.9-.8-.6-.6-1.3-1.2-2.1-1.8l-1.2-.9c-.5-.3-.9-.5-1.4-.8-.5-.2-1-.5-1.5-.7-.5-.2-1.1-.4-1.6-.6-1.1-.3-2.3-.6-3.4-.7-1.2-.1-2.3-.1-3.5 0-1.1.1-2.3.3-3.3.6-2.1.6-3.9 1.4-5.4 2.3-.7.4-1.3.9-1.9 1.3-.5.4-1 .8-1.3 1.2-.7.7-1 1.1-1 1.1-.1.1 0 .2 0 .2h.2s.5-.3 1.3-.7c.8-.4 2.1-1 3.5-1.5.7-.3 1.6-.5 2.4-.8.9-.3 1.8-.4 2.7-.6 2.1-.2 4.1-.3 6.1 0zm44.9 89.2c-.1-.5-.4-1.1-.7-2-.3-.8-.8-1.9-1.4-3-.6-1.1-1.3-2.4-2.3-3.6-1-1.3-2.1-2.6-3.5-3.8-1.4-1.2-3-2.4-4.8-3.3-1.8-.9-3.9-1.6-6-2-2.2-.4-4.3-.4-6.6-.2-.6 0-1 .1-1.5.2l-.4.1h-.5l-.8.2c-1 .2-2.1.5-3.1.8-2 .6-4 1.5-5.7 2.6-1.7 1.1-3.3 2.4-4.5 3.8-1.3 1.4-2.2 2.9-2.9 4.4-.7 1.5-1.2 2.9-1.4 4.2-.3 1.3-.4 2.4-.4 3.3v1c-.9.1-1.9.3-2.7.5-1.1.4-2.2.7-3.2 1.1-1 .4-1.9 1-2.7 1.4-.8.5-1.4 1-2 1.5-.6.5-1.1 1-1.4 1.4-.7.8-1 1.3-1 1.3-.3.4-.2.9.2 1.2.3.2.7.2 1 0 0 0 .5-.3 1.3-.9.4-.3.9-.5 1.5-.8.6-.3 1.3-.6 2-1 .8-.3 1.6-.6 2.5-.9.9-.3 1.8-.5 2.8-.7 1-.1 2-.3 3-.3 1-.1 2.1 0 3.1.1 1 .2 2 .4 3 .7.5.1 1 .3 1.4.5.5.2.9.4 1.4.6.4.2.8.5 1.2.7.4.3.8.4 1.2.7.4.3.7.6 1.1.8.3.3.7.5 1 .8.6.6 1.2 1.1 1.7 1.5.4.4.7.7.9 1-.3.3-.5.7-.8 1-.6 1-1.2 2-1.6 3-.4 1-.8 2-1 3-.2 1-.4 1.9-.4 2.8-.1.9-.1 1.7-.1 2.3 0 .7.1 1.3.2 1.8.1 1 .3 1.5.3 1.5 0 .1.2.2.3.1.1 0 .1-.1.2-.2 0 0 .1-.5.4-1.5.2-.9.6-2.2 1.1-3.7.5-1.5 1.3-3.1 2.2-4.7.9-1.6 2.1-3.2 3.5-4.6.7-.7 1.4-1.3 2.2-1.9.4-.3.8-.6 1.2-.8.4-.3.8-.5 1.2-.8.8-.5 1.6-.9 2.4-1.3.4-.2.8-.4 1.2-.5.4-.2.8-.3 1.1-.5.7-.3 1.4-.6 2-.8.6-.2 1.2-.4 1.6-.6.6.3 1.1 0 1.1 0 .1-.1.2-.2.1-.3.1-.1 0-.1-.1-.1 0 0-.6-.1-1.5-.2-.5-.1-1.1-.1-1.8-.1h-1.1c-.4 0-.8.1-1.2.1-.9.1-1.8.3-2.7.5-.5.1-1 .3-1.5.4l-1.5.6c-.5.2-1 .5-1.5.8l-1.5.9c-1 .7-1.9 1.4-2.7 2.3l-.3.3c-.1-.3-.3-.6-.4-.9-.4-.6-.9-1.3-1.4-2.1-.5-.8-1.3-1.5-2-2.3-.4-.4-.8-.7-1.3-1.1-.5-.3-.9-.7-1.4-1.1-1-.6-2.1-1.3-3.3-1.6-.6-.2-1.2-.5-1.8-.6l-1.9-.4c-.6-.1-1.3-.1-1.9-.1H-32c0-.2.1-.4.2-.7.4-1.6 1.3-3.9 2.8-6.2.8-1.1 1.7-2.3 2.9-3.4 1.2-1 2.5-2 4-2.8 1.5-.8 3.2-1.5 4.9-2 .9-.3 1.8-.5 2.7-.7l.7-.1.7-.1c.5-.1 1-.2 1.4-.2l1.3-.1H-9l1.4.1 1.3.1c1.8.2 3.5.7 5 1.4 1.6.7 3 1.5 4.3 2.5 1.3 1 2.5 2 3.5 3s1.9 2 2.6 3c.7.9 1.3 1.8 1.8 2.5s.8 1.3 1.1 1.7l.3.6c.1.2.4.3.7.2.2-.1.3-.3.2-.6-.1.1-.1-.2-.3-.7zm40.8-4.7c-.1-.3-.2-.7-.5-1.3-.2-.5-.5-1.2-1-1.9-.2-.4-.5-.7-.7-1.1l-.9-1.2c-.3-.4-.7-.8-1.1-1.2-.4-.4-.9-.8-1.3-1.1-1-.7-2.1-1.4-3.3-1.9-.6-.3-1.3-.5-1.9-.7-.7-.2-1.4-.3-2-.4-.3 0-.7-.1-1.1-.1h-2.2c-.4 0-.6.1-1 .1l-.9.1-.5.1h-.4l-.3.1c-.7.2-1.3.3-2 .5-1.3.4-2.6.8-3.7 1.5-.6.3-1.1.7-1.7 1-.6.3-1 .8-1.5 1.2-.9.8-1.7 1.8-2.2 2.7-.3.5-.5.9-.7 1.4-.2.5-.4.9-.5 1.3-.2.8-.3 1.6-.4 2.2 0 .6 0 1.1.1 1.4 0 .2.1.3.1.4v.1c.1.3.4.4.6.4.2-.1.3-.2.4-.4v-.1c0-.1 0-.2.1-.3.1-.3.2-.7.4-1.1.1-.2.2-.5.4-.8.1-.3.3-.6.5-.8.4-.6.9-1.2 1.4-1.8.6-.6 1.3-1.1 2.1-1.6.4-.2.8-.5 1.3-.7.5-.2.9-.5 1.4-.6 1-.4 2-.7 3.1-1 .6-.1 1.1-.2 1.7-.4H35.8l.5-.1.9-.1c.3 0 .7-.1.9-.1h1.6c.3 0 .5 0 .8.1.5 0 1.1.1 1.6.2s1 .2 1.5.4c1 .3 1.9.7 2.8 1.1.9.5 1.7.9 2.3 1.5.7.5 1.3 1.1 1.8 1.6s1 1 1.3 1.4c.3.4.6.7.8 1l.3.3c.2.2.5.3.7.1.2-.1.2-.3.2-.5 0-.4-.1-.6-.1-.9zM58.9-44s-.3-.5-.8-1.3c-.3-.4-.6-.9-1-1.4-.2-.3-.4-.6-.7-.9-.3-.3-.6-.6-.8-.9-.6-.6-1.3-1.2-2.1-1.8-.4-.3-.8-.6-1.3-.9-.5-.3-.9-.5-1.4-.8-.5-.2-1-.5-1.5-.7-.5-.2-1.1-.4-1.6-.6-1.1-.3-2.3-.6-3.5-.7-.8-.1-1.6-.1-2.5-.1 0-.1-.1-.1-.1-.2-.4-.6-.9-1.3-1.4-2.1-.5-.8-1.3-1.5-2-2.3-.4-.4-.8-.7-1.3-1.1-.5-.3-.9-.7-1.4-1.1-1-.6-2.1-1.3-3.3-1.6-.6-.2-1.2-.5-1.8-.6l-1.9-.4c-.6-.1-1.3-.1-1.9-.1-.6-.1-1.3 0-1.9 0-1.3 0-2.5.3-3.6.6-1.1.4-2.2.7-3.2 1.1-1 .4-1.9 1-2.7 1.4-.8.5-1.4 1-2 1.5-.6.5-1.1 1-1.4 1.4-.7.8-1 1.3-1 1.3-.3.4-.2.9.2 1.2.3.2.7.2 1 0 0 0 .5-.3 1.3-.9.4-.3.9-.5 1.5-.8.6-.3 1.3-.6 2-1 .8-.3 1.6-.6 2.5-.9.9-.3 1.8-.5 2.8-.7 1-.1 2-.3 3-.3 1-.1 2.1 0 3.1.1 1 .2 2 .4 3 .7.5.1 1 .3 1.4.5.5.2.9.4 1.4.6.4.2.8.5 1.2.7.4.3.8.4 1.2.7.4.3.7.6 1.1.8.3.3.7.5 1 .8.3.3.5.5.8.7-.6.1-1.2.2-1.8.4-1.1.3-2.1.7-3 1.1-.9.4-1.7.9-2.4 1.4-.7.5-1.3 1-1.9 1.4-.5.4-1 .9-1.3 1.2-.7.7-1 1.2-1 1.2-.1.1 0 .2.1.3h.2s.5-.2 1.4-.6c.9-.4 2.1-.9 3.6-1.4 1.5-.5 3.2-1 5.1-1.2 1.9-.3 3.8-.3 5.8-.1 1 .1 1.9.3 2.9.5.5.1.9.3 1.4.4.5.2.9.3 1.3.5.9.3 1.7.7 2.5 1.1.4.2.8.4 1.1.6.4.2.7.4 1.1.6.7.4 1.3.7 1.9 1.1.6.3 1.1.6 1.5.9.8.5 1.3.8 1.3.8.1.1.3 0 .3-.1-.5.2-.5.1-.5 0z"/>
    </g>
    <path fill="#C71F41" d="M-23.6-126.1zM21.8-15.9s0 .1 0 0z"/>
    <path fill="#098D45" d="M-4 70.4l4.6-7.5L25.5 72s.1.6.1 1.5c-5.3-.9-13.2-1.6-20.8-1.7L-4 70.4z"/>
    <path fill="#8DC04A" d="M20.4 100.6c.1-.9.2-4.8.2-4.8L9.5 113.2l2.4-5.7L-3 123.2l2.7-5.1-10.8 10s.5-2.2-1.6-.3c-2.2 1.9-14.9 5.1-14.9 5.1l2.4-2.4-16 2.7s3.5-1.5 3.6-2.1c-.1-.2-2.8-.3-6.3-.3-7.8-.2-13.8-3.2-13.8-3.2h4.9c-1.8 0-8-3.2-9.8-4.4 6.6.6 31.8 2.3 45.6-6.4 16-10.1 33.5-42.9 33.5-42.9L4.8 71.8c7.6.2 15.5.8 20.8 1.7.4 4.2 1.5 15.7 1.5 16.4 0 .8-6.3 9.4-6.7 10.7z"/>
    <path fill="#098D45" d="M20.4 100.8v-.1.1zM-4.9 71.9l.9-1.5 8.8 1.5c-3.4-.1-6.7-.1-9.7 0z"/>
    <path fill="#098D45" d="M-63 122.7c4.3.3 8.1-8.9 8.1-8.9l-2.4.5 5.7-9.2-2.1.5 6.7-7-1.9-1.9 34.4-8.9L-4.9 72c3-.1 6.4-.2 9.8-.1l11.7 1.9S-1 106.6-16.9 116.7c-13.8 8.7-39 7.1-45.6 6.4-.5-.3-.7-.4-.5-.4z"/>
    <path fill="#8DC04A" d="M21.9 74.6c8.8-1 19.7 4 28 12.8-.7.3-1.2.5-1.2.5l6.4 4.9-2.5-.8 6 5.2-2.5-.8 5.1 4.9-1.7.2 2.3 4.2h-1.9l1.2 4.8h-1.9l-.8 4.6-1.3-.5-1.6 5.2-1.9-.2-3.7 6s-1.1-.5-.9-.8c.1-.3-7 7.2-7 7.2s-.4-.7-.3-1c.1-.3-8.9 7.3-8.9 7.3l.4-1.3-9.2 6.7.5-1.1-6.9 5.1c8.7-12 33.7-50.1 4.3-73.1z"/>
    <path fill="#098D45" d="M19.1 139.5c.1 0 .1-.1 0 0-.2.2-1.3 1.2-1.3 1.2s.2-5.8-.8-6.4l-.5 1.1-2.2-6.2-.7 2.5-4.1-6.1-.5 2.1-2.6-6.6-1.4 1.8-1.4-7.6-1.8 1.9.3-8.1-1.4 1.4 1.5-9.6-1.9 2L4.2 95l-2 1.1 5-6.4-2.8 1.7c.1-.1.2-.3.2-.4l6-5.7-3 1.4 5.2-5.6-2.3.6 6.5-4.9-2.6 1.1 3.2-2-.1-.1c1.4-.6 2.9-1 4.5-1.1 28.9 22.6 5.2 59.9-3.8 72.3.3-2.1 1.2-6.3.9-7.5z"/>
    <path fill="#098D45" d="M127.5 73.1l-4.9 4.6 1.7-.4-6.3 6.1 2-.4s-8.3 6.3-7.8 6.2c.5-.1 2 0 2 0s-9.5 5.4-9 5.3c.5-.1 2 .4 2 .4l-8.9 3.3 1.5 1.1-8.6 2 1.6.7-8.1 1.5 1.1 1.2-9.4.3.9 1.2-8.7-.7.5 1.2-11.1-2.6 2.6 1.6-11.8-3.3 2.5 1.7-11.2-4s-.2.4-.5.9C11 91.5-1 73.9 21 69.2c1.5-.3 16-8.3 42.3-5.2 26.4 3.1 34.1 9.2 46.6 9.8 9.2.4 15-.3 17.6-.7z"/>
    <path fill="#3CAA49" stroke="#010101" stroke-linecap="square" stroke-linejoin="round" stroke-miterlimit="10" stroke-width="4" d="M17.2 71c-1.8 8.8-13.8 18.2-30.6 24.1-.2-.7-.4-1.2-.4-1.2L-23.9 99l2.3-2.3-10.3 4.5 2.3-2.3-9.5 3.8.4-1.7-7.3 1.3.7-1.8h-7.9l.8-1.9-6.9-1.9 1.3-1.1-7.4-2.8 1.1-1.7-7.9-5s1.1-.9 1.6-.7c.5.2-8.5-8.5-8.5-8.5s1.2-.3 1.7 0c.5.2-7.9-10.4-7.9-10.4l1.8.7-6.8-10.5 1.6.7-5.2-8C-79 60.6-29.6 94.1 17.2 71z"/>
    <path fill="#3CAA49" stroke="#010101" stroke-linecap="square" stroke-linejoin="round" stroke-miterlimit="10" stroke-width="4" d="M13.8 68.2c8.6 9.7 26.7 14.1 46.4 11.7-.4-1-.7-1.7-.7-1.7l13 .3-3.8-1.5 12.8-.4-3.8-1.4 11.4-.9-1.8-1.9 7.5-2.7-2.1-1.8 7-4.6-2.2-1.8 4.6-6.3-2-.6 4.4-7.6-2.3-1.5 3.1-10.7s-1.7-.5-2 .1c-.3.5.8-15.3.8-15.3s-1.3.4-1.5.9c-.3.5-1.2-17.3-1.2-17.3l-1.1 1.9L98-11.7l-.9 1.8-1.7-12.7C91.2-.4 73.8 69.1 13.8 68.2z"/>
    <g>
      <path fill="#93AF51" d="M76.4 166.3c.1.2.2.3.2.4 1.9 3.9-.1 8.8-4.6 11.1-3.3 1.7-7 1.4-9.5-.4-.7-.4-1.5-1.1-2.1-2.1-.1-.1-3.6-11.8-5.5-16.1-5.6-11.7-15.2-28.9-20.5-37C23.9 105.6 4.7 75.8 4.7 75.8c-4.3-6.4.9-11.9 4.2-13.6 10.8-5.4 14.5 0 14.5 0s29.3 60.2 43.1 87.7c1.4 2.4 8 13.1 9.7 16 .1.2.2.3.2.4z"/>
      <path fill="#ABC889" d="M76 169.4c-1.3-2.5-5.3-3.1-9-1.3s-5.6 5.4-4.3 7.9c1.3 2.5 5.3 3.1 9 1.3s5.6-5.4 4.3-7.9z"/>
    </g>
    <path fill="#098D45" stroke="#010101" stroke-linecap="round" stroke-linejoin="round" stroke-miterlimit="10" stroke-width="4" d="M87.8-11.7s0 .1 0 0v-2.7s-6.7 7.1-8.4 6.8l.8-1.9-9.8 5.3 2.2-3.6-11.8 3.3 1.9-2.9L52-2l.5-3.6-10.6 7.7.3-4L32.8 8l.2-3-9.8 12.9.2-4.2-5.1 13.1-.9-3.2L15.3 36l-1.9-7.5c-.1.3.4 16.1.4 16.1L11.4 38l-.2 13.8-1.9-2.9L10.8 61l-1.6-3.8s3.2 9.3 4.7 11c59 .9 76.8-66.3 81.5-89.7-1.8 2.7-5.8 8.6-7.6 9.8z"/>
    <path fill="#098D45" stroke="#010101" stroke-linecap="round" stroke-linejoin="round" stroke-miterlimit="10" stroke-width="4" d="M-82.1 52.7c0 .1 0 .1 0 0-.2-.2-1.4-1.6-1.4-1.6s8.9 1.6 10.2.8l-1.6-.8 10.4-.6-3.6-1.3 11.1-2.5-3-.9 11.3-.9-2.2-1.9 12.3.5-2.2-2.2 12.4 2.2-1.7-1.7 14.3 3.8-2.3-2.3 10.7 5.6-.9-2.2 8 6.4-1.7-3.2.6.3 6.5 7.2-1-3.3 6.7 6.4v-2.4l5.1 7.5-.7-2.8 1.8 3.6.1-.1c.4 1.5.4 3 0 4.6C-29 93.5-77.5 61.5-93.1 49.8c2.8 1 9 2.9 11 2.9z"/>
    <path fill="none" stroke="#010101" stroke-miterlimit="10" stroke-width="4" d="M26 68.3s28.8 53.6 35 64.3M5.2 75.9s32.8 55 38.1 66.1"/>
  </symbol>
  <g style="-webkit-animation-name:r1xgNG3D5z_r15NphP9G_Animation;animation-name:r1xgNG3D5z_r15NphP9G_Animation;-webkit-transform-origin:undefined;transform-origin:undefined;-webkit-animation-timing-function:cubic-bezier(.42,0,.58,1);animation-timing-function:cubic-bezier(.42,0,.58,1)" data-animator-group="true" data-animator-type="0">
    <g id="r1xgNG3D5z">
      <defs>
        <filter id="Adobe_OpacityMaskFilter" filterUnits="userSpaceOnUse">
          <feColorMatrix values="1 0 0 0 0 0 1 0 0 0 0 0 1 0 0 0 0 0 1 0"/>
        </filter>
      </defs>
      <mask id="SVGID_1_" maskUnits="userSpaceOnUse">
        <g filter="url(#Adobe_OpacityMaskFilter)">
          <linearGradient id="SVGID_3_" x1="31.0963" x2="304.7309" y1="14.6485" y2="131.6221" gradientTransform="matrix(1 0 0 -1 0 228.3465)" gradientUnits="userSpaceOnUse">
            <stop offset="0" stop-color="#fff"/>
            <stop offset=".0208" stop-color="#f4f4f4"/>
            <stop offset=".1356" stop-color="#bcbcbb"/>
            <stop offset=".2537" stop-color="#898989"/>
            <stop offset=".3728" stop-color="#606060"/>
            <stop offset=".4929" stop-color="#3e3e3e"/>
            <stop offset=".6145" stop-color="#222"/>
            <stop offset=".7381" stop-color="#111"/>
            <stop offset=".8648" stop-color="#060606"/>
            <stop offset="1" stop-color="#010101"/>
          </linearGradient>
          <path fill="url(#SVGID_3_)" d="M44.5 105.7h194.3v121.4H44.5z"/>
        </g>
      </mask>
      <use style="-webkit-transform:matrix(.4158,0,0,-.4158,113.3858,102.6019);transform:matrix(.4158,0,0,-.4158,113.3858,102.6019)" width="264.8" height="368.8" x="-132.4" y="-184.4" overflow="visible" xlink:href="#New_Symbol_1_"/>
    </g>
  </g>
  <g style="-webkit-animation-name:rJmxNfhDcM_ryR6snv9f_Animation;animation-name:rJmxNfhDcM_ryR6snv9f_Animation;-webkit-transform-origin:undefined;transform-origin:undefined;-webkit-animation-timing-function:cubic-bezier(.42,0,.58,1);animation-timing-function:cubic-bezier(.42,0,.58,1)">
    <ellipse style="-webkit-animation-name:rJmxNfhDcM_Animation;animation-name:rJmxNfhDcM_Animation;-webkit-transform-origin:undefined;transform-origin:undefined;-webkit-animation-timing-function:cubic-bezier(.42,0,.58,1);animation-timing-function:cubic-bezier(.42,0,.58,1)" cx="113.4" cy="195.8" fill="#1d1d1b" data-animator-group="true" data-animator-type="2" rx="33.7" ry="5.5"/>
  </g>
</svg>
