<svg xmlns="http://www.w3.org/2000/svg" version="1" viewBox="0 0 1024 1024">
  <path d="M494.5 4c-9.9 1.4-16 5.9-19.1 14-1.5 3.9-1.7 9.6-1.8 43.5l-.1 39 2.4 5c1.4 2.7 4 6.7 6 8.7l3.5 3.8-1.7 4.7c-.9 2.7-1.4 5.8-1.1 7.1.5 1.8-.2 3.2-3.2 6.3-2.2 2.3-4.8 3.9-6.1 3.9-4.6 0-16.1 5.9-23.2 11.9-8.5 7.2-18.1 21.3-18.1 26.6 0 .6-.9 2-2 3-3.5 3.1-5.8 21.9-4 33.1 2.9 17.8 13.8 34.4 31.3 47.7 4.1 3.1 4.4 4.1 2.3 8.9-1.7 4-3.1 9.3-4.7 17.8-.7 3.6-2 8.3-3 10.5-1 2.2-2.5 6.5-3.3 9.5-.8 3-3 9.8-4.9 15-4.8 12.8-8.7 25.3-8.7 27.5 0 .9-.7 2.9-1.5 4.3-1.5 2.9-4 11.7-5.5 19.3-.4 2.6-2.2 7.6-3.9 11.2-1.9 4-3.1 8.2-3.1 10.7 0 2.9-.8 5.1-2.6 7.5-1.9 2.5-2.5 4.4-2.3 7.2.2 2.7-.6 5.7-2.8 10.1-1.8 3.4-3.7 8.8-4.4 12-.6 3.1-2 6.8-3 8.1-1.1 1.3-1.9 3.3-1.9 4.5 0 2.8-3.7 14.6-5.4 17.1-.8 1.1-1.6 3.8-1.9 6-1 7.3-2.4 12-4.5 15.5-1.3 2.1-2.2 5.2-2.2 7.6 0 2.8-.6 4.7-2 5.9-1.3 1.2-2 3.1-2 5.4 0 2-.9 5.6-2 8-1.1 2.4-2 5.3-2 6.4 0 1.2-1.1 3.7-2.4 5.6-1.3 2-3.4 7.9-4.6 13.1-1.2 5.2-2.7 10.3-3.1 11.2-.5 1-1.1 3.3-1.4 5.2-.2 1.9-1 4.8-1.8 6.3-.7 1.5-2.2 5.7-3.1 9.3-1 3.6-2.9 9.2-4.2 12.5-1.3 3.3-2.4 6.8-2.4 7.8 0 .9-1 3.4-2.3 5.5-3.3 5.4-4.7 8.9-4.7 11.9 0 2.6-1.3 7.4-3.3 12.3-.5 1.4-1.3 4.3-1.8 6.5-1.1 5.8-4 13.7-5.7 15.7-.9 1.1-1.3 2.8-.9 4.7.4 2 .1 3.7-1.2 5.3-1.1 1.3-2.6 4.6-3.4 7.3-2.3 7.3-4.6 13.6-6.2 17.2-.8 1.7-1.5 3.7-1.5 4.5 0 .7-.6 3.3-1.4 5.8-.8 2.5-2 7-2.6 10-.7 3-1.8 6.5-2.6 7.7-.8 1.2-2.1 4.8-2.9 7.9-.8 3.2-2.4 7.6-3.5 9.9-1.1 2.3-2 5.3-2 6.7 0 1.4-1.6 6.1-3.6 10.4-2 4.4-3.7 9.5-3.9 11.4-.2 2-1.3 5.7-2.4 8.4-1.2 2.6-2.1 5.4-2.1 6.3 0 .8-1.3 5.3-3 10-1.6 4.6-3 9.5-3 10.9 0 2.2-.9 4.5-6.2 16.1-2 4.6-3.1 9.1-6.3 26.3-.8 4.1-1.9 9.1-2.5 11-.5 1.9-1.2 5.7-1.5 8.5-.3 2.7-1.2 8.1-2 12-1.5 7.6-5.1 31.4-6.1 41-.4 3.3-1.3 7.5-2 9.4-.8 1.8-1.4 5.5-1.4 8 0 2.6-.6 7-1.4 9.7-.8 2.7-1.7 8-2.1 11.9-.3 3.8-1.2 9.7-2 13-.7 3.3-1.6 10.5-2 16-.3 5.5-1.5 13-2.6 16.6-1 3.6-1.9 8.7-2 11.5-.1 2.7-.8 5.8-1.6 6.9-1.5 2.3-1.7 6.1-.4 7 1.2.7 3.4-3.2 2.6-4.4-.3-.5.3-1.7 1.2-2.7 1.8-1.8 3.2-5 6-13.9.8-2.7 2.8-7.7 4.4-11.1 1.6-3.3 2.9-7 2.9-8 0-3.3 5.5-17.9 7.8-20.9 1.2-1.5 2.2-3 2.3-3.4 1-7.5 2.3-12.9 4-16.3 1.1-2.1 1.9-4.9 1.9-6.3 0-1.5 1.1-5.4 2.4-8.8 1.3-3.4 3.2-8.9 4.1-12.2 1-3.3 2.3-7.6 3-9.5.7-1.9 3.4-10.3 6-18.5 2.6-8.3 5.6-17.5 6.7-20.5 1.1-3 2.8-8.4 3.8-12 1-3.6 3.9-12.6 6.5-20s5-15.1 5.5-17c.4-1.9 3-10 5.8-18 2.7-8 5.3-16.1 5.7-18 .4-1.9 1.4-4.7 2.1-6.2.8-1.5 1.4-3.6 1.4-4.8 0-1.2.8-3.5 1.7-5.3 1.7-3.2 3.4-8.4 5.4-16.2.5-2.2 1.5-5.4 2.3-7 2.5-5.7 8.8-25 9.6-29.2.3-2.3 1.1-4.8 1.7-5.5.6-.7 1.4-3.3 1.8-5.8.4-2.5 1.5-6.1 2.4-8 1-1.9 2.1-5.2 2.5-7.4.4-2.1 1.1-4.6 1.5-5.5.5-.9 1.8-5 3.1-9.1 1.2-4.1 3.3-10.9 4.7-15 1.4-4.1 3.3-10.4 4.3-14 1-3.6 2.5-8.3 3.3-10.5 1.6-4 6.5-20.2 10.7-34.5 1.2-4.1 3-9.9 4.1-12.8 1-3 1.9-6.2 1.9-7.2s1-2.7 2.3-3.7c2.1-1.6 4.5-1.8 27.3-1.6 103.8.7 150.3.2 155.5-1.8 2.1-.8 3.4-.7 5.8.5 2.5 1.3 3.7 1.4 7.4.4 7.3-1.9 12.4.6 13.8 6.9 2 9.5 4.8 19.3 7.1 25.3 1.4 3.6 3.2 8.7 4.1 11.5.8 2.7 2 6.3 2.5 8 .6 1.6 1.8 5.7 2.8 9 .9 3.3 2.5 7.9 3.5 10.3 1.1 2.3 1.9 5.3 1.9 6.7 0 1.3.4 2.6.9 2.9.4.3 1.8 3.8 3 7.8s3.1 9.5 4.1 12.3c1 2.7 2.4 6.8 3 9 .5 2.2 1.7 4.9 2.5 5.9.8 1.1 1.5 3.6 1.5 5.6 0 2 2.2 9 5 15.9 3.3 8 5 13.7 5 16.5 0 3.4.6 4.8 3 7.1 2.5 2.4 2.9 3.4 2.4 6.1-.3 1.9 0 4.3.9 6.1.9 1.6 1.9 4.7 2.2 6.8.4 2.2 1.1 4.5 1.6 5 .4.6 1.3 3.3 2 6 .6 2.8 1.9 5.8 2.7 6.7 1.1 1.3 1.3 3.3 1 7.5-.6 6.5.7 10.1 4.5 12.6 1.8 1.2 2.6 2.8 3.1 6.4.3 2.7 2.9 11.4 5.7 19.3 2.7 8 5.5 16.1 6.1 18 5.5 18.4 8.5 27 10 29.5 1 1.6 1.8 4 1.8 5.3 0 1.3 1.3 5.2 3 8.7 1.6 3.5 3.3 9 3.6 12.2.4 3.2 1.7 7.8 2.9 10.3 1.2 2.5 3 7.6 4 11.5 1.5 6.2 5 15.7 7.6 20.7 2.3 4.6 5 14.5 4.5 17-.3 1.5-.2 3 .3 3.2 1.3.8 6.1 11.4 6.1 13.4 0 1 .6 2.7 1.4 3.8 1.6 2.2 5.6 13.5 5.6 15.7 0 .8 1.1 3.4 2.5 5.9 2.8 5.1 7.2 17.4 8.4 23.3.4 2.2 1.3 5 1.9 6.2.7 1.2 1.2 3.7 1.2 5.6 0 2.3.6 3.7 1.6 4.1 3.1 1.2 3.7.7 3-2.7-.4-1.7-.9-7.3-1.2-12.4-.3-6.1-1.3-11.7-3-16.5-1.8-5.4-2.3-8.4-1.8-11.5.4-2.8.1-5-.9-7-.8-1.5-2-6.6-2.5-11.3-.6-4.7-1.7-10.5-2.6-13-.9-2.7-1.3-6-.9-8.5.3-2.6-.1-5.8-1.2-9-1-2.8-2.4-8.6-3-13-2.6-16.2-3.7-22.1-5-27-.8-2.8-2.1-10.2-2.9-16.5-.9-6.3-2-14-2.6-17-1.2-6.5-2.5-13.9-4.1-23.5-.6-3.9-1.5-7.7-2-8.6-.4-.8-1-4.6-1.4-8.3-.6-6.8-1.2-8.9-5.5-19.6-1.2-3-2.5-6.9-2.8-8.5-.2-1.7-1.1-3.9-1.8-5-.8-1.1-1.4-3.6-1.4-5.6 0-2.3-.7-4.2-2-5.4-1.2-1-2-3.1-2-4.8 0-1.7-1.1-5.3-2.4-8.1-4.3-9.1-5.6-12.6-5.6-14.7 0-1.1-.7-3.4-1.6-5-.8-1.7-2.8-7.2-4.4-12.4-1.6-5.2-3.6-10.7-4.4-12.4-.9-1.6-1.6-4.7-1.6-6.8 0-2.6-.6-4.4-2-5.6-1.2-1-2-2.9-2-4.8 0-1.7-.8-4.3-1.9-5.7-1-1.5-2.1-4.1-2.3-5.7-.6-3.4-3.5-11.9-5.1-15-.6-1.1-1.4-3.8-1.8-6-.4-2.2-2.1-7.6-3.9-12-1.8-4.4-3.5-9.4-3.7-11-.3-1.7-1.4-4.1-2.4-5.4-1.1-1.3-1.9-3.5-1.9-5 0-1.4-1.9-7.3-4.1-13.1-2.3-5.8-4.7-12-5.3-13.7-.7-1.8-2.3-4.4-3.6-5.8-2.1-2.2-2.2-2.9-1.2-4.6 1.1-1.6.9-2.8-.8-6.7-1.2-2.6-2.4-6.5-2.7-8.7-.7-5.8.8-6.8 8.1-5.4 3.9.7 7.3.7 10.4 0 3-.6 7.7-.6 13.9.1 6.5.7 10.8.7 14.4-.1 2.8-.6 5.5-.8 6.1-.5 1.2.8 37.3.8 38.5.1 2.1-1.3 7.2 3.2 8.3 7.2 1.2 4.6 2.8 5.8 8.5 6.2 3.4.3 4.1 0 5.2-2.1.7-1.4 1.3-6.1 1.3-10.7 0-10.8.7-11.3 14.6-11.3h10.1l.7-3.7c1.4-8.9 0-17.5-3-18.7-2.7-1-5.4 1.2-5.4 4.5 0 2.4-.4 3-1.7 2.7-1-.3-1.6-1-1.3-1.9.7-2.2.5-8.2-.3-10.3-.7-1.8-1-1.7-3.7 1.2-3.1 3.5-4.6 3.8-7.2 1.8-1.3-1-1.8-2.7-1.8-6.6 0-5.5-1.7-11.9-3.5-13.2-.5-.4-2.7-.8-4.7-.8-3 0-4.2.6-6.2 3.3-1.7 2.2-2.6 4.7-2.6 6.9 0 6.1-.1 6.1-31.8 6.3-15.8 0-29.2.4-29.9.8-.6.4-3.7 0-6.9-.8-4.6-1.2-6-1.2-7.2-.2-.8.6-4 1.4-7.1 1.7-5.2.5-5.6.7-5.3 2.8.1 1.8-.5 2.6-2.8 3.5-3.7 1.4-3.4 2.6 1 4.1 2.7.9 3.6 1.7 3.8 3.9.3 2.6.1 2.8-3.5 2.6-2.1-.1-4.7.2-5.9.6-1.8.5-2.2.2-2.7-2.4-.7-3.2-3.2-4.2-5.4-2-.8.8-1.7.8-3.3-.1-2.9-1.6-2.1-3.3 2.2-4.5 2-.5 4.5-1.8 5.5-2.7 1.1-1 2.8-1.8 3.9-1.8s2.9-.7 4-1.5c1.6-1.3 1.7-1.6.4-2.5-3.1-2.1-7.4-.7-9.9 3.2-1.3 2.1-3.1 3.8-4 3.8-3.1 0-8-3.9-8.6-6.7-.4-1.5-1.5-4.4-2.6-6.4-1-2-1.9-4.9-1.9-6.4 0-1.4-.9-5-2.1-7.8-1.1-2.9-2.5-6.3-3.1-7.7-1.4-3.4-5.1-15.1-7.8-24-2.3-7.8-4-12.8-8.3-24.5-1.5-3.9-3.4-9.5-4.2-12.5-.9-3-2.3-6.9-3-8.5-1.8-3.8-7.2-19.4-9.1-26-.7-2.8-1.8-5.9-2.4-7-1.5-3.2-10-28.8-10-30.3 0-.8-.7-2.8-1.5-4.5-1.4-3.1-5-13-8.2-23.2-.9-2.8-2.4-6.8-3.5-9.1-1-2.2-1.8-5.6-1.8-7.5 0-1.9-.6-4.3-1.4-5.4-.7-1.1-1.9-3.8-2.5-6-.7-2.2-2.8-7.9-4.7-12.7-2.7-6.5-3.4-9.5-2.9-12 .5-2.6.2-3.8-1.4-5.2-1.2-1.1-2.1-2.4-2.1-3 0-.6-.9-2.8-2-4.9-3.1-5.8-2.7-10.1 1.3-12.8 5.3-3.6 19.7-18.2 19.7-20 0-.9.8-2.7 1.8-4 2.9-4 5.9-10.9 8.2-19.4 1.9-6.7 2.2-9.7 1.7-18.1-.3-7.1-1-10.9-2.2-12.7-.9-1.4-1.5-3.9-1.4-5.6.2-1.7-.3-3.7-1.3-4.8-.8-1-3-4.3-4.7-7.3-5.2-9.3-24.8-28-29.4-28-1.3 0-3.1-.9-3.8-1.9-1.1-1.5-2.2-1.8-4.6-1.4-4.8.8-4 2.8 2.2 5.9 7.8 3.8 13.1 7.7 19.8 14.6 6.4 6.7 13.5 18.4 12 19.9s-4.3-.1-4.9-3c-.4-1.4-1.9-4-3.5-5.6-1.6-1.7-5.4-5.8-8.5-9.3-3.1-3.4-6.3-6.2-7-6.2-.7 0-1.9-.6-2.7-1.4-2.7-2.8-14.5-8.4-18.8-9-2.4-.4-7.4-1.4-11-2.2-5.3-1.2-7.4-1.3-10.5-.4-2.2.6-6.9 1.5-10.5 1.9-6.2.8-18.7 6-26.1 10.9-4.1 2.7-16.6 17.1-17.3 20-.3 1.4-1.5 3.7-2.6 5-1 1.4-1.9 3.3-1.9 4.4 0 1-.7 3.3-1.6 5.1-1.4 2.6-1.6 5.4-1.1 16.9.5 13.3.6 13.9 3.6 18.3 1.7 2.5 3.1 5 3.1 5.5 0 2.9 13.7 19.5 17 20.5 2.4.8 2.6 4 .5 4.9-1 .3-3.2-.9-5.8-3.3-2.3-2.1-5.4-4.8-6.9-6.1-1.6-1.3-2.8-2.9-2.8-3.6 0-.6-.7-1.7-1.5-2.4-1.5-1.2-1.9-1.9-7.2-12.5-8.2-16.2-7.8-32.9 1.3-52.1 4.2-8.9 13.8-20.2 20.9-24.7 13.1-8.2 19.5-10.8 28.9-11.8 5-.6 12.7-.9 17.1-.8 4.4.1 8.7-.1 9.6-.5 1-.4 2-.3 2.4.3.3.6 1.6 1.1 2.7 1.1 2.1 0 2.1-.1-.4-2.8-2-2-2.7-4.1-3.1-8.2-.3-3-.8-6.6-1.2-8-.5-2 0-3.2 2.4-5.8 2.6-2.7 3.1-4 3.2-8.4 0-2.9.4-7.8.8-10.8.5-3 .4-15.2-.2-27-.5-11.8-1-28.1-1.1-36.1l-.1-14.6-3.6-4.4c-3.4-4.2-14.6-11.1-17.3-10.8-.6.1-3.3.5-6.1.9zm1 9c3.8 1.6 4.6 2.4 4.3 4.2-.3 2.2-.8 2.3-9 2.6-8 .3-8.8.1-8.8-1.6 0-1.6 6-6.8 8.2-7.1.3-.1 2.7.8 5.3 1.9zm3.5 21.3c0 .8-.8 2.1-1.8 3-1.6 1.5-2.1 1.5-3.7.3s-1.7-1.6-.6-3c1.6-1.9 6.1-2.1 6.1-.3zm-6.6 10.3c1.1 2.8.7 3.4-2.2 3.4-3.8 0-4.6-.9-2.5-3.2 2-2.2 3.9-2.3 4.7-.2zm5.1 5.4c.3.5-.1 1-.9 1-.9 0-1.6-.5-1.6-1 0-.6.4-1 .9-1 .6 0 1.3.4 1.6 1zm-5.6 5.2c-1.1 2.4-5.7 6.3-6.5 5.5-.9-.9 4.1-7.6 5.8-7.7 1.5 0 1.6.4.7 2.2zm1.8 9c-.3.8-.6.5-.6-.6-.1-1.1.2-1.7.5-1.3.3.3.4 1.2.1 1.9zm1.3 7.3c0 2.9-1.9 3.2-5.5.9-3.5-2.3-3.1-3 1.5-3.2 3.6-.2 4 0 4 2.3zm-8 8c0 .8-.4 1.5-.9 1.5-1.3 0-2.2-1.6-1.4-2.4 1.1-1.1 2.3-.6 2.3.9zm7.8 1.7c-.3.7-1.5 1.4-2.9 1.6-2.3.2-2.3.2-.5-1.3 2.4-1.8 3.9-2 3.4-.3zm20.7-.2c.3.6-.1 1.3-1 1.6-1.9.8-3 0-2-1.5.8-1.4 2.2-1.4 3-.1zm-24.1 5.5c1.1.8 2.8 1.3 3.8.9 1-.3 2.3-.2 2.9.2 1.4.8-6.7 8.7-8.4 8.1-.7-.2-2-1.8-3.1-3.6-1.8-3-1.8-3.3-.1-5.1 2.1-2.4 2.4-2.4 4.9-.5zm6.1 14.2c-.3 1.4-.1 3.1.5 3.8 1.5 1.8-.4 2.9-2.8 1.6-1.4-.7-2.7-.5-5.1 1-5.4 3.2-7 0-2.7-5.5 1.9-2.6 3.1-3.1 6.5-3.2 4-.1 4.2 0 3.6 2.3zm-2 13.9c2.8 1.8 3.3 4.9.9 5.8-3 1.1-8.1-3.1-7-5.9.7-1.9 3-1.9 6.1.1zm-2.8 13c.3.8-.2 2.3-1.1 3.2-1.4 1.5-1.8 1.5-3.1.1-.9-.9-1.3-2.3-.9-3.2.8-2.1 4.3-2.2 5.1-.1zm31.1 24.3c2.8 1 6 2.5 7 3.4 1 1 2.8 1.7 3.9 1.7 3.4 0 13 10.1 19 19.9 4.6 7.5 7.8 17.1 6.9 21.2-.3 1.9 0 4.2 1 6.1 1.2 2.3 1.3 3.6.5 5.7-.5 1.4-1.3 5.4-1.6 8.7-.6 6-4 12.4-9.8 18.9-6.1 6.8-7.7 9.2-7.7 11.2 0 2.3.1 2.3 2.9.9 6.9-3.6 19.1-21 19.1-27.3 0-1.3.6-3.6 1.4-5.1.8-1.5 1.7-6.6 2.1-11.3.6-7 .4-9.2-.9-11.7-2-3.8-2.1-7.2-.2-7.2 2.3 0 3.3 2.2 4.1 9 1.8 14.2.3 25.1-4.7 35.2-1.5 3.1-2.8 6.1-2.8 6.6s-4.2 5.3-9.3 10.7c-9.9 10.5-12.2 11.5-13.3 5.7-.3-1.5-1.5-3.2-2.7-3.7-1.2-.6-2.5-2.8-3.4-5.7-1.3-4.7-4.3-7.8-7.4-7.8-3 0-19 5.7-20.7 7.3-1.2 1.3-1.4 2.3-.5 4.9.5 1.8.8 5 .5 7.1-.3 3-.9 3.8-3 4.4-1.3.3-3.7.2-5.1-.3-3.1-1.1-4-5.4-2-9.1 1.7-3.2.3-5.4-4.7-7.1-2.1-.7-4.6-1.9-5.5-2.7-.8-.8-2.4-1.5-3.4-1.5s-3.3-.5-5.1-1.2c-2.9-1-3.6-.9-5.3.6-1 1-2.5 3.1-3.1 4.7-2.1 4.9-4.9 3.9-12.9-4.8-3.9-4.3-7.1-8.4-7.1-9.1 0-.8-.9-2.1-2.1-3.1-2.7-2.2-4-8.1-4.6-21.2l-.5-10.6 4.7-9.4c6.4-13 6.4-13.1 12.5-19.1 6-5.9 11.2-9.8 13-9.8.6 0 2.3-.9 3.7-2 1.4-1.1 3.2-2 4-2 .8 0 2.9-.7 4.6-1.5 4.4-1.9 9.3-2.4 22.2-1.8 6.8.3 13 1.1 16.3 2.2zM485 246.5c3.6 2.5 3.7 2.7 3.2 7.8-.2 2.9-1.2 6.5-2.2 8.2-1 1.6-2.1 5-2.5 7.5-.4 2.5-1.6 6.1-2.6 8-1.1 1.9-1.9 4.4-1.9 5.6 0 1.2-.7 3.5-1.5 5-.8 1.6-1.5 4.4-1.5 6.3 0 1.8-.8 5-1.9 7-2 3.8-6.1 16.8-6.1 19.2 0 .8-.7 2.6-1.4 4.2-1.4 2.6-3.7 10.3-5.7 19.2-.5 2.2-1.6 5.6-2.4 7.5-1.8 4.1-7.8 24.2-9.5 31.8-.7 2.8-1.6 5.5-2.1 5.8-.5.3-.9 1.4-.9 2.5 0 1.2-1.8 7.3-4 13.6-2.2 6.4-4 12.4-4 13.4s-.8 3.8-1.9 6.1c-2.9 6.8-6.1 17.1-6.1 19.8 0 1.4-.6 3.4-1.3 4.5-.8 1.1-2.6 6.3-4.1 11.5-1.6 5.2-3.4 10.6-4.1 12-.7 1.4-1.5 4.5-1.9 6.9-.4 2.4-2 7.6-3.6 11.5-1.5 3.9-3.3 9.5-4 12.5-.6 3-1.4 5.9-1.9 6.5-.5.6-1.6 3.6-2.4 6.6-.8 3-2.5 8.6-3.7 12.5-1.2 3.8-2.6 9.6-3.2 12.7-.6 3.2-1.5 5.8-1.9 5.8-.5 0-.9-.5-.9-1 0-1.7-6.5-8-8.2-8-1.6 0-6.8 6-6.8 7.8 0 .5.9 2.1 2.1 3.6 2.3 2.9 5.4 3.4 6.3 1 .3-.9 1.5-1.4 2.8-1.2 3.1.4 3.4 3.7.9 8.4-1.2 2.1-2.1 4.6-2.1 5.4 0 .9-1.4 5.4-3.1 10.1-3.1 8.2-5.6 16.5-8.3 26.4-.8 2.7-1.9 6.3-2.5 8-.6 1.6-1.3 4.2-1.5 5.6-.8 3.8-4.8 5.3-8.5 3.2-2.5-1.5-3.3-1.5-5.7-.4-2.8 1.2-2.8 1.3-.9 2.8 1.3.9 3.4 1.3 6.2 1 3.9-.4 4.2-.3 4.8 2.3.4 1.9-.1 4.2-1.4 6.9-1.2 2.2-2.1 5.9-2.1 8.1 0 2.2-1.1 6.6-2.4 9.8-2.4 5.8-6.9 19.1-10.7 31.7-1.2 3.8-2.8 8.3-3.5 10-.7 1.6-1.8 5-2.3 7.5-.6 2.5-2.2 7.9-3.6 12-6.5 18.9-8.5 25.2-8.5 27 0 1.1-.9 3.7-2 5.7-1.1 2.1-2 4.7-2 5.8 0 1.1-.7 3.3-1.5 4.9-.9 1.6-2.4 6.5-3.6 11-1.1 4.5-2.9 10.2-3.9 12.8-1.1 2.6-2 5.4-2 6.3 0 .9-.6 3.1-1.4 4.8-3.5 8.3-5.6 14.4-5.6 16.5 0 1.2-.7 3.9-1.6 6-2 4.6-3.8 9.9-9.8 28.2-2.6 8-5.3 16.1-6.1 18-.7 1.9-2.5 7.8-4.1 13-1.5 5.2-3.3 10.6-4.1 12-.7 1.4-1.3 3.3-1.3 4.2 0 1-1.6 6.3-3.5 11.9-1.9 5.5-3.7 12.4-4.1 15.2-.3 2.9-1.3 6.2-2 7.4-.8 1.2-1.4 3-1.4 4 0 1.8-7.5 24.1-8.4 25-1.3 1.4-1.5-4.3-.2-9.4.8-3.2 1.9-9 2.4-12.8 1-7.2 3.2-18.3 5.8-29.3.8-3.5 1.7-10 2-14.5.3-4.5 1.2-9.8 1.9-11.7.7-1.9 1.6-6.7 1.9-10.5.5-6.5 1.3-10.6 5.1-28.5.7-3.6 1.7-8.7 2-11.5.4-2.7 1.3-6.2 2.1-7.7s1.4-4.1 1.4-5.8c0-1.7.9-5.2 1.9-7.8 1.1-2.6 3.2-8.8 4.7-13.7 1.5-5 3.4-10.1 4.1-11.5.7-1.4 1.3-3.6 1.3-5s.9-4.5 2-6.9c1.1-2.4 2-5.3 2-6.5 0-1.2.6-3 1.3-4.1.8-1.1 2.3-4.9 3.4-8.5 1.2-3.6 3.5-10.6 5.1-15.5 1.7-5 3.5-10.4 4-12 .6-1.7 1.8-5.3 2.7-8 .9-2.8 1.9-6.4 2.2-8 .2-1.7 1.3-5.3 2.3-8 1-2.8 2.8-8.2 4-12 1.2-3.9 2.8-8.4 3.5-10 .7-1.7 2.3-6.6 3.6-11 1.2-4.4 2.8-9 3.5-10.2.8-1.2 1.6-4.1 2-6.5.3-2.4 1.3-5.3 2-6.5.8-1.2 1.9-4.6 2.5-7.5.7-2.9 1.8-6.2 2.5-7.3.8-1.1 1.4-2.8 1.4-3.8s.6-2.8 1.2-4c.7-1.2 1.8-4.5 2.5-7.2 2.2-9.2 4.9-18 6.1-20.2.7-1.2 1.2-3.1 1.2-4.2 0-1.2.9-3.8 2-5.8 1.1-2.1 2-4.5 2-5.5s.6-3.2 1.4-5c2.2-4.9 6.6-19.3 6.6-21.3 0-.9.6-2.9 1.3-4.3 3.1-6.1 4.6-9.9 5.2-13.2.7-3.8 3.9-14.3 6.2-20 .7-1.9 1.5-5.2 1.6-7.2.2-2.1 1-4.5 1.9-5.5.9-1 1.9-3.8 2.3-6.3.4-2.5 1.2-5.4 1.7-6.4.6-1.1 1.6-4.2 2.3-7 1.5-6.1 3.1-10.6 5.6-16.4 1.1-2.3 1.9-5.4 1.9-6.9 0-1.4.8-4.4 1.9-6.7 1-2.3 2.9-7.5 4.1-11.6 1.2-4.1 3-9.5 3.9-12 1-2.5 2.6-7.4 3.5-11 1-3.6 2.4-7.9 3.1-9.5.7-1.7 1.6-4.6 2-6.5.4-1.9 1.6-5.2 2.6-7.2 1.1-2.1 1.9-5.2 1.9-7 0-1.8.7-4.7 1.6-6.3 2.2-4.2 5.4-14 5.4-16.5 0-1.1.9-3.8 1.9-5.8 1.1-2.1 2.2-5.9 2.6-8.5.4-2.6 1.1-4.9 1.5-5.2.4-.2 1.9-4.4 3.4-9.2 1.6-4.8 3.7-10.7 4.7-13.1 1-2.3 1.9-5.3 1.9-6.5 0-1.2.6-3.4 1.4-4.8.7-1.4 1.6-4.3 2-6.5.4-2.1 1.4-5.1 2.2-6.6.8-1.5 1.4-3.9 1.4-5.4 0-1.5.8-4.1 1.9-5.8 1-1.7 2.1-5 2.5-7.2.3-2.3 1.3-5.4 2.1-7 .8-1.6 1.5-3.9 1.5-5.2 0-1.2.9-3.9 2-5.9 1.1-2.1 2-4.3 2-5 0-1.5 3.9-4.3 5.9-4.3.8 0 3.1 1.1 5.1 2.5zm38.4 2.8c2.8 4.6 4.6 9.5 5.6 14.9.5 2.7 1.6 5.8 2.4 7 .9 1.2 1.6 3.2 1.6 4.3 0 1.1.6 3.2 1.4 4.7.8 1.5 3.6 9.1 6.2 17s6 17.9 7.6 22.3c1.6 4.4 4.1 11.4 5.5 15.5 1.4 4.1 4.1 11.5 5.9 16.5 1.8 4.9 3.8 11 4.4 13.5.7 2.5 1.6 4.9 2 5.5.5.5 2 5.4 3.3 10.7 1.4 5.3 3.2 10.7 4 12 .8 1.3 1.8 3.9 2.2 5.8.4 1.9 1.3 4.4 1.9 5.5.7 1.1 1.6 4 2 6.4.4 2.4 1.3 5.3 2.1 6.4.8 1.2 1.5 3.1 1.5 4.2 0 1.2.5 2.6 1.1 3.2.5.5 1.6 3.2 2.4 5.9 1.8 6.3 8.1 24 10 28.1.8 1.7 1.5 3.7 1.5 4.5 0 .7 1.4 5.1 3.1 9.8 1.7 4.7 3.5 10.1 4.1 12 .5 1.9 1.4 4 1.9 4.6.5.6 1.3 3.5 1.9 6.4.6 3 1.6 6.1 2.4 6.9.7.9 1.6 3.6 2 6 .4 2.4 1.3 5.3 2.1 6.4.8 1.2 1.5 3.4 1.5 5 0 1.5.9 4.5 1.9 6.5 3.2 6.1 5.3 11.5 6.2 15.2 1.9 8.2 4 14.4 5.4 16 .8.9 1.5 3 1.5 4.6 0 1.6.6 4.1 1.4 5.6.8 1.5 2.2 5.3 3.1 8.4.9 3.1 2.8 8 4.2 10.8 1.4 2.8 2.5 6.4 2.5 8.1 0 1.6 1.2 5.5 2.7 8.5 2.1 4.4 3.2 5.6 5.5 6 3.2.5 5 3.7 3.4 5.7-.6.8-3.4 1.3-6.9 1.3-5.3 0-5.9.2-5.9 2.1 0 1.6.4 1.9 1.8 1.4 4.8-2.1 6-1.8 8.5 2.1 1.4 2.2 2.8 5.5 3.2 7.4.4 1.9 1.6 4.9 2.6 6.6 1 1.7 1.9 4 1.9 5.2 0 1.1.7 3.3 1.5 4.8.8 1.6 1.5 4 1.5 5.3 0 1.3 1.1 3.9 2.5 5.7 1.4 1.8 2.5 4.1 2.5 5.1 0 2.3 3.6 12.3 5 13.7.5.5 1 2.8 1 5.1 0 2.2.9 6 2 8.4 1.1 2.4 2 5.6 2 7.2 0 1.7 1.6 6 3.5 9.7 4 7.8 6.9 15.7 8.3 22.7.6 2.7 2.2 8.1 3.7 12 1.5 3.8 3 8.5 3.5 10.3.4 1.9 1.5 4.1 2.4 5.1.9 1 1.6 3 1.6 4.5s.7 4 1.4 5.4c2.4 4.4 5.3 11.7 6.1 15.3.4 1.9 1.4 4.3 2.1 5.4.7 1.1 1.8 4.2 2.4 7 .6 2.7 2.2 7.7 3.6 11.1 1.4 3.5 2.9 8.7 3.4 11.6.5 2.9 1.6 8.6 2.4 12.6.9 4 1.6 8.8 1.6 10.5 0 1.8.7 4.5 1.6 6.2.8 1.6 1.8 5 2.1 7.5.3 2.5.9 4.9 1.3 5.5.4.5 1.1 4.8 1.5 9.5.4 4.7 1.6 10.5 2.6 12.9 1.1 2.4 1.9 6.6 1.9 9.6 0 2.9.7 7.2 1.6 9.6.8 2.4 1.9 7.5 2.4 11.4.5 3.8 1.6 10.1 2.4 14 .9 3.8 1.6 8.1 1.6 9.5 0 1.4.7 3.8 1.5 5.4 2.2 4.1 1.9 5.8-.7 5.4-1.8-.2-2.4-1.2-3-4.4-.3-2.3-1.6-5.9-2.7-8-1.2-2.1-2.1-4.9-2.1-6.2 0-1.3-.7-3.6-1.5-5-.8-1.5-1.9-4.7-2.4-7.2-1.7-7.9-3.3-13.4-5.2-18.2-1.1-2.6-1.9-5.3-1.9-6 0-.7-1.3-4.5-2.9-8.3-1.6-3.9-3.4-9.5-4-12.4-.6-2.9-1.8-6.5-2.6-8-.8-1.4-2.4-5.8-3.6-9.6-1.2-3.9-3-8.8-4-11.1-1.1-2.2-1.9-4.9-1.9-5.9 0-3.4-8.7-29.2-10.1-30.1-.5-.3-.9-1.8-.9-3.3 0-1.6-1.1-5.9-2.5-9.5-1.4-3.7-2.5-7.6-2.5-8.7 0-2.1-.5-3.2-4.8-11.6-1.2-2.3-2.2-5.6-2.2-7.4 0-1.7-1.6-7.2-3.5-12-1.9-4.9-3.5-9.7-3.5-10.6 0-1-.7-3.1-1.6-4.8-.8-1.6-2-5.1-2.5-7.7-.6-2.7-1.8-5.5-2.6-6.4-.9-.8-1.7-2.5-1.8-3.7-.2-1.2-1-4.6-1.9-7.6-.9-3-1.6-6.4-1.6-7.5 0-1-.6-2.7-1.3-3.5-.7-.9-3.5-8.4-6.2-16.6-2.7-8.3-5.5-15.7-6.2-16.6-.7-.8-1.3-2.7-1.3-4 0-1.3-1.4-6.2-3.1-10.9-1.7-4.7-3.7-10.8-4.4-13.5-.7-2.8-1.7-6-2.3-7-.6-1.1-1.5-3.8-2.1-6-.5-2.2-2.3-8-4-12.8-1.7-4.8-3.1-9.4-3.1-10.2 0-.8-.8-3.4-1.9-5.7-2.5-5.9-5.2-13.7-5.8-17.3-.3-1.7-1.1-3.9-1.8-5s-1.5-3.5-1.9-5.3c-.3-1.9-1.5-4.5-2.6-5.9-1.1-1.4-2-3.9-2-5.5s-.6-3.9-1.4-5.1c-.8-1.2-1.7-3.8-2.1-5.7-.7-4.1-10.2-34.3-15-48-3.2-9.1-3.9-11.4-8.6-26-1.1-3.6-2.9-9-4-12.1-1-3.1-1.9-6.2-1.9-6.9 0-.7-.9-3.1-1.9-5.4-1.1-2.3-3.8-10.2-6.1-17.6-2.3-7.4-5.1-15.4-6.1-17.8-1.1-2.3-1.9-5.1-1.9-6.1 0-1.9-3-9.5-5.6-14.3-.7-1.4-1.4-3.7-1.4-5 0-1.2-.9-4.3-2-6.7-1.1-2.4-2-5.3-2-6.5 0-1.2-.9-3.8-2-5.9-1.1-2-2-4.5-2-5.4 0-1-.9-4.2-2-7.1-1.1-2.9-2-6-2-7 0-.9-.7-3-1.5-4.6-.8-1.6-1.8-4.6-2.1-6.7-.4-2.1-1.5-4.6-2.5-5.5-1.1-1-1.9-3.1-1.9-4.8 0-1.7-.7-4-1.5-5-.8-1.1-1.5-3.1-1.5-4.4 0-1.3-.8-4.4-1.9-7-1-2.6-3.1-8.7-4.6-13.5-1.6-4.8-3.2-9-3.6-9.3-.4-.2-1.1-2.6-1.5-5.2-.3-2.6-1.2-5.8-1.9-7.2-2.8-5.5-5.4-12.7-6-16.5-.4-2.1-1.3-5.2-2.2-6.8-2.8-5.5-1-7.8 6.7-8.5.8-.1 2.4 1.3 3.4 3.1zm-22.1 25.5c2.9.2 5.3-.1 6.2-.8 2.4-2 6.4-.4 7 2.8.3 1.5 1 4 1.6 5.7.6 1.6 1.7 5 2.5 7.5 1.4 4.6 4.3 12.6 6.1 17 .6 1.4 1.5 4.7 2.1 7.5 1.1 5.9 2.7 10.5 5.5 16.1 1.3 2.6 1.8 5 1.4 6.6-.5 1.8 0 3.4 1.4 5.2 1.2 1.5 2.3 4.6 2.6 6.9.3 2.3 1.4 5.3 2.3 6.7 1.9 2.8 4.5 10.2 5.9 17 1.1 5.2 3.8 13.4 5.7 17.2.8 1.4 1.4 4.2 1.4 6.1 0 1.9.7 4 1.5 4.7.8.7 1.7 2.8 2 4.9.4 2 1 4.5 1.5 5.6.5 1.1 1.4 3.8 2.1 6 .6 2.2 2 5.1 3.1 6.4 1.5 2 1.8 3.5 1.3 7.6-.6 4.1-.3 5.4 1 6.5 1.9 1.6 5.5 8.7 5.5 10.9 0 .9 1.2 3.8 2.5 6.6 1.4 2.7 2.5 6.1 2.5 7.5.1 1.4.7 3.6 1.5 5s1.4 4.4 1.5 6.6c0 2.3.8 5.2 1.8 6.5 2.8 4 6.1 11.2 6.7 15 .3 2.1 1.2 4.2 2 4.9.8.7 1.5 2.7 1.5 4.4 0 1.7.7 4.4 1.5 5.9s1.7 4.5 2.1 6.5c.3 2 1.5 5.2 2.6 7 1.6 2.6 1.9 4.3 1.4 7.5-.4 2.3-.7 4.6-.6 5.2 1.2 10.5 1.1 14.5-.4 14.5-.9 0-1.6-.8-1.6-1.9 0-2.7-1.7-3.5-6.5-3.3-4.6.3-7-.9-7-3.5 0-2.7-5.1-3-6.7-.4-1.8 2.9-2.5 2.6-4.2-1.4-1.7-4-3.5-5-7.1-4.1-2.9.7-2.4 2.6.6 2.6 1.1 0 1.9.7 1.9 1.6 0 1-.7 1.4-2.2 1.3-1.3-.2-2.9 0-3.5.4-1.9 1.2-3.3-.1-3.3-2.9 0-2.9-1.3-3-5-.4l-2.9 2.1-1.1-2.1c-1.3-2.4-3-2.6-3-.3 0 .9-1.5 3-3.4 4.7l-3.3 3.1-2.6-2.6c-2.3-2.4-2.4-2.8-1.1-4.7 1.3-1.9 1.2-2.2-.7-3.3-1.6-.8-2.8-.8-4.6 0-2 .9-2.2 1.4-1.2 3.2 1.5 2.8-.1 4.3-2.6 2.5-1.6-1.1-1.7-1.7-.7-2.9 1.8-2.1-.3-2.6-10.8-2.7h-10.4c-1.1-.1-3.9 1.8-6.2 4.1-2.4 2.4-4.6 4.1-4.8 3.8-.2-.2-.8-2-1.3-3.9-.8-3.1-1.3-3.5-4.4-3.5-3.3 0-3.4.1-3.4 4 0 3.8-.2 4.1-4.2 5.3-2.4.8-4.3 2-4.3 2.8 0 2.1-4 3.9-5.4 2.4-.8-.9-.8-1.4.2-1.7.6-.3 1.2-1.3 1.2-2.4 0-1.6-.7-1.9-4.2-2-2.4 0-7.4-.2-11.3-.3-3.8-.2-8.7-.4-10.9-.5-4.1-.1-4 .3-2-6 .4-1.4-.1-2-2.6-2.5-4.6-.9-23.1.5-22.3 1.7.3.5 2.1.7 4 .4 2.8-.5 4-.1 5.9 1.8 3 3 3 3.4-.1 6.7-2.2 2.4-3 2.6-10.4 2.6-4.7 0-8.4-.5-9-1.2-.5-.6-.6-2.6-.4-4.4.4-2.6 1.2-3.6 3.4-4.4 3.4-1.2 3.4-1.1 1.3-4.3-2.2-3.4-1.1-12.1 2.6-20 1.5-3.3 3-7.6 3.3-9.5.3-1.9 1.3-5.8 2.2-8.5 1.5-4.7 2.5-7.6 6.9-20 1-2.8 2.2-7 2.6-9.5.8-4.2 2.5-10.2 5.2-17.5.5-1.7 1.6-5.2 2.4-7.9.7-2.6 1.7-5.3 2.2-6 .5-.6 1.2-3.1 1.6-5.5.4-2.4 1.3-5.6 2.1-7 .8-1.4 1.8-4.6 2.4-7.1.8-4 2.1-8.5 6.5-23 .8-2.5 2.1-6.3 3-8.5.8-2.2 1.5-4.9 1.6-6.1 0-1.1.7-2.9 1.5-4 .8-1 1.5-3 1.5-4.4.1-1.4.8-4.3 1.6-6.5.9-2.2 1.9-5.6 2.4-7.5.5-1.9 1.8-6.2 2.9-9.5 1.1-3.3 3.6-11.4 5.6-18 2-6.6 4.2-13.4 4.9-15 1.6-3.7 5.6-17.9 5.6-20 0-.9.8-3.2 1.9-5.3 1-2 2.1-5.7 2.4-8.2.6-5 3.9-8.6 6.6-7.4.9.4 3.8.9 6.4 1.2zm253.3 250.7c-.3.9 0 2.5.6 3.5 1.4 2.2-.2 4.8-2.1 3.6-.7-.5-.9-5.3-.2-8.4.1-.1.6-.2 1.2-.2s.8.7.5 1.5zM671.5 537c1.3 2.4 1.3 3.3.3 5-.7 1.1-1.8 2-2.3 2-1.5 0-3.5-2.1-3.5-3.7 0-1.3 2.9-6.3 3.6-6.3.2 0 1 1.3 1.9 3zm15.2-2.2c1 .6.3 1.9-2.3 4.7l-3.5 3.9-2.6-2.6c-2.7-2.7-2.4-4.8.7-4.8 1 0 2.2-.5 2.5-1 .7-1.2 3.5-1.3 5.2-.2zm10.4.2c1.7 1 2.7 4 1.3 4-1.6 0-4.4-2.3-4.4-3.5 0-1.8.5-1.8 3.1-.5zm15.9-.5c0 .9-5.3 6.5-6.2 6.5-1.9 0-.6-3.6 2-5.2 2.9-1.7 4.2-2.1 4.2-1.3zm13 .5c0 .5-.7 1-1.6 1-.8 0-1.2-.5-.9-1 .3-.6 1-1 1.6-1 .5 0 .9.4.9 1zm9 0c0 .5-.2 1-.4 1-.3 0-.8-.5-1.1-1-.3-.6-.1-1 .4-1 .6 0 1.1.4 1.1 1zm-14 4.5c-.7.8-1.6 1.5-2.1 1.5s-.9-.7-.9-1.5c0-.9.9-1.5 2.1-1.5 1.8 0 1.9.2.9 1.5zm10 .6c0 1.1-.4 1.7-1 1.4-.5-.3-1-1.3-1-2.1s.5-1.4 1-1.4c.6 0 1 .9 1 2.1zm12.8-.9c2 2 1.4 2.8-2.3 2.8-2.2 0-3.5-.5-3.5-1.3 0-2.8 3.6-3.7 5.8-1.5zm12 .5c-.5 2.5-2.8 2.8-2.8.4 0-1.2.6-2.1 1.6-2.1.9 0 1.4.7 1.2 1.7zm-237.1.4c.9.9.8 1.9-.3 4-1.5 3.1-3 3.7-3.6 1.7-.3-.7-1.9-1.1-4.1-1-4.4.3-6.2-2.2-3.2-4.4 2.3-1.7 9.7-1.8 11.2-.3zm237.7 7.2c.8 1.3.6 2.1-.7 3.4-1.7 1.7-1.9 1.7-3.2-.1-1-1.4-1.1-2.4-.4-3.8 1.2-2.2 2.7-2 4.3.5zm-97.4 4.2c0 1-1 1.5-3 1.5-2.9 0-3.8-.9-2.3-2.3 1.3-1.3 5.3-.7 5.3.8zm96.8 3.7c3.1 3.1-1 7.5-4.3 4.8-1.2-1-1.2-1.5.2-3.6 1.7-2.7 2.4-2.9 4.1-1.2zm-40 4.5c.5 1.7-2.6 2.9-4 1.5-.6-.6-.7-1.5-.3-2.2.9-1.4 3.7-.9 4.3.7z"/>
  <path d="M447.2 536.9c-1 .6-.6 1.5 1.7 3.9 3.4 3.7 5.1 4.1 5.1 1.1 0-4.7-3.4-7.2-6.8-5zM477.2 540.7c.4 3.6 3.3 3.9 3.3.3 0-1.6-.6-2.6-1.8-2.8-1.5-.3-1.8.2-1.5 2.5zM462 539.9c0 .6.5 1.3 1 1.6.6.3 1-.1 1-.9 0-.9-.4-1.6-1-1.6-.5 0-1 .4-1 .9zM248 1018c0 3.2 1.9 4 3.9 1.6 1.5-1.8.3-4.6-2-4.6-1.4 0-1.9.7-1.9 3z"/>
</svg>
