<svg xmlns="http://www.w3.org/2000/svg" id="Слой_1" viewBox="0 0 1000 568.1">
  <g opacity=".16">
    <path d="M435.3 346.9v-61.4L379.4 311l19.1 20zM446.9 251.8v96.7l28.9 13.7zM87.5 357.2l34.6-30.6-5.2-177.9 17.7-16.1H212l24.3-11.5-1.5-32.9L184 48.3l-89.2 57.5L2 359.5l23.6 26.1 78.1 21.4-50.1.8 84.7 46.8h95.1l28-34.5h-36.2zM430.2 125V57.6c0-1.4.6-2.7 1.6-3.7l19.9-17.8c1.7-1.5 4.2-1.5 5.9-.1l26.7 22.3h35.3L546.3 36c1.7-1.5 4.2-1.4 5.9.1l20 17.9c1 .9 1.6 2.3 1.6 3.7V125l9.1-12.1V37.3L544.8 2h-85.6l-38 35.3V113l9 12z"/>
    <path d="M106.2 353.4l119 54.2h76.4l-88.3-91.4h-55.9zM568.7 346.9l36.8-15.9 19.1-20-55.9-25.5zM472.9 268h58.2l58.9-79.1 6.2-69.3-5.7-1.3-17.8 23.6c-1.2 1.6-3.3 2.3-5.2 1.6-1.9-.7-3.1-2.5-3.1-4.6v-79L549 46.2l-25 20.9c-.8.7-1.8 1.1-2.9 1.1h-38.6c-1.1 0-2.1-.4-2.9-1.1l-25-20.9-15.4 13.7V139c0 2.1-1.3 3.9-3.1 4.6-.5.2-1 .3-1.5.3-1.4 0-2.7-.7-3.6-1.8l-17.8-23.6-5.7 1.3 6.2 69.3 59.2 78.9z"/>
    <path d="M346.2 287.4h-67.5l-50.5 23.7 87.9 89.8 65 153.6h65.2l50.9-27.6V387.3l-107.4-48.4zM897.8 353.4l-51.2-37.2h-55.9l-88.3 91.4h76.4zM631 570.1h18.4l61.3-67.3 17.2-82h-32.5z"/>
    <path d="M1002 359.5l-92.8-253.7L820 48.3l-50.8 39.9-1.5 32.9 24.3 11.5h77.4l17.7 16.1-5.2 177.9 34.6 30.6-137.7 62.9h-36.2l28 34.5h95.1l84.7-46.8-50.1-.8 78.1-21.4zM557.1 348.5v-96.7l-28.9 110.4zM540.5 273.4L502 316.2l-38.5-42.8 27.9 96.5 10.6 6.5 10.6-6.5z"/>
    <path d="M775.8 311.1l-50.5-23.7h-67.5l-43.6 51.5-107.4 48.4v139.6l50.9 27.6h65.2l65-153.6zM276.1 420.8l17.2 82 61.3 67.3H373l-64.4-149.3z"/>
  </g>
  <path d="M433.3 344.9v-61.4L377.4 309l19.1 20zM444.9 249.8v96.7l28.9 13.7zM85.5 355.2l34.6-30.6-5.2-177.9 17.7-16.1H210l24.3-11.5-1.5-32.9L182 46.3l-89.2 57.5L0 357.5l23.6 26.1 78.1 21.4-50.1.8 84.7 46.8h95.1l28-34.5h-36.2zM428.2 123V55.6c0-1.4.6-2.7 1.6-3.7l19.9-17.8c1.7-1.5 4.2-1.5 5.9-.1l26.7 22.3h35.3L544.3 34c1.7-1.5 4.2-1.4 5.9.1l20 17.9c1 .9 1.6 2.3 1.6 3.7V123l9.1-12.1V35.3L542.8 0h-85.6l-38 35.3V111l9 12z" class="st1"/>
  <path d="M104.2 351.4l119 54.2h76.4l-88.3-91.4h-55.9zM566.7 344.9l36.8-15.9 19.1-20-55.9-25.5zM470.9 266h58.2l58.9-79.1 6.2-69.3-5.7-1.3-17.8 23.6c-1.2 1.6-3.3 2.3-5.2 1.6-1.9-.7-3.1-2.5-3.1-4.6v-79L547 44.2l-25 20.9c-.8.7-1.8 1.1-2.9 1.1h-38.6c-1.1 0-2.1-.4-2.9-1.1l-25-20.9-15.4 13.7V137c0 2.1-1.3 3.9-3.1 4.6-.5.2-1 .3-1.5.3-1.4 0-2.7-.7-3.6-1.8l-17.8-23.6-5.7 1.3 6.2 69.3 59.2 78.9z" class="st1"/>
  <path d="M344.2 285.4h-67.5l-50.5 23.7 87.9 89.8 65 153.6h65.2l50.9-27.6V385.3l-107.4-48.4zM895.8 351.4l-51.2-37.2h-55.9l-88.3 91.4h76.4zM629 568.1h18.4l61.3-67.3 17.2-82h-32.5z" class="st1"/>
  <path d="M1000 357.5l-92.8-253.7L818 46.3l-50.8 39.9-1.5 32.9 24.3 11.5h77.4l17.7 16.1-5.2 177.9 34.6 30.6-137.7 62.9h-36.2l28 34.5h95.1l84.7-46.8-50.1-.8 78.1-21.4zM555.1 346.5v-96.7l-28.9 110.4zM538.5 271.4L500 314.2l-38.5-42.8 27.9 96.5 10.6 6.5 10.6-6.5z" class="st1"/>
  <path d="M773.8 309.1l-50.5-23.7h-67.5l-43.6 51.5-107.4 48.4v139.6l50.9 27.6h65.2l65-153.6zM274.1 418.8l17.2 82 61.3 67.3H371l-64.4-149.3z" class="st1"/>
</svg>
