<svg xmlns="http://www.w3.org/2000/svg" viewBox="0 0 240 240"><path d="M76 207c0 7.9 6.4 14.4 14.4 14.4s14.4-6.4 14.4-14.4-6.4-14.4-14.4-14.4S76 199.1 76 207zm8 0c0-3.5 2.8-6.3 6.3-6.3s6.3 2.8 6.3 6.3-2.8 6.3-6.3 6.3-6.3-2.8-6.3-6.3zM31.5 207c0 7.9 6.4 14.4 14.4 14.4S60.3 215 60.3 207s-6.4-14.4-14.4-14.4c-7.9 0-14.4 6.5-14.4 14.4zm8.1 0c0-3.5 2.8-6.3 6.3-6.3s6.3 2.8 6.3 6.3-2.8 6.3-6.3 6.3-6.3-2.8-6.3-6.3zM142.1 91c-1.8-.7-3.8-1.1-5.7-1.8 0 0-.1 0-.1-.1 0 .5 0 1-.1 1.5.2.2.3.5.3.9.2 3.2-1.1 6.3-2.6 9.1-.1.2-.2.3-.3.4l-.2 1.1H8.5c-2.4 0-4.7 1.1-6.2 3s-2.1 4.3-1.6 6.7l11.2 54.5c.8 3.7 4.1 6.4 7.9 6.4H119l-2.4 11.5H20.4c-2.2 0-4 1.8-4 4s1.8 4 4 4h96.1c3.8 0 7.1-2.7 7.9-6.4l16.5-80c-.5-5 .1-10 1.2-14.8zm-21.5 73.6H19.7L8.5 110.1h123.3l-11.2 54.5z"/><path d="M217.6 28.9c-5.8 1.2-14.2 4.2-16.7 5.8-3.2 2.1-6.5 6.5-8.5 11.6-1.2 2.9-1.7 3.6-3.2 4.5-1 .5-1.9.8-2.1.5-.2-.2.4-1.3 1.3-2.4 2.1-2.6 3.9-6.3 4.6-9.7.5-2.4.9-2.9 3.1-4.6 1.4-1.1 4-2.9 5.9-4.1 1.9-1.2 3.3-2.2 3.2-2.4-.5-.7-10 4.4-12.5 6.6-.8.7-2.8 2-4.4 2.8-4.2 2.3-7.7 6.6-9.7 12.1-.9 2.3-1.6 4.7-1.6 5.1 0 .5-.8 1.5-1.8 2.2-2.5 1.9-3.5 1.7-1.9-.4 1-1.3 3.1-8.1 3.2-10.4.1-1.6.5-2.4 3.1-5.3 1.7-2 4-4.4 5.1-5.5 1.2-1.1 2.1-2.1 1.9-2.2-.3-.4-5.9 4.1-8.9 7.2-1.5 1.5-3.6 3.4-4.7 4.2-4.9 3.5-9.4 11.3-10 17.7-.2 2.3-.5 3.1-1.6 4.3-1.4 1.5-2.2 1.9-2.2 1 0-.3.2-.7.3-.9.6-.8 1.6-5.7 1.7-8.8.1-3 .3-3.5 2.7-7.5 1.4-2.4 3.5-5.5 4.5-7 3.3-4.8 1.5-3.3-2.6 2.1-2.2 3-5.9 7.6-8.2 10.3-2.3 2.7-4.6 6-5.1 7.3-1.4 3.2-2.5 8.2-2.6 11.5-.1 2.5-.3 2.9-2 4.9-.9.9-2.4.2-2.3-1.1v-.4c.5-4.5-.5-12.6-2.1-17.4-1.8-5.3-2.5-5.8-1.3-.9 1.9 7.3 2.3 11.5 1.5 18.1-.5 4.2-1 6.4-2 8.6-.7 1.7-1.5 2.9-1.6 2.7-.2-.1-.3-3-.2-6.4.1-5.2 0-6.6-.8-8.7l-.9-2.6.2 3.4c.1 1.9 0 6.1-.2 9.5-.3 7.1-1.1 10-3.6 13.6-4.4 6.6-5.8 10.1-4.6 11.6 1.2 1.3 2.5 0 5.8-5.7 6-10.4 7.4-12.6 9.4-15.4 1.2-1.5 3.1-4 4.1-5.6 1.1-1.5 4.2-4.7 7-7 2.7-2.3 6.1-5.4 7.4-6.7 1.3-1.4 4.1-3.4 6.1-4.6 2-1.2 4.8-3 6.3-4.1 1.4-1.1 3.7-2.5 5-3.1 1.3-.6 5.2-2.3 8.7-3.9 3.5-1.6 8.2-3.5 10.4-4.3 3.9-1.3 4.1-1.4 6.5-.4 1.4.6 4.2 1.2 6.4 1.5 3.4.5 4.3.4 6.8-.6 1.6-.6 3.5-1.7 4.3-2.4 1.5-1.3 1.8-1.3 8.5-1.2 8.1.3 7.9-.4-.6-1.7-3.2-.5-7-1.4-8.5-2.1-3-1.3-7.7-1.7-11.2-.8-1.1.2-3.4 1.4-5 2.6-1.8 1.3-3.7 2.3-4.9 2.3l-1.9.2 1.1-1c2-1.8 5.2-6.2 6.6-9.4l1.2-2.6c.1-.3.4-.6.7-.7l3.4-1.3c9.6-3.2 10.6-4 4-2.5z"/><path d="M197.7 53.2c-1.8.6-3.2 1.2-3.2 1.5 0 .7 2.8 3.5 6 5.7 3.5 2.5 7.9 3.2 12.8 2 1.8-.4 5-.8 7.1-1 2.2-.1 5.1-.5 6.5-.9 2.5-.6 2.4-.6-4.3-.8l-6.4-.1c-.4 0-.7-.2-.9-.4l-1.8-1.9c-4.7-4.7-9.7-6-15.8-4.1z"/><path d="M184.6 59.1c-2.7 1.1-5.1 2.3-5.1 2.8 0 .8 5.1 4.6 8.1 6 2.9 1.3 2.9 1.3 7.8.6 2.7-.4 6-.7 7.3-.6 3.6.1 12.4-1.3 11.6-1.9-.4-.3-.9-.4-1.1-.2-.2.2-2.9.2-5.9.1l-5-.2c-.3 0-.6-.1-.8-.3l-2.9-2.4c-5.3-4.3-9.7-5.5-14-3.9z"/><path d="M172.7 66.9c-1.9.5-6 3-6 3.7 0 .7 2.8 2.9 5.9 4.4 3.7 1.8 6.4 2 11.1.7 1.9-.5 4.4-1 5.5-.9 1.9.1 12.1-2.1 12.6-2.6.4-.4-3-.4-7.8.1l-4.1.5c-.3 0-.6 0-.9-.2l-4.5-2.8c-5.3-3.5-7.6-4-11.8-2.9zm-12 10.4c-1.1.4-3.2 1.6-4.6 2.7-2.3 1.9-2.5 2.2-1.8 2.9 4.5 4.6 14.5 4.8 19.6.3.8-.6 2.6-1.2 4.7-1.5 1.9-.3 5-.9 6.8-1.4 2.8-.8 3.1-1 1.6-1.1-.9-.1-3.9.1-6.5.3-4.7.4-4.9.4-8-1.1-3.6-1.8-8.2-2.2-11.8-1.1zm-10.8 11.1l-1.1 1.1 1.6-.3c1.9-.3 5.4 1.1 7.2 3 1.5 1.5 2.7 4.6 2.8 7 .1 3.6-.3 4.8-1.9 7-1.8 2.4-1.7 2.8.2 1.1 2.8-2.4 3.7-9.5 1.8-13.7-.5-1.1-1.9-2.9-3.1-4-2.6-2.5-5.7-3-7.5-1.2z"/></svg>