<svg xmlns="http://www.w3.org/2000/svg" version="1" viewBox="0 0 563 720">
  <path d="M433.9 5.5c-1.4.7-3.7 3.6-5.2 6.3-3.5 6.5-3.8 16.8-.6 22.1l2 3.4-9.2 16.1c-18.4 32.2-47.7 80.6-71.4 118-17.2 27.1-65.5 97.6-74.4 108.5l-3.5 4.3-2.3-2.8c-43.3-53.2-96.1-123.6-131.8-175.8-10.9-16-29.3-43.7-32.6-49.1-1.8-3.1-2.3-5.1-2.1-8.7.8-10.1-5.3-21.8-12.2-23.6-7.5-2-23.9 5.4-33.5 15.1-10.3 10.5-14.2 17.8-12.2 23 2.4 6.3 15.9 14.7 24 14.7l4.6.1 13 16.6c7.2 9.1 15.7 20.1 19 24.4 29.3 38.2 34.7 45.4 56.3 75.4 6.3 8.8 12.8 17.8 14.4 20 1.6 2.2 4.4 6.2 6.3 9 1.9 2.7 7.1 10.4 11.6 17 11.8 17.3 36.8 54.8 42.4 63.5 2.6 4.1 6.1 9.5 7.6 11.9 1.6 2.5 2.9 5.3 2.9 6.4 0 1.5-7.8 14.6-10 16.7-.3.3-2.8 3.9-5.5 8s-10 14.7-16.2 23.5c-6.2 8.8-12.2 17.3-13.3 19-7.3 10.5-22.5 31.3-28 38.5-3.6 4.7-11.5 15.2-17.5 23.5-6 8.2-11.2 15.2-11.5 15.5-.3.3-1.7 2.1-3 4-1.4 1.9-2.8 3.9-3.3 4.5-.8 1.1-9.4 13.1-14.2 20-1.6 2.3-5.9 8.4-9.5 13.4-3.6 5.1-7 10.1-7.6 11.1-.6 1.1-1.8 2.8-2.6 3.7-.9 1-8.9 12.8-17.9 26.3-9 13.5-16.7 24.9-17.2 25.5-.8 1-10.3 15.7-16.5 25.5-1.9 3-4.8 7.4-6.3 9.7-1.6 2.3-2.9 4.5-2.9 4.9 0 .4-1.1 2.1-2.3 3.8-1.3 1.7-6.7 10.1-11.9 18.6-5.2 8.5-10.9 17.5-12.6 20-6.1 9.2-7.5 14-7 24.7.4 8.5.8 10.6 3.5 15.9 5.5 10.6 15.6 17.6 27.9 19.3 8.5 1.2 14.8.1 22.7-4.1 7-3.7 17.4-13.8 22.8-21.8 11.6-17.4 31.5-48 45.4-70 5.6-8.8 22.4-36.8 25.5-42.3 1.2-2.1 5.4-9.3 9.4-16 4-6.7 10.5-18.1 14.4-25.2 4-7.2 8.3-14.8 9.5-17 3-5.2 19.8-35.7 24.1-43.7 1.8-3.5 4.6-8.6 6.1-11.3 1.5-2.8 5-9.3 7.8-14.5 6.2-11.7 37.4-68.8 43-78.7 2.2-4 4.4-7 4.9-6.7 1 .6 35.9 53.2 41.7 62.9 2.3 3.8 8.2 13.5 13.1 21.5s10.1 16.5 11.5 19c1.4 2.5 4.1 7 6 10 1.8 3 5.7 9.8 8.6 15 2.9 5.2 6.2 11.1 7.4 13 1.2 1.9 4.8 7.8 8 13s6.8 11.1 8 13c1.2 1.9 6.4 10.2 11.5 18.5 5.1 8.2 10.7 17.2 12.5 20 1.7 2.7 5.1 8.1 7.6 12 9.3 14.7 42.2 63.4 47.2 69.8 1.7 2.1 5.1 6.9 7.6 10.6 2.5 3.7 5.4 7.8 6.4 9.1 1 1.4 5.1 7 9.1 12.5 7 9.6 13.1 16 20.7 21.8 15.3 11.6 43.2 4.2 51.9-13.7 2.6-5.6 5-14 5-18.1-.1-7.1-6.7-25.2-12.3-33.5-1.6-2.5-8.4-12.6-15.1-22.5-31.9-47.6-67.7-95.4-110.6-147.5-5.7-6.9-12.2-14.7-14.4-17.5-3.6-4.3-9.2-10.8-32.5-37.5-9.9-11.3-41.5-49.2-47.2-56.5-2.9-3.9-5.9-7.5-6.5-8-.6-.6-5.7-7.2-11.4-14.8l-10.4-13.8 5.2-10.2c4.9-9.6 9.4-18.2 22.2-42.2 2.9-5.5 5.9-10.7 6.6-11.6.8-.8 1.4-1.8 1.4-2.2 0-.7 3.5-6.8 22-38.7 8.3-14.3 19.3-32.8 22.5-38 1.2-1.9 3.9-6.4 6-10 3.6-6.2 5-8.5 10.7-17.5 4.4-7 19.3-30.6 20.3-32.2 10.3-16.6 24.9-39.4 26.8-41.8.4-.6 4.3-6.2 8.6-12.5 5.9-8.7 8.4-11.6 10.2-11.8 9.5-1.2 15.8-5.8 20.1-14.8 3.2-6.5 1.5-11-7.3-19.5-12.8-12.4-33.5-20-42-15.4zm11.6 3.7c3 1.3 5.5 2.6 5.5 3 0 1.1-2.4 1-3.5-.1-.6-.5-3.2-1.9-6-3-2.7-1.1-4.2-2-3.3-2 1-.1 4.2.9 7.3 2.1zm0 3.5c9.3 3.8 15.5 7.5 15.5 9 0 .8-.3 1.3-.7 1.1-.5-.2-6.3-3.1-13-6.6-15.7-8-16.5-9.6-1.8-3.5zm14.5 1.9c0 .2-1.3-.2-3-1.1-1.6-.9-3-1.8-3-2.1 0-.2 1.4.2 3 1.1 1.7.9 3 1.8 3 2.1zm4 12.1c3.6 1.9 7.1 4 7.9 4.6.8.7 2.6 1.8 4 2.5l2.6 1.2-3-.6c-1.6-.3-3.7-1.2-4.6-2-.9-.8-1.8-1.1-2.1-.8-1.2 1.2-29.1-14.8-32-18.3-1.2-1.5 6 2.1 27.2 13.4zm7-3.6c0 1.1-18-8.2-18-9.3 0-.3 4.1 1.4 9 3.9 5 2.4 9 4.9 9 5.4zm-36.5-1.6l1.8 3-2.5-2.5c-1.4-1.4-2.9-3.6-3.3-5-.7-2.4-.6-2.4.8-.5.7 1.1 2.2 3.3 3.2 5zm15.8 2.4c10.2 6.2 12.3 8.1 9.4 8.1-2.1 0-17-9.6-20.2-13.1-3.5-3.8-3.3-3.7 10.8 5zm-13.9 3c-.5.6-7.4-5.1-7.4-6.1 0-.6 1.7.5 3.8 2.3 2.1 1.9 3.7 3.6 3.6 3.8zm3.7-5.3c2.4 2.9 20.8 13.1 24.8 13.8 2.2.3 4.2 1 4.5 1.5.3.4-1.4.5-3.7.1-2.3-.5-4.5-.6-4.9-.4-1.5 1-13.3-6.2-18.8-11.3-3-2.9-5-5.2-4.4-5.3.6 0 1.7.7 2.5 1.6zm31.6 4.8c7.2 4.3 10.2 6.5 8.6 6.6-1 0-8-3.3-12.3-6-.8-.5-2.3-1.1-3.3-1.4-1.8-.6-1.5-2.6.3-2.6.5 0 3.5 1.5 6.7 3.4zm6.8.6c.3.6.3 1-.2 1-1.1-.1-4.3-2.6-4.3-3.4 0-.9 3.7 1.1 4.5 2.4zm-43.4 1c1.5 1.2 5 2.7 7.6 3.6 2.6.8 6.6 2.6 8.8 4l4 2.5-3.5-.6c-1.9-.4-4.3-1.4-5.2-2.2-.9-.8-2.1-1.2-2.7-.9-1.6 1-8.3-2.2-10.8-5.1-3.5-4-2.8-4.5 1.8-1.3zM80.4 29.1c-1 1.2-4.7 4.4-8.2 7.2-3.8 2.9-5.9 5.3-5.3 5.7 1.1.6-.7 2.3-14.9 13.9l-5.5 4.5 4.5-4.7c4.4-4.7 4.7-6.6.3-2.5-1.3 1.2-2.5 1.9-2.9 1.6-.3-.3.2-1.2 1.1-1.9.9-.8 2.8-2.4 4.2-3.7 3.4-3.1 13.7-11 19.6-15.1 2.6-1.7 4.7-3.8 4.7-4.6 0-.7.6-1.6 1.3-1.8 2.6-1.1 2.9-.6 1.1 1.4zM91 27.5c0 1-3.5 4.2-5.3 4.8-.9.4-1.6 1.2-1.5 1.8.2.6-1.6 2.1-3.9 3.3-2.3 1.1-4.5 2.8-4.8 3.6-.6 1.6-24.5 20.2-26.7 20.8-1.8.4 2.8-3.6 23.1-20.4C87.8 28.3 91 26 91 27.5zm349.6 9.4c.7.8 2 1.2 3.3.8 1.3-.3 4.4.1 6.9.9 2.6.7 6.2 1.4 8 1.4 1.7 0 3.2.5 3.2 1 0 1.6-14.5.4-20-1.5-4.2-1.5-11-5.2-11-6 0-.2-.3-1.1-.7-2.1-.5-1.3.4-1.1 4.3 1.2 2.7 1.5 5.4 3.5 6 4.3zm26.5-3.1c-.7.2-1.8-.1-2.3-.6-.8-.8-.4-.9 1.3-.5 1.3.4 1.8.8 1 1.1zM91.2 38.2C87.5 46.4 75.1 57 63.4 62c-7 3-7.6 2.4-1.1-1.3 7.3-4.1 15.9-11.5 15.1-12.9-.4-.6-.3-.8.3-.5.6.4 4.1-2.7 7.8-6.9 3.7-4.1 6.9-7.3 7.2-7 .3.2-.4 2.4-1.5 4.8zm6.8-.1c1.4 3.4 1.5 4.1.7 8.1-.6 3-5.7 12.1-6.4 11.5-.2-.3.5-2 1.6-3.8 1.2-1.9 2.1-4.6 2.1-6.2 0-1.5.5-2.7 1-2.7.6 0 1-.7 1-1.5s-.5-1.5-1.1-1.5c-.6 0-.9-.7-.6-1.5.4-.8.2-1.7-.3-2-1.2-.8-1.3-3.5-.1-3.5.5 0 1.4 1.4 2.1 3.1zM474.5 36c1.3.6 1.5.9.5.9-.8 0-2.2-.4-3-.9-1.8-1.2-.2-1.2 2.5 0zM72 39.5c-1.3 1.4-2.8 2.5-3.4 2.5-.6-.1.3-1.2 1.9-2.5 3.9-3.2 4.5-3.2 1.5 0zm7.2 3.8c-3.4 3.5-6 6.6-5.7 6.9 1.1 1.1-12.3 10.8-15 10.8-1.8 0 1.2-2.3 5.9-4.5 2.9-1.4 6.1-3.5 7.2-4.7 1.4-1.5.6-1.3-2.8 1-2.6 1.8-5.3 3.2-6.2 3.2-.8 0-3.6 1.8-6.1 4-3.9 3.4-6.5 4.9-6.5 3.7 0-.3 14.5-11.8 29-23.1 7-5.4 7.1-4.2.2 2.7zm365.3-1.1c1.4.6.9.7-1.9.4-2.2-.3-4.4-1-5-1.6-1.2-1.2 3.1-.5 6.9 1.2zm-8.1 2.2c.8 1.3 5.1 4.1 9.5 6.2 4.4 2.2 8 4.2 8.1 4.5.1 2-22.8 2.5-27.3.6l-2.7-1.2 4-6.7c4.3-7.1 5.6-7.6 8.4-3.4zm17.4-.7c-1 .2-2.8.2-4 0-1.3-.2-.5-.4 1.7-.4 2.2-.1 3.2.1 2.3.4zM94 46.4c0 1.4-.4 2.8-1 3.1-.5.3-1.4 2.4-2 4.5-.6 2.2-1.5 4-2.1 4-.6 0-.9-.6-.6-1.3.3-.6 1.3-3.8 2.3-6.9 2-6.1 3.4-7.5 3.4-3.4zm374-2c0 .2-.9.6-2 .9-1.1.3-1.8.1-1.4-.4.5-.9 3.4-1.3 3.4-.5zm-412 1c0 .2-.7.7-1.6 1-.8.3-1.2.2-.9-.4.6-1 2.5-1.4 2.5-.6zm417 .6c-.8.5-1.9 1-2.5 1-.5 0-.3-.5.5-1s2-1 2.5-1c.6 0 .3.5-.5 1zm-9 2c0 .5-1.7 1.2-3.7 1.5-2.1.3-4.5.8-5.4.9-.9.2-2.3 0-3-.5-1.2-.7-1.1-.9.1-1 3.5-.1 8.4-1 8.8-1.4.9-.9 3.2-.5 3.2.5zm4 3c-.8.5-2.2.9-3 .9-1 0-.8-.3.5-.9 2.7-1.2 4.3-1.2 2.5 0zM88.3 52.7c-1.5 4-7.4 12.3-8.8 12.3-2.3 0-1.8-1.6 1.3-4.2 1.5-1.3 3.6-4 4.7-6.1 2-3.8 4-5.2 2.8-2zm14.4 12.7c-.6 4.9-6.3 17.3-11 24-2.3 3.3-1 4.2-10-7.3L76.9 76l5.9-2.8c7.4-3.6 13.6-8.6 16.4-13 1.8-3 2.2-3.2 3.1-1.7.5 1 .7 4.1.4 6.9zM429 59.2c1.9.6 8.3.8 14.3.5 5.9-.2 10.7-.3 10.7 0 0 .2-2.6 4.2-5.7 8.8-6 8.8-7.3 9.7-17.1 11-4.5.6-15.8-1-18.3-2.5-1.2-.8-1.1-1.5.8-4.7 1.2-2.1 3.6-6.4 5.4-9.6 2.4-4.3 3.6-5.6 4.8-5.1.9.3 3.2 1.1 5.1 1.6zM74.7 63.8c-2 2-5.1 4.6-6.9 5.6-2.4 1.4-1.6.3 2.7-3.7 6.7-6.3 9.9-7.7 4.2-1.9zM87 60.7c0 .5-1.1 2.1-2.5 3.7-3.1 3.6-3.3 2.6-.3-1.4 2.3-3.1 2.8-3.5 2.8-2.3zm25.4 12.6c3.1 4.6 5.6 9.2 5.6 10.3-.1 3.8-6.8 21.4-9.6 25.1l-2.8 3.6-3.3-3.9c-1.9-2.1-5.2-6.2-7.5-9.1l-4-5.3 2.4-2.9c2.9-3.4 11.3-19.4 12.2-23.4.3-1.5.8-2.7 1-2.7.2 0 2.9 3.7 6 8.3zm-34.6-5.1c-.3.7-1.9 2-3.7 3l-3.3 1.9L73 70c2.1-2.9 5.6-4.2 4.8-1.8zm-8.3 3.3c-3.9 3.2-5.5 3.2-1.8 0 1.5-1.3 3.3-2.4 3.8-2.4.6 0-.3 1.1-2 2.4zm343.2 8.7c1.5.6 8.1 1.4 14.7 1.7l11.8.6-5.2 7.7c-5.9 8.8-7.9 9.8-18.7 9.8-6.3 0-16.3-1.7-16.3-2.8 0-.5 10.3-18.1 10.7-18.2.1 0 1.4.5 3 1.2zM126.9 94.6c5.1 7.3 5.3 7.9 4.6 12.3-1.4 9.5-8.3 24.1-11.4 24.1-1 0-13.1-15.6-13.1-16.8 0-.5 1-1.7 2.1-2.8 2.5-2.2 7.3-12.1 9.5-19.3.8-2.8 1.8-5.1 2.2-5.1.4 0 3.2 3.4 6.1 7.6zm288.9 9.1l9.3.8-4.3 6.7c-2.7 4.1-5.3 7.1-7 7.7-5.3 1.9-26.8 0-26.8-2.4 0-.3 1.2-2.4 2.7-4.8 1.4-2.3 3.7-5.9 4.9-7.9l2.3-3.6 4.8 1.3c2.6.8 9 1.8 14.1 2.2zm-271.5 16.6c1.4 2.1 1.6 3.7 1.1 6-.4 1.8-.8 3.4-.9 3.7-1.2 6.4-8.3 20-10.4 20-.4 0-3.4-3.6-6.5-8l-5.8-8 3-3.7c2.4-3.2 6.9-13.2 9.6-21.7.6-1.9 3 1 9.9 11.7zm258.9 2c5.4.1 9.8.4 9.8.6 0 1.8-10.9 17.1-12.5 17.5-6 1.6-26.5-.3-26.5-2.4 0-.5 1-2.5 2.3-4.4 1.2-1.9 3.7-5.9 5.5-8.9l3.4-5.6 4.1 1.5c2.5.9 8.3 1.6 13.9 1.7zm-249.6 11.4c2.7 4.3 3.5 6.4 3.1 8.7-1.2 7.5-4 16.4-6.6 20.9l-2.9 4.9-4.3-5.8c-2.4-3.3-5.2-6.8-6.1-7.8-1.7-1.8-1.6-2.1 1.3-5.4 3.2-3.6 7.2-11.8 8.9-18.3.6-2.2 1.5-3.7 2.1-3.4.5.4 2.5 3.2 4.5 6.2zm227.3 9.3c2.9.5 8.5 1 12.4 1 6.6 0 6.9.1 5.5 1.7-.8 1-2.6 3.9-4.1 6.4-2.8 4.9-5.2 6.3-12.4 7.3-4.8.7-17.5-.3-19.3-1.4-.9-.6-.2-2.5 2.6-7.1 5-8.5 6.4-10 8.3-9.4.9.2 4 .9 7 1.5zm-215.2 7.7c2.7 3.8 5.3 7.4 5.7 8.1 1.4 2.4-4.9 19.2-9.7 25.6-1.3 1.8-1.7 1.4-7-5.7-6-8.1-6.6-9.7-4.3-11.6 1.8-1.5 7.2-14.3 8.1-19.4.4-2 1.1-3.7 1.5-3.7.4 0 3 3 5.7 6.7zm212.1 11.6c5.6 0 10.2.2 10.2.4 0 .3-1.6 3.1-3.5 6.3-3.1 5-4.1 5.9-8.2 7.1-4.9 1.4-24.6 2-25.8.7-.4-.4 1-3.5 3.1-7 5.9-9.7 5.9-9.8 10.2-8.5 2 .5 8.3 1 14 1zm-198.1 7.6l4.2 5.8-1.3 4.4c-2.3 7.3-7.7 20.3-9 21.7-1.1 1.1-2.2.1-6.5-5.7l-5.2-7.2 4-6.7c2.2-3.7 4.9-9.3 6.1-12.5 1.2-3.1 2.4-5.7 2.8-5.6.4 0 2.6 2.6 4.9 5.8zm15.4 21c1.4 2.2 1.4 2.9-.7 8.5-2.7 7.2-6.6 15.3-8.8 18.1-1.6 2-1.6 2-3.6-.5-2.6-3.2-8-11-8-11.5 0-.3 1.4-2.7 3-5.4 1.7-2.7 3.9-7.3 4.9-10.2 1-3 2.4-6.6 3.1-8.1l1.3-2.7 3.6 4.7c2 2.6 4.3 5.8 5.2 7.1zm182.5-10.3c-.2.6-2 3.6-4 6.7-2.7 4.2-4.5 5.9-6.9 6.5-4.5 1.3-22.7.8-25.4-.6l-2.2-1.2 3.1-4.8c5.5-8.2 4-7.7 20.7-7.7 10.4 0 15 .3 14.7 1.1zM348.5 197c4.4.4 10.4.6 13.3.3 2.8-.2 5.2-.1 5.2.3s-1.4 2.9-3.1 5.5c-2.8 4.4-3.5 4.9-8.7 6-7.4 1.5-25.2.2-25.2-1.9 0-.4 1.6-3.4 3.6-6.5 2.7-4.4 4-5.7 5.3-5.1.9.3 5.2 1 9.6 1.4zm-144.2 5.7l4.4 5.8-1.7 5.7c-2 6.5-8.3 17.4-11 18.8-1.5.8-2.4.3-4.8-2.8-5.6-7.2-5.7-7.6-1.8-14 1.9-3.1 4.7-8.7 6.3-12.4 1.5-3.7 3.1-6.8 3.5-6.8.4 0 2.7 2.6 5.1 5.7zm125.1 8.1c1 1.6-10.2 22-20.5 37.7-5.8 8.8-12.3 18.9-14.4 22.5-3.7 6.2-9.4 15.1-16.2 25-8 11.6-28.3 43.2-31.6 49-2 3.6-5.9 9.6-8.7 13.5-2.7 3.8-10.4 15.1-17.1 25-6.7 9.9-12.5 18.2-12.9 18.5-1.1.8-6.2 9.1-8.1 13.2-2.7 5.8-6.2 10-7 8.6-.5-.7-1.1-.9-1.6-.5-.4.5-.1 1.2.7 1.7 1.1.7.9 1.5-1.1 4.7-1.4 2.1-3.6 5.4-4.8 7.3-5.3 8.6-13.3 20.8-22.4 34.4-5.4 8.1-10.1 15.5-10.4 16.4-.4.9-2.5 4.6-4.8 8.2-2.3 3.6-6.1 10.1-8.6 14.5-5 9.2-5.2 9.4-10 16.6-1.9 3-5.1 8.1-7.1 11.4-1.9 3.3-5.5 9.3-7.9 13.3-2.4 4-5.7 9.7-7.4 12.6-1.6 2.9-6.4 9.6-10.5 15.1-10.9 14.3-11.9 15.6-14 20-1.1 2.2-5.2 8-9.1 13-3.9 4.9-8.8 11.9-10.9 15.5-2.1 3.6-6.6 9.9-9.9 14-3.3 4.1-6.8 9-7.6 10.8-.9 1.8-3.7 6.3-6.2 10-2.6 3.7-5.5 8.6-6.5 10.9-1.6 3.7-3.3 5.7-4.8 5.8-1 .1-5 4-5 4.8 0 .5.7.6 1.6.3 1.5-.6 1.5-.5 0 1.6-.9 1.3-2.8 4-4.2 6.1-1.4 2.2-2.8 3.6-3.1 3.3-.3-.3.2-1.7 1.1-3 .9-1.4 1.6-3 1.6-3.6 0-1.4-2.5-.8-2.5.6-.1 1.6-2.4 5-2.5 3.5 0-.8 1.4-3.9 3-6.8 1.7-3 2.8-5.8 2.5-6.3-.4-.7 7.4-14.1 13.6-23.2 1.1-1.5 1.9-3.3 2-4 0-.7 2.2-4.5 4.9-8.3 4.8-6.9 13.5-19.8 23.5-35 2.8-4.2 7.5-11.4 10.5-15.9 10.6-16 11-16.5 16.5-26.1 2.2-3.9 7.4-11.6 11.5-17.1 22.9-30.9 30.6-42.4 36.2-53.5 6.9-13.8 9.8-19 14.5-26.1 2.4-3.7 6.5-10.2 9.1-14.6 4.2-7.1 15.5-24.1 24.1-36.2 1.7-2.5 5.7-8.1 8.9-12.6 3.1-4.4 9.3-13.2 13.8-19.5 23.2-32.7 46.2-68.2 54.5-83.9 4.4-8.4 8.1-14 30.3-46 10.1-14.6 21.7-31.3 25.6-37.3 7-10.3 8.3-11.7 9.4-9.9zm8.6 1.9c.4.4-3.7 8.3-9.5 18.3-1.8 3-5.6 9.5-8.5 14.5-7.4 12.8-17.9 28.3-19.6 28.9-.8.3-1.4 1.4-1.4 2.5 0 1-1.3 3.3-3 5.1-1.6 1.8-3 3.8-3 4.5 0 1.4-22.4 35.3-24.4 37-.7.5-1.5 1.7-1.8 2.5-.3.9-3.2 5.6-6.4 10.5-3.3 4.9-6.9 10.5-8 12.6-1.2 2-4.1 6.3-6.6 9.5-2.4 3.3-6.4 9-8.8 12.9-4.8 7.4-14.9 21.8-17.5 24.7-.8 1-1.5 2.3-1.5 2.9 0 1-8.6 14.9-9.9 15.9-2.8 2.2-11 14.9-16.1 24.8-4 7.9-7.1 13.2-17.5 29.8-8.3 13.2-9 14.5-15.3 26.4-7.2 13.8-11.3 20.6-19.1 31.5-6.1 8.6-10.2 14.5-21.5 31.5-2.7 4.1-7.6 11.2-10.8 15.7-3.2 4.4-5.8 9-5.8 10 0 2.1-15 23.4-26 37-.6.7-1 1.6-1 2.1s-2.5 4.4-5.6 8.7c-3.1 4.3-8.4 12.6-11.9 18.4-3.5 5.8-8.2 13-10.4 16-2.2 3-4.3 6.3-4.7 7.4-1 3.1-11.4 18.7-12.5 18.7-1.1 0 3.9-10.3 5.2-10.8.5-.2.9-.8.9-1.3 0-1.5 14-24.2 16.6-27 2.9-3.1 3.2-4.9.3-2.3-2 1.8-10.3 14.9-20.4 32.1-4.2 7.2-6.5 9.9-6.5 7.7 0-1.2 11.7-20.9 18.7-31.5 6.2-9.3 9.4-14.5 17.7-28.4 3.6-6.1 9.3-14.4 12.7-18.5 3.3-4.1 7.4-10 8.9-13 2.6-4.9 11.6-17.3 19.8-27 1.6-1.9 3.7-5.2 4.5-7.2.9-2 3.3-6.3 5.5-9.5 2.1-3.2 6-9.6 8.6-14.3 2.6-4.7 5.9-10.4 7.4-12.6 3.8-5.9 8.5-13.7 25.2-42.2 7.3-12.3 24.1-37.2 25.9-38.1.9-.5 1.3-1.2.9-1.6-.3-.4 2.9-6.1 7.3-12.8 4.3-6.7 10.2-16.2 13-21.1 2.8-5 5.8-9.6 6.5-10.4.8-.7 6.3-8.6 12.2-17.5 6-8.9 13.5-19.8 16.6-24.2 3.2-4.4 7.6-11.1 9.9-15 2.2-3.8 6.1-10.1 8.6-13.9 2.5-3.8 5.1-7.7 5.6-8.6.6-1 2.2-3.5 3.6-5.6 1.4-2.2 7.8-11.8 14.1-21.4 6.3-9.6 14.6-22.5 18.3-28.5 6.9-11.4 9.4-15.2 14.3-22 4.6-6.3 11.5-18.2 15.8-27.3 3.8-8.1 3.9-8.2 6.9-7.6 1.6.3 3.2.8 3.5 1.1zm7.4 1.7c-.3.8-1.6 1.7-3 2-2.3.6-3.4 2.6-1.4 2.6.6 0 1 .4 1 .9 0 1.3-5.7 10.4-12.2 19.8-3.2 4.5-5.8 8.8-5.8 9.5 0 .7-3 6.2-6.6 12.3-3.7 6-9.9 16.6-13.9 23.5-3.9 6.9-8.9 15.4-11.1 18.9-2.1 3.5-5.6 9.5-7.7 13.5-7.3 13.6-19.6 31.4-28.2 40.6-4.2 4.6-5.3 6-10.6 14.2-1.7 2.7-3.6 4.8-4.3 4.8-1.4 0-4.1 4.8-3.7 6.7.1 1.1-1.9 4.6-11.5 19.4-2.3 3.6-5.9 9.6-7.9 13.3-7.8 14.5-25.7 44.9-32.4 55.1-10.9 16.7-15.9 24.1-22.6 33.5-8.3 11.8-29.1 41.8-43.7 63.2-5.4 7.9-12.1 18.7-14.9 24.2-5.5 10.6-7.8 14.4-19.4 32.1-4 6-9.8 15-13 20-3.1 4.9-7.4 11.2-9.5 14-5.2 6.7-13.1 20.7-25.7 45.3-2.2 4.2-3.9 6.6-4.1 5.7-.2-.9.8-3.4 2.2-5.5 3.3-5 3.3-6.4 0-2.5-1.5 1.6-2.4 2.2-2.1 1.3.3-.9.1-1.8-.5-2-.7-.3-.9-1.4-.5-2.9.9-3.3 8.6-15.3 9.4-14.5.3.3-.1 1.4-1 2.4-1 1-1.7 2.5-1.7 3.3.1 1 .5.8 1.6-.6.8-1.1 1.9-1.9 2.4-1.8.5.2 2.3-2.3 4.1-5.5 1.8-3.1 5.4-9 8.1-13 6.5-9.7 6.7-10.2 2.9-9.7-3.4.4-3.8-.1-1.7-3 .7-1.1 2.6-4.3 4.2-7 1.5-2.8 4.7-7.7 7.1-11 2.3-3.3 6.1-9.1 8.4-12.9 2.3-3.8 4.7-7.6 5.5-8.5 12.7-15.7 21.4-27.9 21.4-30.2 0-1 1.5-4.1 3.3-6.7 1.7-2.7 9.2-13.8 16.6-24.8 7.3-10.9 14.1-20.8 15.1-21.9 4.4-5 13.6-19.6 19.7-31.3 6.7-13 14.5-26.2 24.1-41.2 3-4.7 7.7-12.8 10.5-18 4.5-8.7 10.8-18.5 19.1-30 1.8-2.5 6.7-9.9 11-16.5 11.3-17.5 15.3-23 16.5-22.7.6.1 1.1-.7 1.1-1.9 0-2.1 3.3-7.3 11-17.4 2.5-3.3 6.8-9.8 9.4-14.3 2.7-4.6 5.5-8.6 6.2-8.9.8-.3 1.4-1 1.4-1.7 0-.9 12.6-20.6 18-28.1.8-1.1 2.4-3.6 3.5-5.4 1.1-1.8 7.4-11.5 14-21.5s13.1-20 14.3-22.2c1.3-2.1 3.3-5.5 4.5-7.4 3-4.7 11.1-19.3 14.4-25.8 2.4-4.7 3.1-5.2 6-5.2 2.4 0 3.1.4 2.7 1.4zm4.6.5c-1.1 2.1-3 3.7-3 2.5 0-.8 3-4.4 3.7-4.4.2 0-.1.9-.7 1.9zm-135 6.7c0 .3 1.4 2.3 3 4.4 1.7 2.1 3 4.4 3 5.2 0 .7.8 1.8 1.8 2.5 1.5.9 9.9 12.5 17.2 23.8.9 1.3 2.6 3.7 3.9 5.4 6.4 8.3 21.1 30.8 21.1 32.2 0 .9-.6 2.1-1.3 2.7-1 .9-2.2 0-5-3.7-2-2.6-3.7-5.5-3.7-6.4 0-.9-.6-2-1.4-2.4-2.5-1.4-7.7-8.6-7.2-10 .3-.7-.4-1.9-1.6-2.7-1.1-.8-1.7-1.9-1.3-2.5.3-.6-.3-1.5-1.5-1.9-1.1-.4-2.8-1.9-3.8-3.4-.9-1.4-3.3-5-5.3-7.9-3.1-4.7-7.1-11.9-16.4-29.6-1.3-2.3-3.2-5.5-4.4-7.1-1.1-1.7-2.1-3.8-2.1-4.8 0-1.3.8-.8 2.5 1.8 1.4 2 2.5 4 2.5 4.4zm1.3 8.9c11.4 20.5 16.2 28.3 23.7 39 4.6 6.6 8.7 12.2 9 12.5 1.5 1.5 12 18.2 12 19.2 0 .7-1 2.6-2.3 4.2l-2.3 2.8-5-5.8c-7.8-9.3-14-17.6-19.1-25.7-2.7-4.2-7.5-11.5-10.7-16.4-3.2-4.8-6.9-10.4-8.1-12.3-7.2-11.5-10.5-17.1-10.5-18 0-.5 1.2-3.2 2.8-5.9l2.7-5 2.2 2.7c1.3 1.5 3.8 5.4 5.6 8.7zm121.2 3.5c-8.7 13.2-13.1 18.3-7.9 9.4 6.2-10.8 15.8-24.7 16.2-23.6.2.7-3.5 7.1-8.3 14.2zm12.6-7.9c-1.2 1.9-2.1 3-2.1 2.6 0-1.4 3.1-6.9 3.6-6.4.3.3-.4 2-1.5 3.8zM228 234.6c2.9 4.1 5 7.7 4.7 8-.2.2-2.4-2.6-4.9-6.3-5.2-7.8-6.1-9.3-5.5-9.3.3 0 2.8 3.4 5.7 7.6zm112.3.6c-3.3 5.7-10.9 15.9-8.7 11.8 2.5-4.8 11.7-19.1 12-18.7.3.2-1.2 3.4-3.3 6.9zm-126.4 15.6c14 21.9 28.7 43.1 35 50.8 5.6 6.7 6.1 7.5 6.1 8.9 0 2.3-2.3 3-3.4 1-.6-1-2.3-3.2-3.7-4.9-2.5-3-9.9-13.5-21.9-31.2-18.4-27.2-22.6-33.2-25.2-35.8-1.5-1.7-2.8-3.5-2.8-4.1 0-1.6 2.1-3.4 3.4-2.9.6.3 6.2 8.4 12.5 18.2zm-7.2-1.3c1.8 2.7 5.7 8.4 8.6 12.5 4.7 6.6 24.5 35.9 27.2 40.1.6.9 2.7 4 4.8 7 3.6 5.2 4.6 7.9 2.9 7.9-.9 0-12.2-16.2-12.2-17.4 0-.3-.6-1.4-1.4-2.3-1.3-1.6-30.6-45-36.5-54.1l-2.4-3.7 2.8 2.5c1.5 1.4 4.3 4.7 6.2 7.5zm122.3 2.7c-1.1 1.8-2.6 4.3-3.2 5.5-.6 1.3-1.5 2.3-2 2.3-.4 0 .8-2.5 2.8-5.5 2-3 3.9-5.5 4.1-5.5.3 0-.5 1.5-1.7 3.2zm5.6-.4c-1.8 1.6-1.8 1.6-.6-.6.6-1.3 1.4-2.1 1.8-1.8.3.4-.2 1.4-1.2 2.4zm-3.2 4.4c-.5.7-4.3 6.1-8.5 12s-9.8 14.1-12.4 18.2c-2.6 4.2-5.4 7.6-6.2 7.6-1.4 0-1.3-.3.1-2.3.9-1.2 2.3-3.6 3.2-5.2 2.3-4.1 10.1-14.9 14.5-19.9 1.9-2.2 4.8-5.8 6.3-7.9 2.7-3.5 4.6-5.1 3-2.5zm-86.6 4.4c-.4.3-1.2-.5-1.8-1.8-1.2-2.2-1.2-2.2.6-.6 1 1 1.5 2 1.2 2.4zm72.8 5.2c-1.8 1.6-1.8 1.6-.6-.6.6-1.3 1.4-2.1 1.8-1.8.3.4-.2 1.4-1.2 2.4zm-61.4 9.7c1.4 2.7-.1 1-4.1-4.5l-3.3-4.5 3.2 3.5c1.7 1.9 3.6 4.4 4.2 5.5zM315 270c-.6 1.1-1.3 2-1.6 2-.2 0 0-.9.6-2s1.3-2 1.6-2c.2 0 0 .9-.6 2zm4.1 7.3c-1 .9-1.1.8-.5-.6.3-1 .9-1.5 1.2-1.2.3.3 0 1.1-.7 1.8zm2.9-.3c-.6 1.1-1.3 2-1.6 2-.2 0 0-.9.6-2s1.3-2 1.6-2c.2 0 0 .9-.6 2zm-7.4 7.7c-10.3 18.2-19.3 31.9-20.4 30.9-.3-.3.1-1.4 1-2.3.8-1 4.8-7.2 9-13.8 4.1-6.6 8.7-13.9 10.2-16.3 3.8-6.1 4-5.1.2 1.5zM298.3 306c-2.6 4-7 10.7-9.8 15-2.7 4.2-8.2 11.9-12.1 17.1-3.8 5.2-8.7 11.9-10.7 14.9s-4.5 6.6-5.6 8c-1.1 1.3-1.7 2.9-1.4 3.4.3.5.1.6-.5.2-.6-.4-1 .1-1 1.1.1 1.6-6.2 12.7-15 26.8-1.4 2.2-3.7 5.8-5.1 8-3.5 5.6-20.5 28.4-20.9 28-1-.9 21.4-35.8 32.3-50.5 8.2-11 9.2-12.6 7.8-11.7-.6.4-5 6.1-9.9 12.7s-9.3 12-9.7 12c-.4 0 .6-1.9 2.3-4.3 1.7-2.3 5.2-7.4 7.7-11.2 2.6-3.9 6.8-9.6 9.3-12.8 2.5-3.2 5.2-6.9 6-8.1.8-1.2 3.6-4.7 6.1-7.7 2.6-3 5-6.4 5.4-7.7.3-1.2 1.7-3 3.1-3.8 1.3-.9 2.4-2.2 2.4-3 0-2 5.3-10.4 6.6-10.4.7 0 1.4-1 1.6-2.3.2-1.2 3.8-7.4 7.9-13.7 5.5-8.5 7.5-10.9 7.7-9.4.2 1.3-1.7 5.1-4.5 9.4zm-45.4 14.7c-3.1 5.5-12.6 20.1-20 30.6-1.9 2.7-5.2 7.7-7.4 11-3.7 5.7-6.5 9.8-21.3 31.2-2.7 3.8-8.1 11.5-12.1 17-3.9 5.5-11 15.7-15.6 22.6-4.6 6.9-9.1 13.2-10 13.9-.8.7-1.5 1.6-1.5 2.1 0 .4-3 5.8-6.7 11.9-12.2 19.9-13 21.4-19.8 34.5-3.8 7.1-10 17.4-13.9 22.9-3.9 5.4-9.5 13.3-12.4 17.5-3 4.2-8.2 11.4-11.7 16.1-3.4 4.7-8.6 12.5-11.5 17.5-2.9 4.9-5.9 9.9-6.6 11-1.7 2.5-7.2 10.7-10.7 16-1.4 2.2-4.2 6.2-6.2 9-1.9 2.7-5.6 8.4-8.1 12.5-5.6 9.2-8.3 13.3-12.4 18.5-1.7 2.2-8.6 12.3-15.3 22.5-6.6 10.2-12.9 19.1-13.8 19.8-1 .7-1.6 1.9-1.3 2.6.3.8 0 1.7-.7 2.2-1.6.9-.6-13.4 1.1-16.6 1.2-2.3 12.7-17.7 14.6-19.8.7-.6 3.4-4.7 6-9 2.7-4.2 6.5-10 8.5-12.7 2-2.8 4.3-6.4 5.2-8 .8-1.7 5.7-8.7 10.9-15.5 5.1-6.9 12.7-18.1 16.7-25 7.5-12.7 13.7-22.3 19-29.5 6.5-8.9 16.1-23.4 19.9-30.1 2.2-4 5.7-9.6 7.9-12.5 2.2-3 7.5-11.3 11.8-18.4 10.5-17.3 22.1-33.8 43.7-62 .4-.6 2.9-3.9 5.5-7.5s7-9.7 9.8-13.5c2.9-3.9 7.1-9.7 9.3-13 2.3-3.3 10.5-15 18.2-26 7.7-11 18.4-26.6 23.7-34.8 5.3-8.1 9.8-14.7 10-14.7.3 0-1 2.6-2.8 5.7zm37.2 3c-1.7 3-5.1 6.9-5.1 5.9s4.8-7.6 5.6-7.6c.3 0 0 .8-.5 1.7zm2.8 5.3c-1.8 2.2-3.4 4-3.6 4-.8 0 5.2-8 6-8 .4 0-.7 1.8-2.4 4zm15.5 13.8c3.8 6.2 6.6 11.5 6.3 11.8-.2.3-1.9-1.9-3.7-4.8-1.8-2.9-5.5-8.7-8.2-12.9-2.6-4.1-4.8-7.9-4.8-8.4 0-1.9 3.9 3.4 10.4 14.3zm-23.2-7.6c-3.1 4.5-11.4 13.9-9 10.3 2.8-4.5 11.3-15.3 11.6-15 .2.2-1 2.3-2.6 4.7zm13.4-1.5c-.4.4-1.1.1-1.6-.7-1.6-2.5-1.1-3.5.7-1.7.9.9 1.3 2 .9 2.4zm-1.3 3.6c1 1.8 1.7 4 1.5 4.7-.2.8.5 1.4 1.7 1.5 1 0 2.5 1.1 3.1 2.3.6 1.3 1.7 2.9 2.3 3.5.6.6 1.1 1.7 1.1 2.3 0 .7 1.1 2.5 2.5 4s2.5 3.2 2.5 3.9c0 .7.9 2 2 3s2 2.1 2 2.6c0 .8 7.1 12.7 10.2 17.1 1.1 1.6 1.5 2.8.9 2.8s-1.1.5-1.1 1.1c0 .6.7.9 1.5.5 1.6-.6 4.6 3.6 14.5 20.4 2.5 4.1 5.4 8.9 6.5 10.6 1.1 1.7 5.8 9.1 10.5 16.3 4.7 7.2 12.1 17.6 16.5 23.1 4.5 5.4 9.9 12.5 12 15.7 2.2 3.2 8.8 12 14.7 19.6 6 7.6 11.1 14.9 11.4 16.2.3 1.4 1.3 2.5 2.3 2.5 2 0 12.5 13.8 12.4 16.1-.1 1 .6 1.9 1.6 2.2 1.6.4 4.9 4.9 21.1 29.2 18.5 27.8 25 37.1 37.8 53.8 2.3 3.1 4.2 6 4.2 6.5 0 .8 3.4 5.6 16.2 23 1.5 2 2.7 4.4 2.8 5.3 0 .9.9 1.9 2 2.2 1.2.3 2 1.4 2 2.7 0 1.1.4 1.9.9 1.5 1.4-.8 2.1.9 1 2.5-.8 1.3-1.1 1.3-1.8 0-1.6-2.7-4.6-5.5-7.6-7.2-1.7-.9-3.1-2.6-3.3-3.7-.2-1.1-.9-2.1-1.7-2.3-1.6-.3-20.8-25.8-22.7-30-.7-1.6-1.6-2.8-2-2.8-.3 0-2.7-2.9-5.2-6.4-2.5-3.6-5.2-7-5.8-7.8-1.7-1.8-6.7-8.3-10-13.3-1.5-2.2-6.8-8.9-11.8-15-7.6-9.2-23.4-31.9-29-41.6-.8-1.5-4.5-6.6-8.2-11.5-3.7-4.9-10.2-14.5-14.5-21.4-4.3-6.9-11.8-17.8-16.8-24.3-9.8-12.8-16.9-22.8-27.1-38-3.6-5.3-6.8-9.7-7.1-9.7-1.1 0 10.5 17.2 27.1 39.8 7.7 10.6 15.6 21.7 17.5 24.5 6.7 10.1 22.2 33.3 26 38.7 2.1 3 7.4 10.8 11.7 17.4 4.3 6.5 11.6 16.6 16.1 22.5 27.4 35.5 47.3 62.3 47.3 63.6 0 .8.9 1.9 1.9 2.5 1.1.5 2.3 2 2.6 3.2.4 1.3 1.7 3.4 3 4.8 2.1 2.4 4.5 6.2 4.5 7.4 0 .3-.8.2-1.7-.1-1.6-.6-1.6-.4.1 2.2 1.1 1.7 4 5.7 6.6 9 4.9 6.3 6.3 8.5 5.8 8.5-.2 0-2.2-2.4-4.3-5.2-5-6.7-11.1-13.1-9.6-10.2.5 1.2 2.6 4 4.6 6.4 2 2.4 6.3 8.2 9.7 13.1 5.3 7.6 6.2 8.6 7.5 7.3.8-.8 1.2-2.2.8-3.4-1.1-3.5.9-2.1 4.8 3.3 2 2.9 7.6 9.2 12.5 14.1 4.8 4.8 7.8 8.4 6.6 7.8-2.6-1.4-15.6-14-17.6-17.1-1.1-1.9-1.9-2.3-3.4-1.6-1.8.8-1.8.9.4 1.2 1.2.3 2.7 1.4 3.3 2.6.6 1.2 4.1 5.2 7.7 8.9 3.7 3.8 6 6.8 5.2 6.8-.8 0-4.5-3.1-8.2-7-3.7-3.8-6.9-7-7.1-7-.1 0-.3.9-.4 2-.1 1.1.3 2 1 2 .6 0 3.5 2.5 6.4 5.5 2.9 3 5 5.5 4.5 5.5-.4 0-2.8-2-5.2-4.5-4.1-4.2-7.8-6.4-5-3 .7.9 1.1 1.8.8 2.1-1.1 1-10.7-10.9-10.6-13.1.3-2.7-3.8-9.7-12.1-20.8-6.6-8.8-8.8-10.8-7.1-6.1 1.3 3.4 1.3 3.9-.5 2.4-1.9-1.6-12.5-15.6-12.5-16.6 0-.3-3.1-4.3-6.9-8.8-10.3-12.2-15.4-19-23.1-30.6-3.8-5.8-10.4-15.2-14.7-21-10.9-14.6-16.5-22.7-19.8-28.5-1.6-2.8-6.8-10.4-11.6-17-12.4-17.2-21.5-30.8-24-35.7-1.2-2.4-4-7-6.3-10.2-2.3-3.2-6.9-10-10.3-14.9-3.4-4.9-7-9.9-8-11.1-2.7-3.2-10.3-14.8-17.3-26.5-3.4-5.7-7.5-12.5-9.1-15-1.6-2.4-2.9-5.3-2.9-6.3s-.4-1.8-.9-1.8c-.8 0-9.1-12.2-9.1-13.5 0-.4-.9-1.9-1.9-3.4-1.1-1.5-1.9-3.6-1.8-4.6.1-1.1-.3-1.9-1-1.8-1.1.2-10.3-13.4-10.3-15.2 0-.5-.6-1.6-1.4-2.4-.8-.9-2.8-4.1-4.3-7.1-3.1-5.8-5.1-9.2-9-15.1-1.2-1.9-2.3-4.2-2.3-5 0-3.2 11.1 12 27.6 37.9 3.2 5.1 8.2 12.3 11.1 16 2.9 3.7 7.3 9.7 9.8 13.4 4.4 6.5 8.9 11.1 5.3 5.5-1-1.5-2.6-3.9-3.5-5.5-.9-1.5-4.7-6.5-8.4-11.2-6.3-8-9.9-13.3-22.2-32.8-2.8-4.6-7.3-11.3-10-14.8-8.2-11.3-8.6-12.9-4.4-18.2 1.4-1.8 2.1-1.5 4 2.1zm6.7 4.6c0 1.1-.7.7-2.4-1.4-1.3-1.6-2.2-3.4-1.8-3.9.7-1.2 4.2 3.1 4.2 5.3zm12 9.1c2.3 3.8 3.9 7.4 3.5 8-.3.5.8 3 2.6 5.5 2.7 3.7 3 4.7 1.9 6-.7.9-1.7 1.4-2.1 1.3-1.3-.5-16.9-26.8-15.9-26.8.5 0 1.5 1 2.1 2.2 3 5.6 14.1 21.8 15 21.8.5 0-1.1-2.8-3.6-6.2-4.3-6-5.6-8.6-3.5-7.3 1.6 1 1.2-.1-2-5.5-1.6-2.8-3-5.3-3-5.5 0-1.4 1.2.2 5 6.5zm-36.6-3.8c-.4.7-2.8 4.4-5.4 8.3-4.5 6.7-20.2 30.5-38 57.7-6.3 9.7-8.6 12.5-9.6 11.7-.8-.7-1.5-.6-2 .2-.4.7-.2 1.5.4 1.7.7.2 1.2.8 1.2 1.3 0 .6-.4.8-.9.5-1.3-.9-3.2 1.9-2.5 3.7.8 2.1-8.2 15.8-10.8 16.5-1.1.3-1.7 1-1.4 1.8.6 1.6-8.7 17.2-11.6 19.5-1.2.9-1.8 2.1-1.4 2.7.7 1.2-1.7 5.9-9 17.3-2.4 3.6-7.7 13.2-11.9 21.5-4.2 8.2-8.3 15.2-9.1 15.7-.8.5-1.2 1.2-.9 1.7.3.5-.5 2.6-1.8 4.7s-3.8 6.7-5.6 10.2c-1.8 3.5-6.1 10.2-9.5 15-3.4 4.7-9.7 14.2-14.1 21.1-9.3 14.8-10.8 16.9-11.7 17-1.9 0-.3-3.6 5.4-12.2 16.7-25.3 21.2-31.9 22.4-32.9.8-.6 1.4-1.8 1.4-2.5s2.9-6.9 6.4-13.6c8.8-16.9 9.9-18.8 11.4-18.8.6 0 1.3-.9 1.3-2 .2-3 .3-3.3 2.4-6.5 1-1.7 3.3-5.3 5-8 1.7-2.8 4.4-7.1 6.1-9.6 4-6.3 9.9-18.1 10.9-21.9 1.3-5 19.9-35.6 27.2-44.6 2.2-2.8 7.6-10.3 11.9-16.5 4.3-6.3 10-14.7 12.8-18.8 2.8-4.1 5.6-8.1 6.1-8.9.6-.9 4.1-6.3 7.9-12.1 3.9-5.8 9.2-13.2 11.9-16.4 4.8-5.5 6.6-7.1 5.1-4.5zm17.7 17.8c1.6 3 4.6 8.2 6.6 11.5 2 3.2 3.7 7.1 3.8 8.5 0 1.4.7 2.5 1.4 2.5 1.1 0 11.6 16.1 23.2 36 7.8 13.3 17.4 28 38.4 58.6 6.1 8.9 12.5 18.7 14.3 21.8 1.9 3.1 3.9 6.3 4.7 7.1.7.8 10.4 15 21.5 31.5s24.2 35.8 29.1 43c4.9 7.1 8.9 13.6 8.9 14.3 0 .7 4.9 7.6 10.9 15.4 6.1 7.8 10.7 14.6 10.4 15.1-.3.5.6 2.1 1.9 3.5 1.3 1.5 3.2 4 4.2 5.5.9 1.5 2.1 2.5 2.6 2.2.5-.3 1.7.7 2.7 2.2 5.1 7.9 21.2 30.5 25.2 35.3 6 7.1 9.3 10.5 16.3 16.4 3.6 3 5.5 5.3 5.1 6.2-.4 1.2-1.1 1.1-4-.6-1.9-1.1-4.1-2-4.8-2-4.2 0-36.5-35.6-35.7-39.4.1-.7-.6-1.6-1.7-1.9-1.1-.2-4.7-4.2-8.1-8.8-6.5-8.9-15.5-20.9-18-23.9-8.4-10.1-14.5-19.1-19.9-28.8-7.4-13.7-12.2-21.3-26.3-41.8-15.3-22.2-18.6-27.1-20.6-31-1.2-2.3-5-8.4-8.4-13.5-6-8.9-11.2-17.2-27.3-43.4-3.7-6.1-8.5-13.6-10.7-16.9-6.2-9-14.7-22.7-16.3-26.4-.9-1.8-4.2-6.9-7.5-11.5-3.3-4.5-8.1-11.4-10.6-15.2-2.6-3.9-9.7-13.8-16-22.1-6.3-8.3-11.4-15.7-11.4-16.4 0-.7 1-2.9 2.2-4.8l2.2-3.6 4.4 5c2.4 2.7 5.7 7.4 7.3 10.4zm-21.5-7.6c-.8 1.4-1.4 3.1-1.1 3.8.6 1.5-3.3 8.3-4.2 7.4-.3-.3.2-1.5 1.2-2.6s1.6-2.3 1.3-2.6c-.5-.4-8.8 11.1-8.8 12.3 0 .2.5.1 1-.2 1.7-1.1 1.1.3-3.5 7.7-4.6 7.3-5.4 9.5-3.3 8.2.7-.4.8-.3.4.5-.4.6-1.1.9-1.6.6-.9-.6-7.4 9.4-6.6 10.2.2.3 1.2-.9 2-2.5.9-1.7 2.1-3.4 2.7-3.7.6-.4-.7 2.5-2.8 6.3-2.1 3.9-3.9 6.7-4.1 6.2-.2-.5.2-1.9.8-3 .6-1.2.9-2.4.7-2.7-.3-.3-1.5 1.5-2.8 3.9-3.4 6.7-9.1 15.8-10 15.8-.4 0 1.2-3.3 3.5-7.3 11.3-19 14.1-23.7 18.6-30.7 5.2-8 6.1-10.1 3.3-7.9-1.5 1.2-1.4.9.2-1.7 6.4-10.1 14-21.2 14.4-20.9.2.3-.4 1.6-1.3 2.9zm17.5 20.3c5.4 7.2 12.3 16.7 15.2 21 2.9 4.3 7.7 11.3 10.7 15.5 3 4.2 7.5 11.2 9.9 15.5 2.5 4.3 8.1 13.4 12.6 20.3 9 13.9 9.8 15.2 22.9 36.5 5.1 8.3 11.9 19.1 15.2 24.1 3.2 4.9 6.8 10.6 7.9 12.6 1 2 4.8 8 8.5 13.2 21.7 31.7 30.7 45.6 37.6 58.1 4.2 7.7 9.9 16.8 12.6 20.1 2.6 3.4 4.8 6.7 4.8 7.3 0 .6.4 1.1.8 1.1 1.9 0 20.2 24.8 20.2 27.4 0 .9.6 1.6 1.3 1.6 1.8 0 14.7 17.4 14.7 19.9 0 1.2.5 1.9 1.3 1.6.6-.2 4.8 3.5 9.2 8.3 8.5 9.3 20.9 20.1 27.8 24.2l4.2 2.5-3.3.3c-7.5.7-19.1-5.4-25.2-13.4-1.9-2.5-6.2-7.9-9.5-11.9-3.3-4.1-7.6-9.5-9.5-12.2-1.9-2.6-6.6-8.9-10.5-13.8-7.5-9.6-13-19.2-11.3-19.7.5-.2 0-1.5-1.2-2.8-1.6-1.8-2-2-1.6-.7 1.5 4.7-5.4-4.4-13.7-18.1-3.7-6.1-12-18.2-20.9-30.6-2.4-3.3-6.3-9.1-8.7-13-2.4-3.8-4.9-7.5-5.6-8.2-1.3-1.3-12.3-17.8-28.6-42.9-4.7-7.2-12.4-18.9-17.2-26.2-4.8-7.3-8.7-13.6-8.7-14.1 0-.6-1.8-3.1-4-5.8-2.1-2.6-5.3-7.3-7-10.3-4.8-8.6-9.5-16.5-13.3-22.3-1.9-2.9-6.6-10.5-10.5-16.8-10.2-16.4-21.4-34.2-31.2-49.3-10.8-16.6-10.8-16.6-8.1-14.2 1.3 1.1 6.7 7.9 12.2 15.2zm34.3-5.1c.9.3 1.6 1.6 1.6 2.9 0 1.3.7 2.6 1.6 2.9 1 .4 1.3 1.3.9 2.6-.5 1.5 0 2.3 1.9 3.1 2.4 1.1 10.2 12.8 18 27.1 2 3.7 5.7 9.1 8.2 12 2.5 2.9 6.1 7.5 7.9 10.3 1.9 2.7 5.7 8.1 8.4 12 2.8 3.8 5.8 8.3 6.7 10 1 1.6 3.8 5.5 6.4 8.5 2.5 3 6.8 8.9 9.5 13s7 10 9.6 13c2.5 3 8.6 11.6 13.5 19 7.8 11.6 24.5 34.3 27.9 37.6.5.6 3 3.7 5.3 7 6.4 8.9 17.3 24 21.2 29.4 13.7 18.7 35.1 46 38.9 49.4 1.2 1.1 2.1 2.4 2.1 2.9s-1.8-1.1-4.1-3.7c-2.2-2.5-4.5-4.6-5.1-4.6-.5 0-1.8-1-2.9-2.3l-1.8-2.2-.1 2.2c0 1.2.4 2.4.9 2.8.9.5 4.3 6.5 3.7 6.5-.2 0-4.1-4.8-8.7-10.8-4.6-5.9-9.2-11.7-10.2-12.9-4-4.6-18.3-25-36-51.3-18.4-27.3-31.5-45.8-38-53.5-1.9-2.2-3.7-5.3-4.1-6.8-.4-1.9-1.2-2.7-2.1-2.4-.8.4-3.6-2.4-7.5-7.6-3.3-4.5-10-13.4-14.7-19.7-4.7-6.3-10.2-13.5-12.3-16-5.5-6.7-19-26.9-19-28.5 0-.7-1.2-2.6-2.7-4.2-1.6-1.7-5.7-7.9-9.2-13.9-3.6-6-9.6-15.5-13.4-21.2-5.7-8.4-6.7-10.5-5.7-11.7 1.4-1.7 1.3-1.7 3.4-.9zm20.3 23.6c2.4 3.1 4.7 6 5.3 6.3.6.4.8 1.6.5 2.8-.2 1.2-.2 1.6.1.9.4-1 1.1-.7 2.2 1 .9 1.3 2 2.7 2.4 3.3 3.4 4.4 8.3 11.4 13.1 18.7 3.1 4.8 6.1 9 6.7 9.3 1.8 1.1 1 2.5-1.2 2.1-1.6-.2-4.8-3.9-10.5-12.2-4.5-6.5-8.5-12.5-8.9-13.3-.4-.7-1.7-2.5-3-3.8-1.3-1.4-4.7-6.9-7.5-12.2-2.9-5.3-6.3-11.3-7.6-13.3-1.2-2.1-2.3-4.1-2.3-4.5 0-.5 1.5 1.5 3.3 4.2 1.7 2.8 5.1 7.6 7.4 10.7zm-96.3-2.5c-1.9 3.2-4.6 8-6 10.8-1.3 2.7-3.8 7-5.4 9.5-1.6 2.5-4.1 6.5-5.5 9-5.4 9.5-8 13.7-19.7 31.5-4.7 7.1-9.3 14.3-10.2 16-.9 1.6-3.4 5.9-5.6 9.4-2.2 3.4-4 6.5-4 6.7 0 .3-1.8 2.9-4 5.8s-4 6.1-4 7.1c0 2.1-12 21.9-12.8 21.1-.6-.6 8.3-18.2 10.4-20.7.8-.8 1.4-1.8 1.4-2.2 0-1.5 22.2-38.9 31.4-52.7 5.7-8.5 12-18.3 14.2-21.7 2.1-3.4 6.1-9.7 8.8-14 8.9-14.2 13.7-21.3 14.1-21.3.2 0-1.1 2.6-3.1 5.7zM373 425.6c4.5 6.9 8 11.2 8.7 11 1.5-.6 4.3 4.3 3.6 6.1-.3.7.3 1.3 1.1 1.3.9 0 2.1 1.1 2.6 2.4.5 1.3 1.4 2.7 1.9 3.1 1.6.9 8.1 11.3 8.1 12.8 0 .8 1.1 2.4 2.5 3.7 1.3 1.2 2.3 2.6 2.2 2.9-.1.4 1.5 2.3 3.5 4.4 2.1 2.1 4.7 5.5 5.8 7.7 1.1 2.2 2.7 4 3.4 4 1.6 0 6.6 8 6.6 10.4 0 .9.6 1.6 1.3 1.6 2.4 0 4.7 3.4 4 6-.5 1.9-.3 2.2 1 1.7 1-.4 2.1.3 3.1 1.9 1 1.4 1.2 2.4.5 2.4-.6 0-.9.6-.6 1.2.2.7 1.1 1.2 2.1 1 .9-.2 1.6.2 1.6.9 0 .6 1.2 2.6 2.8 4.5 4.9 6 16.4 21.8 32.4 44.4 1.4 2.1 2.5 4.6 2.5 5.6-.1 1 .3 1.9 1 1.9.6 0 3.6 3.1 6.5 7 7.3 9.6 8.8 12.1 8.8 14.6 0 1.4.5 1.9 1.4 1.6 1.7-.7 7.6 7.3 7.6 10.2 0 1.2.6 2.1 1.3 2.1 1.8 0 11.9 13.6 11.5 15.7-.2 1.2.3 1.8 1.4 1.7.9-.1 3.1 1.4 4.9 3.2 2.6 2.7 2.9 3.4 1.5 3.4-1 0-1.5.5-1.1 1.3.4.6-1.4-1.1-3.9-3.8-2.5-2.8-5.3-6.5-6.1-8.3-.9-1.7-1.9-3.2-2.4-3.2-.4 0-6.6-7.7-13.7-17.1-17.1-22.6-18.2-24.1-16.6-24.7.6-.2 1-.8.7-1.2-.3-.5-1.2-.7-1.9-.4-.8.3-2.7-1.2-4.6-3.5-1.7-2.3-3.7-3.8-4.2-3.5-.7.4-.8.2-.4-.4.6-1.1-11.2-19.4-13.5-20.7-.5-.4-.9-1.5-.9-2.6 0-1-.6-1.9-1.2-1.9-.7 0-2.6-1.8-4.1-4-1.6-2.2-2.3-4-1.7-4 .6 0 1-.6.7-1.3-.2-.6-1-1.1-1.6-.9-1.6.3-4.1-2.3-4.1-4.3 0-1.9-2.3-4.5-3.9-4.5-.6 0-1.1-.4-1.1-.8 0-.5-.8-1.7-1.7-2.8-4.2-4.6-7.3-9.4-7.3-11.3 0-1.2-.6-2.1-1.2-2.1-.7 0-4-4.3-7.3-9.5-7-11.2-16.5-25.5-20.3-30.6-5.3-7.2-21.7-30.4-23.7-33.5-1.1-1.7-3.3-5.1-4.8-7.4-3.3-4.9-4.2-7-3.1-6.9.5 0 4.3 5.2 8.4 11.5zm-132.5-1.7c-.8 1.7-2.1 3.3-2.7 3.7-.8.5-.7-.1.3-1.6.8-1.4 1.9-3.1 2.3-3.8 1.5-2.5 1.6-1.1.1 1.7zm-9 14c-1.4 2.3-2.3 4.7-1.9 5.3.5.7.3.8-.6.3-1-.6-1.2-.4-.7.9.5 1.1.3 1.5-.5 1s-.9-.2-.5.9c.3.9.2 1.6-.3 1.4-.5-.1-1.6.7-2.5 1.8-1.1 1.3-.9.6.4-1.8 2.5-4.5 2.6-5.4.6-3.7-1.3 1.1-1.4 1-.9-.4.4-1 1.3-1.5 2.1-1.1 1.1.4 1.3.1.9-1-.3-.9-.2-1.4.2-1.1.4.3 1.9-1.3 3.2-3.4 1.3-2.2 2.6-3.8 2.8-3.6.2.2-.8 2.3-2.3 4.5zm-26.8 9.2c-3.5 6.9-6.9 13.8-7.6 15.4-4.2 10.4-7.6 16.8-15.1 28.5-1.6 2.5-4.4 7.4-6.3 11-1.9 3.6-5.9 10.8-8.9 16-3 5.2-5.7 10.3-6.1 11.2-.3 1-1.4 1.8-2.2 1.8-1 0-1.5.7-1.3 1.8.4 2.2-2.3 8.5-7.5 17.5-3.2 5.6-4.2 6.7-5.8 6.2-1.7-.6-1.9-.3-1.5 1.7.8 3.3-15.3 28.4-17.8 28-1.4-.3-1.6.1-1.1 1.8.4 1.3.1 2.8-.8 3.8-.7.9-3.7 5.7-6.6 10.7-6.9 11.9-20 30.9-21.4 31.1-2.7.2-3.1.6-1.5 1.2 1.5.6 1.1 1.7-2.7 8.1-2.5 4-4.5 7.7-4.5 8.1 0 .4-2.4 3.4-5.3 6.7-2.9 3.3-6.4 7.7-7.7 9.9-1.3 2.1-3 4.5-3.7 5.2-.8.8-2 2.7-2.9 4.4-.8 1.6-1.8 2.7-2.1 2.4-.7-.7 3.4-7.7 11.4-19.3 3.5-5.1 5.9-9.3 5.4-9.3-.6 0-2.6 2.5-4.6 5.5-1.9 3-3.7 5.5-4 5.5-1.4 0-.2-3.3 1.9-5.1 1.4-1.2 2.2-2.7 1.9-3.4-.2-.8 0-2.3.7-3.4 2.4-4.5-1.1-1.8-5.2 4-2.3 3.4-4.4 5.7-4.5 5.2-.5-1.3 4.3-10.9 7.3-15 1.3-1.7 2.4-3.5 2.4-3.8 0-.4 3.1-5.2 6.8-10.8 11.4-16.9 16.2-24.5 20.4-32.6 8-15 12.9-22.6 31.1-48.1 1.6-2.2 3.3-4 3.8-4s.9-.7.9-1.6c0-1.5 9.6-16.2 19.5-29.9 5.1-7 12.7-17.9 19.9-28.5 2.8-4.1 7-10.1 9.3-13.4 2.4-3.2 4.3-6.3 4.3-6.8s1.3-2.8 2.8-5.1c1.6-2.3 5.5-9 8.7-14.9 3.3-5.9 6.1-10.6 6.2-10.4.2.2-2.5 5.9-6 12.7zm186 9.1c9.1 12.8 21.8 31.5 24.7 36.5 1.6 2.8-.5 1.1-2.6-2.1-9-13.4-12.9-18.5-31.1-40.6-3.8-4.7-4.6-6.2-3.4-7.6l1.4-1.4s5 6.9 11 15.2zM222 449.9c-1.1 2.2-2.5 4.3-3.2 4.7-.8.5-.7-.1.3-1.6.9-1.4 2.1-3.5 2.8-4.8.6-1.2 1.4-2.2 1.7-2.2.2 0-.5 1.8-1.6 3.9zm-.6 5.6c-.4.8-1.1 1.5-1.6 1.5-.6 0-.5-.6.2-1.5.7-.8 1.4-1.5 1.6-1.5.2 0 .1.7-.2 1.5zm-8.8 7.2c-3.8 7.2-7.5 13-7.6 11.5 0-1.6 1.2-4 5.6-11 4.2-6.5 5.2-6.8 2-.5zm196 3.8c3.1 4.7 5.5 8.7 5.3 9-.4.3-4.3-5.3-10.4-14.8-.9-1.5-1.5-2.7-1.1-2.7.3 0 3.1 3.8 6.2 8.5zm-192.8-2c-.6 1.4-1.5 2.5-2 2.5s-.1-1.1.8-2.5 1.8-2.5 2-2.5c.2 0-.2 1.1-.8 2.5zm-5.4 8.5c-1.5 2.7-3.6 5.8-4.7 6.7-1.7 1.6-1.7 1.4.3-1.7 1.2-1.9 3.1-5 4.2-6.8 3.1-5 3.2-3.8.2 1.8zM425 484.4c0 .6-1.1-.5-2.5-2.4s-2.5-3.6-2.5-3.9c.1-1 5 5.3 5 6.3zm-1.5 2.4c1.4 2.1 4.5 6.8 7 10.5 2.5 3.8 4 6.7 3.3 6.5-1.1-.4-7.3-9.4-13.9-20.2-2.1-3.5 1-.7 3.6 3.2zM127 497.9c-2.8 4.4-5.9 8.6-6.7 9.2-.8.7-2.6 3.6-4 6.3-4.2 8.4-9.2 16.4-20.4 32.1-5.8 8.2-13.8 20.4-17.7 27-4 6.6-10 16-13.4 20.8-13.4 18.8-23.2 33.1-32.2 47-3.2 4.9-5.9 8.7-6.2 8.4-.3-.2 1.9-4.2 4.7-8.8 2.9-4.6 6.4-10.3 7.8-12.7 20.5-33.4 57.3-88.4 89.3-133.3 5.4-7.5 4.5-4.6-1.2 4zm67-3c-1.3 2.5-1.3 3.4.1 2.5 1.2-.7-1.4 4.6-4.1 8.6-3.6 5.3-13 20.8-13 21.5 0 .4.9-.3 2-1.6 2.8-3.4 2.4-1.9-.5 2.2-1.4 1.9-3 3.4-3.6 3.4-1 0-2.9 2.4-2.9 3.8 0 .5.5.5 1.1.2.6-.4.5.2-.3 1.4-.7 1.2-1.5 1.6-1.6 1.1-.7-2-7.2 9.3-6.7 11.5.3 1.1.2 1.4-.1.7-.3-.6-1-1-1.5-.6-.5.3-.9-.1-.9-.8-.1-.8-.6-.6-1.5.6-2.4 3.1-1.7.2.8-3.5 1.2-1.9 4-6.3 6.1-9.9 8.9-14.9 14.9-24.1 15.3-23.6.3.3-.9 2.6-2.6 5.2-1.8 2.5-3 4.8-2.8 5 .4.4 10.7-15.3 10.7-16.3 0-.3-.7 0-1.5.7-2.5 2.1-1.7.3 3.1-7 4.5-6.7 6.6-9.2 4.4-5.1zm3 .1c0 .5-.5 1-1.1 1-.5 0-.7-.5-.4-1 .3-.6.8-1 1.1-1 .2 0 .4.4.4 1zm242 15.2c1.8 2.9 5.5 8.7 8.2 12.8 4.3 6.6 4.5 7 1.3 3.5-3.2-3.6-13.5-19.6-13.5-21 0-1.3 1-.1 4 4.7zm17.3 16c8.4 13 14.1 22.7 13.5 23.3-.5.5-4.9-6.2-13.6-20.5-7.7-12.6-8.4-14-7.7-14 .3 0 3.8 5.1 7.8 11.2zm-58.6 23.3c4.1 6 11.3 16.6 15.9 23.5 4.7 6.9 12.3 17.9 17 24.5 4.6 6.6 9.7 14 11.2 16.4 1.5 2.4 5.9 9.1 9.7 14.8 3.9 5.8 8.8 13.4 11 16.9 2.2 3.5 6.3 9.2 9 12.6 2.8 3.5 7.9 10.3 11.4 15.3 3.6 4.9 8.5 11.4 11 14.2 2.5 2.9 6.6 7.6 9.1 10.4 2.5 2.9 5.9 6 7.5 7 1.7 1.1 2.5 1.9 1.9 1.9-3.9 0-20.1-14-24.9-21.5-1-1.7-3.9-5.6-6.4-8.7-2.5-3.1-6-7.6-7.7-10-1.7-2.4-6.7-9.3-11.1-15.3-4.4-6.1-13.3-18.9-19.8-28.5-6.5-9.6-14-20.7-16.6-24.5-4.1-6.1-17.5-27.5-42.3-67.5-9-14.6-9.4-16.8-.6-3.5 4 6 10.6 15.9 14.7 22zm62.8-10.4c3.1 4.4 5.5 8.8 5.3 9.7-.2 1.2-1.7-.3-4.6-4.5-2.3-3.4-4.2-6.5-4.2-6.9 0-.5-1.2-2.1-2.7-3.6-2-2.1-2.3-2.8-1.1-2.8.9 0 4.2 3.6 7.3 8.1zm-286.1.4c-.4.8-.8 1.5-1 1.5-.2 0-.4-.7-.4-1.5s.4-1.5 1-1.5c.5 0 .7.7.4 1.5zm279.5 8c0 .5-1.3-.6-2.9-2.5-1.6-1.9-3-3.9-3-4.5 0-.5 1.3.6 3 2.5 1.6 1.9 2.9 3.9 2.9 4.5zm17.5 7.6c1.5 2.2 3 3.8 3.3 3.6.3-.3-.2-1.6-1.1-2.9-1.8-2.5-2-3.8-.7-3.8 1.2 0 8.6 10.9 9.3 13.7.9 3.3.3 2.9-3.1-2.1-2.1-3-3.6-4.3-4.8-4-1.2.3-2.7-.9-4.5-3.5-3-4.2-3.3-5.1-1.9-5.1.4 0 2.1 1.8 3.5 4.1zm-8.4 4.5c0 .4-.9-.1-2-1.1s-2-2.3-2-2.8c0-.6.9-.1 2 1.1 1.1 1.2 2 2.4 2 2.8zm18.8 11.4c1.4 2.5 3.1 4.9 3.8 5.5 2.1 1.9 10.6 14.6 10.1 15.1-.7.7-20.7-27.6-20.7-29.3.1-1.2 3.8 3.6 6.8 8.7zM151 565.9c-.5 1.1-1.5 2.3-2 2.6-.6.3-1 1.2-1 1.8 0 .7 1.2-.1 2.5-1.6 1.4-1.5 2.5-2.3 2.5-1.6 0 .7.7.4 1.5-.7.9-1 .6.1-.6 2.5-2.5 5.3-15.9 27.1-16.5 27.1-.3 0 0-.9.6-2.1.7-1.1 1-2.3.8-2.5-.3-.2-2.8 3.8-5.6 8.9-8 14.3-13.8 23.1-14.6 21.9-.4-.6.4-2.8 1.8-4.9 6.3-9.9 27.6-45.3 27.6-46 0-1-2.7 3.2-19 29.7-7.2 11.8-15.4 24.9-18 29-7.3 11.1-8.2 13-6.4 13 .8 0 2.4-1.9 3.5-4.3 3-6.5 6.9-12.7 8-12.7 1.4 0 1.1.7-2.1 5.2-1.6 2.2-3 4.6-3 5.2 0 .6-2.3 4.5-5 8.5-2.8 4.1-5 7.9-4.9 8.5.3 2.5-.2 3.7-1.2 3-.6-.3-1.5 0-2 .7-1.2 2-1.1 3.7.2 1.9.9-1.3 1-1.3.6 0-.2.8-1 1.5-1.7 1.5s-1.5.6-1.8 1.4c-.3.9 0 1.1.9.6.8-.5 1.1-.5.7-.1-.3.4-1 .8-1.5.8-.9.1-3.2 2.9-3.3 4.1 0 .5.5.5 1.2.1s.8-.3.4.5c-.4.6-1.1.9-1.5.6-.5-.2-2.2 1.7-3.9 4.3-1.7 2.6-4.5 6-6.3 7.7-3.4 3.2-3.3 2.9 1.9-5.5 3.5-5.4 5.4-8.4 14.7-22.8 2.5-4.1 4.5-7.6 4.3-7.8-.3-.2-3.3 4.1-6.7 9.6-3.4 5.5-6.4 10-6.5 10-.2 0-.3-1.5-.2-3.3.1-1.7.7-3.2 1.4-3.2 1.7 0 4.4-4.3 3.6-5.7-.4-.7-.3-.8.4-.4s1.2.5 1.2.2c0-.2.3-1.3.6-2.3.5-1.5.4-1.6-.6-.3-.8 1-1 1.1-.8.2.2-.8.6-1.2.9-1 1.2.6 4-2.6 3.5-3.9-.3-.8-.2-1.2.3-.9 1.1.7 2.3-2.2 1.5-3.5-.3-.5-.1-.8.4-.7 1.1.3 7.3-7.6 9.8-12.4.9-1.8 2.9-5.1 4.4-7.3 1.5-2.2 4.2-6.7 6-10 1.8-3.3 4.3-7.4 5.6-9.2 1.3-1.7 2.4-3.5 2.4-3.9 0-.4 1.5-3 3.3-5.8 1.9-2.8 6-9.2 9.2-14.1 5.7-8.8 8.4-12.5 9.2-12.5.2 0-.1.9-.7 1.9zm346 22.3c1.5 2.1 1.7 2.8.6 1.9-1.6-1.3-4.1-5.1-3.3-5.1.2 0 1.4 1.5 2.7 3.2zm9.8 3.3c-.3.3-.9-.2-1.2-1.2-.6-1.4-.5-1.5.5-.6.7.7 1 1.5.7 1.8zm-4.9 6.7c1.3 1.6 2.6 2.6 2.9 2.3.3-.3-.5-1.6-1.8-3s-1.8-2.5-1.2-2.5c1.6 0 4.5 4.7 3.7 6-.3.5.6 2.6 2.2 4.7 1.7 2.2 2.2 3.4 1.3 3.1-.8-.2-2-1.5-2.6-2.7-.7-1.2-2.5-3.7-4.1-5.4-1.6-1.8-3.6-4.1-4.4-5.1-2.2-3.1 1-.9 4 2.6zm-378.5 1c-.3.4-.9.8-1.5.8-.5 0-.9-.4-.9-.8 0-.5.7-.9 1.5-.9s1.2.4.9.9zm-7.2 12c-2.7 4.6-7.1 11.9-9.7 16.3-15.2 25.4-22.5 36.8-23.3 36.1-.2-.3.7-3 2.2-5.9 1.4-3 2.6-5.8 2.6-6.3 0-1.2 9.8-17.7 15.7-26.6 2.4-3.6 5.4-6.9 6.6-7.2 1.1-.3 1.8-.8 1.5-1.1-.4-.4.7-2.9 2.3-5.6 1.6-2.8 2.9-5.3 2.9-5.6 0-.8 3.4-3.2 3.9-2.8.2.3-1.9 4.2-4.7 8.7zm405.3 4.6c-.6 1.7 7.3 10.9 15.4 17.8 7.3 6.3 14.5 16.6 13.6 19.5-.4 1.3-.2 1.9.9 1.9.9 0 1.6.4 1.6 1 0 .5-.4 1-1 1-1.5 0-19.3-18-18.6-18.7.4-.4 3.6 2.6 7.2 6.5 6.1 6.7 8.4 8.4 8.4 6.4 0-1.1-3.5-4.8-5.6-6-1-.5-1.8-2-1.9-3.3-.1-1.6-.8-2.4-1.9-2.3-.9.1-1.6-.3-1.6-1 0-.6-1.9-2.9-4.1-5.1-6.3-6.3-16.5-19-14.6-18.2.9.3 1.7.4 1.7.2 0-.5-3.5-4.7-7-8.5-.8-.9-2.1-2.5-2.9-3.5-.7-1.1 1.4.9 4.7 4.5 3.4 3.6 5.9 7.1 5.7 7.8zm-2.6 3.2c5.9 7.2 7 9 5.4 9-1.8-.1-14.5-15.4-13.6-16.4 1.1-1.1 1.8-.4 8.2 7.4zm12.9 16.9c-1.6.5-6.2-4.5-5.3-5.9.5-.8 1.6-.1 3.5 2.2 1.6 1.8 2.4 3.5 1.8 3.7zm-7.4-3.4c.6 1.1 2.1 2.8 3.4 3.8 1.2 1 2.2 2.5 2.2 3.3 0 .8.8 1.8 1.8 2.1 1.7.7 24.4 23.5 23.8 24-.2.2-.9-.3-1.6-1.2-.7-.8-1.9-1.5-2.7-1.5-1.4 0-11.3-8.7-11.1-9.9.2-2.1-.4-3.2-1.6-2.8-.8.3-3-1.2-5.3-3.6-11.4-12.2-13.4-14.7-12.8-15.7.9-1.5 2.6-.8 3.9 1.5zm-4.4 15c1.3 1.4 2.1 2.5 1.8 2.5-.2 0-1.5-1.1-2.8-2.5-1.3-1.4-2.1-2.5-1.8-2.5.2 0 1.5 1.1 2.8 2.5zm-412.6 6.7C105 658.9 93 677 92.3 677c-.3 0 .1-1 .9-2.3.8-1.2 3.6-5.8 6.3-10.2 7-11.6 11.8-17.9 7.9-10.3zm431.8.5c2.3 2.8 3.3 5 1.2 2.8-1-1.1-2.5-2.6-3.3-3.3-.8-.6-1-1.2-.4-1.2.5 0 1.7.8 2.5 1.7zm-18.1 3.6c-1.3 1.3-2.6.3-1.6-1.2.3-.6 1.1-.8 1.7-.5.6.4.6 1-.1 1.7zm4.9 12.5c4 4.6 10.5 11.1 14.6 14.5 7.8 6.5 9.1 8.7 2.4 4.3-7.1-4.7-26-25.2-26-28.2 0-.9-.4-1.4 9 9.4zm-462.4-4.3c-1.5 1.9-2.6 3.8-2.6 4.3s-.9 1.7-2 2.7c-1.1 1-2 2.2-2 2.7s-2.4 4.6-5.3 9.1-7.3 11.7-9.7 15.9c-2.4 4.3-4.5 7.6-4.7 7.4-.5-.5 8.2-17.1 14-26.6 9.7-15.8 12.7-20.1 13.8-19.5.6.4 0 2-1.5 4zm21.9 3.7c-1.9 2.9-3.5 4.7-3.5 4 0-.7-.4-1-1-.7-1.7 1.1-1.1-.4 2.7-6.1 2.9-4.3 3.8-5.2 4.5-4 .6 1.1-.2 3.1-2.7 6.8zm430.3-.6c1.3 2 2.1 3.8 1.8 4.2-.3.3-.6.1-.6-.4s-1.1-2.2-2.5-3.8c-2.7-3.1-2.9-3.6-1.7-3.6.4 0 1.7 1.6 3 3.6zm35.2 3.1c0 .8-3.8-1.7-5.1-3.3-.9-1.1-.2-.9 1.9.6 1.7 1.3 3.2 2.5 3.2 2.7zm-473.6.9c-5 9.2-11.9 19.4-16.9 24.9-4 4.3-4.2 4.7 12-19.8 5.5-8.4 8.3-11.3 4.9-5.1zm466.8 1.6c2.9 2.8 4.4 4.6 3.3 4-2.3-1.2-10.3-9.2-9.2-9.2.4 0 3.1 2.3 5.9 5.2zM59.4 679c-1 1.6-2 2.7-2.2 2.5-.5-.5 2.6-5.5 3.4-5.5.3 0-.3 1.3-1.2 3zm2.9-.5c-.3.9-.8 1.4-1 1.1-.3-.3-.2-.9.2-1.5.9-1.6 1.5-1.3.8.4zm3.3 4.7c-8.2 12.2-10.2 15.1-12.4 17.6l-2.4 2.7 2.1-3.2c3.3-4.9 2.4-6.2-1.4-2.1-5.1 5.5-4.3 3.6 1.6-3.8 5.1-6.5 7.8-8.9 3.8-3.4-1.3 1.6-2 3.2-1.7 3.5.3.3 3.3-3.5 6.8-8.5 6.7-9.6 9.6-11.9 3.6-2.8zm478.9 1.2c4.4 4.3 5.2 5.4 3 4.2-4.8-2.5-13.3-10.3-10.9-10.2 1 .1 4.6 2.8 7.9 6zm-455.2-1.9c-.3.9-.8 1.4-1 1.1-.3-.3-.2-.9.2-1.5.9-1.6 1.5-1.3.8.4zm-32.7 5.3c-1.7 1.6-1.8 1.6-.5-.5.7-1.2 1.5-2 1.8-1.7.3.2-.3 1.2-1.3 2.2zm490.5 8c-.7.2-3-1.2-5-3.3l-3.6-3.7 4.9 3.3c2.8 1.8 4.4 3.5 3.7 3.7zm-520.3 4.7c-.6 1.4-1.3 2.3-1.5 2.1-.5-.5 1.5-4.6 2.2-4.6.3 0-.1 1.1-.7 2.5zm15.5 7.1c-1.4 2.5-2.7 4.3-3 4.1-.6-.7 3.8-8.7 4.7-8.7.5 0-.3 2-1.7 4.6zM31 709c0 .5-.5 1-1.1 1-.5 0-.7-.5-.4-1 .3-.6.8-1 1.1-1 .2 0 .4.4.4 1zm13.5.9c-.3.6-1.1 1.1-1.7 1.1-.6 0-.6-.6.2-1.5 1.4-1.7 2.6-1.3 1.5.4z"/>
  <path d="M60 45.5c-1.9 1.9-3.8 3.5-4.2 3.5-.4 0-.8.4-.8 1 0 1.8 1.4 1 6.5-3.5C64.2 44 65.8 42 65 42c-.8 0-3.1 1.6-5 3.5zM29.7 672.2c-.4 1.2-.4 2.4-.1 2.7.6.7 2.4-2 2.4-3.7 0-2.1-1.7-1.3-2.3 1zM310.5 252c.4.6 1.1.8 1.6.5 1.4-.9 1.1-1.5-.7-1.5-.8 0-1.2.5-.9 1zM298 272.6c0 .8.5 1.2 1 .9.6-.3 1-1 1-1.6 0-.5-.4-.9-1-.9-.5 0-1 .7-1 1.6zM336 224.5c0 .8.5 1.5 1 1.5.6 0 1-.7 1-1.5s-.4-1.5-1-1.5c-.5 0-1 .7-1 1.5zM248.2 359.8c-.9 1.5-1 2.8-.3 4 .9 1.6 1 1.6 1.6 0 .4-.9.5-2.7.3-4l-.3-2.3-1.3 2.3zM241.5 370c-.3.5.1 1 1 1s1.3-.5 1-1c-.3-.6-.8-1-1-1-.2 0-.7.4-1 1zM201.5 435c.3.5.8 1 1.1 1 .2 0 .4-.5.4-1 0-.6-.5-1-1.1-1-.5 0-.7.4-.4 1zM188.6 452.9c-.4.7-.5 1.5-.2 1.8.9.9 1.9-.4 1.4-1.8-.4-1.1-.6-1.1-1.2 0zM182 469.6c0 .8.5 1.2 1 .9.6-.3 1-1 1-1.6 0-.5-.4-.9-1-.9-.5 0-1 .7-1 1.6zM232 254c0 .5.5 1 1 1 .6 0 1-.5 1-1 0-.6-.4-1-1-1-.5 0-1 .4-1 1zM238 262c.6 1.1 1.5 2 2.1 2 .6 0 .6-.7-.1-2-.6-1.1-1.5-2-2.1-2-.6 0-.6.7.1 2zM207 225.3c0 .9.9 2.1 2 2.7 1.1.6 2 .7 2 .2 0-.5-.9-1.7-2-2.7-1.8-1.6-2-1.6-2-.2zM208.6 231.4c.3.9 1.1 1.6 1.6 1.6 1.3 0 .5-2.3-1-2.8-.7-.2-1 .2-.6 1.2zM216 240c0 .5.5 1 1.1 1 .5 0 .7-.5.4-1-.3-.6-.8-1-1.1-1-.2 0-.4.4-.4 1zM224 252c0 .5.5 1 1 1 .6 0 1-.5 1-1 0-.6-.4-1-1-1-.5 0-1 .4-1 1zM226.5 260.9c-.3.5-.1 1.2.5 1.6.5.3 1-.1 1-.9 0-1.8-.6-2.1-1.5-.7zM22 664.5c0 .8.5 1.5 1 1.5.6 0 1-.7 1-1.5s-.4-1.5-1-1.5c-.5 0-1 .7-1 1.5zM17.6 671.9c-.4.5-.2 1.2.3 1.5.5.4 1.2.2 1.5-.3.4-.5.2-1.2-.3-1.5-.5-.4-1.2-.2-1.5.3zM295 340c0 .5.5 1 1 1 .6 0 1-.5 1-1 0-.6-.4-1-1-1-.5 0-1 .4-1 1zM421 521.5c0 .8.5 1.5 1 1.5.6 0 1-.7 1-1.5s-.4-1.5-1-1.5c-.5 0-1 .7-1 1.5zM423 525.4c0 .8.5 1.8 1 2.1.6.3 1-.1 1-.9s-.4-1.8-1-2.1c-.5-.3-1 .1-1 .9zM448.5 560c-.3.5.1 1 1 1s1.3-.5 1-1c-.3-.6-.8-1-1-1-.2 0-.7.4-1 1zM464 602c0 .5.5 1 1 1 .6 0 1-.5 1-1 0-.6-.4-1-1-1-.5 0-1 .4-1 1zM471.5 612c-.4.6-.3 1.6.3 2.2.6.6 1.2.6 1.7-.2.4-.6.3-1.6-.3-2.2-.6-.6-1.2-.6-1.7.2zM483 628.9c0 1.3 2.9 3.5 3.7 2.8.7-.8-1.5-3.7-2.8-3.7-.5 0-.9.4-.9.9zM502.5 641c.3.5.8 1 1.1 1 .2 0 .4-.5.4-1 0-.6-.5-1-1.1-1-.5 0-.7.4-.4 1zM519 681.5c0 .8.5 1.5 1 1.5.6 0 1-.7 1-1.5s-.4-1.5-1-1.5c-.5 0-1 .7-1 1.5zM317 356.9c0 .5.5 1.3 1 1.6.6.3 1 .2 1-.4 0-.5-.4-1.3-1-1.6-.5-.3-1-.2-1 .4zM435 581c0 .5.5 1 1.1 1 .5 0 .7-.5.4-1-.3-.6-.8-1-1.1-1-.2 0-.4.4-.4 1zM435 590.5c.7.8 1.7 1.5 2.2 1.5.6 0 .5-.7-.2-1.5s-1.7-1.5-2.2-1.5c-.6 0-.5.7.2 1.5zM439 589.7c0 .5 1.4 2.9 3 5.1 3.3 4.7 3.8 6.1 1.3 4.1-1.4-1.2-1.6-1.2-1.1.1.3.8 1.3 1.4 2.2 1.4 2-.2 6.1 5.2 4.6 6.1-1.4.9-.2 2.5 1.4 1.9.9-.3 3.6 2.5 7.3 7.8 7.8 10.8 7.7 10.6 6.2 12.4-1 1.2-1 1.5.1 1.2.7-.2 1.5.3 1.8 1.1.3.9 0 1.1-.8.6-.9-.5-1.1-.4-.6.4.4.6 1.1.9 1.6.6.4-.3 2.9 2.7 5.5 6.5 2.6 3.9 5 7 5.2 7 .5 0-.6-1.9-6.4-10.5-2.4-3.6-3-5.1-1.9-5.3 1-.2.6-1.1-1.3-3.1-1.4-1.5-5.4-6.8-8.8-11.7-11-15.6-19.3-26.7-19.3-25.7z"/>
  <path d="M455.2 617.7c1.8 2.9 3.7 5.2 4.1 5.2 1.1.1-.7-2.9-4.3-6.9l-3.1-3.5 3.3 5.2zM479.1 642.2c-.1.4 2.8 5.5 6.4 11.4 3.6 5.9 6.4 10.9 6.1 11.1-.3.3-2.6-2.5-5.3-6.3-6.5-9.1-10.5-13.5-5.1-5.6 2.4 3.5 5 7.3 5.8 8.6 4.1 6 7.3 9.5 8.3 8.9.6-.3.7-.1.3.6-.8 1.2 5 8.6 6.7 8.6.5 0 3.9 2.9 7.4 6.5 3.6 3.6 6.3 6 6.1 5.3-.1-.6-3.7-4.7-7.9-9.1-6.7-6.9-13.1-15.7-23.5-32.3-4.9-7.9-5.3-8.4-5.3-7.7zm15 25c1.1 2.1 1.1 2.2-.4.9-1-.7-1.7-1.7-1.7-2.2 0-1.5.9-1 2.1 1.3zM342 399.9c0 .6.5 1.3 1 1.6.6.3 1-.1 1-.9 0-.9-.4-1.6-1-1.6-.5 0-1 .4-1 .9zM367 440.5c0 .8.7 1.5 1.5 1.5s1.5-.4 1.5-.9-.7-1.1-1.5-1.5c-.9-.3-1.5 0-1.5.9zM380.2 458.1c.2.7 1 1.5 1.7 1.7.8.3 1.2-.1.9-.9-.2-.7-1-1.5-1.7-1.7-.8-.3-1.2.1-.9.9zM383 462c0 .5.5 1 1 1 .6 0 1-.5 1-1 0-.6-.4-1-1-1-.5 0-1 .4-1 1zM498.5 618c.3.5.8 1 1.1 1 .2 0 .4-.5.4-1 0-.6-.5-1-1.1-1-.5 0-.7.4-.4 1zM148 534c0 .5.5 1 1 1 .6 0 1-.5 1-1 0-.6-.4-1-1-1-.5 0-1 .4-1 1zM137.2 563.2c-1.4 1.4-1.6 2.8-.2 2.8.5 0 1.4-.9 2-2 1.2-2.2.1-2.7-1.8-.8zM126 568.6c0 .9.5 1.4 1.2 1.2 1.8-.6 2.1-2.8.4-2.8-.9 0-1.6.7-1.6 1.6zM132.5 568.1c-.4.6-.5 1.3-.2 1.6.7.7 2.7-.6 2.7-1.8 0-1.2-1.7-1.2-2.5.2zM112.5 599.9c-.6 1.1.9 2.3 1.9 1.4.9-.9.7-2.3-.3-2.3-.6 0-1.2.4-1.6.9zM109.2 605.2c.2.6 1 1.4 1.6 1.6.7.2 1-.2.6-1.2-.7-1.8-2.8-2.2-2.2-.4zM100.5 615.1c-1 1.5.3 2.5 1.6 1.2.7-.7.7-1.3.1-1.7-.6-.3-1.4-.1-1.7.5zM76 645c0 .5.5 1 1 1 .6 0 1-.5 1-1 0-.6-.4-1-1-1-.5 0-1 .4-1 1zM81 645.5c0 .8 0 1.8-.1 2.2 0 .4.4.9 1 1.1.6.2 1.1-.8 1.1-2.2 0-1.4-.4-2.6-1-2.6-.5 0-1 .7-1 1.5zM190.1 501.3c-3 4.9-2.6 5.9.5 1.4 1.4-2.1 2.4-4.1 2.1-4.3-.3-.3-1.4 1-2.6 2.9zM174.8 525.8c-10.3 17.1-12.8 21.5-12.4 21.9.2.3 1.2-1 2.2-2.9.9-1.8 2.5-4.4 3.4-5.8 3.5-5.2 9.2-15.1 8.8-15.5-.2-.2-1.1.8-2 2.3zM175.5 529.1c-.4.6-.5 1.2-.2 1.5.2.3.7-.2 1-1.1.7-1.7.1-2-.8-.4zM146.1 578.1c-3.4 5.7-6.1 10.7-6.1 11.3 0 .5 2.9-3.9 6.5-9.9 3.6-5.9 6.3-11 6.1-11.2-.2-.3-3.2 4.2-6.5 9.8zM84.5 668c-2.4 3.8-3.4 6.4-1.7 4.4 1.6-1.7 5.4-8.4 4.8-8.4-.3 0-1.7 1.8-3.1 4zM272.5 524c-30.8 6.2-50 39.1-40.1 68.8 7 21 24.2 34.6 45.4 35.9 31.9 1.9 56.7-21.5 56.4-53.2-.1-16-5.4-27.9-17.1-38.7-12.1-11.2-28.7-16-44.6-12.8zm25 4c8.2 2.8 14.4 6.7 15.6 9.6 1.2 3.4 1.1 4-.3 2.6-3.1-3.1-3.8-.2-.8 3.5 1.1 1.4 2 3.4 2 4.5 0 1.6-.3 1.7-2.1.8-3.1-1.7-3.4-.5-1 3.3 2 3.3 2.8 7.7 1.4 7.7-.3 0-1.5-.7-2.5-1.7-1.7-1.5-1.8-1.5-1.8.3.1 1 .7 3 1.5 4.4 1.7 2.9 1.8 4.9.6 6.9-.8 1.2-1.2 1.3-2.5.1-2.5-2-3.2-.3-1.3 2.9 3 5 1.3 10.6-1.8 6.5-1.4-1.8-1.4-1.8-1.5-.1 0 1 .6 3 1.3 4.5.8 1.5 1.1 3.8.8 5.1-.6 2.1-.8 2.2-2 .7-2.4-2.8-3.3-.5-1.1 3 1.1 2 2 4.8 2 6.5 0 2.6-.2 2.8-2 1.7-3.3-2.1-3.4 0-.1 3.7 3.9 4.5 4.3 11.3.4 7.4-.7-.7-1.3-.7-1.7-.1-.6 1 1.7 3.1 6 5.9 1.7 1 1.3 1.4-3.9 3.7-7 3.2-18.2 5-25.2 4.1-10.7-1.3-23.1-6.5-22-9.3.3-.7.5-1.9.5-2.5 0-.7.9-.1 2 1.3 2.6 3.4 3.6 1.9 1.6-2.4-1.8-3.7-2-7.4-.7-9.5.7-1 1.1-.9 2.3.8.8 1.1 1.7 1.8 2.1 1.5.7-.8-.2-3.3-2.5-6.6-1.7-2.5-2.5-7.8-1.2-7.8.4 0 1.3.8 2 1.7.7 1 1.6 1.5 2 1.1.7-.7-1.8-5.1-4.3-7.6-.7-.7-1.3-1.8-1.3-2.3 0-1.2 1.7-1.2 2.5.1.3.5 1 1 1.6 1 1.8 0 .8-2.7-2.1-5.5-1.6-1.6-3-3.7-3-4.7 0-2.2 1.3-2.3 3-.3.9 1.1 1.6 1.3 2.4.5.7-.7 0-1.9-2.6-4-1.9-1.6-3.8-3.9-4.1-5-.6-2.4.5-2.6 2.3-.5.9 1.1 1.6 1.3 2.4.5.7-.7-.2-2.2-3.2-4.9-4.2-3.8-5.6-6.9-2.7-5.7.8.3 2.2.9 3 1.2 2.7 1.1 1.6-1.3-2-4.5-1.9-1.7-3.5-3.7-3.5-4.6 0-1.9.7-1.9 2.7 0 2.7 2.7 3.6.4.9-2.4-3.3-3.4-3.5-6.1-.4-5.3 2.1.5 2.1.4.5-1.9-.9-1.3-1.7-2.7-1.7-3.1 0-1.1 11.4-6.7 15.8-7.7 7.2-1.7 21.4-1.3 27.7.9zm-49.4 14.9c-3.1 4.3-2.5 7 .8 3.8 1.1-1 1.2-.7.6 1.3-.4 1.4-1.4 3.4-2.1 4.5-2 2.8-1.7 4.1.4 2.2 1-1 2.2-1.7 2.5-1.7 1.4 0 .6 5.7-1.3 9.5-2.4 4.7-2.4 4.5-.6 4.5.8 0 1.8-1 2.1-2.1.6-1.7.9-1.9 1.6-.8 1.6 2.5 1 6.8-1.3 8.9l-2.2 2h2.2c1.2 0 2.2-.5 2.2-1 0-.6.5-1 1-1 1.9 0 1 5.7-1.5 9.4-3.9 5.8-3.2 7.7 1 2.8l2.4-2.7.1 3.4c0 2.1-.9 4.6-2.5 6.7-4.1 5.3-3.1 7.6 1.1 2.6l2.4-2.7v2.8c0 2-1.1 4-3.5 6.4-1.9 1.9-3.5 3.7-3.5 3.9 0 1 2.5.2 4.2-1.3 3.3-3 2.2 1.6-1.2 4.9-3.5 3.3-3.8 4.2-1 3.5 2.1-.5 2.8.7 1 1.8-1.1.7-6.3-2.8-9.7-6.5-4.6-5-9.3-16.1-10.4-24.7-2-15.4 2-29 12.1-40.5 4.5-5.2 6.8-5.2 3.1.1zm78.5 9.9c4.2 8.8 5.4 14.2 5.4 24 0 8-.4 10.4-3.1 17.2-1.9 5.1-4.8 10.1-7.9 13.8-7.1 8.5-13.1 11.2-9.5 4.2 2-3.9 1-5.4-1.5-2.3l-1.8 2.3-.6-2.6c-.5-1.7 0-4 1.3-6.7 2.2-4.4 2.1-5.7-.4-3.7-1.3 1-1.5.9-1.5-.7 0-1.8 2.5-6.2 4.3-7.4.5-.4.5-.9-.1-1.3-.6-.3-1.3-.2-1.7.4-.3.5-1 1-1.6 1-1.3 0 1.8-7 4.2-9.6 1.2-1.3 1.6-2.4 1-2.8-.5-.4-1.2-.2-1.6.4-.3.5-1 1-1.5 1-1.4 0 .9-5.6 3.6-8.5 2.8-3 3-4 .9-3.1-2 .7-2-1.8 0-3.4 2.5-2.1 5.8-7.1 5.1-7.7-.3-.3-1.5.2-2.6 1.2-2 1.8-2 1.7-2-1 0-1.5 1.1-4.1 2.5-5.7 2.6-3.1 2.5-5.9-.1-3.7-1.9 1.5-1.8.4.2-2.7l1.7-2.5 2.4 2.2c1.3 1.3 3.5 4.7 4.9 7.7z"/>
</svg>
