<?xml version="1.0" ?><!DOCTYPE svg  PUBLIC '-//W3C//DTD SVG 1.1//EN'  'http://www.w3.org/Graphics/SVG/1.1/DTD/svg11.dtd'><svg enable-background="new 0 0 512 512" height="512px" id="Layer_1" version="1.1" viewBox="0 0 512 512" width="512px" xml:space="preserve" xmlns="http://www.w3.org/2000/svg" xmlns:xlink="http://www.w3.org/1999/xlink"><path d="M39.546,465.055c-8.308,8.312-8.308,21.772,0,30.077c8.302,8.315,21.772,8.315,30.073,0.003l42.188-42.18  c-7.324-13.033-13.438-27.102-18.189-41.969L39.546,465.055z M472.448,212.29c8.31-8.299,8.31-21.769,0-30.079  c-8.3-8.303-21.771-8.303-30.078,0l-37.596,37.596c7.326,13.031,13.437,27.103,18.191,41.971L472.448,212.29z M82.109,336.384  c0-7.426,0.334-14.76,0.969-21.988l-58.896-0.003c-11.747,0.003-21.267,9.521-21.267,21.268s9.521,21.271,21.267,21.271h58.78  C82.406,350.169,82.109,343.318,82.109,336.384 M92.511,265.263c4.553-15.04,10.525-29.257,17.693-42.477L69.629,182.21  c-8.31-8.303-21.778-8.303-30.082,0c-8.309,8.31-8.309,21.78,0,30.079L92.511,265.263z M421.824,414.431  c-4.956,14.707-11.25,28.58-18.735,41.422l39.287,39.28c8.304,8.313,21.772,8.313,30.075-0.002c8.306-8.305,8.306-21.766,0-30.076  L421.824,414.431z M487.817,314.393l-54.31,0.003c0.635,7.229,0.967,14.562,0.967,21.988c0,6.936-0.299,13.785-0.85,20.55h54.192  c11.748,0,21.271-9.524,21.271-21.272S499.565,314.396,487.817,314.393 M138.276,18.471c34.867,0.252,50.656,13.186,59.917,27.605  c7.613,12.117,9.772,26.188,10.258,34.558c-19.437,13.33-33.381,34.069-37.736,58.174h176.957  c-4.356-24.109-18.303-44.851-37.738-58.179c0.479-8.373,2.644-22.445,10.264-34.553c9.25-14.419,25.037-27.35,59.922-27.605  c5.098,0,9.232-4.135,9.232-9.232c0-5.102-4.135-9.236-9.232-9.236c-39.779-0.258-63.763,16.813-75.613,36.317  c-7.592,12.289-10.826,25.008-12.19,34.917c-10.247-4.072-21.411-6.338-33.111-6.358c-11.711,0.02-22.884,2.289-33.139,6.366  c-1.365-9.908-4.597-22.628-12.189-34.925c-11.854-19.507-35.83-36.576-75.598-36.317c-5.115,0-9.241,4.134-9.241,9.233  C129.035,14.335,133.161,18.471,138.276,18.471 M114.973,335.291c0,91.392,56.206,166.87,128.233,176.709V176.109h-48.214  C147.61,205.286,114.973,265.661,114.973,335.291 M133.885,341.647c0-13.476,15.891-24.403,35.494-24.403  c19.6,0,35.491,10.929,35.491,24.403c0,13.476-15.891,24.397-35.491,24.397C149.775,366.045,133.885,355.123,133.885,341.647   M203.154,447.126c-9.144,0-16.551-11.227-16.551-25.077c0-13.853,7.408-25.082,16.551-25.082c9.138,0,16.549,11.232,16.549,25.082  C219.702,435.899,212.291,447.126,203.154,447.126 M215.313,278.202c-9.533,9.526-28.493,6.017-42.353-7.846  c-13.86-13.855-17.374-32.825-7.844-42.351c9.53-9.528,28.49-6.021,42.35,7.839C221.328,249.707,224.843,268.671,215.313,278.202   M323.389,176.109h-48.216V512c72.025-9.839,128.239-85.317,128.239-176.709C403.412,265.661,370.778,205.286,323.389,176.109   M310.095,235.845c13.86-13.86,32.82-17.367,42.35-7.839c9.534,9.525,6.02,28.495-7.839,42.351  c-13.864,13.862-32.824,17.372-42.356,7.846C292.721,268.671,296.234,249.707,310.095,235.845 M314.411,447.126  c-9.139,0-16.549-11.227-16.549-25.077c0-13.853,7.41-25.082,16.549-25.082c9.141,0,16.549,11.232,16.549,25.082  C330.96,435.899,323.552,447.126,314.411,447.126 M348.189,366.045c-19.604,0-35.497-10.922-35.497-24.397  c0-13.475,15.892-24.403,35.497-24.403c19.601,0,35.492,10.929,35.492,24.403C383.681,355.123,367.789,366.045,348.189,366.045"/></svg>