<?xml version="1.0" encoding="utf-8"?>
<!-- Generator: Adobe Illustrator 18.0.0, SVG Export Plug-In . SVG Version: 6.00 Build 0)  -->
<!DOCTYPE svg PUBLIC "-//W3C//DTD SVG 1.1//EN" "http://www.w3.org/Graphics/SVG/1.1/DTD/svg11.dtd">
<svg version="1.1" id="Layer_1" xmlns="http://www.w3.org/2000/svg" xmlns:xlink="http://www.w3.org/1999/xlink" x="0px" y="0px"
	 viewBox="0 0 350 350" enable-background="new 0 0 350 350" xml:space="preserve">
<path fill="#7BBB3B" d="M176.6,78.1c-55.1,0-99.9,44.8-99.9,99.9s44.8,99.9,99.9,99.9s99.9-44.8,99.9-99.9S231.7,78.1,176.6,78.1z
	 M89.1,178c0-14.7,3.6-28.5,10-40.6c0,15.7,8.4,28.8,12.3,32.7c12.8,12.8,31.5,8.8,33.9,19.5c2.4,10.7-12.8,10.8-11.8,19
	c1,8.2,20.8,10.4,16.4,18c-5.8,10.1,3.9,10.8,1.1,23.2c-1.5,6.8,8.2,8.1,11.9,2.9c2.8-4,2.2-8.8,7.8-14.7
	c6.8-7.2,22.6-8.4,20.8-20.4c-3-19.9-22.3-23-30.8-27.7c-9.6-5.3-7.2-17.9-9.3-23.9c-2.9-8.5-12.8,2.4-18-2.6
	c-8.7-8.2,1.5-19.7,8.8-19.5c15.3,0.5,20,15.4,25.6,14.9c5.5-0.5,9.1-8.2,10-12.2c2-8.9-3.4-4.9-5.6-9.5
	c-3.4-7.1,14.9-13.8,17.3-18.6c4.7-9.2-23.2-11.7-24-21.5c-0.4-4,7.3-5.9,16.1-6.3c9.8,0.5,19.1,2.7,27.8,6.2
	c8.3,6,13.4,16.1,14.3,27.3c0.8,9.9-9.9,18.7-20.7,22c-7.7,2.3-13.6,12.5-10,20.7c2.4,5.7,19.4,4.6,17.9,16.8
	c-1.2,10,11.9,12.6,16.5,12.1c4.6-0.5,11.7,7.6,8.2,11.2c-3.6,3.6-10.3,3.7-9.3,13c0.3,2.7,8.5,2.3,8.5,6.4c0,4.1-4.2,8.8-1,13.5
	c0.7,1,1.4,1.8,2.2,2.4c-15.6,14.4-36.4,23.2-59.3,23.2C128.4,265.5,89.1,226.2,89.1,178z M21.4,130.1c-2.6,0-5.2-0.7-7.4-2.1
	c-5.7-3.6-8-11.2-5.2-17.7C37.4,43.3,103.1,0,176.1,0c24.4,0,48.2,4.9,70.8,14.5C273.1,25.6,296.7,43,315.1,65l10.2-6
	c3.7-2.2,8.4,0.5,8.4,4.7l0.5,50.3c0,4.3-4.6,7-8.3,4.9L282,94.2c-3.7-2.1-3.8-7.5-0.1-9.6l8.8-5.2c-15-16.8-33.9-30.4-54.8-39.2
	c-19.1-8.1-39.3-12.2-59.9-12.2c-62,0-117.7,36.8-141.9,93.8C32,126.8,27,130.1,21.4,130.1z M177.5,350c-27.7,0-54.4-6.2-79.4-18.4
	c-25.6-12.5-48.2-31.2-65.5-54l-10.5,5.5c-3.8,2-8.3-0.9-8.1-5.2l2.1-50.3c0.2-4.3,4.9-6.8,8.6-4.5l42.5,27c3.6,2.3,3.4,7.7-0.4,9.6
	l-9.1,4.7c14.1,17.6,32.3,32.1,52.6,42.1c21.2,10.3,43.8,15.6,67.2,15.6c58.4,0,112.6-33.7,138.3-85.9c1.6-3.3,4.2-6.1,7.6-7.4
	c4.6-1.8,9.4-1.1,13.2,1.6c5.5,3.9,7.4,11.6,4.3,17.9C310.1,311.1,247.5,350,177.5,350z"/>
</svg>
