<?xml version="1.0" standalone="no"?>
<!DOCTYPE svg PUBLIC "-//W3C//DTD SVG 20010904//EN"
 "http://www.w3.org/TR/2001/REC-SVG-20010904/DTD/svg10.dtd">
<svg version="1.0" xmlns="http://www.w3.org/2000/svg"
 width="900.000000pt" height="720.000000pt" viewBox="0 0 900.000000 720.000000"
 preserveAspectRatio="xMidYMid meet">
<metadata>
Created by potrace 1.15, written by Peter Selinger 2001-2017
</metadata>
<g transform="translate(0.000000,720.000000) scale(0.100000,-0.100000)"
fill="#000000" stroke="none">
<path d="M3455 7031 c-6 -5 -48 -11 -95 -13 -47 -2 -94 -9 -105 -15 -11 -6
-47 -19 -80 -28 -121 -35 -271 -125 -380 -228 -38 -37 -76 -69 -83 -72 -7 -2
-15 -12 -19 -21 -3 -9 -15 -26 -27 -39 -12 -13 -26 -29 -31 -37 -6 -7 -40 -51
-76 -98 -36 -47 -71 -95 -77 -107 -7 -12 -18 -28 -26 -36 -8 -7 -47 -57 -88
-109 -189 -246 -427 -508 -593 -654 -121 -106 -133 -114 -176 -114 -21 0 -40
-4 -43 -9 -3 -4 -26 -14 -51 -21 -25 -7 -45 -17 -45 -23 0 -6 -3 -8 -6 -4 -8
7 -84 -36 -150 -84 -97 -71 -219 -245 -253 -361 -6 -21 -15 -53 -21 -70 -29
-98 -39 -311 -21 -435 58 -391 230 -668 535 -863 77 -49 160 -90 184 -90 10 0
25 -7 36 -15 10 -8 39 -17 65 -20 25 -3 74 -11 109 -17 41 -7 66 -7 75 0 6 5
35 12 62 15 53 5 126 31 188 66 21 12 39 21 41 21 6 0 -19 -104 -28 -119 -4
-7 -10 -27 -13 -44 -3 -17 -11 -44 -19 -59 -8 -15 -14 -36 -14 -47 0 -11 -4
-30 -9 -43 -6 -13 -19 -54 -29 -93 -48 -172 -74 -261 -82 -280 -5 -11 -11 -31
-13 -45 -3 -14 -14 -50 -26 -80 -21 -57 -44 -135 -67 -230 -7 -30 -16 -65 -20
-77 -8 -28 -4 -28 48 -2 73 37 130 106 161 195 46 129 162 520 173 584 3 14
11 48 19 75 44 152 94 379 125 565 22 132 27 428 9 507 -18 76 -53 183 -58
177 -9 -9 -30 -98 -31 -131 0 -17 -4 -35 -10 -38 -5 -3 -10 -18 -11 -33 0 -22
-29 -142 -78 -317 -38 -141 -163 -296 -263 -327 -68 -22 -153 -23 -221 -2 -63
19 -191 81 -227 110 -14 11 -40 29 -58 41 -38 23 -182 161 -219 210 -41 53
-60 89 -108 198 -7 17 -26 71 -42 120 -26 84 -28 101 -28 260 0 162 2 174 29
250 66 184 130 290 227 377 85 76 121 99 253 164 270 134 333 182 596 459 52
55 111 120 130 145 92 117 340 362 455 449 54 41 174 121 182 121 3 0 22 10
42 23 42 26 160 77 178 77 7 0 13 4 13 9 0 4 35 17 78 27 97 24 446 28 499 6
17 -8 49 -15 70 -16 21 -2 49 -8 63 -13 14 -6 41 -14 60 -18 19 -4 37 -10 40
-14 3 -3 43 -19 90 -35 47 -16 103 -40 125 -53 22 -13 62 -36 89 -51 60 -34
274 -191 353 -259 288 -250 351 -304 401 -341 31 -24 84 -69 117 -100 83 -78
123 -112 133 -112 5 0 21 -14 38 -31 27 -29 219 -179 229 -179 2 0 24 -13 47
-29 48 -33 185 -98 263 -126 28 -10 54 -22 59 -27 6 -4 25 -8 42 -8 18 0 35
-4 38 -9 4 -5 39 -14 79 -21 39 -6 81 -15 92 -20 11 -5 39 -11 63 -13 l42 -5
0 34 c0 27 -4 34 -20 34 -11 0 -28 4 -38 9 -9 6 -55 22 -102 36 -47 15 -101
35 -121 46 -20 10 -44 19 -53 19 -9 0 -16 5 -16 10 0 6 -8 10 -17 10 -10 0
-29 9 -43 20 -14 11 -30 20 -36 20 -7 0 -35 16 -64 35 -29 19 -54 35 -57 35
-20 0 -189 126 -272 203 -14 12 -34 29 -46 37 -13 8 -78 67 -146 132 -68 64
-149 138 -179 165 -30 26 -84 77 -120 113 -277 277 -573 507 -790 615 -41 21
-92 46 -112 56 -20 11 -42 19 -48 19 -5 0 -18 4 -28 9 -40 21 -91 40 -152 56
-36 9 -72 20 -81 25 -8 4 -58 13 -110 20 -52 7 -107 16 -123 21 -38 12 -139
12 -151 0z"/>
<path d="M5844 5676 c-9 -24 0 -68 16 -77 31 -17 86 -39 105 -42 11 -2 29 -7
40 -11 11 -5 34 -12 50 -18 17 -6 48 -18 70 -28 22 -10 56 -21 75 -25 19 -4
52 -16 72 -26 21 -11 42 -19 48 -19 6 0 30 -9 52 -20 23 -11 52 -20 64 -20 13
0 25 -4 29 -9 3 -5 22 -15 43 -21 20 -6 51 -18 67 -25 146 -66 227 -109 265
-142 56 -47 160 -155 160 -166 0 -5 13 -25 29 -45 28 -35 78 -129 116 -217 9
-22 20 -47 24 -55 4 -8 27 -76 51 -150 23 -74 48 -148 55 -165 25 -59 85 -242
85 -258 0 -9 6 -31 14 -49 7 -18 24 -60 36 -93 64 -174 132 -299 214 -394 31
-36 56 -73 56 -83 0 -9 16 -42 35 -73 20 -30 38 -63 42 -73 3 -9 14 -36 25
-60 36 -78 48 -143 48 -272 0 -102 -5 -144 -25 -220 -29 -114 -105 -272 -179
-378 -65 -92 -245 -279 -336 -349 -72 -55 -250 -166 -296 -183 -16 -6 -45 -18
-64 -27 -19 -8 -44 -19 -55 -23 -43 -18 -134 -39 -220 -50 -104 -13 -99 -13
-145 -6 -19 3 -56 8 -82 11 -27 4 -50 11 -54 16 -3 5 -13 9 -24 9 -60 0 -261
168 -309 259 -20 37 -1 128 58 274 6 15 11 38 11 51 0 12 3 25 6 29 4 3 17 39
31 79 13 40 28 82 33 93 5 11 14 38 21 60 7 22 16 45 20 50 3 6 14 34 23 62
10 29 22 56 28 59 5 3 24 -1 41 -9 44 -21 91 -34 167 -47 36 -6 79 -16 96 -21
39 -12 421 -12 428 0 3 5 29 12 58 15 80 10 86 18 36 52 -24 15 -59 40 -78 55
-31 23 -47 27 -145 33 -60 4 -144 13 -185 21 -41 8 -115 21 -165 30 -49 9 -97
19 -105 23 -8 3 -17 6 -20 7 -3 1 -12 4 -20 8 -8 3 -40 13 -70 22 -30 10 -68
23 -85 30 -16 8 -61 26 -100 41 -38 15 -82 35 -97 45 -14 11 -30 19 -35 19 -6
0 -41 20 -79 45 -38 24 -72 45 -76 45 -7 0 -138 88 -148 100 -3 3 -32 25 -65
50 -60 44 -346 324 -465 456 -63 69 -94 106 -248 298 -40 50 -80 100 -90 111
-9 11 -24 29 -32 42 -9 12 -34 41 -56 65 -50 55 -184 213 -204 242 -54 79
-243 276 -266 276 -6 0 -19 9 -30 21 -10 12 -62 46 -114 77 -52 30 -111 65
-130 77 -19 12 -60 31 -92 43 -51 19 -58 20 -69 5 -14 -16 0 -31 91 -101 91
-70 242 -209 287 -265 28 -34 60 -73 72 -87 19 -23 158 -193 187 -230 7 -8 32
-40 57 -71 24 -30 57 -73 73 -95 30 -41 45 -60 181 -223 43 -51 88 -108 100
-126 42 -62 435 -475 533 -560 25 -21 79 -68 120 -104 118 -104 189 -156 270
-199 19 -10 44 -23 55 -30 47 -26 232 -111 258 -117 15 -4 27 -9 27 -11 0 -2
-31 -68 -69 -147 -38 -78 -83 -178 -101 -222 -17 -44 -36 -89 -41 -100 -5 -11
-22 -56 -38 -100 -26 -70 -83 -210 -111 -270 -5 -11 -23 -57 -41 -103 -22 -58
-35 -80 -42 -73 -6 6 -18 11 -26 11 -17 0 -88 34 -146 70 -19 12 -35 19 -35
16 0 -4 -11 1 -25 10 -13 9 -51 18 -85 21 -76 7 -76 0 -10 -96 28 -40 50 -75
50 -79 0 -3 6 -13 14 -21 41 -47 111 -210 135 -316 25 -107 34 -305 20 -405
-7 -47 -12 -96 -11 -110 1 -32 -42 -173 -68 -225 -11 -21 -20 -45 -20 -51 0
-12 37 -30 45 -22 12 13 63 118 57 118 -4 0 -2 4 3 8 6 4 23 40 39 79 15 40
32 75 37 79 5 3 9 14 9 25 0 10 4 27 10 37 9 16 33 96 35 117 1 6 7 21 15 35
8 14 15 31 16 38 1 7 27 91 57 185 31 95 59 188 62 207 4 19 11 41 15 50 4 8
16 42 26 75 9 33 20 65 23 70 3 6 7 19 8 29 2 11 9 37 17 59 l13 40 16 -32
c26 -53 109 -146 164 -185 28 -20 54 -36 58 -36 4 0 19 -8 33 -19 15 -10 50
-26 77 -36 28 -10 55 -22 61 -27 34 -25 304 -37 409 -18 33 6 75 14 93 17 17
3 32 10 32 14 0 5 11 9 24 9 13 0 37 6 53 14 15 8 80 40 143 70 64 30 124 64
135 75 10 12 23 21 29 21 10 0 123 89 188 148 111 100 165 159 275 297 40 49
83 104 97 121 15 18 26 35 26 38 0 4 15 30 33 59 56 90 88 165 118 269 35 123
23 415 -18 457 -9 8 -10 17 -4 25 6 7 3 25 -10 50 -10 22 -19 44 -19 49 0 5
-20 51 -45 104 -25 52 -45 97 -45 99 0 3 -27 49 -60 104 -33 55 -60 102 -60
105 0 5 -15 30 -87 143 -19 29 -43 74 -54 100 -11 26 -24 56 -29 67 -5 11 -14
38 -21 60 -6 22 -15 49 -20 60 -4 11 -15 47 -24 80 -32 118 -48 171 -66 220
-10 28 -21 61 -25 75 -3 14 -22 66 -41 115 -97 251 -294 525 -479 665 -54 41
-84 60 -93 60 -6 0 -27 11 -47 25 -20 14 -42 25 -49 25 -7 0 -18 6 -24 14 -6
7 -24 16 -39 19 -15 3 -40 11 -57 18 -16 7 -32 13 -35 14 -3 1 -12 4 -20 7 -8
3 -37 12 -65 18 -27 7 -54 17 -59 21 -6 5 -29 9 -52 9 -24 0 -45 4 -48 9 -4 5
-30 12 -59 16 -28 4 -77 14 -107 22 -30 8 -66 16 -80 18 -14 2 -63 13 -110 24
-47 12 -93 23 -103 26 -9 2 -22 7 -27 10 -6 3 -13 0 -16 -9z"/>
<path d="M2187 4895 c-54 -8 -104 -18 -110 -23 -7 -5 -19 -9 -28 -9 -9 0 -32
-7 -50 -15 -19 -9 -63 -30 -99 -46 -66 -31 -186 -134 -228 -198 -23 -33 -72
-158 -72 -180 0 -33 135 29 216 98 52 45 226 138 257 138 3 0 18 5 34 12 15 6
39 13 53 15 13 2 29 8 35 12 12 11 51 18 130 26 33 3 74 8 90 11 37 6 235 -14
250 -26 5 -4 26 -11 45 -15 50 -10 173 -65 250 -111 19 -11 56 -33 83 -47 26
-15 67 -38 90 -51 49 -28 155 -48 142 -27 -14 23 -156 155 -208 194 -29 21
-63 47 -76 57 -13 10 -71 42 -130 71 -141 70 -134 67 -175 74 -20 4 -36 11
-36 15 0 5 -8 9 -17 9 -10 0 -56 7 -103 15 -104 18 -213 18 -343 1z"/>
<path d="M2835 2530 c-16 -5 -92 -17 -167 -26 -76 -10 -138 -20 -138 -24 0 -3
-16 -6 -35 -7 -20 -1 -42 -6 -50 -13 -7 -6 -19 -10 -27 -9 -7 1 -20 0 -28 -4
-51 -20 -139 -47 -152 -47 -15 0 -157 -98 -194 -135 -74 -72 -114 -166 -114
-267 0 -97 45 -191 136 -284 82 -84 198 -191 238 -219 15 -11 49 -36 75 -56
48 -38 252 -176 286 -195 11 -6 36 -20 55 -31 188 -110 441 -253 447 -253 2 0
28 -11 56 -24 82 -38 130 -57 135 -52 8 9 -10 26 -28 26 -10 0 -21 4 -24 8 -3
5 -42 31 -88 57 -46 27 -138 85 -205 129 -67 45 -136 90 -155 101 -75 45 -229
149 -257 174 -13 11 -27 21 -31 21 -4 0 -35 24 -68 53 -33 28 -82 70 -108 92
-227 190 -319 330 -300 457 17 110 137 217 301 267 22 7 49 17 60 22 11 5 34
11 50 12 17 2 37 6 45 10 25 9 164 26 273 33 56 4 107 11 113 16 14 10 135 9
149 -2 6 -5 78 -10 160 -13 172 -6 216 -10 300 -26 33 -6 89 -14 125 -16 35
-3 71 -8 80 -12 17 -7 168 -42 220 -49 19 -3 49 -11 65 -19 17 -7 54 -18 83
-25 28 -7 55 -16 58 -21 3 -5 16 -9 30 -9 13 0 32 -4 42 -9 9 -6 46 -22 82
-37 74 -30 182 -83 255 -124 28 -16 59 -33 71 -38 11 -6 33 -21 50 -35 16 -13
47 -35 69 -49 22 -14 61 -46 87 -70 26 -25 62 -58 80 -74 40 -36 138 -149 138
-159 0 -5 10 -22 23 -39 22 -29 34 -50 77 -136 22 -44 56 -168 65 -235 22
-182 12 -419 -21 -483 -7 -15 -14 -31 -14 -36 0 -4 -14 -26 -31 -47 -43 -54
-135 -106 -212 -119 -116 -20 -416 -6 -432 21 -4 5 -16 9 -28 9 -12 0 -55 9
-94 19 -40 10 -73 15 -73 11 0 -9 115 -80 129 -80 6 0 19 -4 29 -9 31 -16 67
-29 107 -41 22 -6 49 -15 60 -20 11 -5 36 -11 55 -14 19 -3 58 -9 85 -15 80
-16 223 -13 280 5 77 25 106 42 163 98 105 101 165 291 179 561 9 179 -26 334
-115 514 -82 165 -80 163 -187 289 -43 51 -152 156 -185 179 -19 13 -57 41
-85 63 -27 22 -66 47 -85 56 -19 9 -42 22 -50 29 -14 12 -103 61 -192 106 -20
11 -42 19 -48 19 -5 0 -10 5 -10 10 0 6 -13 10 -28 10 -15 0 -32 4 -37 9 -6 4
-32 16 -60 26 -27 10 -54 22 -60 26 -5 4 -30 12 -55 19 -25 6 -52 14 -60 17
-8 3 -28 8 -45 10 -16 3 -34 8 -40 13 -11 9 -140 40 -195 47 -19 2 -42 7 -50
10 -19 7 -23 8 -140 22 -52 7 -104 17 -115 23 -25 14 -705 21 -750 8z"/>
</g>
</svg>
