<?xml version="1.0" standalone="no"?>
<!DOCTYPE svg PUBLIC "-//W3C//DTD SVG 20010904//EN"
 "http://www.w3.org/TR/2001/REC-SVG-20010904/DTD/svg10.dtd">
<svg version="1.0" xmlns="http://www.w3.org/2000/svg"
 width="53.000000pt" height="97.000000pt" viewBox="0 0 53.000000 97.000000"
 preserveAspectRatio="xMidYMid meet">

<g transform="translate(0.000000,97.000000) scale(0.100000,-0.100000)"
fill="#000000" stroke="none">
<path d="M480 718 c0 -138 3 -248 7 -245 3 4 15 0 25 -10 17 -16 18 -7 18 245
l0 262 -25 0 -25 0 0 -252z"/>
<path d="M493 415 c-9 -10 -13 -56 -13 -151 0 -157 15 -264 36 -264 12 0 14
38 14 215 0 220 -4 239 -37 200z"/>
</g>
</svg>
