<?xml version="1.0" standalone="no"?>
<!DOCTYPE svg PUBLIC "-//W3C//DTD SVG 20010904//EN"
 "http://www.w3.org/TR/2001/REC-SVG-20010904/DTD/svg10.dtd">
<svg version="1.0" xmlns="http://www.w3.org/2000/svg"
 width="120.000000pt" height="120.000000pt" viewBox="0 0 120.000000 120.000000"
 preserveAspectRatio="xMidYMid meet">

<g transform="translate(0.000000,120.000000) scale(0.100000,-0.100000)"
fill="#000000" stroke="none">
<path d="M553 1064 c-3 -8 -3 -35 0 -59 6 -38 4 -46 -14 -55 -11 -6 -24 -23
-30 -38 -8 -21 -6 -31 11 -54 l20 -27 -51 -158 c-28 -87 -66 -206 -85 -265
-30 -93 -66 -246 -63 -266 1 -4 31 85 68 198 l68 205 104 3 104 2 65 -201 c35
-110 66 -196 68 -190 7 20 -30 174 -64 268 -19 52 -34 99 -34 104 0 7 21 10
54 7 56 -3 80 9 70 36 -4 10 -16 13 -40 10 -19 -2 -49 -6 -67 -8 l-33 -4 -43
128 c-41 121 -42 130 -27 151 25 36 20 66 -15 91 -21 16 -29 28 -25 43 9 32
-5 95 -21 95 -7 0 -16 -7 -20 -16z m55 -130 c30 -21 28 -81 -2 -76 -10 2 -23
-2 -27 -10 -7 -11 -9 -11 -9 1 0 7 -6 11 -14 8 -21 -8 -39 19 -32 48 4 14 17
30 29 35 30 12 30 12 55 -6z m18 -226 c20 -62 39 -119 42 -125 3 -10 -19 -13
-88 -13 -70 0 -91 3 -87 13 2 6 19 63 38 125 18 62 39 112 45 112 7 0 29 -51
50 -112z"/>
</g>
</svg>
