<?xml version="1.0" encoding="UTF-8" standalone="no"?>
<svg width="44px" height="44px" viewBox="0 0 44 44" version="1.1" xmlns="http://www.w3.org/2000/svg" xmlns:xlink="http://www.w3.org/1999/xlink" xmlns:sketch="http://www.bohemiancoding.com/sketch/ns">
    <!-- Generator: Sketch 3.4.3 (16618) - http://www.bohemiancoding.com/sketch -->
    <title>link-intern</title>
    <desc>Created with Sketch.</desc>
    <defs></defs>
    <g id="Page-1" stroke="none" stroke-width="1" fill="none" fill-rule="evenodd" sketch:type="MSPage">
        <g id="link-intern" sketch:type="MSLayerGroup">
            <g id="Ebene_1" sketch:type="MSShapeGroup">
                <g id="Design">
                    <path d="M22,0.2 C10.1,0.2 0.5,10 0.5,22 C0.5,34 10.1,43.8 22,43.8 C33.9,43.8 43.4,34.1 43.4,22 C43.5,9.9 33.9,0.2 22,0.2 L22,0.2 Z" id="Shape" fill="#7BBB3C"></path>
                    <path d="M31.5,20.1 L25.8,25.8 C24.2,27.4 21.7,27.4 20.1,25.8 L18.2,23.9 L20.1,22 L22,23.9 C22.5,24.4 23.4,24.4 23.9,23.9 L29.6,18.2 C30.1,17.7 30.1,16.8 29.6,16.3 L27.7,14.4 C27.2,13.9 26.3,13.9 25.8,14.4 L23.8,16.4 C22.9,15.8 21.8,15.6 20.7,15.7 L23.9,12.5 C25.5,10.9 28,10.9 29.6,12.5 L31.5,14.4 C33.1,15.9 33.1,18.5 31.5,20.1 L31.5,20.1 Z M20.2,27.6 L18.2,29.6 C17.7,30.1 16.8,30.1 16.3,29.6 L14.4,27.7 C13.9,27.2 13.9,26.3 14.4,25.8 L20.1,20.1 C20.6,19.6 21.5,19.6 22,20.1 L23.9,22 L25.8,20.1 L23.9,18.2 C22.3,16.6 19.8,16.6 18.2,18.2 L12.5,23.9 C10.9,25.5 10.9,28 12.5,29.6 L14.4,31.5 C16,33.1 18.5,33.1 20.1,31.5 L23.3,28.3 C22.3,28.4 21.2,28.2 20.2,27.6 L20.2,27.6 Z" id="Shape" fill="#FFFFFF"></path>
                </g>
            </g>
        </g>
    </g>
</svg>