<?xml version="1.0" encoding="utf-8"?>
<!-- Generator: Adobe Illustrator 18.0.0, SVG Export Plug-In . SVG Version: 6.00 Build 0)  -->
<!DOCTYPE svg PUBLIC "-//W3C//DTD SVG 1.1//EN" "http://www.w3.org/Graphics/SVG/1.1/DTD/svg11.dtd">
<svg version="1.1" id="Capa_1" xmlns="http://www.w3.org/2000/svg" xmlns:xlink="http://www.w3.org/1999/xlink" x="0px" y="0px"
	 viewBox="0 0 350 350" enable-background="new 0 0 350 350" xml:space="preserve">
<path fill="#7BBB3B" d="M123.7,69.3v-15c0-2.7,2.2-4.9,4.9-4.9h92.7c2.7,0,4.9,2.2,4.9,4.9v15c0,2.7-2.2,4.9-4.9,4.9h-92.7
	C126,74.3,123.7,72.1,123.7,69.3z M203.4,26.2C202.2,11.6,190,0,175,0c-15,0-27.2,11.6-28.4,26.2H203.4z M296.7,85.4v233.5
	c0,17.2-14,31.1-31.1,31.1H84.4c-17.2,0-31.1-14-31.1-31.1V85.4c0-17.2,14-31.1,31.1-31.1h16.2c0,0,0,0,0,0v15
	c0,15.5,12.6,28.1,28.1,28.1h92.7c15.5,0,28.1-12.6,28.1-28.1v-15c0,0,0,0,0,0h16.2C282.8,54.3,296.7,68.2,296.7,85.4z M136.1,221.3
	c-5.4-3.4-12.6-1.7-15.9,3.8l-10.9,17.8l-5.6-4.4c-5-4-12.3-3.1-16.3,1.9c-4,5-3.1,12.3,1.9,16.3l15.8,12.5c2.1,1.6,4.6,2.5,7.2,2.5
	c0.7,0,1.4-0.1,2-0.2c3.2-0.6,6.1-2.5,7.8-5.3l17.8-28.8C143.2,231.8,141.5,224.7,136.1,221.3z M136.1,138
	c-5.4-3.4-12.6-1.7-15.9,3.8l-10.9,17.8l-5.6-4.4c-5-4-12.3-3.1-16.3,1.9c-4,5-3.1,12.3,1.9,16.3l15.8,12.5c2.1,1.6,4.6,2.5,7.2,2.5
	c0.7,0,1.4-0.1,2-0.2c3.2-0.6,6.1-2.5,7.8-5.3l17.8-28.8C143.2,148.5,141.5,141.4,136.1,138z M255.9,260c0-6.4-5.2-11.6-11.6-11.6
	h-75.6c-6.4,0-11.6,5.2-11.6,11.6c0,6.4,5.2,11.6,11.6,11.6h75.6C250.7,271.6,255.9,266.4,255.9,260z M255.9,176.7
	c0-6.4-5.2-11.6-11.6-11.6h-75.6c-6.4,0-11.6,5.2-11.6,11.6c0,6.4,5.2,11.6,11.6,11.6h75.6C250.7,188.2,255.9,183.1,255.9,176.7z"/>
</svg>
