<?xml version="1.0" encoding="utf-8"?>
<!-- Generator: Adobe Illustrator 18.0.0, SVG Export Plug-In . SVG Version: 6.00 Build 0)  -->
<!DOCTYPE svg PUBLIC "-//W3C//DTD SVG 1.1//EN" "http://www.w3.org/Graphics/SVG/1.1/DTD/svg11.dtd">
<svg version="1.1" id="Capa_1" xmlns="http://www.w3.org/2000/svg" xmlns:xlink="http://www.w3.org/1999/xlink" x="0px" y="0px"
	 viewBox="0 0 350 350" enable-background="new 0 0 350 350" xml:space="preserve">
<path fill="#7BBB3B" d="M336.1,0H13.9C6.2,0,0,6.2,0,13.9v322.2c0,7.7,6.2,13.9,13.9,13.9h322.2c7.7,0,13.9-6.2,13.9-13.9V13.9
	C350,6.2,343.8,0,336.1,0z M117.6,279.1c0,7.7-6.2,13.9-13.9,13.9H63.4c-7.7,0-13.9-6.2-13.9-13.9v-40.3c0-7.7,6.2-13.9,13.9-13.9
	h40.3c7.7,0,13.9,6.2,13.9,13.9V279.1z M117.6,189.7c0,7.7-6.2,13.9-13.9,13.9H63.4c-7.7,0-13.9-6.2-13.9-13.9v-40.3
	c0-7.7,6.2-13.9,13.9-13.9h40.3c7.7,0,13.9,6.2,13.9,13.9V189.7z M117.6,100.3c0,7.7-6.2,13.9-13.9,13.9H63.4
	c-7.7,0-13.9-6.2-13.9-13.9V60c0-7.7,6.2-13.9,13.9-13.9h40.3c7.7,0,13.9,6.2,13.9,13.9V100.3z M298.3,272.8H164.5
	c-7.7,0-13.9-6.2-13.9-13.9c0-7.7,6.2-13.9,13.9-13.9h133.8c7.7,0,13.9,6.2,13.9,13.9C312.2,266.6,306,272.8,298.3,272.8z
	 M298.3,183.4H164.5c-7.7,0-13.9-6.2-13.9-13.9c0-7.7,6.2-13.9,13.9-13.9h133.8c7.7,0,13.9,6.2,13.9,13.9
	C312.2,177.2,306,183.4,298.3,183.4z M298.3,94.1H164.5c-7.7,0-13.9-6.2-13.9-13.9s6.2-13.9,13.9-13.9h133.8
	c7.7,0,13.9,6.2,13.9,13.9S306,94.1,298.3,94.1z"/>
</svg>
