<?xml version="1.0" standalone="no"?>
<!DOCTYPE svg PUBLIC "-//W3C//DTD SVG 20010904//EN"
 "http://www.w3.org/TR/2001/REC-SVG-20010904/DTD/svg10.dtd">
<svg version="1.0" xmlns="http://www.w3.org/2000/svg"
 width="120.000000pt" height="120.000000pt" viewBox="0 0 120.000000 120.000000"
 preserveAspectRatio="xMidYMid meet">
<metadata>
Created by potrace 1.15, written by Peter Selinger 2001-2017
</metadata>
<g transform="translate(0.000000,120.000000) scale(0.100000,-0.100000)"
fill="#000000" stroke="none">
<path d="M581 1091 c-10 -6 -12 -25 -9 -65 4 -48 2 -59 -13 -67 -40 -21 -47
-70 -13 -103 12 -13 3 -49 -72 -276 -77 -234 -123 -414 -111 -426 2 -3 32 82
66 188 34 106 64 199 66 206 4 9 30 12 107 10 l102 -3 66 -203 c37 -111 70
-205 75 -210 4 -4 5 2 2 13 -4 11 -11 52 -18 90 -6 39 -29 121 -50 184 -22 62
-39 115 -39 118 0 3 24 3 53 1 39 -2 58 1 71 13 28 27 1 39 -72 30 -73 -9 -59
-26 -119 147 -33 95 -34 104 -19 121 23 25 20 67 -6 91 -12 11 -25 20 -28 20
-4 0 -5 24 -2 53 4 56 -11 84 -37 68z m70 -386 c21 -64 39 -120 39 -123 0 -4
-40 -6 -90 -4 -49 2 -90 6 -90 9 0 8 72 237 77 246 10 17 25 -13 64 -128z"/>
</g>
</svg>
