<?xml version="1.0" encoding="utf-8"?>
<!-- Generator: Adobe Illustrator 18.1.1, SVG Export Plug-In . SVG Version: 6.00 Build 0)  -->
<svg version="1.1" id="Ebene_1" xmlns="http://www.w3.org/2000/svg" xmlns:xlink="http://www.w3.org/1999/xlink" x="0px" y="0px"
	 viewBox="0 0 100 100" enable-background="new 0 0 100 100" xml:space="preserve">
<path fill="#7CBA3D" d="M56.8,35.7l27.7,25.9c-0.9,0.5-1.9,0.8-3,0.8H6.3c-0.7,0-1.4-0.2-2.1-0.4L31,36.1l10.9,10.1
	c0.5,0.5,1.2,0.8,1.9,0.8c0.7,0,1.4-0.3,2-0.8L56.8,35.7z M84.6,1c-0.9-0.5-2-0.9-3.1-0.9H6.3c-1.5,0-2.9,0.6-3.9,1.5l41.5,38.7
	L84.6,1z M60.9,31.7l26.7,24.9c0-0.2,0-0.4,0-0.5V6.3c0-0.1,0.1-0.2,0.1-0.3L60.9,31.7z M0,7.3v48.8c0,0.6,0.1,1.1,0.3,1.6
	l26.5-25.5L0,7.3z M12.6,67.3H75v26.5c0,3.4-2.7,6.2-6.1,6.2H19.1c-3.4,0-6.4-2.8-6.4-6.2L12.6,67.3L12.6,67.3z M22.4,76.3
	c0,1.6,1.3,2.9,2.9,2.9h37.3c1.6,0,2.9-1.3,2.9-2.9s-1.3-2.9-2.9-2.9H25.3C23.7,73.4,22.4,74.7,22.4,76.3z M22.4,88.4
	c0,1.6,1.3,2.9,2.9,2.9h28.5c1.6,0,2.9-1.3,2.9-2.9s-1.3-2.9-2.9-2.9H25.3C23.7,85.6,22.4,86.9,22.4,88.4z"/>
</svg>
