<?xml version="1.0" encoding="utf-8"?>
<!-- Generator: Adobe Illustrator 18.0.0, SVG Export Plug-In . SVG Version: 6.00 Build 0)  -->
<!DOCTYPE svg PUBLIC "-//W3C//DTD SVG 1.1//EN" "http://www.w3.org/Graphics/SVG/1.1/DTD/svg11.dtd">
<svg version="1.1" id="Capa_1" xmlns="http://www.w3.org/2000/svg" xmlns:xlink="http://www.w3.org/1999/xlink" x="0px" y="0px"
	 viewBox="0 0 47 47" enable-background="new 0 0 47 47" xml:space="preserve">
<g>
	<g id="Layer_1_110_">
		<g>
			<path fill="#7BBB3B" d="M17.6,15.9l-2.9-2.7c0.3-0.6,0.5-1.3,0.5-2C15.2,8.9,13.3,7,11,7s-4.2,1.9-4.2,4.2s1.9,4.2,4.2,4.2
				c0.8,0,1.6-0.2,2.2-0.7l2.9,2.7C16.5,16.9,17,16.4,17.6,15.9z"/>
			<path fill="#7BBB3B" d="M29.7,15.6l3.8-6.4c0.4,0.1,0.8,0.2,1.2,0.2c2.3,0,4.2-1.9,4.2-4.2c0-2.3-1.9-4.2-4.2-4.2
				c-2.3,0-4.2,1.9-4.2,4.2c0,1.2,0.5,2.2,1.2,3l-3.8,6.4C28.5,14.8,29.1,15.2,29.7,15.6z"/>
			<path fill="#7BBB3B" d="M42.8,21c-1.8,0-3.4,1.2-4,2.8l-5.3-0.5c0,0,0,0.1,0,0.1c0,0.7-0.1,1.4-0.2,2l5.3,0.5
				c0.3,2,2.1,3.6,4.2,3.6c2.3,0,4.2-1.9,4.2-4.2C47,22.9,45.1,21,42.8,21z"/>
			<path fill="#7BBB3B" d="M28.2,37.6L27,32.5c-0.7,0.2-1.4,0.4-2.1,0.5l1.2,5.2c-1.4,0.7-2.3,2.1-2.3,3.7c0,2.3,1.9,4.2,4.2,4.2
				c2.3,0,4.2-1.9,4.2-4.2C32.3,39.6,30.5,37.7,28.2,37.6z"/>
			<path fill="#7BBB3B" d="M14.4,25.4l-6.6,2.2c-0.8-1.2-2.1-1.9-3.5-1.9c-2.3,0-4.2,1.9-4.2,4.2c0,2.3,1.9,4.2,4.2,4.2
				c2.3,0,4.2-1.9,4.2-4.2c0-0.1,0-0.2,0-0.3l6.6-2.2C14.7,26.8,14.5,26.1,14.4,25.4z"/>
			<circle fill="#7BBB3B" cx="23.8" cy="23.3" r="7.3"/>
		</g>
	</g>
</g>
</svg>
