<svg width="24" height="24" viewBox="0 0 24 24" xmlns="http://www.w3.org/2000/svg"><path d="M15.75 13.25H15c-.828 0-1.5-.67-1.5-1.5v-.482c.328-.398.573-.858.72-1.353.027-.076.08-.14.15-.182.286-.303.335-.76.12-1.117-.042-.044-.067-.1-.07-.162 0-.44 0-.88-.01-1.32.01-.54-.178-1.065-.53-1.475-.31-.312-.708-.518-1.14-.59-.54-.105-1.096-.092-1.63.04-.47.11-.884.39-1.16.787-.232.353-.357.766-.36 1.188-.01.448-.01.9-.01 1.344-.01.083-.044.162-.1.224-.2.385-.11.856.22 1.138.066.07.108.157.12.25.15.443.38.853.68 1.21v.5c0 .83-.672 1.5-1.5 1.5h-.75c-1.028.408-1.842 1.223-2.25 2.25v.75c0-.333.02 1.75 5.93 1.75 6.09 0 6.07-2.083 6.07-1.75v-.75c-.407-1.028-1.222-1.843-2.25-2.25z" fill="#A9A9A9" fill-rule="evenodd"/></svg>