<?xml version="1.0" encoding="utf-8"?>
<!-- Generator: Adobe Illustrator 18.0.0, SVG Export Plug-In . SVG Version: 6.00 Build 0)  -->
<!DOCTYPE svg PUBLIC "-//W3C//DTD SVG 1.1//EN" "http://www.w3.org/Graphics/SVG/1.1/DTD/svg11.dtd">
<svg version="1.1" id="Layer_1" xmlns="http://www.w3.org/2000/svg" xmlns:xlink="http://www.w3.org/1999/xlink" x="0px" y="0px"
	 viewBox="0 0 350 350" enable-background="new 0 0 350 350" xml:space="preserve">
<path fill="#7BBB3B" d="M35,235.2c-17.9,0-32.5,14.5-32.5,32.5c0,17.9,14.5,32.5,32.5,32.5s32.5-14.5,32.5-32.5
	C67.5,249.7,53,235.2,35,235.2z M35,283.9c-9,0-16.2-7.3-16.2-16.2c0-9,7.3-16.2,16.2-16.2s16.2,7.3,16.2,16.2
	C51.3,276.6,44,283.9,35,283.9z M285,203.7l-44.2,27.4c-0.8-1.9-1.3-4-1.3-6.2v-43c0-2,0.4-3.9,1.1-5.6L285,203.7z M246.3,169
	c2.5-1.7,5.6-2.8,8.9-2.8h79.3c2.8,0,5.4,0.8,7.7,2.1l-48.5,30L246.3,169z M302.3,203.7l46.2-28.6c1,2,1.6,4.3,1.6,6.7v43
	c0,2.6-0.7,5.1-1.9,7.2L302.3,203.7z M231.6,248.4h82.7v16.5H235c-0.9-13.8-8.7-25.7-20-32.3v0c0.1,0,0.1,0.1,0.2,0.1l-0.2-0.4V66.4
	h16.5V248.4z M341.5,238.7c-2.1,1.1-4.5,1.8-7.1,1.8h-79.3c-3.1,0-5.9-0.9-8.3-2.5l46.8-29L341.5,238.7z M285,120.6L240.8,148
	c-0.8-1.9-1.3-4-1.3-6.2v-43c0-2,0.4-3.9,1.1-5.6L285,120.6z M246.3,85.9c2.5-1.7,5.6-2.8,8.9-2.8h79.3c2.8,0,5.4,0.8,7.7,2.1
	l-48.5,30L246.3,85.9z M302.3,120.6L348.4,92c1,2,1.6,4.3,1.6,6.7v43c0,2.6-0.7,5.1-1.9,7.2L302.3,120.6z M341.5,155.6
	c-2.1,1.1-4.5,1.8-7.1,1.8h-79.3c-3.1,0-5.9-0.9-8.3-2.5l46.8-29L341.5,155.6z M129.5,63.5c-4.2-8.3-12.8-13.6-22.1-13.6H53.8
	c-9.1,0-16.5,7.4-16.5,16.5v86.8H20.7C9.3,153.2,0,162.5,0,173.9v72.9c7.1-12,20.1-19.9,35-19.9c21.5,0,39.2,16.8,40.7,38h78
	c1.4-21.2,19.1-38,40.7-38c7.5,0,14.6,2.1,20.6,5.6v-0.3L129.5,63.5z M160.8,186.5H67.2c-2.3,0-4.1-1.9-4.1-4.1V79.6
	c0-2.3,1.8-4.1,4.1-4.1H108c1.6,0,3,0.9,3.7,2.2l52.8,102.8C165.9,183.2,163.9,186.5,160.8,186.5z M194.4,235.2
	c-17.9,0-32.5,14.5-32.5,32.5c0,17.9,14.5,32.5,32.5,32.5s32.5-14.5,32.5-32.5C226.9,249.7,212.3,235.2,194.4,235.2z M194.4,283.9
	c-9,0-16.2-7.3-16.2-16.2c0-9,7.3-16.2,16.2-16.2s16.2,7.3,16.2,16.2C210.6,276.6,203.4,283.9,194.4,283.9z"/>
</svg>
