<?xml version="1.0" encoding="utf-8"?>
<!-- Generator: Adobe Illustrator 18.1.1, SVG Export Plug-In . SVG Version: 6.00 Build 0)  -->
<svg version="1.1" id="Ebene_1" xmlns="http://www.w3.org/2000/svg" xmlns:xlink="http://www.w3.org/1999/xlink" x="0px" y="0px"
	 viewBox="0 0 100 100" enable-background="new 0 0 100 100" xml:space="preserve">
<g>
	<g>
		<path fill="#6BB12E" d="M50.4,2C24.1,2,2.9,23.3,2.9,49.8s21.2,47.7,47.5,47.7s47.5-21.4,47.5-47.7S76.5,2,50.4,2z M50.4,84.5
			c-19,0-34.5-15.5-34.5-34.7S31.3,15,50.4,15s34.5,15.5,34.5,34.7S69.4,84.5,50.4,84.5z"/>
	</g>
	<g>
		<polygon fill="#FFFFFF" points="56.8,9.5 45.9,18.1 45.5,0.5 		"/>
		<path fill="#6BB12E" d="M45.7,18.6L45.3,0l11.9,9.5L45.7,18.6z M45.8,1l0.4,16.6l10.3-8.1L45.8,1z"/>
	</g>
	<g>
		<g>
			<polygon fill="#FFFFFF" points="90.6,61.8 82,50.7 99.5,50.4 			"/>
			<path fill="#6BB12E" d="M90.6,62.2l-9.1-11.7l18.5-0.3L90.6,62.2z M82.5,50.9l8.1,10.4L99,50.7L82.5,50.9z"/>
		</g>
	</g>
	<g>
		<polygon fill="#FFFFFF" points="43.3,90.5 54.3,81.9 54.6,99.5 		"/>
		<path fill="#6BB12E" d="M54.8,100l-11.9-9.5l11.6-9.1L54.8,100z M43.7,90.5L54.3,99L54,82.4L43.7,90.5z"/>
	</g>
	<g>
		<polygon fill="#FFFFFF" points="9.4,40.9 18,51.9 0.5,52.2 		"/>
		<path fill="#6BB12E" d="M0,52.4l9.4-11.9l9.1,11.6L0,52.4z M9.4,41.3L1,51.9l16.5-0.3L9.4,41.3z"/>
	</g>
</g>
</svg>
