<?xml version="1.0" encoding="iso-8859-1"?>
<!-- Generator: Adobe Illustrator 16.0.0, SVG Export Plug-In . SVG Version: 6.00 Build 0)  -->
<!DOCTYPE svg PUBLIC "-//W3C//DTD SVG 1.1//EN" "http://www.w3.org/Graphics/SVG/1.1/DTD/svg11.dtd">
<svg version="1.1" id="Capa_1" xmlns="http://www.w3.org/2000/svg" xmlns:xlink="http://www.w3.org/1999/xlink" x="0px" y="0px"
	 width="684.032px" height="684.031px" viewBox="0 0 684.032 684.031" style="enable-background:new 0 0 684.032 684.031;"
	 xml:space="preserve">
<g>
	<g>
		<path d="M304.132,384.674c0.049,0.117,0.103,0.227,0.156,0.338c0.098,0.303,0.208,0.596,0.337,0.885
			c15.297,34.518,35.734,71.094,54.673,97.844c25.958,36.666,47.808,54.49,66.8,54.49c0.129,0,0.263,0,0.392-0.008
			c7.919-0.352,15.048-1.107,21.676-2.287c23.074-3.781,45.168-12.246,65.671-25.172c2.217-1.395,3.7-3.695,4.064-6.289
			c0.106-0.766,2.559-18.967-1.839-40.967c-5.961-29.854-21.707-52.471-45.532-65.41c-1.853-1.004-3.953-1.514-6.25-1.514
			c-8.279,0-19.682,7.568-25.083,11.529c-5.574,2.062-11.708,0.275-13.543-3.873l-53.341-121.251c-1.87-4.21,1-9.79,6.312-12.561
			c26.007-4.926,27.957-13.579,28.605-16.448c15.884-70.433-46.466-106.669-47.101-107.024c-2.021-1.146-4.415-1.453-6.658-0.857
			c-23.142,6.143-44.347,16.697-62.917,31.288c-5.348,4.06-10.647,8.737-16.195,14.298c-4.739,4.02-17.43,16.399-4.198,83.114
			C277.335,310.95,290.349,353.049,304.132,384.674z M286.099,205.028c0.204-0.173,0.399-0.351,0.586-0.542
			c5.06-5.09,9.839-9.328,14.729-13.041c15.777-12.397,33.566-21.521,52.928-27.153c10.799,7.285,45.959,35.183,35.935,83.999
			c-2.714,1.563-9.75,3.735-16.009,4.873c-0.697,0.129-1.386,0.337-2.034,0.626c-14.893,6.623-22.142,22.959-16.177,36.383
			l53.332,121.242c4.131,9.336,13.895,15.369,24.874,15.369c4.389,0,8.711-0.916,12.854-2.715c0.636-0.275,1.239-0.625,1.795-1.043
			c5.086-3.82,11.726-7.637,14.587-8.502c37.973,21.795,38.03,69.375,37.146,83.482c-17.417,10.373-36.027,17.23-55.479,20.414
			c-5.911,1.053-12.21,1.721-19.246,2.039c-20.405-0.301-66.049-54.078-104.661-140.869c-0.16-0.699-0.409-1.377-0.737-2.021
			c-0.164-0.32-0.329-0.613-0.493-0.875C289.274,305.656,273.791,215.373,286.099,205.028z"/>
		<path d="M609.934,0H122.819c-21.454,0-38.906,16.093-38.906,35.872v79.614h-10.78c-20.463,0-37.115,16.937-37.115,37.755
			c0,20.818,16.652,37.755,37.115,37.755h10.776v115.486H73.133c-20.814,0-37.115,15.608-37.115,35.534
			c0,19.926,16.301,35.535,37.115,35.535h10.776v115.486H73.133c-20.463,0-37.115,16.936-37.115,37.754s16.652,37.756,37.115,37.756
			h10.776v79.613c0,19.779,17.452,35.871,38.905,35.871h487.12c21.001,0,38.079-16.092,38.079-35.871V35.872
			C648.018,16.093,630.935,0,609.934,0z M630.25,648.16c0,11.332-10.326,18.105-20.312,18.105h-487.12
			c-10.208,0-21.139-7.275-21.139-18.105v-88.498c0-4.902-3.98-8.883-8.883-8.883H73.133c-10.487,0-19.348-9.154-19.348-19.988
			s8.861-19.988,19.348-19.988h19.66c4.903,0,8.883-3.979,8.883-8.883V368.666c0-4.902-3.98-8.883-8.883-8.883h-19.66
			c-11.211,0-19.348-7.471-19.348-17.768c0-10.295,8.137-17.767,19.348-17.767h19.66c4.903,0,8.883-3.98,8.883-8.883V182.112
			c0-4.903-3.98-8.883-8.883-8.883h-19.66c-10.487,0-19.348-9.154-19.348-19.988s8.861-19.988,19.348-19.988h19.66
			c4.903,0,8.883-3.979,8.883-8.883V35.872c0-10.829,10.927-18.104,21.138-18.104h487.12c9.985,0,20.312,6.774,20.312,18.104V648.16
			H630.25z"/>
		<path d="M581.391,53.301H150.54c-4.904,0-8.883,3.98-8.883,8.884v62.185c0,4.904,3.979,8.883,8.883,8.883h22.018
			c10.487,0,19.348,9.155,19.348,19.988s-8.861,19.988-19.353,19.988h-22.018c-4.904,0-8.883,3.98-8.883,8.883v133.253
			c0,4.903,3.979,8.883,8.883,8.883h22.018c11.211,0,19.348,7.471,19.348,17.767c0,10.297-8.137,17.768-19.348,17.768h-22.018
			c-4.904,0-8.883,3.98-8.883,8.883V501.92c0,4.904,3.979,8.883,8.883,8.883h22.018c10.487,0,19.348,9.154,19.348,19.988
			s-8.861,19.988-19.348,19.988h-22.018c-4.904,0-8.883,3.98-8.883,8.883v62.186c0,4.904,3.979,8.883,8.883,8.883h430.852
			c4.903,0,8.884-3.979,8.884-8.883V62.185C590.275,57.281,586.295,53.301,581.391,53.301z M572.508,612.963H159.424v-44.416h13.134
			c20.463,0,37.115-16.938,37.115-37.756s-16.652-37.754-37.115-37.754h-13.134V377.551h13.134
			c20.814,0,37.115-15.609,37.115-35.535c0-19.925-16.301-35.534-37.115-35.534h-13.134V190.996h13.134
			c20.463,0,37.115-16.937,37.115-37.755c0-20.819-16.652-37.755-37.12-37.755h-13.134V71.068h413.084v541.895H572.508z"/>
	</g>
</g>
<g>
</g>
<g>
</g>
<g>
</g>
<g>
</g>
<g>
</g>
<g>
</g>
<g>
</g>
<g>
</g>
<g>
</g>
<g>
</g>
<g>
</g>
<g>
</g>
<g>
</g>
<g>
</g>
<g>
</g>
</svg>
