<?xml version="1.0" encoding="utf-8"?>
<!-- Generator: Adobe Illustrator 18.0.0, SVG Export Plug-In . SVG Version: 6.00 Build 0)  -->
<!DOCTYPE svg PUBLIC "-//W3C//DTD SVG 1.1//EN" "http://www.w3.org/Graphics/SVG/1.1/DTD/svg11.dtd">
<svg version="1.1" id="Capa_1" xmlns="http://www.w3.org/2000/svg" xmlns:xlink="http://www.w3.org/1999/xlink" x="0px" y="0px"
	 viewBox="0 0 47 47" enable-background="new 0 0 47 47" xml:space="preserve">
<g>
	<g id="Layer_1_157_">
		<path fill="#7BBB3B" d="M47,15V2.1C47,1,46,0,44.9,0H32c-1.2,0-2.1,1-2.1,2.1v5.3c-10.4,0-19.2,7.2-21.7,16.8L6,23.9
			c-0.4-0.1-0.8,0.1-1,0.4c-0.2,0.3-0.3,0.8-0.1,1.1L7.2,30C3.1,30.7,0,34.2,0,38.5C0,43.2,3.8,47,8.5,47c4.4,0,7.9-3.3,8.5-7.5h7.6
			v2.1c0,0.4,0.2,0.8,0.6,1c0.4,0.2,0.8,0.1,1.1-0.1l3.7-2.8c0.6,4.1,4.2,7.3,8.4,7.3c4.7,0,8.5-3.8,8.5-8.5c0-4.3-3.3-7.9-7.5-8.5
			v-7.6h2.1c0.4,0,0.8-0.2,1-0.6c0.2-0.4,0.1-0.8-0.1-1.1l-2.7-3.6h5.1C46,17.1,47,16.1,47,15z M8.5,42.7c-2.4,0-4.3-1.9-4.3-4.3
			s1.9-4.3,4.3-4.3s4.3,1.9,4.3,4.3S10.9,42.7,8.5,42.7z M42.7,38.5c0,2.4-1.9,4.3-4.3,4.3s-4.3-1.9-4.3-4.3s1.9-4.3,4.3-4.3
			S42.7,36.1,42.7,38.5z M34.3,21.8c0.2,0.4,0.6,0.6,1,0.6h2.1V30c-3.8,0.5-6.8,3.4-7.4,7.2l-3.7-2.8c-0.3-0.2-0.8-0.3-1.1-0.1
			c-0.4,0.2-0.6,0.6-0.6,1v2.1H17c-0.5-3.9-3.6-6.9-7.4-7.4c0,0,0,0,0-0.1c0,0,0,0,0,0l3.2-3c0.3-0.3,0.4-0.7,0.3-1.1
			c-0.1-0.4-0.4-0.7-0.8-0.7l-2-0.4C12.6,16,20.5,9.6,29.9,9.6V15c0,1.2,1,2.1,2.1,2.1h5.1l-2.7,3.6C34.2,21,34.1,21.5,34.3,21.8z
			 M42.7,12.8h-8.5V4.3h8.5V12.8z"/>
	</g>
</g>
</svg>
