<svg class="logo" xmlns:svg="http://www.w3.org/2000/svg" xmlns="http://www.w3.org/2000/svg"  version="1.1"  viewBox="0 0 475 183.75" >
    <path d="m 67.450989,128.73456 c -0.07435,-1.39904 12.880375,-19.18127 17.604185,-24.1643 3.168735,-3.34261 5.005205,-4.31903 3.90541,-4.31903 -0.258275,0 -2.1168,1.18852 -4.188745,2.27885 -3.292222,1.73248 -4.47172,2.59992 -7.53041,4.06179 -7.346045,3.51095 -29.324817,12.93747 -29.576965,12.68532 -0.217555,-0.21756 17.731719,-10.05016 32.26571,-17.67515 C 100.11318,91.013405 102.87792,89.47609 109.16236,85.34767 118.37014,79.29882 123.15663,74.706175 121.99389,72.999055 120.8788,71.3619 115.54056,71.37623 110.75,71.37623 c -6.0629,0 -17.142621,1.22141 -29.989256,3.305965 -6.00569,0.97451 -10.99463,1.69664 -11.08654,1.60473 -0.1992,-0.1992 12.72851,-4.16429 30.00597,-9.203205 11.311416,-3.29894 16.033366,-4.973255 35.398966,-12.551798 7.59752,-2.973216 10.45167,-4.97869 13.55474,-9.524268 l 2.45371,-3.594349 -1.37543,-2.078414 c -2.2911,-3.462092 -5.67914,-6.47492 -8.94029,-7.950185 -4.08073,-1.846027 -10.61864,-4.197035 -27.0917,-6.518838 -14.350051,-2.022575 -14.022156,-1.764965 -40.999996,-4.005344 -15.835657,-1.315075 -55.75,-4.352693 -55.75,-4.961985 0,-0.166186 11.53125,-1.475631 25.625,-2.909879 29.352945,-2.987097 53.61569,-4.2920141 80.624996,-4.3362343 17.20545,-0.028169 21.35388,0.326489 30,2.5647613 10.03964,2.59902 15.19031,5.264787 17.86382,9.245547 1.65574,2.465344 1.72807,3.783186 0.3553,6.47404 -0.95601,1.87393 -0.97333,2.108549 -0.23848,3.230081 0.94675,1.444927 2.9693,1.601446 4.78311,0.370151 0.67994,-0.461573 2.843,-2.350157 4.80681,-4.196853 4.04316,-3.802045 6.50198,-5.218384 11.03697,-4.348292 3.70269,0.710407 6.07237,1.984058 8.11868,4.61 l 3.69589,4.742773 -5.21105,-1.480982 c -3.47109,-0.986486 -6.23392,1.37471 -8.11868,5.031502 -1.66331,3.227153 -1.58849,4.363484 0.61836,9.391603 1.72142,3.922087 1.88609,6.047868 0.79344,10.242824 -1.50872,5.792374 -5.25918,11.685524 -9.45084,14.850264 -4.65136,3.511805 -15.21408,8.18866 -25.55333,11.31424 -6.08955,1.840885 -28.01354,6.567435 -32.25,6.952715 -7.30793,0.664605 -16.58477,4.591875 -26.749996,11.32437 -8.74449,5.79154 -14.060505,10.61663 -20.637605,18.73178 -6.966965,8.59618 -9.562375,11.58125 -9.59158,11.03161 z M 156.91812,77.0107 c 2.26211,-0.54372 6.13227,-2.052475 7.98922,-2.89446 3.92705,-1.78061 13.70192,-7.185595 17.16874,-10.24645 4.29316,-3.790435 5.59557,-8.297536 3.11465,-10.778462 -1.36926,-1.369254 -2.21885,-1.319223 -6.17701,0.363748 -3.16285,1.34481 -4.81364,1.204573 -6.03653,-0.512812 -1.35996,-1.909886 -3.54624,-2.770842 -5.91368,-2.328804 -1.54229,0.287969 -1.40854,1.143515 -6.04474,5.855073 -6.01232,6.110042 -7.40227,8.647357 -14.98946,11.139407 -3.31277,1.0881 -9.10026,2.792675 -9.64957,4.35414 -0.4937,1.403378 0.0719,3.898725 1.61183,5.04138 0.72128,0.53518 2.07128,1.168255 3,1.40683 2.59208,0.66586 11.33322,-0.29555 15.92655,-1.39959 z"/>
    <text style="transform:translate(200px, 75px); z-index:1002; font-size:3rem; font-family:sans-serif;">опнярнп</text>
</svg>