<?xml version="1.0" encoding="utf-8"?>
<!-- Generator: Adobe Illustrator 18.1.1, SVG Export Plug-In . SVG Version: 6.00 Build 0)  -->
<svg version="1.1" id="Capa_1" xmlns="http://www.w3.org/2000/svg" xmlns:xlink="http://www.w3.org/1999/xlink" x="0px" y="0px"
	 viewBox="0 0 100 100" enable-background="new 0 0 100 100" xml:space="preserve">
<g>
	<g>
		<g>
			<path fill="#7BBB3B" d="M50.1,93.2H6.4V6.7h47.1v13.1c0,1.3,1.1,2.4,2.4,2.4h12.7v43c2.2,0.1,4.4,0.5,6.5,1.2V18.6
				c0-0.5-0.2-1-0.6-1.4L58.1,0.8c-0.4-0.4-0.9-0.6-1.4-0.6H5.8C2.6,0.2,0,2.8,0,6v87.8c0,3.2,2.6,5.8,5.8,5.8h49
				C52.9,97.8,51.3,95.6,50.1,93.2z"/>
			<path fill="#7BBB3B" d="M91.7,74c0-1.1-0.4-2.1-1.2-2.9l-3-3c-0.8-0.8-1.8-1.2-2.9-1.2s-2.1,0.4-2.9,1.2l-4.6,4.6
				c-2.5-1.8-5.5-2.8-8.8-2.8c-8.3,0-15.1,6.8-15.1,15.1s6.8,15,15.1,15s15.1-6.8,15.1-15.1c0-0.3,0-0.7,0-1l7.1-7.1
				C91.3,76.1,91.7,75.1,91.7,74z M87.3,74.9L72.8,89.3c-0.3,0.3-0.7,0.5-1.2,0.5l0,0c-0.4,0-0.8-0.2-1.2-0.5l-6.7-6.7
				c-0.6-0.6-0.6-1.7,0-2.3L65,79c0.6-0.6,1.7-0.6,2.3,0l4.3,4.3l12.1-12.1c0.3-0.3,0.7-0.5,1.2-0.5c0.4,0,0.8,0.2,1.2,0.5l1.3,1.3
				C87.9,73.2,87.9,74.2,87.3,74.9z"/>
			<path fill="#7BBB3B" d="M40.5,26l-13.6,3.1L30,15.5c-4.8-1.2-10,0.1-13.7,3.8c-5.6,5.6-5.6,14.8,0,20.4s14.8,5.6,20.4,0
				C40.4,36,41.7,30.8,40.5,26z"/>
			<path fill="#7BBB3B" d="M40.6,15.4c-1.9-1.9-4.2-3.2-6.7-3.8l-3.1,13.6l13.6-3.1C43.8,19.6,42.5,17.3,40.6,15.4z"/>
			<g>
				<path fill="#7BBB3B" d="M17.1,59.4h5c1.4,0,2.5-1.1,2.5-2.5s-1.1-2.5-2.5-2.5h-5c-1.4,0-2.5,1.1-2.5,2.5S15.7,59.4,17.1,59.4z"
					/>
				<path fill="#7BBB3B" d="M36.2,63.6H17c-1.4,0-2.5,1.1-2.5,2.5s1.1,2.5,2.5,2.5h19.2c1.4,0,2.5-1.1,2.5-2.5S37.6,63.6,36.2,63.6z
					"/>
				<path fill="#7BBB3B" d="M33.4,72.8H17.1c-1.4,0-2.5,1.1-2.5,2.5s1.1,2.5,2.5,2.5h16.3c1.4,0,2.5-1.1,2.5-2.5
					C35.9,74,34.8,72.8,33.4,72.8z"/>
			</g>
		</g>
	</g>
</g>
</svg>
