<?xml version="1.0" ?><!DOCTYPE svg  PUBLIC '-//W3C//DTD SVG 1.1//EN'  'http://www.w3.org/Graphics/SVG/1.1/DTD/svg11.dtd'><svg enable-background="new 0 0 64 64" height="64px" id="Icons" version="1.1" viewBox="0 0 64 64" width="64px" xml:space="preserve" xmlns="http://www.w3.org/2000/svg" xmlns:xlink="http://www.w3.org/1999/xlink"><g id="bug_search_2_"><g><path d="M58,52L44,38c-0.583-0.583-1.291-0.875-2-0.875c-0.253,0-0.504,0.051-0.75,0.125l-1.979-1.979    C41.604,32.116,43,28.227,43,24c0-10.495-8.505-19-19-19S5,13.505,5,24s8.505,19,19,19c4.227,0,8.115-1.396,11.271-3.729    l1.979,1.979C36.969,42.189,37.209,43.209,38,44l14,14c0.583,0.583,1.291,0.875,2,0.875s1.417-0.292,2-0.875l2-2    C59.166,54.834,59.166,53.166,58,52z M24,42c-9.926,0-18-8.075-18-18S14.074,6,24,6s18,8.075,18,18S33.926,42,24,42z     M37.733,40.319l-1.653-1.653c0.943-0.777,1.809-1.644,2.586-2.586l1.654,1.653C40.211,37.817,40.102,37.898,40,38l-2,2    C37.898,40.102,37.817,40.211,37.733,40.319z M57.293,55.293l-2,2c-0.381,0.381-0.828,0.582-1.293,0.582s-0.912-0.201-1.293-0.582    l-14-14c-0.773-0.773-0.773-1.813,0-2.586l2-2c0.381-0.381,0.828-0.582,1.293-0.582s0.912,0.201,1.293,0.582l14,14    C58.066,53.48,58.066,54.52,57.293,55.293z" fill="#37474F"/></g><g><g><path d="M24,8C15.178,8,8,15.178,8,24s7.178,16,16,16s16-7.178,16-16S32.822,8,24,8z M24,39     c-8.284,0-15-6.716-15-15S15.716,9,24,9s15,6.716,15,15S32.284,39,24,39z" fill="#37474F"/></g></g><path d="M36.343,23.637l-3.188-3c-0.067-0.063-0.15-0.107-0.241-0.126l-3.52-0.731l2.354-1.345   C31.904,18.346,32,18.18,32,18v-4c0-0.275-0.224-0.5-0.5-0.5S31,13.725,31,14v3.711l-2.196,1.254   c-0.326-0.876-1.048-1.553-1.949-1.824c-0.195-0.652-0.603-1.205-1.144-1.588l1.689-2.252c0.166-0.221,0.121-0.535-0.101-0.7   c-0.22-0.165-0.534-0.12-0.7,0.101l-1.813,2.416C24.535,15.049,24.274,15,24,15s-0.535,0.049-0.787,0.118L21.4,12.701   c-0.167-0.223-0.48-0.268-0.7-0.101c-0.222,0.165-0.267,0.479-0.101,0.7l1.69,2.252c-0.541,0.385-0.954,0.936-1.149,1.589   c-0.898,0.272-1.619,0.948-1.944,1.823L17,17.711V14c0-0.275-0.224-0.5-0.5-0.5S16,13.725,16,14v4c0,0.18,0.096,0.346,0.252,0.435   l2.354,1.345l-3.52,0.731c-0.09,0.019-0.174,0.063-0.241,0.126l-3.188,3c-0.201,0.189-0.21,0.506-0.021,0.707   C11.734,24.447,11.867,24.5,12,24.5c0.123,0,0.246-0.045,0.343-0.135l3.085-2.904l2.846-0.591   c-0.402,0.589-0.677,1.242-0.864,1.938l-2.814,3.9c-0.042,0.058-0.071,0.124-0.085,0.194l-1,5   c-0.055,0.271,0.121,0.534,0.393,0.588c0.033,0.008,0.066,0.01,0.098,0.01c0.234,0,0.443-0.164,0.49-0.401l0.979-4.894l1.588-2.199   C17.011,25.663,17,26.334,17,27c0,3.125,1.834,7,7,7s7-4.063,7-7c0-0.667-0.012-1.338-0.057-1.996l1.588,2.201l0.979,4.894   c0.048,0.237,0.256,0.401,0.489,0.401c0.033,0,0.066-0.002,0.099-0.01c0.271-0.054,0.447-0.316,0.393-0.588l-1-5   c-0.014-0.07-0.043-0.137-0.085-0.194l-2.815-3.901c-0.188-0.695-0.463-1.349-0.864-1.938l2.847,0.592l3.085,2.904   c0.097,0.09,0.22,0.135,0.343,0.135c0.133,0,0.266-0.053,0.364-0.156C36.554,24.143,36.544,23.826,36.343,23.637z M25.715,17   h-3.431c0.345-0.594,0.979-1,1.716-1S25.369,16.406,25.715,17z M22,18h4c1.104,0,2,0.898,2,2v0.076C25.436,20.426,24,22,24,22   s-1.379-1.581-4-1.926V20C20,18.898,20.896,18,22,18z M18,27c0-2.314,0.113-4.514,1.41-5.988c2.477,0.146,3.779,1.582,3.832,1.641   l0.258,0.297v10.027C19.458,32.739,18,29.66,18,27z M24.5,32.975V22.933l0.238-0.257c0.061-0.066,1.427-1.512,3.852-1.662   C29.887,22.488,30,24.688,30,27C30,29.146,28.818,32.715,24.5,32.975z" fill="#37474F"/></g></svg>