<?xml version="1.0" encoding="utf-8"?>
<!-- Generator: Adobe Illustrator 18.1.1, SVG Export Plug-In . SVG Version: 6.00 Build 0)  -->
<svg version="1.1" id="Capa_1" xmlns="http://www.w3.org/2000/svg" xmlns:xlink="http://www.w3.org/1999/xlink" x="0px" y="0px"
	 viewBox="0 0 100 100" enable-background="new 0 0 100 100" xml:space="preserve">
<g>
	<path fill="#7BBB3B" d="M71.3,38.1c0-2-1.6-3.6-3.6-3.6c-1.7,0-3.5,1.2-3.5,2.8v11.9c0,0.6-0.5,1.2-1.1,1.2s-1-0.5-1-1V29.1
		c0-2-1.6-3.6-3.6-3.6c-1.7,0-3.6,1.2-3.6,3V49c0,0.6-0.5,1.1-1.1,1.1s-1.1-0.5-1.1-1.1V21.8c0-1-0.4-1.9-1.1-2.5
		c-0.7-0.7-1.6-1.1-2.5-1.1c-2,0-3.6,1.6-3.6,3.5v27.1c0,0.3-0.1,0.6-0.3,0.8s-0.5,0.3-0.8,0.3c-0.6,0-1.1-0.5-1.1-1.1V34.1
		c0-2.7,0-4.8,0-5l0,0c0-1.9-1.9-3.1-3.6-3.1c-2,0-3.6,1.6-3.6,3.6v29.7c0,0.5-0.4,1-1.1,1c-0.5,0-1.1-0.3-1.6-0.9l-3.5-3.5
		c-0.8-0.8-1.9-1.3-3-1.3c-1,0-1.9,0.4-2.7,1.1c-1.5,1.5-1.6,3.9-0.1,6l0,0c0.1,0.2,2.7,4.5,7.4,8.6c4.4,3.9,11.6,8.6,20.8,8.6
		C68.6,78.9,71,68.4,71,62.1L71.3,38.1z"/>
	<path fill="#7BBB3B" d="M85.4,14.6C75.9,5.2,63.4,0,50,0S24.1,5.2,14.6,14.6S0,36.6,0,50s5.2,25.9,14.6,35.4
		C24,94.8,36.6,100,50,100s25.9-5.2,35.4-14.6C94.8,76,100,63.4,100,50S94.8,24.1,85.4,14.6z M50,94C25.7,94,6,74.3,6,50
		S25.7,6,50,6s44,19.7,44,44S74.3,94,50,94z"/>
</g>
</svg>
