<?xml version="1.0" encoding="utf-8"?>
<!-- Generator: Adobe Illustrator 18.1.1, SVG Export Plug-In . SVG Version: 6.00 Build 0)  -->
<svg version="1.1" id="Ebene_1" xmlns="http://www.w3.org/2000/svg" xmlns:xlink="http://www.w3.org/1999/xlink" x="0px" y="0px"
	 viewBox="0 0 100 100" enable-background="new 0 0 100 100" xml:space="preserve">
<g>
	<path fill="#7CBA3D" d="M42.9,50.1c0-0.8-0.1-4.7-2.7-9.4C37.6,36,32,31,23.2,28.8c-5.5-1.5-7.1-3.5-8-5.1c-0.5-0.8-0.7-1.5-0.8-2
		c0-0.2-0.1-0.3-0.1-0.4c0.3-4.5,1.4-4.8,3.2-6c0.9-0.5,2.1-0.8,2.9-0.9c0.4-0.1,0.8-0.1,0.9-0.1s0.1,0,0.1,0
		c4.6,0.2,4.9,1.4,6.1,3.2c0.5,0.9,0.8,2.1,0.9,2.9c0.1,0.4,0.1,0.8,0.1,1c0,0.1,0,0.2,0,0.2l2.3-0.1h12c0-0.6,0-5-2.5-10.3
		C37.9,5.8,31.1-0.2,21.4,0c-0.6,0-5-0.1-10.3,2.5C5.8,4.9-0.2,11.7,0,21.4c0,0.8,0.1,4.7,2.7,9.3c0.8,1.4,1.8,2.8,3.1,4.2
		c-1.5,1.5-2.6,3.1-3.3,4.7C-0.1,44.9,0,49.4,0,50c0,0.8,0.1,4.7,2.7,9.3c2.6,4.7,8.2,9.7,17,11.9c5.5,1.5,7.1,3.5,8,5.1
		c0.5,0.8,0.7,1.5,0.8,2c0,0.2,0.1,0.3,0.1,0.4c-0.3,4.5-1.4,4.8-3.2,6c-0.9,0.5-2.1,0.8-2.9,0.9c-0.4,0.1-0.8,0.1-1,0.1
		c-0.1,0-0.1,0-0.2,0c-4.6-0.3-4.8-1.4-6-3.2c-0.5-0.9-0.8-2.1-0.9-2.9c-0.1-0.4-0.1-0.8-0.1-0.9s0-0.1,0-0.2l0,0l-2.4,0.1H0
		c0,0.6,0,5,2.5,10.3c2.3,5.2,8.9,11.1,18.3,11.1c0.2,0,0.4,0,0.6,0c0.6,0,5,0.1,10.3-2.5C37,95.1,43,88.3,42.8,78.6
		c0-0.8-0.1-4.7-2.7-9.4c-0.8-1.4-1.8-2.8-3.1-4.1c1.4-1.5,2.6-3.2,3.3-4.7C43,55.2,42.9,50.7,42.9,50.1z M27.4,54.4
		c-1.1,1.5-1.5,2.5-5.1,2.8c-4.7-1.4-6.2-3.4-7.1-4.8c-0.5-0.8-0.7-1.5-0.8-2c0-0.2-0.1-0.3-0.1-0.4c0-0.6,0.4-2.8,1.2-4.2
		c1.1-1.5,1.5-2.5,5.1-2.8c4.7,1.4,6.2,3.4,7.1,4.8c0.5,0.8,0.7,1.5,0.8,2c0,0.2,0.1,0.3,0.1,0.4C28.6,50.9,28.3,53,27.4,54.4z"/>
</g>
</svg>
