<?xml version="1.0" encoding="utf-8"?>
<!DOCTYPE svg PUBLIC "-//W3C//DTD SVG 1.1//EN" "http://www.w3.org/Graphics/SVG/1.1/DTD/svg11.dtd">
<svg version="1.1" xmlns="http://www.w3.org/2000/svg" x="0px" y="0px" viewBox="0 0 1000 1000" >
<path d="M983.4,753.5l-3.9-5.7c2.1,2-10.4-12.6-10.4-12.6s-11.8-13.7-42.6-39.2c-25.3-20.9-57-45-81.7-61.3c-30-19.8-50.8-32.5-49.5-31.7l-22-11c-9.7-4.8-25.8-5.3-37.1-1.4c-10.3,3.5-19.3,11.6-23.5,18.9c1.8-3.3-7.1,6.5-25.3,38.9c-7.8,14.1-16.9,34.1-27.9,53.7c-14.9,26.6-53.6,52.9-92.2,31.1c-48.9-27.7-111.9-65.9-176.4-127.3c-74.9-71-115.8-125.5-139-177.3c-8.5-18.9-4.6-58.4,26.3-73.4c30.5-14.9,48.1-18.6,67.4-30.2c17.5-10.9,14-7.3,34.4-20.6c0.8-0.6,7.3-6.3,8.3-6.9c0,0,1.5-1.5,2.8-2.8c12.8-12.1,16-28.2,9.6-44l-2.8-8.3c0,0-14.7-33.4-37.1-71.6c-11.9-20.2-29.2-45.4-42.6-63.3c-36.4-48.4-68.8-63.3-68.8-63.3s-9.1-4.8-13.8-6.9c-18.5-7.8-34.8-5.5-50.9,1.4c-34.8,12.9-54.6,30.5-81.6,52.6C44,139.6,2.8,206.8,11,265.4C23.9,357.2,139,559.2,289.5,702C440.1,844.9,653,954.2,749.4,966.3c64.8,8.3,119.8-24.9,174.4-75.2c19.3-17.7,44.4-46.8,57.3-74.5C988.5,801,995.6,770.9,983.4,753.5z"/>
</svg>