<?xml version="1.0" encoding="utf-8"?>
<!-- Generator: Adobe Illustrator 22.1.0, SVG Export Plug-In . SVG Version: 6.00 Build 0)  -->
<svg version="1.1" id="Layer_1" xmlns="http://www.w3.org/2000/svg" xmlns:xlink="http://www.w3.org/1999/xlink" x="0px" y="0px"
	 viewBox="0 0 240 240" style="enable-background:new 0 0 240 240;" xml:space="preserve">
<g>
	<g>
		<path d="M76,207c0,7.9,6.4,14.4,14.4,14.4s14.4-6.4,14.4-14.4s-6.4-14.4-14.4-14.4C82.4,192.6,76,199.1,76,207z M84,207
			c0-3.5,2.8-6.3,6.3-6.3c3.5,0,6.3,2.8,6.3,6.3c0,3.5-2.8,6.3-6.3,6.3C86.8,213.3,84,210.5,84,207z"/>
	</g>
</g>
<g>
	<g>
		<path d="M31.5,207c0,7.9,6.4,14.4,14.4,14.4s14.4-6.4,14.4-14.4s-6.4-14.4-14.4-14.4C38,192.6,31.5,199.1,31.5,207z M39.6,207
			c0-3.5,2.8-6.3,6.3-6.3c3.5,0,6.3,2.8,6.3,6.3c0,3.5-2.8,6.3-6.3,6.3C42.4,213.3,39.6,210.5,39.6,207z"/>
	</g>
</g>
<g>
	<path d="M142.1,91c-1.8-0.7-3.8-1.1-5.7-1.8c0,0-0.1,0-0.1-0.1c0,0.5,0,1-0.1,1.5c0.2,0.2,0.3,0.5,0.3,0.9c0.2,3.2-1.1,6.3-2.6,9.1
		c-0.1,0.2-0.2,0.3-0.3,0.4l-0.2,1.1H8.5c-2.4,0-4.7,1.1-6.2,3c-1.5,1.9-2.1,4.3-1.6,6.7l11.2,54.5c0.8,3.7,4.1,6.4,7.9,6.4h99.2
		l-2.4,11.5H20.4c-2.2,0-4,1.8-4,4c0,2.2,1.8,4,4,4h96.1c3.8,0,7.1-2.7,7.9-6.4l16.5-80C140.4,100.8,141,95.8,142.1,91z
		 M120.6,164.6H19.7L8.5,110.1h123.3L120.6,164.6z"/>
</g>
<g>
	<path d="M217.6,28.9c-5.8,1.2-14.2,4.2-16.7,5.8c-3.2,2.1-6.5,6.5-8.5,11.6c-1.2,2.9-1.7,3.6-3.2,4.5c-1,0.5-1.9,0.8-2.1,0.5
		c-0.2-0.2,0.4-1.3,1.3-2.4c2.1-2.6,3.9-6.3,4.6-9.7c0.5-2.4,0.9-2.9,3.1-4.6c1.4-1.1,4-2.9,5.9-4.1c1.9-1.2,3.3-2.2,3.2-2.4
		c-0.5-0.7-10,4.4-12.5,6.6c-0.8,0.7-2.8,2-4.4,2.8c-4.2,2.3-7.7,6.6-9.7,12.1c-0.9,2.3-1.6,4.7-1.6,5.1c0,0.5-0.8,1.5-1.8,2.2
		c-2.5,1.9-3.5,1.7-1.9-0.4c1-1.3,3.1-8.1,3.2-10.4c0.1-1.6,0.5-2.4,3.1-5.3c1.7-2,4-4.4,5.1-5.5c1.2-1.1,2.1-2.1,1.9-2.2
		c-0.3-0.4-5.9,4.1-8.9,7.2c-1.5,1.5-3.6,3.4-4.7,4.2c-4.9,3.5-9.4,11.3-10,17.7c-0.2,2.3-0.5,3.1-1.6,4.3c-1.4,1.5-2.2,1.9-2.2,1
		c0-0.3,0.2-0.7,0.3-0.9c0.6-0.8,1.6-5.7,1.7-8.8c0.1-3,0.3-3.5,2.7-7.5c1.4-2.4,3.5-5.5,4.5-7c3.3-4.8,1.5-3.3-2.6,2.1
		c-2.2,3-5.9,7.6-8.2,10.3c-2.3,2.7-4.6,6-5.1,7.3c-1.4,3.2-2.5,8.2-2.6,11.5c-0.1,2.5-0.3,2.9-2,4.9c0,0,0,0,0,0
		c-0.9,0.9-2.4,0.2-2.3-1.1c0-0.1,0-0.3,0-0.4c0.5-4.5-0.5-12.6-2.1-17.4c-1.8-5.3-2.5-5.8-1.3-0.9c1.9,7.3,2.3,11.5,1.5,18.1
		c-0.5,4.2-1,6.4-2,8.6c-0.7,1.7-1.5,2.9-1.6,2.7c-0.2-0.1-0.3-3-0.2-6.4c0.1-5.2,0-6.6-0.8-8.7l-0.9-2.6l0.2,3.4
		c0.1,1.9,0,6.1-0.2,9.5c-0.3,7.1-1.1,10-3.6,13.6c-4.4,6.6-5.8,10.1-4.6,11.6c1.2,1.3,2.5,0,5.8-5.7c6-10.4,7.4-12.6,9.4-15.4
		c1.2-1.5,3.1-4,4.1-5.6c1.1-1.5,4.2-4.7,7-7c2.7-2.3,6.1-5.4,7.4-6.7c1.3-1.4,4.1-3.4,6.1-4.6c2-1.2,4.8-3,6.3-4.1
		c1.4-1.1,3.7-2.5,5-3.1c1.3-0.6,5.2-2.3,8.7-3.9c3.5-1.6,8.2-3.5,10.4-4.3c3.9-1.3,4.1-1.4,6.5-0.4c1.4,0.6,4.2,1.2,6.4,1.5
		c3.4,0.5,4.3,0.4,6.8-0.6c1.6-0.6,3.5-1.7,4.3-2.4c1.5-1.3,1.8-1.3,8.5-1.2c8.1,0.3,7.9-0.4-0.6-1.7c-3.2-0.5-7-1.4-8.5-2.1
		c-3-1.3-7.7-1.7-11.2-0.8c-1.1,0.2-3.4,1.4-5,2.6c-1.8,1.3-3.7,2.3-4.9,2.3l-1.9,0.2l1.1-1c2-1.8,5.2-6.2,6.6-9.4l1.2-2.6
		c0.1-0.3,0.4-0.6,0.7-0.7l3.4-1.3C223.2,28.2,224.2,27.4,217.6,28.9L217.6,28.9z"/>
	<path d="M197.7,53.2c-1.8,0.6-3.2,1.2-3.2,1.5c0,0.7,2.8,3.5,6,5.7c3.5,2.5,7.9,3.2,12.8,2c1.8-0.4,5-0.8,7.1-1
		c2.2-0.1,5.1-0.5,6.5-0.9c2.5-0.6,2.4-0.6-4.3-0.8l-6.4-0.1c-0.4,0-0.7-0.2-0.9-0.4l-1.8-1.9C208.8,52.6,203.8,51.3,197.7,53.2
		L197.7,53.2z"/>
	<path d="M184.6,59.1c-2.7,1.1-5.1,2.3-5.1,2.8c0,0.8,5.1,4.6,8.1,6c2.9,1.3,2.9,1.3,7.8,0.6c2.7-0.4,6-0.7,7.3-0.6
		c3.6,0.1,12.4-1.3,11.6-1.9c-0.4-0.3-0.9-0.4-1.1-0.2c-0.2,0.2-2.9,0.2-5.9,0.1l-5-0.2c-0.3,0-0.6-0.1-0.8-0.3l-2.9-2.4
		C193.3,58.7,188.9,57.5,184.6,59.1L184.6,59.1z"/>
	<path d="M172.7,66.9c-1.9,0.5-6,3-6,3.7c0,0.7,2.8,2.9,5.9,4.4c3.7,1.8,6.4,2,11.1,0.7c1.9-0.5,4.4-1,5.5-0.9
		c1.9,0.1,12.1-2.1,12.6-2.6c0.4-0.4-3-0.4-7.8,0.1l-4.1,0.5c-0.3,0-0.6,0-0.9-0.2l-4.5-2.8C179.2,66.3,176.9,65.8,172.7,66.9z
		 M160.7,77.3c-1.1,0.4-3.2,1.6-4.6,2.7c-2.3,1.9-2.5,2.2-1.8,2.9c4.5,4.6,14.5,4.8,19.6,0.3c0.8-0.6,2.6-1.2,4.7-1.5
		c1.9-0.3,5-0.9,6.8-1.4c2.8-0.8,3.1-1,1.6-1.1c-0.9-0.1-3.9,0.1-6.5,0.3c-4.7,0.4-4.9,0.4-8-1.1C168.9,76.6,164.3,76.2,160.7,77.3z
		 M149.9,88.4l-1.1,1.1l1.6-0.3c1.9-0.3,5.4,1.1,7.2,3c1.5,1.5,2.7,4.6,2.8,7c0.1,3.6-0.3,4.8-1.9,7c-1.8,2.4-1.7,2.8,0.2,1.1
		c2.8-2.4,3.7-9.5,1.8-13.7c-0.5-1.1-1.9-2.9-3.1-4C154.8,87.1,151.7,86.6,149.9,88.4L149.9,88.4z"/>
</g>
</svg>
