<?xml version="1.0" ?><!DOCTYPE svg  PUBLIC '-//W3C//DTD SVG 1.1//EN'  'http://www.w3.org/Graphics/SVG/1.1/DTD/svg11.dtd'><svg class="icon" height="30" p-id="1642" style="" t="1481209114489" version="1.1" viewBox="0 0 1024 1024" width="30" xmlns="http://www.w3.org/2000/svg" xmlns:xlink="http://www.w3.org/1999/xlink"><defs><style type="text/css"/></defs><path d="M867.957652 720.819296l0.172-72.257929s-47.691953-9.438991-48.476952-12.638988a188.508816 188.508816 0 0 0-2.907998-10.39199c5.574995-10.35899 32.436968-33.109968 32.436969-33.109968l-53.774948-71.64593s-34.862966 28.708972-43.530957 32.823968c-4.032996-1.558998-8.292992-2.970997-12.777988-4.265995-4.687995-1.159999-17.629983-47.110954-17.629983-47.110954l-72.395929-0.586s-7.832992 44.493957-19.559981 47.522954c-3.903996 1.140999-7.832992 2.634997-11.752988 4.412995-8.685992-4.223996-43.521957-33.371967-43.521958-33.371967l-53.775947 72.790929s26.960974 27.178973 28.770972 36.266964a149.356854 149.356854 0 0 0-3.217997 8.745992c-11.597989 4.043996-44.504957 10.55799-44.504957 10.55799l0.143 72.257929s38.300963 7.978992 45.572956 14.390986a146.603857 146.603857 0 0 0 5.100995 12.176988c-8.832991 11.039989-32.432968 29.461971-32.432969 29.461971l55.499946 72.23693s43.547957-28.192972 50.725951-29.812971a145.071858 145.071858 0 0 0 10.865989 4.272996c6.578994 2.294998 11.196989 44.351957 11.196989 44.351956l72.332929 0.16s2.420998-41.27896 7.719993-42.913958a142.392861 142.392861 0 0 0 15.371985-5.767994c6.074994 2.372998 34.646966 30.85197 34.646966 30.85197l71.50893-72.802929s-26.542974-18.321982-33.862967-28.204973a152.986851 152.986851 0 0 0 5.437995-12.611987c2.459998-6.588994 46.619954-15.788985 46.619954-15.788985z m-183.98982 54.758947c-50.380951 0-91.249911-40.83096-91.249911-91.221911 0-50.371951 40.86896-91.211911 91.249911-91.211911 50.372951 0 91.244911 40.83996 91.244911 91.211911 0 50.390951-40.87196 91.221911-91.244911 91.221911zM451.847059 498.163514c82.981919 0 167.471836-81.60092 167.471836-167.976836 0-86.342916-80.408921-174.24383-163.43484-174.24383-82.941919 0-165.467838 90.028912-165.467839 176.350827 0 86.373916 78.444923 165.869838 161.430843 165.869839z m36.503964 35.965964s-107.228895-11.504989-185.725819 34.014967c-78.492923 45.520956-125.478877 117.134886-146.248857 181.879823-10.40899 32.544968 141.587862 49.092952 292.756714 48.574952 50.161951-0.171 16.012984-41.33096 16.012985-93.610908 0-119.066884 101.649901-170.858833 23.204977-170.858834z" fill="#040000" p-id="1643"/></svg>