<?xml version="1.0" encoding="utf-8"?>
<!-- Generator: Adobe Illustrator 18.0.0, SVG Export Plug-In . SVG Version: 6.00 Build 0)  -->
<!DOCTYPE svg PUBLIC "-//W3C//DTD SVG 1.1//EN" "http://www.w3.org/Graphics/SVG/1.1/DTD/svg11.dtd">
<svg version="1.1" id="Layer_1" xmlns="http://www.w3.org/2000/svg" xmlns:xlink="http://www.w3.org/1999/xlink" x="0px" y="0px"
	 viewBox="0 0 350 350" enable-background="new 0 0 350 350" xml:space="preserve">
<path fill="#7BBB3B" d="M177.6,25h-7.7c-4.1,0-7.4-3.3-7.4-7.4v-0.3c0-9.6-7.7-17.3-17.3-17.3h-0.4c-9.6,0-17.3,7.7-17.3,17.3v0.3
	c0,4.1-3.3,7.4-7.4,7.4h-7.7c-8.2,0-14.9,6.6-14.9,14.9v0.3c0,8.2,6.6,14.9,14.9,14.9h65.3c8.2,0,14.9-6.6,14.9-14.9v-0.3
	C192.5,31.6,185.9,25,177.6,25z M145,25c-4.1,0-7.5-3.4-7.5-7.5s3.4-7.5,7.5-7.5s7.5,3.4,7.5,7.5S149.1,25,145,25z M178.4,315H52.5
	c-11,0-20-9-20-20V55c0-11,9-20,15-20H88c-0.3,1.7-0.5,3.4-0.5,5.2c0,13.7,11.1,24.8,24.9,24.8h65.3c13.7,0,24.9-11.1,24.9-25.2
	c0-1.7-0.2-3.3-0.5-4.8h30.5c16,0,25,9,25,20v150.3c-1.7-0.1-3.3-0.3-5-0.3c-6.9,0-13.6,1-20,2.6V90h-175v200h115.3
	C173.3,298.8,175.2,307.2,178.4,315z M252.5,220c-35.9,0-65,29.1-65,65s29.1,65,65,65s65-29.1,65-65S288.4,220,252.5,220z
	 M295,271.6l-40,45c-2,2.2-4.7,3.4-7.5,3.4c-2.2,0-4.4-0.7-6.2-2.2l-25-20c-4.3-3.4-5-9.7-1.6-14.1c3.4-4.3,9.7-5,14.1-1.6
	l17.6,14.1l33.7-37.9c3.7-4.1,10-4.5,14.1-0.8C298.3,261.2,298.6,267.5,295,271.6z M207.5,175h-80c-2.8,0-5-2.2-5-5v-5
	c0-2.8,2.2-5,5-5h80c2.8,0,5,2.2,5,5v5C212.5,172.8,210.3,175,207.5,175z M207.5,130h-80c-2.8,0-5-2.2-5-5v-5c0-2.8,2.2-5,5-5h80
	c2.8,0,5,2.2,5,5v5C212.5,127.8,210.3,130,207.5,130z M182.5,215h-55c-2.8,0-5-2.2-5-5v-5c0-2.8,2.2-5,5-5h55c2.8,0,5,2.2,5,5v5
	C187.5,212.8,185.3,215,182.5,215z M172.5,260h-45c-2.8,0-5-2.2-5-5v-5c0-2.8,2.2-5,5-5h45c2.8,0,5,2.2,5,5v5
	C177.5,257.8,175.3,260,172.5,260z M112.9,111.5l-18.4,20.7c-0.9,1-2.2,1.5-3.4,1.5c-1,0-2-0.3-2.9-1l-11.5-9.2
	c-2-1.6-2.3-4.5-0.7-6.5c1.6-2,4.5-2.3,6.5-0.7l8.1,6.5l15.5-17.5c1.7-1.9,4.6-2.1,6.5-0.4C114.4,106.7,114.6,109.6,112.9,111.5z
	 M112.9,156l-18.4,20.7c-0.9,1-2.2,1.5-3.4,1.5c-1,0-2-0.3-2.9-1L76.7,168c-2-1.6-2.3-4.5-0.7-6.5c1.6-2,4.5-2.3,6.5-0.7l8.1,6.5
	l15.5-17.5c1.7-1.9,4.6-2.1,6.5-0.4C114.4,151.2,114.6,154.1,112.9,156z M112.9,198.5l-18.4,20.7c-0.9,1-2.2,1.5-3.4,1.5
	c-1,0-2-0.3-2.9-1l-11.5-9.2c-2-1.6-2.3-4.5-0.7-6.5c1.6-2,4.5-2.3,6.5-0.7l8.1,6.5l15.5-17.5c1.7-1.9,4.6-2.1,6.5-0.4
	C114.4,193.7,114.6,196.6,112.9,198.5z M112.9,241.4l-18.4,20.7c-0.9,1-2.2,1.5-3.4,1.5c-1,0-2-0.3-2.9-1l-11.5-9.2
	c-2-1.6-2.3-4.5-0.7-6.5c1.6-2,4.5-2.3,6.5-0.7l8.1,6.5l15.5-17.5c1.7-1.9,4.6-2.1,6.5-0.4C114.4,236.6,114.6,239.5,112.9,241.4z"/>
</svg>
