<?xml version="1.0" encoding="UTF-8" standalone="no"?>
<svg
    xmlns="http://www.w3.org/2000/svg" xmlns:xlink="http://www.w3.org/1999/xlink"
   version="1.0"
   width="600px"
   height="300px"
   viewBox="0 0 592.000000 284.000000"
   preserveAspectRatio="none"
   id="svg3336"
>
  <text x="10" y="-95" style="font-size: 175px; font-weight: bold; font-family:serif; fill:#ce5c00" transform="translate(1,300)">Puratos</text>
  <path
     style="fill:#edd400"
     d="m 561.54992,20.90081 c -11,8.7 -20.4,15.9 -20.8,15.9 -0.5,0.1 -0.5,-2.8 -0.2,-6.4 0.4,-3.6 0.3,-6.5 -0.1,-6.5 -0.5,0 -2.89999,2.3 -5.39999,5.2 l -4.5,5.2 -0.6,-2.9 c -0.4,-1.7 -0.7,-5.4 -0.8,-8.3 0,-2.799999 -0.5,-5.199999 -0.9,-5.199999 -2.1,0 -8.3,10.899999 -10.2,17.899999 l -1.1,4.4 -2.5,-3.4 c -2.3,-3.3 -2.5,-3.4 -8.4,-3.1 l -6.1,0.4 2,3.2 c 1.1,1.7 2.5,4.4 3.1,6 1,2.9 1,2.8 -3.3,-1.1 -6.4,-5.9 -7.8,-6.5 -12.2,-5 l -3.7,1.3 2.4,2.9 c 3.7,4.6 5.9,8.5 4.9,8.5 -0.5,0 -1.3,-0.5 -1.7,-1.1 -0.3,-0.6 -3.3,-2.4 -6.6,-3.9 -6.4,-3 -6.3,-3 -11.7,0.6 -0.2,0.2 2.3,2.8 5.4,5.9 3.2,3.1 5.5,5.8 5.3,6.1 -0.3,0.2 -3,-0.7 -6,-2.1 -7.4,-3.4 -12.5,-3.7 -14.4,-0.9 -1.4,2 -1.1,2.3 5,6.3 7.3,4.7 9.3,6.8 5.5,5.7 -5.3,-1.5 -16.8,-1.9 -18.4,-0.6 -2.7,2.2 -1.6,3.4 5.3,6.3 11.9,4.7 12,5.5 1.1,4.9 -10.1,-0.5 -13.3,0.3 -14.1,3.6 -0.5,1.6 0.8,2.3 8.3,4.6 4.9,1.6 9.1,3.1 9.4,3.6 0.2,0.4 -3,1 -7.3,1.4 -10.4,0.9 -13.5,1.8 -14.9,4.7 -1.2,2.4 -1.2,2.4 5.5,3.5 3.7,0.7 8.3,1.6 10.2,2.2 l 3.5,0.9 -4,0.7 c -14.9,2.6 -18.1,3.90001 -18.9,7.80001 -0.3,1.7 -0.5,3.3 -0.3,3.5 0.2,0.2 3.6,-0.3 7.6,-1.2 4,-0.8 9.2,-1.5 11.5,-1.5 l 4.4,0 1.7,-6.70001 c 4,-16.4 12.8,-31.6 23.9,-42.1 6.3,-5.8 15.9,-11.4 22.1,-12.8 2.4,-0.5 1.7,0.2 -3.4,3.6 -17.3,11.7 -29.6,30.2 -33.4,50.3 l -1.4,7.50001 4.5,0.7 c 5.2,0.8 5.7,0.3 6.6,-6.70001 0.9,-6.5 5.1,-19.9 8.3,-26.3 5.9,-11.7 17.3,-24.6 26.4,-29.8 3.7,-2.1 3.9,-2.4 3.9,-7.3 0,-2.8 0.8,-7.5 1.7,-10.5 l 1.6,-5.4 1.4,6 c 3.1,13.4 3.1,13.5 6.2,13.5 2.2,0 6.49999,-3 18.09999,-12.6 8.3,-6.9 15.3,-12.399999 15.5,-12.199999 0.1,0.2 -5.1,6.799999 -11.6,14.599999 -6.6,7.9 -11.9,15 -11.9,15.8 0,0.8 1.6,2.2 3.5,3.1 1.9,0.9 3.5,1.9 3.5,2.2 0,0.3 -1.9,1.4 -4.3,2.5 -2.3,1 -3.6,2 -2.9,2.3 0.7,0.3 1.8,1.6 2.3,3 0.7,1.9 1.5,2.4 3.7,2.1 2.2,-0.2 2.7,-0.8 2.7,-3.1 -0.1,-3 2.4,-3.8 3.2,-0.9 0.2,1 2.3,3 4.6,4.5 2.3,1.4 7,5.1 10.3,8.1 4.9,4.4 6,6 5.7,7.9 -0.5,2.5 1.8,5.7 4.2,5.7 0.8,0 1.5,-1.2 1.7,-2.8 0.4,-2.6 0.4,-2.6 1.5,1 0.8,2.6 0.8,4.9 0.2,7.3 -1.3,4.5 -3.8,4.6 -11.9,0.5 -6.9,-3.5 -7.8,-3.6 -8.2,-1.2 -0.3,1.8 -0.6,1.8 -5.6,0.4 -3,-0.8 -5.6,-2.1 -5.8,-2.9 -1.4,-4.7 -1.2,-4.6 -4,-2.4 -6.5,5.1 -17.89999,2.9 -22.79999,-4.6 -3.2,-4.9 -4.6,-11.2 -3.5,-16 0.4,-2.1 0.6,-3.9 0.5,-4.1 -0.2,-0.2 -1.4,1.2 -2.7,3 -2.5,3.5 -2.8,7 -1.4,17.8 0.7,5.2 0.5,5.8 -2.8,10.5 -4.3,6.4 -7.5,12.50001 -9.7,19.00001 l -1.7,5 8.3,8.2 c 4.6,4.5 8.6,7.8 8.9,7.3 0.4,-0.7 6.5,-35.70001 6.5,-37.40001 0,-0.3 1.8,0.3 4,1.1 3.6,1.4 5.1,1.5 12.69999,0.3 7.7,-1.2 9.3,-1.2 15.1,0.3 3.5,0.9 7.8,2.8 9.4,4.3 3.8,3.10001 8.3,3.00001 8.2,-0.2 0,-1.9 0.4,-2.1 3.6,-1.7 4.3,0.6 4.7,0 5.6,-8.1 0.5,-3.9 0.2,-6.1 -1,-8.4 -0.9,-1.7 -7.5,-8 -14.7,-13.8 l -13.1,-10.7 2.3,-1.8 2.4,-1.9 -3.1,0 c -2,0 -3.9,-1 -5.8,-2.9 l -2.7,-2.9 15.8,-21.3 c 17.5,-23.4999986 17.8,-23.8999986 16.6,-23.7999986 -0.4,0 -9.8,7.1999996 -20.8,15.8999986 z"
     id="unicorn" />
  <text x="10" y="-50" style="font-size: 40px; font-weight: bold; font-style: italic; font-family:serif; fill:#edd400" transform="translate(10.000000,300.000000) scale(1,1)">Надійні партнери в інноваціях</text>
  <!-- <g
     transform="translate(0.000000,284.000000) scale(0.100000,-0.100000)"
     fill="#ce5c00"
     stroke="none"
     id="letters"
     >
    <path
       d="M3 1905 c2 -5 43 -24 90 -43 55 -21 92 -42 100 -55 9 -17 12 -133 12 -474 0 -420 -1 -454 -18 -470 -10 -10 -54 -32 -99 -49 -45 -17 -83 -35 -85 -40 -2 -5 128 -9 312 -9 199 0 314 4 312 10 -2 5 -44 25 -92 45 -65 25 -93 42 -102 60 -9 17 -13 78 -13 193 l0 167 126 0 c210 0 335 40 421 134 135 147 100 381 -70 480 -97 56 -131 60 -529 61 -231 0 -367 -4 -365 -10z m602 -96 c145 -27 209 -100 210 -239 0 -60 -5 -83 -23 -115 -46 -80 -133 -115 -284 -115 l-88 0 0 240 0 240 63 0 c35 0 90 -5 122 -11z"
       id="path3342"
       style="fill:#ce5c00" />
    <path
       d="M3956 1771 c-46 -63 -137 -146 -187 -172 -26 -13 -39 -26 -39 -39 0 -17 7 -20 50 -20 l49 0 3 -354 c3 -340 4 -356 24 -383 36 -49 79 -65 164 -60 85 4 137 26 201 84 34 31 38 38 26 50 -11 12 -20 10 -58 -11 -57 -33 -102 -34 -134 -1 l-25 24 0 325 0 325 93 3 92 3 3 28 3 27 -95 0 -95 0 -3 107 c-4 131 -16 141 -72 64z"
       id="path3344"
       style="fill:#ce5c00" />
    <path
       d="M2716 1625 c-49 -17 -101 -67 -131 -125 l-24 -45 -1 77 c0 42 -3 79 -7 81 -5 2 -82 1 -173 -2 -134 -5 -165 -9 -165 -20 0 -9 22 -21 58 -32 32 -9 64 -23 72 -29 13 -11 15 -64 15 -337 0 -199 -4 -332 -10 -343 -6 -11 -37 -29 -70 -41 -105 -38 -81 -44 180 -44 165 0 240 3 240 11 0 6 -22 21 -50 34 -95 44 -90 28 -90 298 0 227 1 240 23 282 12 25 37 55 56 67 54 36 149 28 174 -13 4 -8 15 -14 22 -14 12 0 15 20 15 105 l0 105 -47 0 c-27 -1 -65 -7 -87 -15z"
       id="path3346"
       style="fill:#ce5c00" />
    <path
       d="M3213 1629 c-101 -13 -189 -59 -240 -126 l-27 -35 25 -18 c24 -19 24 -19 54 10 72 70 208 93 275 48 58 -40 73 -69 78 -156 l4 -79 -78 -7 c-92 -8 -207 -37 -267 -67 -157 -79 -212 -256 -115 -373 43 -52 100 -78 183 -84 95 -6 171 23 237 89 l48 48 0 -57 0 -57 160 0 c178 0 196 8 104 45 -90 37 -88 29 -94 375 l-5 302 -27 40 c-55 84 -169 120 -315 102z m167 -526 c0 -120 -15 -167 -66 -215 -78 -72 -196 -61 -240 24 -21 40 -21 126 0 166 16 30 58 68 104 92 28 14 135 38 175 39 l27 1 0 -107z"
       id="path3348"
       style="fill:#ce5c00" />
    <path
       d="M4660 1629 c-146 -21 -260 -102 -324 -229 -90 -180 -64 -389 65 -525 121 -128 333 -172 492 -102 66 30 157 112 194 175 87 148 84 367 -8 505 -86 130 -253 200 -419 176z m140 -78 c88 -63 130 -177 137 -371 8 -198 -26 -308 -110 -361 -49 -31 -151 -23 -201 14 -71 55 -116 167 -131 332 -15 156 36 330 111 376 68 42 144 46 194 10z"
       id="path3350"
       style="fill:#ce5c00" />
    <path
       d="M5517 1629 c-143 -20 -241 -105 -261 -225 -17 -102 39 -181 173 -245 47 -23 123 -59 169 -81 91 -43 122 -78 122 -136 0 -81 -58 -124 -177 -130 -129 -7 -158 15 -197 151 -17 60 -41 76 -51 35 -2 -13 -6 -70 -7 -128 l-3 -105 75 -13 c108 -19 289 -11 364 16 106 38 167 104 185 198 26 133 -30 198 -258 299 -76 33 -148 72 -167 90 -30 28 -34 39 -34 81 0 87 50 127 157 127 98 0 118 -13 164 -104 28 -56 45 -79 58 -79 16 0 19 12 24 107 3 59 5 109 3 110 -7 7 -163 32 -221 35 -33 3 -86 1 -118 -3z"
       id="path3352"
       style="fill:#ce5c00" />
    <path
       d="M1168 1603 c-70 -5 -77 -24 -15 -42 23 -7 52 -19 65 -27 22 -14 22 -15 22 -287 0 -365 16 -424 127 -478 41 -21 63 -24 153 -24 92 0 112 3 160 26 30 14 72 43 92 63 20 20 39 36 43 36 3 0 5 -24 5 -52 l0 -53 165 0 c169 0 194 7 118 32 -22 8 -51 25 -64 39 l-24 26 0 374 0 374 -71 0 c-128 0 -285 -13 -281 -23 1 -5 31 -20 66 -32 35 -13 68 -28 74 -34 16 -16 22 -442 7 -514 -22 -108 -112 -174 -223 -165 -64 5 -107 33 -131 83 -15 31 -16 73 -14 360 l3 325 -110 -2 c-60 -1 -136 -3 -167 -5z"
       id="path3354"
       style="fill:#ce5c00" />
  </g> -->


</svg>
