<?xml version="1.0" encoding="UTF-8" standalone="no"?>
<svg
    xmlns="http://www.w3.org/2000/svg" xmlns:xlink="http://www.w3.org/1999/xlink"
   version="1.0"
   width="600px"
   height="300px"
   viewBox="0 0 592.000000 284.000000"
   preserveAspectRatio="none"
   id="svg3336"
>
  <text x="10" y="-95" style="font-size: 175px; font-weight: bold; font-family:serif; fill:#893003" transform="translate(1,300)">Puratos</text>
  <path
     style="fill:#d5a10e"
     d="m 561.54992,20.90081 c -11,8.7 -20.4,15.9 -20.8,15.9 -0.5,0.1 -0.5,-2.8 -0.2,-6.4 0.4,-3.6 0.3,-6.5 -0.1,-6.5 -0.5,0 -2.89999,2.3 -5.39999,5.2 l -4.5,5.2 -0.6,-2.9 c -0.4,-1.7 -0.7,-5.4 -0.8,-8.3 0,-2.799999 -0.5,-5.199999 -0.9,-5.199999 -2.1,0 -8.3,10.899999 -10.2,17.899999 l -1.1,4.4 -2.5,-3.4 c -2.3,-3.3 -2.5,-3.4 -8.4,-3.1 l -6.1,0.4 2,3.2 c 1.1,1.7 2.5,4.4 3.1,6 1,2.9 1,2.8 -3.3,-1.1 -6.4,-5.9 -7.8,-6.5 -12.2,-5 l -3.7,1.3 2.4,2.9 c 3.7,4.6 5.9,8.5 4.9,8.5 -0.5,0 -1.3,-0.5 -1.7,-1.1 -0.3,-0.6 -3.3,-2.4 -6.6,-3.9 -6.4,-3 -6.3,-3 -11.7,0.6 -0.2,0.2 2.3,2.8 5.4,5.9 3.2,3.1 5.5,5.8 5.3,6.1 -0.3,0.2 -3,-0.7 -6,-2.1 -7.4,-3.4 -12.5,-3.7 -14.4,-0.9 -1.4,2 -1.1,2.3 5,6.3 7.3,4.7 9.3,6.8 5.5,5.7 -5.3,-1.5 -16.8,-1.9 -18.4,-0.6 -2.7,2.2 -1.6,3.4 5.3,6.3 11.9,4.7 12,5.5 1.1,4.9 -10.1,-0.5 -13.3,0.3 -14.1,3.6 -0.5,1.6 0.8,2.3 8.3,4.6 4.9,1.6 9.1,3.1 9.4,3.6 0.2,0.4 -3,1 -7.3,1.4 -10.4,0.9 -13.5,1.8 -14.9,4.7 -1.2,2.4 -1.2,2.4 5.5,3.5 3.7,0.7 8.3,1.6 10.2,2.2 l 3.5,0.9 -4,0.7 c -14.9,2.6 -18.1,3.90001 -18.9,7.80001 -0.3,1.7 -0.5,3.3 -0.3,3.5 0.2,0.2 3.6,-0.3 7.6,-1.2 4,-0.8 9.2,-1.5 11.5,-1.5 l 4.4,0 1.7,-6.70001 c 4,-16.4 12.8,-31.6 23.9,-42.1 6.3,-5.8 15.9,-11.4 22.1,-12.8 2.4,-0.5 1.7,0.2 -3.4,3.6 -17.3,11.7 -29.6,30.2 -33.4,50.3 l -1.4,7.50001 4.5,0.7 c 5.2,0.8 5.7,0.3 6.6,-6.70001 0.9,-6.5 5.1,-19.9 8.3,-26.3 5.9,-11.7 17.3,-24.6 26.4,-29.8 3.7,-2.1 3.9,-2.4 3.9,-7.3 0,-2.8 0.8,-7.5 1.7,-10.5 l 1.6,-5.4 1.4,6 c 3.1,13.4 3.1,13.5 6.2,13.5 2.2,0 6.49999,-3 18.09999,-12.6 8.3,-6.9 15.3,-12.399999 15.5,-12.199999 0.1,0.2 -5.1,6.799999 -11.6,14.599999 -6.6,7.9 -11.9,15 -11.9,15.8 0,0.8 1.6,2.2 3.5,3.1 1.9,0.9 3.5,1.9 3.5,2.2 0,0.3 -1.9,1.4 -4.3,2.5 -2.3,1 -3.6,2 -2.9,2.3 0.7,0.3 1.8,1.6 2.3,3 0.7,1.9 1.5,2.4 3.7,2.1 2.2,-0.2 2.7,-0.8 2.7,-3.1 -0.1,-3 2.4,-3.8 3.2,-0.9 0.2,1 2.3,3 4.6,4.5 2.3,1.4 7,5.1 10.3,8.1 4.9,4.4 6,6 5.7,7.9 -0.5,2.5 1.8,5.7 4.2,5.7 0.8,0 1.5,-1.2 1.7,-2.8 0.4,-2.6 0.4,-2.6 1.5,1 0.8,2.6 0.8,4.9 0.2,7.3 -1.3,4.5 -3.8,4.6 -11.9,0.5 -6.9,-3.5 -7.8,-3.6 -8.2,-1.2 -0.3,1.8 -0.6,1.8 -5.6,0.4 -3,-0.8 -5.6,-2.1 -5.8,-2.9 -1.4,-4.7 -1.2,-4.6 -4,-2.4 -6.5,5.1 -17.89999,2.9 -22.79999,-4.6 -3.2,-4.9 -4.6,-11.2 -3.5,-16 0.4,-2.1 0.6,-3.9 0.5,-4.1 -0.2,-0.2 -1.4,1.2 -2.7,3 -2.5,3.5 -2.8,7 -1.4,17.8 0.7,5.2 0.5,5.8 -2.8,10.5 -4.3,6.4 -7.5,12.50001 -9.7,19.00001 l -1.7,5 8.3,8.2 c 4.6,4.5 8.6,7.8 8.9,7.3 0.4,-0.7 6.5,-35.70001 6.5,-37.40001 0,-0.3 1.8,0.3 4,1.1 3.6,1.4 5.1,1.5 12.69999,0.3 7.7,-1.2 9.3,-1.2 15.1,0.3 3.5,0.9 7.8,2.8 9.4,4.3 3.8,3.10001 8.3,3.00001 8.2,-0.2 0,-1.9 0.4,-2.1 3.6,-1.7 4.3,0.6 4.7,0 5.6,-8.1 0.5,-3.9 0.2,-6.1 -1,-8.4 -0.9,-1.7 -7.5,-8 -14.7,-13.8 l -13.1,-10.7 2.3,-1.8 2.4,-1.9 -3.1,0 c -2,0 -3.9,-1 -5.8,-2.9 l -2.7,-2.9 15.8,-21.3 c 17.5,-23.4999986 17.8,-23.8999986 16.6,-23.7999986 -0.4,0 -9.8,7.1999996 -20.8,15.8999986 z"
     id="unicorn" />
  <text x="10" y="-50" style="font-size: 40px; font-weight: bold; font-style: italic; font-family:serif; fill:#d5a10e" transform="translate(10.000000,300.000000) scale(1,1)">Надійні партнери в інноваціях</text>
</svg>
