<svg xmlns="http://www.w3.org/2000/svg" width="1000" height="1000">
  <path d="M0 744.4V609.6q0-25.4 17.6-31.3l171.8-80q-66.4-39-68.3-131 0-56.5 35.4-103.4 37-41 90-43 31 0 62.4 19.3-49 125 23.4 236.3-11.6 11.7-25.3 19.5l-113.7 55q-48.8 23.4-52.7 84v142.6H27.3Q2 777.6 0 744.4zM193.3 803V635q0-27.4 21.5-37l152.4-70.4 56.6-27.4q-37-23.4-59.6-66.4T341.8 340q0-76 46-129.8T498 156.5t109.4 53.7 45 130q0 105.3-78.2 158l60.5 29.4L781.2 598q23.4 9.6 23.4 37v168q-2 37-37 41h-541q-13.7-2-23.5-13.7t-9.5-27.4zM666 473q68.3-105.6 21.5-230.6Q718.7 223 754 221q48.7 0 89.7 43 35 41 35 103.4 0 82-64.3 131l168 80q17.5 9.7 17.5 31.2v134.8q0 31.2-27.6 33.2h-117V635q0-56.7-51-84l-109.2-52.7q-15.7-7.8-29.3-25.4z"/>
</svg>
