<?xml version="1.0" encoding="utf-8"?>
<svg id="master-artboard" viewBox="0 0 1096 780" version="1.1" xmlns="http://www.w3.org/2000/svg" x="0px" y="0px" style="enable-background:new 0 0 1096 780;" width="1096px" height="780px">

<g transform="matrix(0.9999999999999999, 0, 0, 0.9999999999999999, 1.8189894035458565e-12, 4.547473508864641e-13)">
		<path class="st0" d="M251.8,483.7H78c-8.8,0-16,7.2-16,16v151.2c0,8.8,7.2,16,16,16h173.8c8.8,0,16-7.2,16-16V499.7&#10;&#9;&#9;&#9;C267.7,490.9,260.6,483.7,251.8,483.7z" style="fill: rgb(230, 231, 232);"/>
		<path class="st0" d="M70.2,282.8l75.6,42.4c2.4,1.3,5.1,2,7.8,2c2.4,0,4.9-0.6,7-1.6l83.6-41.1c5.4-2.7,8.9-8.3,8.9-14.3v-95.5&#10;&#9;&#9;&#9;c0-0.2,0-0.5,0-0.7c-0.1-1.2-0.2-2.4-0.6-3.6c-0.1-0.3-0.2-0.6-0.3-0.9c-0.1-0.4-0.3-0.9-0.6-1.5c-0.3-0.7-0.6-1.2-0.8-1.5&#10;&#9;&#9;&#9;c-0.2-0.3-0.3-0.6-0.5-0.8c-0.8-1.1-1.7-2.2-2.7-3c-0.2-0.2-0.5-0.4-0.7-0.6c-0.7-0.6-1.5-1-2.3-1.5c-0.4-0.2-0.7-0.4-1.1-0.5&#10;&#9;&#9;&#9;l-80.9-35.8c-2-0.9-4.2-1.4-6.4-1.4c-2.3,0-4.5,0.5-6.6,1.4l-78.3,35.8c-0.2,0.1-0.5,0.2-0.7,0.3c-1.1,0.6-2.1,1.2-3,2&#10;&#9;&#9;&#9;c-0.3,0.2-0.5,0.4-0.7,0.7c-0.7,0.7-1.4,1.5-1.9,2.3c-0.1,0.2-0.3,0.4-0.4,0.6c-0.2,0.3-0.4,0.6-0.6,1c-0.5,1-0.9,2-1.3,3&#10;&#9;&#9;&#9;c0,0.1,0,0.2-0.1,0.2c0,0.2-0.1,0.3-0.1,0.5c-0.2,0.9-0.4,1.8-0.4,2.7c0,0.4-0.1,0.8-0.1,1.2v94.2C62,274.6,65.1,280,70.2,282.8z" style="fill: rgb(230, 231, 232);"/>
		<path class="st0" d="M533,496.6c-2.9-4.7-8.1-7.6-13.7-7.6c-0.2,0-0.4,0-0.6,0c-0.1,0-89,4.9-89,4.9l-62.9-2c-0.2,0-0.4,0-0.6,0&#10;&#9;&#9;&#9;c-5.3,0-10.3,2.7-13.3,7.2L328,537c-3.1,4.6-3.5,10.4-1.2,15.5c2.3,5,7,8.5,12.5,9.1l16.8,2.1v57.7c0,7.5,5.3,14,12.6,15.6&#10;&#9;&#9;&#9;l54.8,11.9c1.1,0.2,2.2,0.4,3.4,0.4c0.2,0,0.4,0,0.5,0c0.1,0,0.3,0,0.5,0c1.1,0,2.1-0.1,3.2-0.3l86-8.7&#10;&#9;&#9;&#9;c8.2-0.8,14.4-7.7,14.4-15.9v-60.6l15-1c5.6-0.4,10.6-3.7,13.1-8.7c2.5-4.9,2.3-11-0.6-15.7L533,496.6z" style="fill: rgb(230, 231, 232);"/>
		<path class="st0" d="M980.2,469.4h-75.6c-21.4,0-38.9,17.4-38.9,38.9v114.4c0,21.4,17.4,38.9,38.9,38.9h75.6&#10;&#9;&#9;&#9;c21.4,0,38.9-17.4,38.9-38.9V508.3C1019.1,486.9,1001.7,469.4,980.2,469.4z" style="fill: rgb(230, 231, 232);"/>
		<path class="st0" d="M792.5,554c6.5-5.9,7-16,1.1-22.6l-18.9-20.9c-3-3.3-7.3-5.3-11.8-5.3c-4,0-7.8,1.5-10.7,4.1&#10;&#9;&#9;&#9;c-3.1,2.8-4.9,6.7-5.2,10.6c-0.7-0.4-1.5-0.7-2.2-1.1c2-2.7,3.2-6,3.2-9.6v-28.9c0-8.8-7.2-16-16-16h-52.7c-8.8,0-16,7.2-16,16&#10;&#9;&#9;&#9;v27.9c0,4.1,1.6,7.8,4.1,10.7c-31.3,14.7-52.9,46.6-52.9,82.9c0,50.5,41.1,91.6,91.6,91.6c50.5,0,91.6-41.1,91.6-91.6&#10;&#9;&#9;&#9;c0-16-4.2-31.1-11.6-44.3C788.5,556.8,790.6,555.6,792.5,554z" style="fill: rgb(230, 231, 232);"/>
		<path class="st0" d="M1017.4,135.5H874.1c-20.9,0-37.9,17-37.9,37.9V252c0,20.9,17,37.9,37.9,37.9h143.3c20.9,0,37.9-17,37.9-37.9&#10;&#9;&#9;&#9;v-78.6C1055.2,152.5,1038.2,135.5,1017.4,135.5z" style="fill: rgb(230, 231, 232);"/>
		<path class="st0" d="M686.8,290.2v5.6c0,3.3,1,6.4,2.7,8.9c-2.8-2.5-6.5-4-10.6-4c-0.9,0-1.7,0.1-2.6,0.2c-4.2,0.7-7.9,3-10.4,6.4&#10;&#9;&#9;&#9;c-2.5,3.5-3.5,7.7-2.8,11.9c4,24.6,23.3,35.6,40.6,35.6c0.8,0,1.6,0,2.5-0.1c19.7-1.1,34.6-15.2,35.4-33.4&#10;&#9;&#9;&#9;c0.7-15.5-6.1-26.3-15.2-33c13.8-4.2,26.3-11.9,36.2-22.7c14-15.1,21.7-34.8,21.7-55.4c0-28.4-14.6-53.5-36.7-68.1&#10;&#9;&#9;&#9;c1.2-2.2,1.9-4.8,1.9-7.5v-24.9c0-8.8-7.2-16-16-16H671c-8.8,0-16,7.2-16,16v24.9c0,2.9,0.8,5.6,2.2,8c-21.7,14.7-36,39.5-36,67.6&#10;&#9;&#9;&#9;c0,20.6,7.7,40.2,21.7,55.4C654.7,278.3,670.1,286.8,686.8,290.2z" style="fill: rgb(230, 231, 232);"/>
		<path class="st0" d="M560.9,168.5c-2-6.7-8.3-11.4-15.3-11.4c-1.4,0-2.8,0.2-4.2,0.6l-62.7,16.9c-2.1,0.6-4,1.5-5.7,2.8&#10;&#9;&#9;&#9;l-17.7-58.7c-2.1-6.8-8.2-11.3-15.3-11.3c-1.5,0-3.1,0.2-4.6,0.7c-8.4,2.5-13.2,11.5-10.7,19.9L455.3,229&#10;&#9;&#9;&#9;c-1.4-0.8-2.9-1.5-4.6-1.9l-27.2-90.5c-1.9-6.3-7.4-10.8-14-11.3l-59.7-5c-0.1,0-0.2,0-0.3,0c-0.3,0-0.6,0-0.9,0&#10;&#9;&#9;&#9;c-4.1,0-8,1.5-10.9,4.2c-3.3,3-5.2,7.3-5.2,11.7v51.7h-9.9c-8.8,0-16,7.2-16,16v43.8c0,3.8,1.4,7.4,3.6,10.1&#10;&#9;&#9;&#9;c-5.4,7.2-8.6,16.1-8.6,25.7c0,23.6,19.2,42.8,42.8,42.8c17.7,0,33.3-10.9,39.7-26.9h19c6.4,16,22,26.9,39.7,26.9&#10;&#9;&#9;&#9;c23.3,0,42.3-18.7,42.8-41.9c0.1,0,0.2,0,0.4,0l59.7-9c8.7-1.3,14.7-9.5,13.4-18.2c-0.3-2-1-3.9-2-5.6l9.8-2.4&#10;&#9;&#9;&#9;c4.2-1,7.9-3.8,10.1-7.5c2.2-3.8,2.7-8.3,1.5-12.5L560.9,168.5z" style="fill: rgb(230, 231, 232);"/>
	</g><path class="st1" d="M247,479.7H73.2c-8.8,0-16,7.2-16,16v151.2c0,8.8,7.2,16,16,16H247c8.8,0,16-7.2,16-16V495.7&#10;&#9;&#9;&#9;C263,486.9,255.8,479.7,247,479.7z" style="fill: rgb(255, 255, 255);" transform="matrix(0.9999999999999999, 0, 0, 0.9999999999999999, 3.637978807091713e-12, 9.094947017729282e-13)"/><path class="st1" d="M65.4,278.8l75.6,42.4c2.4,1.3,5.1,2,7.8,2c2.4,0,4.9-0.6,7-1.6l83.6-41.1c5.4-2.7,8.9-8.3,8.9-14.3v-95.5&#10;&#9;&#9;&#9;c0-0.2,0-0.5,0-0.7c-0.1-1.2-0.2-2.4-0.6-3.6c-0.1-0.3-0.2-0.6-0.3-0.9c-0.1-0.4-0.3-0.9-0.6-1.5c-0.3-0.7-0.6-1.2-0.8-1.5&#10;&#9;&#9;&#9;c-0.2-0.3-0.3-0.6-0.5-0.8c-0.8-1.1-1.7-2.2-2.7-3c-0.2-0.2-0.5-0.4-0.7-0.6c-0.7-0.6-1.5-1-2.3-1.5c-0.4-0.2-0.7-0.4-1.1-0.5&#10;&#9;&#9;&#9;l-80.9-35.8c-2-0.9-4.2-1.4-6.4-1.4c-2.3,0-4.5,0.5-6.6,1.4l-78.3,35.8c-0.2,0.1-0.5,0.2-0.7,0.3c-1.1,0.6-2.1,1.2-3,2&#10;&#9;&#9;&#9;c-0.3,0.2-0.5,0.4-0.7,0.7c-0.7,0.7-1.4,1.5-1.9,2.3c-0.1,0.2-0.3,0.4-0.4,0.6c-0.2,0.3-0.4,0.6-0.6,1c-0.5,1-0.9,2-1.3,3&#10;&#9;&#9;&#9;c0,0.1,0,0.2-0.1,0.2c0,0.2-0.1,0.3-0.1,0.5c-0.2,0.9-0.4,1.8-0.4,2.7c0,0.4-0.1,0.8-0.1,1.2v94.2C57.3,270.6,60.4,276,65.4,278.8&#10;&#9;&#9;&#9;z" style="fill: rgb(255, 255, 255);" transform="matrix(0.9999999999999999, 0, 0, 0.9999999999999999, 3.637978807091713e-12, 9.094947017729282e-13)"/><path class="st1" d="M528.2,492.6c-2.9-4.7-8.1-7.6-13.7-7.6c-0.2,0-0.4,0-0.6,0c-0.1,0-89,4.9-89,4.9l-62.9-2c-0.2,0-0.4,0-0.6,0&#10;&#9;&#9;&#9;c-5.3,0-10.3,2.7-13.3,7.2L323.2,533c-3.1,4.6-3.5,10.4-1.2,15.5c2.3,5,7,8.5,12.5,9.1l16.8,2.1v57.7c0,7.5,5.3,14,12.6,15.6&#10;&#9;&#9;&#9;l54.8,11.9c1.1,0.2,2.2,0.4,3.4,0.4c0.2,0,0.4,0,0.5,0c0.1,0,0.3,0,0.5,0c1.1,0,2.1-0.1,3.2-0.3l86-8.7&#10;&#9;&#9;&#9;c8.2-0.8,14.4-7.7,14.4-15.9v-60.6l15-1c5.6-0.4,10.6-3.7,13.1-8.7c2.5-4.9,2.3-11-0.6-15.7L528.2,492.6z" style="fill: rgb(255, 255, 255);" transform="matrix(0.9999999999999999, 0, 0, 0.9999999999999999, 3.637978807091713e-12, 9.094947017729282e-13)"/><path class="st1" d="M975.5,465.4h-75.6c-21.4,0-38.9,17.4-38.9,38.9v114.4c0,21.4,17.4,38.9,38.9,38.9h75.6&#10;&#9;&#9;&#9;c21.4,0,38.9-17.4,38.9-38.9V504.3C1014.3,482.9,996.9,465.4,975.5,465.4z" style="fill: rgb(255, 255, 255);" transform="matrix(0.9999999999999999, 0, 0, 0.9999999999999999, 3.637978807091713e-12, 9.094947017729282e-13)"/><path class="st1" d="M787.7,550c6.5-5.9,7-16,1.1-22.6l-18.9-20.9c-3-3.3-7.3-5.3-11.8-5.3c-4,0-7.8,1.5-10.7,4.1&#10;&#9;&#9;&#9;c-3.1,2.8-4.9,6.7-5.2,10.6c-0.7-0.4-1.5-0.7-2.2-1.1c2-2.7,3.2-6,3.2-9.6v-28.9c0-8.8-7.2-16-16-16h-52.7c-8.8,0-16,7.2-16,16&#10;&#9;&#9;&#9;v27.9c0,4.1,1.6,7.8,4.1,10.7c-31.3,14.7-52.9,46.6-52.9,82.9c0,50.5,41.1,91.6,91.6,91.6c50.5,0,91.6-41.1,91.6-91.6&#10;&#9;&#9;&#9;c0-16-4.2-31.1-11.6-44.3C783.7,552.8,785.9,551.6,787.7,550z" style="fill: rgb(255, 255, 255);" transform="matrix(0.9999999999999999, 0, 0, 0.9999999999999999, 3.637978807091713e-12, 9.094947017729282e-13)"/><path class="st1" d="M1012.6,131.5H869.4c-20.9,0-37.9,17-37.9,37.9V248c0,20.9,17,37.9,37.9,37.9h143.3c20.9,0,37.9-17,37.9-37.9&#10;&#9;&#9;&#9;v-78.6C1050.5,148.5,1033.5,131.5,1012.6,131.5z" style="fill: rgb(255, 255, 255);" transform="matrix(0.9999999999999999, 0, 0, 0.9999999999999999, 3.637978807091713e-12, 9.094947017729282e-13)"/><path class="st1" d="M682.1,286.2v5.6c0,3.3,1,6.4,2.7,8.9c-2.8-2.5-6.5-4-10.6-4c-0.9,0-1.7,0.1-2.6,0.2c-4.2,0.7-7.9,3-10.4,6.4&#10;&#9;&#9;&#9;c-2.5,3.5-3.5,7.7-2.8,11.9c4,24.6,23.3,35.6,40.6,35.6c0.8,0,1.6,0,2.5-0.1c19.7-1.1,34.6-15.2,35.4-33.4&#10;&#9;&#9;&#9;c0.7-15.5-6.1-26.3-15.2-33c13.8-4.2,26.3-11.9,36.2-22.7c14-15.1,21.7-34.8,21.7-55.4c0-28.4-14.6-53.5-36.7-68.1&#10;&#9;&#9;&#9;c1.2-2.2,1.9-4.8,1.9-7.5v-24.9c0-8.8-7.2-16-16-16h-62.7c-8.8,0-16,7.2-16,16v24.9c0,2.9,0.8,5.6,2.2,8&#10;&#9;&#9;&#9;c-21.7,14.7-36,39.5-36,67.6c0,20.6,7.7,40.2,21.7,55.4C650,274.3,665.3,282.8,682.1,286.2z" style="fill: rgb(255, 255, 255);" transform="matrix(0.9999999999999999, 0, 0, 0.9999999999999999, 3.637978807091713e-12, 9.094947017729282e-13)"/><path class="st1" d="M556.2,164.5c-2-6.7-8.3-11.4-15.3-11.4c-1.4,0-2.8,0.2-4.2,0.6L474,170.5c-2.1,0.6-4,1.5-5.7,2.8l-17.7-58.7&#10;&#9;&#9;&#9;c-2.1-6.8-8.2-11.3-15.3-11.3c-1.5,0-3.1,0.2-4.6,0.7c-8.4,2.5-13.2,11.5-10.7,19.9L450.6,225c-1.4-0.8-2.9-1.5-4.6-1.9&#10;&#9;&#9;&#9;l-27.2-90.5c-1.9-6.3-7.4-10.8-14-11.3l-59.7-5c-0.1,0-0.2,0-0.3,0c-0.3,0-0.6,0-0.9,0c-4.1,0-8,1.5-10.9,4.2&#10;&#9;&#9;&#9;c-3.3,3-5.2,7.3-5.2,11.7v51.7H318c-8.8,0-16,7.2-16,16v43.8c0,3.8,1.4,7.4,3.6,10.1c-5.4,7.2-8.6,16.1-8.6,25.7&#10;&#9;&#9;&#9;c0,23.6,19.2,42.8,42.8,42.8c17.7,0,33.3-10.9,39.7-26.9h19c6.4,16,22,26.9,39.7,26.9c23.3,0,42.3-18.7,42.8-41.9&#10;&#9;&#9;&#9;c0.1,0,0.2,0,0.4,0l59.7-9c8.7-1.3,14.7-9.5,13.4-18.2c-0.3-2-1-3.9-2-5.6l9.8-2.4c4.2-1,7.9-3.8,10.1-7.5&#10;&#9;&#9;&#9;c2.2-3.8,2.7-8.3,1.5-12.5L556.2,164.5z" style="fill: rgb(255, 255, 255);" transform="matrix(0.9999999999999999, 0, 0, 0.9999999999999999, 3.637978807091713e-12, 9.094947017729282e-13)"/><path d="M247,489.7H73.2c-3.3,0-6,2.7-6,6v151.2c0,3.3,2.7,6,6,6H247c3.3,0,6-2.7,6-6V495.7C253,492.4,250.3,489.7,247,489.7z&#10;&#9;&#9;&#9; M127,567.2v-65.5h27.9v40.1L127,567.2z M166.7,501.6h32.1l-32.1,29.2V501.6z M115,501.6v74.9c0,0.5,0.1,0.9,0.2,1.3l-36,32.8&#10;&#9;&#9;&#9;V501.6H115z M79.2,626.9l134.7-122.8c0.7-0.7,1.2-1.5,1.5-2.4H241v22L117.2,640.9h-38V626.9z M167.8,609.4l32.1-30.4v61.2&#10;&#9;&#9;&#9;c0,0.2,0,0.4,0.1,0.7h-31.9v-29.8C168.1,610.5,168,610,167.8,609.4z M156.1,640.9h-21.6l21.6-20.4V640.9z M211.8,640.9&#10;&#9;&#9;&#9;c0-0.2,0.1-0.4,0.1-0.7v-72.5l29.2-27.6v100.8H211.8z" transform="matrix(0.9999999999999999, 0, 0, 0.9999999999999999, 3.637978807091713e-12, 9.094947017729282e-13)"/><path d="M70.3,270.1l75.6,42.4c0.9,0.5,1.9,0.8,2.9,0.8c0.9,0,1.8-0.2,2.6-0.6l83.6-41.1c2-1,3.3-3.1,3.3-5.4v-95.5c0,0,0,0,0-0.1&#10;&#9;&#9;&#9;c0-0.5-0.1-1-0.2-1.5c0-0.1-0.1-0.2-0.1-0.3c-0.1-0.2-0.1-0.4-0.2-0.6c-0.1-0.2-0.2-0.4-0.3-0.5c-0.1-0.1-0.1-0.2-0.2-0.3&#10;&#9;&#9;&#9;c-0.3-0.4-0.6-0.8-1-1.1c-0.1,0-0.1-0.1-0.2-0.1c-0.4-0.3-0.8-0.5-1.2-0.7c-0.1,0-0.1-0.1-0.2-0.1l-80.9-35.8&#10;&#9;&#9;&#9;c-1.6-0.7-3.3-0.7-4.9,0l-78.3,35.8c0,0,0,0-0.1,0c-0.5,0.2-0.9,0.5-1.3,0.8c-0.1,0.1-0.1,0.1-0.2,0.2c-0.3,0.3-0.5,0.6-0.8,0.9&#10;&#9;&#9;&#9;c-0.1,0.1-0.2,0.2-0.2,0.4c0,0.1-0.1,0.1-0.1,0.2c-0.2,0.4-0.4,0.8-0.5,1.1c0,0,0,0.1,0,0.1c-0.1,0.5-0.2,0.9-0.2,1.4&#10;&#9;&#9;&#9;c0,0.1,0,0.1,0,0.2v94.2C67.3,267,68.4,269,70.3,270.1z M79.2,180.7l25.2,13.7v24c0,3.3,2.7,6,6,6c3.3,0,6-2.7,6-6V201l24,13.1&#10;&#9;&#9;&#9;l2.4,83l-63.5-35.7V180.7z M217.9,170.8l-71.5,33l-20.6-11.2l68.7-32.1L217.9,170.8z M154.7,297.8l-2.4-83.5l74.2-34.2v82.5&#10;&#9;&#9;&#9;L154.7,297.8z M151.5,141.4l28.5,12.6l-67.2,31.4l-26.3-14.3L151.5,141.4z" transform="matrix(0.9999999999999999, 0, 0, 0.9999999999999999, 3.637978807091713e-12, 9.094947017729282e-13)"/><path d="M519.7,497.8c-1.2-1.9-3.3-2.9-5.4-2.8l-89.3,5l-63.4-2c-2.1-0.1-4,0.9-5.2,2.7l-24.9,37.8c-1.1,1.7-1.3,3.9-0.4,5.8&#10;&#9;&#9;&#9;c0.9,1.9,2.6,3.2,4.7,3.4l25.6,3.2v66.5c0,2.8,2,5.2,4.7,5.8l54.7,11.9c0.4,0.1,0.8,0.1,1.3,0.1c0.2,0,0.4,0,0.6,0l0,0&#10;&#9;&#9;&#9;c0.1,0,0.2,0,0.4,0c0.5,0,1-0.1,1.5-0.2l86.6-8.8c3-0.3,5.4-2.9,5.4-5.9v-70l24.3-1.7c2.1-0.1,3.9-1.4,4.9-3.2&#10;&#9;&#9;&#9;c1-1.9,0.9-4.1-0.2-5.9L519.7,497.8z M364.6,510l50.6,1.6l-17.3,31.7l-51.1-6.3L364.6,510z M373.4,552.3l27.1,3.3&#10;&#9;&#9;&#9;c0.2,0,0.5,0,0.7,0c2.2,0,4.2-1.2,5.2-3.1l10.7-19.6v89.1l-43.8-9.5V552.3z M504.7,615l-75.6,7.6V522.1l21,30.1&#10;&#9;&#9;&#9;c1.1,1.6,3,2.6,4.9,2.6c0.1,0,0.3,0,0.4,0l49.3-3.4V615z M457.9,542.5l-21.8-31.2l75.3-4.2l18.8,30.4L457.9,542.5z" transform="matrix(0.9999999999999999, 0, 0, 0.9999999999999999, 3.637978807091713e-12, 9.094947017729282e-13)"/><path d="M975.5,475.4h-75.6c-15.9,0-28.9,12.9-28.9,28.9v114.4c0,15.9,12.9,28.9,28.9,28.9h75.6c15.9,0,28.9-12.9,28.9-28.9V504.3&#10;&#9;&#9;&#9;C1004.3,488.4,991.4,475.4,975.5,475.4z M950.6,635.6h-25.9v-19.9h25.9V635.6z M950.6,603.8h-25.9v-25.9h25.9V603.8z M883,542.1&#10;&#9;&#9;&#9;h29.8V566H883V542.1z M883,577.9h29.8v25.9H883V577.9z M924.7,566v-23.9h25.9V566H924.7z M962.5,542.1h29.8V566h-29.8V542.1z&#10;&#9;&#9;&#9; M899.9,487.4h75.6c9.3,0,16.9,7.6,16.9,16.9v25.9H883v-25.9C883,495,890.5,487.4,899.9,487.4z M883,618.7v-3h29.8v19.9h-12.9&#10;&#9;&#9;&#9;C890.5,635.6,883,628,883,618.7z M975.5,635.6h-12.9v-57.7h29.8v40.8C992.4,628,984.8,635.6,975.5,635.6z" transform="matrix(0.9999999999999999, 0, 0, 0.9999999999999999, 3.637978807091713e-12, 9.094947017729282e-13)"/><path d="M707.3,516.5v-12.2c0-3.3-2.7-6-6-6c-3.3,0-6,2.7-6,6v12.2c-42.2,3.1-75.6,38.3-75.6,81.3c0,45,36.6,81.6,81.6,81.6&#10;&#9;&#9;&#9;c45,0,81.6-36.6,81.6-81.6C783,554.9,749.5,519.6,707.3,516.5z M701.4,667.5c-38.4,0-69.6-31.2-69.6-69.6&#10;&#9;&#9;&#9;c0-38.4,31.2-69.6,69.6-69.6s69.6,31.2,69.6,69.6C771,636.2,739.8,667.5,701.4,667.5z" transform="matrix(0.9999999999999999, 0, 0, 0.9999999999999999, 3.637978807091713e-12, 9.094947017729282e-13)"/><path d="M727.2,511.3c3.3,0,6-2.7,6-6v-28.9c0-3.3-2.7-6-6-6h-52.7c-3.3,0-6,2.7-6,6v27.9c0,3.3,2.7,6,6,6c3.3,0,6-2.7,6-6v-21.9&#10;&#9;&#9;&#9;h40.8v22.9C721.3,508.6,723.9,511.3,727.2,511.3z" transform="matrix(0.9999999999999999, 0, 0, 0.9999999999999999, 3.637978807091713e-12, 9.094947017729282e-13)"/><path d="M754.1,512.8c-2.4,2.2-2.6,6-0.4,8.4l18.9,20.9c1.2,1.3,2.8,2,4.4,2c1.4,0,2.9-0.5,4-1.5c2.4-2.2,2.6-6,0.4-8.4&#10;&#9;&#9;&#9;l-18.9-20.9C760.3,510.8,756.5,510.6,754.1,512.8z" transform="matrix(0.9999999999999999, 0, 0, 0.9999999999999999, 3.637978807091713e-12, 9.094947017729282e-13)"/><path d="M701.4,574.9c-12.6,0-22.9,10.3-22.9,22.9c0,4.6,1.4,8.8,3.7,12.4L656.8,631c-2.5,2.1-2.9,5.9-0.8,8.4&#10;&#9;&#9;&#9;c1.2,1.4,2.9,2.2,4.6,2.2c1.3,0,2.7-0.4,3.8-1.4l26.8-22c3.1,1.6,6.6,2.4,10.2,2.4c12.6,0,22.9-10.3,22.9-22.9&#10;&#9;&#9;&#9;C724.3,585.2,714,574.9,701.4,574.9z M701.4,608.8c-6,0-10.9-4.9-10.9-10.9c0-6,4.9-10.9,10.9-10.9c6,0,10.9,4.9,10.9,10.9&#10;&#9;&#9;&#9;C712.3,603.9,707.4,608.8,701.4,608.8z" transform="matrix(0.9999999999999999, 0, 0, 0.9999999999999999, 3.637978807091713e-12, 9.094947017729282e-13)"/><path d="M1012.6,141.5H869.4c-15.4,0-27.9,12.5-27.9,27.9V248c0,15.4,12.5,27.9,27.9,27.9h143.3c15.4,0,27.9-12.5,27.9-27.9v-78.6&#10;&#9;&#9;&#9;C1040.5,154,1028,141.5,1012.6,141.5z M1028.5,248c0,8.8-7.1,15.9-15.9,15.9H869.4c-8.8,0-15.9-7.1-15.9-15.9v-78.6&#10;&#9;&#9;&#9;c0-8.8,7.1-15.9,15.9-15.9h143.3c8.8,0,15.9,7.1,15.9,15.9V248z" transform="matrix(0.9999999999999999, 0, 0, 0.9999999999999999, 3.637978807091713e-12, 9.094947017729282e-13)"/><path d="M1006.6,169.4H930c-3.3,0-6,2.7-6,6c0,3.3,2.7,6,6,6h70.6V243H888.3c-3.3,0-6,2.7-6,6s2.7,6,6,6h118.4c3.3,0,6-2.7,6-6&#10;&#9;&#9;&#9;v-73.6C1012.6,172,1009.9,169.4,1006.6,169.4z" transform="matrix(0.9999999999999999, 0, 0, 0.9999999999999999, 3.637978807091713e-12, 9.094947017729282e-13)"/><path d="M955.9,228.1c0-3.3-2.7-6-6-6h-80.6c-3.3,0-6,2.7-6,6s2.7,6,6,6h80.6C953.2,234,955.9,231.4,955.9,228.1z" transform="matrix(0.9999999999999999, 0, 0, 0.9999999999999999, 3.637978807091713e-12, 9.094947017729282e-13)"/><path d="M893.2,207.2h62.7c3.3,0,6-2.7,6-6s-2.7-6-6-6h-62.7c-3.3,0-6,2.7-6,6S889.9,207.2,893.2,207.2z" transform="matrix(0.9999999999999999, 0, 0, 0.9999999999999999, 3.637978807091713e-12, 9.094947017729282e-13)"/><path d="M666.2,136.5c3.3,0,6-2.7,6-6v-18.9h50.7v18.9c0,3.3,2.7,6,6,6c3.3,0,6-2.7,6-6v-24.9c0-3.3-2.7-6-6-6h-62.7&#10;&#9;&#9;&#9;c-3.3,0-6,2.7-6,6v24.9C660.3,133.9,662.9,136.5,666.2,136.5z" transform="matrix(0.9999999999999999, 0, 0, 0.9999999999999999, 3.637978807091713e-12, 9.094947017729282e-13)"/><path d="M692.1,277.5v14.2c0,3.1,2.4,5.7,5.4,5.9c1.9,0.2,18.2,2.2,17.4,18.7c-0.3,8-7.9,12-14.7,12.4c-8,0.4-18-3.7-20.2-17.1&#10;&#9;&#9;&#9;c-0.5-3.3-3.6-5.5-6.8-4.9c-3.3,0.5-5.5,3.6-4.9,6.8c3.1,18.9,17.3,27.2,30.8,27.2c0.6,0,1.3,0,1.9-0.1&#10;&#9;&#9;&#9;c14.5-0.8,25.4-10.9,25.9-23.8c0.8-19-12.5-27.4-22.9-30.1v-9.2c36.7-3,65.7-33.8,65.7-71.3c0-39.5-32.1-71.6-71.6-71.6&#10;&#9;&#9;&#9;s-71.6,32.1-71.6,71.6C626.4,243.6,655.4,274.4,692.1,277.5z M698.1,146.5c32.9,0,59.7,26.8,59.7,59.7c0,32.9-26.8,59.7-59.7,59.7&#10;&#9;&#9;&#9;c-32.9,0-59.7-26.8-59.7-59.7C638.4,173.3,665.1,146.5,698.1,146.5z" transform="matrix(0.9999999999999999, 0, 0, 0.9999999999999999, 3.637978807091713e-12, 9.094947017729282e-13)"/><path d="M698.1,256.9c28,0,50.7-22.8,50.7-50.7c0-28-22.8-50.7-50.7-50.7c-28,0-50.7,22.8-50.7,50.7&#10;&#9;&#9;&#9;C647.3,234.1,670.1,256.9,698.1,256.9z M698.1,167.4c21.4,0,38.8,17.4,38.8,38.8c0,21.4-17.4,38.8-38.8,38.8s-38.8-17.4-38.8-38.8&#10;&#9;&#9;&#9;C659.3,184.8,676.7,167.4,698.1,167.4z" transform="matrix(0.9999999999999999, 0, 0, 0.9999999999999999, 3.637978807091713e-12, 9.094947017729282e-13)"/><path d="M709.4,228.9c1.2,1.4,2.9,2.1,4.6,2.1c1.4,0,2.7-0.5,3.8-1.4c2.5-2.1,2.8-5.9,0.7-8.4l-15.9-18.9&#10;&#9;&#9;&#9;c-2.1-2.5-5.9-2.9-8.4-0.7c-2.5,2.1-2.8,5.9-0.7,8.4L709.4,228.9z" transform="matrix(0.9999999999999999, 0, 0, 0.9999999999999999, 3.637978807091713e-12, 9.094947017729282e-13)"/><path d="M372.1,285.4h34c2.8,15.3,16.2,26.9,32.3,26.9c18.1,0,32.8-14.7,32.8-32.8c0-18.1-14.7-32.8-32.8-32.8&#10;&#9;&#9;&#9;c-16.1,0-29.4,11.6-32.3,26.9h-34c-2.8-15.3-16.2-26.9-32.3-26.9c-18.1,0-32.8,14.7-32.8,32.8c0,18.1,14.7,32.8,32.8,32.8&#10;&#9;&#9;&#9;C355.9,312.3,369.3,300.7,372.1,285.4z M438.4,258.6c11.5,0,20.9,9.4,20.9,20.9c0,11.5-9.4,20.9-20.9,20.9&#10;&#9;&#9;&#9;c-11.5,0-20.9-9.4-20.9-20.9C417.5,267.9,426.9,258.6,438.4,258.6z M319,279.5c0-11.5,9.4-20.9,20.9-20.9&#10;&#9;&#9;&#9;c11.5,0,20.9,9.4,20.9,20.9c0,11.5-9.4,20.9-20.9,20.9C328.4,300.4,319,291,319,279.5z" transform="matrix(0.9999999999999999, 0, 0, 0.9999999999999999, 3.637978807091713e-12, 9.094947017729282e-13)"/><path d="M318,249.6c3.3,0,6-2.7,6-6v-37.8h47.3l20.2,35.8c1.1,1.9,3,3,5.2,3h45.8c3.3,0,6-2.7,6-6c0-3.3-2.7-6-6-6h-3.9&#10;&#9;&#9;&#9;l-29.2-97.2c-0.7-2.4-2.8-4-5.2-4.2l-59.7-5c-1.7-0.1-3.3,0.4-4.5,1.6c-1.2,1.1-1.9,2.7-1.9,4.4v61.7H318c-3.3,0-6,2.7-6,6v43.8&#10;&#9;&#9;&#9;C312,246.9,314.7,249.6,318,249.6z M349.8,138.7l49.2,4.1l27,89.9h-25.9l-20.2-35.8c-1.1-1.9-3-3-5.2-3h-4v-33.8c0-3.3-2.7-6-6-6&#10;&#9;&#9;&#9;s-6,2.7-6,6v33.8h-9V138.7z" transform="matrix(0.9999999999999999, 0, 0, 0.9999999999999999, 3.637978807091713e-12, 9.094947017729282e-13)"/><path d="M473.4,266.3c0.8,2.6,3.1,4.2,5.7,4.2c0.3,0,0.6,0,0.9-0.1l59.7-9c3.3-0.5,5.5-3.5,5-6.8c-0.5-3.3-3.6-5.5-6.8-5&#10;&#9;&#9;&#9;l-54.6,8.2l-42.3-140.3c-1-3.2-4.3-4.9-7.4-4c-3.2,1-4.9,4.3-4,7.4L473.4,266.3z" transform="matrix(0.9999999999999999, 0, 0, 0.9999999999999999, 3.637978807091713e-12, 9.094947017729282e-13)"/><path d="M546.6,167.3c-0.9-3.1-4.2-4.9-7.3-4.1l-62.7,16.9c-1.6,0.4-2.9,1.5-3.7,2.9c-0.8,1.4-0.9,3.1-0.4,4.7l18.9,58.7&#10;&#9;&#9;&#9;c0.8,2.5,3.1,4.1,5.7,4.1c0.5,0,0.9-0.1,1.4-0.2l61.7-14.9c1.6-0.4,2.9-1.4,3.8-2.8c0.8-1.4,1-3.1,0.6-4.7L546.6,167.3z&#10;&#9;&#9;&#9; M501.1,237.5l-15.3-47.5l19.9-5.4l7.7,23c0.8,2.5,3.2,4.1,5.7,4.1c0.6,0,1.3-0.1,1.9-0.3c3.1-1,4.8-4.4,3.8-7.6l-7.4-22.4&#10;&#9;&#9;&#9;l19.6-5.3l14.5,49.1L501.1,237.5z" transform="matrix(0.9999999999999999, 0, 0, 0.9999999999999999, 3.637978807091713e-12, 9.094947017729282e-13)"/>
<g class="st2" transform="matrix(0.9999999999999999, 0, 0, 0.9999999999999999, 1.8189894035458565e-12, 4.547473508864641e-13)" style="opacity: 0.26;">
		<g>
			<g>
				<path class="st3" d="M570.5,748.7c0.5,0,1,0.5,1,0.5l-8.9,19c-1,0-3.3,0.1-3.9,0.1c-0.5,0-1-0.5-1-0.5l-3-19&#10;&#9;&#9;&#9;&#9;&#9;c1.8,0,4.2-0.1,4.8-0.1c0.5,0,1,0.5,1,0.5l0.9,9.3c0.1,0.8,0.1,1.9,0.1,3.1c0.3-1.3,0.6-2.5,1-3.3l3.7-9.4&#10;&#9;&#9;&#9;&#9;&#9;C567.9,748.8,569.9,748.7,570.5,748.7L570.5,748.7z" style="fill: rgb(60, 36, 21);"/>
			</g>
			<g>
				<path class="st3" d="M579.7,758.1c0,2.1-1.2,3.4-4,4l-3,0.6c0.2,1.3,1.1,1.9,2.4,1.9c1.7,0,2.8-1.3,2.8-1.3s0.8,0.5,0.8,1.4&#10;&#9;&#9;&#9;&#9;&#9;c0,1.7-2.6,3.6-5.7,3.6c-3.1,0-5.2-2-5.2-5.3c0-3.8,2.7-9.1,7.6-9.1C578.1,754.1,579.7,755.7,579.7,758.1L579.7,758.1z&#10;&#9;&#9;&#9;&#9;&#9; M574.6,760.1c0.6-0.2,0.8-0.7,0.8-1.3c0-0.6-0.2-1.4-0.9-1.4c-1.2,0-1.7,1.9-1.9,3.4L574.6,760.1z" style="fill: rgb(60, 36, 21);"/>
			</g>
			<g>
				<path class="st3" d="M587.9,754.1c2.4,0,4.3,1.3,4.3,3c0,2.1-2.6,2.9-2.6,2.9s-0.7-2.3-2.5-2.3c-1.2,0-1.8,1.2-1.8,3.7&#10;&#9;&#9;&#9;&#9;&#9;c0,2.3,0.6,3.3,2.1,3.3c1.5,0,2.5-1,2.5-1s0.9,0.5,0.9,1.4c0,1.7-2.5,3.4-5.5,3.4c-3.2,0-5.1-2-5.1-5.3&#10;&#9;&#9;&#9;&#9;&#9;C580.1,759.3,582.9,754.1,587.9,754.1L587.9,754.1z" style="fill: rgb(60, 36, 21);"/>
			</g>
			<g>
				<path class="st3" d="M599.6,751c0.6,0,1,0.5,1,0.5l-0.5,2.9h3.1l-0.7,2.2c-0.2,0.7-0.6,1.1-1.3,1.1h-1.6l-0.9,5.7&#10;&#9;&#9;&#9;&#9;&#9;c-0.1,0.9,0.1,1.3,0.7,1.3c0.6,0,1.1-0.3,1.1-0.3s0.9,0.5,0.9,1.4c0,1.4-2,2.8-4.5,2.8c-2.6,0-3.7-1.6-3.3-4.5l1-6.3H593&#10;&#9;&#9;&#9;&#9;&#9;l0.7-2.3c0.2-0.6,0.7-1,1.3-1h0.8l1-2.7C598,751.4,599.1,751,599.6,751L599.6,751z" style="fill: rgb(60, 36, 21);"/>
			</g>
			<g>
				<path class="st3" d="M614.5,758.1c0,2.1-1.2,3.4-4,4l-3,0.6c0.2,1.3,1.1,1.9,2.4,1.9c1.7,0,2.8-1.3,2.8-1.3s0.9,0.5,0.9,1.4&#10;&#9;&#9;&#9;&#9;&#9;c0,1.7-2.6,3.6-5.7,3.6c-3.1,0-5.2-2-5.2-5.3c0-3.8,2.7-9.1,7.6-9.1C612.9,754.1,614.5,755.7,614.5,758.1L614.5,758.1z&#10;&#9;&#9;&#9;&#9;&#9; M609.4,760.1c0.6-0.2,0.8-0.7,0.8-1.3c0-0.6-0.2-1.4-0.9-1.4c-1.2,0-1.7,1.9-1.9,3.4L609.4,760.1z" style="fill: rgb(60, 36, 21);"/>
			</g>
			<g>
				<path class="st3" d="M626.9,758.1c0,2.1-1.2,3.4-4,4l-3,0.6c0.2,1.3,1.1,1.9,2.4,1.9c1.7,0,2.8-1.3,2.8-1.3s0.9,0.5,0.9,1.4&#10;&#9;&#9;&#9;&#9;&#9;c0,1.7-2.6,3.6-5.7,3.6c-3.1,0-5.2-2-5.2-5.3c0-3.8,2.7-9.1,7.6-9.1C625.2,754.1,626.9,755.7,626.9,758.1L626.9,758.1z&#10;&#9;&#9;&#9;&#9;&#9; M621.8,760.1c0.6-0.2,0.8-0.7,0.8-1.3c0-0.6-0.2-1.4-0.9-1.4c-1.2,0-1.7,1.9-1.9,3.4L621.8,760.1z" style="fill: rgb(60, 36, 21);"/>
			</g>
			<g>
				<path class="st3" d="M637,763.2c0,0,1,1,1,2.5c0,2.1-1.8,2.7-3.3,2.7c-2,0-3.4-0.9-4.9-1.4c-0.4,0.5-0.8,1-1.2,1.4&#10;&#9;&#9;&#9;&#9;&#9;c0,0-2.2-0.1-2.2-1.6c0-1.8,3.1-5,6.4-8.5c-0.4-0.1-0.7-0.1-1.1-0.1c-1.9,0-2.6,0.9-2.6,0.9s-1-1.1-0.9-2.5c0.1-2,2-2.5,3.5-2.5&#10;&#9;&#9;&#9;&#9;&#9;c1.6,0,2.7,0.6,3.9,1.1l0.9-1.1c0,0,2.2,0.1,2.2,1.6c0,1.8-3,4.9-6.2,8.3c0.7,0.2,1.3,0.3,1.9,0.3&#10;&#9;&#9;&#9;&#9;&#9;C636.2,764.3,637,763.2,637,763.2L637,763.2z" style="fill: rgb(60, 36, 21);"/>
			</g>
			<g>
				<path class="st3" d="M651.3,767.2c-0.8,4.8-4.1,7.3-8.3,7.3c-2.7,0-4.7-1.4-4.7-3c0-1.1,0.9-1.6,0.9-1.6s0.9,0.8,2.7,0.8&#10;&#9;&#9;&#9;&#9;&#9;c1.7,0,4-0.7,4.4-3.3l0.3-2c-1.1,1.6-2.6,3-4.5,3c-2.1,0-3.1-1.7-2.5-5.3l0.6-3.8c0.4-2.3,0.5-4.3,0.5-4.3c1.5-0.3,3.5-1,4.2-1&#10;&#9;&#9;&#9;&#9;&#9;c0.5,0,1,0.5,1,0.5l-0.8,4.8l-0.7,4.4c-0.1,0.4,0,0.6,0.4,0.6c1.8,0,2.8-5.1,2.8-5.1c0.4-2.3,0.5-4.3,0.5-4.3&#10;&#9;&#9;&#9;&#9;&#9;c1.5-0.3,3.5-1,4.2-1c0.5,0,1,0.5,1,0.5l-0.8,4.8L651.3,767.2z" style="fill: rgb(60, 36, 21);"/>
			</g>
		</g>
		<g>
			<path class="st3" d="M446.6,754.9h4.8c1.1,0,1.9,0.1,2.5,0.2c0.8,0.2,1.4,0.6,1.9,1.2c0.5,0.6,0.9,1.3,1.2,2.1&#10;&#9;&#9;&#9;&#9;c0.3,0.8,0.4,1.8,0.4,3c0,1.1-0.1,2-0.4,2.7c-0.3,0.9-0.8,1.7-1.4,2.3c-0.5,0.4-1.1,0.8-1.8,1c-0.6,0.2-1.3,0.3-2.3,0.3h-4.9&#10;&#9;&#9;&#9;&#9;V754.9z M449.2,757v8.5h1.9c0.7,0,1.3,0,1.6-0.1c0.4-0.1,0.8-0.3,1.1-0.5c0.3-0.3,0.5-0.7,0.7-1.2c0.2-0.6,0.3-1.4,0.3-2.4&#10;&#9;&#9;&#9;&#9;s-0.1-1.8-0.3-2.3c-0.2-0.5-0.4-0.9-0.7-1.2c-0.3-0.3-0.7-0.5-1.2-0.6c-0.4-0.1-1.1-0.1-2.1-0.1H449.2z" style="fill: rgb(60, 36, 21);"/>
			<path class="st3" d="M464.6,764.8l2.5,0.4c-0.3,0.9-0.8,1.6-1.5,2.1c-0.7,0.5-1.5,0.7-2.6,0.7c-1.6,0-2.8-0.5-3.6-1.6&#10;&#9;&#9;&#9;&#9;c-0.6-0.8-0.9-1.9-0.9-3.2c0-1.5,0.4-2.8,1.2-3.6c0.8-0.9,1.8-1.3,3.1-1.3c1.4,0,2.5,0.5,3.3,1.4c0.8,0.9,1.2,2.3,1.2,4.2H461&#10;&#9;&#9;&#9;&#9;c0,0.7,0.2,1.3,0.6,1.7c0.4,0.4,0.9,0.6,1.4,0.6c0.4,0,0.7-0.1,1-0.3C464.3,765.6,464.5,765.2,464.6,764.8z M464.7,762.3&#10;&#9;&#9;&#9;&#9;c0-0.7-0.2-1.3-0.6-1.6c-0.4-0.4-0.8-0.6-1.3-0.6c-0.5,0-1,0.2-1.3,0.6c-0.4,0.4-0.5,0.9-0.5,1.6H464.7z" style="fill: rgb(60, 36, 21);"/>
			<path class="st3" d="M468,765.1l2.5-0.4c0.1,0.5,0.3,0.8,0.6,1.1c0.3,0.2,0.8,0.4,1.4,0.4c0.6,0,1.1-0.1,1.4-0.4&#10;&#9;&#9;&#9;&#9;c0.2-0.2,0.3-0.4,0.3-0.7c0-0.2-0.1-0.3-0.2-0.5c-0.1-0.1-0.4-0.2-0.8-0.3c-2-0.4-3.3-0.8-3.8-1.2c-0.7-0.5-1.1-1.2-1.1-2.1&#10;&#9;&#9;&#9;&#9;c0-0.8,0.3-1.5,1-2c0.6-0.6,1.6-0.8,3-0.8c1.3,0,2.2,0.2,2.8,0.6c0.6,0.4,1,1,1.3,1.8l-2.3,0.4c-0.1-0.4-0.3-0.6-0.6-0.8&#10;&#9;&#9;&#9;&#9;c-0.3-0.2-0.7-0.3-1.2-0.3c-0.7,0-1.1,0.1-1.4,0.3c-0.2,0.1-0.3,0.3-0.3,0.5c0,0.2,0.1,0.3,0.2,0.4c0.2,0.2,1,0.4,2.3,0.7&#10;&#9;&#9;&#9;&#9;c1.3,0.3,2.2,0.7,2.8,1.1c0.5,0.4,0.8,1.1,0.8,1.8c0,0.9-0.4,1.6-1.1,2.2c-0.7,0.6-1.8,0.9-3.2,0.9c-1.3,0-2.3-0.3-3-0.8&#10;&#9;&#9;&#9;&#9;C468.7,766.7,468.2,766,468,765.1z" style="fill: rgb(60, 36, 21);"/>
			<path class="st3" d="M478.5,757.1v-2.3h2.5v2.3H478.5z M478.5,767.7v-9.3h2.5v9.3H478.5z" style="fill: rgb(60, 36, 21);"/>
			<path class="st3" d="M482.9,768.4l2.8,0.3c0,0.3,0.2,0.6,0.3,0.7c0.2,0.2,0.6,0.3,1.1,0.3c0.6,0,1.1-0.1,1.5-0.3&#10;&#9;&#9;&#9;&#9;c0.2-0.1,0.4-0.3,0.5-0.6c0.1-0.2,0.1-0.6,0.1-1.1v-1.4c-0.7,1-1.7,1.5-2.8,1.5c-1.3,0-2.2-0.5-3-1.6c-0.6-0.8-0.9-1.9-0.9-3.1&#10;&#9;&#9;&#9;&#9;c0-1.6,0.4-2.8,1.1-3.6c0.8-0.8,1.7-1.2,2.8-1.2c1.2,0,2.1,0.5,2.9,1.5v-1.3h2.3v8.4c0,1.1-0.1,1.9-0.3,2.5s-0.4,1-0.8,1.3&#10;&#9;&#9;&#9;&#9;c-0.3,0.3-0.8,0.6-1.3,0.7c-0.5,0.2-1.2,0.3-2.1,0.3c-1.6,0-2.7-0.3-3.4-0.8c-0.7-0.5-1-1.2-1-2.1&#10;&#9;&#9;&#9;&#9;C482.9,768.6,482.9,768.5,482.9,768.4z M485.1,762.9c0,1,0.2,1.7,0.6,2.2c0.4,0.5,0.9,0.7,1.4,0.7c0.6,0,1.1-0.2,1.5-0.7&#10;&#9;&#9;&#9;&#9;c0.4-0.5,0.6-1.2,0.6-2.1c0-1-0.2-1.7-0.6-2.2c-0.4-0.5-0.9-0.7-1.5-0.7c-0.6,0-1.1,0.2-1.5,0.7&#10;&#9;&#9;&#9;&#9;C485.3,761.2,485.1,761.9,485.1,762.9z" style="fill: rgb(60, 36, 21);"/>
			<path class="st3" d="M502.2,767.7h-2.5V763c0-1-0.1-1.7-0.2-2c-0.1-0.3-0.3-0.5-0.5-0.7c-0.2-0.2-0.5-0.2-0.9-0.2&#10;&#9;&#9;&#9;&#9;c-0.4,0-0.8,0.1-1.2,0.4c-0.3,0.2-0.6,0.5-0.7,0.9c-0.1,0.4-0.2,1.1-0.2,2.1v4.2h-2.5v-9.3h2.3v1.4c0.8-1.1,1.8-1.6,3.1-1.6&#10;&#9;&#9;&#9;&#9;c0.5,0,1,0.1,1.5,0.3c0.5,0.2,0.8,0.4,1,0.8c0.2,0.3,0.4,0.7,0.5,1c0.1,0.4,0.1,0.9,0.1,1.7V767.7z" style="fill: rgb(60, 36, 21);"/>
			<path class="st3" d="M509.8,764.8l2.5,0.4c-0.3,0.9-0.8,1.6-1.5,2.1c-0.7,0.5-1.5,0.7-2.6,0.7c-1.6,0-2.8-0.5-3.6-1.6&#10;&#9;&#9;&#9;&#9;c-0.6-0.8-0.9-1.9-0.9-3.2c0-1.5,0.4-2.8,1.2-3.6c0.8-0.9,1.8-1.3,3.1-1.3c1.4,0,2.5,0.5,3.3,1.4c0.8,0.9,1.2,2.3,1.2,4.2h-6.2&#10;&#9;&#9;&#9;&#9;c0,0.7,0.2,1.3,0.6,1.7c0.4,0.4,0.9,0.6,1.4,0.6c0.4,0,0.7-0.1,1-0.3C509.5,765.6,509.7,765.2,509.8,764.8z M509.9,762.3&#10;&#9;&#9;&#9;&#9;c0-0.7-0.2-1.3-0.6-1.6c-0.4-0.4-0.8-0.6-1.3-0.6c-0.5,0-1,0.2-1.3,0.6c-0.4,0.4-0.5,0.9-0.5,1.6H509.9z" style="fill: rgb(60, 36, 21);"/>
			<path class="st3" d="M522.6,767.7h-2.3v-1.4c-0.4,0.5-0.8,0.9-1.3,1.2c-0.5,0.3-1,0.4-1.6,0.4c-1.1,0-2-0.4-2.8-1.3&#10;&#9;&#9;&#9;&#9;c-0.8-0.9-1.1-2.1-1.1-3.6c0-1.6,0.4-2.8,1.1-3.6c0.7-0.8,1.7-1.2,2.8-1.2c1,0,1.9,0.4,2.7,1.3v-4.6h2.5V767.7z M516,762.9&#10;&#9;&#9;&#9;&#9;c0,1,0.1,1.7,0.4,2.2c0.4,0.6,1,1,1.7,1c0.6,0,1.1-0.2,1.5-0.7c0.4-0.5,0.6-1.2,0.6-2.2c0-1.1-0.2-1.8-0.6-2.3&#10;&#9;&#9;&#9;&#9;c-0.4-0.5-0.9-0.7-1.5-0.7c-0.6,0-1.1,0.2-1.5,0.7C516.2,761.2,516,761.9,516,762.9z" style="fill: rgb(60, 36, 21);"/>
			<path class="st3" d="M529.2,767.7v-12.9h2.5v4.6c0.8-0.9,1.7-1.3,2.7-1.3c1.1,0,2.1,0.4,2.8,1.2c0.7,0.8,1.1,2,1.1,3.5&#10;&#9;&#9;&#9;&#9;c0,1.6-0.4,2.8-1.1,3.7c-0.8,0.9-1.7,1.3-2.8,1.3c-0.5,0-1.1-0.1-1.6-0.4c-0.5-0.3-1-0.7-1.3-1.2v1.4H529.2z M531.7,762.9&#10;&#9;&#9;&#9;&#9;c0,1,0.2,1.7,0.5,2.1c0.4,0.7,1,1,1.7,1c0.5,0,1-0.2,1.4-0.7c0.4-0.5,0.6-1.2,0.6-2.2c0-1.1-0.2-1.8-0.6-2.3&#10;&#9;&#9;&#9;&#9;c-0.4-0.5-0.9-0.7-1.5-0.7c-0.6,0-1.1,0.2-1.5,0.7C531.9,761.2,531.7,761.9,531.7,762.9z" style="fill: rgb(60, 36, 21);"/>
			<path class="st3" d="M538.8,758.4h2.6l2.2,6.6l2.2-6.6h2.6l-3.3,9l-0.6,1.6c-0.2,0.5-0.4,1-0.6,1.2c-0.2,0.3-0.4,0.5-0.7,0.7&#10;&#9;&#9;&#9;&#9;c-0.3,0.2-0.6,0.3-0.9,0.4c-0.4,0.1-0.8,0.1-1.3,0.1c-0.5,0-0.9,0-1.4-0.1l-0.2-1.9c0.4,0.1,0.7,0.1,1,0.1c0.6,0,1-0.2,1.3-0.5&#10;&#9;&#9;&#9;&#9;c0.3-0.3,0.5-0.8,0.6-1.3L538.8,758.4z" style="fill: rgb(60, 36, 21);"/>
		</g>
	</g>
</svg>