<?xml version="1.0" encoding="UTF-8" standalone="no"?>
<svg
   xmlns:dc="http://purl.org/dc/elements/1.1/"
   xmlns:cc="http://creativecommons.org/ns#"
   xmlns:rdf="http://www.w3.org/1999/02/22-rdf-syntax-ns#"
   xmlns:svg="http://www.w3.org/2000/svg"
   xmlns="http://www.w3.org/2000/svg"
   id="svg8"
   version="1.1"
   viewBox="0 0 91.798073 84.896156"
   height="84.896156mm"
   width="91.798073mm">
  <defs
     id="defs2" />
  <metadata
     id="metadata5">
    <rdf:RDF>
      <cc:Work
         rdf:about="">
        <dc:format>image/svg+xml</dc:format>
        <dc:type
           rdf:resource="http://purl.org/dc/dcmitype/StillImage" />
        <dc:title></dc:title>
      </cc:Work>
    </rdf:RDF>
  </metadata>
  <g
     transform="translate(-58.945125,-103.2046)"
     id="layer1">
    <path
       id="path4242"
       d="m 90.895057,187.59935 c -15.556038,-2.44377 -27.223548,-12.86005 -31.03922,-27.71064 -3.59998,-14.01107 3.822144,-31.488 16.105376,-37.92342 7.811486,-4.09263 15.404918,-4.33729 30.129627,-0.9708 l 1.54897,0.35445 -1.61465,-2.12058 c -3.76983,-4.95108 -5.05961,-9.13192 -3.63714,-11.78989 0.74517,-1.39232 4.33327,-3.33714 7.36518,-3.99202 2.06055,-0.44544 2.09691,-0.41756 1.73187,1.32216 -1.01309,4.82743 -1.80897,12.60093 -1.44045,14.06927 0.74445,2.96611 2.32254,3.21217 8.67703,1.35305 3.13632,-0.91759 6.82078,-1.94313 8.18768,-2.27894 2.931,-0.7199 9.90858,-0.22896 14.29034,1.00536 l 3.10657,0.87526 -3.4172,0.0991 c -1.87951,0.0514 -3.94513,0.30675 -4.59025,0.55993 -0.95803,0.37572 -0.64798,0.66119 1.69114,1.55434 3.79806,1.45051 8.41943,5.69285 10.67239,9.79707 1.6722,3.04632 1.83482,3.89222 1.95246,10.15753 l 0.12842,6.83455 -0.57533,-4.64836 c -0.71917,-5.81107 -2.852,-10.26739 -6.54212,-13.66882 -2.53586,-2.3375 -9.28918,-6.09278 -9.8852,-5.49676 -0.12916,0.12916 0.58927,1.90505 1.59507,3.94697 1.21935,2.47451 1.94006,5.05954 2.16109,7.75126 l 0.3317,4.03855 -1.25237,-3.10657 c -0.68908,-1.70867 -2.09666,-4.12983 -3.12859,-5.38052 -3.27542,-3.96971 -10.25929,-6.52905 -13.9508,-5.11245 -0.87417,0.33537 -0.83461,0.63257 0.33676,2.52764 l 1.32728,2.14759 -2.39763,-1.28503 c -1.3187,-0.70669 -3.24056,-1.28481 -4.2708,-1.28459 -5.5607,0.001 -16.650784,8.62204 -20.181453,15.68754 -1.036499,2.07427 -1.884547,4.30236 -1.884547,4.95144 0,2.214 -1.169677,0.46452 -1.597704,-2.39012 -0.828066,-5.52193 1.344213,-13.76612 4.789691,-18.17782 1.949162,-2.49572 1.52211,-2.76996 -3.634721,-2.33406 -6.782472,0.57313 -11.391029,2.86976 -16.984473,8.46317 -4.768945,4.76894 -5.002607,4.47892 -1.794652,-2.2278 0.998024,-2.08645 3.230367,-5.23191 4.960756,-6.98983 1.730397,-1.75791 2.920995,-3.19353 2.645783,-3.19037 -1.470331,0.0147 -7.204042,4.05014 -9.691652,6.81701 -4.788795,5.32629 -6.791733,13.02766 -5.901071,22.68985 1.133036,12.29146 10.34935,22.03547 25.654744,27.12363 3.489875,1.1602 5.699646,1.44699 11.183729,1.45146 6.115,0.005 7.20711,-0.16951 10.37385,-1.65349 4.22565,-1.98078 8.52897,-6.10797 10.68094,-10.2439 2.0625,-3.96399 2.06829,-2.94035 0.008,1.41477 -0.88842,1.87797 -3.10095,4.93618 -4.91672,6.79603 -3.65757,3.74626 -3.53599,3.8476 2.964,2.47018 6.20551,-1.31497 12.13371,-4.71478 17.8741,-10.25065 2.72519,-2.62804 4.95482,-4.57763 4.95482,-4.33231 0,0.96684 -5.58438,7.90083 -8.77027,10.88976 -8.67154,8.13543 -30.08871,13.64848 -44.330247,11.41122 z"
       style="fill:#727272;stroke-width:0.62131846" />
  </g>
</svg>
