<svg xmlns="http://www.w3.org/2000/svg" viewBox="0 0 32 32"><path fill="#2CA5E0" d="M0 0h32v32H0z"/><path fill="#C8DAEA" d="M13.275 24.108c-.655 0-.544-.247-.77-.872l-1.927-6.343 14.836-8.8"/><path fill="#A9C9DD" d="M13.275 24.108c.506 0 .73-.23 1.01-.506l2.7-2.623-3.366-2.03"/><linearGradient id="a" gradientUnits="userSpaceOnUse" x1="224.037" y1="-141.216" x2="224.069" y2="-141.278" gradientTransform="matrix(130.493 0 0 -109.45 -29216.758 -15440.762)"><stop offset="0" stop-color="#EFF7FC"/><stop offset="1" stop-color="#FFF"/></linearGradient><path fill="url(#a)" d="M13.62 18.95l8.152 6.025c.93.513 1.602.248 1.834-.864l3.32-15.638c.34-1.362-.52-1.98-1.41-1.576L6.026 14.41c-1.33.534-1.32 1.276-.242 1.606l5 1.56 11.58-7.303c.546-.33 1.048-.153.636.212"/></svg>