<?xml version="1.0" encoding="utf-8"?>
<!-- Generator: Adobe Illustrator 15.0.0, SVG Export Plug-In . SVG Version: 6.00 Build 0)  -->
<!DOCTYPE svg PUBLIC "-//W3C//DTD SVG 1.1//EN" "http://www.w3.org/Graphics/SVG/1.1/DTD/svg11.dtd">
<svg version="1.1" id="Layer_1" xmlns="http://www.w3.org/2000/svg" xmlns:xlink="http://www.w3.org/1999/xlink" x="0px" y="0px"
	 viewBox="225.445 393.775 280 560" enable-background="new 225.445 393.775 280 560"
	 xml:space="preserve">
<g>
	<path d="M411.913,581.781h85.424l-10.39,93.503h-75.034v271.274H299.94V675.284h-56.563v-93.503h56.563v-56.562
		c0-40.006,9.236-70.416,27.706-91.194c19.227-20.001,50.394-30.014,93.502-30.014h75.034v93.503h-46.175
		c-10.785,0-17.712,0.775-20.777,2.308c-5.396,0.777-9.235,3.087-11.544,6.927c-1.55,3.086-3.085,6.926-4.617,11.543
		c0,0.777-0.2,3.087-0.577,6.927c-0.396,3.859-0.578,6.927-0.578,9.234L411.913,581.781L411.913,581.781z"/>
</g>
</svg>
