<?xml version="1.0" encoding="UTF-8" standalone="no"?>
<!-- Created with Inkscape (http://www.inkscape.org/) -->

<svg xmlns="http://www.w3.org/2000/svg" viewBox="0 0 200 400"> 
  <g>
    <path d="m 16.576324,34.767663 c 3.048375,-3.048375 11.707947,-2.405458 11.707947,-2.405458 l 249.715729,0 c 0,0 4.74376,0.275582 6.96429,1.25 2.22053,0.974418 5.37783,3.780251 5.37783,3.780251 L 411.26039,168.82536 c 0,0 1.82329,2.77128 0.7039,4.78685 0,0 -2.00606,1.61152 -3.86266,1.60714 -137.88138,-0.3253 -383.352893,0 -383.352893,0 0,0 -6.357477,0.30478 -8.682565,-2.02031 -2.325089,-2.32508 -1.780458,-7.24569 -1.780458,-7.24569 l 0,-121.723386 c 0,0 -0.757764,-6.413927 2.29061,-9.462301 z" />
  </g>
</svg>
