<svg xmlns="http://www.w3.org/2000/svg" width="60" height="60" viewBox="0 0 60 60">
  <defs>
    <style>
      .cls-1 {
        fill: #ffc000;
        fill-rule: evenodd;
      }
    </style>
  </defs>
  <path id="Forma_1" data-name="Forma 1" class="cls-1" d="M838,2046H783v-55a1,1,0,0,0-2,0v55h-1a1,1,0,0,0,0,2h1v1a1,1,0,0,0,2,0v-1h55A1,1,0,0,0,838,2046Zm-52-27h2a1,1,0,0,0,0-2h-2A1,1,0,0,0,786,2019Zm0-4h2a1,1,0,0,0,0-2h-2A1,1,0,0,0,786,2015Zm0-4h2a1,1,0,0,0,0-2h-2A1,1,0,0,0,786,2011Zm0-4h2a1,1,0,0,0,0-2h-2A1,1,0,0,0,786,2007Zm0-4h2a1,1,0,0,0,0-2h-2A1,1,0,0,0,786,2003Zm0-4h2a1,1,0,0,0,0-2h-2A1,1,0,0,0,786,1999Zm0-4h2a1,1,0,0,0,0-2h-2A1,1,0,0,0,786,1995Zm4.013,43.99a5.994,5.994,0,0,0,4.438-10.03l3.526-3.52a5.969,5.969,0,0,0,8.047,0l4.538,4.53a6,6,0,1,0,9.712,1.17l8.7-8.7a5.945,5.945,0,1,0-1.251-1.58l-8.7,8.7A5.95,5.95,0,0,0,815,2028a5.89,5.89,0,0,0-2.86.73l-4.867-4.87a6,6,0,1,0-10.547,0l-3.854,3.85A6,6,0,1,0,790.013,2038.99ZM833,2014a4,4,0,1,1-4,4A4,4,0,0,1,833,2014Zm-14,20a4,4,0,1,1-4-4A4.008,4.008,0,0,1,819,2034Zm-17-17a4,4,0,1,1-4,4A4,4,0,0,1,802,2017Zm-11.987,11.99a4,4,0,1,1-4,4A4,4,0,0,1,790.013,2028.99Z" transform="translate(-779 -1990)"/>
</svg>
