<svg xmlns="http://www.w3.org/2000/svg" width="59.97" height="60" viewBox="0 0 59.97 60">
  <defs>
    <style>
      .cls-1 {
        fill: #ffc000;
        fill-rule: evenodd;
      }
    </style>
  </defs>
  <path id="Forma_1" data-name="Forma 1" class="cls-1" d="M1409,2042.01a22.005,22.005,0,1,0-22-22.01A22.028,22.028,0,0,0,1409,2042.01Zm0-42.01a20.005,20.005,0,1,1-20,20A20.02,20.02,0,0,1,1409,2000Zm0,5a1,1,0,0,0,1-1v-2a1,1,0,0,0-2,0v2A1,1,0,0,0,1409,2005Zm0,30.01a1,1,0,0,0-1,1v2a1,1,0,1,0,2,0v-2A1,1,0,0,0,1409,2035.01Zm16-14.01h2a1,1,0,0,0,0-2h-2A1,1,0,0,0,1425,2021Zm-32-2h-2a1,1,0,0,0,0,2h2A1,1,0,0,0,1393,2019Zm5,12.01a0.992,0.992,0,0,0,.71-0.3l8.27-8.27a3.986,3.986,0,1,0,3.02-7.29V2010a1,1,0,0,0-2,0v5.15a3.979,3.979,0,0,0-3,3.85,3.864,3.864,0,0,0,.57,2.02l-8.28,8.28A1.005,1.005,0,0,0,1398,2031.01Zm11-14.01a2,2,0,1,1-2,2A2.006,2.006,0,0,1,1409,2017Zm-19.92-17H1397a1,1,0,0,0,0-2h-5.3a27.985,27.985,0,0,1,45.3,22,1,1,0,0,0,2,0,29.976,29.976,0,0,0-49-23.19V1991a1,1,0,0,0-2,0v9h0.89A0.6,0.6,0,0,0,1389.08,2000Zm-5.26,32.23a1,1,0,1,0-.9,1.45,0.861,0.861,0,0,0,.43-0.11A1,1,0,0,0,1383.82,2032.23Zm3.05,4.92a1,1,0,1,0-.79,1.61,1.031,1.031,0,0,0,.62-0.21A1,1,0,0,0,1386.87,2037.15Zm-1.65-2.38a1,1,0,0,0-1.7,1.06,1.014,1.014,0,0,0,.85.47,1.04,1.04,0,0,0,.53-0.15A1,1,0,0,0,1385.22,2034.77Zm2.13,4.54a1,1,0,0,0-.03,1.41,0.991,0.991,0,0,0,1.41.03A1,1,0,1,0,1387.35,2039.31Zm2.11,2.13a1,1,0,1,0,1.41-.11A1,1,0,0,0,1389.46,2041.44Zm-8.35-13.42a1.018,1.018,0,0,0,.73-1.22,1,1,0,0,0-1.94.5,1.015,1.015,0,0,0,.97.76A1,1,0,0,0,1381.11,2028.02Zm-0.68-2.92a1.083,1.083,0,1,0-.14,0h0.14Zm2.25,4.47a0.995,0.995,0,1,0-.94,1.34,1.073,1.073,0,0,0,.35-0.06A0.985,0.985,0,0,0,1382.68,2029.57Zm-2.66-7.45h0.04A1.022,1.022,0,1,0,1380.02,2022.12Zm11.76,21.23a0.987,0.987,0,0,0,.82,1.56,0.984,0.984,0,0,0,.82-0.43A1,1,0,1,0,1391.78,2043.35Zm36.16-2.73v-0.01a1,1,0,0,0-.06,1.42,1.024,1.024,0,0,0,.74.32,1.008,1.008,0,0,0,.67-0.26A1,1,0,1,0,1427.94,2040.62Zm2.03-2.07a0.995,0.995,0,0,0,.74,1.66,0.977,0.977,0,0,0,.75-0.34A1,1,0,1,0,1429.97,2038.55Zm1.8-2.27a1.006,1.006,0,0,0,.23,1.4,0.969,0.969,0,0,0,.58.18,1,1,0,0,0,.59-1.81A1.015,1.015,0,0,0,1431.77,2036.28Zm-6.06,6.18a1,1,0,0,0-.2,1.4,1,1,0,0,0,1.39.21A1,1,0,1,0,1425.71,2042.46Zm-2.41,1.61a1,1,0,0,0-.34,1.37,0.981,0.981,0,0,0,.86.49,0.959,0.959,0,0,0,.51-0.14A1,1,0,0,0,1423.3,2044.07Zm11.4-10.6a1,1,0,0,0-1.37.38h0.01a0.99,0.99,0,0,0,.37,1.36,0.947,0.947,0,0,0,.49.13,1.016,1.016,0,0,0,.87-0.5A1,1,0,0,0,1434.7,2033.47Zm3.25-11.47a1,1,0,0,0-1.1.89,1.015,1.015,0,0,0,.89,1.11h0.11a1,1,0,0,0,.99-0.9A0.994,0.994,0,0,0,1437.95,2022Zm-0.36,2.98a1,1,0,0,0-.41,1.95,0.511,0.511,0,0,0,.21.03,0.984,0.984,0,0,0,.97-0.79A1,1,0,0,0,1437.59,2024.98Zm-0.67,2.92a0.988,0.988,0,0,0-1.25.65,1.006,1.006,0,0,0,.64,1.26,1.1,1.1,0,0,0,.31.04A1,1,0,0,0,1436.92,2027.9Zm-0.96,2.85a1,1,0,0,0-.81,1.83,0.968,0.968,0,0,0,.4.09,1.009,1.009,0,0,0,.92-0.61A1,1,0,0,0,1435.96,2030.75Zm-15.21,14.68a1,1,0,0,0,.42,1.9,1.059,1.059,0,0,0,.42-0.09,0.994,0.994,0,0,0,.48-1.33A0.983,0.983,0,0,0,1420.75,2045.43Zm-16.97,2.09a1,1,0,1,0-.37,1.97,1.087,1.087,0,0,0,.18.01A1,1,0,0,0,1403.78,2047.52Zm2.87,0.39a1,1,0,0,0-.17,2v-0.01a0.249,0.249,0,0,0,.08.01A1,1,0,0,0,1406.65,2047.91Zm-5.68-1.07a1,1,0,1,0,.67,1.24A0.988,0.988,0,0,0,1400.97,2046.84Zm-2.73-.98a1,1,0,0,0-.77,1.85,1.072,1.072,0,0,0,.39.07A1,1,0,0,0,1398.24,2045.86Zm14.19,1.94a1,1,0,0,0,.12,1.99,0.487,0.487,0,0,0,.12-0.01v0.01a1,1,0,0,0,.87-1.12A0.987,0.987,0,0,0,1412.43,2047.8Zm5.63-1.29a1,1,0,0,0,.32,1.94,1.257,1.257,0,0,0,.33-0.05A1,1,0,1,0,1418.06,2046.51Zm-2.78.79a1,1,0,0,0,.22,1.97,0.9,0.9,0,0,0,.23-0.02A1,1,0,1,0,1415.28,2047.3Zm-5.74.7a1,1,0,0,0,.02,2h0.02A1,1,0,0,0,1409.54,2048Zm-13.91-3.39a1,1,0,1,0-.95,1.75,0.9,0.9,0,0,0,.47.13A1,1,0,0,0,1395.63,2044.61Z" transform="translate(-1379.03 -1990)"/>
</svg>
