<svg xmlns="http://www.w3.org/2000/svg" width="57" height="58" viewBox="0 0 57 58">
  <defs>
    <style>
      .cls-1 {
        fill: #ffc000;
        fill-rule: evenodd;
      }
    </style>
  </defs>
  <path id="Forma_1" data-name="Forma 1" class="cls-1" d="M1112.5,1992a21.578,21.578,0,0,0-3.02.21,21.984,21.984,0,0,0-2.98-.21,23.116,23.116,0,0,0-13.33,4.29h0a26.929,26.929,0,0,0-5.33,4.97,0.609,0.609,0,0,0-.12.15,29.227,29.227,0,0,0-3.79,6.12,1.009,1.009,0,0,0-.07.15,31.647,31.647,0,0,0-1.76,4.9,0.789,0.789,0,0,0-.08.31A32.584,32.584,0,0,0,1081,2021a32.177,32.177,0,0,0,2.42,12.32c0.02,0.04.03,0.08,0.05,0.12a29.885,29.885,0,0,0,3.47,6.13,0.527,0.527,0,0,0,.11.15,26.794,26.794,0,0,0,4.74,4.94,0.746,0.746,0,0,0,.17.14,23.323,23.323,0,0,0,14.54,5.2,21.984,21.984,0,0,0,2.98-.21,23.208,23.208,0,0,0,3.02.21c14.06,0,25.5-13.01,25.5-29S1126.56,1992,1112.5,1992Zm-10.58,2.62c-0.32.17-.63,0.34-0.94,0.52l-0.57.33c-0.27.17-.54,0.35-0.81,0.53h-1.93a20.635,20.635,0,0,1,4.58-1.56ZM1091.86,2038h-3.59a28.294,28.294,0,0,1-2.34-4h3.79q0.225,0.525.48,1.05c0.08,0.15.15,0.29,0.23,0.44,0.2,0.4.42,0.8,0.64,1.19,0.08,0.15.16,0.29,0.24,0.43C1091.49,2037.41,1091.67,2037.71,1091.86,2038Zm-6.39-29h3.82c-0.17.44-.34,0.88-0.49,1.33-0.05.12-.09,0.24-0.13,0.37-0.15.43-.28,0.86-0.41,1.3h-3.9A27.532,27.532,0,0,1,1085.47,2009Zm-2.47,12c0-.68.04-1.34,0.08-2h3.98v0.05c-0.03.64-.06,1.29-0.06,1.95,0,0.33.01,0.67,0.02,1h-3.98C1083.03,2021.66,1083,2021.34,1083,2021Zm4.14,3c0.03,0.42.08,0.84,0.14,1.25a0.375,0.375,0,0,0,.01.1c0.07,0.55.16,1.1,0.26,1.65h-3.94a29.281,29.281,0,0,1-.45-3h3.98Zm0.62-10c-0.03.12-.05,0.24-0.08,0.36s-0.05.26-.08,0.39c-0.12.63-.23,1.26-0.31,1.9a0.277,0.277,0,0,0-.01.09c-0.01.09-.02,0.17-0.03,0.26h-3.97a29.361,29.361,0,0,1,.53-3h3.95Zm0.23,15c0.04,0.12.06,0.25,0.1,0.37,0.01,0.04.02,0.09,0.03,0.13,0.17,0.61.35,1.21,0.55,1.8,0.04,0.12.08,0.25,0.13,0.37s0.07,0.22.11,0.33h-3.85a30.09,30.09,0,0,1-.99-3h3.92Zm3.32-24.12c-0.08.15-.16,0.29-0.24,0.43-0.22.4-.44,0.79-0.64,1.2-0.08.14-.15,0.29-0.23,0.44a0.257,0.257,0,0,0-.02.05h-3.75a27.965,27.965,0,0,1,2.59-4h3.51c-0.12.17-.25,0.35-0.37,0.52C1091.87,2003.97,1091.58,2004.42,1091.31,2004.88Zm2.92-6.88h2.76c-0.24.22-.49,0.43-0.73,0.66-0.2.19-.4,0.39-0.6,0.59s-0.39.39-.58,0.6-0.37.39-.55,0.6c-0.16.18-.31,0.36-0.47,0.55h-3.3A23.411,23.411,0,0,1,1094.23,1998Zm-4.41,42h3.44c0.11,0.15.22,0.3,0.34,0.44q0.45,0.57.93,1.11c0.18,0.21.36,0.4,0.55,0.6s0.39,0.4.58,0.6c0.08,0.08.16,0.17,0.24,0.25h-3.01A25.54,25.54,0,0,1,1089.82,2040Zm12.43,7.56a21.547,21.547,0,0,1-6.47-2.56h2.42c0.13,0.09.25,0.19,0.38,0.28,0.21,0.16.42,0.32,0.64,0.47,0.39,0.27.79,0.53,1.19,0.78,0.19,0.11.38,0.22,0.56,0.33,0.32,0.18.63,0.35,0.95,0.51C1102.03,2047.43,1102.14,2047.5,1102.25,2047.56Zm10.25,0.44a20.311,20.311,0,0,1-2.35-.14l-0.4-.05a0.772,0.772,0,0,0-.15-0.02c-0.35-.05-0.69-0.11-1.03-0.18-0.03,0-.05-0.01-0.08-0.01-0.33-.07-0.67-0.14-0.99-0.22a0.5,0.5,0,0,1-.13-0.04c-0.31-.08-0.62-0.16-0.92-0.25-0.09-.03-0.17-0.06-0.25-0.08-0.26-.09-0.53-0.17-0.79-0.27-0.18-.06-0.36-0.14-0.55-0.21-0.15-.06-0.31-0.12-0.46-0.19a24.88,24.88,0,0,1-12.55-12.46c-0.02-.05-0.05-0.11-0.07-0.16-0.15-.31-0.29-0.62-0.42-0.94-0.06-.13-0.1-0.26-0.16-0.38-0.1-.25-0.2-0.5-0.29-0.76l-0.18-.48c-0.08-.23-0.16-0.45-0.23-0.68-0.06-.18-0.12-0.37-0.17-0.55-0.07-.21-0.13-0.43-0.19-0.64s-0.11-.39-0.16-0.59-0.11-.42-0.16-0.63-0.09-.41-0.13-0.61-0.09-.43-0.13-0.64-0.08-.41-0.12-0.62-0.07-.44-0.1-0.67l-0.09-.6c-0.03-.24-0.05-0.48-0.08-0.73-0.02-.19-0.04-0.37-0.05-0.56-0.03-.28-0.04-0.56-0.06-0.84-0.01-.16-0.02-0.32-0.03-0.47-0.02-.44-0.03-0.89-0.03-1.33s0.01-.89.03-1.33c0.01-.16.02-0.32,0.03-0.47,0.01-.28.03-0.56,0.05-0.84l0.06-.57c0.03-.24.05-0.48,0.08-0.72,0.03-.21.06-0.41,0.09-0.61,0.03-.22.06-0.45,0.1-0.67s0.08-.41.11-0.61c0.05-.22.09-0.43,0.13-0.65,0.05-.2.09-0.4,0.14-0.6,0.05-.22.1-0.43,0.16-0.64s0.1-.39.16-0.59,0.12-.42.18-0.64l0.18-.54c0.07-.23.15-0.45,0.23-0.68,0.06-.16.12-0.32,0.18-0.49,0.09-.25.19-0.5,0.29-0.75,0.06-.13.1-0.25,0.16-0.38,0.13-.32.27-0.63,0.42-0.95,0.02-.05.05-0.1,0.07-0.15a24.939,24.939,0,0,1,12.55-12.47c0.15-.06.31-0.12,0.46-0.18,0.19-.07.37-0.15,0.55-0.21,0.26-.1.53-0.19,0.79-0.27,0.08-.03.16-0.05,0.25-0.08,0.3-.09.61-0.18,0.92-0.25a0.5,0.5,0,0,1,.13-0.04c0.32-.08.66-0.16,0.99-0.22,0.03-.01.05-0.01,0.08-0.02,0.34-.06.68-0.12,1.03-0.17,0.05-.01.1-0.01,0.15-0.02l0.4-.06a22.815,22.815,0,0,1,2.35-.13c12.96,0,23.5,12.11,23.5,27S1125.46,2048,1112.5,2048Zm0-47.53a15.737,15.737,0,0,1,1.82.11,0.448,0.448,0,0,0,.11.01,1,1,0,0,0,.12-2,17.451,17.451,0,0,0-2.07-.12h-0.01l-0.01,1v-1a0.98,0.98,0,0,0-.98,1A1.014,1.014,0,0,0,1112.5,2000.47Zm-7.67,1.87a1.03,1.03,0,0,0,.45-0.11,16.2,16.2,0,0,1,1.71-.76,1,1,0,0,0,.59-1.28,1.007,1.007,0,0,0-1.29-.59,18.1,18.1,0,0,0-1.92.85,0.994,0.994,0,0,0-.43,1.34A0.981,0.981,0,0,0,1104.83,2002.34Zm24.8,12.95a1.009,1.009,0,0,0,.97.76,1.068,1.068,0,0,0,.25-0.03,1,1,0,0,0,.72-1.22c-0.16-.66-0.36-1.33-0.58-1.98a1,1,0,0,0-1.9.65C1129.3,2014.07,1129.48,2014.68,1129.63,2015.29Zm-1.4-8.01c-0.39-.58-0.8-1.13-1.24-1.67a1.009,1.009,0,0,0-1.41-.13,0.989,0.989,0,0,0-.14,1.4c0.4,0.49.78,1,1.13,1.52a1,1,0,0,0,1.39.27A1,1,0,0,0,1128.23,2007.28Zm-15.73,34.24a14.4,14.4,0,0,1-1.86-.11,1,1,0,0,0-.24,1.99,18.349,18.349,0,0,0,2.1.12h0.08a0.957,0.957,0,0,0,.96-1A1.038,1.038,0,0,0,1112.5,2041.52Zm13.02-6.5a18.728,18.728,0,0,1-1.26,1.4,1.008,1.008,0,0,0,.01,1.42,1,1,0,0,0,1.42-.01c0.48-.49.94-1.01,1.38-1.55a0.988,0.988,0,0,0-.14-1.4A1,1,0,0,0,1125.52,2035.02Zm-5.77,4.73a16.052,16.052,0,0,1-1.7.76,1,1,0,0,0,.35,1.94,1.09,1.09,0,0,0,.35-0.07,18.1,18.1,0,0,0,1.92-.85A1,1,0,0,0,1119.75,2039.75Zm2.61-38.3c-0.59-.38-1.2-0.73-1.82-1.05a1,1,0,0,0-.9,1.79,16.179,16.179,0,0,1,1.62.93,0.989,0.989,0,0,0,1.39-.29A1,1,0,0,0,1122.36,2001.45Zm8.97,18.52a1.029,1.029,0,0,0-1,1.03c0,0.62-.02,1.23-0.07,1.84a1,1,0,0,0,.92,1.07h0.08a1,1,0,0,0,1-.92c0.05-.65.07-1.32,0.07-1.99v-0.07A0.963,0.963,0,0,0,1131.33,2019.97Zm-36.66,1.03c0-.62.02-1.26,0.07-1.88a1,1,0,1,0-1.99-.16c-0.06.68-.08,1.36-0.08,2.04v0.02a0.988,0.988,0,0,0,1,.99A1.012,1.012,0,0,0,1094.67,2021Zm35.73,6.78a1.015,1.015,0,0,0-1.27.63c-0.2.6-.43,1.19-0.68,1.77a1,1,0,0,0,.52,1.32,1.1,1.1,0,0,0,.4.08,1,1,0,0,0,.91-0.6c0.28-.63.53-1.28,0.75-1.93A1.007,1.007,0,0,0,1130.4,2027.78Zm-34.35-17.32a1,1,0,0,0-1.32.52c-0.27.62-.52,1.27-0.75,1.93a1.015,1.015,0,0,0,.63,1.27,1.248,1.248,0,0,0,.32.05,1,1,0,0,0,.95-0.68c0.2-.6.43-1.19,0.68-1.77A1,1,0,0,0,1096.05,2010.46Zm2.35,23.11a1,1,0,0,0-1.39-.27,1.017,1.017,0,0,0-.27,1.39c0.4,0.57.81,1.13,1.24,1.66a0.994,0.994,0,0,0,1.41.14,1,1,0,0,0,.14-1.41C1099.14,2034.6,1098.76,2034.09,1098.4,2033.57Zm-3.05-6.9a0.987,0.987,0,0,0-1.21-.73,1,1,0,0,0-.73,1.21c0.17,0.67.37,1.33,0.59,1.98a0.993,0.993,0,0,0,.94.68,1.257,1.257,0,0,0,.33-0.05,1,1,0,0,0,.62-1.27C1095.69,2027.89,1095.51,2027.28,1095.35,2026.67Zm4-22.53a20.328,20.328,0,0,0-1.39,1.54,1.006,1.006,0,0,0,.77,1.64,0.986,0.986,0,0,0,.77-0.37,18.85,18.85,0,0,1,1.27-1.4,1.017,1.017,0,0,0-.01-1.42A1,1,0,0,0,1099.35,2004.14Zm5.97,35.65a17.478,17.478,0,0,1-1.62-.94,1.013,1.013,0,0,0-1.39.29,1,1,0,0,0,.29,1.38,17.339,17.339,0,0,0,1.81,1.05,0.934,0.934,0,0,0,.45.11A1,1,0,0,0,1105.32,2039.79Zm13.08-18.99a17.676,17.676,0,0,0-3.38-1.23c-0.71-.19-1.22-0.32-1.53-0.4v-8.94a6.14,6.14,0,0,1,1.3.4,9.693,9.693,0,0,1,3.73,2.87v2.08a0.99,0.99,0,0,0,1.98,0v-6.16a0.985,0.985,0,1,0-1.97,0v1.31a3.629,3.629,0,0,0-.41-0.62,11.365,11.365,0,0,0-4.63-1.86v-1.43a0.985,0.985,0,1,0-1.97,0v1.29c-2.56.04-4.48,0.63-5.71,1.75a6.059,6.059,0,0,0-1.95,4.72,4.561,4.561,0,0,0,.89,2.77,6.723,6.723,0,0,0,2.46,1.95,27.064,27.064,0,0,0,4.31,1.51v9.56a9.8,9.8,0,0,1-5.05-2.62v-2.24a0.985,0.985,0,1,0-1.97,0v6.16a0.985,0.985,0,1,0,1.97,0v-1.31a8.834,8.834,0,0,0,5.05,2v1.41a0.985,0.985,0,1,0,1.97,0v-1.29a9.31,9.31,0,0,0,6.03-1.84,6.248,6.248,0,0,0,2.22-5.02,4.7,4.7,0,0,0-.89-2.86A6.685,6.685,0,0,0,1118.4,2020.8Zm-6.88-2.18c-0.34-.11-0.72-0.22-1.13-0.33a16.41,16.41,0,0,1-2.11-.79,4.954,4.954,0,0,1-1.77-1.33,2.773,2.773,0,0,1-.68-1.88,3.757,3.757,0,0,1,1.42-2.97,6.744,6.744,0,0,1,4.27-1.24v8.54h0Zm7.35,11.26c-0.01.01-.03,0.02-0.05,0.04,0.14-.12.28-0.24,0.41-0.37Q1119.065,2029.715,1118.87,2029.88Zm-0.72-.71a7.46,7.46,0,0,1-4.65,1.34v-9.17l1.57,0.44a16.476,16.476,0,0,1,2.25.82,4.869,4.869,0,0,1,1.77,1.33,2.773,2.773,0,0,1,.68,1.88A4.067,4.067,0,0,1,1118.15,2029.17Z" transform="translate(-1081 -1992)"/>
</svg>
