<svg xmlns="http://www.w3.org/2000/svg" width="60" height="60" viewBox="0 0 60 60">
  <defs>
    <style>
      .cls-1 {
        fill: #ffc000;
        fill-rule: evenodd;
      }
    </style>
  </defs>
  <path id="Forma_1" data-name="Forma 1" class="cls-1" d="M538,1998a1,1,0,0,0,1-1v-6a1,1,0,0,0-1-1h-6a1,1,0,0,0-1,1v5.58l-19.981,19.99a3.826,3.826,0,0,0-1.041-.43,24.028,24.028,0,0,0-23.113-23.12,4.007,4.007,0,1,0-.014,2,22.021,22.021,0,0,1,21.127,21.13,3.952,3.952,0,0,0-2.411,5.87L485.586,2042H480a1,1,0,0,0-1,1v6a1,1,0,0,0,1,1h6a1,1,0,0,0,1-1v-5.59l19.981-19.98a3.942,3.942,0,0,0,1.831.55l-3.284,17.78a1,1,0,0,0,.525,1.07,0.935,0.935,0,0,0,.458.11,0.993,0.993,0,0,0,.719-0.3l5.355-5.54a23.978,23.978,0,0,0,18.549,9.87,4,4,0,1,0,.016-2,21.981,21.981,0,0,1-16.584-8.55l7.67,2.2a1.019,1.019,0,0,0,1.116-.42,1,1,0,0,0-.08-1.19l-11.826-13.87a3.925,3.925,0,0,0,.987-5.16L532.414,1998H538Zm-55-2a2,2,0,1,1,2-2A2,2,0,0,1,483,1996Zm52,48a2,2,0,1,1-2,2A2,2,0,0,1,535,2044Zm-2-52h4v4h-4v-4Zm-24,26a2,2,0,1,1-1.411,3.41h0A2,2,0,0,1,509,2018Zm-24,30h-4v-4h4v4Zm28.5-13.96a1.013,1.013,0,0,0-.994.26l-4.41,4.56,2.515-13.61,8.987,10.53Z" transform="translate(-479 -1990)"/>
</svg>
