<?xml version="1.0" encoding="utf-8"?>
<!-- Generator: Adobe Illustrator 21.0.0, SVG Export Plug-In . SVG Version: 6.00 Build 0)  -->
<svg version="1.1" id="Layer_1" xmlns="http://www.w3.org/2000/svg" xmlns:xlink="http://www.w3.org/1999/xlink" x="0px" y="0px"
	 viewBox="0 0 72 72" style="enable-background:new 0 0 72 72;" xml:space="preserve">
<style type="text/css">
	.st0{fill:#FFFFFF;}
	.st1{fill:#1A3857;}
</style>
<g>
	<path class="st0" d="M36,72c19.9,0,36-16.1,36-36C72,16.1,55.9,0,36,0C16.1,0,0,16.1,0,36C0,55.9,16.1,72,36,72"/>
	<path class="st1" d="M30,52.1c-4.3,0-7.4-2.7-7.4-6c0-3.2,3.8-5.8,8.1-5.8c1,0,1.9,0.2,2.8,0.4c2.3,1.6,4,2.5,4.5,4.4
		c0.1,0.4,0.1,0.8,0.1,1.1C38.2,49.6,36.1,52.1,30,52.1 M31.2,33c-2.9-0.1-5.6-3.2-6.1-7c-0.5-3.8,1.4-6.7,4.3-6.6
		c2.9,0.1,5.6,3.1,6.1,6.9C36,30.1,34,33.1,31.2,33 M37.1,38.6c-1-0.7-2.9-2.4-2.9-3.5c0-1.2,0.3-1.8,2.1-3.2
		c1.8-1.4,3.1-3.5,3.1-5.8c0-2.8-1.2-5.5-3.6-6.4h3.5l2.5-1.8H30.8c-5,0-9.7,3.8-9.7,8.2c0,4.5,3.4,8.1,8.5,8.1c0.4,0,0.7,0,1,0
		c-0.3,0.6-0.6,1.3-0.6,2.1c0,1.2,0.7,2.3,1.5,3.1c-0.6,0-1.3,0-1.9,0c-6.2,0-11,3.9-11,8c0,4,5.2,6.5,11.4,6.5c7.1,0,11-4,11-8
		C41,42.6,40.1,40.7,37.1,38.6 M53.3,33.4H49V29h-3.5v4.3h-4.3v3.5h4.3v4.3H49v-4.3h4.3V33.4z"/>
</g>
</svg>
