<?xml version="1.0" encoding="UTF-8" standalone="no"?>
<svg
   xmlns:dc="http://purl.org/dc/elements/1.1/"
   xmlns:cc="http://creativecommons.org/ns#"
   xmlns:rdf="http://www.w3.org/1999/02/22-rdf-syntax-ns#"
   xmlns:svg="http://www.w3.org/2000/svg"
   xmlns="http://www.w3.org/2000/svg"
   xmlns:sodipodi="http://sodipodi.sourceforge.net/DTD/sodipodi-0.dtd"
   xmlns:inkscape="http://www.inkscape.org/namespaces/inkscape"
   version="1.0"
   width="1280.000000pt"
   height="800.000000pt"
   viewBox="0 0 1280.000000 800.000000"
   preserveAspectRatio="xMidYMid meet"
   id="svg3507"
   inkscape:version="0.91 r13725"
   sodipodi:docname="logo_TRUCK.svg">
  <defs
     id="defs3641" />
  <sodipodi:namedview
     pagecolor="#ffffff"
     bordercolor="#666666"
     borderopacity="1"
     objecttolerance="10"
     gridtolerance="10"
     guidetolerance="10"
     inkscape:pageopacity="0"
     inkscape:pageshadow="2"
     inkscape:window-width="1366"
     inkscape:window-height="705"
     id="namedview3639"
     showgrid="false"
     inkscape:zoom="1.064"
     inkscape:cx="937.15287"
     inkscape:cy="503.78113"
     inkscape:window-x="0"
     inkscape:window-y="30"
     inkscape:window-maximized="1"
     inkscape:current-layer="svg3507" />
  <metadata
     id="metadata3509">
Created by potrace 1.14, written by Peter Selinger 2001-2017
<rdf:RDF>
  <cc:Work
     rdf:about="">
    <dc:format>image/svg+xml</dc:format>
    <dc:type
       rdf:resource="http://purl.org/dc/dcmitype/StillImage" />
    <dc:title></dc:title>
  </cc:Work>
</rdf:RDF>
</metadata>
  <path
     style="fill:#000000;stroke:none"
     inkscape:connector-curvature="0"
     id="path3515"
     d="m 661,261.4 c -0.7,0.9 -1,2.5 -0.7,3.6 0.6,2.4 -0.2,2.4 -17.3,0.7 -9.2,-1 -13.3,-1 -20.5,0.1 -6.3,0.9 -14.6,1.1 -27.5,0.7 l -18.5,-0.6 -45.5,36.6 c -43.5,35 -53,42.8 -50.6,41.4 0.6,-0.4 17.5,-12.1 37.6,-26.1 20.1,-14 40.9,-28.5 46.3,-32.2 l 9.7,-6.7 0,2.8 c 0,2.7 -3,5 -43.2,32.2 -38.7,26.3 -54.6,37.5 -41.8,29.5 17.5,-10.8 85.3,-51.5 85.5,-51.2 0.1,0.2 1.2,21.8 2.5,48.1 1.8,37.4 2.1,48 1.1,48.6 -0.6,0.4 -6.8,1.8 -13.8,3.1 -12.9,2.3 -13.2,2.3 -14.7,-1.5 -0.2,-0.6 -2.1,0 -4.4,1.2 -6,3.4 -8.6,3 -11.4,-1.5 -1.9,-3.1 -2.3,-5 -2.3,-12.4 0,-7.4 0.3,-9 2.1,-11 1.2,-1.3 2.4,-3.2 2.8,-4.3 0.7,-1.9 0.8,-1.9 1.7,-0.3 1.4,2.6 3.8,2.2 4.5,-0.7 0.7,-2.9 1.2,-3 3.8,-1 2.1,1.6 7.6,2.1 7.6,0.7 0,-0.4 -1.4,-3 -3.1,-5.6 -2.8,-4.5 -3.2,-4.8 -6.2,-4.2 -1.8,0.3 -4.4,1.5 -5.9,2.6 -3.2,2.4 -3.8,2.5 -3.8,0.6 0,-0.8 1.6,-2.3 3.5,-3.5 2.2,-1.3 3.5,-2.8 3.5,-4.1 0,-2.7 -0.3,-3.6 -1.4,-3.2 -0.5,0.2 0.3,-1.1 1.8,-2.8 2.8,-3.4 2.7,-5 -0.5,-5 -2.7,0 -10.9,7.8 -10.9,10.4 0,1.1 -0.3,3.1 -0.6,4.4 l -0.7,2.3 -1.1,-2.3 c -0.9,-1.8 -2.1,-2.4 -5.4,-2.6 -3.6,-0.3 -4.2,0 -4.2,1.7 0,1.1 0.4,2.2 1,2.6 0.5,0.3 0.7,1.1 0.5,1.8 -0.3,0.7 -0.1,1.9 0.5,2.7 0.7,1.2 1.2,1.2 2.2,0.2 1.9,-1.9 2.8,-1.4 2.8,1.3 0,2.2 -0.4,2.5 -3.4,2.5 -1.9,0 -4.5,0.9 -6,2.1 -2.2,1.8 -2.6,2.8 -2.6,7.6 0,5.5 0,5.6 2,3.8 1.1,-1 2,-2.9 2,-4.2 0,-1.4 0.6,-2.3 1.5,-2.3 0.8,0 1.5,-0.7 1.5,-1.5 0,-1.8 6.6,-2.2 7.2,-0.4 0.2,0.6 -0.1,4.2 -0.6,8.1 -0.8,5.6 -0.7,8.3 0.6,13.2 0.9,3.3 1.8,6.8 2,7.6 0.2,1.1 -0.8,1.6 -4.3,1.8 l -4.6,0.3 -9.7,-11 -9.8,-11.1 2,-2.5 c 1.1,-1.4 2.3,-4 2.6,-5.8 0.3,-1.8 2,-4.6 3.6,-6.2 1.7,-1.6 3,-3.6 3,-4.4 0.1,-2.7 3.6,-9.6 6.9,-13.4 3.8,-4.2 3.4,-5.7 -1.5,-5.7 -6.8,0 -13.8,5 -22.5,16.1 -3.5,4.3 -6.6,7.9 -7.1,7.9 -0.4,0 -0.8,0.9 -0.8,2 0,1.1 -1,5.5 -2.3,9.7 -1.8,6.5 -2.2,10.2 -2.2,21.5 0.1,7.5 0.4,14 0.7,14.4 0.9,0.8 11.5,-0.7 36.8,-5.2 18.6,-3.2 53.6,-8.4 57.3,-8.4 1.2,0 1.7,0.8 1.7,3 0,1.6 -0.2,3 -0.3,3 -0.4,0 -56,6.4 -90.2,10.4 -6,0.8 -11.2,1.2 -11.4,1 -0.2,-0.2 -0.7,-7.9 -1.2,-17.1 -1.4,-27 -1.6,-27.2 -1.5,-1.8 0.1,18.6 0.4,23.9 1.4,23.7 0.6,-0.1 1.2,0.5 1.2,1.3 0,2 -0.5,2 38.7,-0.7 18.3,-1.2 33.5,-1.9 33.9,-1.5 2.8,2.7 -6.9,3.7 -55.6,5.5 -17.4,0.6 -19.5,0.9 -19.8,2.4 -0.3,1.4 0.3,1.8 2.3,1.8 1.4,0 2.4,0.3 2.2,0.7 -0.3,0.5 -0.2,4.4 0.1,8.8 l 0.7,7.9 3.4,0.1 c 2.9,0 3.5,0.4 4.5,3.5 0.9,3 1.6,3.5 4.3,3.6 1.7,0 3.8,0.6 4.7,1.3 0.9,0.7 2.6,1.1 3.8,0.8 1.3,-0.4 2.9,0 3.9,0.9 1.4,1.3 2.4,1.3 5.8,0.4 3.5,-0.9 4.2,-1.6 5.3,-5.1 1,-3.7 1.4,-4 3.7,-3.4 1.4,0.3 7.9,0.8 14.3,1.2 l 11.8,0.6 1.1,4.1 c 1.8,6.9 1.9,7.4 4,10 1.8,2.2 2.8,2.6 7.5,2.6 4.8,0 6,-0.4 8.5,-2.9 1.6,-1.6 2.9,-3.9 2.9,-5 0,-1.2 0.3,-2.1 0.8,-2 0.4,0 7.6,1.5 16.1,3.2 l 15.3,3.2 2,5.2 c 2.9,7.8 5.7,9.6 14.2,9.1 7,-0.4 7.6,-0.8 11.1,-6.1 0.9,-1.4 2,-1.3 10.2,0.6 8.9,2 10.1,2.1 29,0.9 21.7,-1.3 106.7,-7.3 106.9,-7.6 0.1,0 0.5,-1.2 0.9,-2.5 l 0.7,-2.4 -23.3,0.7 c -12.9,0.3 -41.8,0.9 -64.4,1.2 -35.9,0.6 -42.1,0.4 -49.9,-1 -9.5,-1.8 -13.6,-3.8 -13.6,-6.6 0,-1.7 0.2,-1.6 3.8,0.1 2.1,1.1 4.7,1.6 6,1.3 2.1,-0.6 2.2,-1.1 2.2,-10.9 0,-12.2 -1,-14 -8.2,-15.4 -5.4,-0.9 -6,-0.2 -2.3,2.7 1.9,1.5 2.6,3.3 3,6.8 0.3,2.7 0.8,6.6 1.1,8.7 l 0.5,3.9 -2.9,-2 c -2.5,-1.9 -2.9,-2.9 -4,-11.8 -2.9,-22.8 -13.8,-31.9 -21.1,-17.7 -1.6,3.2 -8.1,3.3 -8.1,0.2 0,-1.8 0.4,-2 3,-1.4 l 3,0.6 -2.5,-5.6 c -1.4,-3 -2.5,-6.9 -2.5,-8.5 l 0,-3 9.7,0 9.6,0 12.3,6.5 c 6.8,3.6 12.5,6.5 12.8,6.5 0.4,0 0.6,-2.2 0.6,-4.9 0,-3.7 -0.4,-5.1 -1.7,-5.6 -15.9,-6.4 -20.9,-7.7 -27.5,-7 l -6.8,0.6 0,-5.3 c 0,-2.9 -0.3,-9.1 -0.6,-13.8 -0.5,-8.3 -0.7,-15.6 -1.2,-46.4 l -0.2,-14.8 -2.7,0.7 c -1.6,0.3 -3.2,1 -3.7,1.5 -0.8,0.8 0.2,28.6 2.1,59.5 0.2,3.8 0.4,9.1 0.4,11.7 0,4.2 0.3,4.8 2.7,5.7 2.5,0.9 2.4,0.9 -1.5,1 -3.8,0.1 -4.3,-0.2 -4.3,-2.2 0,-1.2 -0.2,-7.6 -0.5,-14.2 -0.3,-6.6 -0.7,-23.9 -0.9,-38.4 -0.4,-21.7 -0.2,-27.1 1,-29.9 1.3,-3.2 1.2,-5.6 -0.6,-22.5 -1.2,-10.4 -1.9,-19.1 -1.7,-19.3 0.6,-0.7 27.1,1.6 30.9,2.7 2.6,0.7 3.9,1.6 4.3,3.2 1.8,8.2 4.6,22.9 4.3,23.1 -0.2,0.2 -8.1,3.1 -17.6,6.6 -9.5,3.5 -17.1,6.5 -16.8,6.7 0.6,0.6 37,-7.7 40.9,-9.4 4.4,-1.9 4.4,-1.9 2.1,-18.2 -0.8,-6.2 -1.4,-11.4 -1.2,-11.5 0.2,-0.2 19.2,0.8 42.3,2 23.1,1.3 44.9,2.3 48.5,2.2 l 6.5,-0.1 -6.7,-0.9 c -5.9,-0.9 -6.7,-1.3 -6.5,-3 0.2,-2.4 -2.4,-4.4 -4.7,-3.5 -0.9,0.4 -1.6,1.6 -1.6,2.8 0,1.7 -0.4,2 -2.2,1.5 -1.3,-0.3 -3.8,-0.6 -5.6,-0.6 -2.9,0 -3.3,-0.3 -2.7,-2 0.8,-2.6 -1.1,-5 -3.9,-5 -2.6,0 -4.6,1.8 -4.6,4 0,1.2 -0.8,1.5 -3.7,1.3 -7.2,-0.7 -8.2,-1.1 -7.6,-3.3 0.7,-2.8 -1.4,-5 -4.8,-5 -2.9,0 -5,2.4 -4.2,4.7 0.5,1.4 -4.2,1.7 -9.5,0.7 -2.7,-0.6 -2.9,-0.8 -1.9,-2.5 2.5,-4 -4.3,-8.1 -7.3,-4.5 z m -67.9,33.1 c -0.3,11.9 -0.6,14.5 -2.4,17.3 -1.9,3.3 -2,4.2 -1.3,49.3 0.7,41.6 0.6,45.9 -0.8,45.9 -1.4,0 -1.6,-2.1 -1.8,-15.8 0,-8.6 -0.2,-16.8 -0.3,-18.2 -0.1,-1.4 -0.6,-22.1 -1,-46 -0.4,-23.9 -0.9,-43.8 -1.2,-44.3 -1,-1.7 1.2,-2.8 5,-2.5 l 4.2,0.3 -0.4,14 z M 519,340.7 c 0,0.4 -1.1,1.9 -2.5,3.3 -1.3,1.4 -3.1,4.3 -3.8,6.5 -1.3,3.7 -1.7,4 -6.1,4.7 -2.6,0.3 -6.6,1.8 -9.1,3.2 -2.4,1.4 -4.6,2.6 -5,2.6 -1.1,0 8.3,-11.7 11.7,-14.5 5.2,-4.5 14.8,-8.2 14.8,-5.8 z m -10.5,46 c 4.1,4.8 7.5,9.1 7.5,9.5 0,0.3 -1.5,1 -3.2,1.3 -1.8,0.4 -6.2,2.3 -9.8,4.1 -3.6,1.9 -8.6,3.7 -11.2,4 -4.5,0.6 -4.8,0.5 -4.8,-1.5 0,-2.6 1.5,-5.7 4,-8.6 1,-1.1 2,-3.2 2.4,-4.7 0.3,-1.5 2,-4.3 3.6,-6.2 1.7,-1.8 3,-4.1 3,-5 0,-0.9 0.2,-1.6 0.5,-1.6 0.2,0 3.8,3.9 8,8.7 z m 105.8,29.8 c 2.3,2.3 4.6,10.3 5.7,19.6 1.9,16 0.8,19.1 -1.5,4.6 -0.8,-4.7 -1.9,-10.4 -2.5,-12.6 -1.2,-4.6 -5.2,-9.7 -6.7,-8.8 -1.4,0.9 -3.3,8.7 -3.2,12.9 0.1,2.7 0.3,2.2 1.3,-2.2 2.1,-10 3.6,-10.1 6.1,-0.5 1,3.8 1.2,6.1 0.5,6.3 -1.3,0.5 -1.3,4.2 0,4.2 0.6,0 1,2.7 1,6.1 0,3.4 -0.4,5.8 -0.9,5.4 -1.6,-0.9 -2.4,1.5 -1.1,3.1 1.8,2 0.6,9.2 -1.8,11.7 -2,2 -2,2 -3.5,-0.9 -3.9,-7.9 -5.5,-31.2 -2.8,-41.4 2.3,-8.4 5.8,-11.2 9.4,-7.5 z m -58.6,2.3 c 2.5,1.6 4.6,8.8 4.9,17.2 0.4,9.3 0.1,9 -1.6,-1.6 -1.4,-8.6 -4.4,-14.4 -6.5,-12.3 -0.7,0.8 -1.6,3.6 -1.9,6.4 l -0.6,5 1.3,-4.5 c 0.6,-2.5 1.7,-4.4 2.2,-4.3 1.7,0.3 3.4,8.6 2.1,10.2 -0.8,1.1 -0.8,1.5 0.2,1.8 1.4,0.5 1.7,9.3 0.2,9.3 -0.6,0 -0.7,1.8 -0.4,4.2 0.4,3 0.1,4.9 -1,6.3 -2.1,2.8 -3.5,1.1 -5.2,-6.2 -2.5,-10.5 -1.3,-26.6 2.3,-30.5 1.8,-2 2.3,-2.1 4,-1 z m 39.5,14.8 c 0.4,0.3 0.8,2.6 0.8,5.1 l 0,4.6 -14.2,-0.6 c -9.7,-0.5 -14.4,-1.1 -15,-1.9 -0.4,-0.7 -0.8,-3.1 -0.8,-5.2 l 0,-3.9 14.2,0.7 c 7.8,0.4 14.5,0.9 15,1.2 z" />
  <path
     style="fill:#000000;stroke:none"
     inkscape:connector-curvature="0"
     id="path3517"
     d="m 598,275.6 c 0,3.3 3.9,30.6 4.4,31.1 0.4,0.4 12.6,-3.8 12.6,-4.4 0,-0.3 -2.1,-0.3 -4.7,-0.1 l -4.7,0.3 -2.2,-12.5 c -3.1,-17.1 -3.3,-16 2.4,-16 3.4,0 4.3,-0.3 3.2,-1 -0.8,-0.5 -3.6,-1 -6.2,-1 l -4.8,0 0,3.6 z" />
  <path
     style="fill:#000000;stroke:none"
     inkscape:connector-curvature="0"
     id="path3519"
     d="m 650.7,286.6 c 0.8,5.4 1.6,10 1.7,10.1 0.1,0.1 18.8,0.4 41.6,0.7 22.8,0.3 40.8,0.3 40,0.1 -0.8,-0.2 -17.9,-1.4 -38,-2.5 -20.1,-1.2 -36.8,-2.4 -37.1,-2.8 -0.4,-0.4 -0.9,-3.3 -1.3,-6.5 l -0.6,-5.9 12.2,0.6 c 16.8,0.8 57.7,1.5 55.8,1.1 -1.3,-0.4 -24.4,-1.8 -65.1,-4.2 l -10.6,-0.6 1.4,9.9 z" />
  <path
     style="fill:#000000;stroke:none"
     inkscape:connector-curvature="0"
     id="path3521"
     d="m 747.2,280 c 0.3,0.8 1.7,5.8 3.2,11 1.5,5.2 3.6,10.7 4.7,12.3 l 2,2.7 -17.8,-0.6 c -44.5,-1.6 -95.9,-3 -96.9,-2.7 -0.6,0.2 -1,1.4 -0.8,2.6 0.2,1.2 0.5,4.1 0.8,6.5 l 0.4,4.3 -3.6,-0.3 c -3.6,-0.3 -3.7,-0.4 -4.2,-4.8 -0.4,-3.6 -0.8,-4.4 -2.3,-4.2 -2.2,0.4 -21.7,7.9 -23.3,9 -0.7,0.5 -0.7,6.4 0,19.6 l 1.1,18.9 4.5,2.8 c 2.5,1.6 5,2.9 5.6,2.9 0.6,0 2.1,0.9 3.4,2 1.3,1.1 2.8,2 3.5,2 0.6,0 2.6,1.1 4.5,2.5 6.1,4.5 6.1,4.4 5.5,-15.3 -0.3,-9.7 -0.8,-19.6 -1.1,-21.9 -0.7,-5.5 -0.2,-6.2 3.8,-5.4 3.2,0.7 3.3,0.8 4,7.1 0.3,3.6 0.7,11.9 0.8,18.5 0.4,18.4 1,23.3 2.9,23.8 1.3,0.4 1.2,0.5 -0.3,0.6 -1.7,0.1 -1.8,1.1 -1.1,19.3 0.3,10.6 0.9,20 1.1,20.9 0.8,2.9 5.8,4.2 13.6,3.5 4,-0.3 29.4,-0.8 56.3,-1.2 46.2,-0.6 52.5,-1 51,-3.4 -0.3,-0.5 -25.5,-0.6 -55.9,-0.3 l -55.5,0.6 -0.5,-2.4 c -1.1,-4.8 -2.7,-17.6 -3.6,-27.9 -0.4,-5.8 -1.2,-14.4 -1.6,-19.3 -0.5,-6.1 -0.4,-8.7 0.4,-8.7 0.6,0 1.5,0.6 1.9,1.2 1.6,2.6 5.3,3.7 15,4.7 13.7,1.4 99.1,1.5 100.7,0.1 1.5,-1.2 2.6,15.3 2.6,39.2 l 0,14.7 3,1.6 c 3.7,1.9 4,5.1 0.5,5.7 -3.6,0.7 -4.2,-1 -0.8,-2.4 2.7,-1.1 2.7,-1.2 0.5,-1.6 -4.8,-0.8 -5.1,0 -8.8,23.6 -0.7,4.3 1.2,4.9 7.2,2.3 2.5,-1.2 4.8,-2.1 5,-2.1 0.2,0 0.4,1.4 0.4,3.2 0,7.1 1.4,0.9 3,-12.8 l 1.6,-14.6 -2.8,-3.5 c -2.8,-3.6 -2.8,-3.6 -2.8,-18.7 0,-8.3 -0.7,-21.2 -1.6,-28.6 -1.8,-15.5 -7.2,-53.7 -7.9,-56.1 -0.4,-1 0.5,-2.1 2.2,-3 2.8,-1.4 2.8,-1.4 -2.3,-1.7 -6.6,-0.4 -9.7,-3.5 -15,-15.2 -3.5,-7.8 -7.3,-14.6 -6.2,-11 z m -8.5,31.6 c 21.3,0.6 24.3,0.8 24.7,2.3 1.1,3.7 4.6,23.2 5.6,31.1 1.1,7.7 1,8.5 -0.6,9.7 -2.2,1.6 -2.6,1.6 -56.9,-0.2 -24.2,-0.8 -44.8,-1.5 -45.7,-1.5 -2.7,0 -9.5,-6.7 -10.7,-10.3 -1.1,-3.2 -3.1,-18.9 -3.1,-23.8 l 0,-2.6 40.3,-0.9 c 22.1,-0.5 38.9,-1 37.2,-1.1 -1.6,-0.1 -19.6,-1 -40,-1.8 -20.3,-0.9 -37.2,-1.8 -37.4,-2.1 -0.5,-0.5 38.6,0.1 86.6,1.2 z M 628,314.5 c 0,2.3 -0.3,2.5 -5,2.5 l -5,0 0,7.2 c 0,4 0.3,11.7 0.7,17 0.6,9.7 0.6,9.7 3.6,10.8 1.6,0.5 4.1,1 5.3,1 2,0 2.4,0.5 2.4,3 l 0,2.9 -3.7,-1.7 c -2.1,-1 -5.4,-2.8 -7.4,-4.2 l -3.7,-2.4 -0.8,-14.6 c -0.5,-8 -0.9,-15.4 -0.9,-16.5 0,-1.4 1.6,-2.6 6.5,-4.7 8,-3.4 8,-3.4 8,-0.3 z" />
  <path
     style="fill:#000000;stroke:none"
     inkscape:connector-curvature="0"
     id="path3523"
     d="m 772,320 c 0,1 0.9,7.7 2,15.1 2.2,14 3.7,17.3 6.8,14.7 1.6,-1.4 1.3,-5.8 -1.5,-21.5 -1.5,-8.8 -1.7,-9.1 -4.4,-9.5 -2.2,-0.4 -2.9,-0.1 -2.9,1.2 z" />
  <path
     style="fill:#000000;stroke:none"
     inkscape:connector-curvature="0"
     id="path3525"
     d="m 669,372.7 c -2.4,0.3 -4.7,0.8 -5,1.3 -0.9,1.4 1,25.8 2.3,29.8 1.2,3.6 1.3,3.7 7.7,4.5 5.9,0.8 48,-0.3 80,-2.2 l 11.5,-0.6 0.6,-4 c 1.2,-7.5 1.8,-22 0.8,-20.2 -0.9,1.6 -4.8,1.7 -48,1.7 -41.4,0 -47,-0.2 -47.6,-1.5 -0.3,-0.9 -0.4,-1.7 -0.2,-1.9 1,-1 13.8,-1.6 51.4,-2.2 22.6,-0.4 39.4,-1.1 37.5,-1.5 -4,-0.8 -63.6,-3.1 -72.5,-2.8 -3.3,0.1 -7.8,0 -10,-0.3 -2.2,-0.3 -6,-0.3 -8.5,-0.1 z m 96.1,16 -0.7,2.8 -46.2,0.3 c -40.7,0.2 -46.2,0 -46.2,-1.3 0,-1.2 1.4,-1.5 6.3,-1.6 3.4,0 20.2,-0.7 37.2,-1.3 17.1,-0.7 35.3,-1.4 40.7,-1.5 l 9.6,-0.1 -0.7,2.7 z m -3.2,10.4 -1.1,2.2 -24.1,-0.6 c -13.2,-0.4 -33.1,-0.8 -44.1,-0.9 l -20.1,-0.1 12.5,-0.9 c 20.8,-1.4 77.5,-3.3 77.8,-2.6 0.2,0.4 -0.2,1.7 -0.9,2.9 z" />
  <path
     style="fill:#000000;stroke:none"
     inkscape:connector-curvature="0"
     id="path3527"
     d="m 647.5,421 c -0.9,1.5 1.5,27.3 2.7,28.7 0.7,0.9 4.2,1.3 11,1.3 8.4,0 10,-0.3 10.5,-1.7 0.9,-2.4 -2,-18.9 -4.3,-23.8 -1.6,-3.7 -1.8,-3.8 -2.1,-1.5 -0.4,2.3 -0.7,2.5 -4.8,2.2 -3.6,-0.3 -4.5,-0.8 -4.5,-2.3 0,-1.2 0.7,-1.9 1.9,-1.9 1.1,0 2.3,-0.5 2.6,-1 0.4,-0.6 -1.8,-1 -5.9,-1 -3.6,0 -6.8,0.5 -7.1,1 z m 18.9,13.7 c 0.3,2.1 0.7,5.6 0.8,7.8 l 0.2,4 -4.9,-0.3 c -2.6,-0.1 -5,-0.3 -5.1,-0.5 -0.1,-0.1 -0.6,-3.5 -0.9,-7.5 l -0.8,-7.2 5.1,0 5,0 0.6,3.7 z" />
  <path
     style="fill:#000000;stroke:none"
     inkscape:connector-curvature="0"
     id="path3529"
     d="m 673.7,420.6 c -1,1 1.2,5.7 4.1,8.6 l 2.6,2.8 29.5,-0.1 c 34.1,-0.1 45.4,-0.8 47.5,-2.9 0.8,-0.8 2.2,-3.2 3.1,-5.3 l 1.5,-3.7 -43.8,0 c -24.1,0 -44.1,0.3 -44.5,0.6 z" />
  <path
     style="fill:#000000;stroke:none"
     inkscape:connector-curvature="0"
     id="path3531"
     d="m 677.5,438 c -1.5,2.4 2.1,6.5 7.5,8.8 5.4,2.2 6,2.3 33.5,1.8 15.4,-0.3 29.8,-0.9 32,-1.5 4.4,-1.1 8.5,-5.1 8.5,-8.2 0,-1.8 -1.1,-1.9 -40.4,-1.9 -25.8,0 -40.7,0.4 -41.1,1 z" />
</svg>
