<svg xmlns="http://www.w3.org/2000/svg" width="60" height="51" viewBox="0 0 60 51">
  <defs>
    <style>
      .cls-1 {
        fill: #ffc000;
        fill-rule: evenodd;
      }
    </style>
  </defs>
  <path id="Forma_1" data-name="Forma 1" class="cls-1" d="M835.976,2724.19A17.12,17.12,0,0,0,819.084,2708a17.611,17.611,0,0,0-13.945,7.01,2.193,2.193,0,0,0-.23-0.1q-0.3-.15-0.6-0.27c-0.114-.05-0.228-0.09-0.343-0.13-0.2-.07-0.409-0.13-0.619-0.19l-0.345-.09c-0.225-.05-0.455-0.09-0.687-0.13-0.1-.01-0.2-0.03-0.3-0.04A8.424,8.424,0,0,0,801,2714a9.005,9.005,0,0,0-9,9c0,0.13.008,0.25,0.017,0.38A13.832,13.832,0,0,0,785,2735.15,12.859,12.859,0,0,0,797.845,2748H803a1,1,0,0,0,0-2h-5.155A10.861,10.861,0,0,1,787,2735.15a11.891,11.891,0,0,1,6.433-10.25l0.567-.27V2724c0-.12.008-0.24,0.015-0.37l0.011-.18-0.013-.2c-0.006-.08-0.013-0.17-0.013-0.25a6.932,6.932,0,0,1,7.917-6.93l0.233,0.03a7.042,7.042,0,0,1,.789.18l0.106,0.03a5.2,5.2,0,0,1,.835.32,1.908,1.908,0,0,1,.21.1c0.24,0.12.475,0.25,0.7,0.39A7.009,7.009,0,0,1,808,2723a1,1,0,0,0,2,0,8.965,8.965,0,0,0-3.2-6.87,15.841,15.841,0,0,1,12.284-6.13,15.094,15.094,0,0,1,14.849,13.89,18.746,18.746,0,0,0-4.083.12A1,1,0,0,0,830,2726a0.767,0.767,0,0,0,.151-0.01,18.122,18.122,0,0,1,4.684,0,10.24,10.24,0,0,1,8.166,9.98A10.041,10.041,0,0,1,832.972,2746H829a1,1,0,0,0,0,2h3.972A12.045,12.045,0,0,0,845,2735.97,12.312,12.312,0,0,0,835.976,2724.19Zm-12.683,25.1L817,2755.58V2735a1,1,0,0,0-2,0v20.58l-6.293-6.29a1,1,0,0,0-1.414,1.42l8,7.99a0.888,0.888,0,0,0,.326.22,0.952,0.952,0,0,0,.764,0,0.888,0.888,0,0,0,.326-0.22l8-7.99A1,1,0,0,0,823.293,2749.29Z" transform="translate(-785 -2708)"/>
</svg>
