<svg xmlns="http://www.w3.org/2000/svg" width="59.906" height="54" viewBox="0 0 59.906 54">
  <defs>
    <style>
      .cls-1 {
        fill: #ffc000;
        fill-rule: evenodd;
      }
    </style>
  </defs>
  <path id="Forma_1" data-name="Forma 1" class="cls-1" d="M442.954,2897.05a6.988,6.988,0,0,0-9.889,0l-2.86,2.86-22.045,24.46h0l-4.022,4.46h0l-5.613,6.23a5.965,5.965,0,0,0-.852-0.06h-0.414c-2.16,0-6.179,0-6.179,4.92,0,4.94-5.159,7.06-5.377,7.15a1,1,0,0,0,.367,1.93h12.422a5.553,5.553,0,0,0,4.125-1.43c1.39-1.42,1.466-3.47,1.445-5.22a1.2,1.2,0,0,0,.173-0.11l6.984-6.32h0l4.453-4.03h0l24.451-22.11,2.826-2.83A7.008,7.008,0,0,0,442.954,2897.05Zm-32.367,36.75-4.33-4.34,2.681-2.97,4.617,4.63Zm-9.394,12.37a3.706,3.706,0,0,1-2.7.83h-8.919a9.108,9.108,0,0,0,3.507-7.08c0-2.63,1.338-2.92,4.181-2.92h0.414a4.548,4.548,0,0,1,.986.11c0.007,0,.014.01,0.021,0.01a4.2,4.2,0,0,1,1.221.47c0.034,0.02.072,0.03,0.106,0.05a3.948,3.948,0,0,1,.431.31,1.59,1.59,0,0,1,.162.13,3.521,3.521,0,0,1,.373.37,1.116,1.116,0,0,1,.112.13,3.767,3.767,0,0,1,.336.46,0.177,0.177,0,0,1,.021.04,4.138,4.138,0,0,1,.584,1.93,0.152,0.152,0,0,0,.006.02c0,0.07.018,0.13,0.018,0.19,0,0.23,0,.47.008,0.72C402.084,2943.48,402.113,2945.23,401.193,2946.17Zm2.7-6.32a6.1,6.1,0,0,0-3.254-4.15l4.276-4.75,4.186,4.19Zm37.645-34.32-2.788,2.8-23.713,21.44-4.762-4.76,21.375-23.72,2.826-2.83A5,5,0,0,1,441.541,2905.53Z" transform="translate(-385.094 -2895)"/>
</svg>
