<svg xmlns="http://www.w3.org/2000/svg" width="36" height="60" viewBox="0 0 36 60">
  <defs>
    <style>
      .cls-1 {
        fill: #ffc000;
        fill-rule: evenodd;
      }
    </style>
  </defs>
  <path id="Forma_1" data-name="Forma 1" class="cls-1" d="M813,2910a1.016,1.016,0,0,0,.707-0.29l4-4a1,1,0,0,0-1.414-1.42l-4,4A1,1,0,0,0,813,2910Zm0,5a1.016,1.016,0,0,0,.707-0.29l2-2a1,1,0,0,0-1.414-1.42l-2,2A1,1,0,0,0,813,2915Zm3.29-5.71a1.028,1.028,0,0,0-.29.71A1,1,0,1,0,816.29,2909.29Zm2-.58a1.007,1.007,0,0,0,1.414,0l3-3a1,1,0,0,0-1.414-1.42l-3,3A1.006,1.006,0,0,0,818.293,2908.71Zm3,0.58-9,9a1,1,0,0,0,1.414,1.42l9-9A1,1,0,0,0,821.293,2909.29Zm2-2a1.028,1.028,0,0,0-.29.71,1,1,0,0,0,1.71.71A1.011,1.011,0,0,0,825,2908,1,1,0,0,0,823.29,2907.29Zm-3-9a1,1,0,1,0,1.42,0A1.047,1.047,0,0,0,820.29,2898.29Zm-8,0A1,1,0,0,0,813,2900,1,1,0,1,0,812.29,2898.29Zm28,0a1.014,1.014,0,0,0,0,1.42,1.014,1.014,0,0,0,1.42,0A1,1,0,0,0,840.29,2898.29Zm-17,0a1,1,0,0,0,1.42,1.42,1.014,1.014,0,0,0,0-1.42A1.047,1.047,0,0,0,823.29,2898.29Zm3,0a1.028,1.028,0,0,0-.29.71,1.047,1.047,0,0,0,.29.71,1.014,1.014,0,0,0,1.42,0A1,1,0,0,0,826.29,2898.29Zm3,0a1,1,0,0,0,1.42,1.42A1.011,1.011,0,0,0,831,2899,1,1,0,0,0,829.29,2898.29Zm3,0a1.028,1.028,0,0,0-.29.71A1,1,0,1,0,832.29,2898.29ZM821,2952a0.99,0.99,0,0,0,1-1,1.033,1.033,0,0,0-.29-0.71A1,1,0,1,0,821,2952Zm3,0a0.99,0.99,0,0,0,1-1,1.011,1.011,0,0,0-.29-0.71,1,1,0,0,0-1.71.71A0.99,0.99,0,0,0,824,2952Zm3,0a0.99,0.99,0,1,0-.71-0.29A1.029,1.029,0,0,0,827,2952Zm3,0a0.99,0.99,0,0,0,1-1,1.011,1.011,0,0,0-.29-0.71A1,1,0,1,0,830,2952Zm3,0a0.99,0.99,0,0,0,1-1,1.009,1.009,0,0,0-.29-0.7,1,1,0,0,0-1.42,1.41A1.05,1.05,0,0,0,833,2952Zm-6.707-47.71-1,1a1,1,0,0,0,1.414,1.42l1-1A1,1,0,0,0,826.293,2904.29Zm14.025-9.29H813.682a4.687,4.687,0,0,0-4.682,4.68v50.64a4.687,4.687,0,0,0,4.682,4.68h26.637a4.687,4.687,0,0,0,4.681-4.68v-50.64A4.687,4.687,0,0,0,840.318,2895ZM811,2903h32v44H811v-44Zm32,47.32a2.683,2.683,0,0,1-2.682,2.68H813.682a2.683,2.683,0,0,1-2.682-2.68V2949h32v1.32ZM811,2901v-1.32a2.683,2.683,0,0,1,2.682-2.68h26.637a2.682,2.682,0,0,1,2.681,2.68V2901H811Z" transform="translate(-809 -2895)"/>
</svg>
