<svg xmlns="http://www.w3.org/2000/svg" width="55" height="53" viewBox="0 0 55 53">
  <defs>
    <style>
      .cls-1 {
        fill: #ffc000;
        fill-rule: evenodd;
      }
    </style>
  </defs>
  <path id="Forma_1" data-name="Forma 1" class="cls-1" d="M1235.06,2732.01a1,1,0,1,1-1,1A1,1,0,0,1,1235.06,2732.01Zm-36.03,0a1,1,0,1,1-1,1A1,1,0,0,1,1199.03,2732.01Zm3,2.98a1,1,0,1,1-1,1A1,1,0,0,1,1202.03,2734.99Zm6.01,0a1,1,0,1,1,0,1.99A1,1,0,1,1,1208.04,2734.99Zm-3.01,2.99a1,1,0,1,1,0,1.99A1,1,0,1,1,1205.03,2737.98Zm6.01,0a1,1,0,1,1-1,.99A0.994,0.994,0,0,1,1211.04,2737.98Zm3,2.98a1,1,0,1,1-1,1A1,1,0,0,1,1214.04,2740.96Zm6.01,0a1,1,0,1,1,0,1.99A1,1,0,1,1,1220.05,2740.96Zm3-2.98a1,1,0,1,1-1,.99A0.994,0.994,0,0,1,1223.05,2737.98Zm-6.01,5.97a0.99,0.99,0,1,1-1,.99A0.988,0.988,0,0,1,1217.04,2743.95Zm9.01-8.96a1,1,0,1,1-1,1A1,1,0,0,1,1226.05,2734.99Zm6.01,0a1,1,0,1,1-1.01,1A1,1,0,0,1,1232.06,2734.99Zm-3.01,2.99a1,1,0,1,1,0,1.99A1,1,0,1,1,1229.05,2737.98Zm6.55,1.81,9.4-5.34-9.67-5.45,9.67-5.49-27.5-15.52-27.5,15.52,9.66,5.49-9.66,5.45,9.66,5.49-9.66,5.45,27.5,15.61,27.5-15.61-9.66-5.45,0.07-.04A1.858,1.858,0,0,0,1235.6,2739.79Zm-18.1-29.51,23.45,13.24-7.64,4.34h0l-15.81,8.97-23.46-13.31Zm-16.36,20.17a1,1,0,0,0,.89.57,0.967,0.967,0,0,0,.69-0.29l2.27,1.29a0.991,0.991,0,1,0,1.04.99,0.919,0.919,0,0,0-.13-0.47l10.34,5.87a0.932,0.932,0,0,0-.2.56,1,1,0,0,0,2,0c0-.05-0.02-0.09-0.02-0.14l10.06-5.71a0.977,0.977,0,0,0,.97.88,1,1,0,0,0,1-1,0.956,0.956,0,0,0-.4-0.77l2.2-1.26a0.717,0.717,0,0,0,.21.05,0.987,0.987,0,0,0,.93-0.7l0.32-.18,7.64,4.31-1.98,1.13a1,1,0,0,0-1.91.41,0.932,0.932,0,0,0,.2.56l-3.95,2.24h0l-6.39,3.63a0.91,0.91,0,0,0,.13-0.46,1,1,0,0,0-2,0,0.991,0.991,0,0,0,.96.98l-2.27,1.29a0.967,0.967,0,0,0-.69-0.29,1,1,0,0,0-1,1,1.435,1.435,0,0,0,.04.22l-4.59,2.61-5.52-3.13a0.99,0.99,0,0,0-.94-0.7,0.8,0.8,0,0,0-.21.05l-2.2-1.25a0.982,0.982,0,0,0-.59-1.78,0.987,0.987,0,0,0-.98.88l-10.06-5.71c0-.05.03-0.09,0.03-0.14a1,1,0,0,0-1-1,1.024,1.024,0,0,0-.63.24l-1.36-.77Zm39.81,14.95-23.45,13.31-23.46-13.31,7.64-4.32,15.82,8.98,15.81-8.98Z" transform="translate(-1190 -2708)"/>
</svg>
