<svg xmlns="http://www.w3.org/2000/svg" width="56" height="56" viewBox="0 0 56 56">
  <defs>
    <style>
      .cls-1 {
        fill: #ffc000;
        fill-rule: evenodd;
      }
    </style>
  </defs>
  <path id="Forma_1" data-name="Forma 1" class="cls-1" d="M436.533,2708H397.467a8.476,8.476,0,0,0-8.467,8.46v39.07a8.478,8.478,0,0,0,8.467,8.47h39.066a8.478,8.478,0,0,0,8.467-8.47v-39.07A8.476,8.476,0,0,0,436.533,2708ZM443,2755.53a6.474,6.474,0,0,1-6.467,6.47H397.467a6.474,6.474,0,0,1-6.467-6.47v-17.12l6.247-6.24a4.981,4.981,0,0,0,5.506,0l10.08,10.07a5,5,0,1,0,8.334,0L435,2728.41V2735a1,1,0,0,0,2,0v-10H427a1,1,0,0,0,0,2h6.586l-13.833,13.83a4.981,4.981,0,0,0-5.506,0l-10.08-10.08A4.949,4.949,0,0,0,405,2728a5,5,0,0,0-10,0,4.949,4.949,0,0,0,.833,2.75L391,2735.58v-19.12a6.472,6.472,0,0,1,6.467-6.46h39.066a6.472,6.472,0,0,1,6.467,6.46v39.07ZM400,2731a3,3,0,1,1,3-3A3.006,3.006,0,0,1,400,2731Zm20,14a3,3,0,1,1-3-3A3.006,3.006,0,0,1,420,2745Z" transform="translate(-389 -2708)"/>
</svg>
