<svg xmlns="http://www.w3.org/2000/svg" width="46" height="59.87" viewBox="0 0 46 59.87">
  <defs>
    <style>
      .cls-1 {
        fill: #ffc000;
        fill-rule: evenodd;
      }
    </style>
  </defs>
  <path id="Forma_1" data-name="Forma 1" class="cls-1" d="M1244,2903.08c-14.6,0-21.14-7.52-21.23-7.63a1.047,1.047,0,0,0-1.54,0c-0.06.08-6.54,7.63-21.23,7.63a1,1,0,0,0-1,1v19.05a33.732,33.732,0,0,0,12.55,26.48,30.345,30.345,0,0,0,10.16,5.35,0.967,0.967,0,0,0,.29.04,0.863,0.863,0,0,0,.28-0.04,30.3,30.3,0,0,0,10.17-5.35,33.732,33.732,0,0,0,12.55-26.48v-19.05A1,1,0,0,0,1244,2903.08Zm-1,20.05a31.754,31.754,0,0,1-11.78,24.92,28.822,28.822,0,0,1-9.22,4.91,28.615,28.615,0,0,1-9.22-4.91,31.754,31.754,0,0,1-11.78-24.92v-18.06c12.24-.27,18.86-5.49,21-7.54,2.13,2.05,8.76,7.27,21,7.54v18.06Zm-21.56-20.05a35.536,35.536,0,0,1-15.57,5.63,0.994,0.994,0,0,0-.87.99v13.44a27.731,27.731,0,0,0,10.25,21.77,25.5,25.5,0,0,0,6.38,3.69,0.971,0.971,0,0,0,.37.07,0.889,0.889,0,0,0,.36-0.07,25.559,25.559,0,0,0,6.39-3.69,27.731,27.731,0,0,0,10.25-21.77V2909.7a0.994,0.994,0,0,0-.87-0.99,35.485,35.485,0,0,1-15.57-5.63A1,1,0,0,0,1221.44,2903.08Zm15.56,7.49v12.56a25.747,25.747,0,0,1-9.49,20.21,24.047,24.047,0,0,1-5.51,3.26,24.047,24.047,0,0,1-5.51-3.26,25.747,25.747,0,0,1-9.49-20.21v-12.56a37.678,37.678,0,0,0,15-5.46A37.616,37.616,0,0,0,1237,2910.57Zm-24.29,13.77a1.008,1.008,0,0,0-1.42,0,1,1,0,0,0,0,1.41l8,7.99a0.99,0.99,0,0,0,.71.29h0.03a0.987,0.987,0,0,0,.72-0.34l14-15.97a1,1,0,0,0-1.5-1.32l-13.3,15.17Z" transform="translate(-1199 -2895.13)"/>
</svg>
