<?xml version="1.0" standalone="no"?>
<!DOCTYPE svg PUBLIC "-//W3C//DTD SVG 20010904//EN"
 "http://www.w3.org/TR/2001/REC-SVG-20010904/DTD/svg10.dtd">
<svg version="1.0" xmlns="http://www.w3.org/2000/svg"
 width="115.000000pt" height="115.000000pt" viewBox="0 0 115.000000 115.000000"
 preserveAspectRatio="xMidYMid meet">
<metadata>
Created by potrace 1.14, written by Peter Selinger 2001-2017
</metadata>
<g transform="translate(0.000000,115.000000) scale(0.100000,-0.100000)"
fill="#000000" stroke="none">
<path d="M120 1062 c0 -4 18 -26 41 -47 l40 -40 -38 -17 c-38 -17 -38 -17 123
-18 122 0 170 4 198 15 20 8 36 19 36 23 0 4 -19 27 -43 50 l-43 42 -157 0
c-86 0 -157 -4 -157 -8z"/>
<path d="M500 1062 c0 -4 18 -26 41 -47 l40 -40 -38 -17 c-38 -17 -37 -17 127
-18 129 0 174 4 208 17 l43 16 -48 49 -47 48 -163 0 c-90 0 -163 -4 -163 -8z"/>
<path d="M890 1062 c0 -4 18 -26 41 -47 l40 -40 -38 -17 -38 -17 128 -1 127 0
0 65 0 65 -130 0 c-71 0 -130 -4 -130 -8z"/>
<path d="M60 911 c0 -5 20 -27 45 -50 l45 -41 155 0 c85 0 155 4 155 9 0 5
-20 27 -45 50 l-45 41 -155 0 c-85 0 -155 -4 -155 -9z"/>
<path d="M440 911 c0 -5 20 -27 45 -50 l45 -41 167 0 167 0 -49 50 -49 50
-163 0 c-90 0 -163 -4 -163 -9z"/>
<path d="M830 916 c0 -3 21 -25 48 -50 l47 -46 113 0 112 0 0 50 0 50 -160 0
c-88 0 -160 -2 -160 -4z"/>
<path d="M0 761 c0 -32 6 -44 35 -70 l36 -31 164 0 c91 0 165 3 165 6 0 3 -30
35 -67 70 -66 63 -68 64 -123 64 l-55 -1 50 -44 50 -45 -55 0 c-51 0 -59 3
-107 45 -28 25 -61 45 -72 45 -18 0 -21 -6 -21 -39z"/>
<path d="M319 781 c6 -10 38 -42 72 -70 l61 -51 176 0 177 1 -40 35 c-111 100
-119 104 -176 104 l-54 -1 50 -44 50 -45 -55 0 c-51 0 -59 3 -107 45 -48 42
-55 45 -107 45 -53 0 -56 -1 -47 -19z"/>
<path d="M690 796 c0 -3 35 -34 77 -70 l76 -66 154 0 c180 0 183 2 97 85 -54
54 -57 55 -112 55 l-57 0 50 -45 50 -44 -53 -1 c-49 0 -58 4 -106 45 -51 43
-56 45 -115 45 -33 0 -61 -2 -61 -4z"/>
<path d="M110 638 c0 -3 20 -18 45 -32 25 -15 45 -28 45 -30 0 -2 -22 -18 -50
-36 -27 -18 -50 -33 -50 -34 0 0 78 0 172 2 l173 2 33 33 32 33 -33 32 -34 33
-166 2 c-92 1 -167 -1 -167 -5z"/>
<path d="M490 638 c0 -3 20 -18 45 -32 25 -15 45 -28 45 -30 0 -2 -22 -18 -50
-36 -27 -18 -50 -33 -50 -34 0 0 80 0 177 2 l178 2 33 33 32 33 -33 32 -34 33
-171 2 c-95 1 -172 -1 -172 -5z"/>
<path d="M880 640 c0 -3 21 -18 47 -34 l48 -28 -30 -24 c-17 -13 -38 -27 -47
-30 -34 -10 -18 -20 30 -18 26 1 86 3 135 3 l87 1 0 64 0 65 -135 3 c-74 2
-135 1 -135 -2z"/>
<path d="M35 459 c-29 -26 -35 -38 -35 -70 0 -33 3 -39 21 -39 11 0 45 20 73
45 49 41 58 45 107 45 l54 0 -50 -45 -50 -44 55 -1 c55 0 57 1 123 64 37 35
67 67 67 70 0 3 -74 6 -165 6 l-164 0 -36 -31z"/>
<path d="M391 439 c-34 -28 -66 -60 -72 -70 -9 -18 -6 -19 47 -19 52 0 60 3
108 45 49 41 58 45 107 45 l54 0 -50 -45 -50 -44 54 -1 c51 0 58 3 122 55 110
91 116 85 -84 85 l-175 0 -61 -51z"/>
<path d="M767 424 c-42 -36 -77 -67 -77 -70 0 -2 28 -4 63 -4 60 0 65 2 114
45 47 42 55 45 105 45 l53 -1 -50 -44 -49 -45 57 0 c57 0 59 1 112 55 83 84
82 85 -98 85 l-154 0 -76 -66z"/>
<path d="M106 289 c-25 -22 -46 -45 -46 -50 0 -5 68 -9 155 -9 l155 0 45 41
c25 23 45 45 45 50 0 5 -69 9 -154 9 l-153 0 -47 -41z"/>
<path d="M486 289 c-25 -22 -46 -45 -46 -50 0 -5 71 -9 163 -9 l163 0 49 50
49 50 -165 0 -166 0 -47 -41z"/>
<path d="M878 284 c-27 -25 -48 -47 -48 -50 0 -2 72 -4 160 -4 l160 0 0 50 0
50 -112 0 -113 0 -47 -46z"/>
<path d="M163 192 l38 -17 -40 -40 c-23 -21 -41 -43 -41 -47 0 -4 71 -8 157
-8 l157 0 43 42 c24 23 43 46 43 50 0 4 -16 15 -36 23 -28 11 -76 15 -198 15
-161 -1 -161 -1 -123 -18z"/>
<path d="M543 192 l38 -17 -41 -40 c-22 -21 -40 -43 -40 -47 0 -4 73 -8 163
-8 l163 0 47 48 48 49 -43 16 c-35 14 -78 17 -208 16 -163 0 -165 -1 -127 -17z"/>
<path d="M933 192 l38 -17 -40 -40 c-23 -21 -41 -43 -41 -47 0 -4 59 -8 130
-8 l130 0 0 65 0 65 -127 0 -128 -1 38 -17z"/>
</g>
</svg>
