<?xml version="1.0" standalone="no"?>
<!DOCTYPE svg PUBLIC "-//W3C//DTD SVG 20010904//EN"
 "http://www.w3.org/TR/2001/REC-SVG-20010904/DTD/svg10.dtd">
<svg version="1.0" xmlns="http://www.w3.org/2000/svg"
 width="1280.000000pt" height="800.000000pt" viewBox="0 0 1280.000000 800.000000"
 preserveAspectRatio="xMidYMid meet">
<metadata>
Created by potrace 1.14, written by Peter Selinger 2001-2017
</metadata>
<g transform="translate(0.000000,800.000000) scale(0.100000,-0.100000)"
fill="#000000" stroke="none">
<path d="M6186 6159 c-369 -39 -752 -199 -1046 -436 -89 -72 -257 -243 -321
-328 -271 -355 -418 -787 -419 -1230 0 -277 69 -587 184 -831 l45 -94 56 0
c31 0 55 3 53 8 -34 65 -98 204 -98 212 0 15 16 13 183 -21 224 -46 476 -112
606 -158 113 -40 116 -41 245 -40 l131 1 -120 40 c-277 91 -623 161 -1006 203
l-56 6 -31 102 c-44 140 -61 222 -78 357 -70 588 144 1181 575 1592 669 640
1700 704 2443 151 658 -490 927 -1337 671 -2118 -41 -126 -21 -117 -185 -79
-79 18 -150 35 -159 39 -21 8 -33 -9 -16 -22 13 -11 260 -83 283 -83 8 0 14
-7 14 -15 0 -8 -1 -15 -3 -15 -1 0 -65 18 -142 40 -77 22 -143 40 -147 40 -5
0 -8 -13 -8 -29 0 -28 5 -31 108 -71 59 -22 118 -45 130 -51 l24 -9 -21 -36
c-12 -19 -21 -37 -21 -40 0 -2 25 -4 55 -4 l55 0 27 55 c18 36 33 55 45 55 10
0 18 5 18 10 0 6 -4 10 -10 10 -5 0 -10 7 -10 16 0 12 6 15 21 11 19 -5 21 -3
16 27 -4 23 6 68 28 139 199 626 79 1305 -324 1832 -64 85 -232 256 -321 328
-411 332 -950 491 -1474 436z"/>
<path d="M6610 5386 c-7 -9 -10 -25 -7 -36 6 -24 -2 -24 -173 -7 -92 10 -133
10 -205 -1 -63 -9 -146 -11 -275 -7 l-185 6 -455 -366 c-435 -350 -530 -428
-506 -414 6 4 175 121 376 261 201 140 409 285 463 322 l97 67 0 -28 c0 -27
-30 -50 -432 -322 -387 -263 -546 -375 -418 -295 175 108 853 515 855 512 1
-2 12 -218 25 -481 18 -374 21 -480 11 -486 -6 -4 -68 -18 -138 -31 -129 -23
-132 -23 -147 15 -2 6 -21 0 -44 -12 -60 -34 -86 -30 -114 15 -19 31 -23 50
-23 124 0 74 3 90 21 110 12 13 24 32 28 43 7 19 8 19 17 3 14 -26 38 -22 45
7 7 29 12 30 38 10 21 -16 76 -21 76 -7 0 4 -14 30 -31 56 -28 45 -32 48 -62
42 -18 -3 -44 -15 -59 -26 -32 -24 -38 -25 -38 -6 0 8 16 23 35 35 22 13 35
28 35 41 0 27 -3 36 -14 32 -5 -2 3 11 18 28 28 34 27 50 -5 50 -27 0 -109
-78 -109 -104 0 -11 -3 -31 -6 -44 l-7 -23 -11 23 c-9 18 -21 24 -54 26 -36 3
-42 0 -42 -17 0 -11 4 -22 10 -26 5 -3 7 -11 5 -18 -3 -7 -1 -19 5 -27 7 -12
12 -12 22 -2 19 19 28 14 28 -13 0 -22 -4 -25 -34 -25 -19 0 -45 -9 -60 -21
-22 -18 -26 -28 -26 -76 0 -55 0 -56 20 -38 11 10 20 29 20 42 0 14 6 23 15
23 8 0 15 7 15 15 0 18 66 22 72 4 2 -6 -1 -42 -6 -81 -8 -56 -7 -83 6 -132 9
-33 18 -68 20 -76 2 -11 -8 -16 -43 -18 l-46 -3 -97 110 -98 111 20 25 c11 14
23 40 26 58 3 18 20 46 36 62 17 16 30 36 30 44 1 27 36 96 69 134 38 42 34
57 -15 57 -68 0 -138 -50 -225 -161 -35 -43 -66 -79 -71 -79 -4 0 -8 -9 -8
-20 0 -11 -10 -55 -23 -97 -18 -65 -22 -102 -22 -215 1 -75 4 -140 7 -144 9
-8 115 7 368 52 186 32 536 84 573 84 12 0 17 -8 17 -30 0 -16 -2 -30 -3 -30
-4 0 -560 -64 -902 -104 -60 -8 -112 -12 -114 -10 -2 2 -7 79 -12 171 -14 270
-16 272 -15 18 1 -186 4 -239 14 -237 6 1 12 -5 12 -13 0 -20 -5 -20 387 7
183 12 335 19 339 15 28 -27 -69 -37 -556 -55 -174 -6 -195 -9 -198 -24 -3
-14 3 -18 23 -18 14 0 24 -3 22 -7 -3 -5 -2 -44 1 -88 l7 -79 34 -1 c29 0 35
-4 45 -35 9 -30 16 -35 43 -36 17 0 38 -6 47 -13 9 -7 26 -11 38 -8 13 4 29 0
39 -9 14 -13 24 -13 58 -4 35 9 42 16 53 51 10 37 14 40 37 34 14 -3 79 -8
143 -12 l118 -6 11 -41 c18 -69 19 -74 40 -100 18 -22 28 -26 75 -26 48 0 60
4 85 29 16 16 29 39 29 50 0 12 3 21 8 20 4 0 76 -15 161 -32 l153 -32 20 -52
c29 -78 57 -96 142 -91 70 4 76 8 111 61 9 14 20 13 102 -6 89 -20 101 -21
290 -9 217 13 1067 73 1069 76 1 0 5 12 9 25 l7 24 -233 -7 c-129 -3 -418 -9
-644 -12 -359 -6 -421 -4 -499 10 -95 18 -136 38 -136 66 0 17 2 16 38 -1 21
-11 47 -16 60 -13 21 6 22 11 22 109 0 122 -10 140 -82 154 -54 9 -60 2 -23
-27 19 -15 26 -33 30 -68 3 -27 8 -66 11 -87 l5 -39 -29 20 c-25 19 -29 29
-40 118 -29 228 -138 319 -211 177 -16 -32 -81 -33 -81 -2 0 18 4 20 30 14
l30 -6 -25 56 c-14 30 -25 69 -25 85 l0 30 97 0 96 0 123 -65 c68 -36 125 -65
128 -65 4 0 6 22 6 49 0 37 -4 51 -17 56 -159 64 -209 77 -275 70 l-68 -6 0
53 c0 29 -3 91 -6 138 -5 83 -7 156 -12 464 l-2 148 -27 -7 c-16 -3 -32 -10
-37 -15 -8 -8 2 -286 21 -595 2 -38 4 -91 4 -117 0 -42 3 -48 27 -57 25 -9 24
-9 -15 -10 -38 -1 -43 2 -43 22 0 12 -2 76 -5 142 -3 66 -7 239 -9 384 -4 217
-2 271 10 299 13 32 12 56 -6 225 -12 104 -19 191 -17 193 6 7 271 -16 309
-27 26 -7 39 -16 43 -32 18 -82 46 -229 43 -231 -2 -2 -81 -31 -176 -66 -95
-35 -171 -65 -168 -67 6 -6 370 77 409 94 44 19 44 19 21 182 -8 62 -14 114
-12 115 2 2 192 -8 423 -20 231 -13 449 -23 485 -22 l65 1 -67 9 c-59 9 -67
13 -65 30 2 24 -24 44 -47 35 -9 -4 -16 -16 -16 -28 0 -17 -4 -20 -22 -15 -13
3 -38 6 -56 6 -29 0 -33 3 -27 20 8 26 -11 50 -39 50 -26 0 -46 -18 -46 -40 0
-12 -8 -15 -37 -13 -72 7 -82 11 -76 33 7 28 -14 50 -48 50 -29 0 -50 -24 -42
-47 5 -14 -42 -17 -95 -7 -27 6 -29 8 -19 25 25 40 -43 81 -73 45z m-679 -331
c-3 -119 -6 -145 -24 -173 -19 -33 -20 -42 -13 -493 7 -416 6 -459 -8 -459
-14 0 -16 21 -18 158 0 86 -2 168 -3 182 -1 14 -6 221 -10 460 -4 239 -9 438
-12 443 -10 17 12 28 50 25 l42 -3 -4 -140z m-741 -462 c0 -4 -11 -19 -25 -33
-13 -14 -31 -43 -38 -65 -13 -37 -17 -40 -61 -47 -26 -3 -66 -18 -91 -32 -24
-14 -46 -26 -50 -26 -11 0 83 117 117 145 52 45 148 82 148 58z m-105 -460
c41 -48 75 -91 75 -95 0 -3 -15 -10 -32 -13 -18 -4 -62 -23 -98 -41 -36 -19
-86 -37 -112 -40 -45 -6 -48 -5 -48 15 0 26 15 57 40 86 10 11 20 32 24 47 3
15 20 43 36 62 17 18 30 41 30 50 0 9 2 16 5 16 2 0 38 -39 80 -87z m1058
-298 c23 -23 46 -103 57 -196 19 -160 8 -191 -15 -46 -8 47 -19 104 -25 126
-12 46 -52 97 -67 88 -14 -9 -33 -87 -32 -129 1 -27 3 -22 13 22 21 100 36
101 61 5 10 -38 12 -61 5 -63 -13 -5 -13 -42 0 -42 6 0 10 -27 10 -61 0 -34
-4 -58 -9 -54 -16 9 -24 -15 -11 -31 18 -20 6 -92 -18 -117 -20 -20 -20 -20
-35 9 -39 79 -55 312 -28 414 23 84 58 112 94 75z m-586 -23 c25 -16 46 -88
49 -172 4 -93 1 -90 -16 16 -14 86 -44 144 -65 123 -7 -8 -16 -36 -19 -64 l-6
-50 13 45 c6 25 17 44 22 43 17 -3 34 -86 21 -102 -8 -11 -8 -15 2 -18 14 -5
17 -93 2 -93 -6 0 -7 -18 -4 -42 4 -30 1 -49 -10 -63 -21 -28 -35 -11 -52 62
-25 105 -13 266 23 305 18 20 23 21 40 10z m395 -148 c4 -3 8 -26 8 -51 l0
-46 -142 6 c-97 5 -144 11 -150 19 -4 7 -8 31 -8 52 l0 39 142 -7 c78 -4 145
-9 150 -12z"/>
<path d="M5980 5244 c0 -33 39 -306 44 -311 4 -4 126 38 126 44 0 3 -21 3 -47
1 l-47 -3 -22 125 c-31 171 -33 160 24 160 34 0 43 3 32 10 -8 5 -36 10 -62
10 l-48 0 0 -36z"/>
<path d="M6507 5134 c8 -54 16 -100 17 -101 1 -1 188 -4 416 -7 228 -3 408 -3
400 -1 -8 2 -179 14 -380 25 -201 12 -368 24 -371 28 -4 4 -9 33 -13 65 l-6
59 122 -6 c168 -8 577 -15 558 -11 -13 4 -244 18 -651 42 l-106 6 14 -99z"/>
<path d="M7472 5200 c3 -8 17 -58 32 -110 15 -52 36 -107 47 -123 l20 -27
-178 6 c-445 16 -959 30 -969 27 -6 -2 -10 -14 -8 -26 2 -12 5 -41 8 -65 l4
-43 -36 3 c-36 3 -37 4 -42 48 -4 36 -8 44 -23 42 -22 -4 -217 -79 -233 -90
-7 -5 -7 -64 0 -196 l11 -189 45 -28 c25 -16 50 -29 56 -29 6 0 21 -9 34 -20
13 -11 28 -20 35 -20 6 0 26 -11 45 -25 61 -45 61 -44 55 153 -3 97 -8 196
-11 219 -7 55 -2 62 38 54 32 -7 33 -8 40 -71 3 -36 7 -119 8 -185 4 -184 10
-233 29 -238 13 -4 12 -5 -3 -6 -17 -1 -18 -11 -11 -193 3 -106 9 -200 11
-209 8 -29 58 -42 136 -35 40 3 294 8 563 12 462 6 525 10 510 34 -3 5 -255 6
-559 3 l-555 -6 -5 24 c-11 48 -27 176 -36 279 -4 58 -12 144 -16 193 -5 61
-4 87 4 87 6 0 15 -6 19 -12 16 -26 53 -37 150 -47 137 -14 991 -15 1007 -1
15 12 26 -153 26 -392 l0 -147 30 -16 c37 -19 40 -51 5 -57 -36 -7 -42 10 -8
24 27 11 27 12 5 16 -48 8 -51 0 -88 -236 -7 -43 12 -49 72 -23 25 12 48 21
50 21 2 0 4 -14 4 -32 0 -71 14 -9 30 128 l16 146 -28 35 c-28 36 -28 36 -28
187 0 83 -7 212 -16 286 -18 155 -72 537 -79 561 -4 10 5 21 22 30 28 14 28
14 -23 17 -66 4 -97 35 -150 152 -35 78 -73 146 -62 110z m-85 -316 c213 -6
243 -8 247 -23 11 -37 46 -232 56 -311 11 -77 10 -85 -6 -97 -22 -16 -26 -16
-569 2 -242 8 -448 15 -457 15 -27 0 -95 67 -107 103 -11 32 -31 189 -31 238
l0 26 403 9 c221 5 389 10 372 11 -16 1 -196 10 -400 18 -203 9 -372 18 -374
21 -5 5 386 -1 866 -12z m-1107 -29 c0 -23 -3 -25 -50 -25 l-50 0 0 -72 c0
-40 3 -117 7 -170 6 -97 6 -97 36 -108 16 -5 41 -10 53 -10 20 0 24 -5 24 -30
l0 -29 -37 17 c-21 10 -54 28 -74 42 l-37 24 -8 146 c-5 80 -9 154 -9 165 0
14 16 26 65 47 80 34 80 34 80 3z"/>
<path d="M7720 4800 c0 -10 9 -77 20 -151 22 -140 37 -173 68 -147 16 14 13
58 -15 215 -15 88 -17 91 -44 95 -22 4 -29 1 -29 -12z"/>
<path d="M6690 4273 c-24 -3 -47 -8 -50 -13 -9 -14 10 -258 23 -298 12 -36 13
-37 77 -45 59 -8 480 3 800 22 l115 6 6 40 c12 75 18 220 8 202 -9 -16 -48
-17 -480 -17 -414 0 -470 2 -476 15 -3 9 -4 17 -2 19 10 10 138 16 514 22 226
4 394 11 375 15 -40 8 -636 31 -725 28 -33 -1 -78 0 -100 3 -22 3 -60 3 -85 1z
m961 -160 l-7 -28 -462 -3 c-407 -2 -462 0 -462 13 0 12 14 15 63 16 34 0 202
7 372 13 171 7 353 14 407 15 l96 1 -7 -27z m-32 -104 l-11 -22 -241 6 c-132
4 -331 8 -441 9 l-201 1 125 9 c208 14 775 33 778 26 2 -4 -2 -17 -9 -29z"/>
<path d="M6475 3790 c-9 -15 15 -273 27 -287 7 -9 42 -13 110 -13 84 0 100 3
105 17 9 24 -20 189 -43 238 -16 37 -18 38 -21 15 -4 -23 -7 -25 -48 -22 -36
3 -45 8 -45 23 0 12 7 19 19 19 11 0 23 5 26 10 4 6 -18 10 -59 10 -36 0 -68
-5 -71 -10z m189 -137 c3 -21 7 -56 8 -78 l2 -40 -49 3 c-26 1 -50 3 -51 5 -1
1 -6 35 -9 75 l-8 72 51 0 50 0 6 -37z"/>
<path d="M6737 3794 c-10 -10 12 -57 41 -86 l26 -28 295 1 c341 1 454 8 475
29 8 8 22 32 31 53 l15 37 -438 0 c-241 0 -441 -3 -445 -6z"/>
<path d="M6775 3620 c-15 -24 21 -65 75 -88 54 -22 60 -23 335 -18 154 3 298
9 320 15 44 11 85 51 85 82 0 18 -11 19 -404 19 -258 0 -407 -4 -411 -10z"/>
<path d="M4070 3090 l0 -60 62 0 c34 0 82 7 106 17 l43 16 -43 44 c-41 42 -44
43 -105 43 l-63 0 0 -60z"/>
<path d="M4290 3105 l43 -44 -24 -9 c-13 -5 -31 -12 -39 -15 -8 -3 59 -6 150
-6 130 -1 173 2 208 16 l43 16 -43 44 -42 43 -170 0 -170 0 44 -45z"/>
<path d="M4671 3123 c54 -60 54 -61 17 -77 -31 -13 -23 -14 122 -15 121 -1
164 3 198 16 l43 16 -43 44 -42 43 -160 0 -160 0 25 -27z"/>
<path d="M5065 3105 l37 -44 -34 -15 c-31 -13 -22 -14 129 -15 129 -1 171 2
204 15 l40 17 -42 43 -43 44 -164 0 -163 0 36 -45z"/>
<path d="M5459 3106 l42 -43 -38 -16 c-37 -16 -34 -16 119 -16 124 -1 166 3
199 15 l40 17 -42 43 -43 44 -160 0 -160 0 43 -44z"/>
<path d="M5833 3112 c20 -21 37 -41 37 -45 0 -5 -15 -14 -32 -22 -30 -13 -19
-14 129 -15 127 0 171 4 203 16 22 9 40 19 40 23 0 4 -17 24 -38 44 l-38 37
-169 0 -169 0 37 -38z"/>
<path d="M6230 3105 l43 -44 -24 -9 c-13 -5 -31 -12 -39 -15 -8 -3 56 -6 142
-6 123 -1 166 3 198 15 22 9 40 19 40 23 0 4 -17 24 -38 44 l-38 37 -164 0
-164 0 44 -45z"/>
<path d="M6610 3105 l43 -44 -24 -9 c-13 -5 -31 -12 -39 -15 -8 -3 59 -6 150
-6 130 -1 173 2 208 16 l43 16 -43 44 -42 43 -170 0 -170 0 44 -45z"/>
<path d="M7000 3105 l43 -44 -24 -9 c-13 -5 -31 -12 -39 -15 -8 -3 58 -6 146
-6 123 -1 170 3 198 14 20 8 36 19 36 23 0 4 -17 25 -38 45 l-38 37 -164 0
-164 0 44 -45z"/>
<path d="M7380 3105 l43 -44 -24 -9 c-13 -5 -31 -12 -39 -15 -8 -3 59 -6 150
-6 130 -1 173 2 208 16 l43 16 -43 44 -42 43 -170 0 -170 0 44 -45z"/>
<path d="M7775 3105 l37 -44 -34 -15 c-31 -13 -23 -14 122 -15 121 -1 164 3
198 16 l43 16 -43 44 -42 43 -159 0 -158 0 36 -45z"/>
<path d="M8154 3105 l37 -45 -33 -14 c-31 -13 -21 -14 129 -15 129 -1 171 2
204 15 l40 17 -42 43 -43 44 -164 0 -164 0 36 -45z"/>
<path d="M8543 3112 c20 -21 37 -41 37 -45 0 -5 -15 -14 -32 -22 -32 -14 -29
-14 60 -15 l92 0 0 60 0 60 -97 0 -97 0 37 -38z"/>
<path d="M4240 2955 l44 -45 165 0 165 0 -44 45 -44 45 -165 0 -165 0 44 -45z"/>
<path d="M4632 2955 l47 -45 157 0 158 0 -44 45 -44 45 -161 0 -160 0 47 -45z"/>
<path d="M5012 2955 l47 -45 160 0 c89 0 161 2 161 5 0 2 -19 22 -42 44 l-43
40 -165 1 -165 0 47 -45z"/>
<path d="M5402 2955 l47 -45 157 0 158 0 -44 45 -44 45 -161 0 -160 0 47 -45z"/>
<path d="M5782 2955 l47 -45 160 0 c89 0 161 4 161 9 0 5 -18 25 -40 45 l-40
36 -168 0 -167 0 47 -45z"/>
<path d="M6177 2955 l48 -44 153 -1 c83 0 152 4 152 9 0 5 -18 25 -40 45 l-40
36 -161 0 -161 0 49 -45z"/>
<path d="M6555 2955 l50 -44 158 -1 c86 0 157 4 157 8 0 4 -17 25 -38 45 l-38
37 -169 0 -169 0 49 -45z"/>
<path d="M6950 2955 l44 -45 153 0 c84 0 153 4 153 8 0 4 -17 25 -38 45 l-38
37 -159 0 -159 0 44 -45z"/>
<path d="M7330 2955 l44 -45 165 0 165 0 -44 45 -44 45 -165 0 -165 0 44 -45z"/>
<path d="M7722 2955 l47 -45 157 0 158 0 -44 45 -44 45 -161 0 -160 0 47 -45z"/>
<path d="M8100 2955 l44 -45 165 0 165 0 -44 45 -44 45 -165 0 -165 0 44 -45z"/>
<path d="M8492 2955 l47 -45 80 0 81 0 0 45 0 45 -127 0 -128 0 47 -45z"/>
<path d="M4070 2805 c0 -13 264 -15 2315 -15 2051 0 2315 2 2315 15 0 13 -264
15 -2315 15 -2051 0 -2315 -2 -2315 -15z"/>
<path d="M4278 2718 c7 -7 12 -26 12 -43 0 -17 -5 -36 -12 -43 -9 -9 -4 -12
23 -11 18 0 28 3 22 6 -17 6 -16 43 1 43 7 0 20 -9 27 -20 20 -29 81 -37 114
-16 21 14 26 24 23 49 -3 28 -8 33 -40 41 -41 10 -98 -7 -98 -30 0 -8 -9 -14
-20 -14 -22 0 -28 35 -7 43 6 3 -4 6 -22 6 -27 1 -32 -2 -23 -11z"/>
<path d="M4080 2540 c0 -20 7 -20 2315 -20 2308 0 2315 0 2315 20 0 20 -7 20
-2315 20 -2308 0 -2315 0 -2315 -20z"/>
<path d="M4439 2413 l-165 -3 -39 -40 -39 -40 165 0 165 0 44 45 c24 25 42 44
40 43 -3 -1 -80 -4 -171 -5z"/>
<path d="M5209 2412 l-165 -2 -39 -40 -39 -40 164 0 165 1 43 40 c24 23 42 42
40 42 -2 1 -78 1 -169 -1z"/>
<path d="M5595 2412 l-160 -3 -37 -36 c-21 -21 -38 -40 -38 -43 0 -3 71 -3
159 0 l158 5 42 38 c24 21 41 39 39 40 -1 1 -75 1 -163 -1z"/>
<path d="M5979 2412 l-165 -2 -39 -40 -39 -40 170 0 170 0 39 40 c21 22 37 41
34 42 -2 2 -79 2 -170 0z"/>
<path d="M6369 2410 l-155 -5 -42 -36 c-23 -20 -42 -38 -42 -40 0 -2 74 -3
163 -1 l164 3 38 39 c21 22 37 41 34 42 -2 2 -74 1 -160 -2z"/>
<path d="M8299 2412 l-165 -2 -39 -40 -39 -40 164 0 165 1 43 40 c24 23 42 42
40 42 -2 1 -78 1 -169 -1z"/>
<path d="M4625 2370 l-39 -40 160 0 160 0 39 40 39 40 -160 0 -160 0 -39 -40z"/>
<path d="M6551 2370 l-44 -40 170 0 169 0 39 40 39 40 -164 0 -165 -1 -44 -39z"/>
<path d="M6945 2370 l-39 -40 160 0 160 0 39 40 39 40 -160 0 -160 0 -39 -40z"/>
<path d="M7325 2370 l-39 -40 165 0 165 0 39 40 39 40 -165 0 -165 0 -39 -40z"/>
<path d="M7715 2370 l-39 -40 160 0 160 0 39 40 39 40 -160 0 -160 0 -39 -40z"/>
<path d="M8487 2372 c-20 -21 -37 -40 -37 -42 0 -3 56 -4 125 -2 l125 3 0 40
0 39 -88 0 -88 0 -37 -38z"/>
<path d="M4070 2240 l0 -60 63 0 c61 0 64 1 105 43 l43 44 -43 16 c-24 10 -72
17 -106 17 l-62 0 0 -60z"/>
<path d="M4270 2293 c8 -3 26 -10 39 -15 l24 -9 -43 -44 -44 -45 170 0 170 0
42 43 43 44 -43 16 c-35 14 -78 17 -208 16 -91 0 -158 -3 -150 -6z"/>
<path d="M4688 2284 c17 -8 32 -16 32 -19 0 -3 -16 -23 -36 -45 l-36 -40 159
0 159 0 42 43 43 44 -43 16 c-34 13 -77 17 -198 16 -143 -1 -152 -2 -122 -15z"/>
<path d="M5068 2284 c37 -16 37 -17 -17 -76 l-25 -28 165 0 165 0 43 44 42 43
-40 17 c-33 13 -75 16 -204 15 -151 -1 -160 -2 -129 -15z"/>
<path d="M5463 2283 l38 -16 -42 -43 -43 -44 160 0 160 0 43 44 42 43 -40 17
c-33 12 -75 16 -199 15 -153 0 -156 0 -119 -16z"/>
<path d="M5838 2285 c17 -8 32 -17 32 -22 0 -4 -17 -24 -37 -45 l-37 -38 170
0 170 0 37 38 c20 21 37 41 37 44 0 3 -18 13 -40 22 -32 12 -76 16 -203 16
-148 -1 -159 -2 -129 -15z"/>
<path d="M6210 2293 c8 -3 26 -10 39 -15 l24 -9 -43 -44 -44 -45 165 0 165 0
37 38 c20 21 37 41 37 44 0 3 -18 13 -40 22 -32 12 -75 16 -198 15 -86 0 -150
-3 -142 -6z"/>
<path d="M6613 2283 l38 -16 -42 -43 -43 -44 170 0 170 0 42 43 43 44 -43 16
c-35 14 -78 17 -208 16 -160 0 -164 0 -127 -16z"/>
<path d="M6980 2293 c8 -3 26 -10 39 -15 l24 -9 -43 -44 -44 -45 165 0 165 0
37 38 c20 21 37 41 37 45 0 4 -16 14 -36 22 -28 11 -75 15 -198 14 -88 0 -154
-3 -146 -6z"/>
<path d="M7360 2293 c8 -3 26 -10 39 -15 l24 -9 -43 -44 -44 -45 170 0 170 0
42 43 43 44 -43 16 c-35 14 -78 17 -208 16 -91 0 -158 -3 -150 -6z"/>
<path d="M7778 2284 c37 -16 37 -17 -17 -76 l-25 -28 160 0 160 0 42 43 43 44
-43 16 c-34 13 -77 17 -198 16 -145 -1 -153 -2 -122 -15z"/>
<path d="M8158 2284 l33 -14 -37 -45 -36 -45 164 0 164 0 43 44 42 43 -40 17
c-33 13 -75 16 -204 15 -150 -1 -160 -2 -129 -15z"/>
<path d="M8553 2283 l38 -16 -42 -43 -43 -44 97 0 97 0 0 60 0 60 -92 -1 -93
0 38 -16z"/>
</g>
</svg>
