<?xml version="1.0" encoding="utf-8"?>
<!-- Generator: Adobe Illustrator 15.0.0, SVG Export Plug-In . SVG Version: 6.00 Build 0)  -->
<!DOCTYPE svg PUBLIC "-//W3C//DTD SVG 1.1//EN" "http://www.w3.org/Graphics/SVG/1.1/DTD/svg11.dtd">
<svg version="1.1" id="Layer_1" xmlns="http://www.w3.org/2000/svg" xmlns:xlink="http://www.w3.org/1999/xlink" x="0px" y="0px" viewBox="0 0 342 286" enable-background="new 0 0 342 286" xml:space="preserve">
<g>
	<path d="M333.89,43.954c-10.067,13.91-21.102,25.169-33.079,33.798v8.629c0,19.663-2.64,37.393-7.91,53.213
		c-5.28,18.225-13.19,35.236-23.73,51.057c-9.112,14.865-21.573,29.483-37.393,43.865c-15.82,12.943-33.562,22.775-53.213,29.483
		c-20.135,7.674-42.191,11.506-66.158,11.506c-36.921,0-70.955-10.067-102.113-30.203c6.708,0.967,11.978,1.438,15.82,1.438
		c30.203,0,57.764-9.584,82.697-28.764c-14.382,0-27.326-4.315-38.832-12.944c-11.505-8.629-19.416-19.651-23.73-33.079
		c6.708,0.967,11.022,1.438,12.944,1.438c6.225,0,11.978-0.955,17.258-2.876c-14.865-2.877-27.573-10.304-38.112-22.292
		c-10.067-12.46-15.102-26.607-15.102-42.427v-0.719c9.584,5.281,19.652,7.91,30.203,7.91c-9.112-5.753-16.304-13.416-21.573-23.012
		c-5.281-9.101-7.91-19.651-7.91-31.64c0-12.461,2.876-23.73,8.629-33.798C49.361,45.156,69.496,61.46,92.99,73.438
		c24.449,12.472,50.09,19.416,76.944,20.854c-1.438-5.753-2.157-11.022-2.157-15.82c0-18.213,6.472-33.798,19.416-46.742
		s28.764-19.416,47.461-19.416c19.169,0,35.236,6.955,48.18,20.854c14.854-2.876,29-8.146,42.428-15.82
		c-4.798,15.82-14.63,28.045-29.483,36.674C307.283,52.583,319.979,49.235,333.89,43.954z"/>
</g>
</svg>
