<svg xmlns="http://www.w3.org/2000/svg" version="1.0" width="75" height="111.80000000000004" preserveAspectRatio="xMidYMid meet"><rect id="backgroundrect" width="100%" height="100%" x="0" y="0" fill="none" stroke="none" class=""/>
<metadata>
Created by potrace 1.14, written by Peter Selinger 2001-2017
</metadata>

<g class="currentLayer"><title>Layer 1</title>





















<g class=""><path d="M-28.244065737118103,4.045251235859558 c0,0.42262626324037134 1.7633899117021246,2.7470707110624115 4.016610354432617,4.965858593074359 l3.9186442482269435,4.22626263240371 l-3.7227120358155963,1.7961616187715768 c-3.7227120358155963,1.7961616187715768 -3.7227120358155963,1.7961616187715768 12.049831063297852,1.9018181845816695 c11.951864957092177,0 16.65423805496451,-0.42262626324037134 19.39728902872337,-1.5848484871513913 c1.9593221241134717,-0.845252526480742 3.52677982340425,-2.0074747503917623 3.52677982340425,-2.4301010136321333 c0,-0.42262626324037134 -1.8613560179077981,-2.8527272768725043 -4.212542566843965,-5.2828282905046375 l-4.212542566843965,-4.4375757640238955 l-15.380678674290753,0 c-8.42508513368793,0 -15.380678674290753,0.42262626324037134 -15.380678674290753,0.845252526480742 z" id="svg_2" class=""/><path d="M8.98305462103786,4.045251235859558 c0,0.42262626324037134 1.7633899117021246,2.7470707110624115 4.016610354432617,4.965858593074359 l3.9186442482269435,4.22626263240371 l-3.7227120358155963,1.7961616187715768 c-3.7227120358155963,1.7961616187715768 -3.6247459296099227,1.7961616187715768 12.441695488120546,1.9018181845816695 c12.637627700531892,0 17.046102479787205,-0.42262626324037134 20.376950090780106,-1.7961616187715768 l4.212542566843965,-1.690505052961484 l-4.702373097872332,-5.177171724694545 l-4.604406991666659,-5.071515158884452 l-15.968475311524795,0 c-8.816949558510622,0 -15.968475311524795,0.42262626324037134 -15.968475311524795,0.845252526480742 z" id="svg_3" class=""/><path d="M47.18983604125056,4.045251235859558 c0,0.42262626324037134 1.7633899117021246,2.7470707110624115 4.016610354432617,4.965858593074359 l3.9186442482269435,4.22626263240371 l-3.7227120358155963,1.7961616187715768 l-3.7227120358155963,1.7961616187715768 l12.539661594326219,0.10565656581009275 l12.441695488120546,0 l0,-6.867676777656029 l0,-6.867676777656029 l-12.735593806737565,0 c-6.955593540602825,0 -12.735593806737565,0.42262626324037134 -12.735593806737565,0.845252526480742 z" id="svg_4" class=""/><path d="M-34.122032109458516,19.999392673183564 c0,0.5282828290504641 1.9593221241134717,2.8527272768725043 4.408474779255311,5.2828282905046375 l4.408474779255311,4.331919198213803 l15.184746461879406,0 c8.327119027482254,0 15.184746461879406,-0.42262626324037134 15.184746461879406,-0.9509090922908351 c0,-0.5282828290504641 -1.9593221241134717,-2.8527272768725043 -4.408474779255311,-5.2828282905046375 l-4.408474779255311,-4.331919198213803 l-15.184746461879406,0 c-8.327119027482254,0 -15.184746461879406,0.42262626324037134 -15.184746461879406,0.9509090922908351 z" id="svg_5" class=""/><path d="M3.105088248697445,19.999392673183564 c0,0.5282828290504641 1.9593221241134717,2.8527272768725043 4.408474779255311,5.2828282905046375 l4.408474779255311,4.331919198213803 l16.360339736347488,0 l16.360339736347488,0 l-4.800339204078005,-5.2828282905046375 l-4.800339204078005,-5.2828282905046375 l-15.968475311524795,0 c-8.816949558510622,0 -15.968475311524795,0.42262626324037134 -15.968475311524795,0.9509090922908351 z" id="svg_6" class=""/><path d="M41.31186966891014,19.4711098441331 c0,0.31696969743027825 2.0572882303191453,2.6414141452523188 4.702373097872332,5.2828282905046375 l4.604406991666659,4.8602020272642665 l11.070170001241115,0 l10.972203895035442,0 l0,-5.2828282905046375 l0,-5.2828282905046375 l-15.674576992907774,0 c-8.621017346099276,0 -15.674576992907774,0.2113131316201855 -15.674576992907774,0.42262626324037134 z" id="svg_7" class=""/><path d="M-39.99999848179893,35.847877544697475 c0,3.381010105922968 0.5877966372340415,4.648888895644081 3.4288137171985755,7.3959596067064926 l3.52677982340425,3.2753535401128753 l16.066441417730466,0 c8.914915664716297,0 16.16440752393614,-0.31696969743027825 16.16440752393614,-0.6339393948605565 c0,-0.31696969743027825 -2.9389831861702076,-3.6979798033532463 -6.563729115780131,-7.3959596067064926 c-6.465763009574457,-6.656363646035843 -6.661695221985804,-6.762020211845936 -12.049831063297852,-6.762020211845936 l-5.388135841312048,0.10565656581009275 l4.898305310283679,4.648888895644081 l4.898305310283679,4.754545461454174 l-5.388135841312048,0 c-4.996271416489353,0 -5.780000266134742,-0.31696969743027825 -10.482373364007074,-4.754545461454174 c-2.7430509737588604,-2.6414141452523188 -5.975932478546088,-4.754545461454174 -7.053559646808498,-4.754545461454174 c-1.7633899117021246,0 -2.0572882303191453,0.6339393948605565 -2.0572882303191453,4.120606066593617 z" id="svg_8" class=""/><path d="M-8.748810602189058,33.734746228495624 c0.5877966372340415,1.0565656581009275 3.7227120358155963,4.4375757640238955 7.053559646808498,7.3959596067064926 l5.975932478546088,5.38848485631473 l17.24203469219855,0 l17.340000798404226,-0.10565656581009275 l-3.9186442482269435,-3.6979798033532463 c-10.874237788829769,-10.565656581009275 -11.657966638475157,-10.988282844249646 -17.24203469219855,-10.988282844249646 l-5.290169735106374,0.10565656581009275 l4.898305310283679,4.648888895644081 l4.898305310283679,4.754545461454174 l-5.388135841312048,0 c-4.996271416489353,0 -5.780000266134742,-0.31696969743027825 -10.482373364007074,-4.754545461454174 c-4.702373097872332,-4.4375757640238955 -5.388135841312048,-4.754545461454174 -10.482373364007074,-4.754545461454174 c-5.1922036289007,0 -5.486101947517721,0.10565656581009275 -4.604406991666659,2.0074747503917623 z" id="svg_9" class=""/><path d="M27.59661480011584,32.14989774134423 c0,0.31696969743027825 3.4288137171985755,3.5923232375431535 7.543390177836866,7.3959596067064926 l7.445424071631193,6.9733333434661215 l15.086780355673731,0 c17.633899117021244,0 17.927797435638265,-0.2113131316201855 9.502712301950337,-8.980808093857885 c-5.290169735106374,-5.7054545537450085 -5.584068053723394,-5.811111119555101 -10.972203895035442,-5.811111119555101 l-5.584068053723394,0 l4.898305310283679,4.754545461454174 l4.898305310283679,4.648888895644081 l-5.1922036289007,0.10565656581009275 c-4.800339204078005,0 -5.682034159929068,-0.42262626324037134 -10.3844072578014,-4.754545461454174 c-4.996271416489353,-4.543232329833988 -5.486101947517721,-4.754545461454174 -11.266102213652463,-4.754545461454174 c-3.2328815047872284,0 -5.975932478546088,0.2113131316201855 -5.975932478546088,0.42262626324037134 z" id="svg_10" class=""/><path d="M-29.223726799174838,48.843635139338886 c0,0.31696969743027825 1.9593221241134717,1.9018181845816695 4.408474779255311,3.381010105922968 c2.4491526551418397,1.5848484871513913 4.408474779255311,2.958383842682597 4.408474779255311,3.1696969743027825 c0,0.2113131316201855 -2.155254336524819,1.9018181845816695 -4.898305310283679,3.80363636916334 c-2.645084867553187,1.9018181845816695 -4.898305310283679,3.4866666717330608 -4.898305310283679,3.5923232375431535 c0,0 7.64135628404254,0 16.85017026737586,-0.2113131316201855 l16.94813637358153,-0.2113131316201855 l3.2328815047872284,-3.4866666717330608 l3.1349153985815548,-3.4866666717330608 l-3.2328815047872284,-3.381010105922968 l-3.330847610992902,-3.4866666717330608 l-16.262373630141816,-0.2113131316201855 c-9.01288177092197,-0.10565656581009275 -16.360339736347488,0.10565656581009275 -16.360339736347488,0.5282828290504641 z" id="svg_11" class=""/><path d="M8.003393558981124,48.843635139338886 c0,0.31696969743027825 1.9593221241134717,1.9018181845816695 4.408474779255311,3.381010105922968 c2.4491526551418397,1.5848484871513913 4.408474779255311,2.958383842682597 4.408474779255311,3.1696969743027825 c0,0.2113131316201855 -2.155254336524819,1.9018181845816695 -4.898305310283679,3.80363636916334 c-2.645084867553187,1.9018181845816695 -4.898305310283679,3.4866666717330608 -4.898305310283679,3.5923232375431535 c0,0 7.837288496453887,0 17.340000798404226,-0.2113131316201855 l17.437966904609898,-0.2113131316201855 l3.2328815047872284,-3.4866666717330608 l3.1349153985815548,-3.4866666717330608 l-3.2328815047872284,-3.381010105922968 l-3.330847610992902,-3.4866666717330608 l-16.752204161170184,-0.2113131316201855 c-9.306780089538991,-0.10565656581009275 -16.85017026737586,0.10565656581009275 -16.85017026737586,0.5282828290504641 z" id="svg_12" class=""/><path d="M46.21017497919382,48.6323220077187 c0,0.31696969743027825 2.0572882303191453,1.9018181845816695 4.604406991666659,3.5923232375431535 l4.702373097872332,2.958383842682597 l-2.9389831861702076,2.535757579442226 c-1.665423805496451,1.3735353555312058 -3.7227120358155963,2.8527272768725043 -4.604406991666659,3.1696969743027825 c-3.330847610992902,1.0565656581009275 -1.7633899117021246,2.113131316201855 2.9389831861702076,1.9018181845816695 c2.5471187613475132,-0.10565656581009275 8.42508513368793,-0.31696969743027825 13.225424337765935,-0.31696969743027825 l8.523051239893602,-0.10565656581009275 l0,-6.762020211845936 l0,-6.867676777656029 l-13.225424337765935,-0.31696969743027825 c-7.249491859219845,-0.2113131316201855 -13.225424337765935,-0.10565656581009275 -13.225424337765935,0.2113131316201855 z" id="svg_13" class=""/><path d="M-36.57118476460036,67.75616041934549 c-2.841017079964534,2.7470707110624115 -3.4288137171985755,4.0149495007835245 -3.4288137171985755,7.3959596067064926 c0,3.4866666717330608 0.29389831861702076,4.120606066593617 2.0572882303191453,4.120606066593617 c1.0776271682624095,0 4.408474779255311,-2.113131316201855 7.151525753014171,-4.754545461454174 c4.800339204078005,-4.331919198213803 5.682034159929068,-4.754545461454174 10.482373364007074,-4.754545461454174 l5.290169735106374,0 l-4.898305310283679,4.754545461454174 l-4.898305310283679,4.648888895644081 l5.388135841312048,0.10565656581009275 c5.388135841312048,0 5.584068053723394,-0.10565656581009275 12.049831063297852,-6.762020211845936 c3.6247459296099227,-3.6979798033532463 6.563729115780131,-7.078989909276214 6.563729115780131,-7.3959596067064926 c0,-0.31696969743027825 -7.249491859219845,-0.6339393948605565 -16.16440752393614,-0.6339393948605565 l-16.066441417730466,0 l-3.52677982340425,3.2753535401128753 z" id="svg_14" class=""/><path d="M-1.695250955380561,69.86929173554734 c-3.330847610992902,2.958383842682597 -6.465763009574457,6.339393948605565 -7.053559646808498,7.3959596067064926 c-0.8816949558510626,1.9018181845816695 -0.5877966372340415,2.0074747503917623 4.604406991666659,2.0074747503917623 c5.0942375226950265,0 5.877966372340415,-0.31696969743027825 10.580339470212747,-4.754545461454174 c4.800339204078005,-4.331919198213803 5.682034159929068,-4.754545461454174 10.482373364007074,-4.754545461454174 l5.290169735106374,0 l-4.898305310283679,4.754545461454174 l-4.898305310283679,4.648888895644081 l5.290169735106374,0.10565656581009275 c4.996271416489353,0 5.682034159929068,-0.31696969743027825 11.951864957092177,-5.811111119555101 c10.776271682624095,-9.61474748871844 11.364068319858136,-8.980808093857885 -8.229152921276581,-8.980808093857885 l-17.144068585992876,0 l-5.975932478546088,5.38848485631473 z" id="svg_15" class=""/><path d="M35.14000497795271,71.45414022269873 c-4.114576460638291,3.80363636916334 -7.543390177836866,7.078989909276214 -7.543390177836866,7.3959596067064926 c0,0.2113131316201855 2.7430509737588604,0.42262626324037134 6.171864690957436,0.42262626324037134 c5.877966372340415,0 6.367796903368783,-0.2113131316201855 11.168136107446788,-4.754545461454174 c4.604406991666659,-4.4375757640238955 5.388135841312048,-4.754545461454174 10.286441151595726,-4.754545461454174 l5.1922036289007,0.10565656581009275 l-4.898305310283679,4.648888895644081 l-4.800339204078005,4.754545461454174 l5.584068053723394,0 c5.584068053723394,0 5.780000266134742,-0.10565656581009275 10.972203895035442,-5.811111119555101 c8.131186815070908,-8.875151528047791 8.033220708865233,-8.980808093857885 -9.60067840815601,-8.980808093857885 l-15.086780355673731,0 l-7.445424071631193,6.9733333434661215 z" id="svg_16" class=""/><path d="M-29.615591223997534,85.71777660706125 c-2.4491526551418397,2.3244444478220405 -4.506440885460985,4.754545461454174 -4.506440885460985,5.2828282905046375 c0,0.5282828290504641 6.661695221985804,0.9509090922908351 15.184746461879406,0.9509090922908351 l15.184746461879406,0 l4.408474779255311,-4.331919198213803 c2.4491526551418397,-2.4301010136321333 4.408474779255311,-4.754545461454174 4.408474779255311,-5.2828282905046375 c0,-0.5282828290504641 -6.759661328191477,-0.9509090922908351 -15.086780355673731,-0.9509090922908351 l-14.988814249468058,0 l-4.604406991666659,4.331919198213803 z" id="svg_17" class=""/><path d="M7.611529134158431,85.71777660706125 c-2.4491526551418397,2.3244444478220405 -4.506440885460985,4.754545461454174 -4.506440885460985,5.2828282905046375 c0,0.5282828290504641 6.955593540602825,0.9509090922908351 15.968475311524795,0.9509090922908351 l15.968475311524795,0 l4.800339204078005,-5.2828282905046375 l4.800339204078005,-5.2828282905046375 l-16.16440752393614,0 l-16.262373630141816,0 l-4.604406991666659,4.331919198213803 z" id="svg_18" class=""/><path d="M46.01424276678247,86.24605943611172 c-2.645084867553187,2.6414141452523188 -4.702373097872332,4.965858593074359 -4.702373097872332,5.2828282905046375 c0,0.2113131316201855 7.053559646808498,0.42262626324037134 15.674576992907774,0.42262626324037134 l15.674576992907774,0 l0,-5.2828282905046375 l0,-5.2828282905046375 l-10.972203895035442,0 l-11.070170001241115,0 l-4.604406991666659,4.8602020272642665 z" id="svg_19" class=""/><path d="M-24.03152317027414,95.96646349064025 l3.7227120358155963,1.7961616187715768 l-3.9186442482269435,4.22626263240371 c-2.2532204427304925,2.2187878820119478 -4.016610354432617,4.543232329833988 -4.016610354432617,4.965858593074359 c0,0.42262626324037134 6.955593540602825,0.845252526480742 15.380678674290753,0.845252526480742 l15.380678674290753,0 l4.212542566843965,-4.4375757640238955 c2.351186548936166,-2.4301010136321333 4.212542566843965,-4.8602020272642665 4.212542566843965,-5.2828282905046375 c0,-0.42262626324037134 -1.5674576992907774,-1.5848484871513913 -3.52677982340425,-2.4301010136321333 c-2.7430509737588604,-1.1622222239110203 -7.445424071631193,-1.5848484871513913 -19.39728902872337,-1.5848484871513913 c-15.772543099113447,0.10565656581009275 -15.772543099113447,0.10565656581009275 -12.049831063297852,1.9018181845816695 z" id="svg_20" class=""/><path d="M13.195597187881825,95.96646349064025 l3.7227120358155963,1.7961616187715768 l-4.016610354432617,4.22626263240371 c-2.155254336524819,2.2187878820119478 -3.9186442482269435,4.543232329833988 -3.9186442482269435,4.965858593074359 c0,0.42262626324037134 7.151525753014171,0.845252526480742 15.968475311524795,0.845252526480742 l15.968475311524795,0 l4.604406991666659,-5.071515158884452 l4.702373097872332,-5.177171724694545 l-4.212542566843965,-1.690505052961484 c-3.4288137171985755,-1.4791919213412985 -7.64135628404254,-1.7961616187715768 -20.376950090780106,-1.690505052961484 c-15.968475311524795,0 -16.16440752393614,0.10565656581009275 -12.441695488120546,1.7961616187715768 z" id="svg_21" class=""/><path d="M51.40237860809452,95.96646349064025 l3.7227120358155963,1.7961616187715768 l-3.9186442482269435,4.22626263240371 c-2.2532204427304925,2.2187878820119478 -4.016610354432617,4.543232329833988 -4.016610354432617,4.965858593074359 c0,0.42262626324037134 5.780000266134742,0.845252526480742 12.735593806737565,0.845252526480742 l12.735593806737565,0 l0,-6.867676777656029 l0,-6.867676777656029 l-12.441695488120546,0 l-12.539661594326219,0.10565656581009275 l3.7227120358155963,1.7961616187715768 z" id="svg_22" class=""/></g></g></svg>