<?xml version="1.0" encoding="utf-8"?>
<!-- Generator: Adobe Illustrator 22.1.0, SVG Export Plug-In . SVG Version: 6.00 Build 0)  -->
<svg version="1.1" id="Layer_1" xmlns="http://www.w3.org/2000/svg" xmlns:xlink="http://www.w3.org/1999/xlink" x="0px" y="0px"
	 viewBox="0 0 32 32" style="enable-background:new 0 0 32 32;" xml:space="preserve">
<style type="text/css">
	.st0{fill:#83D3AE;}
	.st1{fill:#83D3AE;stroke:#19284F;stroke-miterlimit:10;}
	.st2{fill:#FFDC4F;}
	.st3{fill:#973A91;}
	.st4{fill:#19284F;}
	.st5{fill:none;stroke:#19284F;stroke-miterlimit:10;}
	.st6{fill:#FFFFFF;stroke:#19284F;stroke-miterlimit:10;}
	.st7{fill:#00FF7F;}
	.st8{fill:#19284F;stroke:#19284F;stroke-width:0.5;stroke-miterlimit:10;}
	.st9{fill:none;stroke:#19284F;stroke-width:2;stroke-miterlimit:10;}
	.st10{clip-path:url(#SVGID_2_);fill:#19284F;}
	.st11{fill:#973A91;stroke:#19284F;stroke-miterlimit:10;}
	.st12{fill:none;stroke:#19284F;stroke-linecap:round;stroke-miterlimit:10;}
	.st13{fill:#83D3AE;stroke:#19284F;stroke-linecap:round;stroke-miterlimit:10;}
	.st14{fill:#973A91;stroke:#19284F;stroke-linecap:round;stroke-miterlimit:10;}
	.st15{fill:#FFFFFF;stroke:#19284F;stroke-linecap:round;stroke-miterlimit:10;}
	.st16{fill:none;stroke:#E7443C;stroke-width:4;stroke-miterlimit:10;}
	.st17{fill:none;stroke:#F8BB2D;stroke-width:4;stroke-miterlimit:10;}
	.st18{fill:none;stroke:#3AA757;stroke-width:4;stroke-miterlimit:10;}
	.st19{fill:none;stroke:#19284F;stroke-width:4;stroke-miterlimit:10;}
	.st20{fill:none;stroke:#19284F;stroke-linecap:round;stroke-linejoin:round;stroke-miterlimit:10;}
	.st21{fill:#973A91;stroke:#19284F;stroke-linecap:round;stroke-linejoin:round;stroke-miterlimit:10;}
	.st22{fill:#FFFFFF;}
	.st23{fill:#19284F;stroke:#19284F;stroke-miterlimit:10;}
	.st24{fill:none;stroke:#19284F;stroke-linejoin:round;stroke-miterlimit:10;}
</style>
<g>
	<path class="st22" d="M6.7,1.1c-0.5-0.6-1.3-0.7-2-0.4C2.9,1.5,3.1,5,3.8,6.4c1,1.9,3,3.1,5.2,2.4C13.3,7.3,10.3-0.5,6.7,1.1z"/>
	<path class="st3" d="M14.2,15.7c0.1-0.9-0.2-2-0.5-2.7c-1.4-2.9-5.8-3-8.6-2.7c-3.5,0.3-4.9,2.5-4.6,6c0.1,0.6,0.4,1,1,1.1
		c0.2,0.3,0.5,0.6,1,0.5c0.1,0,0.2,0,0.3,0c0,0,0,0,0,0c1.3-0.2,2.8-0.1,4.1-0.1c0.3,0,0.6-0.1,0.8-0.3c1,0,2,0.1,3,0.1
		c1,0,2.5,0.4,3.2-0.6c0-0.1,0.1-0.1,0.1-0.2C14.1,16.5,14.2,16.2,14.2,15.7C14.2,15.8,14.2,15.8,14.2,15.7z"/>
	<g>
		<path class="st8" d="M7.3,9.4c-2.5,0-4.6-2.1-4.6-4.6c0-2.5,2.1-4.6,4.6-4.6c2.5,0,4.6,2.1,4.6,4.6C11.9,7.4,9.9,9.4,7.3,9.4z
			 M7.3,1C5.2,1,3.4,2.7,3.4,4.9c0,2.1,1.7,3.9,3.9,3.9c2.1,0,3.9-1.7,3.9-3.9C11.2,2.7,9.5,1,7.3,1z"/>
	</g>
	<path class="st8" d="M14.5,15.2c0-2.8-2.3-5.1-5.1-5.1H5.2c-2.8,0-5.1,2.3-5.1,5.1l0,1.7c0,0.6,0.5,1,1.1,1h12.3c0.6,0,1-0.4,1.1-1
		L14.5,15.2z M13.5,17.3h-1.9V16c0-0.2-0.2-0.4-0.4-0.4c-0.2,0-0.4,0.2-0.4,0.4v1.3H3.8V16c0-0.2-0.2-0.4-0.4-0.4
		c-0.2,0-0.4,0.2-0.4,0.4v1.3H1.2c-0.2,0-0.3-0.1-0.4-0.3v-1.7c0-2.4,2-4.4,4.4-4.4h4.3c2.4,0,4.4,2,4.4,4.4v1.7
		C13.8,17.1,13.7,17.3,13.5,17.3z"/>
</g>
<g>
	<path class="st22" d="M14.8,8.4c-0.5-0.6-1.3-0.7-2-0.4c-1.8,0.8-1.7,4.3-0.9,5.7c1,1.9,3,3.1,5.2,2.4C21.4,14.6,18.4,6.8,14.8,8.4
		z"/>
	<path class="st0" d="M22.1,23c0.1-0.9-0.2-2-0.5-2.7c-1.4-2.9-5.8-3-8.6-2.7c-3.5,0.3-4.9,2.5-4.6,6c0.1,0.6,0.4,1,1,1.1
		c0.2,0.3,0.5,0.6,1,0.5c0.1,0,0.2,0,0.3,0c0,0,0,0,0,0c1.3-0.2,2.8-0.1,4.1-0.1c0.3,0,0.6-0.1,0.8-0.3c1,0,2,0.1,3,0.1
		c1,0,2.5,0.4,3.2-0.6c0-0.1,0.1-0.1,0.1-0.2C22.1,23.7,22.2,23.4,22.1,23C22.1,23,22.1,23,22.1,23z"/>
	<g>
		<path class="st8" d="M15.3,16.7c-2.5,0-4.6-2.1-4.6-4.6c0-2.5,2.1-4.6,4.6-4.6c2.5,0,4.6,2.1,4.6,4.6
			C19.8,14.6,17.8,16.7,15.3,16.7z M15.3,8.2c-2.1,0-3.9,1.7-3.9,3.9c0,2.1,1.7,3.9,3.9,3.9c2.1,0,3.9-1.7,3.9-3.9
			C19.1,10,17.4,8.2,15.3,8.2z"/>
	</g>
	<path class="st8" d="M22.5,22.5c0-2.8-2.3-5.1-5.1-5.1h-4.3c-2.8,0-5.1,2.3-5.1,5.1l0,1.7c0,0.6,0.5,1,1.1,1h12.3
		c0.6,0,1-0.4,1.1-1L22.5,22.5z M21.4,24.5h-1.9v-1.3c0-0.2-0.2-0.4-0.4-0.4c-0.2,0-0.4,0.2-0.4,0.4v1.3h-7.1v-1.3
		c0-0.2-0.2-0.4-0.4-0.4c-0.2,0-0.4,0.2-0.4,0.4v1.3H9.1c-0.2,0-0.3-0.1-0.4-0.3v-1.7c0-2.4,2-4.4,4.4-4.4h4.3c2.4,0,4.4,2,4.4,4.4
		v1.7C21.8,24.4,21.6,24.5,21.4,24.5z"/>
</g>
<g>
	<path class="st22" d="M24,15c-0.5-0.6-1.3-0.7-2-0.4c-1.8,0.8-1.7,4.3-0.9,5.7c1,1.9,3,3.1,5.2,2.4C30.6,21.2,27.6,13.5,24,15z"/>
	<path class="st3" d="M31.4,29.6c0.1-0.9-0.2-2-0.5-2.7c-1.4-2.9-5.8-3-8.6-2.7c-3.5,0.3-4.9,2.5-4.6,6c0.1,0.6,0.4,1,1,1.1
		c0.2,0.3,0.5,0.6,1,0.5c0.1,0,0.2,0,0.3,0c0,0,0,0,0,0c1.3-0.2,2.8-0.1,4.1-0.1c0.3,0,0.6-0.1,0.8-0.3c1,0,2,0.1,3,0.1
		c1,0,2.5,0.4,3.2-0.6c0-0.1,0.1-0.1,0.1-0.2C31.3,30.3,31.4,30,31.4,29.6C31.4,29.6,31.4,29.6,31.4,29.6z"/>
	<g>
		<path class="st8" d="M24.5,23.3c-2.5,0-4.6-2.1-4.6-4.6c0-2.5,2.1-4.6,4.6-4.6c2.5,0,4.6,2.1,4.6,4.6C29.1,21.2,27,23.3,24.5,23.3
			z M24.5,14.8c-2.1,0-3.9,1.7-3.9,3.9c0,2.1,1.7,3.9,3.9,3.9c2.1,0,3.9-1.7,3.9-3.9C28.4,16.5,26.6,14.8,24.5,14.8z"/>
	</g>
	<path class="st8" d="M31.7,29.1c0-2.8-2.3-5.1-5.1-5.1h-4.3c-2.8,0-5.1,2.3-5.1,5.1l0,1.7c0,0.6,0.5,1,1.1,1h12.3
		c0.6,0,1-0.4,1.1-1L31.7,29.1z M30.7,31.1h-1.9v-1.3c0-0.2-0.2-0.4-0.4-0.4c-0.2,0-0.4,0.2-0.4,0.4v1.3h-7.1v-1.3
		c0-0.2-0.2-0.4-0.4-0.4c-0.2,0-0.4,0.2-0.4,0.4v1.3h-1.9c-0.2,0-0.3-0.1-0.4-0.3v-1.7c0-2.4,2-4.4,4.4-4.4h4.3c2.4,0,4.4,2,4.4,4.4
		v1.7C31,30.9,30.9,31.1,30.7,31.1z"/>
</g>
</svg>
