<?xml version="1.0" encoding="utf-8"?>
<!-- Generator: Adobe Illustrator 22.1.0, SVG Export Plug-In . SVG Version: 6.00 Build 0)  -->
<svg version="1.1" id="Layer_1" xmlns="http://www.w3.org/2000/svg" xmlns:xlink="http://www.w3.org/1999/xlink" x="0px" y="0px"
	 viewBox="0 0 32 32" style="enable-background:new 0 0 32 32;" xml:space="preserve">
<style type="text/css">
	.st0{fill:#83D3AE;}
	.st1{fill:#83D3AE;stroke:#19284F;stroke-miterlimit:10;}
	.st2{fill:#FFDC4F;}
	.st3{fill:#973A91;}
	.st4{fill:#19284F;}
	.st5{fill:none;stroke:#19284F;stroke-miterlimit:10;}
	.st6{fill:#FFFFFF;stroke:#19284F;stroke-miterlimit:10;}
	.st7{fill:#00FF7F;}
	.st8{fill:#19284F;stroke:#19284F;stroke-width:0.5;stroke-miterlimit:10;}
	.st9{fill:none;stroke:#19284F;stroke-width:2;stroke-miterlimit:10;}
	.st10{clip-path:url(#SVGID_2_);fill:#19284F;}
	.st11{fill:#973A91;stroke:#19284F;stroke-miterlimit:10;}
	.st12{fill:none;stroke:#19284F;stroke-linecap:round;stroke-miterlimit:10;}
	.st13{fill:#83D3AE;stroke:#19284F;stroke-linecap:round;stroke-miterlimit:10;}
	.st14{fill:#973A91;stroke:#19284F;stroke-linecap:round;stroke-miterlimit:10;}
	.st15{fill:#FFFFFF;stroke:#19284F;stroke-linecap:round;stroke-miterlimit:10;}
	.st16{fill:none;stroke:#E7443C;stroke-width:4;stroke-miterlimit:10;}
	.st17{fill:none;stroke:#F8BB2D;stroke-width:4;stroke-miterlimit:10;}
	.st18{fill:none;stroke:#3AA757;stroke-width:4;stroke-miterlimit:10;}
	.st19{fill:none;stroke:#19284F;stroke-width:4;stroke-miterlimit:10;}
	.st20{fill:none;stroke:#19284F;stroke-linecap:round;stroke-linejoin:round;stroke-miterlimit:10;}
	.st21{fill:#973A91;stroke:#19284F;stroke-linecap:round;stroke-linejoin:round;stroke-miterlimit:10;}
	.st22{fill:#FFFFFF;}
	.st23{fill:#19284F;stroke:#19284F;stroke-miterlimit:10;}
	.st24{fill:none;stroke:#19284F;stroke-linejoin:round;stroke-miterlimit:10;}
</style>
<path class="st0" d="M2.5,0.5c-1.1,0-2,0.9-2,2v2.6c0,1.1,0.9,2,2,2h17.2V0.5H2.5z"/>
<path class="st5" d="M29.5,7.1H2.5c-1.1,0-2-0.9-2-2V2.5c0-1.1,0.9-2,2-2h26.9c1.1,0,2,0.9,2,2v2.6C31.5,6.2,30.6,7.1,29.5,7.1z"/>
<g>
	<path class="st0" d="M6.2,21.4C6.2,21.4,6.2,21.4,6.2,21.4c-0.2,0-0.4-0.1-0.6-0.3L2.3,17c-0.3-0.3-0.2-0.8,0.1-1
		c0.3-0.3,0.8-0.2,1,0.1l2.9,2.5l8.1-6.8c0.3-0.3,0.4-0.5,0.6-0.2c0,0.1-0.1,0.2-0.1,0.2l-8.4,9.3C6.6,21.3,6.4,21.4,6.2,21.4z"/>
</g>
<g>
	<path class="st0" d="M6.2,31.9C6.2,31.9,6.2,31.9,6.2,31.9c-0.2,0-0.4-0.1-0.6-0.3l-3.3-4.1c-0.3-0.3-0.2-0.8,0.1-1
		c0.3-0.3,0.8-0.2,1,0.1l2.9,2.5l8.1-6.8c0.3-0.3,0.4-0.5,0.6-0.2c0,0.1-0.1,0.2-0.1,0.2l-8.4,9.3C6.6,31.8,6.4,31.9,6.2,31.9z"/>
</g>
<g>
	<path class="st4" d="M20,13.9v3.1c0,0.2-0.1,0.3-0.3,0.3h-0.3c-0.2,0-0.3-0.1-0.3-0.3v-0.2c-0.6,0.4-1,0.6-1.7,0.6
		c-0.9,0-1.4-0.6-1.4-1.4c0-1.3,1.1-1.7,3.1-2.1v-0.4c0-0.5-0.3-0.8-1-0.8c-0.5,0-0.9,0.2-1.1,0.6c-0.1,0.2-0.3,0.2-0.4,0.1
		l-0.1-0.1c-0.2-0.1-0.2-0.3-0.1-0.4c0.4-0.5,1.1-0.8,1.8-0.8C19.5,12.1,20,12.6,20,13.9z M19.1,14.7c-1.6,0.3-2.2,0.7-2.2,1.4
		c0,0.5,0.3,0.7,0.8,0.7c0.5,0,1.1-0.3,1.4-0.7V14.7z"/>
	<path class="st4" d="M22.7,10.2c0.2,0,0.3,0.1,0.3,0.3v2.3c0.4-0.4,0.9-0.7,1.4-0.7c1.3,0,2.1,1.2,2.1,2.6c0,1.7-0.7,2.8-2.1,2.8
		c-0.6,0-1.1-0.2-1.5-0.7l-0.1,0.3c0,0.2-0.1,0.3-0.3,0.3h-0.1c-0.2,0-0.3-0.1-0.3-0.3v-6.6c0-0.2,0.1-0.3,0.3-0.3H22.7z M23,13.5
		V16c0.3,0.4,0.6,0.7,1.3,0.7c0.9,0,1.3-0.8,1.3-1.9c0-1.2-0.5-2-1.4-2C23.7,12.8,23.2,13.2,23,13.5z"/>
	<path class="st4" d="M31.9,13.2c0.1,0.2,0,0.3-0.2,0.4l-0.2,0.1c-0.2,0.1-0.3,0-0.4-0.2c-0.2-0.4-0.5-0.7-1-0.7
		c-0.8,0-1.3,0.6-1.3,1.9c0,1.2,0.5,2,1.3,2c0.5,0,0.9-0.3,1.2-0.7c0.1-0.2,0.2-0.2,0.4-0.1l0.2,0.1c0.2,0.1,0.2,0.2,0.1,0.4
		c-0.4,0.7-1,1.1-1.9,1c-1.4,0-2.2-1.1-2.2-2.7c0-1.7,0.9-2.7,2.2-2.7C30.9,12.1,31.6,12.5,31.9,13.2z"/>
</g>
<g>
	<path class="st4" d="M20.1,22.5c0.2,0,0.3,0.1,0.3,0.3v6.6c0,0.2-0.1,0.3-0.3,0.3H20c-0.2,0-0.3-0.1-0.3-0.3l0-0.3
		c-0.4,0.5-0.9,0.7-1.5,0.7c-1.4,0-2.1-1.1-2.1-2.8c0-1.4,0.8-2.6,2.1-2.6c0.6,0,1.1,0.3,1.5,0.7v-2.3c0-0.2,0.1-0.3,0.3-0.3H20.1z
		 M16.9,27.2c0,1.1,0.5,1.9,1.3,1.9c0.6,0,0.9-0.3,1.2-0.7v-2.5c-0.2-0.3-0.7-0.7-1.2-0.7C17.4,25.2,16.9,25.9,16.9,27.2z"/>
	<path class="st4" d="M26.8,26.9c0,0.2-0.1,0.3-0.3,0.3h-3.1c0,1.1,0.5,1.8,1.4,1.8c0.5,0,0.8-0.2,1.2-0.6c0.1-0.1,0.3-0.2,0.4-0.1
		l0.2,0.1c0.2,0.1,0.2,0.3,0.1,0.4c-0.5,0.6-1,0.9-1.9,0.9c-1.4,0-2.2-0.9-2.2-2.7c0-1.6,0.8-2.7,2.2-2.7
		C26.2,24.4,26.7,25.6,26.8,26.9z M23.4,26.6h2.5c-0.1-0.9-0.5-1.5-1.2-1.5C23.8,25.1,23.4,25.9,23.4,26.6z"/>
	<path class="st4" d="M30.9,22.4c0.2,0,0.3,0.1,0.3,0.3v0.1c0,0.2-0.1,0.3-0.2,0.3c-0.1,0-0.2,0-0.2,0c-0.5,0-0.7,0.2-0.7,0.7v0.7
		h0.7c0.2,0,0.3,0.1,0.3,0.3V25c0,0.2-0.1,0.3-0.3,0.3h-0.7v4.1c0,0.2-0.1,0.3-0.3,0.3h-0.3c-0.2,0-0.3-0.1-0.3-0.3v-4.1h-0.5
		c-0.2,0-0.3-0.1-0.3-0.3v-0.1c0-0.2,0.1-0.3,0.3-0.3h0.5v-0.7c0-1,0.4-1.4,1.4-1.4C30.6,22.4,30.8,22.4,30.9,22.4z"/>
</g>
</svg>
