<?xml version="1.0" encoding="utf-8"?>
<!-- Generator: Adobe Illustrator 22.1.0, SVG Export Plug-In . SVG Version: 6.00 Build 0)  -->
<svg version="1.1" id="Layer_1" xmlns="http://www.w3.org/2000/svg" xmlns:xlink="http://www.w3.org/1999/xlink" x="0px" y="0px"
	 viewBox="0 0 32 32" style="enable-background:new 0 0 32 32;" xml:space="preserve">
<style type="text/css">
	.st0{fill:#83D3AE;}
	.st1{fill:#83D3AE;stroke:#19284F;stroke-miterlimit:10;}
	.st2{fill:#FFDC4F;}
	.st3{fill:#973A91;}
	.st4{fill:#19284F;}
	.st5{fill:none;stroke:#19284F;stroke-miterlimit:10;}
	.st6{fill:#FFFFFF;stroke:#19284F;stroke-miterlimit:10;}
	.st7{fill:#00FF7F;}
	.st8{fill:#19284F;stroke:#19284F;stroke-width:0.5;stroke-miterlimit:10;}
	.st9{fill:none;stroke:#19284F;stroke-width:2;stroke-miterlimit:10;}
	.st10{clip-path:url(#SVGID_2_);fill:#19284F;}
	.st11{fill:#973A91;stroke:#19284F;stroke-miterlimit:10;}
	.st12{fill:none;stroke:#19284F;stroke-linecap:round;stroke-miterlimit:10;}
	.st13{fill:#83D3AE;stroke:#19284F;stroke-linecap:round;stroke-miterlimit:10;}
	.st14{fill:#973A91;stroke:#19284F;stroke-linecap:round;stroke-miterlimit:10;}
	.st15{fill:#FFFFFF;stroke:#19284F;stroke-linecap:round;stroke-miterlimit:10;}
	.st16{fill:none;stroke:#E7443C;stroke-width:4;stroke-miterlimit:10;}
	.st17{fill:none;stroke:#F8BB2D;stroke-width:4;stroke-miterlimit:10;}
	.st18{fill:none;stroke:#3AA757;stroke-width:4;stroke-miterlimit:10;}
	.st19{fill:none;stroke:#19284F;stroke-width:4;stroke-miterlimit:10;}
	.st20{fill:none;stroke:#19284F;stroke-linecap:round;stroke-linejoin:round;stroke-miterlimit:10;}
	.st21{fill:#973A91;stroke:#19284F;stroke-linecap:round;stroke-linejoin:round;stroke-miterlimit:10;}
	.st22{fill:#FFFFFF;}
	.st23{fill:#19284F;stroke:#19284F;stroke-miterlimit:10;}
	.st24{fill:none;stroke:#19284F;stroke-linejoin:round;stroke-miterlimit:10;}
</style>
<rect x="1" y="1.1" class="st1" width="7.4" height="7.4"/>
<rect x="16.1" y="1.1" class="st1" width="7.4" height="7.4"/>
<rect x="8.7" y="8.5" class="st1" width="7.4" height="7.4"/>
<rect x="23.8" y="8.6" class="st1" width="7.4" height="7.4"/>
<rect x="16.1" y="16.1" class="st1" width="7.4" height="7.4"/>
<rect x="1.3" y="15.9" class="st1" width="7.4" height="7.4"/>
<rect x="9" y="23.5" class="st1" width="7.4" height="7.4"/>
<rect x="23.8" y="23.5" class="st1" width="7.4" height="7.4"/>
<rect x="1" y="1" class="st9" width="30" height="30"/>
<line class="st9" x1="1" y1="8.5" x2="31" y2="8.5"/>
<line class="st9" x1="1" y1="1" x2="31" y2="1"/>
<line class="st9" x1="1" y1="31" x2="31" y2="31"/>
<line class="st9" x1="1" y1="16" x2="31" y2="16"/>
<line class="st9" x1="1" y1="23.5" x2="31" y2="23.5"/>
<line class="st9" x1="23.5" y1="1" x2="23.5" y2="31"/>
<line class="st9" x1="31" y1="1" x2="31" y2="31"/>
<line class="st9" x1="1" y1="1" x2="1" y2="31"/>
<line class="st9" x1="16" y1="1" x2="16" y2="31"/>
<line class="st9" x1="8.5" y1="1" x2="8.5" y2="31"/>
<circle class="st3" cx="12.3" cy="12.3" r="2.3"/>
<circle class="st3" cx="19.7" cy="19.6" r="2.3"/>
<circle class="st0" cx="19.7" cy="27.2" r="2.3"/>
<circle class="st0" cx="4.7" cy="12.2" r="2.3"/>
<circle class="st3" cx="19.7" cy="4.8" r="2.3"/>
</svg>
