<?xml version="1.0" encoding="utf-8"?>
<!-- Generator: Adobe Illustrator 22.1.0, SVG Export Plug-In . SVG Version: 6.00 Build 0)  -->
<svg version="1.1" id="Layer_1" xmlns="http://www.w3.org/2000/svg" xmlns:xlink="http://www.w3.org/1999/xlink" x="0px" y="0px"
	 viewBox="0 0 32 32" style="enable-background:new 0 0 32 32;" xml:space="preserve">
<style type="text/css">
	.st0{fill:#83D3AE;}
	.st1{fill:#83D3AE;stroke:#19284F;stroke-miterlimit:10;}
	.st2{fill:#FFDC4F;}
	.st3{fill:#973A91;}
	.st4{fill:#19284F;}
	.st5{fill:none;stroke:#19284F;stroke-miterlimit:10;}
	.st6{fill:#FFFFFF;stroke:#19284F;stroke-miterlimit:10;}
	.st7{fill:#00FF7F;}
	.st8{fill:#19284F;stroke:#19284F;stroke-width:0.5;stroke-miterlimit:10;}
	.st9{fill:none;stroke:#19284F;stroke-width:2;stroke-miterlimit:10;}
	.st10{clip-path:url(#SVGID_2_);fill:#19284F;}
	.st11{fill:#973A91;stroke:#19284F;stroke-miterlimit:10;}
	.st12{fill:none;stroke:#19284F;stroke-linecap:round;stroke-miterlimit:10;}
	.st13{fill:#83D3AE;stroke:#19284F;stroke-linecap:round;stroke-miterlimit:10;}
	.st14{fill:#973A91;stroke:#19284F;stroke-linecap:round;stroke-miterlimit:10;}
	.st15{fill:#FFFFFF;stroke:#19284F;stroke-linecap:round;stroke-miterlimit:10;}
	.st16{fill:none;stroke:#E7443C;stroke-width:4;stroke-miterlimit:10;}
	.st17{fill:none;stroke:#F8BB2D;stroke-width:4;stroke-miterlimit:10;}
	.st18{fill:none;stroke:#3AA757;stroke-width:4;stroke-miterlimit:10;}
	.st19{fill:none;stroke:#19284F;stroke-width:4;stroke-miterlimit:10;}
	.st20{fill:none;stroke:#19284F;stroke-linecap:round;stroke-linejoin:round;stroke-miterlimit:10;}
	.st21{fill:#973A91;stroke:#19284F;stroke-linecap:round;stroke-linejoin:round;stroke-miterlimit:10;}
	.st22{fill:#FFFFFF;}
	.st23{fill:#19284F;stroke:#19284F;stroke-miterlimit:10;}
	.st24{fill:none;stroke:#19284F;stroke-linejoin:round;stroke-miterlimit:10;}
</style>
<g>
	<path class="st6" d="M31.5,9.3v20.2c0,1.1-0.9,2.1-2.1,2.1H2.5c-1.1,0-2.1-0.9-2.1-2.1V2.6c0-1.1,0.9-2.1,2.1-2.1H23"/>
	<g>
		<path class="st16" d="M9.7,14.1c1.4-2,3.7-3.3,6.3-3.3c1.8,0,3.5,0.6,4.8,1.7"/>
		<path class="st17" d="M9.7,22.6c-0.8-1.2-1.3-2.7-1.3-4.2c0-1.6,0.5-3,1.3-4.2"/>
		<path class="st18" d="M22.5,22.1c-1.3,2.3-3.8,3.8-6.6,3.8c-2.6,0-4.9-1.3-6.3-3.3"/>
		<path class="st19" d="M16,18.3h7.6c0,1.4-0.4,2.7-1,3.8"/>
	</g>
	<path class="st6" d="M21.9,1.5c0.2-1,1.4-1.3,2.2-0.7l7,7.8c0.7,0.7,0.4,1.9-0.5,2.2l-8.7,1.7c-1,0.3-1.9-0.6-1.6-1.5L21.9,1.5z"/>
</g>
</svg>
