<?xml version="1.0" encoding="utf-8"?>
<!-- Generator: Adobe Illustrator 22.1.0, SVG Export Plug-In . SVG Version: 6.00 Build 0)  -->
<svg version="1.1" id="Layer_1" xmlns="http://www.w3.org/2000/svg" xmlns:xlink="http://www.w3.org/1999/xlink" x="0px" y="0px"
	 viewBox="0 0 32 32" style="enable-background:new 0 0 32 32;" xml:space="preserve">
<style type="text/css">
	.st0{fill:#83D3AE;}
	.st1{fill:#83D3AE;stroke:#19284F;stroke-miterlimit:10;}
	.st2{fill:#FFDC4F;}
	.st3{fill:#973A91;}
	.st4{fill:#19284F;}
	.st5{fill:none;stroke:#19284F;stroke-miterlimit:10;}
	.st6{fill:#FFFFFF;stroke:#19284F;stroke-miterlimit:10;}
	.st7{fill:#00FF7F;}
	.st8{fill:#19284F;stroke:#19284F;stroke-width:0.5;stroke-miterlimit:10;}
	.st9{fill:none;stroke:#19284F;stroke-width:2;stroke-miterlimit:10;}
	.st10{clip-path:url(#SVGID_2_);fill:#19284F;}
	.st11{fill:#973A91;stroke:#19284F;stroke-miterlimit:10;}
	.st12{fill:none;stroke:#19284F;stroke-linecap:round;stroke-miterlimit:10;}
	.st13{fill:#83D3AE;stroke:#19284F;stroke-linecap:round;stroke-miterlimit:10;}
	.st14{fill:#973A91;stroke:#19284F;stroke-linecap:round;stroke-miterlimit:10;}
	.st15{fill:#FFFFFF;stroke:#19284F;stroke-linecap:round;stroke-miterlimit:10;}
	.st16{fill:none;stroke:#E7443C;stroke-width:4;stroke-miterlimit:10;}
	.st17{fill:none;stroke:#F8BB2D;stroke-width:4;stroke-miterlimit:10;}
	.st18{fill:none;stroke:#3AA757;stroke-width:4;stroke-miterlimit:10;}
	.st19{fill:none;stroke:#19284F;stroke-width:4;stroke-miterlimit:10;}
	.st20{fill:none;stroke:#19284F;stroke-linecap:round;stroke-linejoin:round;stroke-miterlimit:10;}
	.st21{fill:#973A91;stroke:#19284F;stroke-linecap:round;stroke-linejoin:round;stroke-miterlimit:10;}
	.st22{fill:#FFFFFF;}
	.st23{fill:#19284F;stroke:#19284F;stroke-miterlimit:10;}
	.st24{fill:none;stroke:#19284F;stroke-linejoin:round;stroke-miterlimit:10;}
</style>
<g>
	<path class="st3" d="M18.4,28.9c0.1-1.2-0.3-2.6-0.7-3.5c-1.8-3.7-7.5-3.8-11.1-3.5c-4.5,0.4-6.4,3.3-6,7.7
		c0.1,0.8,0.6,1.3,1.2,1.4c0.2,0.4,0.7,0.8,1.2,0.7c0.1,0,0.3,0,0.4-0.1c0,0,0,0,0,0c1.7-0.3,3.6-0.2,5.3-0.1c0.4,0,0.8-0.2,1-0.4
		c1.3,0.1,2.6,0.1,3.9,0.1c1.3,0.1,3.3,0.5,4.2-0.8c0-0.1,0.1-0.2,0.1-0.2C18.3,29.9,18.5,29.5,18.4,28.9
		C18.5,29,18.4,28.9,18.4,28.9z"/>
	<g>
		<path class="st8" d="M9.6,20.8c-3.3,0-5.9-2.6-5.9-5.9C3.7,11.6,6.3,9,9.6,9c3.3,0,5.9,2.6,5.9,5.9C15.5,18.2,12.8,20.8,9.6,20.8z
			 M9.6,9.9c-2.8,0-5,2.2-5,5c0,2.8,2.2,5,5,5c2.8,0,5-2.2,5-5C14.6,12.2,12.3,9.9,9.6,9.9z"/>
	</g>
	<path class="st8" d="M18.9,28.3c0-3.6-2.9-6.5-6.5-6.5H6.8c-3.6,0-6.5,2.9-6.5,6.5l0,2.2c0,0.7,0.6,1.3,1.4,1.3h15.9
		c0.7,0,1.3-0.6,1.4-1.3L18.9,28.3z M17.5,30.9h-2.4v-1.6c0-0.3-0.2-0.5-0.5-0.5c-0.3,0-0.5,0.2-0.5,0.5v1.6H5v-1.6
		c0-0.3-0.2-0.5-0.5-0.5c-0.3,0-0.5,0.2-0.5,0.5v1.6H1.6c-0.2,0-0.4-0.2-0.5-0.4v-2.2c0-3.1,2.5-5.6,5.6-5.6h5.5
		c3.1,0,5.6,2.5,5.6,5.6v2.2C18,30.7,17.8,30.9,17.5,30.9z"/>
</g>
<g>
	<path class="st0" d="M31.6,28.9c0.1-1.2-0.3-2.6-0.7-3.5c-1.8-3.7-7.5-3.8-11.1-3.5c-4.5,0.4-6.4,3.3-6,7.7
		c0.1,0.8,0.6,1.3,1.2,1.4c0.2,0.4,0.7,0.8,1.2,0.7c0.1,0,0.3,0,0.4-0.1c0,0,0,0,0,0c1.7-0.3,3.6-0.2,5.3-0.1c0.4,0,0.8-0.2,1-0.4
		c1.3,0.1,2.6,0.1,3.9,0.1c1.3,0.1,3.3,0.5,4.2-0.8c0-0.1,0.1-0.2,0.1-0.2C31.5,29.9,31.7,29.5,31.6,28.9
		C31.7,29,31.6,28.9,31.6,28.9z"/>
	<g>
		<path class="st8" d="M22.8,20.8c-3.3,0-5.9-2.6-5.9-5.9c0-3.3,2.6-5.9,5.9-5.9c3.3,0,5.9,2.6,5.9,5.9C28.7,18.2,26,20.8,22.8,20.8
			z M22.8,9.9c-2.8,0-5,2.2-5,5c0,2.8,2.2,5,5,5c2.8,0,5-2.2,5-5C27.8,12.2,25.5,9.9,22.8,9.9z"/>
	</g>
	<path class="st8" d="M32.1,28.3c0-3.6-2.9-6.5-6.5-6.5H20c-3.6,0-6.5,2.9-6.5,6.5l0,2.2c0,0.7,0.6,1.3,1.4,1.3h15.9
		c0.7,0,1.3-0.6,1.4-1.3L32.1,28.3z M30.7,30.9h-2.4v-1.6c0-0.3-0.2-0.5-0.5-0.5c-0.3,0-0.5,0.2-0.5,0.5v1.6h-9.2v-1.6
		c0-0.3-0.2-0.5-0.5-0.5c-0.3,0-0.5,0.2-0.5,0.5v1.6h-2.4c-0.2,0-0.4-0.2-0.5-0.4v-2.2c0-3.1,2.5-5.6,5.6-5.6h5.5
		c3.1,0,5.6,2.5,5.6,5.6v2.2C31.2,30.7,31,30.9,30.7,30.9z"/>
</g>
</svg>
