<?xml version="1.0" encoding="utf-8"?>
<!-- Generator: Adobe Illustrator 22.1.0, SVG Export Plug-In . SVG Version: 6.00 Build 0)  -->
<svg version="1.1" id="Layer_1" xmlns="http://www.w3.org/2000/svg" xmlns:xlink="http://www.w3.org/1999/xlink" x="0px" y="0px"
	 viewBox="0 0 32 32" style="enable-background:new 0 0 32 32;" xml:space="preserve">
<style type="text/css">
	.st0{fill:#83D3AE;}
	.st1{fill:#83D3AE;stroke:#19284F;stroke-miterlimit:10;}
	.st2{fill:#FFDC4F;}
	.st3{fill:#973A91;}
	.st4{fill:#19284F;}
	.st5{fill:none;stroke:#19284F;stroke-miterlimit:10;}
	.st6{fill:#FFFFFF;stroke:#19284F;stroke-miterlimit:10;}
	.st7{fill:#00FF7F;}
	.st8{fill:#19284F;stroke:#19284F;stroke-width:0.5;stroke-miterlimit:10;}
	.st9{fill:none;stroke:#19284F;stroke-width:2;stroke-miterlimit:10;}
	.st10{clip-path:url(#SVGID_2_);fill:#19284F;}
	.st11{fill:#973A91;stroke:#19284F;stroke-miterlimit:10;}
	.st12{fill:none;stroke:#19284F;stroke-linecap:round;stroke-miterlimit:10;}
	.st13{fill:#83D3AE;stroke:#19284F;stroke-linecap:round;stroke-miterlimit:10;}
	.st14{fill:#973A91;stroke:#19284F;stroke-linecap:round;stroke-miterlimit:10;}
	.st15{fill:#FFFFFF;stroke:#19284F;stroke-linecap:round;stroke-miterlimit:10;}
	.st16{fill:none;stroke:#E7443C;stroke-width:4;stroke-miterlimit:10;}
	.st17{fill:none;stroke:#F8BB2D;stroke-width:4;stroke-miterlimit:10;}
	.st18{fill:none;stroke:#3AA757;stroke-width:4;stroke-miterlimit:10;}
	.st19{fill:none;stroke:#19284F;stroke-width:4;stroke-miterlimit:10;}
	.st20{fill:none;stroke:#19284F;stroke-linecap:round;stroke-linejoin:round;stroke-miterlimit:10;}
	.st21{fill:#973A91;stroke:#19284F;stroke-linecap:round;stroke-linejoin:round;stroke-miterlimit:10;}
	.st22{fill:#FFFFFF;}
	.st23{fill:#19284F;stroke:#19284F;stroke-miterlimit:10;}
	.st24{fill:none;stroke:#19284F;stroke-linejoin:round;stroke-miterlimit:10;}
</style>
<path class="st1" d="M26,16.9c0.1-0.1,0.2-0.2,0.3-0.3c1.4-1,2.8-1.2,3.9-0.9c0.7,0.2,1.3-0.3,1.3-1v-4c0-0.6-0.5-1-1-1h-2.3
	c-0.7,0-1.2-0.8-0.9-1.5c0.9-1.7,0.9-4-0.7-6.2c-0.1-0.1-0.2-0.2-0.3-0.3c-4.4-3.2-9.2-0.1-9.2,4.1c0,0.9,0.2,1.7,0.6,2.4
	c0.3,0.7-0.1,1.5-0.9,1.5h-6c-0.6,0-1,0.5-1,1v5.8c0,0.7-0.8,1.2-1.4,0.9c-1.7-0.8-4-0.8-6.2,0.8c-0.1,0.1-0.2,0.2-0.3,0.3
	c-3.2,4.4-0.1,9.2,4.1,9.2c0.8,0,1.6-0.2,2.3-0.5c0.7-0.3,1.4,0.2,1.4,0.9v2.4c0,0.6,0.5,1,1,1h3.6c0.7,0,1.2-0.7,0.9-1.4
	c-0.5-1.3-0.5-2.9,0.7-4.5c0.1-0.1,0.2-0.2,0.3-0.3c3.4-2.4,7.1-0.1,7.1,3.2c0,0.6-0.1,1.1-0.3,1.6c-0.3,0.7,0.2,1.4,0.9,1.4h6.6
	c0.6,0,1-0.5,1-1v-5.7c0-0.7-0.6-1.1-1.3-1c-0.3,0.1-0.6,0.1-1,0.1C26,23.9,23.6,20.3,26,16.9z"/>
</svg>
