<?xml version="1.0" encoding="utf-8"?>
<!-- Generator: Adobe Illustrator 22.1.0, SVG Export Plug-In . SVG Version: 6.00 Build 0)  -->
<svg version="1.1" id="Layer_1" xmlns="http://www.w3.org/2000/svg" xmlns:xlink="http://www.w3.org/1999/xlink" x="0px" y="0px"
	 viewBox="0 0 32 32" style="enable-background:new 0 0 32 32;" xml:space="preserve">
<style type="text/css">
	.st0{fill:#83D3AE;}
	.st1{fill:#83D3AE;stroke:#19284F;stroke-miterlimit:10;}
	.st2{fill:#FFDC4F;}
	.st3{fill:#973A91;}
	.st4{fill:#19284F;}
	.st5{fill:none;stroke:#19284F;stroke-miterlimit:10;}
	.st6{fill:#FFFFFF;stroke:#19284F;stroke-miterlimit:10;}
	.st7{fill:#00FF7F;}
	.st8{fill:#19284F;stroke:#19284F;stroke-width:0.5;stroke-miterlimit:10;}
	.st9{fill:none;stroke:#19284F;stroke-width:2;stroke-miterlimit:10;}
	.st10{clip-path:url(#SVGID_2_);fill:#19284F;}
	.st11{fill:#973A91;stroke:#19284F;stroke-miterlimit:10;}
	.st12{fill:none;stroke:#19284F;stroke-linecap:round;stroke-miterlimit:10;}
	.st13{fill:#83D3AE;stroke:#19284F;stroke-linecap:round;stroke-miterlimit:10;}
	.st14{fill:#973A91;stroke:#19284F;stroke-linecap:round;stroke-miterlimit:10;}
	.st15{fill:#FFFFFF;stroke:#19284F;stroke-linecap:round;stroke-miterlimit:10;}
	.st16{fill:none;stroke:#E7443C;stroke-width:4;stroke-miterlimit:10;}
	.st17{fill:none;stroke:#F8BB2D;stroke-width:4;stroke-miterlimit:10;}
	.st18{fill:none;stroke:#3AA757;stroke-width:4;stroke-miterlimit:10;}
	.st19{fill:none;stroke:#19284F;stroke-width:4;stroke-miterlimit:10;}
	.st20{fill:none;stroke:#19284F;stroke-linecap:round;stroke-linejoin:round;stroke-miterlimit:10;}
	.st21{fill:#973A91;stroke:#19284F;stroke-linecap:round;stroke-linejoin:round;stroke-miterlimit:10;}
	.st22{fill:#FFFFFF;}
	.st23{fill:#19284F;stroke:#19284F;stroke-miterlimit:10;}
	.st24{fill:none;stroke:#19284F;stroke-linejoin:round;stroke-miterlimit:10;}
</style>
<g>
	<path class="st23" d="M15.7,11.5H0.5v-10c0-0.6,0.4-1,1-1h13.2c0.6,0,1,0.4,1,1V11.5z"/>
	<path class="st1" d="M13.7,14H2.5c-1.1,0-2-0.9-2-2V3h15.2v9C15.7,13.1,14.8,14,13.7,14z"/>
</g>
<g>
	<path class="st23" d="M15.7,29H0.5V19c0-0.6,0.4-1,1-1h13.2c0.6,0,1,0.4,1,1V29z"/>
	<path class="st1" d="M13.7,31.5H2.5c-1.1,0-2-0.9-2-2v-9h15.2v9C15.7,30.6,14.8,31.5,13.7,31.5z"/>
</g>
<g>
	<path class="st23" d="M31.6,19.6H18v-8.8c0-0.6,0.4-1,1-1h11.6c0.6,0,1,0.4,1,1V19.6z"/>
	<path class="st1" d="M29.6,21.9H20c-1.1,0-2-0.9-2-2V12h13.6v7.8C31.6,21,30.7,21.9,29.6,21.9z"/>
</g>
<polyline class="st24" points="15.8,5.7 24.8,5.7 24.8,10.1 "/>
<line class="st24" x1="8.1" y1="14" x2="8.1" y2="18.9"/>
</svg>
