<?xml version="1.0" encoding="utf-8"?>
<!-- Generator: Adobe Illustrator 22.1.0, SVG Export Plug-In . SVG Version: 6.00 Build 0)  -->
<svg version="1.1" id="Layer_1" xmlns="http://www.w3.org/2000/svg" xmlns:xlink="http://www.w3.org/1999/xlink" x="0px" y="0px"
	 viewBox="0 0 32 32" style="enable-background:new 0 0 32 32;" xml:space="preserve">
<style type="text/css">
	.st0{fill:#83D3AE;}
	.st1{fill:#83D3AE;stroke:#19284F;stroke-miterlimit:10;}
	.st2{fill:#FFDC4F;}
	.st3{fill:#973A91;}
	.st4{fill:#19284F;}
	.st5{fill:none;stroke:#19284F;stroke-miterlimit:10;}
	.st6{fill:#FFFFFF;stroke:#19284F;stroke-miterlimit:10;}
	.st7{fill:#00FF7F;}
	.st8{fill:#19284F;stroke:#19284F;stroke-width:0.5;stroke-miterlimit:10;}
	.st9{font-family:'NextExitRound-Normal';}
	.st10{font-size:25.6999px;}
	.st11{fill:none;stroke:#19284F;stroke-width:2;stroke-miterlimit:10;}
	.st12{clip-path:url(#SVGID_2_);fill:#19284F;}
	.st13{fill:#973A91;stroke:#19284F;stroke-miterlimit:10;}
	.st14{fill:none;stroke:#19284F;stroke-linecap:round;stroke-miterlimit:10;}
	.st15{fill:#83D3AE;stroke:#19284F;stroke-linecap:round;stroke-miterlimit:10;}
	.st16{fill:#973A91;stroke:#19284F;stroke-linecap:round;stroke-miterlimit:10;}
	.st17{fill:#FFFFFF;stroke:#19284F;stroke-linecap:round;stroke-miterlimit:10;}
	.st18{fill:none;stroke:#E7443C;stroke-width:4;stroke-miterlimit:10;}
	.st19{fill:none;stroke:#F8BB2D;stroke-width:4;stroke-miterlimit:10;}
	.st20{fill:none;stroke:#3AA757;stroke-width:4;stroke-miterlimit:10;}
	.st21{fill:none;stroke:#19284F;stroke-width:4;stroke-miterlimit:10;}
	.st22{fill:none;stroke:#19284F;stroke-linecap:round;stroke-linejoin:round;stroke-miterlimit:10;}
	.st23{fill:#973A91;stroke:#19284F;stroke-linecap:round;stroke-linejoin:round;stroke-miterlimit:10;}
	.st24{fill:#FFFFFF;}
	.st25{fill:#19284F;stroke:#19284F;stroke-miterlimit:10;}
	.st26{fill:none;stroke:#19284F;stroke-linejoin:round;stroke-miterlimit:10;}
</style>
<g>
	<path class="st3" d="M13.7,29.6c0.1-0.9-0.2-1.9-0.5-2.6c-1.3-2.8-5.5-2.8-8.2-2.6c-3.3,0.3-4.7,2.4-4.4,5.7c0.1,0.6,0.4,1,0.9,1
		c0.2,0.3,0.5,0.6,0.9,0.5c0.1,0,0.2,0,0.3,0c0,0,0,0,0,0c1.3-0.2,2.6-0.1,3.9-0.1c0.3,0,0.6-0.1,0.8-0.3c1,0,1.9,0.1,2.9,0.1
		c1,0,2.4,0.4,3.1-0.6c0-0.1,0.1-0.1,0.1-0.2C13.6,30.3,13.7,30.1,13.7,29.6C13.7,29.7,13.7,29.6,13.7,29.6z"/>
	<g>
		<path class="st8" d="M7.1,23.7c-2.4,0-4.4-2-4.4-4.4c0-2.4,2-4.4,4.4-4.4c2.4,0,4.4,2,4.4,4.4C11.5,21.7,9.5,23.7,7.1,23.7z
			 M7.1,15.6c-2,0-3.7,1.7-3.7,3.7c0,2,1.7,3.7,3.7,3.7c2,0,3.7-1.7,3.7-3.7C10.8,17.3,9.2,15.6,7.1,15.6z"/>
	</g>
	<path class="st8" d="M14,29.1c0-2.7-2.2-4.8-4.8-4.8H5.1c-2.7,0-4.8,2.2-4.8,4.8l0,1.6c0,0.5,0.5,1,1,1H13c0.5,0,1-0.4,1-1L14,29.1
		z M13,31.1h-1.8v-1.2c0-0.2-0.2-0.3-0.3-0.3c-0.2,0-0.3,0.2-0.3,0.3v1.2H3.7v-1.2c0-0.2-0.2-0.3-0.3-0.3c-0.2,0-0.3,0.2-0.3,0.3
		v1.2H1.3c-0.2,0-0.3-0.1-0.3-0.3v-1.6c0-2.3,1.9-4.1,4.1-4.1h4.1c2.3,0,4.1,1.9,4.1,4.1v1.6C13.3,30.9,13.2,31.1,13,31.1z"/>
</g>
<g>
	<path class="st3" d="M23.4,29.6c0.1-0.9-0.2-1.9-0.5-2.6c-1.3-2.8-5.5-2.8-8.2-2.6c-3.3,0.3-4.7,2.4-4.4,5.7c0.1,0.6,0.4,1,0.9,1
		c0.2,0.3,0.5,0.6,0.9,0.5c0.1,0,0.2,0,0.3,0c0,0,0,0,0,0c1.3-0.2,2.6-0.1,3.9-0.1c0.3,0,0.6-0.1,0.8-0.3c1,0,1.9,0.1,2.9,0.1
		c1,0,2.4,0.4,3.1-0.6c0-0.1,0.1-0.1,0.1-0.2C23.3,30.3,23.4,30.1,23.4,29.6C23.4,29.7,23.4,29.6,23.4,29.6z"/>
	<g>
		<path class="st8" d="M16.9,23.7c-2.4,0-4.4-2-4.4-4.4c0-2.4,2-4.4,4.4-4.4c2.4,0,4.4,2,4.4,4.4C21.2,21.7,19.3,23.7,16.9,23.7z
			 M16.9,15.6c-2,0-3.7,1.7-3.7,3.7c0,2,1.7,3.7,3.7,3.7c2,0,3.7-1.7,3.7-3.7C20.5,17.3,18.9,15.6,16.9,15.6z"/>
	</g>
	<path class="st8" d="M23.7,29.1c0-2.7-2.2-4.8-4.8-4.8h-4.1c-2.7,0-4.8,2.2-4.8,4.8l0,1.6c0,0.5,0.5,1,1,1h11.7c0.5,0,1-0.4,1-1
		L23.7,29.1z M22.7,31.1h-1.8v-1.2c0-0.2-0.2-0.3-0.3-0.3c-0.2,0-0.3,0.2-0.3,0.3v1.2h-6.8v-1.2c0-0.2-0.2-0.3-0.3-0.3
		c-0.2,0-0.3,0.2-0.3,0.3v1.2H11c-0.2,0-0.3-0.1-0.3-0.3v-1.6c0-2.3,1.9-4.1,4.1-4.1h4.1c2.3,0,4.1,1.9,4.1,4.1v1.6
		C23,30.9,22.9,31.1,22.7,31.1z"/>
</g>
<g>
	<path class="st1" d="M29.9,0.5H13.2c-0.9,0-1.6,0.7-1.6,1.6v11c0,0.9,0.7,1.6,1.6,1.6h4.2v5.4c0,0.3,0.5,0.5,0.6,0.2l3.5-5.6h8.4
		c0.9,0,1.6-0.7,1.6-1.6v-11C31.6,1.2,30.8,0.5,29.9,0.5z"/>
</g>
<text transform="matrix(-1 0 0 -1 28.2111 -4.8624)" class="st4 st9 st10">’’</text>
</svg>
