<?xml version="1.0" encoding="utf-8"?>
<!-- Generator: Adobe Illustrator 22.1.0, SVG Export Plug-In . SVG Version: 6.00 Build 0)  -->
<svg version="1.1" id="Layer_1" xmlns="http://www.w3.org/2000/svg" xmlns:xlink="http://www.w3.org/1999/xlink" x="0px" y="0px"
	 viewBox="0 0 32 32" style="enable-background:new 0 0 32 32;" xml:space="preserve">
<style type="text/css">
	.st0{fill:#83D3AE;}
	.st1{fill:#83D3AE;stroke:#19284F;stroke-miterlimit:10;}
	.st2{fill:#FFDC4F;}
	.st3{fill:#973A91;}
	.st4{fill:#19284F;}
	.st5{fill:none;stroke:#19284F;stroke-miterlimit:10;}
	.st6{fill:#FFFFFF;stroke:#19284F;stroke-miterlimit:10;}
	.st7{fill:#00FF7F;}
	.st8{fill:#19284F;stroke:#19284F;stroke-width:0.5;stroke-miterlimit:10;}
	.st9{fill:none;stroke:#19284F;stroke-width:2;stroke-miterlimit:10;}
	.st10{clip-path:url(#SVGID_2_);fill:#19284F;}
	.st11{fill:#973A91;stroke:#19284F;stroke-miterlimit:10;}
	.st12{fill:none;stroke:#19284F;stroke-linecap:round;stroke-miterlimit:10;}
	.st13{fill:#83D3AE;stroke:#19284F;stroke-linecap:round;stroke-miterlimit:10;}
	.st14{fill:#973A91;stroke:#19284F;stroke-linecap:round;stroke-miterlimit:10;}
	.st15{fill:#FFFFFF;stroke:#19284F;stroke-linecap:round;stroke-miterlimit:10;}
	.st16{fill:none;stroke:#E7443C;stroke-width:4;stroke-miterlimit:10;}
	.st17{fill:none;stroke:#F8BB2D;stroke-width:4;stroke-miterlimit:10;}
	.st18{fill:none;stroke:#3AA757;stroke-width:4;stroke-miterlimit:10;}
	.st19{fill:none;stroke:#19284F;stroke-width:4;stroke-miterlimit:10;}
	.st20{fill:none;stroke:#19284F;stroke-linecap:round;stroke-linejoin:round;stroke-miterlimit:10;}
	.st21{fill:#973A91;stroke:#19284F;stroke-linecap:round;stroke-linejoin:round;stroke-miterlimit:10;}
	.st22{fill:#FFFFFF;}
	.st23{fill:#19284F;stroke:#19284F;stroke-miterlimit:10;}
	.st24{fill:none;stroke:#19284F;stroke-linejoin:round;stroke-miterlimit:10;}
</style>
<g>
	<g>
		<path class="st6" d="M31.5,8.3v18.1c0,1-0.8,1.8-1.8,1.8H5.5c-1,0-1.8-0.8-1.8-1.8V2.3c0-1,0.8-1.8,1.8-1.8h18.3"/>
		<path class="st6" d="M22.9,1.4c0.2-0.9,1.3-1.2,1.9-0.6l6.3,7c0.7,0.6,0.4,1.7-0.5,2l-7.8,1.5c-0.9,0.3-1.7-0.5-1.5-1.4L22.9,1.4z
			"/>
	</g>
	<path class="st1" d="M0.5,25.1v-5.2c0,0,11.8,0.9,19.1,5.2c0,0,2.4,1.5-8.8,0.4c0,0-2.4,2.5,1,2.4s11.9-1.9,12.3-1.3
		c0.3,0.6-9.8,4.8-13.5,4.8S4,29.4,0.5,25.1z"/>
</g>
</svg>
