<?xml version="1.0" encoding="utf-8"?>
<!-- Generator: Adobe Illustrator 22.1.0, SVG Export Plug-In . SVG Version: 6.00 Build 0)  -->
<svg version="1.1" id="Layer_1" xmlns="http://www.w3.org/2000/svg" xmlns:xlink="http://www.w3.org/1999/xlink" x="0px" y="0px"
	 viewBox="0 0 32 32" style="enable-background:new 0 0 32 32;" xml:space="preserve">
<style type="text/css">
	.st0{fill:#83D3AE;}
	.st1{fill:#83D3AE;stroke:#19284F;stroke-miterlimit:10;}
	.st2{fill:#FFDC4F;}
	.st3{fill:#973A91;}
	.st4{fill:#19284F;}
	.st5{fill:none;stroke:#19284F;stroke-miterlimit:10;}
	.st6{fill:#FFFFFF;stroke:#19284F;stroke-miterlimit:10;}
	.st7{fill:#00FF7F;}
	.st8{fill:#19284F;stroke:#19284F;stroke-width:0.5;stroke-miterlimit:10;}
	.st9{fill:none;stroke:#19284F;stroke-width:2;stroke-miterlimit:10;}
	.st10{clip-path:url(#SVGID_2_);fill:#19284F;}
	.st11{fill:#973A91;stroke:#19284F;stroke-miterlimit:10;}
	.st12{fill:none;stroke:#19284F;stroke-linecap:round;stroke-miterlimit:10;}
	.st13{fill:#83D3AE;stroke:#19284F;stroke-linecap:round;stroke-miterlimit:10;}
	.st14{fill:#973A91;stroke:#19284F;stroke-linecap:round;stroke-miterlimit:10;}
	.st15{fill:#FFFFFF;stroke:#19284F;stroke-linecap:round;stroke-miterlimit:10;}
	.st16{fill:none;stroke:#E7443C;stroke-width:4;stroke-miterlimit:10;}
	.st17{fill:none;stroke:#F8BB2D;stroke-width:4;stroke-miterlimit:10;}
	.st18{fill:none;stroke:#3AA757;stroke-width:4;stroke-miterlimit:10;}
	.st19{fill:none;stroke:#19284F;stroke-width:4;stroke-miterlimit:10;}
	.st20{fill:none;stroke:#19284F;stroke-linecap:round;stroke-linejoin:round;stroke-miterlimit:10;}
	.st21{fill:#973A91;stroke:#19284F;stroke-linecap:round;stroke-linejoin:round;stroke-miterlimit:10;}
	.st22{fill:#FFFFFF;}
	.st23{fill:#19284F;stroke:#19284F;stroke-miterlimit:10;}
	.st24{fill:none;stroke:#19284F;stroke-linejoin:round;stroke-miterlimit:10;}
</style>
<g>
	<g>
		<path class="st4" d="M16,21.5h-16V16h16V21.5z M0.9,20.5h14V17h-14V20.5z"/>
	</g>
	<g>
		<path class="st0" d="M12.2,31.5H3.7c-1.1,0-2-0.9-2-2v-8.8c0-1.1,0.9-2,2-2h8.5c1.1,0,2,0.9,2,2v8.8
			C14.2,30.6,13.3,31.5,12.2,31.5z"/>
		<path class="st4" d="M13.2,32H2.7c-0.8,0-1.5-0.7-1.5-1.5V19.7c0-0.8,0.7-1.5,1.5-1.5h10.5c0.8,0,1.5,0.7,1.5,1.5v10.8
			C14.7,31.3,14,32,13.2,32z M2.7,19.2c-0.3,0-0.5,0.2-0.5,0.5v10.8c0,0.3,0.2,0.5,0.5,0.5h10.5c0.3,0,0.5-0.2,0.5-0.5V19.7
			c0-0.3-0.2-0.5-0.5-0.5H2.7z"/>
	</g>
	<g>
		<path class="st0" d="M13.5,22.5h-11c-1.1,0-2-0.9-2-2v-2c0-1.1,0.9-2,2-2h11c1.1,0,2,0.9,2,2v2C15.5,21.6,14.6,22.5,13.5,22.5z"/>
		<path class="st4" d="M14.5,23h-13c-0.8,0-1.5-0.7-1.5-1.5v-4c0-0.8,0.7-1.5,1.5-1.5h13c0.8,0,1.5,0.7,1.5,1.5v4
			C16,22.3,15.3,23,14.5,23z M1.4,17c-0.3,0-0.5,0.2-0.5,0.5v4c0,0.3,0.2,0.5,0.5,0.5h13c0.3,0,0.5-0.2,0.5-0.5v-4
			c0-0.3-0.2-0.5-0.5-0.5H1.4z"/>
	</g>
	<g>
		<path class="st3" d="M8.5,26l-0.3-1c-0.1-0.3-0.4-0.3-0.5,0L7.4,26c-0.1,0.4-0.5,0.5-0.7,0.1c-0.1-0.2-0.2-0.4-0.2-0.6v-8
			c0-1.1,0.3-1,0.8-1h1.5c0.4,0,0.8-0.2,0.8,1v8c0,0.3-0.1,0.5-0.2,0.7C9,26.5,8.7,26.3,8.5,26z"/>
		<path class="st4" d="M9,26.8c0,0-0.1,0-0.1,0c-0.3-0.1-0.6-0.3-0.8-0.7L8,25.8l-0.1,0.3c-0.1,0.4-0.4,0.6-0.8,0.7
			c-0.3,0-0.7-0.1-0.9-0.4C6,26.1,6,25.8,6,25.5v-8c0-0.6,0.1-1,0.3-1.2C6.6,16,6.9,16,7.1,16l1.6,0c0,0,0.1,0,0.1,0
			c0.2,0,0.5,0,0.8,0.2c0.2,0.2,0.4,0.6,0.4,1.3v8c0,0.4-0.1,0.7-0.3,1C9.5,26.7,9.2,26.8,9,26.8z M8,24.3c0.3,0,0.6,0.2,0.7,0.5
			l0.3,0.8c0-0.1,0-0.1,0-0.2v-8c0-0.3,0-0.4,0-0.5c0,0,0,0,0,0c-0.1,0-0.1,0-0.2,0l-1.6,0c0,0-0.1,0-0.1,0c0,0.1,0,0.2,0,0.5v8
			c0,0,0,0.1,0,0.1l0.3-0.7C7.3,24.5,7.6,24.3,8,24.3C7.9,24.3,8,24.3,8,24.3z"/>
	</g>
</g>
<g>
	<g>
		<path class="st4" d="M32,21.5H16V16h16V21.5z M17,20.5h14V17H17V20.5z"/>
	</g>
	<g>
		<path class="st0" d="M28.2,31.5h-8.5c-1.1,0-2-0.9-2-2v-8.8c0-1.1,0.9-2,2-2h8.5c1.1,0,2,0.9,2,2v8.8
			C30.2,30.6,29.3,31.5,28.2,31.5z"/>
		<path class="st4" d="M29.2,32H18.7c-0.8,0-1.5-0.7-1.5-1.5V19.7c0-0.8,0.7-1.5,1.5-1.5h10.5c0.8,0,1.5,0.7,1.5,1.5v10.8
			C30.7,31.3,30.1,32,29.2,32z M18.7,19.2c-0.3,0-0.5,0.2-0.5,0.5v10.8c0,0.3,0.2,0.5,0.5,0.5h10.5c0.3,0,0.5-0.2,0.5-0.5V19.7
			c0-0.3-0.2-0.5-0.5-0.5H18.7z"/>
	</g>
	<g>
		<path class="st0" d="M29.5,22.5h-11c-1.1,0-2-0.9-2-2v-2c0-1.1,0.9-2,2-2h11c1.1,0,2,0.9,2,2v2C31.5,21.6,30.6,22.5,29.5,22.5z"/>
		<path class="st4" d="M30.5,23h-13c-0.8,0-1.5-0.7-1.5-1.5v-4c0-0.8,0.7-1.5,1.5-1.5h13c0.8,0,1.5,0.7,1.5,1.5v4
			C32,22.3,31.3,23,30.5,23z M17.5,17c-0.3,0-0.5,0.2-0.5,0.5v4c0,0.3,0.2,0.5,0.5,0.5h13c0.3,0,0.5-0.2,0.5-0.5v-4
			c0-0.3-0.2-0.5-0.5-0.5H17.5z"/>
	</g>
	<g>
		<path class="st3" d="M24.6,26l-0.3-1c-0.1-0.3-0.4-0.3-0.5,0L23.4,26c-0.1,0.4-0.5,0.5-0.7,0.1c-0.1-0.2-0.2-0.4-0.2-0.6v-8
			c0-1.1,0.3-1,0.8-1h1.5c0.4,0,0.8-0.2,0.8,1v8c0,0.3-0.1,0.5-0.2,0.7C25.1,26.5,24.7,26.3,24.6,26z"/>
		<path class="st4" d="M25,26.8c0,0-0.1,0-0.1,0c-0.3-0.1-0.6-0.3-0.8-0.7L24,25.8l-0.1,0.3c-0.1,0.4-0.4,0.6-0.8,0.7
			c-0.3,0-0.7-0.1-0.9-0.4c-0.2-0.3-0.3-0.6-0.3-0.9v-8c0-0.6,0.1-1,0.3-1.2c0.3-0.3,0.6-0.3,0.8-0.3l1.6,0c0,0,0.1,0,0.1,0
			c0.2,0,0.5,0,0.8,0.2c0.2,0.2,0.4,0.6,0.4,1.3v8c0,0.4-0.1,0.7-0.3,1C25.5,26.7,25.3,26.8,25,26.8z M24,24.3
			c0.3,0,0.6,0.2,0.7,0.5l0.3,0.8c0-0.1,0-0.1,0-0.2v-8c0-0.3,0-0.4,0-0.5c0,0,0,0,0,0c-0.1,0-0.1,0-0.2,0l-1.6,0c0,0-0.1,0-0.1,0
			c0,0.1,0,0.2,0,0.5v8c0,0,0,0.1,0,0.1l0.3-0.7C23.4,24.5,23.7,24.3,24,24.3C24,24.3,24,24.3,24,24.3z"/>
	</g>
</g>
<g>
	<g>
		<path class="st4" d="M24,5.5H8V0h16V5.5z M9,4.5h14V1H9V4.5z"/>
	</g>
	<g>
		<path class="st0" d="M20.2,15.5h-8.5c-1.1,0-2-0.9-2-2V4.8c0-1.1,0.9-2,2-2h8.5c1.1,0,2,0.9,2,2v8.8
			C22.2,14.6,21.3,15.5,20.2,15.5z"/>
		<path class="st4" d="M21.2,16H10.7c-0.8,0-1.5-0.7-1.5-1.5V3.8c0-0.8,0.7-1.5,1.5-1.5h10.5c0.8,0,1.5,0.7,1.5,1.5v10.8
			C22.7,15.4,22.1,16,21.2,16z M10.7,3.3c-0.3,0-0.5,0.2-0.5,0.5v10.8c0,0.3,0.2,0.5,0.5,0.5h10.5c0.3,0,0.5-0.2,0.5-0.5V3.8
			c0-0.3-0.2-0.5-0.5-0.5H10.7z"/>
	</g>
	<g>
		<path class="st0" d="M21.5,6.5h-11c-1.1,0-2-0.9-2-2v-2c0-1.1,0.9-2,2-2h11c1.1,0,2,0.9,2,2v2C23.5,5.6,22.6,6.5,21.5,6.5z"/>
		<path class="st4" d="M22.5,7h-13C8.6,7,8,6.3,8,5.5v-4C8,0.7,8.6,0,9.5,0h13C23.3,0,24,0.7,24,1.5v4C24,6.3,23.3,7,22.5,7z M9.5,1
			C9.2,1,9,1.2,9,1.5v4C9,5.8,9.2,6,9.5,6h13C22.8,6,23,5.8,23,5.5v-4C23,1.2,22.8,1,22.5,1H9.5z"/>
	</g>
	<g>
		<path class="st3" d="M16.6,10l-0.3-1c-0.1-0.3-0.4-0.3-0.5,0L15.4,10c-0.1,0.4-0.5,0.5-0.7,0.1c-0.1-0.2-0.2-0.4-0.2-0.6v-8
			c0-1.1,0.3-1,0.8-1h1.5c0.4,0,0.8-0.2,0.8,1v8c0,0.3-0.1,0.5-0.2,0.7C17,10.5,16.7,10.4,16.6,10z"/>
		<path class="st4" d="M17,10.9c0,0-0.1,0-0.1,0c-0.3-0.1-0.6-0.3-0.8-0.7L16,9.9l-0.1,0.3c-0.1,0.4-0.4,0.6-0.8,0.7
			c-0.3,0-0.7-0.1-0.9-0.4C14.1,10.2,14,9.8,14,9.5v-8c0-0.6,0.1-1,0.3-1.2C14.6,0,14.9,0,15.1,0l1.6,0c0,0,0.1,0,0.1,0
			c0.2,0,0.5,0,0.8,0.2C17.9,0.5,18,0.8,18,1.5v8c0,0.4-0.1,0.7-0.3,1C17.5,10.8,17.2,10.9,17,10.9z M16,8.3c0.3,0,0.6,0.2,0.7,0.5
			L17,9.7c0-0.1,0-0.1,0-0.2v-8c0-0.3,0-0.4,0-0.5c0,0,0,0,0,0c-0.1,0-0.1,0-0.2,0l-1.6,0c0,0-0.1,0-0.1,0c0,0.1,0,0.2,0,0.5v8
			c0,0,0,0.1,0,0.1l0.3-0.7C15.4,8.6,15.6,8.4,16,8.3C16,8.3,16,8.3,16,8.3z"/>
	</g>
</g>
</svg>
