<?xml version="1.0" encoding="utf-8"?>
<!-- Generator: Adobe Illustrator 22.1.0, SVG Export Plug-In . SVG Version: 6.00 Build 0)  -->
<svg version="1.1" id="Layer_1" xmlns="http://www.w3.org/2000/svg" xmlns:xlink="http://www.w3.org/1999/xlink" x="0px" y="0px"
	 viewBox="0 0 32 32" style="enable-background:new 0 0 32 32;" xml:space="preserve">
<style type="text/css">
	.st0{fill:#83D3AE;}
	.st1{fill:#83D3AE;stroke:#19284F;stroke-miterlimit:10;}
	.st2{fill:#FFDC4F;}
	.st3{fill:#973A91;}
	.st4{fill:#19284F;}
	.st5{fill:none;stroke:#19284F;stroke-miterlimit:10;}
	.st6{fill:#FFFFFF;stroke:#19284F;stroke-miterlimit:10;}
	.st7{fill:#00FF7F;}
	.st8{fill:#19284F;stroke:#19284F;stroke-width:0.5;stroke-miterlimit:10;}
	.st9{fill:none;stroke:#19284F;stroke-width:2;stroke-miterlimit:10;}
	.st10{clip-path:url(#SVGID_2_);fill:#19284F;}
	.st11{fill:#973A91;stroke:#19284F;stroke-miterlimit:10;}
	.st12{fill:none;stroke:#19284F;stroke-linecap:round;stroke-miterlimit:10;}
	.st13{fill:#83D3AE;stroke:#19284F;stroke-linecap:round;stroke-miterlimit:10;}
	.st14{fill:#973A91;stroke:#19284F;stroke-linecap:round;stroke-miterlimit:10;}
	.st15{fill:#FFFFFF;stroke:#19284F;stroke-linecap:round;stroke-miterlimit:10;}
	.st16{fill:none;stroke:#E7443C;stroke-width:4;stroke-miterlimit:10;}
	.st17{fill:none;stroke:#F8BB2D;stroke-width:4;stroke-miterlimit:10;}
	.st18{fill:none;stroke:#3AA757;stroke-width:4;stroke-miterlimit:10;}
	.st19{fill:none;stroke:#19284F;stroke-width:4;stroke-miterlimit:10;}
	.st20{fill:none;stroke:#19284F;stroke-linecap:round;stroke-linejoin:round;stroke-miterlimit:10;}
	.st21{fill:#973A91;stroke:#19284F;stroke-linecap:round;stroke-linejoin:round;stroke-miterlimit:10;}
	.st22{fill:#FFFFFF;}
	.st23{fill:#19284F;stroke:#19284F;stroke-miterlimit:10;}
	.st24{fill:none;stroke:#19284F;stroke-linejoin:round;stroke-miterlimit:10;}
</style>
<path class="st1" d="M28.5,31.5h-25c-1.7,0-3-1.3-3-3v-25c0-1.7,1.3-3,3-3h25c1.7,0,3,1.3,3,3v25C31.5,30.1,30.1,31.5,28.5,31.5z"/>
<g>
	<path class="st4" d="M17,10.3v10.1c0,0.6-0.3,0.9-0.9,0.9h-3.6c-0.6,0-0.9-0.3-0.9-0.9v-4h-4v4c0,0.6-0.3,0.9-0.9,0.9H5.9
		C5.3,21.3,5,21,5,20.4V10.3c0-0.6,0.3-0.9,0.9-0.9h0.8c0.6,0,0.9,0.3,0.9,0.9V14h4v-3.7c0-0.6,0.3-0.9,0.9-0.9h3.6
		C16.7,9.4,17,9.7,17,10.3z"/>
	<path class="st4" d="M28.5,13c0,2.5-1.7,3.6-4.2,3.6h-1.8v3.8c0,0.6-0.3,0.9-0.9,0.9h-3.7c-0.6,0-0.9-0.3-0.9-0.9V10.3
		c0-0.6,0.3-0.9,0.9-0.9h6.4C26.8,9.4,28.5,10.5,28.5,13z M22.5,11.6v2.9H24c1.5,0,1.9-0.6,1.9-1.4c0-0.9-0.4-1.4-1.9-1.4H22.5z"/>
	<path class="st0" d="M21.2,10.5v1.1c0,0.7-0.4,1.1-1.1,1.1h-3.8v1c0.2-0.3,0.7-0.4,1.4-0.4c1.8,0,3.8,1.3,3.8,3.5v0.6
		c0,2.2-2.1,4-4.5,4c-2,0-3.4-1.3-4-2.4c-0.4-0.7-0.3-1.4,0.9-1.4h1.8c0.5,0,0.4,0.6,1.3,0.6h0.1c0.5,0,0.9-0.4,0.9-0.8v-0.6
		c0-0.4-0.4-0.7-0.9-0.7c-0.2,0-0.3,0-0.5,0.1c-0.3,0.1-0.5,0.3-1,0.3h-1.8c-0.7,0-1.1-0.4-1.1-1.1v-5c0-0.7,0.4-1.1,1.1-1.1h6.3
		C20.8,9.4,21.2,9.8,21.2,10.5z"/>
</g>
</svg>
