<?xml version="1.0" encoding="utf-8"?>
<!-- Generator: Adobe Illustrator 22.1.0, SVG Export Plug-In . SVG Version: 6.00 Build 0)  -->
<svg version="1.1" id="Layer_1" xmlns="http://www.w3.org/2000/svg" xmlns:xlink="http://www.w3.org/1999/xlink" x="0px" y="0px"
	 viewBox="0 0 32 32" style="enable-background:new 0 0 32 32;" xml:space="preserve">
<style type="text/css">
	.st0{fill:#83D3AE;}
	.st1{fill:#83D3AE;stroke:#19284F;stroke-miterlimit:10;}
	.st2{fill:#FFDC4F;}
	.st3{fill:#973A91;}
	.st4{fill:#19284F;}
	.st5{fill:none;stroke:#19284F;stroke-miterlimit:10;}
	.st6{fill:#FFFFFF;stroke:#19284F;stroke-miterlimit:10;}
	.st7{fill:#00FF7F;}
	.st8{fill:#19284F;stroke:#19284F;stroke-width:0.5;stroke-miterlimit:10;}
	.st9{fill:none;stroke:#19284F;stroke-width:2;stroke-miterlimit:10;}
	.st10{clip-path:url(#SVGID_2_);fill:#19284F;}
	.st11{fill:#973A91;stroke:#19284F;stroke-miterlimit:10;}
	.st12{fill:none;stroke:#19284F;stroke-linecap:round;stroke-miterlimit:10;}
	.st13{fill:#83D3AE;stroke:#19284F;stroke-linecap:round;stroke-miterlimit:10;}
	.st14{fill:#973A91;stroke:#19284F;stroke-linecap:round;stroke-miterlimit:10;}
	.st15{fill:#FFFFFF;stroke:#19284F;stroke-linecap:round;stroke-miterlimit:10;}
	.st16{fill:none;stroke:#E7443C;stroke-width:4;stroke-miterlimit:10;}
	.st17{fill:none;stroke:#F8BB2D;stroke-width:4;stroke-miterlimit:10;}
	.st18{fill:none;stroke:#3AA757;stroke-width:4;stroke-miterlimit:10;}
	.st19{fill:none;stroke:#19284F;stroke-width:4;stroke-miterlimit:10;}
	.st20{fill:none;stroke:#19284F;stroke-linecap:round;stroke-linejoin:round;stroke-miterlimit:10;}
	.st21{fill:#973A91;stroke:#19284F;stroke-linecap:round;stroke-linejoin:round;stroke-miterlimit:10;}
	.st22{fill:#FFFFFF;}
	.st23{fill:#19284F;stroke:#19284F;stroke-miterlimit:10;}
	.st24{fill:none;stroke:#19284F;stroke-linejoin:round;stroke-miterlimit:10;}
</style>
<g>
	<path class="st6" d="M29.5,31.5h-27c-1.1,0-2-0.9-2-2v-27c0-1.1,0.9-2,2-2h27c1.1,0,2,0.9,2,2v27C31.5,30.6,30.6,31.5,29.5,31.5z"
		/>
	<path class="st0" d="M27.7,15.2c-0.1-2.9-0.3-5.8-0.6-8.7C27,5.7,26.5,4.9,25.6,5C19.1,5.2,12.7,4.4,6.2,4.2
		c-0.4,0-2.9,1.5-1.7,2.4c0,0.1,0,0.9,0,1c-0.2,3,0.5,5.7,0.3,8.7c-0.1,1.2-0.6,3.3,0.2,4.4c0.8,1,2.1,0.9,3.3,1
		c2.8,0.2,5.7,0.3,8.5,0.3c2.6,0,8.8,1.3,10.6-1.1C28.3,19.5,27.7,16.7,27.7,15.2z"/>
	<circle class="st3" cx="10.7" cy="11.7" r="3.6"/>
	<path class="st3" d="M27.5,19.1c-0.6-1.6-1.1-3-1.5-4.7c-0.4-1.3-2.4-1.5-2.9-0.2c-0.2-0.6-0.3-1.2-0.4-1.4c-0.3-1.5-2.6-1.4-3,0
		c-0.1,0.3-0.3,0.6-0.4,0.9c-1-0.5-2.1,0.2-2.2,1.4c-0.1,0.7-1.8,1.9-2.7,2.5c-0.7,0.1-1.4,0.2-2.1,0.2c-0.7,0-1.4-0.1-2.1-0.1
		c-0.4-0.3-0.7-0.5-1.2-0.6c-1.7-0.3-2.3,0.7-3.9,1c-1.9,0.4,0.2,3.2,0.2,3.2c0.4-0.1,0.6,0.2,0.9,0.1c0.2,0.2,0.7,0.3,1.2,0.3
		c0.8-0.1,1-0.2,1.8-0.2c0.3,0.3,1.1,0.3,1.5,0.4c1.5,0.3,2.1,0,3.4-0.1c1.3-0.2,1.8,0.6,2.8,0.2c3.2,0.1,6.5-0.5,9.7-0.4
		C27.8,21.5,27.7,19.5,27.5,19.1z"/>
	<path class="st5" d="M25.5,21.7H6.5c-1.1,0-2-0.9-2-2V6.5c0-1.1,0.9-2,2-2h19.1c1.1,0,2,0.9,2,2v13.2
		C27.5,20.8,26.6,21.7,25.5,21.7z"/>
</g>
</svg>
