<?xml version="1.0" encoding="utf-8"?>
<!-- Generator: Adobe Illustrator 22.1.0, SVG Export Plug-In . SVG Version: 6.00 Build 0)  -->
<svg version="1.1" id="Layer_1" xmlns="http://www.w3.org/2000/svg" xmlns:xlink="http://www.w3.org/1999/xlink" x="0px" y="0px"
	 viewBox="0 0 32 32" style="enable-background:new 0 0 32 32;" xml:space="preserve">
<style type="text/css">
	.st0{fill:#83D3AE;}
	.st1{fill:#83D3AE;stroke:#19284F;stroke-miterlimit:10;}
	.st2{fill:#FFDC4F;}
	.st3{fill:#973A91;}
	.st4{fill:#19284F;}
	.st5{fill:none;stroke:#19284F;stroke-miterlimit:10;}
	.st6{fill:#FFFFFF;stroke:#19284F;stroke-miterlimit:10;}
	.st7{fill:#00FF7F;}
	.st8{fill:#19284F;stroke:#19284F;stroke-width:0.5;stroke-miterlimit:10;}
	.st9{fill:none;stroke:#19284F;stroke-width:2;stroke-miterlimit:10;}
	.st10{clip-path:url(#SVGID_2_);fill:#19284F;}
	.st11{fill:#973A91;stroke:#19284F;stroke-miterlimit:10;}
	.st12{fill:none;stroke:#19284F;stroke-linecap:round;stroke-miterlimit:10;}
	.st13{fill:#83D3AE;stroke:#19284F;stroke-linecap:round;stroke-miterlimit:10;}
	.st14{fill:#973A91;stroke:#19284F;stroke-linecap:round;stroke-miterlimit:10;}
	.st15{fill:#FFFFFF;stroke:#19284F;stroke-linecap:round;stroke-miterlimit:10;}
	.st16{fill:none;stroke:#E7443C;stroke-width:4;stroke-miterlimit:10;}
	.st17{fill:none;stroke:#F8BB2D;stroke-width:4;stroke-miterlimit:10;}
	.st18{fill:none;stroke:#3AA757;stroke-width:4;stroke-miterlimit:10;}
	.st19{fill:none;stroke:#19284F;stroke-width:4;stroke-miterlimit:10;}
	.st20{fill:none;stroke:#19284F;stroke-linecap:round;stroke-linejoin:round;stroke-miterlimit:10;}
	.st21{fill:#973A91;stroke:#19284F;stroke-linecap:round;stroke-linejoin:round;stroke-miterlimit:10;}
	.st22{fill:#FFFFFF;}
	.st23{fill:#19284F;stroke:#19284F;stroke-miterlimit:10;}
	.st24{fill:none;stroke:#19284F;stroke-linejoin:round;stroke-miterlimit:10;}
</style>
<g>
	<g>
		<path class="st6" d="M30.2,23.9l-18.8,6.7c-1,0.4-2.2-0.2-2.6-1.2L2.2,10.6c-0.4-1,0.2-2.2,1.2-2.6l18.8-6.7
			c1-0.4,2.2,0.2,2.6,1.2l6.7,18.8C31.7,22.4,31.2,23.6,30.2,23.9z"/>
		<path class="st4" d="M24.9,17.2l-13.7,4.9c-1,0.4-2.2-0.2-2.6-1.2l-3.1-8.6c-0.4-1,0.2-2.2,1.2-2.6l13.7-4.9
			c1-0.4,2.2,0.2,2.6,1.2l3.1,8.6C26.5,15.7,26,16.8,24.9,17.2z"/>
	</g>
	<g>
		<path class="st6" d="M22.4,27.8H2.5c-1.1,0-2-0.9-2-2V5.8c0-1.1,0.9-2,2-2h19.9c1.1,0,2,0.9,2,2v19.9
			C24.4,26.9,23.5,27.8,22.4,27.8z"/>
		<path class="st4" d="M19.7,19.7H5.2c-1.1,0-2-0.9-2-2V8.5c0-1.1,0.9-2,2-2h14.5c1.1,0,2,0.9,2,2v9.1
			C21.7,18.8,20.8,19.7,19.7,19.7z"/>
	</g>
</g>
</svg>
