<?xml version="1.0" encoding="utf-8"?>
<!-- Generator: Adobe Illustrator 22.1.0, SVG Export Plug-In . SVG Version: 6.00 Build 0)  -->
<svg version="1.1" id="Layer_1" xmlns="http://www.w3.org/2000/svg" xmlns:xlink="http://www.w3.org/1999/xlink" x="0px" y="0px"
	 viewBox="0 0 32 32" style="enable-background:new 0 0 32 32;" xml:space="preserve">
<style type="text/css">
	.st0{fill:#83D3AE;}
	.st1{fill:#83D3AE;stroke:#19284F;stroke-miterlimit:10;}
	.st2{fill:#FFDC4F;}
	.st3{fill:#973A91;}
	.st4{fill:#19284F;}
	.st5{fill:none;stroke:#19284F;stroke-miterlimit:10;}
	.st6{fill:#FFFFFF;stroke:#19284F;stroke-miterlimit:10;}
	.st7{fill:#00FF7F;}
	.st8{font-family:'NextExitRound-Normal';}
	.st9{font-size:14.3753px;}
	.st10{fill:#19284F;stroke:#19284F;stroke-width:0.5;stroke-miterlimit:10;}
	.st11{font-size:25.6999px;}
	.st12{fill:none;stroke:#19284F;stroke-width:2;stroke-miterlimit:10;}
	.st13{clip-path:url(#SVGID_2_);fill:#19284F;}
	.st14{fill:#973A91;stroke:#19284F;stroke-miterlimit:10;}
	.st15{fill:none;stroke:#19284F;stroke-linecap:round;stroke-miterlimit:10;}
	.st16{fill:#83D3AE;stroke:#19284F;stroke-linecap:round;stroke-miterlimit:10;}
	.st17{fill:#973A91;stroke:#19284F;stroke-linecap:round;stroke-miterlimit:10;}
	.st18{fill:#FFFFFF;stroke:#19284F;stroke-linecap:round;stroke-miterlimit:10;}
	.st19{fill:none;stroke:#E7443C;stroke-width:4;stroke-miterlimit:10;}
	.st20{fill:none;stroke:#F8BB2D;stroke-width:4;stroke-miterlimit:10;}
	.st21{fill:none;stroke:#3AA757;stroke-width:4;stroke-miterlimit:10;}
	.st22{fill:none;stroke:#19284F;stroke-width:4;stroke-miterlimit:10;}
	.st23{fill:none;stroke:#19284F;stroke-linecap:round;stroke-linejoin:round;stroke-miterlimit:10;}
	.st24{fill:#973A91;stroke:#19284F;stroke-linecap:round;stroke-linejoin:round;stroke-miterlimit:10;}
	.st25{fill:#FFFFFF;}
	.st26{fill:#19284F;stroke:#19284F;stroke-miterlimit:10;}
	.st27{fill:none;stroke:#19284F;stroke-linejoin:round;stroke-miterlimit:10;}
</style>
<g>
	<path class="st3" d="M22.4,27.7c0,0,0-0.1,0-0.1c-0.1-1.6-0.9-2.8-1.3-4.3c-0.2-0.8-1.1-1.2-1.9-1C16,19.8,10.6,20,6.5,20.9
		c-0.3-0.1-0.7,0-1,0.1c-2.7,1.3-4.4,3.5-4.9,6.5c-0.1,0.5,0,0.9,0.2,1.3c0,0.1-0.1,0.1-0.1,0.2c-0.4,0.9,0.1,2.4,1.3,2.3
		c3.9-0.3,7.5,0.2,11.3,0.3c2.6,0.1,6.1,0.6,8.5-0.5c0.5-0.2,0.7-0.8,0.7-1.3C22.7,29,22.6,28.4,22.4,27.7z"/>
	<g>
		<path class="st4" d="M11.5,18.5c-4,0-7.3-3.3-7.3-7.3c0-4,3.3-7.3,7.3-7.3c4,0,7.3,3.3,7.3,7.3C18.8,15.2,15.5,18.5,11.5,18.5z
			 M11.5,5c-3.4,0-6.2,2.8-6.2,6.2c0,3.4,2.8,6.2,6.2,6.2c3.4,0,6.2-2.8,6.2-6.2C17.6,7.8,14.9,5,11.5,5z"/>
	</g>
	<path class="st4" d="M22.9,27.6c0-4.4-3.6-8.1-8.1-8.1H8.1c-4.4,0-8.1,3.6-8.1,8.1l0,2.8c0,0.9,0.8,1.6,1.7,1.6h19.6
		c0.9,0,1.6-0.7,1.7-1.6L22.9,27.6z M21.3,30.9h-3v-2c0-0.3-0.3-0.6-0.6-0.6c-0.3,0-0.6,0.3-0.6,0.6v2H5.8v-2c0-0.3-0.3-0.6-0.6-0.6
		c-0.3,0-0.6,0.3-0.6,0.6v2h-3c-0.3,0-0.5-0.2-0.6-0.5v-2.7c0-3.8,3.1-6.9,6.9-6.9h6.8c3.8,0,6.9,3.1,6.9,6.9v2.7
		C21.8,30.6,21.6,30.9,21.3,30.9z"/>
</g>
<g>
	<path class="st1" d="M29.6,1H15.5c-0.8,0-1.4,0.6-1.4,1.4v9.3c0,0.8,0.6,1.4,1.4,1.4h1.4v4.6c0,0.3,0.4,0.4,0.5,0.2l3-4.7h9.2
		c0.8,0,1.4-0.6,1.4-1.4V2.4C31,1.6,30.4,1,29.6,1z"/>
</g>
<text transform="matrix(1 0 0 1 17.9551 10.5969)" class="st4 st8 st9">?</text>
<text transform="matrix(-1 0 0 -1 28.2111 37.4774)" class="st4 st8 st11">’’</text>
</svg>
