<?xml version="1.0" encoding="utf-8"?>
<!-- Generator: Adobe Illustrator 22.1.0, SVG Export Plug-In . SVG Version: 6.00 Build 0)  -->
<svg version="1.1" id="Layer_1" xmlns="http://www.w3.org/2000/svg" xmlns:xlink="http://www.w3.org/1999/xlink" x="0px" y="0px"
	 viewBox="0 0 32 32" style="enable-background:new 0 0 32 32;" xml:space="preserve">
<style type="text/css">
	.st0{fill:#83D3AE;}
	.st1{fill:#83D3AE;stroke:#19284F;stroke-miterlimit:10;}
	.st2{fill:#FFDC4F;}
	.st3{fill:#973A91;}
	.st4{fill:#19284F;}
	.st5{fill:none;stroke:#19284F;stroke-miterlimit:10;}
	.st6{fill:#FFFFFF;stroke:#19284F;stroke-miterlimit:10;}
	.st7{fill:#00FF7F;}
	.st8{fill:#19284F;stroke:#19284F;stroke-width:0.5;stroke-miterlimit:10;}
	.st9{fill:none;stroke:#19284F;stroke-width:2;stroke-miterlimit:10;}
	.st10{clip-path:url(#SVGID_2_);fill:#19284F;}
	.st11{fill:#973A91;stroke:#19284F;stroke-miterlimit:10;}
	.st12{fill:none;stroke:#19284F;stroke-linecap:round;stroke-miterlimit:10;}
	.st13{fill:#83D3AE;stroke:#19284F;stroke-linecap:round;stroke-miterlimit:10;}
	.st14{fill:#973A91;stroke:#19284F;stroke-linecap:round;stroke-miterlimit:10;}
	.st15{fill:#FFFFFF;stroke:#19284F;stroke-linecap:round;stroke-miterlimit:10;}
	.st16{fill:none;stroke:#E7443C;stroke-width:4;stroke-miterlimit:10;}
	.st17{fill:none;stroke:#F8BB2D;stroke-width:4;stroke-miterlimit:10;}
	.st18{fill:none;stroke:#3AA757;stroke-width:4;stroke-miterlimit:10;}
	.st19{fill:none;stroke:#19284F;stroke-width:4;stroke-miterlimit:10;}
	.st20{fill:none;stroke:#19284F;stroke-linecap:round;stroke-linejoin:round;stroke-miterlimit:10;}
	.st21{fill:#973A91;stroke:#19284F;stroke-linecap:round;stroke-linejoin:round;stroke-miterlimit:10;}
	.st22{fill:#FFFFFF;}
	.st23{fill:#19284F;stroke:#19284F;stroke-miterlimit:10;}
	.st24{fill:none;stroke:#19284F;stroke-linejoin:round;stroke-miterlimit:10;}
</style>
<g>
	<path class="st13" d="M19.9,15h-3.7c-1.7,0-3-1.3-3-3V3.5c0-1.7,1.3-3,3-3h3.7c1.7,0,3,1.3,3,3V12C22.9,13.6,21.6,15,19.9,15z"/>
	<path class="st13" d="M11.3,15H7.6c-1.7,0-3-1.3-3-3V3.5c0-1.7,1.3-3,3-3h3.7c1.7,0,3,1.3,3,3V12C14.3,13.6,13,15,11.3,15z"/>
	<path class="st13" d="M31.5,3.6c0-1.7-1.4-3.1-3.1-3.1h-3.5c-1.7,0-3.1,1.4-3.1,3.1v5.3H3.7c-1.7,0-3.1,1.4-3.1,3.1v16.4
		c0,1.7,1.4,3.1,3.1,3.1h24.7c1.7,0,3.1-1.4,3.1-3.1V12c0,0,0,0,0,0c0,0,0,0,0,0V3.6z"/>
	<line class="st12" x1="7" y1="16" x2="23.7" y2="16"/>
	<line class="st12" x1="7" y1="19.4" x2="23.7" y2="19.4"/>
	<line class="st12" x1="7" y1="22.9" x2="23.7" y2="22.9"/>
</g>
</svg>
