<svg xmlns="http://www.w3.org/2000/svg" viewBox="0 0 400 400">
  <defs/>
  <g fill-rule="evenodd">
    <path fill="#fbfbfb" d="M282.6 122.4c-.44.189-1.252.356-1.805.372-1.926.054-7.12 1.949-32.395 11.817-2.09.816-4.16 1.623-4.6 1.794-.44.17-1.25.49-1.8.71l-2 .8-2 .8c-.55.22-1.54.628-2.2.907-.66.279-1.56.639-2 .8-.991.363-2.374.932-4.2 1.73-.77.336-5.81 2.351-11.2 4.478-5.39 2.126-10.52 4.194-11.4 4.594-.88.4-3.04 1.297-4.8 1.995-1.76.697-3.83 1.541-4.6 1.876-.77.335-1.76.746-2.2.914-1.071.41-2.503 1.003-4.2 1.739-.77.335-2.21.92-3.2 1.301-.99.381-1.971.846-2.18 1.033-.209.187-.616.34-.904.34-.289 0-1.288.349-2.22.776-.933.427-4.576 1.969-8.096 3.427-3.52 1.457-6.94 2.894-7.6 3.192-.66.299-2.19.931-3.4 1.405s-2.785 1.118-3.5 1.431c-1.89.827-4.126 1.79-5.5 2.37-.66.278-2.053.887-3.096 1.352-1.042.466-1.982.847-2.088.847-.106 0-1.143.431-2.304.958-1.162.527-5.712 2.525-10.112 4.44-4.4 1.915-8.81 3.845-9.8 4.288-4.51 2.018-8.669 3.857-10.4 4.598-1.83.783-3.919 1.723-7.6 3.419-1.65.761-4.71 2.166-6.8 3.123-4.54 2.079-22.364 10.993-25.902 12.954-8.456 4.687-6.725 8.955 5.902 14.549 4.107 1.82 14.047 5.624 17.4 6.66 1.98.612 4.59 1.428 5.8 1.814 2.161.689 6.849 1.935 10.4 2.764 10.866 2.536 20.358 1.208 28.929-4.048 1.722-1.056 3.193-1.919 3.271-1.919.162 0 3.967-2.345 12-7.395 5.814-3.655 24.01-15.883 33.4-22.446 2.97-2.076 6.93-4.838 8.8-6.138 1.87-1.299 6.37-4.452 10-7.005 21.6-15.19 27.16-18.081 28.818-14.982 1.635 3.055-6.194 11.833-29.618 33.207-8.864 8.088-13.419 12.224-15.373 13.959-1.974 1.753-5.268 4.844-13.001 12.2-7.47 7.106-8.843 8.669-10.61 12.078-4.337 8.369-2.798 12.938 6.518 19.353 16.71 11.506 35.086 23.994 52.285 35.535 5.71 3.831 11.731 7.899 13.381 9.041 10.914 7.551 22.915 5.22 27.884-5.418 1.133-2.427 1.489-3.845 2.534-10.089.23-1.375.582-3.4.782-4.5.2-1.1.552-3.125.782-4.5.23-1.375.606-3.625.836-5 .23-1.375.582-3.4.782-4.5.2-1.1.552-3.125.782-4.5.23-1.375.606-3.625.836-5 .23-1.375.585-3.4.789-4.5.204-1.1.464-2.63.577-3.4.113-.77.388-2.435.611-3.7.223-1.265.591-3.425.819-4.8.228-1.375.578-3.49.779-4.7.201-1.21.737-4.36 1.193-7 .455-2.64.993-5.88 1.196-7.2.203-1.32.642-4.02.977-6 .335-1.98 1.076-6.57 1.646-10.2.57-3.63 1.393-8.85 1.828-11.6.802-5.07 1.233-7.829 1.983-12.7.228-1.485.576-3.69.772-4.9.196-1.21.557-3.73.803-5.6.246-1.87.614-4.526.819-5.902.53-3.567 1.127-7.656 1.59-10.898.22-1.54.576-4.015.79-5.5.215-1.485.583-4.5.819-6.7s.601-5.44.811-7.2c1.366-11.461-.294-15.872-6.666-17.722-1.873-.544-8.348-.596-9.554-.078"/>
    <path fill="#209bcf" d="M97.7 26.665c-.819.33-.567.878.3.651.44-.115.8-.368.8-.563 0-.381-.312-.406-1.1-.088M94 29.193c-.933.723-.942.76-.128.552.48-.123.969-.476 1.088-.784.272-.709.246-.703-.96.232M79.029 39.429c-.424.309-.693.64-.599.734.094.094.518-.082.941-.392.424-.309.693-.64.599-.734-.094-.094-.518.082-.941.392M72.101 44.9c-1.276.892-1.65 1.5-.924 1.5.208 0 .613-.329.9-.731.288-.402.883-.936 1.323-1.188.44-.251.617-.462.394-.469-.223-.007-.985.393-1.693.888m254.699-.3c.274.33.678.6.898.6.223 0 .18-.265-.098-.6-.274-.33-.678-.6-.898-.6-.223 0-.18.265.098.6M66.056 50.013c-.582.485-.731.787-.389.787.305 0 .863-.36 1.24-.8.873-1.019.379-1.012-.851.013M50.798 65.254c-1.585 1.803-1.865 2.346-1.208 2.346.252 0 .346-.18.21-.4-.136-.22-.078-.4.129-.4.413 0 2.639-2.766 2.41-2.995-.078-.078-.771.574-1.541 1.449M44.9 71.985c-.495.628-.895 1.383-.888 1.678.007.306.211.193.474-.263.254-.44.699-1.038.988-1.329.446-.448.743-1.319.426-1.249-.055.012-.505.536-1 1.163m-1.952 2.737c-.235.153-.654.728-.93 1.278-.485.969-.467.965.581-.126 1.042-1.085 1.237-1.729.349-1.152m-3.652 4.473c-.571.914-.619 1.206-.196 1.202.165-.002.508-.452.762-1 .551-1.187.141-1.334-.566-.202M37.7 81.398c-.275.313-.5.756-.5.985 0 .229-.18.417-.4.417-.22 0-.4.188-.4.417 0 .229-.36.803-.8 1.275-.44.472-.8 1.095-.8 1.383 0 .908 2.149-1.66 2.658-3.175.13-.385.375-.7.546-.7.171 0 .414-.27.541-.6.288-.752-.184-.753-.845-.002m-5.059 7.869c.114.183-.074.333-.417.333-.343 0-.624.27-.624.6 0 .856.494.721 1.268-.346.527-.725.552-.921.118-.921-.303 0-.458.15-.345.334M30.5 91.798c-.275.313-.5.678-.5.813 0 .135-.555 1.052-1.234 2.039-.679.987-1.138 2.045-1.021 2.352.136.353.015.481-.329.349-.778-.299-1.203 1.341-.552 2.126.462.557.424.605-.3.375-.805-.255-1.764.952-1.764 2.22 0 .239-.382.766-.849 1.171-.531.46-.773 1.03-.646 1.517.144.55.041.717-.35.567-.388-.148-.555.109-.555.854 0 .609-.172.96-.4.819-.22-.136-.4.123-.4.576 0 .453-.135.825-.3.827-.365.004-1.3 1.946-1.3 2.7 0 .299-.18.433-.4.297-.22-.136-.4.123-.4.576 0 .453-.18.824-.4.824-.22 0-.4.45-.4 1s-.159 1-.353 1c-.367 0-.881 1.25-1.047 2.544-.052.409-.325.886-.606 1.06-.281.173-.4.603-.265.956.157.408.033.64-.342.64-.323 0-.587.36-.587.8 0 .44-.18.8-.4.8-.22 0-.4.54-.4 1.2 0 .66-.18 1.2-.4 1.2-.22 0-.4.272-.4.605 0 .333-.18.963-.4 1.4-.22.437-.58 1.153-.8 1.59-.22.437-.4.985-.4 1.219 0 .234-.36 1.17-.8 2.08-.44.911-.8 1.972-.8 2.358 0 .385-.165.803-.367.927-.201.125-.317.85-.256 1.613.06.762-.027 1.301-.195 1.197-.376-.233-1.182 1.995-1.182 3.271 0 .517-.18.94-.4.94-.22 0-.4.63-.4 1.4 0 .77-.18 1.4-.4 1.4-.22 0-.4.641-.4 1.424 0 .847-.162 1.323-.4 1.176-.242-.149-.4.396-.4 1.376 0 .893-.18 1.624-.4 1.624-.22 0-.4.72-.4 1.6 0 .88-.18 1.6-.4 1.6-.22 0-.4.709-.4 1.576 0 .867-.18 1.688-.4 1.824-.22.136-.4 1.047-.4 2.024 0 .977-.18 1.776-.4 1.776-.22 0-.4.9-.4 2s-.18 2-.4 2c-.222 0-.4 1.059-.4 2.376 0 1.307-.18 2.488-.4 2.624-.22.136-.4 1.482-.4 2.99 0 1.839-.165 2.798-.5 2.91-.732.244-.732 49.956 0 50.2.335.112.5 1.071.5 2.91 0 1.508.18 2.854.4 2.99.22.136.4 1.317.4 2.624 0 1.317.178 2.376.4 2.376.22 0 .4.9.4 2s.18 2 .4 2c.22 0 .4.799.4 1.776s.18 1.888.4 2.024c.22.136.4.957.4 1.824 0 .867.18 1.576.4 1.576.22 0 .4.72.4 1.6 0 .88.18 1.6.4 1.6.22 0 .4.72.4 1.6 0 .88.18 1.6.4 1.6.22 0 .4.54.4 1.2 0 .66.18 1.2.4 1.2.22 0 .4.63.4 1.4 0 .77.18 1.4.4 1.4.22 0 .4.54.4 1.2 0 .66.16 1.2.356 1.2.195 0 .342.225.325.5-.058.988.631 3.922.972 4.132.191.119.347.567.347.997 0 .43.159 1.094.353 1.476.195.382.555 1.19.8 1.795.246.605.648 1.595.894 2.2.245.605.605 1.413.8 1.795.194.382.353.967.353 1.3 0 .333.18.605.4.605.22 0 .4.54.4 1.2 0 .66.18 1.2.4 1.2.22 0 .4.36.4.8 0 .44.18.8.4.8.22 0 .4.36.4.8 0 .44.18.8.4.8.22 0 .4.236.4.525 0 .289.36 1.27.8 2.181.44.91.8 1.945.8 2.298 0 .354.18.532.4.396.22-.136.4.016.4.339 0 .683 1.66 3.999 2.1 4.194.165.074.3.479.3.9 0 .422.18.767.4.767.22 0 .4.27.4.6 0 .33.18.6.4.6.22 0 .4.326.4.725 0 .398.36 1.111.8 1.583.44.472.8 1.136.8 1.475 0 .339.21.617.467.617.256 0 .35.117.207.259-.271.271 1.305 3.443 1.826 3.674.165.074.3.311.3.528 0 .217.54 1.18 1.2 2.139.66.959 1.2 1.897 1.2 2.084 0 .187.36.599.8.916.44.317.8.857.8 1.2 0 .343.36.883.8 1.2.44.317.8.831.8 1.141 0 .311.316.856.703 1.212.386.356.957 1.142 1.267 1.747.311.605.715 1.1.898 1.1.182 0 .332.27.332.6 0 .33.18.6.4.6.22 0 .4.23.4.512 0 .281.36.771.8 1.088.44.317.8.907.8 1.312 0 .404.18.624.4.488.22-.136.4-.006.4.288 0 .295.36.795.8 1.112.44.317.8.724.8.905 0 .342.261.683 2.1 2.746.605.678 1.1 1.361 1.1 1.518 0 .156 1.08 1.415 2.4 2.798 1.32 1.383 2.4 2.654 2.4 2.825 0 .243 4.609 4.973 8.879 9.113.287.278 2.475 2.483 4.862 4.9 2.388 2.417 4.521 4.395 4.74 4.395.219 0 1.28.9 2.357 2 1.077 1.1 2.101 2 2.276 2 .175 0 1.114.72 2.086 1.6.972.88 1.904 1.6 2.071 1.6.166 0 .932.63 1.702 1.4.77.77 1.637 1.4 1.925 1.4.289 0 .785.36 1.102.8.317.44.825.8 1.128.8.303 0 1.055.54 1.672 1.2.617.66 1.369 1.2 1.672 1.2.303 0 .811.36 1.128.8.317.44.857.8 1.2.8.343 0 .883.36 1.2.8.317.44.857.8 1.2.8.343 0 .883.36 1.2.8.317.44.729.8.916.8.187 0 1.125.54 2.084 1.2.959.66 1.937 1.2 2.172 1.2.235 0 .428.18.428.4 0 .22.197.4.438.4s.946.361 1.567.803c.62.442 1.683.915 2.361 1.05.679.136 1.234.404 1.234.597 0 .192.27.35.6.35.33 0 .6.146.6.325 0 .179.63.573 1.4.875.77.302 1.4.696 1.4.875 0 .179.36.325.8.325.44 0 .8.18.8.4 0 .22.36.4.8.4.44 0 .8.18.8.4 0 .22.36.4.8.4.44 0 .8.18.8.4 0 .22.36.4.8.4.44 0 .8.18.8.4 0 .22.349.4.776.4.427 0 .888.18 1.024.4.136.22.597.4 1.024.4.427 0 .776.18.776.4 0 .22.36.4.8.4.44 0 .8.18.8.4 0 .22.36.4.8.4.44 0 .8.18.8.4 0 .22.349.4.776.4.427 0 .888.18 1.024.4.136.22.687.4 1.224.4.537 0 .976.18.976.4 0 .22.36.4.8.4.44 0 .8.18.8.4 0 .22.362.4.805.4.778 0 1.164.142 3.09 1.138.492.254 1.169.462 1.505.462.336 0 .923.159 1.305.353 2.115 1.076 6.564 2.447 7.941 2.447.525 0 .954.18.954.4 0 .22.63.4 1.4.4.77 0 1.4.18 1.4.4 0 .22.63.4 1.4.4.77 0 1.4.18 1.4.4 0 .22.619.4 1.376.4.757 0 1.488.18 1.624.4.136.22.867.4 1.624.4.757 0 1.376.18 1.376.4 0 .22.709.4 1.576.4.867 0 1.688.18 1.824.4.136.22 1.036.4 2 .4s1.864.18 2 .4c.136.22 1.137.4 2.224.4 1.087 0 1.976.18 1.976.4 0 .222 1.067.4 2.4.4s2.4.178 2.4.4c0 .228 1.189.4 2.767.4 1.857 0 2.821.164 2.933.5.131.393 5.509.5 25.1.5s24.969-.107 25.1-.5c.112-.336 1.076-.5 2.933-.5 1.578 0 2.767-.172 2.767-.4 0-.222 1.059-.4 2.376-.4 1.307 0 2.488-.18 2.624-.4.136-.22 1.137-.4 2.224-.4 1.087 0 1.976-.18 1.976-.4 0-.22.72-.4 1.6-.4.88 0 1.6-.18 1.6-.4 0-.22.911-.4 2.024-.4 1.247 0 1.928-.153 1.776-.4-.151-.244.463-.4 1.576-.4 1.003 0 1.824-.18 1.824-.4 0-.22.619-.4 1.376-.4.757 0 1.488-.18 1.624-.4.136-.22.777-.4 1.424-.4.647 0 1.176-.18 1.176-.4 0-.22.529-.4 1.176-.4.647 0 1.275-.159 1.395-.353.12-.195 1.208-.477 2.417-.628 1.21-.151 2.303-.442 2.429-.647.127-.205.659-.372 1.183-.372s1.064-.18 1.2-.4c.136-.22.687-.4 1.224-.4.537 0 .976-.147.976-.328 0-.18.911-.576 2.025-.879 1.114-.303 2.115-.696 2.224-.872.109-.177.648-.321 1.198-.321.565 0 .893-.174.753-.4-.14-.227.196-.4.776-.4.563 0 1.024-.18 1.024-.4 0-.22.54-.4 1.2-.4.66 0 1.2-.18 1.2-.4 0-.22.36-.4.8-.4.44 0 .8-.18.8-.4 0-.22.36-.4.8-.4.44 0 .8-.18.8-.4 0-.22.36-.4.8-.4.44 0 .8-.18.8-.4 0-.22.439-.4.976-.4.537 0 1.088-.18 1.224-.4.136-.22.597-.4 1.024-.4.427 0 .777-.135.777-.3.001-.165.991-.75 2.199-1.3 1.208-.55 2.198-1.135 2.199-1.3 0-.165.361-.3.801-.3.44 0 .8-.18.8-.4 0-.22.36-.4.8-.4.44 0 .8-.18.8-.4 0-.22.236-.4.525-.4.288 0 .911-.36 1.383-.8.472-.44 1.067-.8 1.321-.8.582 0 4.524-2.095 4.704-2.5.074-.165.311-.3.528-.3.217 0 1.18-.54 2.139-1.2.959-.66 1.897-1.2 2.084-1.2.187 0 .599-.36.916-.8.317-.44.857-.8 1.2-.8.343 0 .883-.36 1.2-.8.317-.44.857-.8 1.2-.8.343 0 .883-.36 1.2-.8.317-.44.857-.8 1.2-.8.343 0 .883-.36 1.2-.8.317-.44.807-.8 1.088-.8.282 0 .512-.18.512-.4 0-.22.23-.4.512-.4.281 0 .771-.36 1.088-.8.317-.44.907-.8 1.312-.8.404 0 .624-.18.488-.4-.136-.22-.006-.4.288-.4.295 0 .795-.36 1.112-.8.317-.44.724-.8.905-.8.366 0 .923-.432 2.839-2.2.715-.66 1.533-1.251 1.817-1.313.284-.062 1.387-1.007 2.451-2.1 1.065-1.093 2.124-1.987 2.355-1.987.23 0 2.404-2.025 4.832-4.5 5.299-5.404 4.097-4.202 9.501-9.501 2.475-2.428 4.5-4.602 4.5-4.832 0-.231.894-1.29 1.987-2.355 1.093-1.064 2.038-2.163 2.1-2.442.062-.278.788-1.217 1.613-2.086.825-.869 1.5-1.731 1.5-1.914 0-.184.45-.784 1-1.334s1-1.198 1-1.441c0-.243.18-.331.4-.195.22.136.4-.084.4-.488 0-.405.36-.995.8-1.312.44-.317.8-.807.8-1.088 0-.282.18-.512.4-.512.22 0 .4-.27.4-.6 0-.33.15-.6.332-.6.183 0 .587-.495.898-1.1.31-.605.881-1.391 1.267-1.747.387-.356.703-.901.703-1.212 0-.31.36-.824.8-1.141.44-.317.8-.857.8-1.2 0-.343.36-.883.8-1.2.44-.317.8-.729.8-.916 0-.187.54-1.125 1.2-2.084.66-.959 1.2-1.937 1.2-2.172 0-.235.18-.428.4-.428.22 0 .4-.36.4-.8 0-.44.147-.8.326-.8.348 0 1.674-2.558 1.674-3.23 0-.222.36-.79.8-1.262.44-.472.8-1.095.8-1.383 0-.289.18-.525.4-.525.22 0 .4-.36.4-.8 0-.44.18-.8.4-.8.22 0 .4-.287.4-.638 0-.351.371-1.16.825-1.798.454-.637.726-1.319.605-1.516-.122-.197.047-.58.374-.852.328-.272.596-.753.596-1.069 0-.316.18-.463.4-.327.22.136.4-.087.4-.496 0-.409.225-.986.5-1.283.406-.437.391-.476-.079-.207-.333.19-.205-.193.3-.904.484-.678.879-1.395.879-1.592 0-.61.983-2.512 1.3-2.515.165-.002.3-.352.3-.779 0-.427.192-.896.427-1.041.235-.145.333-.511.217-.812-.115-.301.052-.81.373-1.131.321-.321.583-.966.583-1.435 0-.534.17-.747.454-.572.313.194.397-.101.272-.955-.1-.68-.057-1.159.095-1.065.287.177 1.579-2.872 1.579-3.726 0-.268.184-.487.408-.487.224 0 .329-.436.232-.969-.109-.6.041-1.053.392-1.188.312-.12.568-.663.568-1.207s.197-1.111.438-1.259c.24-.149.355-.7.255-1.224-.1-.524-.047-.953.119-.953.165 0 .375-.636.465-1.413.122-1.043.029-1.36-.356-1.212-.286.11-.521.026-.521-.188 0-.357.574-.549 1.3-.434.564.089.301-1.067-.295-1.296-.328-.125-.553-.032-.5.207.052.24-.13.518-.405.619-.275.101-.5-.011-.5-.25 0-.238-.54-.433-1.2-.433-.66 0-1.2-.18-1.2-.4 0-.22-.36-.4-.8-.4-.44 0-.8-.18-.8-.4 0-.22-.36-.4-.8-.4-.44 0-.8-.18-.8-.4 0-.22-.54-.4-1.2-.4-.66 0-1.2-.18-1.2-.4 0-.22-.36-.4-.8-.4-.44 0-.8-.18-.8-.4 0-.22-.36-.4-.8-.4-.44 0-.8-.18-.8-.4 0-.22-.54-.4-1.2-.4-.66 0-1.2-.18-1.2-.4 0-.22-.36-.4-.8-.4-.44 0-.8-.18-.8-.4 0-.22-.27-.4-.6-.4-.33 0-.6-.18-.6-.4 0-.22-.54-.4-1.2-.4-.66 0-1.2-.18-1.2-.4 0-.22-.36-.4-.8-.4-.44 0-.8-.18-.8-.4 0-.22-.36-.4-.8-.4-.44 0-.8-.18-.8-.4 0-.22-.54-.4-1.2-.4-.66 0-1.2-.18-1.2-.4 0-.22-.36-.4-.8-.4-.44 0-.8-.18-.8-.4 0-.22-.36-.4-.8-.4-.44 0-.8-.18-.8-.4 0-.22-.54-.4-1.2-.4-.66 0-1.2-.16-1.2-.355 0-.196-.63-.474-1.4-.619-.77-.144-1.4-.434-1.4-.644 0-.21-.54-.382-1.2-.382-.66 0-1.2-.18-1.2-.4 0-.22-.36-.4-.8-.4-.44 0-.8-.18-.8-.4 0-.22-.36-.4-.8-.4-.44 0-.8-.18-.8-.4 0-.22-.54-.4-1.2-.4-.66 0-1.2-.18-1.2-.4 0-.22-.36-.4-.8-.4-.44 0-.8-.18-.8-.4 0-.22-.36-.4-.8-.4-.44 0-.8-.18-.8-.4 0-.22-.54-.4-1.2-.4-.66 0-1.2-.18-1.2-.4 0-.22-.36-.4-.8-.4-.44 0-.8-.18-.8-.4 0-.22-.27-.4-.6-.4-.33 0-.6-.18-.6-.4 0-.22-.54-.4-1.2-.4-.66 0-1.2-.18-1.2-.4 0-.22-.36-.4-.8-.4-.44 0-.8-.18-.8-.4 0-.22-.36-.4-.8-.4-.44 0-.8-.18-.8-.4 0-.22-.54-.4-1.2-.4-.66 0-1.2-.18-1.2-.4 0-.22-.36-.4-.8-.4-.44 0-.8-.18-.8-.4 0-.22-.36-.4-.8-.4-.44 0-.8-.18-.8-.4 0-.22-.54-.4-1.2-.4-.66 0-1.2-.18-1.2-.4 0-.22-.36-.4-.8-.4-.44 0-.8-.18-.8-.4 0-.22-.27-.4-.6-.4-.33 0-.6-.18-.6-.4 0-.22-.54-.4-1.2-.4-.66 0-1.2-.164-1.2-.365 0-.201-.72-.486-1.6-.635-.88-.149-1.6-.434-1.6-.635s-.54-.365-1.2-.365c-.66 0-1.2-.18-1.2-.4 0-.22-.36-.4-.8-.4-.44 0-.8-.18-.8-.4 0-.22-.36-.4-.8-.4-.44 0-.8-.18-.8-.4 0-.22-.54-.4-1.2-.4-.66 0-1.2-.18-1.2-.4 0-.22-.36-.4-.8-.4-.44 0-.8-.18-.8-.4 0-.22-.27-.4-.6-.4-.33 0-.6-.18-.6-.4 0-.22-.54-.4-1.2-.4-.66 0-1.2-.18-1.2-.4 0-.22-.36-.4-.8-.4-.44 0-.8-.18-.8-.4 0-.22-.36-.4-.8-.4-.44 0-.8-.18-.8-.4 0-.22-.54-.4-1.2-.4-.66 0-1.2-.18-1.2-.4 0-.22-.36-.4-.8-.4-.44 0-.8-.18-.8-.4 0-.22-.36-.4-.8-.4-.44 0-.8-.18-.8-.4 0-.22-.54-.4-1.2-.4-.66 0-1.2-.18-1.2-.4 0-.22-.36-.4-.8-.4-.44 0-.8-.18-.8-.4 0-.22-.36-.4-.8-.4-.44 0-.8-.191-.8-.425 0-1.797-2.607-.04-2.708 1.825-.06 1.1-.275 2.36-.478 2.8-.359.779-.613 2.303-1.066 6.4-.122 1.1-.385 2.171-.585 2.38-.2.209-.363 1.323-.363 2.476s-.18 2.208-.4 2.344c-.22.136-.4 1.216-.4 2.4s-.18 2.264-.4 2.4c-.22.136-.4 1.126-.4 2.2 0 1.074-.18 2.064-.4 2.2-.22.136-.4 1.216-.4 2.4s-.18 2.264-.4 2.4c-.22.136-.4 1.101-.4 2.144 0 1.043-.163 2.067-.363 2.276-.2.209-.465 1.28-.589 2.38-.125 1.1-.331 2.9-.458 4-.128 1.1-.393 2.36-.59 2.8-.197.44-.462 1.7-.59 2.8-.127 1.1-.333 2.9-.458 4-.124 1.1-.389 2.171-.589 2.38-.2.209-.363 1.233-.363 2.276 0 1.043-.18 2.008-.4 2.144-.22.136-.4 1.216-.4 2.4s-.18 2.264-.4 2.4c-.22.136-.4 1.126-.4 2.2 0 1.074-.18 2.064-.4 2.2-.22.136-.4 1.216-.4 2.4s-.18 2.264-.4 2.4c-.22.136-.4 1.126-.4 2.2 0 1.074-.18 2.064-.4 2.2-.22.136-.4.989-.4 1.895 0 6.689-5.13 12.948-13.319 16.253-1.32.533-9.183.609-10.186.099-.382-.195-1.235-.6-1.895-.9-1.578-.719-17.561-11.189-17.733-11.616-.074-.182-.344-.331-.6-.332-.257 0-1.097-.54-1.867-1.199s-1.625-1.199-1.9-1.199c-.275-.001-.5-.151-.5-.333 0-.183-.495-.588-1.1-.9-.605-.313-1.294-.748-1.531-.968-.237-.22-3.027-2.11-6.2-4.199-3.173-2.09-5.859-3.896-5.969-4.015-.11-.119-3.8-2.626-8.2-5.572-4.4-2.945-8.09-5.476-8.2-5.625-.11-.148-.639-.501-1.175-.783-.536-.283-1.166-.673-1.4-.867-.234-.194-2.495-1.73-5.025-3.414-2.53-1.684-4.69-3.18-4.8-3.324-.11-.143-1.37-1.045-2.8-2.003-1.43-.959-2.66-1.89-2.733-2.07-.074-.181-.344-.328-.6-.329-.257 0-1.097-.54-1.867-1.199s-1.544-1.199-1.719-1.199c-.473-.001-2.254-2.122-2.268-2.701-.007-.275-.193-.5-.413-.5-.22 0-.4-.349-.4-.776 0-.427-.18-.888-.4-1.024-.985-.609-.142-10.2.897-10.2.167 0 .303-.234.303-.52 0-.736.941-2.673 1.3-2.677.165-.002.3-.232.3-.511 0-.643 2.887-3.893 6.96-7.834 1.738-1.682 4.262-4.138 5.61-5.458 1.347-1.32 4.132-3.93 6.189-5.8 2.058-1.87 4.58-4.21 5.605-5.2 1.025-.99 2.931-2.7 4.235-3.8 1.304-1.1 3.661-3.26 5.237-4.8s4.103-3.916 5.615-5.28c1.512-1.363 4.189-3.849 5.949-5.523 4.73-4.499 6.288-5.909 7.505-6.792 1.176-.854 1.479-2.205.495-2.205-.33 0-.6-.18-.6-.4 0-.22-.45-.4-1-.4s-1-.18-1-.4c0-.22-.36-.4-.8-.4-.44 0-.8-.18-.8-.4 0-.22-.36-.4-.8-.4-.44 0-.8-.18-.8-.4 0-.22-.525-.4-1.167-.4-.641 0-1.239-.217-1.327-.483-.107-.32-.481-.185-1.109.4-.521.486-1.101.883-1.289.883-.188 0-.728.36-1.2.8-.472.44-1.095.8-1.383.8-.289 0-.525.158-.525.351 0 .194-.54.576-1.2.849-.66.273-1.2.611-1.2.751s-1.44 1.152-3.2 2.249c-1.76 1.097-3.2 2.131-3.2 2.297 0 .167-.27.303-.6.303-.33 0-.6.15-.6.332 0 .183-.495.587-1.1.898-.605.31-1.37.837-1.7 1.17-.33.333-1.095.86-1.7 1.17-.605.311-1.1.715-1.1.898 0 .182-.225.332-.5.333-.275 0-1.13.54-1.9 1.199s-1.61 1.199-1.867 1.199c-.256.001-.526.149-.6.329-.175.432-11.348 8.072-11.804 8.072-.194 0-.612.36-.929.8-.317.44-.831.8-1.141.8-.311 0-.856.316-1.212.703-.356.386-1.142.957-1.747 1.267-.605.311-1.1.715-1.1.898 0 .182-.185.332-.411.332-.225 0-2.79 1.589-5.7 3.532-2.909 1.943-6.189 4.049-7.289 4.681-1.1.632-2.09 1.247-2.2 1.368-.353.387-2.577 1.661-3.3 1.89-.385.122-.7.381-.7.576 0 .194-.27.353-.6.353-.33 0-.6.159-.6.353 0 .195-.315.454-.7.576-.685.217-2.904 1.475-3.3 1.871-.11.11-.56.397-1 .638-1.902 1.04-2.813 1.575-3 1.762-.734.734-6.434 3.6-7.161 3.6-.373 0-.85.151-1.059.336-1.573 1.389-13.628 1.978-18.98.927-3.356-.66-7.254-1.619-10-2.463-.55-.169-1.81-.526-2.8-.793-.99-.267-2.113-.647-2.495-.846-.382-.199-1.046-.361-1.476-.361-.43 0-.893-.18-1.029-.4-.136-.22-.676-.4-1.2-.4-.524 0-1.064-.18-1.2-.4-.136-.22-.766-.4-1.4-.4-.634 0-1.264-.18-1.4-.4-.136-.22-.597-.4-1.024-.4-.427 0-.776-.18-.776-.4 0-.22-.439-.4-.976-.4-.537 0-1.088-.18-1.224-.4-.136-.22-.597-.4-1.024-.4-.427 0-.776-.18-.776-.4 0-.22-.362-.4-.805-.4-.443 0-1.118-.159-1.5-.353-.382-.195-1.145-.532-1.695-.75-15.769-6.244-19.177-12.208-9.8-17.147 4.391-2.314 5.215-2.767 5.4-2.972.26-.289 14.734-7.416 19.4-9.552 1.98-.907 3.913-1.824 4.295-2.037.382-.214.967-.389 1.3-.389.333 0 .605-.18.605-.4 0-.22.36-.4.8-.4.44 0 .8-.18.8-.4 0-.22.253-.4.562-.4.309 0 1.299-.36 2.2-.8.901-.44 2.375-1.16 3.276-1.6.901-.44 1.891-.8 2.2-.8.309 0 .562-.18.562-.4 0-.22.349-.4.776-.4.427 0 .888-.18 1.024-.4.136-.22.597-.4 1.024-.4.427 0 .776-.18.776-.4 0-.22.236-.4.525-.4.491 0 3.204-1.146 4.77-2.015.382-.212.967-.385 1.3-.385.333 0 .605-.18.605-.4 0-.22.253-.4.562-.4.309 0 1.254-.343 2.1-.763.846-.419 2.213-1.049 3.038-1.4 2.333-.991 3.904-1.673 6.448-2.798 1.292-.572 2.597-1.039 2.9-1.039.304 0 .552-.18.552-.4 0-.22.349-.4.776-.4.427 0 .888-.18 1.024-.4.136-.22.597-.4 1.024-.4.427 0 .776-.18.776-.4 0-.22.349-.4.776-.4.427 0 .888-.18 1.024-.4.136-.22.597-.4 1.024-.4.427 0 .776-.18.776-.4 0-.22.45-.4 1-.4s1-.18 1-.4c0-.22.36-.4.8-.4.44 0 .8-.18.8-.4 0-.22.439-.4.976-.4.537 0 1.088-.18 1.224-.4.136-.22.597-.4 1.024-.4.427 0 .776-.18.776-.4 0-.22.272-.4.605-.4.333 0 .963-.18 1.4-.4.437-.22 1.153-.58 1.59-.8.437-.22 1.067-.4 1.4-.4.333 0 .605-.18.605-.4 0-.22.36-.4.8-.4.44 0 .8-.18.8-.4 0-.22.349-.4.776-.4.427 0 .888-.18 1.024-.4.136-.22.597-.4 1.024-.4.427 0 .776-.147.776-.328 0-.18.9-.572 2-.872 2.022-.551 2.671-1.2 1.2-1.2-.44 0-.8-.18-.8-.4 0-.22-.54-.4-1.2-.4-.66 0-1.2-.18-1.2-.4 0-.22-.36-.4-.8-.4-.44 0-.8-.18-.8-.4 0-.22-.36-.4-.8-.4-.44 0-.8-.157-.8-.348 0-.192-.9-.468-2-.614-1.1-.146-2-.439-2-.652 0-.212-.36-.386-.8-.386-.44 0-.8-.18-.8-.4 0-.22-.45-.4-1-.4s-1-.18-1-.4c0-.22-.36-.4-.8-.4-.44 0-.8-.18-.8-.4 0-.22-.36-.4-.8-.4-.44 0-.8-.18-.8-.4 0-.22-.54-.4-1.2-.4-.66 0-1.2-.18-1.2-.4 0-.22-.36-.4-.8-.4-.44 0-.8-.18-.8-.4 0-.22-.36-.4-.8-.4-.44 0-.8-.18-.8-.4 0-.22-.54-.4-1.2-.4-.66 0-1.2-.18-1.2-.4 0-.22-.36-.4-.8-.4-.44 0-.8-.18-.8-.4 0-.22-.36-.4-.8-.4-.44 0-.8-.18-.8-.4 0-.22-.54-.4-1.2-.4-.66 0-1.2-.18-1.2-.4 0-.22-.27-.4-.6-.4-.33 0-.6-.18-.6-.4 0-.22-.36-.4-.8-.4-.44 0-.8-.18-.8-.4 0-.22-.54-.4-1.2-.4-.66 0-1.2-.18-1.2-.4 0-.22-.36-.4-.8-.4-.44 0-.8-.18-.8-.4 0-.22-.36-.4-.8-.4-.44 0-.8-.18-.8-.4 0-.22-.54-.4-1.2-.4-.66 0-1.2-.18-1.2-.4 0-.22-.36-.4-.8-.4-.44 0-.8-.18-.8-.4 0-.22-.36-.4-.8-.4-.44 0-.8-.156-.8-.347 0-.191-.761-.45-1.691-.575-.931-.124-1.756-.418-1.834-.652-.078-.234-.487-.426-.908-.426-.422 0-.767-.18-.767-.4 0-.22-.54-.4-1.2-.4-.66 0-1.2-.18-1.2-.4 0-.22-.36-.4-.8-.4-.44 0-.8-.18-.8-.4 0-.22-.36-.4-.8-.4-.44 0-.8-.18-.8-.4 0-.22-.54-.4-1.2-.4-.66 0-1.2-.18-1.2-.4 0-.22-.36-.4-.8-.4-.44 0-.8-.18-.8-.4 0-.22-.36-.4-.8-.4-.44 0-.8-.18-.8-.4 0-.22-.54-.4-1.2-.4-.66 0-1.2-.18-1.2-.4 0-.22-.27-.4-.6-.4-.33 0-.6-.18-.6-.4 0-.22-.36-.4-.8-.4-.44 0-.8-.18-.8-.4 0-.22-.54-.4-1.2-.4-.66 0-1.2-.18-1.2-.4 0-.22-.36-.4-.8-.4-.44 0-.8-.18-.8-.4 0-.22-.36-.4-.8-.4-.44 0-.8-.18-.8-.4 0-.22-.54-.4-1.2-.4-.66 0-1.2-.18-1.2-.4 0-.22-.36-.4-.8-.4-.44 0-.8-.18-.8-.4 0-.22-.36-.4-.8-.4-.44 0-.8-.18-.8-.4 0-.22-.54-.4-1.2-.4-.66 0-1.2-.18-1.2-.4 0-.22-.27-.4-.6-.4-.33 0-.6-.18-.6-.4 0-.22-.36-.4-.8-.4-.44 0-.8-.157-.8-.348 0-.192-.9-.468-2-.614-1.1-.146-2-.439-2-.652 0-.212-.36-.386-.8-.386-.44 0-.8-.18-.8-.4 0-.22-.54-.4-1.2-.4-.66 0-1.2-.18-1.2-.4 0-.22-.36-.4-.8-.4-.44 0-.8-.18-.8-.4 0-.22-.36-.4-.8-.4-.44 0-.8-.18-.8-.4 0-.22-.54-.4-1.2-.4-.66 0-1.2-.18-1.2-.4 0-.22-.27-.4-.6-.4-.33 0-.6-.18-.6-.4 0-.22-.36-.4-.8-.4-.44 0-.8-.18-.8-.4 0-.22-.54-.4-1.2-.4-.66 0-1.2-.18-1.2-.4 0-.22-.36-.4-.8-.4-.44 0-.8-.18-.8-.4 0-.22-.36-.4-.8-.4-.44 0-.8-.18-.8-.4 0-.22-.54-.4-1.2-.4-.66 0-1.2-.18-1.2-.4 0-.22-.36-.4-.8-.4-.44 0-.8-.18-.8-.4 0-.22-.36-.4-.8-.4-.44 0-.8-.18-.8-.4 0-.22-.54-.4-1.2-.4-.66 0-1.2-.18-1.2-.4 0-.22-.27-.4-.6-.4-.33 0-.6-.18-.6-.4 0-.22-.36-.4-.8-.4-.44 0-.8-.18-.8-.4 0-.22-.54-.4-1.2-.4-.66 0-1.2-.18-1.2-.4 0-.22-.36-.4-.8-.4-.44 0-.8-.18-.8-.4 0-.22-.36-.4-.8-.4-.44 0-.8-.18-.8-.4 0-.22-.54-.4-1.2-.4-.66 0-1.2-.164-1.2-.365 0-.201-.72-.486-1.6-.635-.88-.149-1.6-.434-1.6-.635s-.54-.365-1.2-.365c-.66 0-1.2-.18-1.2-.4 0-.22-.36-.4-.8-.4-.44 0-.8-.18-.8-.4 0-.22-.27-.4-.6-.4-.33 0-.6-.18-.6-.4 0-.22-.54-.4-1.2-.4-.66 0-1.2-.18-1.2-.4 0-.22-.36-.4-.8-.4-.44 0-.8-.18-.8-.4 0-.22-.36-.4-.8-.4-.44 0-.8-.18-.8-.4 0-.22-.54-.4-1.2-.4-.66 0-1.2-.18-1.2-.4 0-.22-.36-.4-.8-.4-.44 0-.8-.18-.8-.4 0-.22-.36-.4-.8-.4-.44 0-.8-.18-.8-.4 0-.22-.54-.4-1.2-.4-.66 0-1.2-.18-1.2-.4 0-.22.18-.4.4-.4.22 0 .4-.349.4-.776 0-.427.183-.89.407-1.028.223-.138.31-.406.193-.596-.117-.19-.027-.46.2-.6.227-.14.309-.423.183-.628-.127-.204-.05-.372.17-.372.221 0 .328-.379.239-.843-.175-.905.616-1.953 1.479-1.963.391-.005.372-.108-.071-.394-.388-.251-.426-.39-.108-.394.271-.003.605-.455.743-1.003.139-.555.436-.882.669-.738.245.151.301.066.134-.203-.37-.599-.722-.564-1.338.136m364.24 153.93c.249.3.335.664.19.809-.145.145-.053.263.203.263.708 0 .558-1.079-.19-1.366-.518-.199-.561-.138-.203.294m-.897 3.705c-.392 1.02-.284 1.357.357 1.112.33-.127.6-.571.6-.988 0-.919-.621-1-.957-.124m-.553 2.237c-.355.355-.358.607-.013 1.023.252.304.293.521.091.482-.958-.182-1.368.101-1.368.945 0 .506-.225 1.147-.5 1.424-.401.404-.349.446.266.212.53-.203.677-.15.479.171-.187.303-.071.381.334.226.743-.285.827-.95.121-.959-.362-.005-.348-.103.051-.355.303-.192.439-.531.303-.752-.137-.222-.003-.498.298-.613.302-.116.548-.675.548-1.242 0-1.19.01-1.182-.61-.562m-2.597 10.686c-.033.442-.272.673-.575.557-.704-.27-.659-1.313.057-1.313.318 0 .55.339.518.756"/>
    <path fill="#34b0e4" d="M181.5.234c-.115.114-1.309.213-2.654.219-1.345.006-2.446.132-2.447.279 0 .148-1.303.328-2.896.401-1.593.073-3.011.319-3.151.545-.16.259-.336.209-.472-.133-.154-.387-.226-.4-.248-.045-.019.299-.596.5-1.432.5-.85 0-1.402.196-1.406.5-.004.31-.118.348-.3.1-.369-.503-1.294-.706-1.294-.285 0 .269-1.155.49-3.1.592-.275.015-.5.176-.5.36 0 .183-.911.333-2.024.333-1.369 0-1.935.142-1.751.44.193.312.053.323-.482.036-.54-.289-.962-.251-1.488.133-.403.295-1.015.428-1.359.296-.382-.147-.525-.076-.367.18.165.267-.342.429-1.39.444-.908.012-1.841.213-2.075.447-.233.233-.928.424-1.544.424s-1.12.141-1.12.313c0 .172-.405.354-.9.404-1.599.161-2.271.321-2.555.605-.153.153-.773.278-1.378.278-.605 0-1.16.171-1.234.381-.073.209-.77.444-1.548.523-.778.079-1.633.278-1.9.443-.267.165-.665.189-.885.053-.22-.136-.4.054-.4.423 0 .497-.255.621-.986.482-.542-.104-1.043-.018-1.112.19-.07.208-.593.407-1.163.442-.697.042-.968.242-.827.61.169.442.044.458-.657.082-.708-.378-.911-.348-1.108.164-.19.497-.36.528-.816.15-.449-.373-.549-.37-.454.013.152.606-2.783 1.695-3.877 1.439-.44-.103-.575-.084-.3.042 1.104.507-.395 1.693-1.8 1.424-.275-.053-.5.102-.5.345s-.18.33-.4.194c-.22-.136-.4-.073-.4.141 0 .214-.299.344-.664.291-.365-.054-1.4.268-2.3.715-.9.447-1.783.773-1.962.724-.179-.048-.853.287-1.497.746-.644.458-1.365.714-1.601.568-.238-.147-.527.107-.648.57-.121.46-.366.745-.546.634-.18-.111-.433-.03-.563.18-.13.21-.588.314-1.018.231-.474-.091-1.074.221-1.525.794-.413.525-1.389 1.066-2.196 1.217-.798.15-1.439.389-1.423.531.14 1.227-.593 2.059-1.272 1.445-.661-.599-.733-.582-.993.237-.218.689-.356.761-.63.329-.26-.412-.351-.323-.356.347-.004.635.229.9.794.9.44 0 .8.18.8.4 0 .22.54.4 1.2.4.66 0 1.2.172 1.2.382 0 .21.63.5 1.4.644.77.145 1.4.423 1.4.619 0 .195.54.355 1.2.355.66 0 1.2.18 1.2.4 0 .22.36.4.8.4.44 0 .8.18.8.4 0 .22.36.4.8.4.44 0 .8.18.8.4 0 .22.54.4 1.2.4.66 0 1.2.18 1.2.4 0 .22.36.4.8.4.44 0 .8.18.8.4 0 .22.36.4.8.4.44 0 .8.18.8.4 0 .22.54.4 1.2.4.66 0 1.2.18 1.2.4 0 .22.27.4.6.4.33 0 .6.18.6.4 0 .22.36.4.8.4.44 0 .8.18.8.4 0 .22.54.4 1.2.4.66 0 1.2.18 1.2.4 0 .22.36.4.8.4.44 0 .8.18.8.4 0 .22.36.4.8.4.44 0 .8.18.8.4 0 .22.54.4 1.2.4.66 0 1.2.18 1.2.4 0 .22.36.4.8.4.44 0 .8.18.8.4 0 .22.36.4.8.4.44 0 .8.18.8.4 0 .22.54.4 1.2.4.66 0 1.2.18 1.2.4 0 .22.27.4.6.4.33 0 .6.18.6.4 0 .22.36.4.8.4.44 0 .8.18.8.4 0 .22.54.4 1.2.4.66 0 1.2.164 1.2.365 0 .201.72.486 1.6.635.88.149 1.6.434 1.6.635s.54.365 1.2.365c.66 0 1.2.18 1.2.4 0 .22.36.4.8.4.44 0 .8.18.8.4 0 .22.36.4.8.4.44 0 .8.18.8.4 0 .22.54.4 1.2.4.66 0 1.2.18 1.2.4 0 .22.36.4.8.4.44 0 .8.18.8.4 0 .22.27.4.6.4.33 0 .6.18.6.4 0 .22.54.4 1.2.4.66 0 1.2.18 1.2.4 0 .22.36.4.8.4.44 0 .8.18.8.4 0 .22.36.4.8.4.44 0 .8.18.8.4 0 .22.54.4 1.2.4.66 0 1.2.18 1.2.4 0 .22.36.4.8.4.44 0 .8.18.8.4 0 .22.36.4.8.4.44 0 .8.18.8.4 0 .22.54.4 1.2.4.66 0 1.2.18 1.2.4 0 .22.36.4.8.4.44 0 .8.18.8.4 0 .22.27.4.6.4.33 0 .6.18.6.4 0 .22.54.4 1.2.4.66 0 1.2.18 1.2.4 0 .22.36.4.8.4.44 0 .8.18.8.4 0 .22.36.4.8.4.44 0 .8.18.8.4 0 .22.54.4 1.2.4.66 0 1.2.164 1.2.365 0 .201.72.486 1.6.635.88.149 1.6.434 1.6.635s.54.365 1.2.365c.66 0 1.2.18 1.2.4 0 .22.36.4.8.4.44 0 .8.18.8.4 0 .22.27.4.6.4.33 0 .6.18.6.4 0 .22.54.4 1.2.4.66 0 1.2.18 1.2.4 0 .22.36.4.8.4.44 0 .8.18.8.4 0 .22.36.4.8.4.44 0 .8.18.8.4 0 .22.54.4 1.2.4.66 0 1.2.18 1.2.4 0 .22.36.4.8.4.44 0 .8.18.8.4 0 .22.36.4.8.4.44 0 .8.18.8.4 0 .22.54.4 1.2.4.66 0 1.2.18 1.2.4 0 .22.36.4.8.4.44 0 .8.18.8.4 0 .22.27.4.6.4.33 0 .6.18.6.4 0 .22.54.4 1.2.4.66 0 1.2.18 1.2.4 0 .22.36.4.8.4.44 0 .8.18.8.4 0 .22.36.4.8.4.44 0 .8.18.8.4 0 .22.54.4 1.2.4.66 0 1.2.18 1.2.4 0 .22.36.4.8.4.44 0 .8.18.8.4 0 .22.36.4.8.4.44 0 .8.18.8.4 0 .22.54.4 1.2.4.66 0 1.2.18 1.2.4 0 .22.345.4.767.4.421 0 .83.192.908.426.078.234.903.528 1.834.652.93.125 1.691.384 1.691.575 0 .191.36.347.8.347.44 0 .8.18.8.4 0 .22.36.4.8.4.44 0 .8.18.8.4 0 .22.54.4 1.2.4.66 0 1.2.18 1.2.4 0 .22.36.4.8.4.44 0 .8.18.8.4 0 .22.36.4.8.4.44 0 .8.18.8.4 0 .22.54.4 1.2.4.66 0 1.2.18 1.2.4 0 .22.36.4.8.4.44 0 .8.18.8.4 0 .22.27.4.6.4.33 0 .6.18.6.4 0 .22.54.4 1.2.4.66 0 1.2.18 1.2.4 0 .22.36.4.8.4.44 0 .8.18.8.4 0 .22.36.4.8.4.44 0 .8.18.8.4 0 .22.54.4 1.2.4.66 0 1.2.18 1.2.4 0 .22.36.4.8.4.44 0 .8.18.8.4 0 .22.36.4.8.4.44 0 .8.18.8.4 0 .22.54.4 1.2.4.66 0 1.2.18 1.2.4 0 .22.36.4.8.4.44 0 .8.18.8.4 0 .22.36.4.8.4.44 0 .8.18.8.4 0 .22.45.4 1 .4s1 .18 1 .4c0 .22.36.4.8.4.44 0 .8.174.8.386 0 .213.9.506 2 .652 1.1.146 2 .422 2 .614 0 .191.36.348.8.348.44 0 .8.18.8.4 0 .22.36.4.8.4.44 0 .8.18.8.4 0 .22.54.4 1.2.4.66 0 1.2.18 1.2.4 0 .22.36.4.8.4.44 0 .8.18.8.4 0 .22.36.4.8.4.44 0 .8.18.8.4 0 .22.45.4 1 .4s1 .18 1 .4c0 .22.36.4.8.4.44 0 .8.18.8.4 0 .22.36.4.8.4.44 0 .8.18.8.4 0 .22.54.4 1.2.4.66 0 1.2.18 1.2.4 0 .22.36.4.8.4.44 0 .8.18.8.4 0 .22.36.4.8.4.44 0 .8.18.8.4 0 .22.54.4 1.2.4.66 0 1.2.18 1.2.4 0 .22.36.4.8.4.44 0 .8.18.8.4 0 .22.36.4.8.4.44 0 .8.18.8.4 0 .22.45.4 1 .4s1 .18 1 .4c0 .22.36.4.8.4.44 0 .8.18.8.4 0 .22.36.4.8.4.44 0 .8.18.8.4 0 .22.54.4 1.2.4.66 0 1.2.18 1.2.4 0 .22.36.4.8.4.44 0 .8.174.8.386 0 .213.9.506 2 .652 1.1.146 2 .422 2 .614 0 .191.36.348.8.348.44 0 .8.18.8.4 0 .22.36.4.8.4.44 0 .8.18.8.4 0 .22.45.4 1 .4s1 .18 1 .4c0 .22.36.4.8.4.44 0 .8.18.8.4 0 .22.36.4.8.4.44 0 .8.18.8.4 0 .22.54.4 1.2.4.66 0 1.2.18 1.2.4 0 .22.36.4.8.4.44 0 .8.18.8.4 0 .22.36.4.8.4.44 0 .8.18.8.4 0 .22.54.4 1.2.4.66 0 1.2.18 1.2.4 0 .22.36.4.8.4.44 0 .8.18.8.4 0 .22.36.4.8.4.44 0 .8.18.8.4 0 .22.45.4 1 .4s1 .18 1 .4c0 .22.36.4.8.4.44 0 .8.18.8.4 0 .22.36.4.8.4.44 0 .8.18.8.4 0 .22.54.4 1.2.4.66 0 1.2.18 1.2.4 0 .22.36.4.8.4.44 0 .8.18.8.4 0 .22.36.4.8.4.44 0 .8.18.8.4 0 .22.54.4 1.2.4.66 0 1.2.18 1.2.4 0 .22.36.4.8.4.44 0 .8.18.8.4 0 .22.36.4.8.4.44 0 .8.16.8.355 0 .195.81.476 1.8.624.99.149 1.8.439 1.8.646 0 .206.36.375.8.375.44 0 .8.18.8.4 0 .22.54.4 1.2.4.66 0 1.2.18 1.2.4 0 .22.36.4.8.4.44 0 .8.18.8.4 0 .22.36.4.8.4.44 0 .8.18.8.4 0 .22.54.4 1.2.4.66 0 1.2.18 1.2.4 0 .22.36.4.8.4.44 0 .8.18.8.4 0 .22.36.4.8.4.44 0 .8.18.8.4 0 .22.45.4 1 .4s1 .18 1 .4c0 .22.36.4.8.4.44 0 .8.18.8.4 0 .22.36.4.8.4.44 0 .8.18.8.4 0 .22.54.4 1.2.4.66 0 1.2.18 1.2.4 0 .22.36.4.8.4.44 0 .8.18.8.4 0 .22.36.4.8.4.44 0 .8.18.8.4 0 .22.54.4 1.2.4.66 0 1.2.18 1.2.4 0 .22.36.4.8.4.44 0 .8.18.8.4 0 .22.36.4.8.4.44 0 .8.18.8.4 0 .22.45.4 1 .4s1 .18 1 .4c0 .22.36.4.8.4.44 0 .8.18.8.4 0 .22.36.4.8.4.44 0 .8.157.8.348 0 .192.9.468 2 .614 1.1.146 2 .439 2 .652 0 .212.36.386.8.386.44 0 .8.18.8.4 0 .22.54.4 1.2.4.66 0 1.2.18 1.2.4 0 .22.36.4.8.4.44 0 .8.18.8.4 0 .22.36.4.8.4.44 0 .8.18.8.4 0 .22.45.4 1 .4s1 .193 1 .429.315.369.7.295c.77-.148.965-1.154.313-1.618-.238-.169-.107-.296.311-.3.398-.003.617-.178.487-.389-.13-.21-.463-.295-.74-.189-.368.141-.489-.349-.45-1.82.034-1.249-.148-2.181-.479-2.456-.293-.243-.438-.597-.321-.786.116-.188-.081-.908-.438-1.598-.357-.691-.454-1.136-.216-.988.65.401.521-.035-.232-.788-.562-.562-.577-.72-.1-1.022.449-.285.412-.359-.182-.364-.548-.004-.691-.218-.537-.807.115-.44.042-.697-.162-.571-.204.127-.33-.305-.281-.959.05-.654-.132-1.458-.405-1.787-.273-.329-.462-.752-.42-.94.041-.188-.222-1.011-.586-1.829-.364-.818-.662-1.684-.662-1.924s-.141-.349-.314-.242c-.302.187-.382-.147-.563-2.359-.051-.622-.275-.938-.581-.821-.347.133-.453-.169-.349-.994.084-.664-.013-1.084-.221-.955-.205.126-.372-.165-.372-.647 0-.483-.315-1.168-.7-1.524-.691-.639-.916-1.195-1.015-2.516-.028-.371-.194-.587-.368-.48-.305.189-.482-.708-.347-1.751.036-.275-.202-.5-.529-.5-.38 0-.539-.29-.441-.8.085-.44-.009-.8-.209-.8-.2 0-.567-.382-.817-.848-.367-.686-.351-.789.086-.536.297.172.151-.121-.325-.651-.476-.531-.926-1.325-1-1.765-.074-.44-.362-1.04-.639-1.332-.277-.293-.398-.702-.27-.91.128-.208-.005-.328-.296-.268-.292.061-.485-.115-.43-.39.055-.275-.08-.5-.3-.5-.22 0-.4-.36-.4-.8 0-.44-.191-.8-.424-.8-.233 0-.332-.148-.22-.329.112-.18-.155-.635-.594-1.01-.438-.375-.688-.858-.555-1.072.132-.214.03-.389-.226-.389-.257 0-.363-.27-.236-.6.136-.354.004-.6-.32-.6-.355 0-.475-.287-.339-.806.163-.626.062-.749-.454-.551-.366.14-.638.098-.605-.094.1-.587-.501-2.149-.827-2.149-.169 0-.406-.378-.526-.84-.14-.535-.398-.731-.709-.538-.28.173-.386.135-.248-.088.133-.215-.106-.963-.532-1.662-.529-.871-.617-1.28-.279-1.297.272-.014.128-.174-.32-.356-.804-.326-2.889-3.855-2.676-4.53.06-.192-.06-.243-.268-.115-.443.274-1.735-.9-1.467-1.333.1-.163-.168-.548-.596-.856-.429-.309-.779-.982-.779-1.497 0-.514-.147-.844-.327-.733-.18.111-.585-.17-.9-.625-.315-.456-.809-1.075-1.099-1.376-.289-.301-.413-.729-.276-.951.137-.222-.031-.403-.374-.403-.343 0-.624-.259-.624-.576 0-.317-.208-.705-.462-.862-.303-.188-.362-.093-.17.276.16.309.014.22-.326-.197-.339-.417-.516-.922-.392-1.121.123-.199-.15-.686-.606-1.082-.456-.395-.698-.875-.537-1.065.161-.191-.032-.097-.43.208-.397.305-.693.389-.656.187.14-.784-.541-2.168-1.068-2.168-.304 0-.553-.165-.553-.367 0-.202-.72-1.117-1.6-2.033-.88-.916-1.6-1.901-1.6-2.19 0-.288-.27-.628-.6-.755-.33-.126-.614-.641-.632-1.142-.017-.502-.118-.699-.224-.438-.139.339-.408.291-.948-.172-.415-.355-.664-.794-.552-.974.112-.181.009-.329-.229-.329-.238 0-.637-.45-.888-1-.25-.55-.648-1-.882-1-.498 0-3.638-3.268-3.532-3.676.039-.151-.276-.385-.701-.52-.424-.135-.882-.596-1.018-1.024-.137-.429-.426-.78-.644-.78-.218 0-1.239-.855-2.269-1.9-1.031-1.045-1.965-1.866-2.077-1.823-.112.042-.18-.176-.151-.485.029-.308-.061-.539-.2-.513-.603.114-1.653-.613-1.653-1.145 0-.342-.193-.462-.468-.292-.317.196-.383.069-.205-.397.145-.378.099-.585-.101-.461-.201.124-.95-.308-1.664-.96-.715-.653-1.448-1.094-1.631-.982-.182.113-.331-.085-.331-.439 0-.358-.539-.833-1.213-1.067-.984-.343-1.124-.53-.743-.989.373-.45.347-.519-.127-.337-.342.132-1.004-.201-1.556-.784-.529-.557-1.104-1.015-1.278-1.019-.489-.011-2.083-1.601-1.658-1.654.206-.026-.165-.162-.825-.301-.681-.144-1.364-.627-1.579-1.117-.209-.474-.983-1.15-1.722-1.502-.738-.352-1.242-.802-1.12-.999.122-.198-.169-.257-.646-.132-.686.179-.815.089-.615-.433.139-.363.125-.64-.032-.617-.764.114-1.268-.148-2.439-1.268-.706-.674-1.475-1.09-1.728-.934-.311.192-.363.042-.166-.472.159-.415.165-.629.012-.476-.307.307-2.303-.713-3.528-1.802-.434-.385-1.069-.703-1.412-.706-.55-.006-.553-.053-.025-.394.489-.316.439-.389-.267-.394-1.134-.008-2.174-.416-1.957-.768.095-.153-.195-.507-.644-.787-.67-.419-.767-.415-.544.019.149.292-.012.181-.358-.246-.347-.428-.636-.608-.643-.4-.007.207-.26.049-.563-.351-.303-.399-.658-.714-.788-.7-.823.093-1.049-.029-.8-.431.199-.323-.031-.38-.776-.193-.779.196-1.06.114-1.06-.31 0-.316-.542-.694-1.203-.84-.662-.145-1.102-.429-.977-.632.125-.202-.143-.367-.596-.367-.453 0-.824-.18-.824-.4 0-.22-.45-.4-1-.4s-1-.18-1-.4c0-.22-.27-.4-.6-.4-.33 0-.6-.18-.6-.4 0-.22-.36-.4-.8-.4-.44 0-.8-.18-.8-.4 0-.22-.248-.4-.551-.4-.303 0-.765-.257-1.026-.572-.261-.315-.828-.504-1.259-.421-.432.083-.68-.019-.551-.228.129-.208-.046-.379-.389-.379-1.027 0-1.18-.056-2.286-.844-.584-.416-1.259-.756-1.5-.756-.241 0-.438-.18-.438-.4 0-.22-.439-.4-.976-.4-.537 0-1.088-.18-1.224-.4-.136-.22-.597-.4-1.024-.4-.427 0-.776-.141-.776-.312 0-.457-2.447-1.306-2.92-1.014-.222.137-.287.061-.144-.17.313-.507-.832-1.016-1.44-.64-.268.166-.341.031-.194-.353.18-.469.04-.569-.573-.408-.458.119-.958-.026-1.148-.333-.185-.3-.897-.557-1.581-.57-.684-.013-1.369-.22-1.522-.458-.262-.41-1.542-.942-2.878-1.198-3.001-.575-3.786-.798-3.7-1.051.232-.68.059-.849-.3-.293-.213.33-.391.4-.394.155-.003-.245-.457-.395-1.008-.335-.551.06-.9-.054-.776-.255s-.325-.365-.998-.365S258 8.22 258 8c0-.22-.529-.4-1.176-.4-.647 0-1.265-.142-1.372-.316-.108-.174-.883-.362-1.724-.418-.84-.055-1.588-.273-1.661-.484-.074-.21-.659-.382-1.3-.382-.642 0-1.167-.161-1.167-.358 0-.335-.585-.465-4.9-1.087-.935-.135-1.88-.381-2.1-.547-.22-.167-1.012-.315-1.761-.33-.748-.016-1.468-.185-1.6-.377-.131-.192-1.136-.399-2.232-.461-1.097-.061-2.3-.276-2.674-.476-.374-.2-1.502-.364-2.507-.364-1.004 0-1.826-.15-1.826-.334 0-.183-1.19-.339-2.643-.346-1.454-.007-2.763-.207-2.91-.444-.153-.247-1.471-.415-3.101-.395-1.559.019-3.003-.069-3.209-.196-.464-.287-36.351-.337-36.637-.051M100 26.4c0 .22.191.4.424.4.233 0 .288.225.123.5-.204.34-.084.324.376-.049.733-.594.928-1.053.277-.651-.22.136-.4.057-.4-.176 0-.233-.18-.424-.4-.424-.22 0-.4.18-.4.4m185.4 94.8c-.155.25.67.4 2.2.4 1.53 0 2.355-.15 2.2-.4-.136-.22-1.126-.4-2.2-.4-1.074 0-2.064.18-2.2.4m-5 .8c0 .501.424.501 1.2 0 .485-.314.428-.389-.3-.394-.495-.003-.9.174-.9.394m14.794 1.182c.547.42 1.074.684 1.171.587.226-.227-1.236-1.342-1.765-1.347-.22-.002.047.339.594.76m-34.794 5.885c-2.47.838-9.965 3.901-9.844 4.023.083.083 2.19-.668 4.68-1.67 2.491-1.001 4.751-1.82 5.023-1.82.272 0 .605-.18.741-.4.136-.22.192-.386.124-.368-.068.017-.394.123-.724.235m39.348 3.674c-.032 2.107.074 3.146.272 2.659.413-1.021.477-5.694.08-5.936-.165-.1-.323 1.374-.352 3.277m-.476 8.309c-.04.688-.174 1.857-.299 2.6-.184 1.099-.143 1.219.222.647.247-.387.381-1.557.299-2.6-.093-1.173-.177-1.42-.222-.647m-.813 7.35c-.039.55-.17 1.45-.292 2-.191.862-.159.902.23.291.249-.389.38-1.289.292-2-.125-1.004-.176-1.069-.23-.291m95.7 4.3c.159.275.098.5-.135.5s-.424.18-.424.4c0 .22.254.4.565.4.596 0 .628-.961.049-1.488-.188-.172-.213-.087-.055.188m-96.505 1.9c-.035.44-.165 1.25-.287 1.8-.192.863-.16.903.231.29.249-.391.379-1.201.288-1.8-.108-.711-.189-.811-.232-.29m-.8 5.867c-.029.367-.17.997-.313 1.4-.2.566-.146.629.234.279.271-.249.412-.879.313-1.4-.098-.52-.204-.646-.234-.279m-.8 5.2c-.029.367-.17.997-.313 1.4-.2.566-.146.629.234.279.271-.249.412-.879.313-1.4-.098-.52-.204-.646-.234-.279m-56.19 5.004c.255.182.55.871.656 1.53.177 1.098.188 1.084.136-.17-.034-.843-.287-1.431-.656-1.531-.405-.109-.449-.053-.136.171m55.39.596c-.029.367-.17.997-.313 1.4-.2.566-.146.629.234.279.271-.249.412-.879.313-1.4-.098-.52-.204-.646-.234-.279m-.808 5.6c-.025.367-.15.997-.276 1.4-.218.695-.207.696.227.02.251-.391.376-1.021.276-1.4-.162-.619-.185-.621-.227-.02"/>
    <path fill="#2cacdc" d="M124.457 13.956c-.941.597.106.8 1.148.223.881-.487.903-.552.195-.559-.44-.004-1.044.147-1.343.336m-2.025 1.144c.019.422.112.501.234.198.111-.277.367-.401.568-.277.201.124.366.036.366-.197s-.27-.424-.6-.424c-.33 0-.586.315-.568.7m-9.539 3.88c-1.472.813-1.267 1.217.307.603.11-.043.335-.056.5-.03.165.026.3-.223.3-.553 0-.33-.045-.582-.1-.561-.055.022-.508.265-1.007.541m-3.047 1.645c-.132.344-.379.54-.548.436-.169-.105-.665.076-1.102.401-.748.555-.724.573.404.298.66-.161 1.419-.578 1.687-.926.437-.569.489-.56.5.09.007.401.2.608.432.464.287-.177.272-.438-.049-.824-.608-.733-1.027-.714-1.324.061m-4.129 2.355c-.378.43-.377.638.005.955.351.292.615.135.945-.565.52-1.102-.1-1.357-.95-.39m-1.579.837c-.13.34-.125.73.013.867.137.137.249.029.249-.241s.178-.38.395-.246c.227.14.294-.02.158-.376-.301-.784-.515-.785-.815-.004m-1.338.583c0 .22-.315.413-.7.428-.599.024-.584.078.1.372.649.279.527.349-.645.372-1.004.019-1.768.351-2.5 1.083-.58.58-1.055.936-1.055.791 0-.144-.72.105-1.6.554-.88.449-1.6.989-1.6 1.201 0 .211-.45.497-1 .635s-1 .411-1 .607c0 .197-.32.357-.712.357-.391 0-.964.35-1.273.779-.308.428-.688.7-.843.604-.155-.096-.504.094-.776.421-.272.328-.676.596-.899.596-.223 0-.812.439-1.309.975-.497.537-1.013.867-1.146.734s-.242-.032-.242.224c0 .257-.225.467-.5.467-.275.001-.98.406-1.566.9-2.4 2.025-2.751 2.3-2.934 2.3-.22 0-1.363.926-3.081 2.498-.66.605-1.39.982-1.621.839-.247-.153-.303-.069-.136.201.157.254.103.462-.12.462-.369 0-1.125.618-3.456 2.828-.448.425-1.003.772-1.234.772-.231 0-.899.495-1.485 1.1-1.984 2.048-3.354 3.3-3.609 3.3-.764 0-16.32 16.205-15.93 16.594.113.113-.016.206-.287.206-.569 0-2.69 2.405-2.541 2.881.055.176-.17.319-.5.319-.33 0-.6.152-.6.339 0 .298-.437.9-1.993 2.744-.224.266-.407.582-.407.704 0 .121-.437.713-.972 1.316-2.276 2.568-3.027 3.516-3.028 3.826 0 .18-.225.579-.5.886-.958 1.067-2.093 2.729-2.58 3.776-.152.325-.691.976-1.198 1.446s-.922 1.059-.922 1.309-.315.468-.7.486c-.463.02-.521.103-.172.242.384.154.3.371-.307.796-.459.322-.74.738-.624.925.116.187-.073.624-.419.97s-.5.838-.342 1.094c.169.272.114.357-.132.206-.233-.144-.53.183-.669.738-.138.548-.472 1-.743 1.003-.318.004-.28.143.108.394.443.286.462.389.071.394-.863.01-1.654 1.058-1.479 1.963.089.464-.018.843-.239.843-.22 0-.297.168-.17.372.126.205.044.488-.183.628-.227.14-.317.41-.2.6.117.19.03.458-.193.596-.224.138-.407.601-.407 1.028 0 .427-.18.776-.4.776-.22 0-.4.18-.4.4 0 .22.54.4 1.2.4.66 0 1.2.18 1.2.4 0 .22.36.4.8.4.44 0 .8.18.8.4 0 .22.36.4.8.4.44 0 .8.18.8.4 0 .22.54.4 1.2.4.66 0 1.2.18 1.2.4 0 .22.36.4.8.4.44 0 .8.18.8.4 0 .22.36.4.8.4.44 0 .8.18.8.4 0 .22.54.4 1.2.4.66 0 1.2.18 1.2.4 0 .22.27.4.6.4.33 0 .6.18.6.4 0 .22.36.4.8.4.44 0 .8.18.8.4 0 .22.54.4 1.2.4.66 0 1.2.164 1.2.365 0 .201.72.486 1.6.635.88.149 1.6.434 1.6.635s.54.365 1.2.365c.66 0 1.2.18 1.2.4 0 .22.36.4.8.4.44 0 .8.18.8.4 0 .22.36.4.8.4.44 0 .8.18.8.4 0 .22.54.4 1.2.4.66 0 1.2.18 1.2.4 0 .22.36.4.8.4.44 0 .8.18.8.4 0 .22.27.4.6.4.33 0 .6.18.6.4 0 .22.54.4 1.2.4.66 0 1.2.18 1.2.4 0 .22.36.4.8.4.44 0 .8.18.8.4 0 .22.36.4.8.4.44 0 .8.18.8.4 0 .22.54.4 1.2.4.66 0 1.2.18 1.2.4 0 .22.36.4.8.4.44 0 .8.18.8.4 0 .22.36.4.8.4.44 0 .8.18.8.4 0 .22.54.4 1.2.4.66 0 1.2.18 1.2.4 0 .22.36.4.8.4.44 0 .8.18.8.4 0 .22.27.4.6.4.33 0 .6.18.6.4 0 .22.54.4 1.2.4.66 0 1.2.18 1.2.4 0 .22.36.4.8.4.44 0 .8.18.8.4 0 .22.36.4.8.4.44 0 .8.18.8.4 0 .22.54.4 1.2.4.66 0 1.2.18 1.2.4 0 .22.36.4.8.4.44 0 .8.174.8.386 0 .213.9.506 2 .652 1.1.146 2 .422 2 .614 0 .191.36.348.8.348.44 0 .8.18.8.4 0 .22.27.4.6.4.33 0 .6.18.6.4 0 .22.54.4 1.2.4.66 0 1.2.18 1.2.4 0 .22.36.4.8.4.44 0 .8.18.8.4 0 .22.36.4.8.4.44 0 .8.18.8.4 0 .22.54.4 1.2.4.66 0 1.2.18 1.2.4 0 .22.36.4.8.4.44 0 .8.18.8.4 0 .22.36.4.8.4.44 0 .8.18.8.4 0 .22.54.4 1.2.4.66 0 1.2.18 1.2.4 0 .22.36.4.8.4.44 0 .8.18.8.4 0 .22.27.4.6.4.33 0 .6.18.6.4 0 .22.54.4 1.2.4.66 0 1.2.18 1.2.4 0 .22.36.4.8.4.44 0 .8.18.8.4 0 .22.36.4.8.4.44 0 .8.18.8.4 0 .22.54.4 1.2.4.66 0 1.2.18 1.2.4 0 .22.36.4.8.4.44 0 .8.18.8.4 0 .22.36.4.8.4.44 0 .8.18.8.4 0 .22.54.4 1.2.4.66 0 1.2.18 1.2.4 0 .22.345.4.767.4.421 0 .83.192.908.426.078.234.903.528 1.834.652.93.125 1.691.384 1.691.575 0 .191.36.347.8.347.44 0 .8.18.8.4 0 .22.36.4.8.4.44 0 .8.18.8.4 0 .22.54.4 1.2.4.66 0 1.2.18 1.2.4 0 .22.36.4.8.4.44 0 .8.18.8.4 0 .22.36.4.8.4.44 0 .8.18.8.4 0 .22.54.4 1.2.4.66 0 1.2.18 1.2.4 0 .22.36.4.8.4.44 0 .8.18.8.4 0 .22.27.4.6.4.33 0 .6.18.6.4 0 .22.54.4 1.2.4.66 0 1.2.18 1.2.4 0 .22.36.4.8.4.44 0 .8.18.8.4 0 .22.36.4.8.4.44 0 .8.18.8.4 0 .22.54.4 1.2.4.66 0 1.2.18 1.2.4 0 .22.36.4.8.4.44 0 .8.18.8.4 0 .22.36.4.8.4.44 0 .8.18.8.4 0 .22.54.4 1.2.4.66 0 1.2.18 1.2.4 0 .22.36.4.8.4.44 0 .8.18.8.4 0 .22.36.4.8.4.44 0 .8.18.8.4 0 .22.45.4 1 .4s1 .18 1 .4c0 .22.36.4.8.4.44 0 .8.174.8.386 0 .213.9.506 2 .652 1.1.146 2 .422 2 .614 0 .191.36.348.8.348.44 0 .8.18.8.4 0 .22.36.4.8.4.44 0 .8.18.8.4 0 .22.54.4 1.2.4.66 0 1.2.18 1.2.4 0 .22.345.4.767.4.421 0 .832.196.912.436.143.43.384.348 5.121-1.743.99-.437 2.205-.952 2.7-1.144 1.834-.712 3.119-1.252 3.795-1.596.382-.194.967-.353 1.3-.353.333 0 .605-.18.605-.4 0-.22.343-.4.762-.4s1.544-.386 2.5-.857 2.098-.993 2.538-1.16c.44-.167 1.653-.681 2.696-1.143 1.042-.462 1.989-.84 2.104-.84.115 0 1.062-.378 2.104-.84 1.043-.462 2.256-.983 2.696-1.159.44-.176 1.43-.593 2.2-.927.77-.334 3.74-1.529 6.6-2.654 2.86-1.125 5.605-2.22 6.1-2.433.983-.423 2.397-.994 3.8-1.533.495-.191 1.395-.551 2-.8.605-.25 1.55-.634 2.1-.854l2-.8c2.447-.979 3.245-1.316 3.895-1.647.382-.194.967-.353 1.3-.353.333 0 .605-.18.605-.4 0-.22.343-.4.762-.4s1.544-.386 2.5-.857 2.143-1.011 2.638-1.2c.495-.189 1.35-.523 1.9-.743l2-.8c.55-.22 1.495-.604 2.1-.854.605-.249 1.505-.609 2-.8.495-.19 1.305-.509 1.8-.709 4.816-1.941 11.368-4.44 11.64-4.438.346.001 2.698-.97 3.955-1.633.382-.201 1.057-.366 1.5-.366.443 0 .805-.18.805-.4 0-.22.439-.4.976-.4.537 0 1.088-.18 1.224-.4.136-.22.597-.4 1.024-.4.427 0 .776-.18.776-.4 0-.22.45-.4 1-.4s1-.18 1-.4c0-.22.439-.4.976-.4.537 0 1.088-.18 1.224-.4.136-.22.777-.4 1.424-.4.647 0 1.176-.18 1.176-.4 0-.22.72-.4 1.6-.4.88 0 1.6-.18 1.6-.4 0-.222 1.059-.4 2.376-.4 1.307 0 2.488-.18 2.624-.4.136-.22 1.126-.4 2.2-.4 1.074 0 2.064.18 2.2.4.136.22.946.4 1.8.4.854 0 1.664.18 1.8.4.136.22.568.4.96.4 1.41 0 5.24 4.323 5.24 5.915 0 .399.201.926.447 1.172.3.3.358 1.412.177 3.38-.149 1.613-.433 4.823-.633 7.133-.345 3.993-.635 6.507-1.596 13.8-.231 1.76-.52 4.28-.642 5.6-.121 1.32-.385 2.571-.587 2.78-.201.209-.366 1.413-.366 2.676 0 1.263-.18 2.408-.4 2.544-.22.136-.4 1.371-.4 2.744 0 1.373-.165 2.667-.366 2.876-.202.209-.468 1.46-.592 2.78-.124 1.32-.328 3.48-.452 4.8-.124 1.32-.389 2.76-.589 3.2-.199.44-.461 1.745-.582 2.9-.12 1.155-.318 3.045-.438 4.2-.121 1.155-.382 2.46-.581 2.9-.199.44-.454 1.7-.567 2.8-.197 1.926-.496 3.997-1.444 10-1.175 7.434-1.508 9.452-1.986 12-.682 3.645-.849 5.652-.415 5 .22-.33.403-1.329.406-2.22.003-.891.176-1.791.383-2 .207-.209.432-1.37.5-2.58.121-2.16.146-2.202 1.423-2.325.73-.071 1.3.061 1.3.3 0 .234.36.425.8.425.44 0 .8.18.8.4 0 .22.36.4.8.4.44 0 .8.18.8.4 0 .22.54.4 1.2.4.66 0 1.2.18 1.2.4 0 .22.36.4.8.4.44 0 .8.18.8.4 0 .22.36.4.8.4.44 0 .8.18.8.4 0 .22.54.4 1.2.4.66 0 1.2.18 1.2.4 0 .22.36.4.8.4.44 0 .8.18.8.4 0 .22.36.4.8.4.44 0 .8.18.8.4 0 .22.54.4 1.2.4.66 0 1.2.18 1.2.4 0 .22.27.4.6.4.33 0 .6.18.6.4 0 .22.36.4.8.4.44 0 .8.18.8.4 0 .22.54.4 1.2.4.66 0 1.2.18 1.2.4 0 .22.36.4.8.4.44 0 .8.18.8.4 0 .22.36.4.8.4.44 0 .8.18.8.4 0 .22.54.4 1.2.4.66 0 1.2.164 1.2.365 0 .201.72.486 1.6.635.88.149 1.6.434 1.6.635s.54.365 1.2.365c.66 0 1.2.18 1.2.4 0 .22.27.4.6.4.33 0 .6.18.6.4 0 .22.36.4.8.4.44 0 .8.18.8.4 0 .22.54.4 1.2.4.66 0 1.2.18 1.2.4 0 .22.36.4.8.4.44 0 .8.18.8.4 0 .22.36.4.8.4.44 0 .8.18.8.4 0 .22.54.4 1.2.4.66 0 1.2.18 1.2.4 0 .22.36.4.8.4.44 0 .8.18.8.4 0 .22.36.4.8.4.44 0 .8.18.8.4 0 .22.54.4 1.2.4.66 0 1.2.18 1.2.4 0 .22.27.4.6.4.33 0 .6.18.6.4 0 .22.36.4.8.4.44 0 .8.18.8.4 0 .22.54.4 1.2.4.66 0 1.2.18 1.2.4 0 .22.36.4.8.4.44 0 .8.18.8.4 0 .22.36.4.8.4.44 0 .8.18.8.4 0 .22.54.4 1.2.4.66 0 1.2.18 1.2.4 0 .22.36.4.8.4.44 0 .8.18.8.4 0 .22.36.4.8.4.44 0 .8.18.8.4 0 .22.54.4 1.2.4.66 0 1.2.172 1.2.382 0 .21.63.5 1.4.644.77.145 1.4.423 1.4.619 0 .195.54.355 1.2.355.66 0 1.2.18 1.2.4 0 .22.36.4.8.4.44 0 .8.18.8.4 0 .22.36.4.8.4.44 0 .8.18.8.4 0 .22.54.4 1.2.4.66 0 1.2.18 1.2.4 0 .22.36.4.8.4.44 0 .8.18.8.4 0 .22.36.4.8.4.44 0 .8.18.8.4 0 .22.54.4 1.2.4.66 0 1.2.18 1.2.4 0 .22.27.4.6.4.33 0 .6.18.6.4 0 .22.36.4.8.4.44 0 .8.18.8.4 0 .22.54.4 1.2.4.66 0 1.2.18 1.2.4 0 .22.36.4.8.4.44 0 .8.18.8.4 0 .22.36.4.8.4.44 0 .8.18.8.4 0 .22.54.4 1.2.4.66 0 1.2.18 1.2.4 0 .22.36.4.8.4.44 0 .8.18.8.4 0 .22.36.4.8.4.44 0 .8.18.8.4 0 .22.54.4 1.2.4.66 0 1.2.195 1.2.433 0 .239.225.351.5.25.275-.101.457-.379.405-.619-.053-.239.142-.344.433-.232.301.115.529-.071.529-.432 0-.414-.221-.551-.634-.394-.507.194-.534.141-.133-.262.275-.277.5-.899.5-1.381 0-.483.281-.985.625-1.117s.526-.401.405-.598c-.122-.196.028-.564.333-.817s.469-.787.365-1.186c-.105-.399.111-1.027.48-1.396.368-.368.579-.906.468-1.196-.111-.289-.049-.773.138-1.076.2-.323.161-.766-.093-1.073-.335-.402-.284-.465.222-.27.522.2.657-.003.657-.991 0-.725.209-1.246.5-1.249.333-.004.3-.136-.1-.394-.33-.213-.405-.391-.167-.394.239-.003.451-.231.471-.506.021-.275.08-1.168.131-1.984.051-.816.227-1.402.389-1.301.163.101.296-.452.296-1.227 0-.775.243-1.709.54-2.076.458-.565.454-.614-.028-.323-.447.27-.496.18-.229-.423.186-.421.414-1.621.507-2.666.094-1.066.37-1.903.629-1.906.256-.004.194-.179-.139-.394-.33-.213-.407-.391-.171-.394.236-.003.471-.941.523-2.097.053-1.15.284-2.208.515-2.35.287-.178.279-.345-.024-.533-.244-.15-.443-.453-.443-.673 0-.22.161-.301.357-.179.882.545 1.108-44.297.239-47.374-.156-.55-.437-2.08-.624-3.4-.188-1.32-.541-3.57-.784-5-.243-1.43-.537-3.545-.652-4.7-.121-1.211-.407-2.1-.676-2.1-.307 0-.417-.618-.321-1.817.119-1.495-.016-1.956-.759-2.6-.496-.431-.695-.783-.441-.783.253 0 .461-.54.461-1.2 0-.778-.203-1.2-.576-1.2-.317 0-.705-.208-.862-.462-.177-.286-.11-.353.176-.176.637.393.613-1.851-.026-2.49-.269-.269-.5-1.069-.514-1.778-.019-.961-.225-1.32-.812-1.413-.455-.072-.612.012-.373.197.648.505.459 1.497-.313 1.646-.385.074-.7-.059-.7-.295s-.45-.429-1-.429-1-.18-1-.4c0-.22-.36-.4-.8-.4-.44 0-.8-.18-.8-.4 0-.22-.36-.4-.8-.4-.44 0-.8-.18-.8-.4 0-.22-.54-.4-1.2-.4-.66 0-1.2-.18-1.2-.4 0-.22-.36-.4-.8-.4-.44 0-.8-.174-.8-.386 0-.213-.9-.506-2-.652-1.1-.146-2-.422-2-.614 0-.191-.36-.348-.8-.348-.44 0-.8-.18-.8-.4 0-.22-.36-.4-.8-.4-.44 0-.8-.18-.8-.4 0-.22-.45-.4-1-.4s-1-.18-1-.4c0-.22-.36-.4-.8-.4-.44 0-.8-.18-.8-.4 0-.22-.36-.4-.8-.4-.44 0-.8-.18-.8-.4 0-.22-.54-.4-1.2-.4-.66 0-1.2-.18-1.2-.4 0-.22-.36-.4-.8-.4-.44 0-.8-.18-.8-.4 0-.22-.36-.4-.8-.4-.44 0-.8-.18-.8-.4 0-.22-.54-.4-1.2-.4-.66 0-1.2-.18-1.2-.4 0-.22-.36-.4-.8-.4-.44 0-.8-.18-.8-.4 0-.22-.36-.4-.8-.4-.44 0-.8-.18-.8-.4 0-.22-.45-.4-1-.4s-1-.18-1-.4c0-.22-.36-.4-.8-.4-.44 0-.8-.18-.8-.4 0-.22-.36-.4-.8-.4-.44 0-.8-.18-.8-.4 0-.22-.54-.4-1.2-.4-.66 0-1.2-.18-1.2-.4 0-.22-.36-.4-.8-.4-.44 0-.8-.18-.8-.4 0-.22-.36-.4-.8-.4-.44 0-.8-.18-.8-.4 0-.22-.54-.4-1.2-.4-.66 0-1.2-.18-1.2-.4 0-.22-.36-.4-.8-.4-.44 0-.8-.169-.8-.375 0-.207-.81-.497-1.8-.646-.99-.148-1.8-.429-1.8-.624s-.36-.355-.8-.355c-.44 0-.8-.18-.8-.4 0-.22-.36-.4-.8-.4-.44 0-.8-.18-.8-.4 0-.22-.54-.4-1.2-.4-.66 0-1.2-.18-1.2-.4 0-.22-.36-.4-.8-.4-.44 0-.8-.18-.8-.4 0-.22-.36-.4-.8-.4-.44 0-.8-.18-.8-.4 0-.22-.54-.4-1.2-.4-.66 0-1.2-.18-1.2-.4 0-.22-.36-.4-.8-.4-.44 0-.8-.18-.8-.4 0-.22-.36-.4-.8-.4-.44 0-.8-.18-.8-.4 0-.22-.45-.4-1-.4s-1-.18-1-.4c0-.22-.36-.4-.8-.4-.44 0-.8-.18-.8-.4 0-.22-.36-.4-.8-.4-.44 0-.8-.18-.8-.4 0-.22-.54-.4-1.2-.4-.66 0-1.2-.18-1.2-.4 0-.22-.36-.4-.8-.4-.44 0-.8-.18-.8-.4 0-.22-.36-.4-.8-.4-.44 0-.8-.18-.8-.4 0-.22-.54-.4-1.2-.4-.66 0-1.2-.18-1.2-.4 0-.22-.36-.4-.8-.4-.44 0-.8-.18-.8-.4 0-.22-.36-.4-.8-.4-.44 0-.8-.18-.8-.4 0-.22-.45-.4-1-.4s-1-.18-1-.4c0-.22-.36-.4-.8-.4-.44 0-.8-.18-.8-.4 0-.22-.36-.4-.8-.4-.44 0-.8-.157-.8-.348 0-.192-.9-.468-2-.614-1.1-.146-2-.439-2-.652 0-.212-.36-.386-.8-.386-.44 0-.8-.18-.8-.4 0-.22-.54-.4-1.2-.4-.66 0-1.2-.18-1.2-.4 0-.22-.36-.4-.8-.4-.44 0-.8-.18-.8-.4 0-.22-.36-.4-.8-.4-.44 0-.8-.18-.8-.4 0-.22-.45-.4-1-.4s-1-.18-1-.4c0-.22-.36-.4-.8-.4-.44 0-.8-.18-.8-.4 0-.22-.36-.4-.8-.4-.44 0-.8-.18-.8-.4 0-.22-.54-.4-1.2-.4-.66 0-1.2-.18-1.2-.4 0-.22-.36-.4-.8-.4-.44 0-.8-.18-.8-.4 0-.22-.36-.4-.8-.4-.44 0-.8-.18-.8-.4 0-.22-.54-.4-1.2-.4-.66 0-1.2-.18-1.2-.4 0-.22-.36-.4-.8-.4-.44 0-.8-.18-.8-.4 0-.22-.36-.4-.8-.4-.44 0-.8-.18-.8-.4 0-.22-.45-.4-1-.4s-1-.18-1-.4c0-.22-.36-.4-.8-.4-.44 0-.8-.18-.8-.4 0-.22-.36-.4-.8-.4-.44 0-.8-.18-.8-.4 0-.22-.54-.4-1.2-.4-.66 0-1.2-.18-1.2-.4 0-.22-.36-.4-.8-.4-.44 0-.8-.18-.8-.4 0-.22-.36-.4-.8-.4-.44 0-.8-.157-.8-.348 0-.192-.9-.468-2-.614-1.1-.146-2-.439-2-.652 0-.212-.36-.386-.8-.386-.44 0-.8-.18-.8-.4 0-.22-.45-.4-1-.4s-1-.18-1-.4c0-.22-.36-.4-.8-.4-.44 0-.8-.18-.8-.4 0-.22-.36-.4-.8-.4-.44 0-.8-.18-.8-.4 0-.22-.54-.4-1.2-.4-.66 0-1.2-.18-1.2-.4 0-.22-.36-.4-.8-.4-.44 0-.8-.18-.8-.4 0-.22-.36-.4-.8-.4-.44 0-.8-.18-.8-.4 0-.22-.54-.4-1.2-.4-.66 0-1.2-.18-1.2-.4 0-.22-.36-.4-.8-.4-.44 0-.8-.18-.8-.4 0-.22-.36-.4-.8-.4-.44 0-.8-.18-.8-.4 0-.22-.54-.4-1.2-.4-.66 0-1.2-.18-1.2-.4 0-.22-.27-.4-.6-.4-.33 0-.6-.18-.6-.4 0-.22-.36-.4-.8-.4-.44 0-.8-.18-.8-.4 0-.22-.54-.4-1.2-.4-.66 0-1.2-.18-1.2-.4 0-.22-.36-.4-.8-.4-.44 0-.8-.18-.8-.4 0-.22-.36-.4-.8-.4-.44 0-.8-.18-.8-.4 0-.22-.54-.4-1.2-.4-.66 0-1.2-.18-1.2-.4 0-.22-.36-.4-.8-.4-.44 0-.8-.18-.8-.4 0-.22-.36-.4-.8-.4-.44 0-.8-.156-.8-.347 0-.191-.761-.45-1.691-.575-.931-.124-1.756-.418-1.834-.652-.078-.234-.487-.426-.908-.426-.422 0-.767-.18-.767-.4 0-.22-.54-.4-1.2-.4-.66 0-1.2-.18-1.2-.4 0-.22-.36-.4-.8-.4-.44 0-.8-.18-.8-.4 0-.22-.36-.4-.8-.4-.44 0-.8-.18-.8-.4 0-.22-.54-.4-1.2-.4-.66 0-1.2-.18-1.2-.4 0-.22-.36-.4-.8-.4-.44 0-.8-.18-.8-.4 0-.22-.36-.4-.8-.4-.44 0-.8-.18-.8-.4 0-.22-.54-.4-1.2-.4-.66 0-1.2-.18-1.2-.4 0-.22-.27-.4-.6-.4-.33 0-.6-.18-.6-.4 0-.22-.36-.4-.8-.4-.44 0-.8-.18-.8-.4 0-.22-.54-.4-1.2-.4-.66 0-1.2-.18-1.2-.4 0-.22-.36-.4-.8-.4-.44 0-.8-.18-.8-.4 0-.22-.36-.4-.8-.4-.44 0-.8-.18-.8-.4 0-.22-.54-.4-1.2-.4-.66 0-1.2-.18-1.2-.4 0-.22-.36-.4-.8-.4-.44 0-.8-.18-.8-.4 0-.22-.36-.4-.8-.4-.44 0-.8-.18-.8-.4 0-.22-.54-.4-1.2-.4-.66 0-1.2-.18-1.2-.4 0-.22-.27-.4-.6-.4-.33 0-.6-.18-.6-.4 0-.22-.36-.4-.8-.4-.44 0-.8-.18-.8-.4 0-.22-.54-.4-1.2-.4-.66 0-1.2-.164-1.2-.365 0-.201-.72-.486-1.6-.635-.88-.149-1.6-.434-1.6-.635s-.54-.365-1.2-.365c-.66 0-1.2-.18-1.2-.4 0-.22-.36-.4-.8-.4-.44 0-.8-.18-.8-.4 0-.22-.36-.4-.8-.4-.44 0-.8-.18-.8-.4 0-.22-.54-.4-1.2-.4-.66 0-1.2-.18-1.2-.4 0-.22-.27-.4-.6-.4-.33 0-.6-.18-.6-.4 0-.22-.36-.4-.8-.4-.44 0-.8-.18-.8-.4 0-.22-.54-.4-1.2-.4-.66 0-1.2-.18-1.2-.4 0-.22-.36-.4-.8-.4-.44 0-.8-.18-.8-.4 0-.22-.36-.4-.8-.4-.44 0-.8-.18-.8-.4 0-.22-.54-.4-1.2-.4-.66 0-1.2-.18-1.2-.4 0-.22-.36-.4-.8-.4-.44 0-.8-.18-.8-.4 0-.22-.36-.4-.8-.4-.44 0-.8-.18-.8-.4 0-.22-.54-.4-1.2-.4-.66 0-1.2-.18-1.2-.4 0-.22-.27-.4-.6-.4-.33 0-.6-.18-.6-.4 0-.22-.36-.4-.8-.4-.44 0-.8-.18-.8-.4 0-.22-.54-.4-1.2-.4-.66 0-1.2-.18-1.2-.4 0-.22-.36-.4-.8-.4-.44 0-.8-.18-.8-.4 0-.22-.36-.4-.8-.4-.44 0-.8-.18-.8-.4 0-.22-.54-.4-1.2-.4-.66 0-1.2-.164-1.2-.365 0-.201-.72-.486-1.6-.635-.88-.149-1.6-.434-1.6-.635s-.54-.365-1.2-.365c-.66 0-1.2-.18-1.2-.4 0-.22-.36-.4-.8-.4-.44 0-.8-.18-.8-.4 0-.22-.27-.4-.6-.4-.33 0-.6-.18-.6-.4 0-.22-.54-.4-1.2-.4-.66 0-1.2-.18-1.2-.4 0-.22-.36-.4-.8-.4-.44 0-.8-.18-.8-.4 0-.22-.36-.4-.8-.4-.44 0-.8-.18-.8-.4 0-.22-.54-.4-1.2-.4-.66 0-1.2-.18-1.2-.4 0-.22-.36-.4-.8-.4-.44 0-.8-.18-.8-.4 0-.22-.36-.4-.8-.4-.44 0-.8-.18-.8-.4 0-.22-.54-.4-1.2-.4-.66 0-1.2-.18-1.2-.4 0-.22-.36-.4-.8-.4-.44 0-.8-.18-.8-.4 0-.22-.27-.4-.6-.4-.33 0-.6-.18-.6-.4 0-.22-.54-.4-1.2-.4-.66 0-1.2-.18-1.2-.4 0-.22-.36-.4-.8-.4-.44 0-.8-.18-.8-.4 0-.22-.36-.4-.8-.4-.44 0-.8-.18-.8-.4 0-.22-.54-.4-1.2-.4-.66 0-1.2-.18-1.2-.4 0-.22-.36-.4-.8-.4-.44 0-.8-.18-.8-.4 0-.22-.36-.4-.8-.4-.44 0-.8-.18-.8-.4 0-.22-.54-.4-1.2-.4-.66 0-1.2-.16-1.2-.355 0-.196-.63-.474-1.4-.619-.77-.144-1.4-.434-1.4-.644 0-.21-.54-.382-1.2-.382-.66 0-1.2-.18-1.2-.4 0-.22-.36-.4-.8-.4-.533 0-.8-.267-.8-.8 0-.44-.18-.8-.4-.8-.22 0-.4.18-.4.4m-2 2.024c0 .233.18.312.4.176.651-.402.456.057-.277.651-.46.373-.58.389-.376.049.165-.275.11-.5-.123-.5-.233 0-.424-.18-.424-.4 0-.22.18-.4.4-.4.22 0 .4.191.4.424m216.946 11.378c1.459.761 1.829.766.83.011-.427-.323-1.046-.592-1.376-.598-.33-.005-.084.259.546.587M334.4 50.883c0 .128.54.81 1.2 1.517.66.707 1.2 1.119 1.2.917 0-.202-.54-.885-1.2-1.517-.66-.632-1.2-1.045-1.2-.917m17.605 18.726c.233.435.59.791.795.791.204 0 .828.672 1.386 1.493.558.821 1.014 1.334 1.014 1.139 0-.522-2.517-3.764-3.109-4.006-.391-.16-.411-.023-.086.583m13.023 16.92c.103.269.548.713.989.989.74.462.763.439.301-.301-.563-.9-1.58-1.443-1.29-.688m5.344 7.818c.22.411.316.831.214.934-.102.102.053.186.345.186.412 0 .435-.208.1-.931-.237-.511-.572-.931-.745-.933-.173-.002-.134.333.086.744m-343.788 4.88c-.145.234-.168.522-.051.64.287.286 1.067-.219 1.067-.691 0-.511-.691-.477-1.016.051m362.621 34.806c.011 1.062.487 2.367.865 2.367.208 0 .266-.179.131-.398-.136-.22-.321-.784-.411-1.255-.198-1.027-.592-1.509-.585-.714m3.164 10.587c-.016.209-.091.695-.164 1.08-.074.385.036.7.243.7.61 0 .898-1.214.405-1.707-.249-.249-.467-.282-.484-.073M170.5 164.939c-.715.235-1.3.569-1.3.744 0 .174-.349.317-.776.317-.427 0-.9.199-1.05.443-.34.549.716.235 3.561-1.058 2.118-.963 1.882-1.206-.435-.446m67.087 5.877c-1.514.359-5.329 2.261-7.18 3.579-.622.443-1.328.805-1.569.805-.241 0-.438.18-.438.4 0 .22-.193.4-.428.4-.406 0-3.948 2.266-4.372 2.798-.181.227-3.761 2.713-10.753 7.466-1.404.955-2.448 1.736-2.319 1.736.552 0 2.272-.957 2.272-1.264 0-.185.236-.336.525-.336.288 0 .911-.36 1.383-.8.472-.44 1.012-.8 1.2-.8.188 0 .768-.397 1.289-.883.628-.585 1.002-.72 1.109-.4.088.266.686.483 1.327.483.642 0 1.167.18 1.167.4 0 .22.36.4.8.4.44 0 .8.18.8.4 0 .22.36.4.8.4.44 0 .8.18.8.4 0 .22.45.4 1 .4s1 .18 1 .4c0 .22.255.4.567.4.311 0 .656.225.765.5.204.513 10.493-9.599 12.172-11.962 1.378-1.94 1.029-6.173-.437-5.298-.037.022-.703.191-1.48.376m-29.033 18.452c-1.734 1.305-2.107 1.772-.754.944 2.132-1.306 2.787-1.812 2.343-1.812-.239 0-.954.391-1.589.868m15.114 2.059c-1.233 1.313-1.081 1.722.174.467.574-.573.964-1.121.869-1.217-.096-.095-.565.242-1.043.75m-3.753 3.567c-1.213 1.158-3.31 3.154-4.66 4.434-1.35 1.281-2.455 2.433-2.455 2.561 0 .128 1.039-.74 2.309-1.928 1.27-1.189 3.454-3.201 4.855-4.473 1.4-1.271 2.458-2.399 2.351-2.506-.107-.107-1.187.753-2.4 1.912m-18.086-1.065c-.424.309-.693.64-.599.734.094.094.518-.082.941-.392.424-.309.693-.64.599-.734-.094-.094-.518.082-.941.392M93.2 199.433c-.558.31-.735.552-.4.548.33-.003.949-.271 1.376-.594.963-.728.369-.7-.976.046m100.176.354c-.427.323-.596.588-.376.588.22 0 .749-.265 1.176-.588.428-.323.597-.587.377-.587-.22 0-.749.264-1.177.587m15.65 5.239c-1.286 1.207-2.267 2.267-2.178 2.355.088.089 1.217-.823 2.509-2.024 1.291-1.202 2.271-2.262 2.178-2.356-.094-.093-1.222.818-2.509 2.025m-9.426 8.677c-1.21 1.11-1.823 1.766-1.361 1.457 1.266-.845 3.865-3.191 3.703-3.342-.078-.073-1.132.775-2.342 1.885m-36.3 6.343c-1.363.873-1.805 1.46-.6.797.918-.504 2.356-1.616 2.1-1.624-.11-.003-.785.369-1.5.827m26.78 2.41c-1.165 1.121-2.065 2.092-1.999 2.158.065.066 1.158-.855 2.429-2.047 1.27-1.192 2.17-2.163 2-2.158-.171.004-1.264.926-2.43 2.047m96.784 3.611c-.035.587-.18 1.397-.323 1.8-.198.562-.145.628.229.284.274-.252.416-1.042.323-1.8-.134-1.098-.177-1.151-.229-.284M180.788 231.5l-2.588 2.7 2.7-2.588c1.485-1.424 2.7-2.639 2.7-2.7 0-.295-.407.08-2.812 2.588m105.276-.633c-.035.587-.18 1.397-.323 1.8-.198.562-.145.628.229.284.274-.252.416-1.042.323-1.8-.134-1.098-.177-1.151-.229-.284m-.81 5.2c-.029.367-.17.997-.313 1.4-.2.566-.146.629.234.279.271-.249.412-.879.313-1.4-.098-.52-.204-.646-.234-.279m-165.354.215c.495.096 1.305.096 1.8 0 .495-.095.09-.173-.9-.173s-1.395.078-.9.173m12.005.001c.497.096 1.217.092 1.6-.008.382-.1-.025-.179-.905-.174-.88.004-1.193.086-.695.182m-7.4.404c.609.092 1.509.09 2-.005.492-.095-.005-.171-1.105-.168-1.1.003-1.503.081-.895.173m159.847 4.426c-.131.794-.073 1.168.149.946.202-.202.3-.792.218-1.313-.126-.801-.182-.744-.367.367m-.692 3.954c-.033.477-.176 1.197-.319 1.6-.199.564-.146.629.231.282.27-.248.413-.968.319-1.6-.121-.81-.189-.893-.231-.282m-1.614 9.4c-.025.367-.15.997-.276 1.4-.218.695-.207.696.227.02.251-.391.376-1.021.276-1.4-.162-.619-.185-.621-.227-.02m108.254 7.009c-.898.234-.905 1.16-.012 1.502.378.146.564.141.414-.009-.151-.151-.094-.611.126-1.022.22-.411.349-.726.286-.701-.063.026-.429.129-.814.23m-110.654 6.791c-.025.257-.162.797-.305 1.2-.201.569-.147.63.238.275.273-.251.41-.791.305-1.2-.105-.408-.212-.532-.238-.275M234.8 300.146c0 .11.54.584 1.2 1.054.66.47 1.2.764 1.2.654 0-.11-.54-.584-1.2-1.054-.66-.47-1.2-.764-1.2-.654"/>
    <path fill="#7ac4e4" d="M281.6 122c-.33.213-1.037.391-1.572.394-.895.006-2.648.468-4.628 1.221-.44.167-1.43.521-2.2.785-.77.264-1.85.667-2.4.894-.55.227-1.405.569-1.9.76-.495.19-1.35.526-1.9.746-.55.22-1.405.556-1.9.746-.495.191-1.395.551-2 .8-.605.25-1.505.62-2 .823-.98.402-10.126 3.919-14.3 5.498-2.827 1.07-6.981 2.71-9.2 3.632-2.621 1.09-3.399 1.408-4.3 1.755-.495.19-1.305.502-1.8.692-2.233.86-3.011 1.195-4.638 1.997-.956.471-1.963.857-2.238.857-.276 0-1.024.257-1.663.57-.638.314-4.761 2.011-9.161 3.772-4.4 1.76-10.43 4.213-13.4 5.451-2.97 1.238-7.2 2.976-9.4 3.862-2.2.886-4.63 1.884-5.4 2.219-.77.334-1.805.769-2.3.967-.495.197-1.305.521-1.8.718-.886.354-2.648 1.1-5.2 2.203-1.148.495-4.554 1.92-17.5 7.317-5.086 2.121-5.636 2.355-7.696 3.274-1.042.466-1.999.847-2.125.847-.126 0-1.343.518-2.704 1.15-1.361.633-3.105 1.424-3.875 1.758-.77.334-2.3 1.006-3.4 1.492-1.805.798-3.256 1.426-5.6 2.421-.44.187-2.78 1.226-5.2 2.308-3.792 1.696-7.84 3.478-15.8 6.956-.99.432-3.06 1.378-4.6 2.102-1.54.723-3.79 1.773-5 2.333-4.133 1.911-20.993 10.259-24.583 12.172-11.195 5.964-9.72 10.628 5.383 17.022.77.326 2.253.974 3.296 1.439 1.042.466 2.08.847 2.305.847.225 0 .722.165 1.104.366 1.207.637 3.752 1.706 4.844 2.034.578.174 3.931 1.21 7.451 2.301 8.928 2.768 12.38 3.706 13.465 3.658 1.065-.046.966-.078-4.865-1.579-1.87-.481-4.39-1.191-5.6-1.577-1.21-.386-3.82-1.202-5.8-1.814-3.353-1.036-13.293-4.84-17.4-6.66-12.627-5.594-14.358-9.862-5.902-14.549 3.538-1.961 21.362-10.875 25.902-12.954 2.09-.957 5.15-2.362 6.8-3.123 3.681-1.696 5.77-2.636 7.6-3.419 1.731-.741 5.89-2.58 10.4-4.598.99-.443 5.4-2.373 9.8-4.288s8.95-3.913 10.112-4.44c1.161-.527 2.198-.958 2.304-.958.106 0 1.046-.381 2.088-.847 1.77-.79 2.386-1.056 5.796-2.506.715-.303 1.93-.829 2.7-1.168.77-.339 2.39-1.005 3.6-1.479 1.21-.474 2.74-1.106 3.4-1.405.66-.298 4.08-1.735 7.6-3.192 3.52-1.458 7.163-3 8.096-3.427.932-.427 1.931-.776 2.22-.776.288 0 .695-.153.904-.34.209-.187 1.19-.652 2.18-1.033.99-.381 2.43-.966 3.2-1.301 1.697-.736 3.129-1.329 4.2-1.739.44-.168 1.43-.579 2.2-.914.77-.335 2.84-1.179 4.6-1.876 1.76-.698 3.92-1.595 4.8-1.995.88-.4 6.01-2.468 11.4-4.594 5.39-2.127 10.43-4.142 11.2-4.478.77-.337 1.76-.749 2.2-.917.44-.168 1.34-.534 2-.813.66-.279 1.56-.639 2-.8.44-.161 1.34-.521 2-.8.66-.279 1.65-.687 2.2-.907l2-.8c.55-.22 1.36-.54 1.8-.71.44-.171 2.51-.978 4.6-1.794 31.275-12.211 30.867-12.077 37.943-12.464 10.928-.598 14.146 4.064 12.477 18.075-.21 1.76-.575 5-.811 7.2-.236 2.2-.604 5.215-.819 6.7-.214 1.485-.57 3.96-.79 5.5-.463 3.242-1.06 7.331-1.59 10.898-.205 1.376-.573 4.032-.819 5.902s-.607 4.39-.803 5.6c-.196 1.21-.544 3.415-.772 4.9-1.274 8.275-2.773 17.764-3.822 24.197-1.018 6.24-1.163 7.606-.77 7.212.212-.212.628-2.467 1.386-7.509.471-3.134 1.137-7.408 1.59-10.2.403-2.485 1.014-6.389 1.595-10.2.185-1.21.539-3.46.786-5 .248-1.54.623-4.015.835-5.5.211-1.485.564-3.96.784-5.5.22-1.54.573-4.015.784-5.5.212-1.485.579-3.96.816-5.5 2.551-16.567 3.931-31.472 3.177-34.308-.901-3.387-3.23-5.784-6.805-7.005-1.698-.579-10.306-.646-11.172-.087m-45.208 48.527c-4.254 1.751-9.447 5.06-23.992 15.289-3.63 2.553-8.13 5.706-10 7.005-1.87 1.3-5.83 4.062-8.8 6.138-9.39 6.563-27.586 18.791-33.4 22.446-8.033 5.05-11.838 7.395-12 7.395-.078 0-1.549.863-3.271 1.919-3.893 2.387-7.887 4.008-11.529 4.679-1.975.364-2.387.527-1.4.554 3.442.095 8.418-1.936 16-6.529 3.19-1.932 6.34-3.826 7-4.208 2.308-1.336 20.667-13.219 21-13.592.11-.123.695-.479 1.3-.791.605-.312 1.1-.717 1.1-.9 0-.182.255-.332.567-.332.311 0 .626-.151.7-.335.073-.185 2.563-1.973 5.533-3.973 2.97-2.001 6.57-4.471 8-5.49 1.43-1.02 4.22-2.952 6.2-4.294 1.98-1.342 3.69-2.561 3.8-2.708.11-.147 1.82-1.353 3.8-2.679 4.428-2.967 16.132-11.14 17.131-11.964.402-.331 1.167-.801 1.7-1.044.533-.243.969-.593.969-.777 0-.185.197-.336.438-.336s.916-.339 1.5-.753c3.77-2.674 8.642-4.914 10.375-4.77l1.487.123-.089 2.116c-.048 1.164-.355 2.497-.681 2.963-1.38 1.97-17.75 18.15-26.024 25.721-2.163 1.98-4.417 4.05-5.008 4.6-.591.55-1.957 1.787-3.036 2.749-15.355 13.688-30.028 27.811-32.054 30.851-5.322 7.99-4.803 15.439 1.369 19.639 1.058.719 2.013 1.419 2.123 1.555.11.136 2.45 1.785 5.2 3.663 2.75 1.879 6.412 4.389 8.137 5.579 1.725 1.19 3.55 2.434 4.053 2.764.504.33 5.843 3.945 11.863 8.034 18.685 12.689 42.499 28.574 43.547 29.048 6.253 2.827 14.5 1.096 19.739-4.143 3.14-3.14 4.56-6.233 5.481-11.939.213-1.32.564-3.39.78-4.6.216-1.21.564-3.28.773-4.6.209-1.32.581-3.48.825-4.8.592-3.189 1.119-6.274 1.571-9.2.204-1.32.753-4.541 1.219-7.159.466-2.617.779-5.047.696-5.4-.148-.621-.28-.035-1.099 4.859-.212 1.265-.573 3.425-.803 4.8-.23 1.375-.582 3.4-.782 4.5-.2 1.1-.552 3.125-.782 4.5-.23 1.375-.606 3.625-.836 5-.23 1.375-.582 3.4-.782 4.5-.2 1.1-.552 3.125-.782 4.5-1.045 6.244-1.401 7.662-2.534 10.089-4.969 10.638-16.97 12.969-27.884 5.418-1.65-1.142-7.671-5.21-13.381-9.041-17.199-11.541-35.575-24.029-52.285-35.535-9.316-6.415-10.855-10.984-6.518-19.353 1.767-3.409 3.14-4.972 10.61-12.078 7.733-7.356 11.027-10.447 13.001-12.2 1.954-1.735 6.509-5.871 15.373-13.959 16.148-14.735 28.867-27.732 29.5-30.147 1.061-4.043-.445-5.12-4.708-3.367m50.648 50.599c-.177 1.169-.225 2.222-.107 2.34.314.314.763-2.397.582-3.514-.098-.609-.27-.186-.475 1.174m-.74 4.024c-.165.743-.289 1.822-.275 2.4l.026 1.05.393-.986c.217-.543.34-1.623.275-2.4l-.119-1.414-.3 1.35m-1.485 9.075c-1.052 6.273-1.432 9.62-.86 7.575.319-1.139.602-2.692 1.683-9.24.258-1.562.388-3.081.29-3.375-.098-.295-.599 1.973-1.113 5.04M118 235.579c.979.334 5.096.568 4.767.27-.092-.083-1.427-.254-2.967-.381-1.768-.146-2.431-.105-1.8.111m6.9.715c1.045.082 2.755.082 3.8 0s.19-.15-1.9-.15-2.945.068-1.9.15M283.025 245c-.329 2.35-.905 5.599-1.489 8.403-.229 1.101-.353 2.451-.275 3 .079.548.661-1.992 1.294-5.644.633-3.653 1.061-6.893.95-7.2-.11-.308-.326.341-.48 1.441"/>
  </g>
</svg>
