<?xml version="1.0" standalone="no"?>
<!DOCTYPE svg PUBLIC "-//W3C//DTD SVG 20010904//EN"
 "http://www.w3.org/TR/2001/REC-SVG-20010904/DTD/svg10.dtd">
<svg version="1.0" xmlns="http://www.w3.org/2000/svg"
 width="128.000000pt" height="128.000000pt" viewBox="0 0 128.000000 128.000000"
 preserveAspectRatio="xMidYMid meet">
<g transform="translate(0.000000,128.000000) scale(0.100000,-0.100000)"
fill="#000000" stroke="none">
<path d="M482 1230 c-119 -32 -218 -96 -298 -191 -147 -176 -168 -453 -49
-649 l34 -56 -38 -152 c-22 -84 -37 -152 -35 -152 3 0 73 27 158 60 l153 60
44 -16 c67 -25 230 -30 309 -10 214 54 380 226 425 441 27 129 11 248 -50 372
-41 82 -134 185 -209 228 -136 79 -303 104 -444 65z m287 -25 c91 -24 162 -66
237 -140 121 -119 170 -247 161 -415 -6 -110 -30 -189 -84 -269 -71 -109 -171
-183 -303 -227 -76 -25 -233 -24 -315 2 l-60 20 -134 -53 c-74 -29 -136 -51
-138 -49 -2 2 11 62 29 135 32 128 32 132 15 159 -99 150 -122 335 -63 497 58
160 178 275 346 332 78 27 225 31 309 8z"/>
<path d="M585 1143 c-149 -18 -272 -91 -347 -207 -103 -160 -104 -367 -1 -518
l36 -53 -21 -80 c-11 -44 -19 -81 -16 -84 2 -2 40 10 84 27 l80 32 75 -25
c140 -47 290 -27 414 56 284 189 268 621 -30 791 -78 45 -194 71 -274 61z
m-42 -282 c15 -38 27 -72 27 -77 0 -4 -12 -20 -27 -36 -25 -26 -26 -30 -12
-54 18 -35 126 -142 150 -149 13 -4 30 3 50 20 18 14 35 25 38 23 4 -2 37 -14
74 -27 66 -24 67 -25 67 -62 0 -30 -7 -43 -37 -69 -34 -30 -40 -32 -90 -27
-172 18 -374 213 -398 385 -11 80 33 142 100 142 29 0 33 -4 58 -69z"/>
</g>
</svg>
