<?xml version="1.0" encoding="UTF-8" standalone="no"?>
<svg
   xmlns="http://www.w3.org/2000/svg"
   version="1.0"
   width="128.000000pt"
   height="128.000000pt"
   viewBox="0 0 128.000000 128.000000"
   id="whatsapp">
    <defs>
      <style type="text/css">
        <![CDATA[
       .base_art { fill: #00ff00; }
       .base_art:hover { fill: #000; }
       .icon_art { fill: #000; }
       .icon_art:hover { fill: #0f0; }
       ]]>
      </style>
    </defs>
  <path
     d="m 16.78185,150.06403 c 0,-0.66562 2.3228,-11.03966 3.771095,-16.84239 2.678424,-10.73135 3.34323,-14.2848 3.034139,-16.21775 -0.09768,-0.61087 -0.61918,-1.82957 -1.158885,-2.70824 C 15.885925,103.64454 12.613354,95.081904 11.038876,84.495637 10.343314,79.818912 10.329082,69.82641 11.011633,65.368237 12.149869,57.933691 14.080078,51.803099 17.473451,44.844677 25.270094,28.856945 38.489181,17.343344 56.43281,10.911736 62.725917,8.6560722 68.714228,7.8464223 79.104408,7.8464223 c 7.788512,0 11.488329,0.3443558 16.281281,1.5153593 11.532191,2.8175194 20.933141,8.3757814 30.721991,18.1642114 6.30103,6.30076 10.11339,11.468956 13.51175,18.31714 4.92023,9.914954 6.55439,19.258488 5.89319,33.695134 -0.28129,6.141772 -0.6975,9.279098 -1.86156,14.032414 -3.78717,15.464429 -15.2612,30.642629 -29.89633,39.547799 -5.21276,3.17186 -12.6116,6.46184 -17.820888,7.92428 -5.050519,1.41787 -14.651267,2.13188 -22.421161,1.66747 -8.088888,-0.48348 -12.093526,-1.22528 -18.743637,-3.47201 -2.066904,-0.6983 -3.91427,-1.26963 -4.105256,-1.26963 -0.190989,0 -4.342819,1.58192 -9.226287,3.51539 -12.830748,5.07996 -23.549116,9.05005 -24.433148,9.05005 -0.122377,0 -0.222503,-0.2115 -0.222503,-0.47 z m 17.903369,-16.53622 c 2.208993,-0.75307 6.555032,-2.38373 9.657865,-3.62367 l 5.641511,-2.25445 5.946622,1.96257 c 9.821975,3.24155 14.77402,4.16784 22.281697,4.16784 9.254663,0 17.463235,-1.90687 25.828966,-6.00014 6.5146,-3.18753 11.67404,-6.92965 16.62921,-12.06107 8.6413,-8.94869 13.76472,-19.688783 15.49404,-32.479798 0.84705,-6.265253 0.34732,-15.975916 -1.12205,-21.803627 C 132.35665,50.78082 127.01632,41.265913 119.57108,33.868932 110.88481,25.238961 100.64083,20.111948 87.008726,17.571797 82.577248,16.746053 73.918149,16.676214 69.835951,17.43329 55.649058,20.064365 44.248698,26.013968 35.577926,35.311817 24.814719,46.853428 18.834427,64.099694 20.086857,79.985742 c 0.605774,7.68375 2.399611,14.566587 5.4504,20.912828 0.839757,1.74686 3.045788,5.46407 4.902291,8.26047 1.856504,2.7964 3.375461,5.27785 3.375461,5.51434 0,0.23648 -0.576621,2.59035 -1.281379,5.23083 -1.671682,6.26317 -3.181644,12.94237 -3.184259,14.08532 -0.0028,1.24442 0.444835,1.20569 5.335848,-0.46172 z"
     class="base_art"
     transform="scale(0.8,0.8)" />
  <path
     d="M 96.805294,109.34738 C 88.707697,108.19893 79.513628,103.78634 71.092496,97.006813 65.47074,92.480955 58.945784,85.165897 55.123025,79.103615 c -4.250619,-6.7408 -7.077189,-15.018777 -7.06233,-20.682949 0.02214,-8.438294 5.468932,-14.570315 12.923381,-14.549185 1.811648,0.0051 2.589245,0.391461 3.688303,1.832423 1.264863,1.658346 6.280501,14.576881 6.280501,16.176381 0,0.692404 -1.423904,2.614948 -4.084757,5.515207 -1.941629,2.116322 -2.098263,2.94109 -0.979463,5.157421 1.205974,2.389021 3.732758,5.474896 8.25514,10.08172 4.428886,4.511581 7.934427,7.630071 9.87621,8.785759 2.191545,1.304338 3.764068,0.874681 7.669372,-2.095497 1.192162,-0.9067 2.686205,-1.880746 3.320092,-2.164546 1.148136,-0.514036 1.159551,-0.513346 2.998227,0.180574 1.015137,0.383112 4.107479,1.513399 6.871879,2.511746 8.32794,3.007592 8.6562,3.280944 8.6562,7.208413 0,4.134678 -0.32232,4.856348 -3.61673,8.097728 -3.6657,3.60671 -5.11104,4.41039 -8.10756,4.50822 -1.23053,0.0402 -3.483314,-0.10367 -5.006196,-0.31965 z"
     class="base_art"
     transform="scale(0.8,0.8)" />
  <path
     class="icon_art"
     d="m 12.8726,154.44032 c 0,-0.89397 0.896214,-4.71802 4.918516,-20.98681 L 21.565368,118.188 19.070447,113.90726 C 12.827027,103.19492 9.4516271,94.434921 8.662173,86.895201 8.2018049,82.498432 8.4841685,63.364297 9.048023,60.748398 10.900326,52.154982 14.653859,43.215422 19.418835,36.048866 24.699724,28.106372 32.929492,20.141732 41.07685,15.088581 48.502967,10.482757 59.985134,6.1079129 66.694646,5.3278905 70.937642,4.834616 88.478917,5.1076221 91.653632,5.7163431 c 7.381526,1.4153364 16.817838,5.1315909 24.207948,9.5336929 9.26509,5.518987 19.00548,16.061472 24.89212,26.941936 8.51875,15.745463 10.63162,33.521349 5.99518,50.438347 -1.33134,4.85767 -2.64607,8.270541 -5.15982,13.394251 -3.79545,7.73613 -8.02517,13.49266 -14.54655,19.79742 -8.74194,8.45157 -17.15212,13.46858 -28.996615,17.29765 -4.739792,1.53227 -7.353036,1.83755 -17.333691,2.0249 -12.8661,0.24152 -17.60021,-0.30555 -25.738709,-2.97437 l -4.112016,-1.34843 -7.3365,2.85551 c -16.564603,6.44728 -20.951957,8.12898 -25.276037,9.68845 -2.495019,0.89982 -4.725385,1.63605 -4.95637,1.63605 -0.234554,0 -0.419972,-0.24787 -0.419972,-0.56143 z m 9.075044,-5.0435 c 2.150087,-0.7551 9.471861,-3.49478 16.270607,-6.08819 l 12.361359,-4.71529 3.973719,1.22546 c 8.622126,2.65897 13.362899,3.31558 23.938818,3.31558 8.558475,0 11.046732,-0.2531 16.893542,-1.7184 14.911101,-3.73693 28.568921,-12.90448 37.895681,-25.43674 6.30874,-8.47699 10.43779,-17.870672 11.84779,-26.954045 0.59924,-3.860286 0.85592,-21.233323 0.38186,-25.845018 -0.80397,-7.821115 -4.28149,-16.608014 -9.90617,-25.030601 -3.05356,-4.572515 -5.19245,-7.170628 -9.21103,-11.188655 -8.9991,-8.99786 -19.41717,-15.091505 -31.359729,-18.3426455 L 91.755672,7.7257868 79.748691,7.7162957 c -10.390836,-0.00821 -12.417192,0.05957 -15.054609,0.5035848 -6.817947,1.147816 -14.277627,4.0489975 -21.616631,8.4070325 -11.799499,7.006756 -21.947324,18.248022 -27.154049,30.07993 -2.417865,5.494425 -4.657141,13.061149 -5.293283,17.886506 -0.209261,1.587317 -0.282754,5.722714 -0.210903,11.867364 0.106865,9.139064 0.134397,9.534356 0.889165,12.766328 1.583734,6.781665 5.060303,15.426739 9.408028,23.394639 l 2.282695,4.1834 -0.156922,2.41421 c -0.10398,1.59971 -1.01669,6.0883 -2.70529,13.30427 -3.054121,13.05132 -3.634274,15.79015 -3.634274,17.15697 0,1.73428 -0.353514,1.7527 5.445026,-0.28371 z"
     id="path3352"
     transform="scale(0.8,0.8)" />
  <path
     class="icon_art"
     d="m 29.905759,133.84669 c 0,-0.27053 1.004482,-4.63702 2.232181,-9.70331 1.2277,-5.0663 2.232935,-9.42294 2.233857,-9.68144 9.21e-4,-0.2585 -1.245668,-2.40171 -2.770199,-4.76269 C 25.805927,100.72373 22.884414,93.883761 21.355818,85.71138 20.755414,82.501428 20.537155,73.782936 20.955597,69.724342 23.458452,45.448391 39.384745,26.528446 63.023274,19.749234 c 5.032539,-1.443264 8.064162,-1.898033 13.70149,-2.055337 9.94407,-0.277481 17.947674,1.447797 26.758656,5.768165 13.07547,6.411413 23.22881,17.285239 28.43958,30.457659 4.79907,12.131669 5.22694,27.596454 1.10696,40.009667 -1.24281,3.744497 -4.22525,9.864022 -6.42546,13.184052 -11.71129,17.67192 -31.269815,27.23676 -52.768711,25.80585 -5.752053,-0.38284 -8.668077,-1.04226 -18.579607,-4.2015 l -5.225497,-1.6656 -5.106092,2.00644 c -5.978684,2.34934 -14.106808,5.27994 -14.644076,5.27994 -0.206117,0 -0.374758,-0.22135 -0.374758,-0.49188 z m 73.748971,-23.80553 c 1.87214,-0.35281 3.722,-1.59636 6.62705,-4.45493 1.43993,-1.4169 2.47324,-2.72698 3.00269,-3.80696 0.72057,-1.46983 0.80738,-1.936553 0.80851,-4.346779 0.001,-3.048955 -0.27052,-3.655483 -2.25934,-5.039086 -2.15652,-1.50027 -13.533502,-5.803527 -15.343406,-5.803527 -1.168413,0 -2.295478,0.540931 -6.409955,3.076442 -1.689354,1.04105 -3.337108,1.971471 -3.661677,2.067603 -2.078118,0.615497 -16.506915,-13.414155 -20.098203,-19.542225 -0.948009,-1.617655 -0.813995,-2.086059 1.352567,-4.727486 3.097204,-3.776039 3.559146,-4.542014 3.559146,-5.90164 0,-1.337472 -1.565892,-5.922848 -3.952274,-11.57337 -2.67718,-6.339078 -4.067206,-7.308401 -8.985888,-6.266235 -4.387202,0.929556 -7.057273,3.034861 -9.114591,7.186704 -1.091602,2.202946 -1.212034,2.656182 -1.336117,5.028412 -0.202217,3.865991 0.351885,8.707348 1.354971,11.838769 1.129656,3.526559 4.350877,9.794488 7.175009,13.961301 9.683417,14.287235 24.946032,25.189577 39.012467,27.867277 4.000246,0.76149 5.985361,0.8661 8.269041,0.43573 z"
     id="path3354"
     transform="scale(0.8,0.8)" />
</svg>
