<svg xmlns="http://www.w3.org/2000/svg" viewBox="0 0 40 40"><style>.st0{fill:#3D4044;} .st1{fill:#FFFFFF;}</style><path id="path-1_1_" class="st0" d="M30 6v9l-19.9 2L7.3 6H30M4.8 1H2c-.6 0-1 .4-1 1s.4 1 1 1h2l1 2 3.6 14-1.1 5H29c.6 0 1-.4 1-1s-.4-1-1-1H10l.6-3L30 17c1.1 0 2-.9 2-2V5c0-.6-.4-1-1-1H7L6 2c-.3-.5-.5-1-1.2-1zM27 25c-1.1 0-2 .9-2 2s.9 2 2 2 2-.9 2-2-.9-2-2-2zm-17 0c-1.1 0-2 .9-2 2s.9 2 2 2 2-.9 2-2-.9-2-2-2z"/><path id="path-1" class="st1" d="M1278 6827v-10c0-.6-.4-1-1-1h-24l-1-2c0-.6-.4-1-1-1h-3c-.6 0-1 .4-1 1s.4 1 1 1h2l1 2 3.6 14-1.1 5h21.5c.6 0 1-.4 1-1s-.4-1-1-1h-19l.6-3 19.4-2c1.1 0 2-.9 2-2zm-22 10c1.1 0 2 .9 2 2s-.9 2-2 2-2-.9-2-2 .9-2 2-2zm17 0c1.1 0 2 .9 2 2s-.9 2-2 2-2-.9-2-2 .9-2 2-2z"/></svg>