<?xml version="1.0" encoding="utf-8"?>
<!-- Generator: Adobe Illustrator 17.0.0, SVG Export Plug-In . SVG Version: 6.00 Build 0)  -->
<!DOCTYPE svg PUBLIC "-//W3C//DTD SVG 1.1//EN" "http://www.w3.org/Graphics/SVG/1.1/DTD/svg11.dtd">
<svg version="1.1" id="Layer_1" xmlns="http://www.w3.org/2000/svg" xmlns:xlink="http://www.w3.org/1999/xlink" x="0px" y="0px"
	 width="240px" height="240px" viewBox="0 0 240 240" enable-background="new 0 0 240 240" xml:space="preserve">
<g>
	<path fill="none" d="M240,120.001c0,66.276-53.72,120.001-120,119.999C53.724,240,0,186.278,0,120.001S53.721,0.002,120,0
		C186.28,0.002,240,53.727,240,120.001z"/>
</g>
<path fill="#23ACE4" d="M178.05,100.69c-3.226-13.849-14.432-24.613-28.518-27.192c-9.589-1.692-19.462-2.574-29.533-2.574
	c-10.075,0-19.942,0.882-29.531,2.574c-14.09,2.58-25.299,13.343-28.516,27.192C60.677,105.555,60,110.66,60,115.923v0.002
	c0,5.263,0.677,10.368,1.951,15.232c3.217,13.849,14.426,24.615,28.516,27.194c9.589,1.692,19.455,1.45,29.531,1.45v16.871
	c0,2.487,2.013,4.5,4.5,4.5c1.025,0,1.958-0.356,2.714-0.933l0.015,0.007l35.85-27.441c7.416-4.995,12.879-12.665,14.971-21.648
	c1.268-4.863,1.945-9.969,1.945-15.232v-0.002C179.995,110.66,179.317,105.555,178.05,100.69z M131.995,130.173H93.001
	c-2.487,0-4.5-2.016-4.5-4.5c0-2.484,2.013-4.5,4.5-4.5h38.993c2.487,0,4.5,2.016,4.5,4.5
	C136.495,128.158,134.482,130.173,131.995,130.173z M146.995,110.673H93.001c-2.487,0-4.5-2.014-4.5-4.5s2.013-4.5,4.5-4.5h53.993
	c2.487,0,4.5,2.014,4.5,4.5S149.482,110.673,146.995,110.673z"/>
</svg>
